<svg xmlns="http://www.w3.org/2000/svg" width="191" height="267" viewBox="0 0 191 267"><title>Паж Кубков</title>
    <g fill="none" fill-rule="evenodd">
        <g>
            <g>
                <g>
                    <path fill="#152230" stroke="#FFF" stroke-linecap="round" stroke-linejoin="round" stroke-width="2.5" d="M177.795 263.217H9.62c-5.22 0-9.452-4.192-9.452-9.364V9.365C.17 4.193 4.401 0 9.621 0h168.174c5.22 0 9.452 4.193 9.452 9.365v244.488c0 5.172-4.232 9.364-9.452 9.364z" transform="translate(-784 -1883) translate(786 1885) translate(0 .167)"/>
                    <path stroke="#44E7D9" stroke-width="1.875" d="M140.814 183.597c-3.26 2.033-7.2 1.507-10.463-.378-3.11-1.796-5.957-2.527-10.188.605l-.504.399c-3.26 2.033-6.767 1.306-10.03-.578-3.263-1.885-6.237-2.597-10.823 1.095l-.507.421c-3.26 2.033-6.768 1.307-10.03-.578-3.11-1.796-5.958-2.527-10.188.605l-.504.398c-3.26 2.034-6.768 1.307-10.03-.577-3.264-1.885-6.238-2.598-10.824 1.095-4.586 3.693-9.294-.135-9.294-.135" transform="translate(-784 -1883) translate(786 1885) translate(0 .167)"/>
                    <path fill="#000" d="M75.868 183.4s13.045 3.04 26.08 1.836c13.034-1.202 14.724-5.554 8.98-6.558-5.743-1.004-34.121 2.008-34.121 2.008" transform="translate(-784 -1883) translate(786 1885) translate(0 .167)"/>
                    <path stroke="#44E7D9" stroke-width="1.875" d="M140.814 147.563c-3.26 2.033-7.2 1.507-10.463-.378-3.11-1.796-5.957-2.527-10.188.605l-.504.398c-3.26 2.033-6.767 1.307-10.03-.577-3.263-1.885-6.237-2.598-10.823 1.095l-.507.42c-3.26 2.034-6.768 1.308-10.03-.577-3.11-1.797-5.958-2.528-10.188.604l-.504.399c-3.26 2.033-6.768 1.307-10.03-.578-3.264-1.884-6.238-2.597-10.824 1.095-4.586 3.693-9.294-.135-9.294-.135M140.814 156.486c-3.26 2.033-7.2 1.507-10.463-.378-3.11-1.796-5.957-2.528-10.188.605l-.504.398c-3.26 2.033-6.767 1.307-10.03-.578-3.263-1.884-6.237-2.597-10.823 1.096l-.507.42c-3.26 2.034-6.768 1.307-10.03-.577-3.11-1.796-5.958-2.528-10.188.604l-.504.399c-3.26 2.033-6.768 1.307-10.03-.578-3.264-1.885-6.238-2.597-10.824 1.096-4.586 3.692-9.294-.136-9.294-.136M140.814 165.523c-3.26 2.033-7.2 1.507-10.463-.378-3.11-1.796-5.957-2.528-10.188.605l-.504.399c-3.26 2.032-6.767 1.306-10.03-.578-3.263-1.885-6.237-2.597-10.823 1.095l-.507.42c-3.26 2.034-6.768 1.308-10.03-.577-3.11-1.796-5.958-2.528-10.188.605l-.504.398c-3.26 2.033-6.768 1.307-10.03-.578-3.264-1.885-6.238-2.597-10.824 1.096-4.586 3.692-9.294-.136-9.294-.136M140.814 174.56c-3.26 2.033-7.2 1.507-10.463-.378-3.11-1.796-5.957-2.527-10.188.605l-.504.399c-3.26 2.032-6.767 1.306-10.03-.578-3.263-1.885-6.237-2.597-10.823 1.095l-.507.421c-3.26 2.033-6.768 1.307-10.03-.578-3.11-1.796-5.958-2.527-10.188.605l-.504.398c-3.26 2.033-6.768 1.307-10.03-.578-3.264-1.884-6.238-2.597-10.824 1.096-4.586 3.692-9.294-.135-9.294-.135" transform="translate(-784 -1883) translate(786 1885) translate(0 .167)"/>
                    <path fill="#000" d="M88.293 143.868L99.78 143.199 99.78 180.017 88.293 179.013z" transform="translate(-784 -1883) translate(786 1885) translate(0 .167)"/>
                </g>
                <path fill="#D1A448" fill-rule="nonzero" d="M54.4 251.599v-3.881h1.576c.855 0 1.5-.222 1.932-.666.434-.444.65-1.034.65-1.77v-2.063c0-.736-.216-1.326-.65-1.77-.433-.444-1.077-.666-1.932-.666h-2.387V251.6h.812zm1.576-4.612h-1.575v-5.473h1.575c1.18 0 1.77.569 1.77 1.705v2.063c0 1.137-.59 1.705-1.77 1.705zm4.563 4.612l.731-3.167h3.086l.73 3.167h.845l-2.534-10.816h-1.169L59.695 251.6h.844zm3.654-3.898h-2.76l1.38-5.992 1.38 5.992zm5.773 3.98c.85 0 1.632-.212 2.347-.634v-4.628H71.5v4.14c-.368.26-.937.39-1.705.39-1.115 0-1.673-.487-1.673-1.461v-6.496c0-1.029.644-1.543 1.933-1.543.67 0 1.326.103 1.965.309v-.796c-.607-.173-1.235-.26-1.884-.26-1.884 0-2.826.763-2.826 2.29v6.496c0 .768.23 1.326.69 1.672.46.347 1.115.52 1.965.52zm9.184-.082v-.73h-3.67v-4.353h3.199v-.73h-3.2v-4.272h3.67v-.73h-4.481v10.815h4.482zm7.372.162c.856 0 1.5-.23 1.933-.69.433-.46.65-1.058.65-1.794v-6.171c0-.737-.217-1.335-.65-1.795-.433-.46-1.077-.69-1.933-.69-.855 0-1.499.23-1.932.69-.433.46-.65 1.058-.65 1.795v6.17c0 .737.217 1.335.65 1.795.433.46 1.077.69 1.932.69zm0-.73c-1.18 0-1.77-.585-1.77-1.754v-6.171c0-1.17.59-1.754 1.77-1.754 1.18 0 1.77.584 1.77 1.754v6.17c0 1.17-.59 1.755-1.77 1.755zm5.668.568v-4.92h3.378v-.731H92.19v-4.434h3.524v-.73h-4.336v10.815h.812zm10.393 0l.99-5.716c.239-1.364.412-2.637.52-3.817.12 1.18.628 4.358 1.527 9.533h1.17l1.883-10.816h-.844c-.899 5.446-1.44 8.808-1.624 10.085l-.423-2.842-1.201-7.243h-.958l-1.202 7.227c-.163.953-.303 1.905-.422 2.858l-.423-2.842-1.201-7.243h-.845l1.884 10.816h1.17zm7.665 0l.731-3.167h3.086l.73 3.167h.845l-2.534-10.816h-1.169l-2.533 10.816h.844zm3.654-3.898h-2.76l1.38-5.992 1.38 5.992zm5.18 3.898v-10.085h2.144v-.73h-5.1v.73h2.145V251.6h.812zm8.007 0v-.73h-3.67v-4.353h3.199v-.73h-3.2v-4.272h3.67v-.73h-4.482v10.815h4.483zm2.68 0v-4.466h1.574c.174 0 .303-.005.39-.016l1.608 4.482h.893l-1.705-4.66c.93-.347 1.396-1.094 1.396-2.242v-1.478c0-.736-.216-1.326-.65-1.77-.432-.444-1.076-.666-1.932-.666h-2.387V251.6h.812zm1.574-5.23h-1.575v-4.855h1.575c1.18 0 1.77.569 1.77 1.705v1.478c0 1.115-.59 1.673-1.77 1.673z" transform="translate(-784 -1883) translate(786 1885)"/>
                <g>
                    <path stroke="#FFF" stroke-width="1.875" d="M16.179 3.838L164.283 3.838 164.283 224.928M154.215 237.774L133.013 237.774M5.786 14.688L5.786 237.774 37.237 237.774" transform="translate(-784 -1883) translate(786 1885) translate(8.446 10.878)"/>
                    <path fill="#000" d="M164.444 231.681L167.067 236.181 169.689 240.682 164.444 240.682 159.2 240.682 161.822 236.181z" transform="translate(-784 -1883) translate(786 1885) translate(8.446 10.878)"/>
                    <path stroke="#44E7D9" stroke-width="1.875" d="M164.444 231.681L167.067 236.181 169.689 240.682 164.444 240.682 159.2 240.682 161.822 236.181z" transform="translate(-784 -1883) translate(786 1885) translate(8.446 10.878)"/>
                    <path fill="#000" d="M5.572 9.025L2.95 4.525 0.328 0.025 5.572 0.025 10.817 0.025 8.195 4.525z" transform="translate(-784 -1883) translate(786 1885) translate(8.446 10.878)"/>
                    <path stroke="#44E7D9" stroke-width="1.875" d="M5.572 9.025L2.95 4.525.328.025 5.572.025 10.817.025 8.195 4.525zM132.368 181.54c-3.26 2.034-7.2 1.508-10.463-.376-3.11-1.797-5.957-2.529-10.188.604l-.503.399c-3.26 2.032-6.768 1.306-10.031-.578-3.263-1.885-6.237-2.597-10.823 1.095l-.507.42c-3.26 2.034-6.768 1.308-10.03-.577-3.11-1.796-5.958-2.528-10.188.605l-.504.398c-3.26 2.033-6.767 1.307-10.03-.578-3.264-1.885-6.237-2.597-10.824 1.096-4.586 3.692-9.294-.135-9.294-.135M132.368 190.243c-3.26 2.033-7.2 1.507-10.463-.377-3.11-1.796-5.957-2.528-10.188.604l-.503.4c-3.26 2.032-6.768 1.305-10.031-.579-3.263-1.884-6.237-2.597-10.823 1.096l-.507.42c-3.26 2.033-6.768 1.307-10.03-.578-3.11-1.796-5.958-2.527-10.188.605l-.504.398c-3.26 2.034-6.767 1.307-10.03-.577-3.264-1.885-6.237-2.598-10.824 1.095-4.586 3.693-9.294-.135-9.294-.135M132.368 198.585c-3.26 2.033-7.2 1.508-10.463-.377-3.11-1.796-5.957-2.528-10.188.604l-.503.399c-3.26 2.033-6.768 1.307-10.031-.578-3.263-1.884-6.237-2.597-10.823 1.096l-.507.42c-3.26 2.034-6.768 1.307-10.03-.577-3.11-1.797-5.958-2.528-10.188.604l-.504.399c-3.26 2.033-6.767 1.306-10.03-.578-3.264-1.885-6.237-2.597-10.824 1.095-4.586 3.693-9.294-.135-9.294-.135" transform="translate(-784 -1883) translate(786 1885) translate(8.446 10.878)"/>
                    <path stroke="#D1A448" stroke-width="1.875" d="M109.85 91.972c1.479 25.036-8.282 43.92-24.14 44.485-15.674.558-26.015-18.447-24.733-44.164M80.704 135.706L80.799 149.801M90.412 135.642L90.506 149.738M85.882 151.122c-2.953.02-4.432-.264-5.619-1.134 0 0-1.467 1.473.02 2.926 0 0 1.777.866 5.026.845M80.883 154.336l.082 12.288s1.191 1.455 5.03 1.43c3.839-.026 4.715-1.494 4.715-1.494l-.082-12.288M83.128 136.766L83.22 150.517M83.245 154.32L83.331 167.193M86.675 137.328L86.759 149.909M86.795 155.175L86.832 160.733M86.842 162.197L86.875 167.17M89.628 137.309L89.701 148.134M89.748 155.156L89.824 166.566" transform="translate(-784 -1883) translate(786 1885) translate(8.446 10.878)"/>
                    <path stroke="#D1A448" stroke-width="1.875" d="M85.313 151.125c2.953-.02 4.428-.321 5.603-1.207 0 0 1.487 1.453.02 2.926 0 0-1.766.89-5.014.91M109.703 92.12c.019 2.747-10.808 5.044-24.181 5.132-13.374.088-24.23-2.068-24.249-4.815-.018-2.746 10.809-5.044 24.182-5.132 13.374-.088 24.23 2.068 24.248 4.815zM80.155 164.502c-3.163.307-9.961 1.134-13.744 2.842 0 0-4.57 2.697 5.526 4.583M91.092 164.27c3.163.303 9.961 1.123 13.746 2.829 0 0 4.57 2.692-5.525 4.588M73.757 171.99s11.822 1.678 24.53-.16" transform="translate(-784 -1883) translate(786 1885) translate(8.446 10.878)"/>
                    <path stroke="#D1A448" stroke-width="1.875" d="M65.374 168.096s-1.933 1.036-1.013 2.785c.92 1.75 8.202 3.75 17.59 3.688M89.345 174.529c9.389-.062 16.643-2.158 17.54-3.92.897-1.76-1.05-2.771-1.05-2.771M82.86 174.563s3.42.102 5.754-.037M109.576 96.475c.018 2.747-10.808 5.045-24.182 5.133-13.373.088-24.23-2.068-24.248-4.815M85.548 127.781s-.475-3.774 1.76-6.386c0 0 1.722-2.323 4.58-3.265 0 0-.185 3.81-1.54 5.588 0 0-.953 1.887-4.8 4.063z" transform="translate(-784 -1883) translate(786 1885) translate(8.446 10.878)"/>
                    <path stroke="#D1A448" stroke-width="1.875" d="M85.768 127.727s.425-3.78-1.844-6.363c0 0-1.753-2.3-4.623-3.205 0 0 .235 3.808 1.614 5.568 0 0 .978 1.874 4.853 4zM85.726 127.9s1.454-3.52 4.694-4.712c0 0 2.65-1.188 5.607-.622 0 0-2.045 3.232-4.107 4.123 0 0-1.764 1.182-6.194 1.21z" transform="translate(-784 -1883) translate(786 1885) translate(8.446 10.878)"/>
                    <path stroke="#D1A448" stroke-width="1.875" d="M85.723 127.9s-1.5-3.501-4.756-4.65c0 0-2.665-1.153-5.614-.548 0 0 2.088 3.204 4.161 4.068 0 0 1.78 1.159 6.21 1.13z" transform="translate(-784 -1883) translate(786 1885) translate(8.446 10.878)"/>
                    <path stroke="#D1A448" stroke-width="1.875" d="M85.75 127.688s-2.397-2.97-1.872-6.354c0 0 .24-2.872 2.177-5.157 0 0 1.856 3.343 1.64 5.56 0 0 .184 2.103-1.944 5.951zM63.815 108.876s2.395 13.548 9.153 20.28M63.434 106.467s-.306-1.753-.316-3.216M63.74 107.928L63.738 107.636" transform="translate(-784 -1883) translate(786 1885) translate(8.446 10.878)"/>
                    <path stroke="#44E7D9" stroke-width="1.875" d="M87.959 94.322c-1.454.01-3.812.448-1.993.858 0 0 1.545.491 1.1 1.544M91.79 96.62s-3.09-.19-2.37-1.25M64.009 94.377s9.203-4.563 17.017-4.403M82.481 89.964L85.841 89.943M86.953 89.935s13.57-.113 20.098 3.975M91.028 91.345c2.369 1.04-2.538.862-.896 1.907s4.9-.877 5.812-.25c.913.628-1.262 1.488-1.62 2.124M78.29 96.684s.682-1.352-1.677-.914c-2.359.438-2.465-1.78.809-1.379 3.272.402 6.905.166 6.351-1.097-.553-1.264-3.997.026-3.822-1.031.175-1.058 3.083-.865 4.718-.876 1.175-.008 2.723-.564 4.38-.49" transform="translate(-784 -1883) translate(786 1885) translate(8.446 10.878)"/>
                    <g>
                        <path fill="#000" d="M19.178 15.97c.31-1.21.57-2.523.57-2.523.913-8.54-1.106-11.892-1.106-11.892l-3.55 3.553L15.24.02C10.538 1.46 7.29 4.237 5.096 7.015c-.271.344-.527.688-.768 1.03C1.778 11.671.96 15.009.96 15.009s-.682 2.676-.848 4.229" transform="translate(-784 -1883) translate(786 1885) translate(8.446 10.878) translate(88.851 77.987)"/>
                        <path stroke="#FFF" stroke-width="1.875" d="M19.178 15.97c.31-1.21.57-2.523.57-2.523.913-8.54-1.106-11.892-1.106-11.892l-3.55 3.553L15.24.02C10.538 1.46 7.29 4.237 5.096 7.015c-.271.344-.527.688-.768 1.03C1.778 11.671.96 15.009.96 15.009s-.682 2.676-.848 4.229" transform="translate(-784 -1883) translate(786 1885) translate(8.446 10.878) translate(88.851 77.987)"/>
                    </g>
                    <path stroke="#FFF" stroke-width="1.875" d="M96.31 87.79c-2.433.53-2.968-1.882-2.968-1.882s-1.631-.222-2.411 0M96.118 87.728s.534 2.41 2.968 1.881" transform="translate(-784 -1883) translate(786 1885) translate(8.446 10.878)"/>
                    <g>
                        <path fill="#000" d="M7.888.319s-4 .365-6.397 7.964c0 0-1.116 3.023-1.365 5.353" transform="translate(-784 -1883) translate(786 1885) translate(8.446 10.878) translate(86.486 83.343)"/>
                        <path stroke="#FFF" stroke-width="1.875" d="M7.888.319s-4 .365-6.397 7.964c0 0-1.116 3.023-1.365 5.353" transform="translate(-784 -1883) translate(786 1885) translate(8.446 10.878) translate(86.486 83.343)"/>
                    </g>
                    <path stroke="#FFF" stroke-width="1.875" d="M93.868 85.127s-1.116-.186-2.078-.093M92.638 86.838s-1.412-.203-2.456.047M92.158 87.616s-1.816-.023-2.587.25M91.666 88.485s-1.938-.076-2.57.291M91.202 89.39s-2.257.075-2.498.249M90.705 90.476s-1.699.122-2.477.399M90.313 91.454s-2.528.402-2.527.72M89.953 92.503s-1.765.25-2.473.62M89.62 93.787s-1.134.021-2.667.534M89.361 94.937s-1.015-.026-2.477.437M89.165 95.915s-1.361.03-2.552.478M94.375 84.48s-.558-.4-1.546-.212M102.104 91.469c-2.434.53-2.969-1.882-2.969-1.882l-.049.022M101.911 91.406s.534 2.411 2.968 1.882M95.002 89.635c-2.434.53-2.969-1.88-2.969-1.88M94.809 89.573s.535 2.411 2.968 1.881M100.795 93.314c-2.434.53-2.968-1.881-2.968-1.881l-.05.021M100.602 93.252s.535 2.41 2.968 1.881M93.956 91.521c-2.434.53-2.969-1.88-2.969-1.88M93.763 91.46s.535 2.41 2.969 1.88" transform="translate(-784 -1883) translate(786 1885) translate(8.446 10.878)"/>
                    <path stroke="#FFF" stroke-width="1.875" d="M99.75 95.2c-2.435.53-2.97-1.881-2.97-1.881l-.049.021M99.556 95.138s.203.77.636 1.07M93.247 93.523c-2.433.53-2.968-1.881-2.968-1.881M93.054 93.46s.535 2.412 2.969 1.882" transform="translate(-784 -1883) translate(786 1885) translate(8.446 10.878)"/>
                    <path stroke="#FFF" stroke-width="1.875" d="M96.729 96.56c-.506-.56-.657-1.24-.657-1.24l-.05.022M92.572 95.531c-2.434.53-2.969-1.88-2.969-1.88M92.379 95.469s.192.865.868 1.445M90.042 97.02c-.602-.576-.777-1.362-.777-1.362M105.872 94.837c-.799-.572-1.019-1.562-1.019-1.562l-.048.022" transform="translate(-784 -1883) translate(786 1885) translate(8.446 10.878)"/>
                    <path fill="#FFF" d="M99.442 85.127c0-.463-.378-.837-.845-.837-.466 0-.844.374-.844.837 0 .462.378.836.844.836.467 0 .845-.374.845-.836" transform="translate(-784 -1883) translate(786 1885) translate(8.446 10.878)"/>
                    <path stroke="#FFF" stroke-width="1.875" d="M93.476 85.903s-1.413-.203-2.457.048" transform="translate(-784 -1883) translate(786 1885) translate(8.446 10.878)"/>
                    <path fill="#FFF" d="M69.407 50.957c-.092.179-.02.397.161.486.18.09.4.019.49-.16.091-.178.019-.396-.161-.486-.18-.09-.4-.018-.49.16M81.75 58.913c-.092.178-.019.396.161.486.18.09.4.018.49-.16.091-.179.019-.396-.16-.487-.18-.09-.4-.018-.491.16M69.63 61.078c-.324-.162-.72-.034-.883.287-.163.322-.033.713.29.876.325.161.72.033.884-.288.163-.322.033-.713-.291-.875M93.18 68.538c-.163.321-.033.713.29.874.325.163.72.034.884-.287.164-.322.033-.713-.29-.875-.325-.162-.72-.033-.884.288M65.498 37.55c.19.208.513.224.722.037.21-.187.227-.507.038-.715-.19-.208-.513-.224-.723-.037-.21.188-.226.508-.037.716M104.288 41.184c-.359.32-.388.87-.063 1.226.324.356.878.384 1.237.063.36-.322.388-.87.064-1.227-.325-.356-.879-.384-1.238-.062M73.82 83.55c.194.055.396-.055.452-.247.056-.192-.056-.393-.25-.448-.194-.055-.396.056-.452.248-.055.192.056.392.25.447M96.296 45.048c-.18.089-.253.306-.163.485s.31.251.49.162c.18-.09.254-.306.163-.485-.09-.18-.31-.252-.49-.162M88.802 78.538c-.325.16-.456.551-.294.873.162.322.556.453.881.292.325-.16.457-.552.295-.873-.162-.322-.557-.453-.882-.292M103.4 58.702c-.18.09-.253.307-.163.486.09.178.31.251.49.162.18-.09.253-.307.163-.486-.09-.178-.31-.251-.49-.162M80.119 74.068c-.162-.322-.557-.452-.882-.292-.325.161-.457.552-.294.874.162.322.556.452.881.291.325-.16.457-.551.295-.873M97.409 56.374c-.325.16-.457.551-.295.873.163.322.557.453.882.292.325-.16.457-.552.294-.874-.162-.321-.556-.452-.881-.291M81.879 43.823c-.482.045-.836.468-.79.946.045.477.472.828.954.783.482-.045.836-.469.79-.946-.045-.478-.472-.828-.954-.783" transform="translate(-784 -1883) translate(786 1885) translate(8.446 10.878)"/>
                </g>
            </g>
        </g>
    </g>
</svg>
