<svg xmlns="http://www.w3.org/2000/svg" width="191" height="269" viewBox="0 0 191 269"><title>Королева Пентаклей</title>
    <g fill="none" fill-rule="evenodd">
        <g>
            <g>
                <path fill="#182018" stroke="#FFF" stroke-linecap="round" stroke-linejoin="round" stroke-width="2.5" d="M177.475 265.368H9.604c-5.211 0-9.435-4.224-9.435-9.435V9.603C.169 4.394 4.393.17 9.604.17h167.871c5.211 0 9.436 4.224 9.436 9.435v246.329c0 5.21-4.225 9.435-9.436 9.435z" transform="translate(-192 -3789) translate(194 3791)"/>
                <path fill="#44E7D9" fill-rule="nonzero" d="M56.264 255.173l-1.718-1.929c.67-.432 1.005-1.124 1.005-2.075v-6.16c0-.734-.216-1.332-.648-1.79-.433-.46-1.076-.69-1.93-.69-.853 0-1.496.23-1.928.69-.433.458-.649 1.056-.649 1.79v6.16c0 .735.216 1.332.649 1.792.432.459 1.075.688 1.929.688.27 0 .54-.027.81-.08l1.427 1.604h1.053zm-3.29-2.253c-1.178 0-1.767-.584-1.767-1.75v-6.16c0-1.168.589-1.751 1.767-1.751s1.767.583 1.767 1.75v6.16c0 1.167-.59 1.751-1.767 1.751zm7.343.73c.854 0 1.497-.23 1.929-.69.432-.459.648-1.056.648-1.79v-8.479h-.81v8.478c0 1.167-.59 1.751-1.767 1.751-1.178 0-1.767-.584-1.767-1.75v-8.479h-.81v8.478c0 .735.216 1.332.648 1.792.432.459 1.075.688 1.929.688zm9.402-.163v-.73h-3.664v-4.343h3.194v-.73h-3.194v-4.263h3.664v-.73h-4.474v10.796h4.474zm6.338 0v-.73h-3.663v-4.343h3.193v-.73h-3.193v-4.263h3.663v-.73h-4.474v10.796h4.474zm2.659 0v-6.127l-.031-3.124-.002-.15c.4 1.037 1.632 4.17 3.696 9.401h1.07v-10.796h-.81v6.16l.032 3.275c-.13-.346-1.362-3.49-3.696-9.435h-1.054v10.796h.795zm12.66.162c.854 0 1.497-.23 1.929-.688.432-.46.648-1.057.648-1.792v-6.16c0-.734-.216-1.332-.648-1.79-.432-.46-1.075-.69-1.93-.69-.853 0-1.496.23-1.928.69-.432.458-.649 1.056-.649 1.79v6.16c0 .735.217 1.332.649 1.792.432.459 1.075.688 1.929.688zm0-.729c-1.178 0-1.767-.584-1.767-1.75v-6.16c0-1.168.589-1.751 1.767-1.751s1.767.583 1.767 1.75v6.16c0 1.167-.59 1.751-1.767 1.751zm5.657.567v-4.911h3.372v-.73h-3.372v-4.425h3.518v-.73h-4.328v10.796h.81zm12.612 0v-.73h-3.664v-4.343h3.194v-.73h-3.194v-4.263h3.664v-.73h-4.474v10.796h4.474zm1.815 0l.73-3.16h3.08l.73 3.16h.842l-2.529-10.796h-1.167l-2.529 10.796h.843zm3.648-3.89h-2.756l1.378-5.982 1.378 5.982zm4.085 3.89v-4.457l1.73-.002c.097-.003.173-.007.231-.015l1.605 4.474h.891l-1.702-4.652c.93-.346 1.394-1.091 1.394-2.237v-1.475c0-.735-.216-1.324-.648-1.767-.432-.443-1.075-.665-1.929-.665h-2.383v10.796h.81zm1.572-5.22h-1.572v-4.846h1.572c1.178 0 1.767.567 1.767 1.702v1.475c0 1.113-.589 1.67-1.767 1.67zm6.808 5.22v-10.066h2.14v-.73h-5.09v.73h2.14v10.066h.81zm4.328 0v-4.928h3.794v4.928h.826v-10.796h-.826v5.139H131.9v-5.139h-.81v10.796h.81z" transform="translate(-192 -3789) translate(194 3791)"/>
                <g>
                    <path stroke="#FFF" stroke-linecap="round" stroke-linejoin="round" stroke-width="1.875" d="M153.937 239.564L132.1 239.564M5.775 14.799L5.775 239.564 37.17 239.564" transform="translate(-192 -3789) translate(194 3791) translate(8.43 10.96)"/>
                    <path stroke="#D1A448" stroke-linecap="round" stroke-linejoin="round" stroke-width="1.875" d="M5.503 9.093L2.886 4.559 0.268 0.025 5.503 0.025 10.739 0.025 8.121 4.559z" transform="translate(-192 -3789) translate(194 3791) translate(8.43 10.96)"/>
                    <g>
                        <path fill="#000" d="M10.73 0.495L0.276 0.495" transform="translate(-192 -3789) translate(194 3791) translate(8.43 10.96) translate(0 4.721)"/>
                        <path stroke="#D1A448" stroke-linecap="round" stroke-linejoin="round" stroke-width="1.875" d="M10.73 0.495L0.276 0.495" transform="translate(-192 -3789) translate(194 3791) translate(8.43 10.96) translate(0 4.721)"/>
                    </g>
                    <path stroke="#D1A448" stroke-width="1.875" d="M164.152 234.015L166.77 238.549 169.388 243.083 164.152 243.083 158.917 243.083 161.535 238.549z" transform="translate(-192 -3789) translate(194 3791) translate(8.43 10.96)"/>
                    <g>
                        <path fill="#000" d="M0.09 0.482L10.544 0.482" transform="translate(-192 -3789) translate(194 3791) translate(8.43 10.96) translate(158.835 237.41)"/>
                        <path stroke="#D1A448" stroke-width="1.875" d="M0.09 0.482L10.544 0.482" transform="translate(-192 -3789) translate(194 3791) translate(8.43 10.96) translate(158.835 237.41)"/>
                    </g>
                    <path stroke="#FFF" stroke-linecap="round" stroke-linejoin="round" stroke-width="1.875" d="M17.245 3.457L165.082 3.457 165.082 226.211" transform="translate(-192 -3789) translate(194 3791) translate(8.43 10.96)"/>
                    <path stroke="#44E7D9" stroke-linecap="round" stroke-linejoin="round" stroke-width="1.875" d="M91.572 71.166s-9.635-.21-12.725 8.167c-2.898 7.858 3.36 12.048 3.138 12.145" transform="translate(-192 -3789) translate(194 3791) translate(8.43 10.96)"/>
                    <path stroke="#D1A448" stroke-linecap="round" stroke-linejoin="round" stroke-width="1.875" d="M92.142 90.729c-.57-1.14-4.178-6.648-7.787-5.508-3.608 1.14-2.56 6.257-2.56 6.257s-5.422-5.185-9.215-3.978c-4.178 1.33-1.3 5.996-1.3 5.996-.155-.25-4.999-5.531-.98-7.895 0 0 3.759-2.53 9.382 3.198" transform="translate(-192 -3789) translate(194 3791) translate(8.43 10.96)"/>
                    <path stroke="#FBAE17" stroke-linecap="round" stroke-linejoin="round" stroke-width="1.875" d="M81.895 91.363c-.619.018-3.337-9.346 3.22-8.801 5.707.474 7.217 8.167 7.217 8.167-4.558-12.156 0-19.373 0-19.373v-2.089s-3.988-2.85-3.418-4.558c.57-1.71 3.038-1.52 3.988 0" transform="translate(-192 -3789) translate(194 3791) translate(8.43 10.96)"/>
                    <path stroke="#44E7D9" stroke-linecap="round" stroke-linejoin="round" stroke-width="1.875" d="M72.58 70.597s-4.938 1.502-6.268 8.451" transform="translate(-192 -3789) translate(194 3791) translate(8.43 10.96)"/>
                    <path stroke="#D1A448" stroke-linecap="round" stroke-linejoin="round" stroke-width="1.875" d="M92.902 68.697s-3.229-2.279-2.09-3.228c1.14-.95 2.09.949 2.09.949M103.91 91.437c.617.018 3.336-9.346-3.221-8.801-5.707.474-7.217 8.166-7.217 8.166 4.558-12.155 0-19.372 0-19.372v-2.089s3.988-2.85 3.418-4.558c-.57-1.71-3.038-1.52-3.988 0" transform="translate(-192 -3789) translate(194 3791) translate(8.43 10.96)"/>
                    <path stroke="#D1A448" stroke-linecap="round" stroke-linejoin="round" stroke-width="1.875" d="M92.902 68.771s3.229-2.28 2.089-3.229c-1.14-.95-2.09.95-2.09.95" transform="translate(-192 -3789) translate(194 3791) translate(8.43 10.96)"/>
                    <path stroke="#44E7D9" stroke-linecap="round" stroke-linejoin="round" stroke-width="1.875" d="M113.365 94s10.826-5.888 6.078-18.803c-4.749-12.915-23.361-5.698-25.64-3.989 0 0 9.635-.21 12.725 8.167 2.898 7.858-3.36 12.048-3.138 12.145" transform="translate(-192 -3789) translate(194 3791) translate(8.43 10.96)"/>
                    <path stroke="#D1A448" stroke-linecap="round" stroke-linejoin="round" stroke-width="1.875" d="M105.693 88.841c5.623-5.727 9.381-3.198 9.381-3.198 4.02 2.364-.824 7.645-.98 7.895 0 0 2.88-4.666-1.299-5.996-3.793-1.207-9.215 3.978-9.215 3.978s1.049-5.117-2.56-6.257c-3.609-1.14-6.648 4.368-7.217 5.508l-1.66-.042c-12.726-.57-21.652 4.748-21.652 4.748.57 2.279 1.9 2.089 1.9 2.089s4.988-4.873 19.181-4.748l2.23.042c13.822.127 19.563 4.558 19.563 4.558s.95.38 1.52-1.899c0 0-8.927-5.318-21.652-4.748" transform="translate(-192 -3789) translate(194 3791) translate(8.43 10.96)"/>
                    <path stroke="#44E7D9" stroke-linecap="round" stroke-linejoin="round" stroke-width="1.875" d="M81.795 91.478S71.63 76.864 91.573 70.976M103.687 91.75s10.165-14.614-9.778-20.502" transform="translate(-192 -3789) translate(194 3791) translate(8.43 10.96)"/>
                    <path stroke="#D1A448" stroke-linecap="round" stroke-linejoin="round" stroke-width="1.875" d="M92.332 71.166s.57.38 1.14 0" transform="translate(-192 -3789) translate(194 3791) translate(8.43 10.96)"/>
                    <path stroke="#FFF" stroke-linecap="round" stroke-linejoin="round" stroke-width="1.875" d="M73.719 89.209L73.53 90.918 74.859 92.248 75.049 90.349zM85.299 86.937L84.756 88.569 85.779 90.147 86.361 88.329zM111.594 89.145L111.784 90.855 110.455 92.184 110.265 90.285zM100.015 86.873L100.557 88.505 99.535 90.083 98.953 88.265z" transform="translate(-192 -3789) translate(194 3791) translate(8.43 10.96)"/>
                    <path stroke="#D1A448" stroke-linecap="round" stroke-linejoin="round" stroke-width="1.875" d="M70.71 95.967s1.11-.68 1.49-.87M70.71 95.967s1.11-.68 1.49-.87M70.948 96.382s.79-.485 1.061-.62M71.095 97s1.11-.68 1.49-.87M71.553 97.227s.79-.485 1.062-.62" transform="translate(-192 -3789) translate(194 3791) translate(8.43 10.96)"/>
                    <path stroke="#44E7D9" stroke-linecap="round" stroke-linejoin="round" stroke-width="1.875" d="M72.078 93.992s-10.826-5.888-6.077-18.803c4.748-12.915 23.36-5.698 25.64-3.989M54.39 203.894s2.748 1.25 4.496-1.25" transform="translate(-192 -3789) translate(194 3791) translate(8.43 10.96)"/>
                    <path stroke="#FFF" stroke-linecap="round" stroke-linejoin="round" stroke-width="1.875" d="M126.098 154.672s-1.749-.75-1.25-1.999c.5-1.249 1.75-4.497 4.499-5.747 0 0 1.249-.25 1.748.5l-4.997 7.246zM48.018 162.043s4.497-.75 7.995-3.248c3.498-2.499 2.624-3.623 7.371-4.623 4.748-.999 8.495-3.248 11.743-3.248 3.249 0 10.494 2 14.992 3.998 4.497 1.999 7.745 3.248 7.745 3.248M98.614 158.17s8.245.25 12.243 2.999c0 0 .75.749.75 1.749M106.36 162.168s5.996 1.25 6.746 1.999c.75.75 1 1 1 2.248 0 1.25-1 1.25-1 1.25s-7.996-.5-8.995-1.75c0 0 .25-2.997 1.499-3.747" transform="translate(-192 -3789) translate(194 3791) translate(8.43 10.96)"/>
                    <path stroke="#FFF" stroke-linecap="round" stroke-linejoin="round" stroke-width="1.875" d="M104.61 166.166c-2.748-1-6.745-.25-6.745-.25s-2.75.25-6.997-.75-7.745-.5-7.745-.5M81.874 164.417s5.746 3.248 6.746 3.747M89.37 167.665s7.745-1 9.244-1.5M111.607 161.418s3.498-3.248 5.247-4.997M117.353 155.921s4.248-7.496 7.746-7.496c0 0 1.749-.25 1.999.25M125.599 155.422l-2.749 4.747s-4.497 5.747-5.996 7.496c-1.5 1.749-4.748 4.997-7.246 5.747-2.499.749-18.24 3.747-18.24 3.747s-2.998 1.25-4.248 0" transform="translate(-192 -3789) translate(194 3791) translate(8.43 10.96)"/>
                    <path stroke="#FFF" stroke-linecap="round" stroke-linejoin="round" stroke-width="1.875" d="M81.374 183.906s1.749.499 4.497 0c2.749-.5 5.247-.75 5.247-.75s2.499-1 6.247-1.999c3.748-1 8.245-2.998 10.743-3.498 0 0 2.75-1.25 3.998-2.249 1.25-1 5.497-6.996 6.747-8.745 1.249-1.749 2.103-3.248 2.426-4.497" transform="translate(-192 -3789) translate(194 3791) translate(8.43 10.96)"/>
                    <path stroke="#FFF" stroke-linecap="round" stroke-linejoin="round" stroke-width="1.875" d="M108.109 177.659s-1.75 2.249-2.749 2.249c-1 0-9.494 2.249-10.994 2.748-1.499.5-7.245 2.499-8.245 2.749-1 .25-2.998-.5-2.998-.5s-9.744-3.248-13.243-3.998c-3.498-.75-4.997-1-10.244-1.249-5.247-.25-9.994 2.499-9.994 2.499M94.866 161.918s-1.75 2.14-.874 3.818M95.616 163.167s-.25 1.337-.75 2.667M96.865 162.918s.218 2.011-.766 3.004M110.604 173.006s-2.246-.844-2.496-3.842M111.607 172.428s-1.25-.266-1.5-1.265M112.509 171.795s-1.402-1.382-1.402-2.381M112.856 170.663s-1-1-1-1.25M119.602 156.92s.75 1.75 1.999 2.5M121.6 160.919s-.749-.5-1.498-1.5M110.607 173.661c.75 1 1.25 1.75 1.25 1.75M112.856 174.648s-.5-.487-1-.987M110.607 176.385s-.5-.725-.5-1.474" transform="translate(-192 -3789) translate(194 3791) translate(8.43 10.96)"/>
                    <path stroke="#44E7D9" stroke-linecap="round" stroke-linejoin="round" stroke-width="1.875" d="M30.653 143.179s-2.249-1.5-3.498.25v.999s-2 0-2.249 1.499c0 0-5.997 6.996 2.748 13.492 0 0 7.244 3.645 7.996-2.248 0 0-.25-2.25-1.749-2-1.5.25-2.249 2.75 0 2.25" transform="translate(-192 -3789) translate(194 3791) translate(8.43 10.96)"/>
                    <path stroke="#44E7D9" stroke-linecap="round" stroke-linejoin="round" stroke-width="1.875" d="M25.406 147.426s-1.25 1.25-1.5 3.498c-.25 2.25 1.5 4.747 1.5 4.747M26.155 156.421s1 1.75 3.249 2.249M31.902 160.919s-1.25.499-.5 1c0 0-1 .999.5 1.748 0 0-.5 3.248 3.248 3.998s4.747-2 3.998-3.248c-.75-1.25-2.749.25-1.75.999M35.65 147.426s1.999-.25 2.248.75c.25 1-.25 1.998-.25 1.998s1.25-.25 1.25.75c0 0 2-1.749 4.497-.25 2.499 1.5 2.499 4.498 1.5 6.747-1 2.249-5.747 2.748-5.497-1 0 0 .25-1.749 1.749-.75" transform="translate(-192 -3789) translate(194 3791) translate(8.43 10.96)"/>
                    <path stroke="#44E7D9" stroke-linecap="round" stroke-linejoin="round" stroke-width="1.875" d="M37.899 148.176s3.498 1.75 4.747-1.25l.25-.999s.5 2.499 4.497 1.75c0 0 2.499-1.25 2-3.499 0 0 2.997.25 3.247-1.999 0 0 0-.5-.25-.75 0 0 .5-.999-.5-1.498 0 0-.25-.25-.749 0 0 0 .5-.5 0-1.25s-1.25 0-1.25 0 2.5-5.497-.999-8.745c-3.497-3.248-6.246-1.999-6.246-1.999s0-1.998-1.999-2.249c-1.999-.25-2.748 0-3.248.5 0 0-1-.999-2.749-.5-1.748.5-4.247 2.25-1.748 3 0 0 1.249 0 1-1M48.334 147.398s1.558.278 1.308 1.277c0 0 2.249-.499 1.25 1.5 0 0 4.247-1 4.746 2.998 0 0-.25 1.749-1.499 2.498 0 0 3.066-.435 2.657 2.531M51.141 150.924s2.998-.75 3.498 1.5M46.144 146.926c-2.249 0-2.748-2.248-2.748-2.248M31.402 128.437s-2.248.25-2.248 2.499c0 0-2.249-.25-2.499 1.749 0 0-1 .75-.5 1.499 0 0-2.998 1.249-2.249 4.248 0 0 .75 2.498 4.248 2.998 0 0-1.107.556.696 1.153" transform="translate(-192 -3789) translate(194 3791) translate(8.43 10.96)"/>
                    <path stroke="#44E7D9" stroke-linecap="round" stroke-linejoin="round" stroke-width="1.875" d="M41.896 131.685s1.5-.5 1.25 1.25c0 0 2.248-1.5 4.247.5 2 1.998 0 6.496-2.748 4.496-2.749-1.998 0-2.998.75-2.498M45.144 158.17s2 0 1.75 1.75c0 0 .999.998 0 1.498 0 0 2.248 2.749 0 4.748 0 0-1.75 1.249-3.249 0 0 0-1.249 3.248-4.497.5" transform="translate(-192 -3789) translate(194 3791) translate(8.43 10.96)"/>
                    <path stroke="#44E7D9" stroke-linecap="round" stroke-linejoin="round" stroke-width="1.875" d="M43.395 167.415s2.999-.5 2.999 2.249c0 2.748-1.5 2.498-1.5 2.498s2.999-.75 3.249 1c0 0 4.247-.75 4.747 2.748s-1.75 5.997-4.498 4.997.25-3.998 1.25-2.998M28.154 160.419s-3.997 1.25-1.999 4.247c0 0-1 .5-.5 1.5 0 0-1.998-.25-1.749 3.998.25 4.247 2.999 7.495 8.745 8.744 5.747 1.25 5.247-6.246 2.5-5.746-2.75.5-1.75 1.999-.5 1.999M25.406 167.415s-2.249 3.997 2.248 7.995M30.403 179.158s-.75.5-.75.75c0 0-3.747-.5-2.748 3.748 0 0-3.498 1.499-1.25 5.996 1.406 2.811 3.592 3.963 5.156 3.76.939-.121 1.653-.73 1.84-1.761.5-2.748-3.747-1.25-2.248 0M50.836 181.557s2.054.1 2.054 1.599c0 0 1-1.25 2.499 0 0 0 3.248-.5 2.748 2.748 0 0 1.5-.25 1.5 1.25 0 0 3.248-.5 2.997 3.498-.25 3.997-4.247 7.495-6.746 5.497-2.498-2-.25-4.748.75-3.998M61.135 189.152s1.5 3.748-1.998 5.747M59.137 197.648s2.498 2.248 1.249 4.747c-1.25 2.498-5.497 4.248-7.496 1.999 0 0-.75 1.25-2.748.25-2-1-1.25-2.499-.5-2.749M59.137 201.645s.75-1.999-1-3.248M31.153 194.15s.25 1.999 2.498 1.499c0 0 .5 2.498 3.998 1 0 0-1.25 3.747 3.748 3.247 0 0 .25 1.25 1.249.75 0 0 1.999 4.747 6.246.5 0 0 1.5-2 .75-3.498-.75-1.5-3.248-1-2.998 1M44.395 200.896s1.999 2.248 3.748-1M41.896 184.405s-1.749.75-.999 2c0 0-1.999 3.747 1.999 3.747 0 0 1.749-1 0-1.999M29.653 181.157s-2.498.25-1.499 2.499M26.905 185.405s-2.749 2.748 1.999 6.496M48.892 173.911s2.999.195 2.999 2.499M44.895 165.416s2.498.5 1.998-2.498M32.652 164.417s1.499 3.248 4.747 2.248M40.647 156.67s0 1.5 1.499 1.5M39.398 151.674s2.998-1.5 4.747 1.25M26.155 135.433s-2.498 1.75-.75 3.498M31.902 129.187s-2.498.75-1.75 2.498c0 0-2.747-.25-2.498 1.5M45.144 137.182s1.5.75 2-1.25M43.395 128.937s3.998-.25 4.997 2.998M34.65 194.15s.75 2.498 2.749.75M38.648 196.648s.25 2.499 2.749 2" transform="translate(-192 -3789) translate(194 3791) translate(8.43 10.96)"/>
                    <path stroke="#D1A448" stroke-linecap="round" stroke-linejoin="round" stroke-width="1.875" d="M107.357 159.572c8.159-4.607 13.667-13.359 13.667-23.397 0-14.83-12.022-26.851-26.852-26.851s-26.85 12.022-26.85 26.851c0 5.562 1.69 10.728 4.585 15.013" transform="translate(-192 -3789) translate(194 3791) translate(8.43 10.96)"/>
                    <path stroke="#D1A448" stroke-linecap="round" stroke-linejoin="round" stroke-width="1.875" d="M79.498 151.526L94.355 110.521 110.802 156.068 69.794 128.533 118.689 128.533 83.197 152.464" transform="translate(-192 -3789) translate(194 3791) translate(8.43 10.96)"/>
                    <path stroke="#D1A448" stroke-linecap="round" stroke-linejoin="round" stroke-width="1.875" d="M111.107 160.967c7.918-5.412 13.114-14.512 13.114-24.826 0-16.595-13.453-30.048-30.049-30.048-16.595 0-30.048 13.453-30.048 30.048 0 6.027 1.774 11.639 4.829 16.342" transform="translate(-192 -3789) translate(194 3791) translate(8.43 10.96)"/>
                    <path fill="#FFF" d="M132.7 188.515c.182.16.199.437.039.618-.16.18-.437.198-.618.037-.181-.16-.198-.436-.038-.617.16-.182.437-.198.618-.038M111.572 200.887c.206-.233.562-.255.795-.049.232.206.254.562.048.795-.206.233-.562.254-.794.048-.233-.206-.255-.562-.049-.794M142.385 167.175c.233.205.255.561.049.794-.206.233-.562.255-.795.049-.232-.206-.254-.562-.048-.795.206-.233.562-.254.794-.048M124.467 198.632c.31.274.34.749.065 1.06-.275.31-.749.339-1.059.064-.31-.274-.34-.75-.065-1.06.275-.31.75-.339 1.06-.064M110.783 189.432c.232.206.254.562.048.795-.206.233-.561.254-.794.048-.233-.205-.255-.561-.049-.794.206-.233.562-.254.795-.049M140.443 184.095c.13.115.141.312.027.442-.115.129-.312.141-.441.027-.13-.115-.142-.312-.027-.442.114-.13.312-.141.441-.027M123.254 186.726c.181.16.198.437.038.618s-.437.198-.618.038-.198-.437-.038-.618.437-.198.618-.038M133.891 179.085c.206-.233.562-.255.794-.049.233.206.255.561.05.794-.207.233-.563.255-.795.049-.233-.206-.255-.562-.049-.794M47.555 69.345c-.21-.119-.283-.386-.164-.597.12-.21.387-.283.597-.164.21.12.284.387.164.597-.12.21-.387.284-.597.164M60.965 49.519c-.153.27-.497.365-.767.211s-.365-.497-.21-.767c.153-.27.496-.365.767-.211.27.153.364.497.21.767M52.922 82.442c-.27-.154-.364-.498-.21-.768.153-.27.497-.364.767-.21.27.153.365.496.21.767-.153.27-.497.364-.767.21M50.159 58.088c-.36-.205-.486-.663-.281-1.023.204-.36.663-.486 1.023-.281.36.204.486.663.281 1.023-.205.36-.663.486-1.023.281M69.49 57.194c-.27-.154-.364-.498-.21-.768.153-.27.497-.364.767-.21.27.153.365.496.21.766-.153.271-.497.365-.767.212M35.492 74.926c-.15-.085-.202-.276-.117-.427.085-.15.276-.202.426-.117.15.086.203.276.118.426-.086.15-.277.203-.427.118M58.854 63.42c-.21-.12-.283-.387-.164-.598.12-.21.387-.283.597-.164.21.12.284.387.164.597-.12.21-.387.284-.597.164M44.284 87.924c-.154.27-.497.365-.768.21-.27-.153-.364-.497-.21-.766.153-.27.497-.365.767-.211.27.153.365.497.21.767" transform="translate(-192 -3789) translate(194 3791) translate(8.43 10.96)"/>
                </g>
            </g>
        </g>
    </g>
</svg>
