<svg xmlns="http://www.w3.org/2000/svg" width="191" height="269" viewBox="0 0 191 269"><title>Тройка Кубков</title>
    <g fill="none" fill-rule="evenodd">
        <g>
            <g>
                <path fill="#152230" stroke="#FFF" stroke-linecap="round" stroke-linejoin="round" stroke-width="2.5" d="M177.795 266.062H9.62c-5.22 0-9.452-4.231-9.452-9.452V9.837C.17 4.617 4.401.385 9.621.385h168.174c5.22 0 9.452 4.232 9.452 9.452V256.61c0 5.22-4.232 9.452-9.452 9.452z" transform="translate(-783 -1152) translate(785 1153)"/>
                <path fill="#D1A448" fill-rule="nonzero" d="M52.55 254.12v-10.085h2.143v-.73h-5.099v.73h2.144v10.085h.812zm4.336 0v-4.937h3.8v4.937h.828v-10.816h-.828v5.148h-3.8v-5.148h-.812v10.816h.812zm7.876 0v-4.466h1.575c.173 0 .303-.005.39-.016l1.608 4.482h.893l-1.705-4.66c.93-.347 1.396-1.094 1.396-2.242v-1.478c0-.736-.216-1.326-.65-1.77-.432-.444-1.077-.666-1.932-.666H63.95v10.816h.812zm1.575-5.23h-1.575v-4.855h1.575c1.18 0 1.77.568 1.77 1.705v1.478c0 1.115-.59 1.673-1.77 1.673zm9.403 5.23v-.731h-3.67v-4.352h3.199v-.73h-3.2v-4.272h3.67v-.73h-4.481v10.815h4.482zm6.35 0v-.731h-3.67v-4.352h3.199v-.73h-3.2v-4.272h3.67v-.73h-4.482v10.815h4.482zm7.372.162c.855 0 1.5-.23 1.933-.69.433-.46.65-1.058.65-1.794v-6.171c0-.737-.217-1.335-.65-1.795-.433-.46-1.078-.69-1.933-.69s-1.5.23-1.932.69c-.433.46-.65 1.058-.65 1.795v6.17c0 .737.217 1.335.65 1.795.433.46 1.077.69 1.932.69zm0-.73c-1.18 0-1.77-.585-1.77-1.754v-6.171c0-1.17.59-1.754 1.77-1.754 1.18 0 1.77.584 1.77 1.754v6.17c0 1.17-.59 1.754-1.77 1.754zm5.668.568v-4.92h3.378v-.732H95.13v-4.433h3.524v-.73h-4.336v10.815h.812zm10.393 0l.99-5.717c.239-1.364.412-2.636.52-3.816.12 1.18.628 4.358 1.527 9.533h1.169l1.884-10.816h-.845c-.898 5.446-1.44 8.808-1.624 10.085l-.422-2.842-1.202-7.243h-.958l-1.201 7.227c-.163.953-.304 1.905-.423 2.858l-.422-2.842-1.202-7.243h-.844l1.884 10.816h1.169zm7.665 0l.73-3.167h3.086l.731 3.167h.845l-2.534-10.816h-1.17l-2.532 10.816h.844zm3.654-3.898h-2.76l1.38-5.992 1.38 5.992zm5.18 3.898v-10.085h2.144v-.73h-5.1v.73h2.144v10.085h.812zm8.006 0v-.731h-3.67v-4.352h3.2v-.73h-3.2v-4.272h3.67v-.73h-4.482v10.815h4.482zm2.68 0v-4.466h1.575c.173 0 .303-.005.39-.016l1.608 4.482h.893l-1.705-4.66c.93-.347 1.396-1.094 1.396-2.242v-1.478c0-.736-.216-1.326-.65-1.77-.432-.444-1.077-.666-1.932-.666h-2.387v10.816h.812zm1.575-5.23h-1.575v-4.855h1.575c1.18 0 1.77.568 1.77 1.705v1.478c0 1.115-.59 1.673-1.77 1.673z" transform="translate(-783 -1152) translate(785 1153)"/>
                <g stroke="#FFF" stroke-linecap="round" stroke-linejoin="round" stroke-width="1.875">
                    <path d="M92.083.496L158.54.496 158.54 223.652M10.436.496L67.038.496M148.471 236.617L129.297 236.617M29.129 236.617L.043 236.617.043 11.447" transform="translate(-783 -1152) translate(785 1153) translate(14.19 14.574)"/>
                </g>
                <path fill="#D1A448" fill-rule="nonzero" d="M90.866 19.102V8.287h-.812v10.815h.812zm3.248 0V8.287h-.812v10.815h.812zm3.248 0V8.287h-.812v10.815h.812z" transform="translate(-783 -1152) translate(785 1153)"/>
                <g>
                    <path fill="#000" d="M164.444 233.846L167.067 238.389 169.689 242.931 164.444 242.931 159.2 242.931 161.822 238.389z" transform="translate(-783 -1152) translate(785 1153) translate(8.446 11.196)"/>
                    <path stroke="#44E7D9" stroke-linecap="round" stroke-linejoin="round" stroke-width="1.875" d="M164.444 233.846L167.067 238.389 169.689 242.931 164.444 242.931 159.2 242.931 161.822 238.389z" transform="translate(-783 -1152) translate(785 1153) translate(8.446 11.196)"/>
                    <path fill="#000" d="M5.572 9.11L2.95 4.568 0.328 0.025 5.572 0.025 10.817 0.025 8.195 4.568z" transform="translate(-783 -1152) translate(785 1153) translate(8.446 11.196)"/>
                    <path stroke="#44E7D9" stroke-linecap="round" stroke-linejoin="round" stroke-width="1.875" d="M5.572 9.11L2.95 4.568 0.328 0.025 5.572 0.025 10.817 0.025 8.195 4.568z" transform="translate(-783 -1152) translate(785 1153) translate(8.446 11.196)"/>
                    <path stroke="#D1A448" stroke-linecap="round" stroke-linejoin="round" stroke-width="1.875" d="M96.916 145.722c1.236 14.506-4.085 25.613-13.194 26.183-9.002.563-15.24-10.308-14.9-25.251M80.833 171.545L81.104 179.723M86.413 171.36L86.684 179.538M84.047 180.412c-1.697.056-2.552-.085-3.248-.572 0 0-.82.877.057 1.698 0 0 1.035.475 2.902.413M81.222 182.353l.237 7.13s.707.826 2.914.753c2.206-.073 2.688-.939 2.688-.939l-.237-7.13M82.243 172.124L82.507 180.102M82.58 182.309L82.828 189.777M84.291 172.395L84.533 179.694M84.634 182.75L84.741 185.975M84.769 186.824L84.865 189.71M85.988 172.339L86.197 178.62M86.332 182.694L86.551 189.314" transform="translate(-783 -1152) translate(785 1153) translate(8.446 11.196)"/>
                    <path stroke="#D1A448" stroke-linecap="round" stroke-linejoin="round" stroke-width="1.875" d="M83.72 180.423c1.698-.056 2.541-.254 3.203-.786 0 0 .877.82.056 1.697 0 0-1.001.543-2.869.605M96.834 145.81c.053 1.593-6.137 3.092-13.824 3.347-7.688.255-13.962-.83-14.015-2.424-.053-1.594 6.136-3.093 13.824-3.348 7.687-.254 13.962.83 14.015 2.425zM80.96 188.264c-1.813.226-5.709.81-7.858 1.86 0 0-2.585 1.634 3.248 2.574M87.245 187.962c1.823.128 5.744.5 7.946 1.432 0 0 2.67 1.493-3.105 2.747M77.397 192.707s6.823.793 14.101-.468" transform="translate(-783 -1152) translate(785 1153) translate(8.446 11.196)"/>
                    <path stroke="#D1A448" stroke-linecap="round" stroke-linejoin="round" stroke-width="1.875" d="M72.518 190.575s-1.096.63-.54 1.632c.556 1.001 4.774 2.05 10.17 1.872M86.399 193.942c5.396-.179 9.535-1.506 10.023-2.541.489-1.037-.646-1.593-.646-1.593M82.67 194.061s1.969.007 3.308-.11M96.828 148.34c.052 1.593-6.137 3.092-13.824 3.346-7.688.255-13.962-.83-14.015-2.424M83.496 166.873s-.332-2.184.913-3.734c0 0 .954-1.373 2.582-1.964 0 0-.047 2.214-.799 3.266 0 0-.518 1.11-2.696 2.432z" transform="translate(-783 -1152) translate(785 1153) translate(8.446 11.196)"/>
                    <path stroke="#D1A448" stroke-linecap="round" stroke-linejoin="round" stroke-width="1.875" d="M83.621 166.838s.186-2.2-1.158-3.665c0 0-1.043-1.307-2.707-1.79 0 0 .194 2.207 1.014 3.208 0 0 .59 1.072 2.851 2.247z" transform="translate(-783 -1152) translate(785 1153) translate(8.446 11.196)"/>
                    <path fill="#000" d="M83.6 166.939s.781-2.065 2.625-2.806c0 0 1.506-.73 3.215-.447 0 0-1.127 1.907-2.298 2.456 0 0-.996.712-3.542.797" transform="translate(-783 -1152) translate(785 1153) translate(8.446 11.196)"/>
                    <path stroke="#D1A448" stroke-linecap="round" stroke-linejoin="round" stroke-width="1.875" d="M83.6 166.939s.781-2.065 2.625-2.806c0 0 1.506-.73 3.215-.447 0 0-1.127 1.907-2.298 2.456 0 0-.996.712-3.542.797z" transform="translate(-783 -1152) translate(785 1153) translate(8.446 11.196)"/>
                    <path fill="#000" d="M83.598 166.939s-.916-2.01-2.806-2.626c0 0-1.55-.628-3.237-.233 0 0 1.25 1.828 2.456 2.298 0 0 1.04.645 3.587.56" transform="translate(-783 -1152) translate(785 1153) translate(8.446 11.196)"/>
                    <path stroke="#D1A448" stroke-linecap="round" stroke-linejoin="round" stroke-width="1.875" d="M83.598 166.939s-.916-2.01-2.806-2.626c0 0-1.55-.628-3.237-.233 0 0 1.25 1.828 2.456 2.298 0 0 1.04.645 3.587.56z" transform="translate(-783 -1152) translate(785 1153) translate(8.446 11.196)"/>
                    <path fill="#000" d="M83.61 166.816s-1.424-1.687-1.174-3.66c0 0 .094-1.67 1.172-3.025 0 0 1.119 1.911 1.029 3.201 0 0 .138 1.218-1.026 3.484" transform="translate(-783 -1152) translate(785 1153) translate(8.446 11.196)"/>
                    <path stroke="#D1A448" stroke-linecap="round" stroke-linejoin="round" stroke-width="1.875" d="M83.61 166.816s-1.424-1.687-1.174-3.66c0 0 .094-1.67 1.172-3.025 0 0 1.119 1.911 1.029 3.201 0 0 .138 1.218-1.026 3.484zM70.71 156.233s1.585 7.825 5.574 11.629M70.453 154.841s-.203-1.012-.231-1.861M70.651 155.684L70.646 155.515" transform="translate(-783 -1152) translate(785 1153) translate(8.446 11.196)"/>
                    <g>
                        <path fill="#F9FAF4" d="M.162.16s1.42.185 2.452 0" transform="translate(-783 -1152) translate(785 1153) translate(8.446 11.196) translate(74.324 165.203)"/>
                        <path stroke="#D1A448" stroke-linecap="round" stroke-linejoin="round" stroke-width="1.875" d="M.162.16s1.42.185 2.452 0" transform="translate(-783 -1152) translate(785 1153) translate(8.446 11.196) translate(74.324 165.203)"/>
                    </g>
                    <g>
                        <path fill="#F9FAF4" d="M.044.152s2.149.298 3.709 0" transform="translate(-783 -1152) translate(785 1153) translate(8.446 11.196) translate(73.986 164.527)"/>
                        <path stroke="#D1A448" stroke-linecap="round" stroke-linejoin="round" stroke-width="1.875" d="M.044.152s2.149.298 3.709 0" transform="translate(-783 -1152) translate(785 1153) translate(8.446 11.196) translate(73.986 164.527)"/>
                    </g>
                    <g>
                        <path fill="#F9FAF4" d="M.161.354s1.42.184 2.452 0" transform="translate(-783 -1152) translate(785 1153) translate(8.446 11.196) translate(75.676 166.216)"/>
                        <path stroke="#D1A448" stroke-linecap="round" stroke-linejoin="round" stroke-width="1.875" d="M.161.354s1.42.184 2.452 0" transform="translate(-783 -1152) translate(785 1153) translate(8.446 11.196) translate(75.676 166.216)"/>
                    </g>
                    <g>
                        <path fill="#F9FAF4" d="M.189.258s2.148.298 3.709 0" transform="translate(-783 -1152) translate(785 1153) translate(8.446 11.196) translate(76.351 167.23)"/>
                        <path stroke="#D1A448" stroke-linecap="round" stroke-linejoin="round" stroke-width="1.875" d="M.189.258s2.148.298 3.709 0" transform="translate(-783 -1152) translate(785 1153) translate(8.446 11.196) translate(76.351 167.23)"/>
                    </g>
                    <path fill="#000" d="M57.586 189.217s4.36-.406 9.227-.203 8.111-.608 10.037-.71c1.927-.101 7.2-2.129 7.605-2.23.406-.102 4.766-1.42 5.678-1.825.913-.406 1.116-1.825 1.116-1.825 0-.913-.913-2.028-1.42-2.028-.507 0-1.42.608-1.42.608l-2.128.304c-2.637.507-3.854.102-3.854.102 0-.811 2.738-1.52 3.042-1.623.304-.101 5.475-.912 6.084-1.926.608-1.014-.304-3.042-.71-3.245-.406-.202-1.115 0-1.42 0-.304 0-6.489 1.014-6.387.406.101-.608 2.433-1.217 3.245-1.318.81-.102 6.995-1.318 7.4-2.13.407-.81.103-3.142.103-3.142s-1.826-.406-2.84-.305c-1.014.102-7.199.609-7.807.71-.608.101-2.839 0-2.332-.304.507-.304 3.65-1.521 4.056-1.724.405-.203 3.143-.71 3.853-.71.71 0 5.88-.507 6.692-.912.811-.406.608-2.535.203-2.737-.406-.204-5.881-.609-7.706-.812-1.826-.203-8.822 1.116-8.822 1.116s-6.185 1.723-8.72 2.331c-2.535.609-6.184 2.84-6.691 3.144-.507.304-9.329 5.475-13.08 6.793-3.751 1.318-8.82.913-8.82.913-2.13 1.419-3.145 6.286-3.145 6.286-.506 6.59 3.803 9.886 3.803 9.886s9.227-1.724 10.24-1.724l4.918-1.166z" transform="translate(-783 -1152) translate(785 1153) translate(8.446 11.196)"/>
                    <path stroke="#FFF" stroke-linecap="round" stroke-linejoin="round" stroke-width="1.875" d="M57.586 189.217s4.36-.406 9.227-.203 8.111-.608 10.037-.71c1.927-.101 7.2-2.129 7.605-2.23.406-.102 4.766-1.42 5.678-1.825.913-.406 1.116-1.825 1.116-1.825 0-.913-.913-2.028-1.42-2.028-.507 0-1.42.608-1.42.608l-2.128.304c-2.637.507-3.854.102-3.854.102 0-.811 2.738-1.52 3.042-1.623.304-.101 5.475-.912 6.084-1.926.608-1.014-.304-3.042-.71-3.245-.406-.202-1.115 0-1.42 0-.304 0-6.489 1.014-6.387.406.101-.608 2.433-1.217 3.245-1.318.81-.102 6.995-1.318 7.4-2.13.407-.81.103-3.142.103-3.142s-1.826-.406-2.84-.305c-1.014.102-7.199.609-7.807.71-.608.101-2.839 0-2.332-.304.507-.304 3.65-1.521 4.056-1.724.405-.203 3.143-.71 3.853-.71.71 0 5.88-.507 6.692-.912.811-.406.608-2.535.203-2.737-.406-.204-5.881-.609-7.706-.812-1.826-.203-8.822 1.116-8.822 1.116s-6.185 1.723-8.72 2.331c-2.535.609-6.184 2.84-6.691 3.144-.507.304-9.329 5.475-13.08 6.793-3.751 1.318-8.82.913-8.82.913-2.13 1.419-3.145 6.286-3.145 6.286-.506 6.59 3.803 9.886 3.803 9.886s9.227-1.724 10.24-1.724l4.918-1.166z" transform="translate(-783 -1152) translate(785 1153) translate(8.446 11.196)"/>
                    <g>
                        <path fill="#000" d="M1.818.02S.5.12.196.627" transform="translate(-783 -1152) translate(785 1153) translate(8.446 11.196) translate(78.378 168.919)"/>
                        <path stroke="#FFF" stroke-linecap="round" stroke-linejoin="round" stroke-width="1.875" d="M1.818.02S.5.12.196.627" transform="translate(-783 -1152) translate(785 1153) translate(8.446 11.196) translate(78.378 168.919)"/>
                    </g>
                    <g>
                        <path fill="#000" d="M1.818.088S.398 1.1.195 1.508" transform="translate(-783 -1152) translate(785 1153) translate(8.446 11.196) translate(76.351 170.27)"/>
                        <path stroke="#FFF" stroke-linecap="round" stroke-linejoin="round" stroke-width="1.875" d="M1.818.088S.398 1.1.195 1.508" transform="translate(-783 -1152) translate(785 1153) translate(8.446 11.196) translate(76.351 170.27)"/>
                    </g>
                    <g>
                        <path fill="#000" d="M2.324.02S.702 1.438.194 1.438" transform="translate(-783 -1152) translate(785 1153) translate(8.446 11.196) translate(75.338 168.919)"/>
                        <path stroke="#FFF" stroke-linecap="round" stroke-linejoin="round" stroke-width="1.875" d="M2.324.02S.702 1.438.194 1.438" transform="translate(-783 -1152) translate(785 1153) translate(8.446 11.196) translate(75.338 168.919)"/>
                    </g>
                    <g>
                        <path fill="#000" d="M3.035.09S1.515.697.298.8" transform="translate(-783 -1152) translate(785 1153) translate(8.446 11.196) translate(79.392 174.324)"/>
                        <path stroke="#FFF" stroke-linecap="round" stroke-linejoin="round" stroke-width="1.875" d="M3.035.09S1.515.697.298.8" transform="translate(-783 -1152) translate(785 1153) translate(8.446 11.196) translate(79.392 174.324)"/>
                    </g>
                    <g>
                        <path fill="#000" d="M0.668 0.292L0.668 1.103 0.262 0.495" transform="translate(-783 -1152) translate(785 1153) translate(8.446 11.196) translate(75.676 173.31)"/>
                        <path stroke="#FFF" stroke-linecap="round" stroke-linejoin="round" stroke-width="1.875" d="M0.668 0.292L0.668 1.103 0.262 0.495" transform="translate(-783 -1152) translate(785 1153) translate(8.446 11.196) translate(75.676 173.31)"/>
                    </g>
                    <g>
                        <path fill="#000" d="M.336.02s-.507 1.318 0 2.433" transform="translate(-783 -1152) translate(785 1153) translate(8.446 11.196) translate(90.203 168.919)"/>
                        <path stroke="#FFF" stroke-linecap="round" stroke-linejoin="round" stroke-width="1.875" d="M.336.02s-.507 1.318 0 2.433" transform="translate(-783 -1152) translate(785 1153) translate(8.446 11.196) translate(90.203 168.919)"/>
                    </g>
                    <g>
                        <path fill="#000" d="M.066.324S.471.527.27 2.149" transform="translate(-783 -1152) translate(785 1153) translate(8.446 11.196) translate(90.878 168.919)"/>
                        <path stroke="#FFF" stroke-linecap="round" stroke-linejoin="round" stroke-width="1.875" d="M.066.324S.471.527.27 2.149" transform="translate(-783 -1152) translate(785 1153) translate(8.446 11.196) translate(90.878 168.919)"/>
                    </g>
                    <g>
                        <path fill="#000" d="M.337.02s.405 1.52 0 2.433" transform="translate(-783 -1152) translate(785 1153) translate(8.446 11.196) translate(91.216 168.919)"/>
                        <path stroke="#FFF" stroke-linecap="round" stroke-linejoin="round" stroke-width="1.875" d="M.337.02s.405 1.52 0 2.433" transform="translate(-783 -1152) translate(785 1153) translate(8.446 11.196) translate(91.216 168.919)"/>
                    </g>
                    <g>
                        <path fill="#000" d="M1.886.056S.365.867.06 1.17" transform="translate(-783 -1152) translate(785 1153) translate(8.446 11.196) translate(78.716 175.676)"/>
                        <path stroke="#FFF" stroke-linecap="round" stroke-linejoin="round" stroke-width="1.875" d="M1.886.056S.365.867.06 1.17" transform="translate(-783 -1152) translate(785 1153) translate(8.446 11.196) translate(78.716 175.676)"/>
                    </g>
                    <g>
                        <path fill="#000" d="M0.366 0.327L0.062 1.544" transform="translate(-783 -1152) translate(785 1153) translate(8.446 11.196) translate(81.757 177.027)"/>
                        <path stroke="#FFF" stroke-linecap="round" stroke-linejoin="round" stroke-width="1.875" d="M0.366 0.327L0.062 1.544" transform="translate(-783 -1152) translate(785 1153) translate(8.446 11.196) translate(81.757 177.027)"/>
                    </g>
                    <g>
                        <path fill="#000" d="M.742 2.354C.133 1.847.336.326.336.326" transform="translate(-783 -1152) translate(785 1153) translate(8.446 11.196) translate(90.203 175)"/>
                        <path stroke="#FFF" stroke-linecap="round" stroke-linejoin="round" stroke-width="1.875" d="M.742 2.354C.133 1.847.336.326.336.326" transform="translate(-783 -1152) translate(785 1153) translate(8.446 11.196) translate(90.203 175)"/>
                    </g>
                    <g>
                        <path fill="#000" d="M.167.056S.27.158.471 1.17" transform="translate(-783 -1152) translate(785 1153) translate(8.446 11.196) translate(90.878 175.676)"/>
                        <path stroke="#FFF" stroke-linecap="round" stroke-linejoin="round" stroke-width="1.875" d="M.167.056S.27.158.471 1.17" transform="translate(-783 -1152) translate(785 1153) translate(8.446 11.196) translate(90.878 175.676)"/>
                    </g>
                    <g>
                        <path fill="#000" d="M.065.261s-.203.811.507 1.521" transform="translate(-783 -1152) translate(785 1153) translate(8.446 11.196) translate(88.851 181.757)"/>
                        <path stroke="#FFF" stroke-linecap="round" stroke-linejoin="round" stroke-width="1.875" d="M.065.261s-.203.811.507 1.521" transform="translate(-783 -1152) translate(785 1153) translate(8.446 11.196) translate(88.851 181.757)"/>
                    </g>
                    <g>
                        <path fill="#000" d="M.234.092s.507.609.609 1.521" transform="translate(-783 -1152) translate(785 1153) translate(8.446 11.196) translate(89.19 181.419)"/>
                        <path stroke="#FFF" stroke-linecap="round" stroke-linejoin="round" stroke-width="1.875" d="M.234.092s.507.609.609 1.521" transform="translate(-783 -1152) translate(785 1153) translate(8.446 11.196) translate(89.19 181.419)"/>
                    </g>
                    <g>
                        <path fill="#000" d="M.234.33s.203 1.013.609 1.317" transform="translate(-783 -1152) translate(785 1153) translate(8.446 11.196) translate(89.19 182.095)"/>
                        <path stroke="#FFF" stroke-linecap="round" stroke-linejoin="round" stroke-width="1.875" d="M.234.33s.203 1.013.609 1.317" transform="translate(-783 -1152) translate(785 1153) translate(8.446 11.196) translate(89.19 182.095)"/>
                    </g>
                    <g>
                        <path fill="#000" d="M2.055.228S.94.329.331.531" transform="translate(-783 -1152) translate(785 1153) translate(8.446 11.196) translate(79.054 182.095)"/>
                        <path stroke="#FFF" stroke-linecap="round" stroke-linejoin="round" stroke-width="1.875" d="M2.055.228S.94.329.331.531" transform="translate(-783 -1152) translate(785 1153) translate(8.446 11.196) translate(79.054 182.095)"/>
                    </g>
                    <g>
                        <path fill="#000" d="M2.055.26S.535.87.027.769" transform="translate(-783 -1152) translate(785 1153) translate(8.446 11.196) translate(79.054 180.743)"/>
                        <path stroke="#FFF" stroke-linecap="round" stroke-linejoin="round" stroke-width="1.875" d="M2.055.26S.535.87.027.769" transform="translate(-783 -1152) translate(785 1153) translate(8.446 11.196) translate(79.054 180.743)"/>
                    </g>
                    <g>
                        <path fill="#000" d="M.334.084S-.07 1.301.638 1.91" transform="translate(-783 -1152) translate(785 1153) translate(8.446 11.196) translate(86.149 162.162)"/>
                        <path stroke="#FFF" stroke-linecap="round" stroke-linejoin="round" stroke-width="1.875" d="M.334.084S-.07 1.301.638 1.91" transform="translate(-783 -1152) translate(785 1153) translate(8.446 11.196) translate(86.149 162.162)"/>
                    </g>
                    <g>
                        <path fill="#000" d="M.132.084S-.07 1.605.436 2.112" transform="translate(-783 -1152) translate(785 1153) translate(8.446 11.196) translate(87.162 162.162)"/>
                        <path stroke="#FFF" stroke-linecap="round" stroke-linejoin="round" stroke-width="1.875" d="M.132.084S-.07 1.605.436 2.112" transform="translate(-783 -1152) translate(785 1153) translate(8.446 11.196) translate(87.162 162.162)"/>
                    </g>
                    <g>
                        <path fill="#000" d="M.166.118s.304.912 0 1.622" transform="translate(-783 -1152) translate(785 1153) translate(8.446 11.196) translate(87.838 161.824)"/>
                        <path stroke="#FFF" stroke-linecap="round" stroke-linejoin="round" stroke-width="1.875" d="M.166.118s.304.912 0 1.622" transform="translate(-783 -1152) translate(785 1153) translate(8.446 11.196) translate(87.838 161.824)"/>
                    </g>
                    <g>
                        <path fill="#000" d="M.405.017s-.406 1.724.203 2.13" transform="translate(-783 -1152) translate(785 1153) translate(8.446 11.196) translate(93.581 162.838)"/>
                        <path stroke="#FFF" stroke-linecap="round" stroke-linejoin="round" stroke-width="1.875" d="M.405.017s-.406 1.724.203 2.13" transform="translate(-783 -1152) translate(785 1153) translate(8.446 11.196) translate(93.581 162.838)"/>
                    </g>
                    <g>
                        <path fill="#000" d="M.135.152s.203.507 0 1.42" transform="translate(-783 -1152) translate(785 1153) translate(8.446 11.196) translate(94.257 162.5)"/>
                        <path stroke="#FFF" stroke-linecap="round" stroke-linejoin="round" stroke-width="1.875" d="M.135.152s.203.507 0 1.42" transform="translate(-783 -1152) translate(785 1153) translate(8.446 11.196) translate(94.257 162.5)"/>
                    </g>
                    <g>
                        <path fill="#000" d="M1.977.129S.86.939.152.939" transform="translate(-783 -1152) translate(785 1153) translate(8.446 11.196) translate(52.365 188.176)"/>
                        <path stroke="#FFF" stroke-linecap="round" stroke-linejoin="round" stroke-width="1.875" d="M1.977.129S.86.939.152.939" transform="translate(-783 -1152) translate(785 1153) translate(8.446 11.196) translate(52.365 188.176)"/>
                    </g>
                    <g>
                        <path fill="#000" d="M.083.496h.811S1.198.293.49.09" transform="translate(-783 -1152) translate(785 1153) translate(8.446 11.196) translate(50 176.351)"/>
                        <path stroke="#FFF" stroke-linecap="round" stroke-linejoin="round" stroke-width="1.875" d="M.083.496h.811S1.198.293.49.09" transform="translate(-783 -1152) translate(785 1153) translate(8.446 11.196) translate(50 176.351)"/>
                    </g>
                    <g>
                        <path fill="#000" d="M.366 2.222S-.039.802.569.296c0 0 .202.405.202 1.216 0 .812.305-1.42.305-1.42" transform="translate(-783 -1152) translate(785 1153) translate(8.446 11.196) translate(80.743 183.446)"/>
                        <path stroke="#FFF" stroke-linecap="round" stroke-linejoin="round" stroke-width="1.875" d="M.366 2.222S-.039.802.569.296c0 0 .202.405.202 1.216 0 .812.305-1.42.305-1.42" transform="translate(-783 -1152) translate(785 1153) translate(8.446 11.196) translate(80.743 183.446)"/>
                    </g>
                    <path stroke="#44E7D9" stroke-linecap="round" stroke-linejoin="round" stroke-width="1.875" d="M86.978 148.665s-1.88-.092-1.438-.55c.443-.46 0-.46-.885-.46s-2.322.184-1.217.368c0 0 .94.217.665.673M71.735 147.61s3.961-2.248 8.717-2.157M81.116 145.453L82.554 145.453M83.438 145.453s7.016-.01 10.974 1.784" transform="translate(-783 -1152) translate(785 1153) translate(8.446 11.196)"/>
                    <path stroke="#44E7D9" stroke-linecap="round" stroke-linejoin="round" stroke-width="1.875" d="M78.76 148.654s.42-.585-1.018-.402c-1.438.184-1.493-.78.498-.597 1.99.184 4.203.092 3.871-.458-.332-.55-2.433 0-2.322-.46.11-.458 1.88-.366 2.876-.366.995 0 2.433-.46 3.87 0 1.438.459-1.548.367-.552.826.995.458 2.986-.367 3.539-.092.553.275-.775.642-.996.918-.22.275 1.13.407 1.13.407" transform="translate(-783 -1152) translate(785 1153) translate(8.446 11.196)"/>
                    <path stroke="#FFF" stroke-linecap="round" stroke-linejoin="round" stroke-width="1.875" d="M115.69 115.492c-.188-.315-2.513-1.383-3.33-1.571-.642-.148-1.698-.335-2.116-.196M142.91 128.783s1.802 0 2.703-.3" transform="translate(-783 -1152) translate(785 1153) translate(8.446 11.196)"/>
                    <path stroke="#44E7D9" stroke-linecap="round" stroke-linejoin="round" stroke-width="1.875" d="M122.716 92.981s-1.699-.092-1.3-.55c.4-.46 0-.46-.798-.46-.8 0-2.099.184-1.1.368 0 0 .848.217.6.673M108.946 91.927s3.579-2.25 7.875-2.158M117.421 89.769L118.719 89.769M119.518 89.77s7.372-.011 11.53 1.783" transform="translate(-783 -1152) translate(785 1153) translate(8.446 11.196)"/>
                    <path stroke="#44E7D9" stroke-linecap="round" stroke-linejoin="round" stroke-width="1.875" d="M115.292 92.97s.38-.585-.919-.402c-1.299.184-1.349-.78.45-.596 1.798.183 3.797.091 3.497-.46-.3-.55-2.198 0-2.099-.458.1-.459 1.699-.367 2.598-.367.9 0 2.198-.459 3.497 0 1.3.459-1.399.367-.5.826.9.459 2.698-.367 3.198-.092s-.7.642-.9.918c-.2.275 1.02.408 1.02.408" transform="translate(-783 -1152) translate(785 1153) translate(8.446 11.196)"/>
                    <path stroke="#FFF" stroke-linecap="round" stroke-linejoin="round" stroke-width="1.875" d="M109.084 109.723c-.598.24-1.15.571-1.15.571-2.011 1.824-3.332 1.635-4.086 3.018-.754 1.383.126 1.76 1.634 1.76 1.51 0 4.023-1.823 4.023-1.823.352.02.936-.01 1.572-.059M122.494 128.706c.362.088.59.133.59.133 1.57 1.068 7.26 2.985 7.26 2.985.691.377 6.663 2.892 8.989 3.018 2.326.125 5.657.566 6.726.566 1.068 0 3.457 1.634 3.457 1.634s6.908-2.514 6.758-10.34c0 0-.126-.127-2.326-1.447s-5.155-4.148-5.155-4.148l-4.651-2.766s-3.52-.692-7.48-4.966c-3.96-4.275-4.212-3.898-4.212-3.898-.536.036-1.76-.07-2.718-.168M104.1 124.564c-1.824 1.006-.378 1.886-.378 1.886 1.51.88 6.915-.378 6.915-.378 1.257.252 3.017.315 3.017.315s1.006-.063 1.572 0c.268.03.933.13 1.557.228M138.673 128.901s-5.972-.503-8.926-2.766" transform="translate(-783 -1152) translate(785 1153) translate(8.446 11.196)"/>
                    <path stroke="#FFF" stroke-linecap="round" stroke-linejoin="round" stroke-width="1.875" d="M131.444 125.821s-1.823.88-5.28-1.257c0 0-6.538-1.383-7.67-1.886 0 0-7.103-2.64-7.417-7.292" transform="translate(-783 -1152) translate(785 1153) translate(8.446 11.196)"/>
                    <path stroke="#FFF" stroke-linecap="round" stroke-linejoin="round" stroke-width="1.875" d="M112.837 116.204l1.572.125s1.257-.628 1.068-.943c-.188-.314-2.514-1.383-3.332-1.571-.817-.189-1.822-.44-2.074 0-.251.44 1.257 1.76 1.823 2.011.566.252.943.378.943.378zM115.666 115.512l4.148 1.257s.818.189 1.383.377c.566.189 2.83.566 3.646.566.818 0 3.52-.126 4.275-.251M129.747 117.272s.691-.314 1.194-.629M129.432 117.272s.943-.943 1.509-1.068c.566-.126.88-.19 1.257-.19M124.55 115.73s-.273 1.342-.273 1.73M118.997 118.09s.378-1.132.755-1.258M120.318 117.272s-.566 1.069-.566 1.446M120.82 117.272s.126 1.32-.251 2.012M110.511 125.758s.126-.88 0-1.383M116.7 122.699c-1.228.01-2.695.014-3.046-.021 0 0-5.406 1.006-6.788.88 0 0-6.224 1.635-7.292 1.194-1.069-.44-.943-1.194-.755-1.697.189-.503 1.698-1.32 2.326-1.446.628-.126 4.714-1.823 5.343-1.886.629-.062 3.954-1.098 5.78-1.366M111.391 117.46s-4.777 1.258-5.532 1.132c0 0-6.16 2.389-7.794 1.572 0 0-.755-.692-.251-1.446.502-.754 1.256-1.257 2.577-1.886 1.32-.629 2.73-1.656 3.628-1.991" transform="translate(-783 -1152) translate(785 1153) translate(8.446 11.196)"/>
                    <path stroke="#FFF" stroke-linecap="round" stroke-linejoin="round" stroke-width="1.875" d="M105.608 117.46s.315.943.251 1.258c0 0 .315-.692.19-1.257M109.128 111.74s.44.692.252 1.195M106.865 123.558s-.126-1.446-.251-1.949M106.865 121.61s.315.776-.126 1.016M113.654 122.615s.503-1.257 0-2.263M123.083 128.901s.503-2.64.252-3.834" transform="translate(-783 -1152) translate(785 1153) translate(8.446 11.196)"/>
                    <path stroke="#FFF" stroke-linecap="round" stroke-linejoin="round" stroke-width="1.875" d="M124.466 126.701s-.189.629-.502.503c-.315-.126-.065-1.675-.567-.9M128.364 129.97s-.818-2.2 0-3.835M131.444 127.22s2.2 2.624 3.897 2.75" transform="translate(-783 -1152) translate(785 1153) translate(8.446 11.196)"/>
                    <path stroke="#D1A448" stroke-linecap="round" stroke-linejoin="round" stroke-width="1.875" d="M111.65 112.542c-3.933-4.378-6.159-12.146-5.77-21.466M133.732 90.679c.901 13.602-3.942 24.088-12.101 25.535M117.392 122.049L117.43 124.071M122.959 123.739L122.962 123.993M122.846 115.884L122.856 116.543M120.333 124.809c-1.683.024-2.527-.133-3.207-.628 0 0-.83.854.024 1.683 0 0 1.017.49 2.868.464M117.498 126.68l.101 7.068s.685.832 2.873.8c2.188-.03 2.68-.88 2.68-.88l-.1-7.068M118.778 122.377L118.813 124.473M118.844 126.66L118.95 134.065M120.828 124.107L120.808 123.076M120.871 127.136L120.917 130.334M120.929 131.175L120.969 134.036M122.554 127.112L122.648 133.676" transform="translate(-783 -1152) translate(785 1153) translate(8.446 11.196)"/>
                    <path stroke="#D1A448" stroke-linecap="round" stroke-linejoin="round" stroke-width="1.875" d="M120.01 124.813c1.682-.024 2.521-.204 3.187-.718 0 0 .853.829.024 1.683 0 0-1.002.519-2.853.545M133.65 90.764c.022 1.58-6.138 2.949-13.76 3.058-7.621.109-13.818-1.084-13.84-2.664-.023-1.58 6.137-2.949 13.759-3.058 7.621-.109 13.818 1.084 13.84 2.664zM117.128 132.53c-1.801.191-5.672.697-7.82 1.696 0 0-2.593 1.57 3.169 2.612M123.36 132.35c1.804.16 5.682.603 7.847 1.567 0 0 2.617 1.528-3.129 2.663M113.514 136.866s6.746.914 13.98-.2" transform="translate(-783 -1152) translate(785 1153) translate(8.446 11.196)"/>
                    <path stroke="#D1A448" stroke-linecap="round" stroke-linejoin="round" stroke-width="1.875" d="M108.72 134.663s-1.098.604-.566 1.607c.533 1.002 4.692 2.12 10.042 2.045M122.41 138.258c5.35-.076 9.476-1.313 9.979-2.33.503-1.017-.611-1.59-.611-1.59M118.714 138.307s1.95.043 3.279-.047M133.596 93.27c.022 1.58-6.138 2.95-13.76 3.058-7.62.11-13.817-1.084-13.84-2.664M120.04 111.384s-.288-2.17.975-3.682c0 0 .971-1.343 2.595-1.898 0 0-.088 2.193-.853 3.221 0 0-.534 1.09-2.717 2.359z" transform="translate(-783 -1152) translate(785 1153) translate(8.446 11.196)"/>
                    <path stroke="#D1A448" stroke-linecap="round" stroke-linejoin="round" stroke-width="1.875" d="M120.165 111.351s.226-2.176-1.079-3.652c0 0-1.01-1.315-2.649-1.823 0 0 .15 2.189.945 3.196 0 0 .566 1.074 2.783 2.28z" transform="translate(-783 -1152) translate(785 1153) translate(8.446 11.196)"/>
                    <path fill="#000" d="M120.142 111.451s.813-2.032 2.654-2.731c0 0 1.505-.695 3.193-.382 0 0-1.152 1.867-2.322 2.39 0 0-1 .687-3.525.723" transform="translate(-783 -1152) translate(785 1153) translate(8.446 11.196)"/>
                    <path stroke="#D1A448" stroke-linecap="round" stroke-linejoin="round" stroke-width="1.875" d="M120.142 111.451s.813-2.032 2.654-2.731c0 0 1.505-.695 3.193-.382 0 0-1.152 1.867-2.322 2.39 0 0-1 .687-3.525.723z" transform="translate(-783 -1152) translate(785 1153) translate(8.446 11.196)"/>
                    <path fill="#000" d="M120.14 111.451s-.87-2.007-2.731-2.654c0 0-1.524-.652-3.202-.291 0 0 1.204 1.834 2.39 2.322 0 0 1.019.659 3.543.623" transform="translate(-783 -1152) translate(785 1153) translate(8.446 11.196)"/>
                    <path stroke="#D1A448" stroke-linecap="round" stroke-linejoin="round" stroke-width="1.875" d="M120.14 111.451s-.87-2.007-2.731-2.654c0 0-1.524-.652-3.202-.291 0 0 1.204 1.834 2.39 2.322 0 0 1.019.659 3.543.623z" transform="translate(-783 -1152) translate(785 1153) translate(8.446 11.196)"/>
                    <path fill="#000" d="M120.155 111.33s-1.38-1.699-1.096-3.648c0 0 .125-1.653 1.219-2.976 0 0 1.072 1.915.959 3.192 0 0 .114 1.208-1.082 3.431" transform="translate(-783 -1152) translate(785 1153) translate(8.446 11.196)"/>
                    <path stroke="#D1A448" stroke-linecap="round" stroke-linejoin="round" stroke-width="1.875" d="M120.155 111.33s-1.38-1.699-1.096-3.648c0 0 .125-1.653 1.219-2.976 0 0 1.072 1.915.959 3.192 0 0 .114 1.208-1.082 3.431zM107.57 100.603s1.425 7.783 5.306 11.626M107.343 99.22s-.183-1.008-.195-1.85M107.523 100.058L107.521 99.89M83.752 67.55c1.236 14.505-4.085 25.612-13.194 26.182-9.002.564-15.24-10.307-14.9-25.25M67.669 93.373L67.94 101.551M73.249 93.188L73.521 101.366M70.883 102.24c-1.697.056-2.552-.085-3.248-.572 0 0-.82.877.056 1.697 0 0 1.036.476 2.903.414M68.059 104.181l.236 7.13s.707.826 2.914.753c2.206-.073 2.687-.939 2.687-.939l-.236-7.13M69.079 93.951L69.343 101.929M69.417 104.136L69.664 111.605M71.127 94.223L71.369 101.522M71.47 104.578L71.577 107.803M71.606 108.652L71.701 111.538M72.824 94.167L73.033 100.448M73.168 104.522L73.387 111.142" transform="translate(-783 -1152) translate(785 1153) translate(8.446 11.196)"/>
                    <path stroke="#D1A448" stroke-linecap="round" stroke-linejoin="round" stroke-width="1.875" d="M70.556 102.25c1.698-.056 2.541-.253 3.203-.785 0 0 .877.82.056 1.697 0 0-1.001.543-2.869.605M83.67 67.637c.052 1.594-6.136 3.093-13.824 3.348-7.687.255-13.962-.83-14.015-2.424-.053-1.594 6.136-3.093 13.824-3.348 7.687-.255 13.962.83 14.015 2.424zM67.797 110.092c-1.814.226-5.71.81-7.859 1.86 0 0-2.586 1.633 3.248 2.574M74.08 109.79c1.824.128 5.746.5 7.947 1.432 0 0 2.67 1.493-3.105 2.747M64.233 114.535s6.823.793 14.1-.468" transform="translate(-783 -1152) translate(785 1153) translate(8.446 11.196)"/>
                    <path stroke="#D1A448" stroke-linecap="round" stroke-linejoin="round" stroke-width="1.875" d="M59.354 112.403s-1.096.63-.54 1.632c.556 1.001 4.774 2.05 10.17 1.872M73.235 115.77c5.397-.179 9.535-1.506 10.023-2.542.489-1.035-.646-1.592-.646-1.592M69.507 115.89s1.968.006 3.307-.11M83.663 70.167c.053 1.594-6.136 3.092-13.823 3.347-7.688.256-13.962-.83-14.015-2.423M70.332 88.7s-.332-2.182.913-3.733c0 0 .954-1.373 2.582-1.964 0 0-.047 2.214-.799 3.266 0 0-.519 1.11-2.696 2.431z" transform="translate(-783 -1152) translate(785 1153) translate(8.446 11.196)"/>
                    <path stroke="#D1A448" stroke-linecap="round" stroke-linejoin="round" stroke-width="1.875" d="M70.457 88.665s.187-2.2-1.158-3.664c0 0-1.044-1.307-2.707-1.789 0 0 .193 2.206 1.014 3.207 0 0 .591 1.072 2.851 2.246z" transform="translate(-783 -1152) translate(785 1153) translate(8.446 11.196)"/>
                    <path fill="#000" d="M70.436 88.766s.781-2.064 2.626-2.806c0 0 1.505-.73 3.214-.446 0 0-1.127 1.907-2.298 2.455 0 0-.996.713-3.542.797" transform="translate(-783 -1152) translate(785 1153) translate(8.446 11.196)"/>
                    <path stroke="#D1A448" stroke-linecap="round" stroke-linejoin="round" stroke-width="1.875" d="M70.436 88.766s.781-2.064 2.626-2.806c0 0 1.505-.73 3.214-.446 0 0-1.127 1.907-2.298 2.455 0 0-.996.713-3.542.797z" transform="translate(-783 -1152) translate(785 1153) translate(8.446 11.196)"/>
                    <path fill="#000" d="M70.434 88.767s-.916-2.009-2.806-2.626c0 0-1.55-.629-3.237-.233 0 0 1.25 1.828 2.456 2.298 0 0 1.041.645 3.587.56" transform="translate(-783 -1152) translate(785 1153) translate(8.446 11.196)"/>
                    <path stroke="#D1A448" stroke-linecap="round" stroke-linejoin="round" stroke-width="1.875" d="M70.434 88.767s-.916-2.009-2.806-2.626c0 0-1.55-.629-3.237-.233 0 0 1.25 1.828 2.456 2.298 0 0 1.041.645 3.587.56z" transform="translate(-783 -1152) translate(785 1153) translate(8.446 11.196)"/>
                    <path fill="#000" d="M70.447 88.643s-1.425-1.686-1.175-3.658c0 0 .094-1.67 1.173-3.026 0 0 1.118 1.911 1.028 3.202 0 0 .138 1.216-1.026 3.482" transform="translate(-783 -1152) translate(785 1153) translate(8.446 11.196)"/>
                    <path stroke="#D1A448" stroke-linecap="round" stroke-linejoin="round" stroke-width="1.875" d="M70.447 88.643s-1.425-1.686-1.175-3.658c0 0 .094-1.67 1.173-3.026 0 0 1.118 1.911 1.028 3.202 0 0 .138 1.216-1.026 3.482zM57.545 78.061s1.586 7.826 5.575 11.629M57.29 76.67s-.204-1.014-.232-1.862M57.488 77.513L57.482 77.343" transform="translate(-783 -1152) translate(785 1153) translate(8.446 11.196)"/>
                    <g>
                        <path fill="#F9FAF4" d="M.174.366s1.42.185 2.452 0" transform="translate(-783 -1152) translate(785 1153) translate(8.446 11.196) translate(61.149 86.824)"/>
                        <path stroke="#D1A448" stroke-linecap="round" stroke-linejoin="round" stroke-width="1.875" d="M.174.366s1.42.185 2.452 0" transform="translate(-783 -1152) translate(785 1153) translate(8.446 11.196) translate(61.149 86.824)"/>
                    </g>
                    <g>
                        <path fill="#F9FAF4" d="M.056.358s2.148.298 3.709 0" transform="translate(-783 -1152) translate(785 1153) translate(8.446 11.196) translate(60.81 86.149)"/>
                        <path stroke="#D1A448" stroke-linecap="round" stroke-linejoin="round" stroke-width="1.875" d="M.056.358s2.148.298 3.709 0" transform="translate(-783 -1152) translate(785 1153) translate(8.446 11.196) translate(60.81 86.149)"/>
                    </g>
                    <g>
                        <path fill="#F9FAF4" d="M.173.222s1.42.185 2.452 0" transform="translate(-783 -1152) translate(785 1153) translate(8.446 11.196) translate(62.5 88.176)"/>
                        <path stroke="#D1A448" stroke-linecap="round" stroke-linejoin="round" stroke-width="1.875" d="M.173.222s1.42.185 2.452 0" transform="translate(-783 -1152) translate(785 1153) translate(8.446 11.196) translate(62.5 88.176)"/>
                    </g>
                    <g>
                        <path fill="#F9FAF4" d="M.2.126s2.149.298 3.71 0" transform="translate(-783 -1152) translate(785 1153) translate(8.446 11.196) translate(63.176 89.19)"/>
                        <path stroke="#D1A448" stroke-linecap="round" stroke-linejoin="round" stroke-width="1.875" d="M.2.126s2.149.298 3.71 0" transform="translate(-783 -1152) translate(785 1153) translate(8.446 11.196) translate(63.176 89.19)"/>
                    </g>
                    <path fill="#000" d="M44.422 111.045s4.36-.406 9.227-.203 8.111-.608 10.038-.71c1.926-.101 7.199-2.129 7.604-2.23.406-.102 4.766-1.42 5.678-1.825.913-.406 1.116-1.825 1.116-1.825 0-.913-.913-2.028-1.42-2.028-.507 0-1.42.608-1.42.608l-2.129.304c-2.636.507-3.853.102-3.853.102 0-.812 2.738-1.521 3.042-1.622.305-.102 5.475-.913 6.084-1.927.608-1.014-.304-3.042-.71-3.245-.406-.202-1.115 0-1.42 0-.304 0-6.489 1.014-6.387.406.101-.608 2.433-1.217 3.244-1.318.812-.102 6.997-1.318 7.402-2.13.405-.81.101-3.143.101-3.143s-1.825-.405-2.839-.304c-1.014.101-7.198.608-7.807.71-.608.102-2.839 0-2.332-.305.507-.304 3.65-1.52 4.056-1.723.406-.203 3.143-.71 3.853-.71.71 0 5.88-.507 6.692-.912.81-.406.608-2.535.202-2.738-.405-.203-5.88-.608-7.705-.811-1.825-.203-8.822 1.115-8.822 1.115s-6.185 1.724-8.72 2.332c-2.534.609-6.184 2.84-6.691 3.143-.507.304-9.328 5.476-13.08 6.794-3.751 1.318-8.821.912-8.821.912-2.13 1.42-3.143 6.287-3.143 6.287-.507 6.59 3.802 9.886 3.802 9.886s9.227-1.724 10.24-1.724l4.918-1.166z" transform="translate(-783 -1152) translate(785 1153) translate(8.446 11.196)"/>
                    <path stroke="#FFF" stroke-linecap="round" stroke-linejoin="round" stroke-width="1.875" d="M44.422 111.045s4.36-.406 9.227-.203 8.111-.608 10.038-.71c1.926-.101 7.199-2.129 7.604-2.23.406-.102 4.766-1.42 5.678-1.825.913-.406 1.116-1.825 1.116-1.825 0-.913-.913-2.028-1.42-2.028-.507 0-1.42.608-1.42.608l-2.129.304c-2.636.507-3.853.102-3.853.102 0-.812 2.738-1.521 3.042-1.622.305-.102 5.475-.913 6.084-1.927.608-1.014-.304-3.042-.71-3.245-.406-.202-1.115 0-1.42 0-.304 0-6.489 1.014-6.387.406.101-.608 2.433-1.217 3.244-1.318.812-.102 6.997-1.318 7.402-2.13.405-.81.101-3.143.101-3.143s-1.825-.405-2.839-.304c-1.014.101-7.198.608-7.807.71-.608.102-2.839 0-2.332-.305.507-.304 3.65-1.52 4.056-1.723.406-.203 3.143-.71 3.853-.71.71 0 5.88-.507 6.692-.912.81-.406.608-2.535.202-2.738-.405-.203-5.88-.608-7.705-.811-1.825-.203-8.822 1.115-8.822 1.115s-6.185 1.724-8.72 2.332c-2.534.609-6.184 2.84-6.691 3.143-.507.304-9.328 5.476-13.08 6.794-3.751 1.318-8.821.912-8.821.912-2.13 1.42-3.143 6.287-3.143 6.287-.507 6.59 3.802 9.886 3.802 9.886s9.227-1.724 10.24-1.724l4.918-1.166z" transform="translate(-783 -1152) translate(785 1153) translate(8.446 11.196)"/>
                    <g>
                        <path fill="#000" d="M1.83.226S.512.327.208.834" transform="translate(-783 -1152) translate(785 1153) translate(8.446 11.196) translate(65.203 90.54)"/>
                        <path stroke="#FFF" stroke-linecap="round" stroke-linejoin="round" stroke-width="1.875" d="M1.83.226S.512.327.208.834" transform="translate(-783 -1152) translate(785 1153) translate(8.446 11.196) translate(65.203 90.54)"/>
                    </g>
                    <g>
                        <path fill="#000" d="M1.83.294S.41 1.308.206 1.714" transform="translate(-783 -1152) translate(785 1153) translate(8.446 11.196) translate(63.176 91.892)"/>
                        <path stroke="#FFF" stroke-linecap="round" stroke-linejoin="round" stroke-width="1.875" d="M1.83.294S.41 1.308.206 1.714" transform="translate(-783 -1152) translate(785 1153) translate(8.446 11.196) translate(63.176 91.892)"/>
                    </g>
                    <g>
                        <path fill="#000" d="M2.336.226S.713 1.646.206 1.646" transform="translate(-783 -1152) translate(785 1153) translate(8.446 11.196) translate(62.162 90.54)"/>
                        <path stroke="#FFF" stroke-linecap="round" stroke-linejoin="round" stroke-width="1.875" d="M2.336.226S.713 1.646.206 1.646" transform="translate(-783 -1152) translate(785 1153) translate(8.446 11.196) translate(62.162 90.54)"/>
                    </g>
                    <g>
                        <path fill="#000" d="M3.047.295s-1.52.609-2.738.71" transform="translate(-783 -1152) translate(785 1153) translate(8.446 11.196) translate(66.216 95.946)"/>
                        <path stroke="#FFF" stroke-linecap="round" stroke-linejoin="round" stroke-width="1.875" d="M3.047.295s-1.52.609-2.738.71" transform="translate(-783 -1152) translate(785 1153) translate(8.446 11.196) translate(66.216 95.946)"/>
                    </g>
                    <g>
                        <path fill="#000" d="M0.68 0.16L0.68 0.971 0.274 0.363" transform="translate(-783 -1152) translate(785 1153) translate(8.446 11.196) translate(62.5 95.27)"/>
                        <path stroke="#FFF" stroke-linecap="round" stroke-linejoin="round" stroke-width="1.875" d="M0.68 0.16L0.68 0.971 0.274 0.363" transform="translate(-783 -1152) translate(785 1153) translate(8.446 11.196) translate(62.5 95.27)"/>
                    </g>
                    <g>
                        <path fill="#000" d="M.348.226s-.507 1.318 0 2.433" transform="translate(-783 -1152) translate(785 1153) translate(8.446 11.196) translate(77.027 90.54)"/>
                        <path stroke="#FFF" stroke-linecap="round" stroke-linejoin="round" stroke-width="1.875" d="M.348.226s-.507 1.318 0 2.433" transform="translate(-783 -1152) translate(785 1153) translate(8.446 11.196) translate(77.027 90.54)"/>
                    </g>
                    <g>
                        <path fill="#000" d="M.078.192S.483.395.28 2.017" transform="translate(-783 -1152) translate(785 1153) translate(8.446 11.196) translate(77.703 90.878)"/>
                        <path stroke="#FFF" stroke-linecap="round" stroke-linejoin="round" stroke-width="1.875" d="M.078.192S.483.395.28 2.017" transform="translate(-783 -1152) translate(785 1153) translate(8.446 11.196) translate(77.703 90.878)"/>
                    </g>
                    <g>
                        <path fill="#000" d="M.348.226s.406 1.52 0 2.433" transform="translate(-783 -1152) translate(785 1153) translate(8.446 11.196) translate(78.04 90.54)"/>
                        <path stroke="#FFF" stroke-linecap="round" stroke-linejoin="round" stroke-width="1.875" d="M.348.226s.406 1.52 0 2.433" transform="translate(-783 -1152) translate(785 1153) translate(8.446 11.196) translate(78.04 90.54)"/>
                    </g>
                    <g>
                        <path fill="#000" d="M1.898.262S.377 1.073.073 1.378" transform="translate(-783 -1152) translate(785 1153) translate(8.446 11.196) translate(65.54 97.297)"/>
                        <path stroke="#FFF" stroke-linecap="round" stroke-linejoin="round" stroke-width="1.875" d="M1.898.262S.377 1.073.073 1.378" transform="translate(-783 -1152) translate(785 1153) translate(8.446 11.196) translate(65.54 97.297)"/>
                    </g>
                    <g>
                        <path fill="#000" d="M0.378 0.196L0.074 1.412" transform="translate(-783 -1152) translate(785 1153) translate(8.446 11.196) translate(68.581 98.986)"/>
                        <path stroke="#FFF" stroke-linecap="round" stroke-linejoin="round" stroke-width="1.875" d="M0.378 0.196L0.074 1.412" transform="translate(-783 -1152) translate(785 1153) translate(8.446 11.196) translate(68.581 98.986)"/>
                    </g>
                    <g>
                        <path fill="#000" d="M.753 2.223C.145 1.715.348.194.348.194" transform="translate(-783 -1152) translate(785 1153) translate(8.446 11.196) translate(77.027 96.96)"/>
                        <path stroke="#FFF" stroke-linecap="round" stroke-linejoin="round" stroke-width="1.875" d="M.753 2.223C.145 1.715.348.194.348.194" transform="translate(-783 -1152) translate(785 1153) translate(8.446 11.196) translate(77.027 96.96)"/>
                    </g>
                    <g>
                        <path fill="#000" d="M.18.262s.1.102.303 1.116" transform="translate(-783 -1152) translate(785 1153) translate(8.446 11.196) translate(77.703 97.297)"/>
                        <path stroke="#FFF" stroke-linecap="round" stroke-linejoin="round" stroke-width="1.875" d="M.18.262s.1.102.303 1.116" transform="translate(-783 -1152) translate(785 1153) translate(8.446 11.196) translate(77.703 97.297)"/>
                    </g>
                    <g>
                        <path fill="#000" d="M.077.13s-.203.81.507 1.52" transform="translate(-783 -1152) translate(785 1153) translate(8.446 11.196) translate(75.676 103.716)"/>
                        <path stroke="#FFF" stroke-linecap="round" stroke-linejoin="round" stroke-width="1.875" d="M.077.13s-.203.81.507 1.52" transform="translate(-783 -1152) translate(785 1153) translate(8.446 11.196) translate(75.676 103.716)"/>
                    </g>
                    <g>
                        <path fill="#000" d="M.246.298S.753.907.854 1.82" transform="translate(-783 -1152) translate(785 1153) translate(8.446 11.196) translate(76.014 103.04)"/>
                        <path stroke="#FFF" stroke-linecap="round" stroke-linejoin="round" stroke-width="1.875" d="M.246.298S.753.907.854 1.82" transform="translate(-783 -1152) translate(785 1153) translate(8.446 11.196) translate(76.014 103.04)"/>
                    </g>
                    <g>
                        <path fill="#000" d="M.246.197s.203 1.014.608 1.318" transform="translate(-783 -1152) translate(785 1153) translate(8.446 11.196) translate(76.014 104.054)"/>
                        <path stroke="#FFF" stroke-linecap="round" stroke-linejoin="round" stroke-width="1.875" d="M.246.197s.203 1.014.608 1.318" transform="translate(-783 -1152) translate(785 1153) translate(8.446 11.196) translate(76.014 104.054)"/>
                    </g>
                    <g>
                        <path fill="#000" d="M1.73.096S.613.198.004.4" transform="translate(-783 -1152) translate(785 1153) translate(8.446 11.196) translate(66.216 104.054)"/>
                        <path stroke="#FFF" stroke-linecap="round" stroke-linejoin="round" stroke-width="1.875" d="M1.73.096S.613.198.004.4" transform="translate(-783 -1152) translate(785 1153) translate(8.446 11.196) translate(66.216 104.054)"/>
                    </g>
                    <g>
                        <path fill="#000" d="M2.067.13S.547.738.04.636" transform="translate(-783 -1152) translate(785 1153) translate(8.446 11.196) translate(65.878 102.703)"/>
                        <path stroke="#FFF" stroke-linecap="round" stroke-linejoin="round" stroke-width="1.875" d="M2.067.13S.547.738.04.636" transform="translate(-783 -1152) translate(785 1153) translate(8.446 11.196) translate(65.878 102.703)"/>
                    </g>
                    <g>
                        <path fill="#000" d="M.346.29S-.059 1.508.65 2.117" transform="translate(-783 -1152) translate(785 1153) translate(8.446 11.196) translate(72.973 83.784)"/>
                        <path stroke="#FFF" stroke-linecap="round" stroke-linejoin="round" stroke-width="1.875" d="M.346.29S-.059 1.508.65 2.117" transform="translate(-783 -1152) translate(785 1153) translate(8.446 11.196) translate(72.973 83.784)"/>
                    </g>
                    <g>
                        <path fill="#000" d="M.144.29S-.059 1.812.448 2.32" transform="translate(-783 -1152) translate(785 1153) translate(8.446 11.196) translate(73.986 83.784)"/>
                        <path stroke="#FFF" stroke-linecap="round" stroke-linejoin="round" stroke-width="1.875" d="M.144.29S-.059 1.812.448 2.32" transform="translate(-783 -1152) translate(785 1153) translate(8.446 11.196) translate(73.986 83.784)"/>
                    </g>
                    <g>
                        <path fill="#000" d="M.178.324s.304.913 0 1.622" transform="translate(-783 -1152) translate(785 1153) translate(8.446 11.196) translate(74.662 83.446)"/>
                        <path stroke="#FFF" stroke-linecap="round" stroke-linejoin="round" stroke-width="1.875" d="M.178.324s.304.913 0 1.622" transform="translate(-783 -1152) translate(785 1153) translate(8.446 11.196) translate(74.662 83.446)"/>
                    </g>
                    <g>
                        <path fill="#000" d="M.417.223S.01 1.947.62 2.353" transform="translate(-783 -1152) translate(785 1153) translate(8.446 11.196) translate(80.405 84.46)"/>
                        <path stroke="#FFF" stroke-linecap="round" stroke-linejoin="round" stroke-width="1.875" d="M.417.223S.01 1.947.62 2.353" transform="translate(-783 -1152) translate(785 1153) translate(8.446 11.196) translate(80.405 84.46)"/>
                    </g>
                    <g>
                        <path fill="#000" d="M.147.02s.203.507 0 1.42" transform="translate(-783 -1152) translate(785 1153) translate(8.446 11.196) translate(81.081 84.46)"/>
                        <path stroke="#FFF" stroke-linecap="round" stroke-linejoin="round" stroke-width="1.875" d="M.147.02s.203.507 0 1.42" transform="translate(-783 -1152) translate(785 1153) translate(8.446 11.196) translate(81.081 84.46)"/>
                    </g>
                    <g>
                        <path fill="#000" d="M1.989.335s-1.116.811-1.825.811" transform="translate(-783 -1152) translate(785 1153) translate(8.446 11.196) translate(39.19 109.797)"/>
                        <path stroke="#FFF" stroke-linecap="round" stroke-linejoin="round" stroke-width="1.875" d="M1.989.335s-1.116.811-1.825.811" transform="translate(-783 -1152) translate(785 1153) translate(8.446 11.196) translate(39.19 109.797)"/>
                    </g>
                    <g>
                        <path fill="#000" d="M.095.702h.81S1.21.499.5.297" transform="translate(-783 -1152) translate(785 1153) translate(8.446 11.196) translate(36.824 97.973)"/>
                        <path stroke="#FFF" stroke-linecap="round" stroke-linejoin="round" stroke-width="1.875" d="M.095.702h.81S1.21.499.5.297" transform="translate(-783 -1152) translate(785 1153) translate(8.446 11.196) translate(36.824 97.973)"/>
                    </g>
                    <g>
                        <path fill="#000" d="M.378 2.429S-.028 1.009.58.502c0 0 .202.406.202 1.217s.305-1.42.305-1.42" transform="translate(-783 -1152) translate(785 1153) translate(8.446 11.196) translate(67.568 105.068)"/>
                        <path stroke="#FFF" stroke-linecap="round" stroke-linejoin="round" stroke-width="1.875" d="M.378 2.429S-.028 1.009.58.502c0 0 .202.406.202 1.217s.305-1.42.305-1.42" transform="translate(-783 -1152) translate(785 1153) translate(8.446 11.196) translate(67.568 105.068)"/>
                    </g>
                    <path stroke="#44E7D9" stroke-linecap="round" stroke-linejoin="round" stroke-width="1.875" d="M73.814 70.493s-1.88-.092-1.438-.55c.443-.46 0-.46-.885-.46-.884 0-2.322.184-1.217.368 0 0 .94.217.665.673M58.571 69.439s3.962-2.25 8.717-2.158M67.952 67.281L69.39 67.281M70.275 67.281s7.016-.01 10.973 1.784" transform="translate(-783 -1152) translate(785 1153) translate(8.446 11.196)"/>
                    <path stroke="#44E7D9" stroke-linecap="round" stroke-linejoin="round" stroke-width="1.875" d="M65.596 70.482s.42-.586-1.017-.402c-1.439.184-1.494-.78.497-.596 1.991.183 4.203.091 3.871-.46-.332-.55-2.433 0-2.322-.458.11-.46 1.88-.367 2.875-.367.996 0 2.434-.459 3.872 0 1.437.459-1.549.367-.553.826.995.459 2.986-.367 3.539-.092.553.275-.774.642-.995.918-.222.275 1.129.407 1.129.407" transform="translate(-783 -1152) translate(785 1153) translate(8.446 11.196)"/>
                    <path fill="#FFF" d="M121.364 83.574c-.191.064-.398-.04-.461-.231-.064-.191.04-.398.231-.461.192-.064.398.04.462.231.063.191-.04.398-.232.461M112.714 79.767c-.345.114-.717-.073-.831-.417-.115-.345.072-.717.416-.83.345-.115.717.071.831.416.115.344-.072.716-.416.83M113.905 70.267c-.191.063-.398-.04-.461-.232-.064-.19.04-.397.231-.461.192-.064.398.04.462.232.063.19-.04.398-.232.461M106.353 63.634c-.345.115-.716-.072-.83-.416-.115-.345.072-.717.416-.831.345-.115.717.072.83.416.115.345-.071.717-.416.831M122.876 71.562c.114.345-.073.717-.417.83-.344.115-.716-.071-.83-.416-.115-.344.071-.717.416-.83.345-.115.717.072.83.416M128.443 59.906c-.344.115-.716-.072-.83-.416-.115-.345.072-.717.416-.831.345-.114.717.072.831.417.114.344-.072.716-.417.83M121.056 51.41c-.129-.156-.107-.386.049-.514.155-.129.385-.107.514.049.128.155.106.386-.05.514-.155.128-.385.106-.513-.05M106.264 72.655c-.18-.218-.148-.54.07-.72.217-.179.54-.148.72.07.179.218.147.54-.07.72-.218.179-.54.148-.72-.07M115.9 59.025c-.372.308-.925.255-1.233-.119-.308-.373-.255-.925.118-1.233.374-.308.926-.255 1.234.118.308.373.255.926-.118 1.234M107.199 52.54c-.373.308-.926.256-1.234-.118-.308-.373-.255-.926.118-1.233.374-.309.926-.256 1.235.118.307.373.254.925-.119 1.234M76.155 58.92c-.191.063-.398-.04-.462-.232s.04-.398.232-.462c.191-.063.398.04.462.232.063.191-.041.398-.232.461M80.68 55.111c-.345.115-.717-.072-.83-.416-.115-.345.072-.717.416-.831.344-.115.717.072.83.417.115.344-.071.716-.416.83M68.696 45.612c-.191.063-.398-.04-.462-.232-.063-.191.04-.398.232-.461.191-.064.398.04.462.231.063.192-.04.398-.232.462M84.117 45.398c-.345.114-.716-.072-.831-.417-.114-.344.072-.716.417-.83.344-.115.716.071.83.416.115.345-.071.717-.416.83M77.667 46.907c.114.344-.073.716-.417.83-.345.115-.717-.072-.83-.416-.115-.345.071-.717.416-.83.344-.115.716.07.83.416M83.234 35.251c-.345.114-.716-.072-.83-.416-.115-.345.071-.717.416-.832.345-.114.717.073.83.417.115.345-.071.717-.416.831M66.387 27.092c-.128-.156-.106-.386.05-.514.155-.128.385-.106.513.05.128.155.106.385-.05.514-.155.128-.385.106-.513-.05M67.812 53.067c-.18-.217-.149-.54.069-.72.218-.179.54-.148.72.07.179.218.148.54-.07.72-.218.18-.54.148-.72-.07M61.57 40.113c-.373.308-.926.255-1.234-.119-.307-.373-.254-.925.119-1.233.373-.308.925-.255 1.234.118.307.373.254.926-.119 1.234M72.463 38.696c-.374.308-.926.255-1.234-.118-.308-.374-.255-.926.118-1.234.374-.308.926-.255 1.234.118.308.374.255.926-.118 1.234M87.75 141.45c-.192.064-.399-.04-.462-.231-.064-.191.04-.398.231-.462.192-.063.398.04.462.232.063.191-.04.398-.232.461M79.099 137.642c-.345.115-.717-.072-.831-.416-.115-.345.072-.717.416-.83.345-.115.717.071.831.416.115.344-.072.716-.416.83M80.29 128.143c-.19.063-.398-.04-.461-.232-.064-.191.04-.398.231-.461.192-.064.398.04.462.232.063.19-.04.397-.232.461M78.482 122.186c-.345.114-.717-.073-.831-.417-.115-.345.072-.716.416-.83.345-.115.717.071.831.416.115.344-.072.716-.416.83M83.855 130.114c.115.344-.072.716-.416.83-.345.115-.717-.072-.83-.416-.115-.345.071-.717.416-.83.344-.115.716.071.83.416M89.761 132.985c-.345.114-.717-.072-.831-.417-.114-.344.072-.716.417-.83.344-.115.716.072.83.416.115.345-.071.716-.416.83M87.44 109.285c-.128-.155-.105-.385.05-.513.155-.129.386-.107.514.049.128.155.106.386-.05.514-.155.128-.385.106-.513-.05M72.65 130.53c-.18-.217-.15-.539.068-.719.218-.179.54-.148.72.07.18.218.149.54-.069.72-.218.179-.54.148-.72-.07M86.422 120.89c-.373.307-.926.254-1.234-.12-.308-.373-.255-.925.118-1.233.374-.308.926-.255 1.235.119.307.373.254.925-.12 1.233" transform="translate(-783 -1152) translate(785 1153) translate(8.446 11.196)"/>
                </g>
            </g>
        </g>
    </g>
</svg>
