<svg xmlns="http://www.w3.org/2000/svg" width="191" height="266" viewBox="0 0 191 266"><title>Девятка Пентаклей</title>
    <g fill="none" fill-rule="evenodd">
        <g>
            <g>
                <path fill="#182018" stroke="#FFF" stroke-linecap="round" stroke-linejoin="round" stroke-width="2.5" d="M177.475 263.112H9.605c-5.212 0-9.436-4.185-9.436-9.348V9.716C.169 4.553 4.393.368 9.604.368h167.871c5.211 0 9.435 4.185 9.435 9.348v244.048c0 5.163-4.224 9.348-9.435 9.348z" transform="translate(-188 -3429) translate(190 3430)"/>
                <path fill="#44E7D9" fill-rule="nonzero" d="M56.265 251.387v-6.127l-.031-3.124-.002-.15c.4 1.037 1.632 4.17 3.696 9.401h1.07v-10.796h-.81v6.16l.032 3.275c-.13-.346-1.362-3.491-3.696-9.435H55.47v10.796h.795zm7.975 0v-10.796h-.81v10.796h.81zm3.226 0v-6.127l-.032-3.208v-.067c.4 1.038 1.631 4.172 3.695 9.402h1.07v-10.796h-.81v6.16l.032 3.275c-.13-.346-1.361-3.491-3.696-9.435h-1.053v10.796h.794zm11.639 0v-.73H75.44v-4.344h3.194v-.729H75.44v-4.263h3.664v-.73H74.63v10.796h4.474zm7.36.162c.853 0 1.496-.23 1.928-.689.433-.459.649-1.056.649-1.79v-6.16c0-.736-.216-1.333-.649-1.792-.432-.46-1.075-.689-1.929-.689-.853 0-1.496.23-1.929.689-.432.46-.648 1.056-.648 1.791v6.16c0 .735.216 1.332.648 1.791.433.46 1.076.69 1.93.69zm0-.73c-1.179 0-1.768-.583-1.768-1.75v-6.16c0-1.167.59-1.75 1.767-1.75 1.178 0 1.767.583 1.767 1.75v6.16c0 1.167-.589 1.75-1.767 1.75zm5.657.568v-4.911h3.371v-.73h-3.371v-4.425h3.517v-.73h-4.328v10.796h.81zm12.611 0v-.73h-3.663v-4.344h3.193v-.729h-3.193v-4.263h3.663v-.73h-4.474v10.796h4.474zm1.816 0l.73-3.16h3.08l.729 3.16h.843l-2.53-10.796h-1.166l-2.53 10.796h.844zm3.647-3.89h-2.756l1.378-5.982 1.378 5.982zm4.085 3.89v-4.458l1.731-.001c.096-.003.173-.008.23-.015l1.605 4.474h.892l-1.702-4.652c.93-.346 1.394-1.092 1.394-2.237v-1.475c0-.735-.216-1.324-.648-1.767-.433-.443-1.076-.665-1.93-.665h-2.382v10.796h.81zm1.572-5.22h-1.572v-4.846h1.572c1.178 0 1.767.567 1.767 1.702v1.475c0 1.113-.589 1.67-1.767 1.67zm6.809 5.22v-10.066h2.14v-.73h-5.09v.73h2.14v10.066h.81zm4.328 0v-4.928h3.793v4.928h.827v-10.796h-.827v5.139h-3.793v-5.139h-.81v10.796h.81z" transform="translate(-188 -3429) translate(190 3430)"/>
                <g>
                    <path stroke="#FFF" stroke-linecap="round" stroke-linejoin="round" stroke-width="1.875" d="M153.937 237.346L132.099 237.346M5.775 14.662L5.775 237.346 37.17 237.346" transform="translate(-188 -3429) translate(190 3430) translate(8.43 11.06)"/>
                    <path stroke="#D1A448" stroke-linecap="round" stroke-linejoin="round" stroke-width="1.875" d="M5.503 9.009L2.886 4.517 0.268 0.025 5.503 0.025 10.739 0.025 8.121 4.517z" transform="translate(-188 -3429) translate(190 3430) translate(8.43 11.06)"/>
                    <g>
                        <path fill="#000" d="M10.731 0.495L0.276 0.495" transform="translate(-188 -3429) translate(190 3430) translate(8.43 11.06) translate(0 4.678)"/>
                        <path stroke="#D1A448" stroke-linecap="round" stroke-linejoin="round" stroke-width="1.875" d="M10.731 0.495L0.276 0.495" transform="translate(-188 -3429) translate(190 3430) translate(8.43 11.06) translate(0 4.678)"/>
                    </g>
                    <path stroke="#D1A448" stroke-width="1.875" d="M164.152 231.848L166.77 236.34 169.388 240.832 164.152 240.832 158.917 240.832 161.535 236.34z" transform="translate(-188 -3429) translate(190 3430) translate(8.43 11.06)"/>
                    <g>
                        <path fill="#000" d="M0.09 0.482L10.544 0.482" transform="translate(-188 -3429) translate(190 3430) translate(8.43 11.06) translate(158.835 235.212)"/>
                        <path stroke="#D1A448" stroke-width="1.875" d="M0.09 0.482L10.544 0.482" transform="translate(-188 -3429) translate(190 3430) translate(8.43 11.06) translate(158.835 235.212)"/>
                    </g>
                    <path stroke="#FFF" stroke-linecap="round" stroke-linejoin="round" stroke-width="1.875" d="M101.088 3.425L165.082 3.425 165.082 224.117M17.245 3.425L69.388 3.425" transform="translate(-188 -3429) translate(190 3430) translate(8.43 11.06)"/>
                </g>
                <path fill="#44E7D9" fill-rule="nonzero" d="M91.059 17.936V7.14h-.81v10.796h.81zm2.35 0l1.88-4.41 1.88 4.41h.892l-2.366-5.398L98.06 7.14h-.891l-1.88 4.425-1.88-4.425h-.892l2.35 5.398-2.35 5.398h.891z" transform="translate(-188 -3429) translate(190 3430)"/>
                <g>
                    <path stroke="#FFF" stroke-linecap="round" stroke-linejoin="round" stroke-width="1.875" d="M48.355 119.296s1.923-3.638 2.885-5.63c.962-1.993 1.836-2.34 3.848-5.632 0 0 .524-.52 2.36-1.126 1.837-.607 1.662-1.56 3.76-1.733 2.1-.173 4.11-1.04 5.16-.953 1.05.087 6.384-.953 6.384-.953s.174.866-.7 1.3c-.875.433-2.186.346-2.624.173 0 0-.35-.087-.35-.866" transform="translate(-188 -3429) translate(190 3430) translate(31.025 42.8)"/>
                    <path stroke="#FFF" stroke-linecap="round" stroke-linejoin="round" stroke-width="1.875" d="M71.617 104.735s-.527 1.653-2.276 2.26c-1.749.606-2.099.433-2.099.433M67.068 106.908s.087.606-.263.78c0 0-2.448.78-3.498.866-1.049.087-2.01.26-2.71 0M63.832 108.727s-1.137 2.6-1.836 3.119M62.783 110.806s-.525 1.906-1.487 2.426M65.843 102.83c.738-.02 1.608.006 2.186.006 1.05 0 4.303.433 4.303.433M60.85 105.215l1.144-.686M72.751 103.27s1.924.692 2.099 1.125c.175.434-.087 1.82-.437 1.993-.35.173-1.487-.173-1.487-.173s-1.224-.866-.175-1.473c1.05-.607 1.574-.173 1.574-.173" transform="translate(-188 -3429) translate(190 3430) translate(31.025 42.8)"/>
                    <path stroke="#FFF" stroke-linecap="round" stroke-linejoin="round" stroke-width="1.875" d="M74.64 106.093c-.385.224-.577.035-.577.035.525-.347.262-1.3.262-1.3s.225-.092.55.387M68.965 107.12c.149-.221 1.6-.472 2.387-.645.787-.174 2.711-.01 2.711-.01s.7.876 0 1.915c0 0-.874.174-2.011.174s-2.011.173-2.011.173-.77.111-.954-.291M72.751 109.074s1.225.346 1.05 1.472c-.175 1.127-1.312.78-1.837.78-.524 0-2.448-.346-3.235-.52-.787-.173-2.448-.26-2.623-.953-.175-.693.437-1.212 1.661-1.126 1.224.087 3.323.347 3.323.347h1.661z" transform="translate(-188 -3429) translate(190 3430) translate(31.025 42.8)"/>
                    <path stroke="#FFF" stroke-linecap="round" stroke-linejoin="round" stroke-width="1.875" d="M68.704 107.281s2.515-.374 2.596.173c.08.548-.406.922-1.298.922l-1.298.082s-.73-.538 0-1.177zM66.08 108.683s2.525.299 2.457.848c-.068.55-.637.783-1.498.549 0 0-.914-.125-1.273-.349-.36-.224-.56-.623.314-1.048zM70.215 110.546s.175-.173.175-.866M70.653 110.72s.35-.52.175-1.3M73.45 108.034s.176-.173 0-1.126M71.964 111.326s1.224.953 0 1.56c0 0-2.885-.434-3.847-.78-.962-.347-.962-1.04-.438-1.3 0 0 .35-.173 1.05 0M70.215 111.673s0 .606-.087.78M70.653 111.413s.162.907-.138 1.233" transform="translate(-188 -3429) translate(190 3430) translate(31.025 42.8)"/>
                    <path stroke="#FFF" stroke-linecap="round" stroke-linejoin="round" stroke-width="1.875" d="M67.146 110.783s1.876.21 1.821.634c-.055.425-.48.61-1.12.436 0 0-.678-.089-.944-.259-.266-.17-.412-.476.243-.811zM65.494 110.286s-1.837.434-2.274 1.733M66.98 111.673s-.087 2.599.262 3.811M68.991 112.885s0 1.3.437 1.907" transform="translate(-188 -3429) translate(190 3430) translate(31.025 42.8)"/>
                    <path stroke="#FFF" stroke-linecap="round" stroke-linejoin="round" stroke-width="1.875" d="M71.265 113.232s-1.05 1.386-2.711 2.252c-1.661.867-5.246 2.34-6.034 2.34M61.996 118.517s-3.41.866-3.673 1.386c-.262.52-2.623 4.592-2.623 4.851M60.597 118.517s-4.198 0-4.897-1.906M65.706 104.26s-.125 1.002.137 1.262M66.368 104.222s-.175.607 0 .953M67.077 104.26s-.184.655.166.915" transform="translate(-188 -3429) translate(190 3430) translate(31.025 42.8)"/>
                    <path stroke="#44E7D9" stroke-linecap="round" stroke-linejoin="round" stroke-width="1.875" d="M65.853 96.564l-1.018 2.094v-1.551l-.94 1.163c.783-2.637-.234-4.809-2.427-8.067-2.192-3.257-5.676-3.994-11-9.734-5.323-5.74-7.124-14.117-6.184-17.064.94-2.948 1.252-8.377 1.252-8.377s-1.135-2.987-2.779-4.926" transform="translate(-188 -3429) translate(190 3430) translate(31.025 42.8)"/>
                    <path stroke="#44E7D9" stroke-linecap="round" stroke-linejoin="round" stroke-width="1.875" d="M53.952 83.843s1.958 4.344 4.541 6.128c2.584 1.784 4.54 2.772 4.54 2.772M65.54 56.075s-3.68-.62-5.09 3.025c-1.409 3.646-1.487 10.549 2.584 15.28s12.996 8.998 12.996 8.998 2.036.775 4.15.93" transform="translate(-188 -3429) translate(190 3430) translate(31.025 42.8)"/>
                    <path stroke="#44E7D9" stroke-linecap="round" stroke-linejoin="round" stroke-width="1.875" d="M68.123 77.017s7.829 3.878 9.16 4.732c1.33.853 6.498 3.723 8.455 4.033 1.957.31 2.819.388 0-1.086M70.706 75.917s4.307 4.143 3.915 2.515c-.392-1.628-5.089-7.62-5.089-7.62" transform="translate(-188 -3429) translate(190 3430) translate(31.025 42.8)"/>
                    <path stroke="#44E7D9" stroke-linecap="round" stroke-linejoin="round" stroke-width="1.875" d="M74.23 77.87s5.636 4.267 6.576 3.646c.235-.155-.034-.81-.57-1.704-1.608-2.683-5.615-7.526-5.615-7.526M80.18 79.19s2.427 2.559 2.427 1.55c0-1.008-4.776-7.058-4.776-7.058" transform="translate(-188 -3429) translate(190 3430) translate(31.025 42.8)"/>
                    <path stroke="#44E7D9" stroke-linecap="round" stroke-linejoin="round" stroke-width="1.875" d="M81.824 79.19s3.288 2.094 3.21 1.783c-.079-.31-4.15-5.507-4.15-5.507" transform="translate(-188 -3429) translate(190 3430) translate(31.025 42.8)"/>
                    <path stroke="#44E7D9" stroke-linecap="round" stroke-linejoin="round" stroke-width="1.875" d="M85.052 80.953s1.252 0-.003-2.714-4.47-8.684-8.23-12.481c-3.762-3.798-9.481-8.913-9.481-8.913-3.213-2.324-4.936-3.951-4.936-3.951-2.272-1.938-4.233-6.125-5.723-9.07-1.49-2.947-4.78-5.504-9.008-5.035-4.227.469-6.807 5.048-6.807 5.048" transform="translate(-188 -3429) translate(190 3430) translate(31.025 42.8)"/>
                    <path stroke="#44E7D9" stroke-linecap="round" stroke-linejoin="round" stroke-width="1.875" d="M85.581 79.654s3.524 4.267 3.68 6.283c0 0-3.601-3.257-6.028-4.964M93.02 88.885l-3.759-2.948s-.078 1.164-3.68 0c0 0 6.029 11.48 6.734 12.721.704 1.241 4.384 5.585 6.81 7.291 2.428 1.707-1.722-5.507-3.992-8.454-2.27-2.948-6.342-8.3-6.342-8.3" transform="translate(-188 -3429) translate(190 3430) translate(31.025 42.8)"/>
                    <path stroke="#44E7D9" stroke-linecap="round" stroke-linejoin="round" stroke-width="1.875" d="M86.286 86.17s7.281 3.568 6.733 2.56c-.548-1.009-4.297-4.421-4.297-4.421" transform="translate(-188 -3429) translate(190 3430) translate(31.025 42.8)"/>
                    <path stroke="#44E7D9" stroke-linecap="round" stroke-linejoin="round" stroke-width="1.875" d="M89.667 85.186L90.514 86.946 87.913 86.946M86.247 83.553L79.235 82.796M84.683 82.059L77.283 81.594M77.56 75.998L77.56 80.001M78.553 77.329L78.553 80.774M71.595 73.682L71.595 77.329M72.801 75.466L72.801 78.235M76.03 83.533s-.783 6.98-2.114 8.61c-1.33 1.629-3.366 3.723-3.366 3.723v-2.56l-2.427 4.189V96.02L66.4 98.658V97.34M61.646 86.635s3.498 4.419 3.148 10.397c-.35 5.977-2.361 6.93-2.361 6.93s-.603.54-.563 1.137M72.626 93.639s.664-1.962.742-3.746" transform="translate(-188 -3429) translate(190 3430) translate(31.025 42.8)"/>
                    <path stroke="#44E7D9" stroke-linecap="round" stroke-linejoin="round" stroke-width="1.875" d="M74.87 89.893l14.391 21.408s3.054 4.887 4.228 6.438c1.174 1.551-.235-3.025-2.27-6.438M89.653 107.345s4.149 9.23 8.533 14.195c4.385 4.964 2.036.543-.391-4.654s-7.281-17.22-7.281-17.22M88.186 109.701s3.537 4.15 1.954-1.314" transform="translate(-188 -3429) translate(190 3430) translate(31.025 42.8)"/>
                    <path stroke="#44E7D9" stroke-linecap="round" stroke-linejoin="round" stroke-width="1.875" d="M93.916 107.94s7.089 10.42 9.75 13.6c2.663 3.18-3.053-9.153-5.48-12.256-2.427-3.102-6.42-10.626-6.42-10.626" transform="translate(-188 -3429) translate(190 3430) translate(31.025 42.8)"/>
                    <path stroke="#44E7D9" stroke-linecap="round" stroke-linejoin="round" stroke-width="1.875" d="M99.916 121.43s3.203 5.074 3.907 4.453c.705-.62-1.652-6.254-1.652-6.254M95.933 110.876s5.385 4.846 2.097-1.591M92.3 112.626s5.05 6.195 3.198-.94M88.79 87.35s11.667 13.712 11.353 14.566c-.312.853-3.717-2.593-3.717-2.593M95.549 102.648s5.113 4.962 0-4.595M96.699 99.356s3.968 3.64 1.123-.972M45.34 48.24s4.463 4.344 4.855 6.206c0 0 7.124-.31 10.255 4.654" transform="translate(-188 -3429) translate(190 3430) translate(31.025 42.8)"/>
                    <path stroke="#44E7D9" stroke-linecap="round" stroke-linejoin="round" stroke-width="1.875" d="M37.898 53.69s-1.49-3.49-.005-5.973c1.485-2.483 2.346-2.484 2.346-2.484s1.645 1.55 4.151 1.936l1.723 1.084s-2.427-.773-3.367-.617c-.939.156-4.697.159-4.848 6.054z" transform="translate(-188 -3429) translate(190 3430) translate(31.025 42.8)"/>
                    <path stroke="#44E7D9" stroke-linecap="round" stroke-linejoin="round" stroke-width="1.875" d="M38.678 50.121s1.878-1.01 3.131-.08c0 0 1.532-1.771 1.665-2.399M40.24 45.233l.624-1.396s.08 1.008.784 1.395c0 0 .54.352.466 1.223M43.862 43.795s.543-1.39 1.669-1.652c1.126-.26 2.177.934 1.872 1.058-.304.123-1.1 1.555-2.86.768 0 0-.25-.32-.681-.174z" transform="translate(-188 -3429) translate(190 3430) translate(31.025 42.8)"/>
                    <path stroke="#44E7D9" stroke-linecap="round" stroke-linejoin="round" stroke-width="1.875" d="M45.758 43.09s.117-1.027 1.043-.175c0 0-.28.64-1.043.176zM44.211 43.156s-.135.722.843 1.049M66.94 98.25s-1.271 3.215-1.097 4.593c0 0 1.512.08 2.33 1.206M63.832 98.244s0 4.365-1.312 5.415M67.002 104.207c-.24-.628-1.858-.808-1.858-.808s-.39.726-.501 1.126M63.423 104.79l.41-1.088s-.7.174-1.138 1.213M63.395 103.27s.35-.26.612-.26.35.26.35.26M65.144 102.75s-.612 0-.7.26" transform="translate(-188 -3429) translate(190 3430) translate(31.025 42.8)"/>
                    <path stroke="#D1A448" stroke-linecap="round" stroke-linejoin="round" stroke-width="1.875" d="M14.446 87.894c0 3.713-3.038 6.722-6.785 6.722-3.747 0-6.785-3.01-6.785-6.722 0-3.713 3.038-6.723 6.785-6.723 3.747 0 6.785 3.01 6.785 6.723z" transform="translate(-188 -3429) translate(190 3430) translate(31.025 42.8)"/>
                    <path stroke="#D1A448" stroke-linecap="round" stroke-linejoin="round" stroke-width="1.875" d="M11.785 92.874L7.615 81.471 3.459 92.874 13.822 85.98 1.465 85.98z" transform="translate(-188 -3429) translate(190 3430) translate(31.025 42.8)"/>
                    <path stroke="#D1A448" stroke-linecap="round" stroke-linejoin="round" stroke-width="1.875" d="M.068 87.885c0-4.155 3.4-7.523 7.593-7.523 4.194 0 7.593 3.368 7.593 7.523 0 4.155-3.4 7.523-7.593 7.523-4.194 0-7.593-3.368-7.593-7.523zM69.803 163.203c0 3.712-3.038 6.722-6.785 6.722-3.747 0-6.786-3.01-6.786-6.722 0-3.713 3.039-6.723 6.786-6.723 3.747 0 6.785 3.01 6.785 6.723z" transform="translate(-188 -3429) translate(190 3430) translate(31.025 42.8)"/>
                    <path stroke="#D1A448" stroke-linecap="round" stroke-linejoin="round" stroke-width="1.875" d="M67.142 168.183L62.972 156.78 58.816 168.183 69.179 161.289 56.822 161.289z" transform="translate(-188 -3429) translate(190 3430) translate(31.025 42.8)"/>
                    <path stroke="#D1A448" stroke-linecap="round" stroke-linejoin="round" stroke-width="1.875" d="M55.425 163.194c0-4.155 3.4-7.523 7.593-7.523 4.194 0 7.593 3.368 7.593 7.523 0 4.155-3.4 7.523-7.593 7.523-4.194 0-7.593-3.368-7.593-7.523zM26.28 135.114c0 3.712-3.038 6.722-6.786 6.722-3.747 0-6.785-3.01-6.785-6.722 0-3.713 3.038-6.723 6.785-6.723 3.748 0 6.786 3.01 6.786 6.723z" transform="translate(-188 -3429) translate(190 3430) translate(31.025 42.8)"/>
                    <path stroke="#D1A448" stroke-linecap="round" stroke-linejoin="round" stroke-width="1.875" d="M23.619 140.094L19.448 128.691 15.292 140.094 25.655 133.2 13.299 133.2z" transform="translate(-188 -3429) translate(190 3430) translate(31.025 42.8)"/>
                    <path stroke="#D1A448" stroke-linecap="round" stroke-linejoin="round" stroke-width="1.875" d="M11.901 135.105c0-4.155 3.4-7.523 7.593-7.523 4.194 0 7.594 3.368 7.594 7.523 0 4.155-3.4 7.523-7.594 7.523-4.193 0-7.593-3.368-7.593-7.523zM112.1 135.114c0 3.712-3.037 6.722-6.785 6.722-3.747 0-6.785-3.01-6.785-6.722 0-3.713 3.038-6.723 6.785-6.723 3.748 0 6.786 3.01 6.786 6.723z" transform="translate(-188 -3429) translate(190 3430) translate(31.025 42.8)"/>
                    <path stroke="#D1A448" stroke-linecap="round" stroke-linejoin="round" stroke-width="1.875" d="M109.439 140.094L105.269 128.691 101.113 140.094 111.476 133.2 99.12 133.2z" transform="translate(-188 -3429) translate(190 3430) translate(31.025 42.8)"/>
                    <path stroke="#D1A448" stroke-linecap="round" stroke-linejoin="round" stroke-width="1.875" d="M97.722 135.105c0-4.155 3.4-7.523 7.594-7.523 4.193 0 7.593 3.368 7.593 7.523 0 4.155-3.4 7.523-7.593 7.523-4.194 0-7.594-3.368-7.594-7.523zM126.506 87.894c0 3.713-3.038 6.722-6.785 6.722-3.747 0-6.785-3.01-6.785-6.722 0-3.713 3.038-6.723 6.785-6.723 3.747 0 6.785 3.01 6.785 6.723z" transform="translate(-188 -3429) translate(190 3430) translate(31.025 42.8)"/>
                    <path stroke="#D1A448" stroke-linecap="round" stroke-linejoin="round" stroke-width="1.875" d="M123.845 92.874L119.675 81.471 115.519 92.874 125.882 85.98 113.525 85.98z" transform="translate(-188 -3429) translate(190 3430) translate(31.025 42.8)"/>
                    <path stroke="#D1A448" stroke-linecap="round" stroke-linejoin="round" stroke-width="1.875" d="M112.128 87.885c0-4.155 3.4-7.523 7.593-7.523 4.194 0 7.593 3.368 7.593 7.523 0 4.155-3.4 7.523-7.593 7.523-4.194 0-7.593-3.368-7.593-7.523zM93.098 7.726c0 3.713-3.039 6.723-6.786 6.723-3.747 0-6.785-3.01-6.785-6.723s3.038-6.722 6.785-6.722c3.747 0 6.786 3.01 6.786 6.722z" transform="translate(-188 -3429) translate(190 3430) translate(31.025 42.8)"/>
                    <path stroke="#D1A448" stroke-linecap="round" stroke-linejoin="round" stroke-width="1.875" d="M90.436 12.707L86.266 1.303 82.11 12.707 92.473 5.813 80.117 5.813z" transform="translate(-188 -3429) translate(190 3430) translate(31.025 42.8)"/>
                    <path stroke="#D1A448" stroke-linecap="round" stroke-linejoin="round" stroke-width="1.875" d="M78.719 7.718c0-4.155 3.4-7.523 7.593-7.523 4.194 0 7.593 3.368 7.593 7.523 0 4.154-3.4 7.523-7.593 7.523s-7.593-3.369-7.593-7.523zM48.042 7.726c0 3.713-3.039 6.723-6.786 6.723-3.747 0-6.785-3.01-6.785-6.723s3.038-6.722 6.785-6.722c3.747 0 6.786 3.01 6.786 6.722z" transform="translate(-188 -3429) translate(190 3430) translate(31.025 42.8)"/>
                    <path stroke="#D1A448" stroke-linecap="round" stroke-linejoin="round" stroke-width="1.875" d="M45.38 12.707L41.21 1.303 37.054 12.707 47.417 5.813 35.061 5.813z" transform="translate(-188 -3429) translate(190 3430) translate(31.025 42.8)"/>
                    <path stroke="#D1A448" stroke-linecap="round" stroke-linejoin="round" stroke-width="1.875" d="M33.663 7.718c0-4.155 3.4-7.523 7.593-7.523 4.194 0 7.593 3.368 7.593 7.523 0 4.154-3.4 7.523-7.593 7.523s-7.593-3.369-7.593-7.523zM119.457 40.674c0 3.712-3.038 6.722-6.786 6.722-3.747 0-6.785-3.01-6.785-6.722 0-3.713 3.038-6.723 6.785-6.723 3.748 0 6.786 3.01 6.786 6.723z" transform="translate(-188 -3429) translate(190 3430) translate(31.025 42.8)"/>
                    <path stroke="#D1A448" stroke-linecap="round" stroke-linejoin="round" stroke-width="1.875" d="M116.796 45.654L112.625 34.251 108.469 45.654 118.832 38.76 106.476 38.76z" transform="translate(-188 -3429) translate(190 3430) translate(31.025 42.8)"/>
                    <path stroke="#D1A448" stroke-linecap="round" stroke-linejoin="round" stroke-width="1.875" d="M105.078 40.665c0-4.155 3.4-7.523 7.593-7.523 4.194 0 7.594 3.368 7.594 7.523 0 4.155-3.4 7.523-7.594 7.523-4.193 0-7.593-3.368-7.593-7.523zM22.142 40.674c0 3.712-3.038 6.722-6.785 6.722-3.748 0-6.786-3.01-6.786-6.722 0-3.713 3.038-6.723 6.786-6.723 3.747 0 6.785 3.01 6.785 6.723z" transform="translate(-188 -3429) translate(190 3430) translate(31.025 42.8)"/>
                    <path stroke="#D1A448" stroke-linecap="round" stroke-linejoin="round" stroke-width="1.875" d="M19.481 45.654L15.311 34.251 11.155 45.654 21.517 38.76 9.161 38.76z" transform="translate(-188 -3429) translate(190 3430) translate(31.025 42.8)"/>
                    <path stroke="#D1A448" stroke-linecap="round" stroke-linejoin="round" stroke-width="1.875" d="M7.763 40.665c0-4.155 3.4-7.523 7.594-7.523 4.193 0 7.593 3.368 7.593 7.523 0 4.155-3.4 7.523-7.593 7.523-4.194 0-7.594-3.368-7.594-7.523z" transform="translate(-188 -3429) translate(190 3430) translate(31.025 42.8)"/>
                    <path fill="#FFF" d="M92.032 43.245c.246.137.333.446.194.69-.139.244-.45.33-.697.192-.246-.138-.333-.447-.194-.69.14-.244.451-.33.697-.192M53.228 23.502c-.139.243-.45.33-.697.192-.246-.138-.333-.447-.194-.69.14-.244.451-.33.697-.192.246.137.333.446.194.69M15.802 66.964c-.185.325-.601.439-.929.256-.328-.184-.444-.596-.259-.921.186-.325.602-.44.93-.256.328.183.443.595.258.92M64.89 1.473c-.14.243-.451.329-.697.191-.246-.137-.333-.446-.194-.69.139-.244.45-.33.697-.192.246.138.333.447.194.69M97.212 35.406c-.077.135-.25.183-.387.106-.137-.076-.185-.248-.108-.383.077-.136.25-.183.388-.107.136.077.184.248.107.384M120.758 57.91c-.108.188-.35.256-.542.148-.191-.107-.259-.347-.15-.537.107-.19.35-.256.541-.149.192.107.26.348.151.537M65.757 37.467c-.108.19-.35.256-.542.15-.191-.108-.259-.348-.151-.538.108-.19.35-.257.542-.15.191.107.259.348.151.538M82.165 22.236c.246.138.333.447.194.69-.139.244-.45.33-.697.193-.246-.138-.333-.447-.194-.691.139-.244.451-.33.697-.192M84.739 61.404c-.14.244-.451.33-.697.193-.246-.138-.333-.447-.194-.69.139-.245.45-.33.697-.193.246.138.333.447.194.69M28.923 73.892c-.185.325-.602.44-.93.256-.328-.183-.444-.595-.258-.92.185-.326.6-.44.929-.257.328.184.444.596.259.921M74.778 19.56c-.077.135-.25.183-.387.106-.136-.076-.185-.248-.108-.383.077-.136.25-.184.388-.107.136.076.184.248.107.383M33.881 91.291c.246.138.333.447.194.691-.139.244-.45.33-.697.192-.246-.138-.333-.447-.194-.69.14-.244.451-.33.697-.193M92.952 148.009c.246.137.333.447.194.69-.14.244-.451.33-.697.193-.246-.138-.333-.447-.194-.691.139-.244.451-.33.697-.192M114.835 109.743c-.139.243-.45.33-.697.192-.246-.138-.333-.447-.194-.69.14-.244.451-.33.697-.193.246.138.333.447.194.69M48.292 161.403c-.186.325-.602.44-.93.257-.328-.184-.444-.596-.258-.921.185-.325.6-.44.929-.257.328.184.444.596.259.921M78.989 134.782c-.14.243-.451.329-.697.191-.246-.137-.333-.446-.194-.69.139-.244.45-.33.697-.192.246.138.333.447.194.69M72.386 148.673c-.078.135-.251.183-.388.106-.137-.076-.185-.248-.108-.383.078-.136.251-.183.388-.107.136.077.185.248.108.384M84.59 162.673c-.107.19-.35.257-.541.15-.192-.107-.26-.348-.151-.537.108-.19.35-.257.542-.15.191.107.259.348.15.537M21.927 16.817c-.108.19-.35.257-.542.15-.191-.107-.259-.348-.151-.537.108-.19.35-.257.542-.15.191.107.259.348.151.537M104.54 60.498c.246.137.333.446.194.69-.14.244-.451.33-.697.192-.246-.138-.333-.446-.194-.69.139-.244.451-.33.697-.192M28.342 116.975c-.139.244-.45.33-.697.192-.246-.137-.333-.447-.194-.69.14-.244.451-.33.697-.192.246.137.333.446.194.69M8.387 112.761c-.185.325-.601.44-.93.257-.327-.184-.443-.596-.258-.921.185-.325.601-.44.93-.256.327.183.443.595.258.92M54.243 136.47c-.078.136-.251.184-.388.107-.136-.076-.185-.248-.107-.383.077-.136.25-.183.387-.107s.185.248.108.384M114.185 70.339c.246.137.333.446.194.69-.14.244-.451.33-.697.192-.246-.137-.333-.446-.194-.69.139-.244.451-.33.697-.192M36.555 34.135c.246.137.333.446.194.69-.139.244-.45.33-.697.192-.246-.138-.333-.446-.194-.69.14-.244.451-.33.697-.192M40.661 148.308c-.139.244-.45.33-.696.192-.247-.137-.334-.447-.195-.69.14-.244.452-.33.697-.192.247.137.333.447.194.69M98.558 24.147c-.185.325-.601.44-.93.256-.327-.184-.443-.596-.258-.92.185-.326.601-.44.93-.257.328.183.443.595.258.92M39.143 135.389c-.138.243-.45.33-.697.192-.245-.138-.332-.447-.193-.69.138-.245.45-.33.697-.193.245.138.332.447.193.69M49.091 94.924c-.077.136-.25.183-.387.107s-.185-.248-.108-.384c.077-.135.25-.183.387-.106.137.076.186.248.108.383M30.34 46.673c-.108.19-.351.257-.542.15-.192-.107-.26-.348-.151-.537.108-.19.35-.257.542-.15.191.107.259.348.15.537M78.324 35.645c-.108.189-.351.256-.542.149-.192-.107-.26-.348-.151-.537.108-.19.35-.257.542-.15.191.108.259.348.15.538M122.317 124.267c.246.138.333.447.194.69-.139.245-.451.33-.697.193-.246-.138-.333-.447-.194-.69.139-.244.451-.33.697-.193M26.81 101.488c-.14.244-.451.33-.697.192-.246-.137-.333-.446-.194-.69.139-.244.45-.33.697-.192.246.137.333.447.194.69M34.746 24.698c-.185.325-.601.44-.929.257-.328-.184-.444-.596-.259-.92.186-.326.602-.44.93-.258.328.184.443.596.258.921M42.902 103.371c-.077.136-.25.183-.387.107s-.185-.248-.108-.384c.077-.135.25-.183.387-.106.137.076.185.248.108.383M101.005 81.878c.246.137.333.447.194.69-.139.244-.45.33-.697.193-.246-.138-.333-.447-.194-.691.14-.244.451-.33.697-.192" transform="translate(-188 -3429) translate(190 3430) translate(31.025 42.8)"/>
                </g>
            </g>
        </g>
    </g>
</svg>
