<svg xmlns="http://www.w3.org/2000/svg" width="191" height="270" viewBox="0 0 191 270"><title>Королева Мечей</title>
    <g fill="none" fill-rule="evenodd">
        <g>
            <g>
                <path fill="#1a1d24" stroke="#FFF" stroke-linecap="round" stroke-linejoin="round" stroke-width="2.5" d="M177.795 265.846H9.621c-5.22 0-9.452-4.232-9.452-9.452V9.621C.169 4.401 4.401.17 9.621.17h168.174c5.22 0 9.452 4.232 9.452 9.452v246.773c0 5.22-4.232 9.452-9.452 9.452z" transform="translate(-180 -1354) translate(182 1356)"/>
                <path fill="#D1A448" fill-rule="nonzero" d="M64.567 255.092l-1.721-1.932c.67-.433 1.006-1.126 1.006-2.079v-6.17c0-.737-.216-1.335-.65-1.795-.432-.46-1.076-.69-1.932-.69-.855 0-1.5.23-1.932.69-.433.46-.65 1.058-.65 1.794v6.171c0 .737.217 1.335.65 1.795.433.46 1.077.69 1.932.69.271 0 .542-.027.812-.081l1.43 1.607h1.055zm-3.297-2.257c-1.18 0-1.77-.584-1.77-1.754v-6.17c0-1.17.59-1.755 1.77-1.755 1.18 0 1.77.585 1.77 1.754v6.171c0 1.17-.59 1.754-1.77 1.754zm7.357.731c.855 0 1.5-.23 1.932-.69.433-.46.65-1.058.65-1.795v-8.493h-.812v8.493c0 1.17-.59 1.754-1.77 1.754-1.18 0-1.77-.584-1.77-1.754v-8.493h-.812v8.493c0 .737.216 1.335.65 1.795.432.46 1.077.69 1.932.69zm9.419-.162v-.731h-3.67v-4.352h3.199v-.731h-3.2v-4.271h3.67v-.73h-4.481v10.815h4.482zm6.35 0v-.731h-3.67v-4.352h3.198v-.731h-3.199v-4.271h3.67v-.73h-4.482v10.815h4.482zm2.663 0v-6.139c-.02-1.913-.03-2.99-.032-3.23v-.05c.4 1.039 1.634 4.179 3.702 9.419H91.8v-10.816h-.812v6.171l.032 3.28c-.13-.346-1.364-3.496-3.703-9.45h-1.055v10.815h.796zm12.683.162c.855 0 1.5-.23 1.932-.69.433-.46.65-1.058.65-1.795v-6.17c0-.737-.217-1.335-.65-1.795-.433-.46-1.077-.69-1.932-.69-.856 0-1.5.23-1.933.69-.433.46-.65 1.058-.65 1.794v6.171c0 .737.217 1.335.65 1.795.433.46 1.077.69 1.933.69zm0-.73c-1.18 0-1.77-.585-1.77-1.755v-6.17c0-1.17.59-1.755 1.77-1.755 1.18 0 1.77.585 1.77 1.754v6.171c0 1.17-.59 1.754-1.77 1.754zm5.667.568v-4.921h3.378v-.73h-3.378v-4.434h3.524v-.73h-4.336v10.815h.812zm8.104 0l.73-3.167h3.086l.73 3.167h.845l-2.533-10.816h-1.17l-2.533 10.816h.845zm3.654-3.898h-2.761l1.38-5.992 1.38 5.992zm4.092 3.898v-10.816h-.812v10.816h.812zm3.248 0v-4.466h1.575c.173 0 .303-.006.39-.017l1.607 4.483h.894l-1.705-4.661c.93-.347 1.396-1.094 1.396-2.241v-1.478c0-.736-.216-1.326-.65-1.77-.433-.444-1.077-.666-1.932-.666h-2.387v10.816h.812zm1.575-5.23h-1.575v-4.855h1.575c1.18 0 1.77.568 1.77 1.705v1.478c0 1.115-.59 1.672-1.77 1.672z" transform="translate(-180 -1354) translate(182 1356)"/>
                <g>
                    <path stroke="#FFF" stroke-linecap="round" stroke-linejoin="round" stroke-width="1.875" d="M16.179 3.874L164.283 3.874 164.283 227.03M154.214 239.996L127.946 239.996M5.786 14.826L5.786 239.996 41.967 239.996" transform="translate(-180 -1354) translate(182 1356) translate(8.446 10.98)"/>
                    <path stroke="#44E7D9" stroke-linecap="round" stroke-linejoin="round" stroke-width="1.875" d="M164.444 242.931L161.822 238.389 159.2 233.846 164.444 233.846 169.689 233.846 167.067 238.389zM5.573.025L8.195 4.567 10.817 9.109 5.573 9.109.328 9.109 2.95 4.567zM87.468 58.291s-10.286-.224-13.584 8.719c-3.094 8.388 3.586 12.861 3.35 12.964" transform="translate(-180 -1354) translate(182 1356) translate(8.446 10.98)"/>
                    <path stroke="#D1A448" stroke-linecap="round" stroke-linejoin="round" stroke-width="1.875" d="M88.077 79.175c-.609-1.217-4.46-7.097-8.313-5.88-3.853 1.216-2.734 6.68-2.734 6.68s-5.788-5.535-9.837-4.247c-4.46 1.42-1.387 6.401-1.387 6.401-.166-.268-5.337-5.905-1.046-8.429 0 0 4.012-2.7 10.015 3.415" transform="translate(-180 -1354) translate(182 1356) translate(8.446 10.98)"/>
                    <path stroke="#FBAE17" stroke-linecap="round" stroke-linejoin="round" stroke-width="1.875" d="M77.137 79.852c-.66.02-3.562-9.977 3.438-9.396 6.092.506 7.704 8.719 7.704 8.719-4.866-12.976 0-20.681 0-20.681v-2.23s-4.257-3.042-3.65-4.867c.61-1.824 3.245-1.621 4.258 0" transform="translate(-180 -1354) translate(182 1356) translate(8.446 10.98)"/>
                    <path stroke="#44E7D9" stroke-linecap="round" stroke-linejoin="round" stroke-width="1.875" d="M67.193 57.683s-5.272 1.604-6.69 9.022" transform="translate(-180 -1354) translate(182 1356) translate(8.446 10.98)"/>
                    <path stroke="#D1A448" stroke-linecap="round" stroke-linejoin="round" stroke-width="1.875" d="M88.888 55.655s-3.447-2.433-2.23-3.446c1.216-1.014 2.23 1.013 2.23 1.013M100.638 79.931c.66.02 3.562-9.977-3.438-9.396-6.091.506-7.704 8.718-7.704 8.718 4.866-12.976 0-20.68 0-20.68v-2.23s4.258-3.042 3.65-4.867c-.609-1.824-3.245-1.621-4.258 0" transform="translate(-180 -1354) translate(182 1356) translate(8.446 10.98)"/>
                    <path stroke="#D1A448" stroke-linecap="round" stroke-linejoin="round" stroke-width="1.875" d="M88.888 55.734s3.446-2.433 2.23-3.446c-1.217-1.014-2.23 1.013-2.23 1.013" transform="translate(-180 -1354) translate(182 1356) translate(8.446 10.98)"/>
                    <path stroke="#44E7D9" stroke-linecap="round" stroke-linejoin="round" stroke-width="1.875" d="M110.733 82.666s11.556-6.285 6.488-20.072c-5.07-13.787-24.939-6.082-27.372-4.258 0 0 10.286-.224 13.585 8.718 3.093 8.388-3.587 12.862-3.35 12.965" transform="translate(-180 -1354) translate(182 1356) translate(8.446 10.98)"/>
                    <path stroke="#D1A448" stroke-linecap="round" stroke-linejoin="round" stroke-width="1.875" d="M102.543 77.16c6.003-6.115 10.014-3.415 10.014-3.415 4.291 2.524-.88 8.161-1.046 8.43 0 0 3.074-4.983-1.387-6.402-4.049-1.288-9.837 4.246-9.837 4.246s1.12-5.463-2.734-6.68c-3.852-1.216-7.096 4.664-7.704 5.88l-1.772-.044c-13.585-.609-23.114 5.068-23.114 5.068.608 2.434 2.028 2.23 2.028 2.23s5.325-5.202 20.477-5.068l2.381.045c14.755.136 20.883 4.866 20.883 4.866s1.014.405 1.622-2.027c0 0-9.529-5.678-23.113-5.07" transform="translate(-180 -1354) translate(182 1356) translate(8.446 10.98)"/>
                    <path stroke="#44E7D9" stroke-linecap="round" stroke-linejoin="round" stroke-width="1.875" d="M77.03 79.974s-10.85-15.6 10.438-21.885M100.4 80.264s10.852-15.6-10.437-21.885" transform="translate(-180 -1354) translate(182 1356) translate(8.446 10.98)"/>
                    <path stroke="#D1A448" stroke-linecap="round" stroke-linejoin="round" stroke-width="1.875" d="M88.28 58.291s.608.406 1.216 0" transform="translate(-180 -1354) translate(182 1356) translate(8.446 10.98)"/>
                    <path stroke="#FFF" stroke-linecap="round" stroke-linejoin="round" stroke-width="1.875" d="M68.41 77.553L68.207 79.377 69.626 80.797 69.829 78.769zM80.771 75.127L80.192 76.87 81.284 78.554 81.905 76.613zM108.842 77.484L109.045 79.309 107.626 80.729 107.423 78.701zM96.481 75.059L97.06 76.801 95.968 78.486 95.347 76.545z" transform="translate(-180 -1354) translate(182 1356) translate(8.446 10.98)"/>
                    <path stroke="#D1A448" stroke-linecap="round" stroke-linejoin="round" stroke-width="1.875" d="M65.197 84.767s1.185-.726 1.59-.93M65.197 84.767s1.185-.726 1.59-.93M65.451 85.21s.844-.518 1.133-.662M65.607 85.869s1.186-.726 1.591-.93M66.097 86.112s.844-.518 1.133-.662" transform="translate(-180 -1354) translate(182 1356) translate(8.446 10.98)"/>
                    <path stroke="#44E7D9" stroke-linecap="round" stroke-linejoin="round" stroke-width="1.875" d="M66.658 82.658S55.1 76.373 60.17 62.585c5.069-13.787 24.938-6.082 27.371-4.257" transform="translate(-180 -1354) translate(182 1356) translate(8.446 10.98)"/>
                    <path fill="#000" d="M90.584 202.443L90.544 184.026 85.309 184.038 85.35 202.455z" transform="translate(-180 -1354) translate(182 1356) translate(8.446 10.98)"/>
                    <path stroke="#FFF" stroke-linecap="round" stroke-linejoin="round" stroke-width="1.875" d="M90.584 202.443L90.544 184.026 85.309 184.038 85.35 202.455z" transform="translate(-180 -1354) translate(182 1356) translate(8.446 10.98)"/>
                    <path fill="#000" d="M84.482 204.686L84.48 203.62 84.477 202.553 91.263 202.539 91.267 204.671z" transform="translate(-180 -1354) translate(182 1356) translate(8.446 10.98)"/>
                    <path stroke="#FFF" stroke-linecap="round" stroke-linejoin="round" stroke-width="1.875" d="M84.482 204.686L84.48 203.62 84.477 202.553 91.263 202.539 91.267 204.671z" transform="translate(-180 -1354) translate(182 1356) translate(8.446 10.98)"/>
                    <g>
                        <path fill="#000" d="M6.806 0.468L0.02 0.482" transform="translate(-180 -1354) translate(182 1356) translate(8.446 10.98) translate(84.46 203.04)"/>
                        <path stroke="#FFF" stroke-linecap="round" stroke-linejoin="round" stroke-width="1.875" d="M6.806 0.468L0.02 0.482" transform="translate(-180 -1354) translate(182 1356) translate(8.446 10.98) translate(84.46 203.04)"/>
                    </g>
                    <g>
                        <path fill="#000" d="M.106.291s.217 1.647 1.962 1.837c0 0 1.673-.003 1.996-1.845" transform="translate(-180 -1354) translate(182 1356) translate(8.446 10.98) translate(85.81 204.392)"/>
                        <path stroke="#FFF" stroke-linecap="round" stroke-linejoin="round" stroke-width="1.875" d="M.106.291s.217 1.647 1.962 1.837c0 0 1.673-.003 1.996-1.845" transform="translate(-180 -1354) translate(182 1356) translate(8.446 10.98) translate(85.81 204.392)"/>
                    </g>
                    <g>
                        <path fill="#000" d="M0.051 86.922L1.111 10.925 3.414 0.064 6.346 10.914 7.912 86.905" transform="translate(-180 -1354) translate(182 1356) translate(8.446 10.98) translate(84.122 93.919)"/>
                        <path stroke="#FFF" stroke-linecap="round" stroke-linejoin="round" stroke-width="1.875" d="M0.051 86.922L1.111 10.925 3.414 0.064 6.346 10.914 7.912 86.905" transform="translate(-180 -1354) translate(182 1356) translate(8.446 10.98) translate(84.122 93.919)"/>
                    </g>
                    <g>
                        <path fill="#000" d="M0.371 29.144L0.549 0.064" transform="translate(-180 -1354) translate(182 1356) translate(8.446 10.98) translate(87.5 151.69)"/>
                        <path stroke="#FFF" stroke-linecap="round" stroke-linejoin="round" stroke-width="1.875" d="M0.371 29.144L0.549 0.064" transform="translate(-180 -1354) translate(182 1356) translate(8.446 10.98) translate(87.5 151.69)"/>
                    </g>
                    <g>
                        <path fill="#000" d="M0.21 1.797L0.206 0.246" transform="translate(-180 -1354) translate(182 1356) translate(8.446 10.98) translate(87.838 148.986)"/>
                        <path stroke="#FFF" stroke-linecap="round" stroke-linejoin="round" stroke-width="1.875" d="M0.21 1.797L0.206 0.246" transform="translate(-180 -1354) translate(182 1356) translate(8.446 10.98) translate(87.838 148.986)"/>
                    </g>
                    <g>
                        <path fill="#000" d="M0.204 0.146L0.205 0.534" transform="translate(-180 -1354) translate(182 1356) translate(8.446 10.98) translate(87.838 148.31)"/>
                        <path stroke="#FFF" stroke-linecap="round" stroke-linejoin="round" stroke-width="1.875" d="M0.204 0.146L0.205 0.534" transform="translate(-180 -1354) translate(182 1356) translate(8.446 10.98) translate(87.838 148.31)"/>
                    </g>
                    <g>
                        <path fill="#000" d="M0.54 53.569L0.036 0.064" transform="translate(-180 -1354) translate(182 1356) translate(8.446 10.98) translate(87.5 93.919)"/>
                        <path stroke="#FFF" stroke-linecap="round" stroke-linejoin="round" stroke-width="1.875" d="M0.54 53.569L0.036 0.064" transform="translate(-180 -1354) translate(182 1356) translate(8.446 10.98) translate(87.5 93.919)"/>
                    </g>
                    <g>
                        <path fill="#000" d="M0.029 1.81L1.189 0.256" transform="translate(-180 -1354) translate(182 1356) translate(8.446 10.98) translate(88.851 175.338)"/>
                        <path stroke="#FFF" stroke-linecap="round" stroke-linejoin="round" stroke-width="1.875" d="M0.029 1.81L1.189 0.256" transform="translate(-180 -1354) translate(182 1356) translate(8.446 10.98) translate(88.851 175.338)"/>
                    </g>
                    <g>
                        <path fill="#000" d="M0.274 1.376L1.241 0.018" transform="translate(-180 -1354) translate(182 1356) translate(8.446 10.98) translate(89.19 176.351)"/>
                        <path stroke="#FFF" stroke-linecap="round" stroke-linejoin="round" stroke-width="1.875" d="M0.274 1.376L1.241 0.018" transform="translate(-180 -1354) translate(182 1356) translate(8.446 10.98) translate(89.19 176.351)"/>
                    </g>
                    <g>
                        <path fill="#000" d="M0.027 0.984L0.607 0.207" transform="translate(-180 -1354) translate(182 1356) translate(8.446 10.98) translate(88.851 175)"/>
                        <path stroke="#FFF" stroke-linecap="round" stroke-linejoin="round" stroke-width="1.875" d="M0.027 0.984L0.607 0.207" transform="translate(-180 -1354) translate(182 1356) translate(8.446 10.98) translate(88.851 175)"/>
                    </g>
                    <path fill="#000" d="M77.846 184.151L98.008 184.107 98 180.811 77.839 180.855z" transform="translate(-180 -1354) translate(182 1356) translate(8.446 10.98)"/>
                    <path stroke="#FFF" stroke-linecap="round" stroke-linejoin="round" stroke-width="1.875" d="M77.846 184.151L98.008 184.107 98 180.811 77.839 180.855z" transform="translate(-180 -1354) translate(182 1356) translate(8.446 10.98)"/>
                    <g>
                        <path fill="#000" d="M0.139 0.311L20.301 0.267" transform="translate(-180 -1354) translate(182 1356) translate(8.446 10.98) translate(77.703 182.095)"/>
                        <path stroke="#FFF" stroke-linecap="round" stroke-linejoin="round" stroke-width="1.875" d="M0.139 0.311L20.301 0.267" transform="translate(-180 -1354) translate(182 1356) translate(8.446 10.98) translate(77.703 182.095)"/>
                    </g>
                    <g>
                        <path fill="#000" d="M0.31 0.428L5.446 0.398" transform="translate(-180 -1354) translate(182 1356) translate(8.446 10.98) translate(85.135 200.338)"/>
                        <path stroke="#FFF" stroke-linecap="round" stroke-linejoin="round" stroke-width="1.875" d="M0.31 0.428L5.446 0.398" transform="translate(-180 -1354) translate(182 1356) translate(8.446 10.98) translate(85.135 200.338)"/>
                    </g>
                    <g>
                        <path fill="#000" d="M0.257 0.33L5.392 0.301" transform="translate(-180 -1354) translate(182 1356) translate(8.446 10.98) translate(85.135 198.31)"/>
                        <path stroke="#FFF" stroke-linecap="round" stroke-linejoin="round" stroke-width="1.875" d="M0.257 0.33L5.392 0.301" transform="translate(-180 -1354) translate(182 1356) translate(8.446 10.98) translate(85.135 198.31)"/>
                    </g>
                    <g>
                        <path fill="#000" d="M0.319 0.341L5.454 0.311" transform="translate(-180 -1354) translate(182 1356) translate(8.446 10.98) translate(85.135 196.284)"/>
                        <path stroke="#FFF" stroke-linecap="round" stroke-linejoin="round" stroke-width="1.875" d="M0.319 0.341L5.454 0.311" transform="translate(-180 -1354) translate(182 1356) translate(8.446 10.98) translate(85.135 196.284)"/>
                    </g>
                    <g>
                        <path fill="#000" d="M0.266 0.243L5.401 0.213" transform="translate(-180 -1354) translate(182 1356) translate(8.446 10.98) translate(85.135 194.257)"/>
                        <path stroke="#FFF" stroke-linecap="round" stroke-linejoin="round" stroke-width="1.875" d="M0.266 0.243L5.401 0.213" transform="translate(-180 -1354) translate(182 1356) translate(8.446 10.98) translate(85.135 194.257)"/>
                    </g>
                    <g>
                        <path fill="#000" d="M0.008 0.212L5.144 0.183" transform="translate(-180 -1354) translate(182 1356) translate(8.446 10.98) translate(85.473 191.892)"/>
                        <path stroke="#FFF" stroke-linecap="round" stroke-linejoin="round" stroke-width="1.875" d="M0.008 0.212L5.144 0.183" transform="translate(-180 -1354) translate(182 1356) translate(8.446 10.98) translate(85.473 191.892)"/>
                    </g>
                    <g>
                        <path fill="#000" d="M0.024 0.328L5.428 0.085" transform="translate(-180 -1354) translate(182 1356) translate(8.446 10.98) translate(85.135 189.865)"/>
                        <path stroke="#FFF" stroke-linecap="round" stroke-linejoin="round" stroke-width="1.875" d="M0.024 0.328L5.428 0.085" transform="translate(-180 -1354) translate(182 1356) translate(8.446 10.98) translate(85.135 189.865)"/>
                    </g>
                    <g>
                        <path fill="#000" d="M0.017 0.464L5.153 0.434" transform="translate(-180 -1354) translate(182 1356) translate(8.446 10.98) translate(85.473 187.5)"/>
                        <path stroke="#FFF" stroke-linecap="round" stroke-linejoin="round" stroke-width="1.875" d="M0.017 0.464L5.153 0.434" transform="translate(-180 -1354) translate(182 1356) translate(8.446 10.98) translate(85.473 187.5)"/>
                    </g>
                    <g>
                        <path fill="#000" d="M0.302 0.366L5.437 0.336" transform="translate(-180 -1354) translate(182 1356) translate(8.446 10.98) translate(85.135 185.473)"/>
                        <path stroke="#FFF" stroke-linecap="round" stroke-linejoin="round" stroke-width="1.875" d="M0.302 0.366L5.437 0.336" transform="translate(-180 -1354) translate(182 1356) translate(8.446 10.98) translate(85.135 185.473)"/>
                    </g>
                    <g>
                        <path fill="#000" d="M0.263 0.401L10.736 0.401" transform="translate(-180 -1354) translate(182 1356) translate(8.446 10.98) translate(0 3.378)"/>
                        <path stroke="#44E7D9" stroke-linecap="round" stroke-linejoin="round" stroke-width="1.875" d="M0.263 0.401L10.736 0.401" transform="translate(-180 -1354) translate(182 1356) translate(8.446 10.98) translate(0 3.378)"/>
                    </g>
                    <g>
                        <path fill="#000" d="M0.263 0.401L10.736 0.401" transform="translate(-180 -1354) translate(182 1356) translate(8.446 10.98) translate(158.784 238.851)"/>
                        <path stroke="#44E7D9" stroke-linecap="round" stroke-linejoin="round" stroke-width="1.875" d="M0.263 0.401L10.736 0.401" transform="translate(-180 -1354) translate(182 1356) translate(8.446 10.98) translate(158.784 238.851)"/>
                    </g>
                    <path fill="#FFF" d="M47.561 129.982L46.981 127.347 44.425 126.371 47.06 126.038 47.79 123.234 48.369 126.117 50.926 126.598 48.291 127.178zM64.524 103.781L64.167 102.157 62.591 101.554 64.215 101.35 64.665 99.621 65.022 101.398 66.599 101.695 64.974 102.052zM112.687 100.03L112.056 97.159 109.271 96.095 112.141 95.732 112.936 92.677 113.567 95.818 116.354 96.343 113.483 96.974zM141.272 119.094L140.796 116.929 138.696 116.127 140.86 115.854 141.459 113.551 141.935 115.918 144.036 116.314 141.871 116.79zM75.892 93.481c-.074-.174.008-.375.183-.449.175-.073.376.009.45.184.073.174-.01.375-.184.449-.175.074-.376-.009-.45-.184M137.452 61.34c-.132-.315.016-.677.33-.81.315-.131.676.016.809.33.132.315-.016.678-.33.81s-.677-.015-.809-.33M71.947 122.107c-.132-.315.016-.676.33-.809.314-.132.677.016.809.33.132.315-.016.677-.33.81-.315.131-.676-.016-.809-.33M133.222 99.028c-.073-.175.008-.376.183-.449.175-.074.376.009.45.183.073.175-.009.376-.184.45-.175.073-.376-.009-.45-.184M103.34 109.7c0 .342-.277.619-.618.619-.342 0-.618-.277-.618-.618 0-.342.276-.618.618-.618.341 0 .617.276.617.618M139.14 162.066L138.368 158.554 134.961 157.253 138.472 156.81 139.445 153.073 140.217 156.914 143.625 157.557 140.113 158.329zM50.289 157.675L49.931 156.05 48.355 155.448 49.98 155.243 50.43 153.514 50.787 155.291 52.364 155.588 50.739 155.946zM40.321 177.072L39.67 174.111 36.797 173.013 39.758 172.64 40.578 169.489 41.228 172.728 44.102 173.27 41.141 173.921zM109.807 170.96L109.331 168.796 107.231 167.993 109.395 167.72 109.995 165.417 110.47 167.785 112.571 168.18 110.406 168.657zM59.63 145.01c-.074-.175.008-.376.183-.45.174-.073.375.01.449.184.074.175-.008.376-.183.45-.175.073-.376-.01-.45-.184M113.42 201.044c-.133-.314.015-.677.33-.809.314-.132.676.016.809.33.132.315-.016.677-.33.81-.315.131-.677-.016-.81-.33M53.32 182.757c-.133-.314.015-.676.33-.809.314-.132.676.016.809.33.132.315-.016.677-.33.81-.315.132-.677-.016-.81-.33M107.838 144.138c-.074-.175.009-.376.184-.45.174-.073.375.01.449.184.073.174-.009.376-.184.45-.174.073-.375-.009-.449-.184M75.59 155.486c0 .341-.276.618-.617.618-.341 0-.618-.277-.618-.618 0-.341.277-.618.618-.618.341 0 .618.277.618.618M39.314 100.981L38.541 97.469 35.135 96.168 38.646 95.724 39.619 91.987 40.391 95.829 43.799 96.471 40.287 97.244zM57.895 51.995L57.538 50.37 55.962 49.768 57.586 49.563 58.036 47.835 58.393 49.612 59.97 49.909 58.345 50.266zM99.15 40.722L98.366 37.154 94.905 35.831 98.472 35.382 99.46 31.585 100.244 35.488 103.707 36.141 100.139 36.925zM127.548 52.442L127.072 50.278 124.972 49.476 127.136 49.203 127.736 46.899 128.212 49.267 130.312 49.663 128.148 50.139zM67.573 26.83c-.073-.174.009-.375.184-.449.175-.074.376.008.45.183.073.175-.01.376-.184.45-.175.073-.376-.009-.45-.184M131.161 78.81c-.132-.314.016-.676.33-.809.314-.132.677.016.809.33.132.315-.016.677-.33.81-.314.131-.676-.016-.809-.33M40.656 61.875c-.132-.315.015-.677.33-.81.315-.131.677.016.809.331s-.015.677-.33.809c-.314.132-.677-.015-.81-.33M120.85 30.35c-.074-.175.008-.376.183-.45.175-.073.376.01.45.184.073.175-.009.376-.184.45-.175.073-.376-.009-.45-.184M82.86 43.387c0 .342-.277.618-.619.618-.34 0-.617-.276-.617-.618 0-.34.276-.617.617-.617.342 0 .618.276.618.617M134.819 179.178L134.461 177.553 132.885 176.951 134.51 176.747 134.96 175.018 135.317 176.795 136.893 177.092 135.269 177.449zM34.861 114.826c-.073-.175.009-.376.183-.45.175-.073.376.009.45.184.073.174-.008.375-.183.449-.175.074-.376-.008-.45-.183M120.748 125.918c-.133-.314.015-.676.33-.809.314-.132.676.016.808.33.133.315-.015.677-.33.81-.314.132-.676-.016-.808-.33M92.195 223.468c-.132-.315.016-.677.33-.81.314-.131.676.016.809.33.132.315-.016.677-.33.81-.314.132-.677-.016-.809-.33M72.156 217.611L71.68 215.447 69.58 214.644 71.744 214.371 72.344 212.068 72.819 214.436 74.92 214.831 72.755 215.308zM64.106 201.6c-.073-.175.009-.376.184-.45.174-.073.375.009.45.184.073.174-.01.376-.184.449-.175.074-.376-.009-.45-.183M46.07 39.131L45.297 35.619 41.89 34.318 45.401 33.875 46.374 30.137 47.146 33.979 50.554 34.622 47.043 35.394z" transform="translate(-180 -1354) translate(182 1356) translate(8.446 10.98)"/>
                </g>
            </g>
        </g>
    </g>
</svg>
