<svg xmlns="http://www.w3.org/2000/svg" width="191" height="269" viewBox="0 0 191 269"><title>Рыцарь Пентаклей</title>
    <g fill="none" fill-rule="evenodd">
        <g>
            <g>
                <path fill="#182018" stroke="#FFF" stroke-linecap="round" stroke-linejoin="round" stroke-width="2.5" d="M177.475 265.368H9.604c-5.211 0-9.435-4.224-9.435-9.435V9.604c0-5.21 4.224-9.435 9.435-9.435h167.871c5.211 0 9.436 4.224 9.436 9.435v246.329c0 5.211-4.225 9.435-9.436 9.435z" transform="translate(-1075 -3426) translate(1077 3428)"/>
                <text fill="#44E7D9" font-family="Khand-Light, Khand" font-size="16.21" font-weight="300" transform="translate(-1075 -3426) translate(1077 3428)">
                    <tspan x="47.779" y="255.487">KNIGHT OF EARTH</tspan>
                </text>
                <g>
                    <path stroke="#FFF" stroke-linecap="round" stroke-linejoin="round" stroke-width="1.875" d="M153.937 239.564L136.821 239.564M5.775 14.799L5.775 239.564 32.449 239.564" transform="translate(-1075 -3426) translate(1077 3428) translate(8.43 10.96)"/>
                    <path stroke="#D1A448" stroke-linecap="round" stroke-linejoin="round" stroke-width="1.875" d="M5.503 9.093L2.886 4.559 0.268 0.025 5.503 0.025 10.739 0.025 8.121 4.559z" transform="translate(-1075 -3426) translate(1077 3428) translate(8.43 10.96)"/>
                    <g>
                        <path fill="#000" d="M10.73 0.496L0.276 0.496" transform="translate(-1075 -3426) translate(1077 3428) translate(8.43 10.96) translate(0 4.721)"/>
                        <path stroke="#D1A448" stroke-linecap="round" stroke-linejoin="round" stroke-width="1.875" d="M10.73 0.496L0.276 0.496" transform="translate(-1075 -3426) translate(1077 3428) translate(8.43 10.96) translate(0 4.721)"/>
                    </g>
                    <path stroke="#D1A448" stroke-width="1.875" d="M164.152 234.015L166.77 238.549 169.388 243.083 164.152 243.083 158.917 243.083 161.535 238.549z" transform="translate(-1075 -3426) translate(1077 3428) translate(8.43 10.96)"/>
                    <g>
                        <path fill="#000" d="M0.09 0.482L10.544 0.482" transform="translate(-1075 -3426) translate(1077 3428) translate(8.43 10.96) translate(158.835 237.41)"/>
                        <path stroke="#D1A448" stroke-width="1.875" d="M0.09 0.482L10.544 0.482" transform="translate(-1075 -3426) translate(1077 3428) translate(8.43 10.96) translate(158.835 237.41)"/>
                    </g>
                    <path stroke="#FFF" stroke-linecap="round" stroke-linejoin="round" stroke-width="1.875" d="M17.245 3.457L165.082 3.457 165.082 226.212" transform="translate(-1075 -3426) translate(1077 3428) translate(8.43 10.96)"/>
                    <path stroke="#FFF" stroke-linecap="round" stroke-linejoin="round" stroke-width="1.875" d="M87.492 113.397s-14.945-9.8-16.538-11.393c-1.592-1.593-3.062-18.13-3.062-18.13l2.695 3.675 16.905-3.185M87.55 113.367s14.945-9.8 16.537-11.392c1.593-1.592 3.063-18.13 3.063-18.13l-2.695 3.675-16.905-3.185" transform="translate(-1075 -3426) translate(1077 3428) translate(8.43 10.96)"/>
                    <path stroke="#FFF" stroke-linecap="round" stroke-linejoin="round" stroke-width="1.875" d="M75.119 89.663L79.162 88.774 79.162 104.087 75.119 101.64zM81.612 88.248L85.593 87.551 85.593 108.251 81.612 105.774zM71.138 90.859L72.792 90.248 72.792 100.289 71.628 99.096zM99.892 89.716L95.849 88.827 95.849 104.14 99.892 101.693zM93.399 88.301L89.418 87.604 89.418 108.305 93.399 105.827zM103.873 90.913L102.219 90.301 102.219 100.342 103.383 99.15zM75.617 86.602L75.617 83.384 87.491 81.057M99.435 86.569L99.435 83.352 87.561 81.025M68.651 84.91s2.032-13.571 11-17.818c8.326-3.942 7.664-7.198 7.84-7.595" transform="translate(-1075 -3426) translate(1077 3428) translate(8.43 10.96)"/>
                    <path stroke="#FFF" stroke-linecap="round" stroke-linejoin="round" stroke-width="1.875" d="M106.36 84.963s-2.032-13.571-11-17.818c-8.326-3.942-7.664-7.198-7.84-7.595v9.686s1.013 4.042 5.79 2.572c0 0 3.675 3.798 9.065 2.695M87.456 69.213s-1.013 4.043-5.79 2.573c0 0-3.675 3.797-9.065 2.695" transform="translate(-1075 -3426) translate(1077 3428) translate(8.43 10.96)"/>
                    <path fill="#FFF" d="M86.879 75.238c0 .305.247.551.551.551.305 0 .552-.246.552-.55 0-.305-.247-.552-.552-.552-.304 0-.551.247-.551.551M81.122 76.34c0 .305.246.552.55.552.305 0 .552-.247.552-.551 0-.304-.247-.552-.551-.552-.305 0-.551.248-.551.552M75.364 77.443c0 .304.247.552.552.552.304 0 .55-.248.55-.552 0-.304-.246-.551-.55-.551-.305 0-.552.247-.552.551M93.984 76.34c0 .305-.247.552-.551.552-.305 0-.552-.247-.552-.551 0-.304.247-.552.552-.552.304 0 .55.248.55.552M99.741 77.443c0 .304-.247.552-.551.552-.304 0-.551-.248-.551-.552 0-.304.247-.551.551-.551.304 0 .551.247.551.551" transform="translate(-1075 -3426) translate(1077 3428) translate(8.43 10.96)"/>
                    <path stroke="#FFF" stroke-linecap="round" stroke-linejoin="round" stroke-width="1.875" d="M73.348 103.845s-.189 6.979-6.436 8.571c0 0 8.269 8.392 20.518 8.392M101.84 103.767s.188 6.979 6.435 8.571c0 0-8.268 8.391-20.518 8.391" transform="translate(-1075 -3426) translate(1077 3428) translate(8.43 10.96)"/>
                    <path stroke="#44E7D9" stroke-linecap="round" stroke-linejoin="round" stroke-width="1.875" d="M83.733 64.651s-11.182-7.202-7.77-16.489c0 0 .852-1.8 1.8-2.558 0 0-.948 2.654 1.326 7.202 0 0-2.653-10.803 8.529-14.972 0 0 3.98-1.138 8.339 1.137 4.36 2.274 8.529 7.77 16.299 9.476 0 0-2.843 1.137-5.875 0 0 0 4.169 11.75 8.149 12.509 3.98.757 4.17-3.79 2.653-6.444 0 0 3.222 3.98 1.327 10.045-1.895 6.064-9.097 3.032-10.613 2.084l-3.032-1.895s.758 1.895 1.895 2.464c0 0-2.085.379-4.928-2.843s-3.98-6.823-7.012-5.497c-3.032 1.327-2.653 3.222-2.653 3.222s2.463-1.136 4.17-1.136c0 0-3.223 2.463-3.791 4.169" transform="translate(-1075 -3426) translate(1077 3428) translate(8.43 10.96)"/>
                    <path stroke="#D1A448" stroke-linecap="round" stroke-linejoin="round" stroke-width="1.875" d="M116.253 172.468c0 15.355-12.447 27.802-27.801 27.802-15.355 0-27.801-12.447-27.801-27.802 0-15.354 12.446-27.8 27.8-27.8 15.355 0 27.802 12.446 27.802 27.8z" transform="translate(-1075 -3426) translate(1077 3428) translate(8.43 10.96)"/>
                    <path stroke="#D1A448" stroke-linecap="round" stroke-linejoin="round" stroke-width="1.875" d="M105.349 193.065L88.263 145.907 71.234 193.065 113.693 164.556 63.068 164.556z" transform="translate(-1075 -3426) translate(1077 3428) translate(8.43 10.96)"/>
                    <path stroke="#D1A448" stroke-linecap="round" stroke-linejoin="round" stroke-width="1.875" d="M57.34 172.433c0-17.182 13.93-31.111 31.112-31.111s31.111 13.929 31.111 31.111c0 17.182-13.929 31.112-31.111 31.112-17.183 0-31.112-13.93-31.112-31.112z" transform="translate(-1075 -3426) translate(1077 3428) translate(8.43 10.96)"/>
                    <path fill="#FFF" d="M70.988 134.95c-.132-.314.016-.675.33-.807.313-.132.675.015.807.33.132.313-.015.675-.329.807s-.675-.015-.808-.33M53.913 135.949L53.334 133.319 50.782 132.344 53.412 132.013 54.141 129.213 54.719 132.091 57.271 132.572 54.641 133.15zM58.705 109.121L58.348 107.499 56.775 106.898 58.396 106.694 58.846 104.968 59.202 106.742 60.776 107.038 59.154 107.395zM33.54 106.326L32.769 102.82 29.369 101.521 32.873 101.079 33.845 97.348 34.615 101.183 38.017 101.825 34.511 102.595zM64.903 28.426L64.546 26.804 62.973 26.203 64.594 25.999 65.043 24.273 65.4 26.047 66.974 26.344 65.352 26.7zM34.908 67.069c-.21-.498.025-1.071.522-1.28.498-.21 1.072.024 1.281.522.21.498-.024 1.071-.522 1.28-.498.21-1.071-.024-1.28-.522M36.317 166.13L35.545 162.624 32.145 161.324 35.65 160.882 36.621 157.152 37.391 160.986 40.793 161.628 37.288 162.399zM52.832 75.497c-.132-.314.015-.675.329-.807s.676.015.807.33c.133.313-.015.675-.329.807s-.675-.016-.807-.33M31.872 179.95c-.073-.176.008-.376.183-.45.174-.073.375.009.448.183.074.175-.008.376-.182.449-.175.073-.376-.009-.45-.183M135.583 116.498L136.161 119.128 138.713 120.103 136.084 120.435 135.355 123.234 134.777 120.357 132.224 119.876 134.854 119.297zM122.023 139.28L122.379 140.902 123.952 141.503 122.331 141.707 121.882 143.433 121.526 141.659 119.952 141.362 121.574 141.006zM151.571 141.737L152.342 145.243 155.743 146.543 152.238 146.985 151.267 150.715 150.497 146.88 147.094 146.239 150.6 145.468zM128.64 186.252L128.996 187.873 130.57 188.474 128.948 188.679 128.499 190.404 128.142 188.631 126.569 188.334 128.19 187.977zM145.848 176.39c.132.313-.016.675-.33.807s-.675-.015-.807-.33c-.132-.314.015-.675.329-.807s.675.015.808.33M144.411 77.55L145.182 81.056 148.583 82.355 145.078 82.797 144.107 86.528 143.336 82.693 139.934 82.052 143.44 81.281zM127.896 168.182c.132.315-.015.676-.33.808-.313.132-.675-.016-.807-.33-.132-.313.015-.675.33-.807.313-.132.675.015.807.33M148.856 63.73c.073.175-.009.376-.183.449-.175.074-.375-.008-.449-.183-.073-.174.009-.375.183-.448.175-.074.375.008.449.182M128.986 95.045c.132.314-.016.675-.33.807-.313.132-.675-.015-.807-.329s.015-.675.33-.808c.313-.132.675.016.807.33M109.547 124.223c.132.314-.016.676-.33.808-.313.132-.675-.016-.807-.33s.015-.675.33-.807c.313-.132.675.015.807.33M32.304 145.662c.132.314-.015.676-.33.808-.313.132-.675-.016-.807-.33-.132-.313.016-.675.33-.807.313-.132.675.015.807.33M129.688 50.332L130.266 52.963 132.818 53.938 130.188 54.27 129.459 57.069 128.881 54.191 126.329 53.711 128.959 53.132zM95.687 20.49L96.459 23.996 99.859 25.295 96.355 25.737 95.383 29.468 94.613 25.633 91.211 24.992 94.716 24.221zM132.87 29.217c.132.314-.015.675-.33.807-.313.132-.675-.015-.807-.33-.132-.313.016-.675.33-.807s.675.015.807.33M114.136 33.949c.073.174-.008.375-.183.448-.174.074-.375-.008-.448-.183-.074-.174.008-.375.183-.448.174-.074.375.008.448.183M45.485 90.286c.073.175-.009.375-.183.449-.175.073-.375-.009-.449-.183-.073-.174.009-.375.183-.449.175-.073.375.009.449.183M32.147 37.59L32.918 41.095 36.319 42.395 32.814 42.837 31.843 46.567 31.072 42.732 27.67 42.091 31.176 41.32zM58.788 55.126L59.145 56.747 60.718 57.348 59.096 57.553 58.647 59.278 58.291 57.505 56.717 57.208 58.339 56.851zM45.567 46.498c.132.315-.015.676-.33.808-.313.132-.675-.015-.807-.33-.132-.313.016-.675.33-.807.313-.132.675.016.807.33M80.089 215.04L80.861 218.546 84.261 219.845 80.756 220.287 79.785 224.018 79.015 220.183 75.613 219.542 79.118 218.771zM36.924 203.574L37.281 205.196 38.854 205.797 37.233 206.001 36.783 207.727 36.427 205.953 34.853 205.656 36.475 205.3zM53.795 206.19c.132.313-.016.675-.33.807s-.675-.016-.807-.33.015-.675.33-.807c.313-.132.675.015.807.33M53.042 183.481c.132.314-.016.676-.33.808s-.675-.015-.807-.33c-.132-.314.016-.675.33-.807.313-.132.675.015.807.33M148.447 195.785L149.218 199.291 152.618 200.59 149.114 201.032 148.142 204.763 147.372 200.928 143.97 200.286 147.476 199.516zM108.316 215.007L108.673 216.629 110.246 217.23 108.625 217.434 108.176 219.16 107.819 217.386 106.245 217.089 107.867 216.732zM138.676 214.924c.132.314-.015.676-.33.808-.313.132-.674-.016-.807-.33-.132-.314.016-.675.33-.807s.675.015.807.33M120.725 206.717c.132.314-.016.676-.33.808s-.675-.016-.807-.33.015-.675.329-.807.675.015.808.33M92.627 124.733L92.984 126.354 94.557 126.955 92.935 127.16 92.486 128.885 92.13 127.112 90.556 126.815 92.178 126.458z" transform="translate(-1075 -3426) translate(1077 3428) translate(8.43 10.96)"/>
                </g>
            </g>
        </g>
    </g>
</svg>
