<svg xmlns="http://www.w3.org/2000/svg" width="191" height="266" viewBox="0 0 191 266"><title>Десятка Пентаклей</title>
    <g fill="none" fill-rule="evenodd">
        <g>
            <g>
                <path fill="#182018" stroke="#FFF" stroke-linecap="round" stroke-linejoin="round" stroke-width="2.5" d="M177.475 263.112H9.605c-5.212 0-9.436-4.185-9.436-9.348V9.716C.169 4.553 4.393.368 9.604.368h167.871c5.211 0 9.435 4.185 9.435 9.348v244.048c0 5.163-4.224 9.348-9.435 9.348z" transform="translate(-486 -3429) translate(488 3430)"/>
                <path fill="#44E7D9" fill-rule="nonzero" d="M60.26 251.387v-10.066h2.14v-.73h-5.09v.73h2.14v10.066h.81zm7.992 0v-.73h-3.663v-4.344h3.193v-.729h-3.193v-4.263h3.663v-.73h-4.474v10.796h4.474zm2.659 0v-6.127l-.031-3.124-.002-.15c.4 1.037 1.632 4.17 3.696 9.401h1.07v-10.796h-.81v6.16l.032 3.275c-.13-.346-1.362-3.491-3.696-9.435h-1.054v10.796h.795zm12.66.162c.853 0 1.496-.23 1.929-.689.432-.459.648-1.056.648-1.79v-6.16c0-.736-.216-1.333-.648-1.792-.433-.46-1.076-.689-1.93-.689-.853 0-1.496.23-1.928.689-.433.46-.649 1.056-.649 1.791v6.16c0 .735.216 1.332.649 1.791.432.46 1.075.69 1.929.69zm0-.73c-1.178 0-1.767-.583-1.767-1.75v-6.16c0-1.167.589-1.75 1.767-1.75s1.767.583 1.767 1.75v6.16c0 1.167-.59 1.75-1.767 1.75zm5.657.568v-4.911H92.6v-.73h-3.372v-4.425h3.518v-.73h-4.328v10.796h.81zm12.612 0v-.73h-3.664v-4.344h3.194v-.729h-3.194v-4.263h3.664v-.73h-4.474v10.796h4.474zm1.815 0l.73-3.16h3.08l.73 3.16h.842l-2.529-10.796h-1.167l-2.529 10.796h.843zm3.648-3.89h-2.756l1.378-5.982 1.378 5.982zm4.085 3.89v-4.458l1.73-.001c.096-.003.173-.008.231-.015l1.605 4.474h.891l-1.702-4.652c.93-.346 1.394-1.092 1.394-2.237v-1.475c0-.735-.216-1.324-.648-1.767-.432-.443-1.075-.665-1.93-.665h-2.382v10.796h.81zm1.572-5.22h-1.572v-4.846h1.572c1.178 0 1.767.567 1.767 1.702v1.475c0 1.113-.59 1.67-1.767 1.67zm6.808 5.22v-10.066h2.14v-.73h-5.09v.73h2.14v10.066h.81zm4.328 0v-4.928h3.794v4.928h.826v-10.796h-.826v5.139h-3.794v-5.139h-.81v10.796h.81z" transform="translate(-486 -3429) translate(488 3430)"/>
                <g>
                    <path stroke="#FFF" stroke-linecap="round" stroke-linejoin="round" stroke-width="1.875" d="M153.937 237.346L132.1 237.346M5.776 14.662L5.776 237.346 37.17 237.346" transform="translate(-486 -3429) translate(488 3430) translate(8.43 11.06)"/>
                    <path stroke="#D1A448" stroke-linecap="round" stroke-linejoin="round" stroke-width="1.875" d="M5.503 9.009L2.886 4.517 0.268 0.025 5.503 0.025 10.739 0.025 8.121 4.517z" transform="translate(-486 -3429) translate(488 3430) translate(8.43 11.06)"/>
                    <g>
                        <path fill="#000" d="M10.73 0.495L0.276 0.495" transform="translate(-486 -3429) translate(488 3430) translate(8.43 11.06) translate(0 4.678)"/>
                        <path stroke="#D1A448" stroke-linecap="round" stroke-linejoin="round" stroke-width="1.875" d="M10.73 0.495L0.276 0.495" transform="translate(-486 -3429) translate(488 3430) translate(8.43 11.06) translate(0 4.678)"/>
                    </g>
                    <path stroke="#D1A448" stroke-linecap="round" stroke-linejoin="round" stroke-width="1.875" d="M164.152 231.848L166.77 236.34 169.387 240.833 164.152 240.833 158.917 240.833 161.535 236.34z" transform="translate(-486 -3429) translate(488 3430) translate(8.43 11.06)"/>
                    <g>
                        <path fill="#000" d="M0.09 0.482L10.544 0.482" transform="translate(-486 -3429) translate(488 3430) translate(8.43 11.06) translate(158.835 235.212)"/>
                        <path stroke="#D1A448" stroke-linecap="round" stroke-linejoin="round" stroke-width="1.875" d="M0.09 0.482L10.544 0.482" transform="translate(-486 -3429) translate(488 3430) translate(8.43 11.06) translate(158.835 235.212)"/>
                    </g>
                    <path stroke="#FFF" stroke-linecap="round" stroke-linejoin="round" stroke-width="1.875" d="M101.088 3.425L165.082 3.425 165.082 224.117M17.245 3.425L69.388 3.425" transform="translate(-486 -3429) translate(488 3430) translate(8.43 11.06)"/>
                </g>
                <path fill="#44E7D9" fill-rule="nonzero" d="M91.788 17.936L93.669 13.527 95.549 17.936 96.441 17.936 94.074 12.538 96.441 7.14 95.549 7.14 93.669 11.565 91.788 7.14 90.897 7.14 93.247 12.538 90.897 17.936z" transform="translate(-486 -3429) translate(488 3430)"/>
                <g>
                    <path stroke="#FFF" stroke-linecap="round" stroke-linejoin="round" stroke-width="1.875" d="M6.01 101.888s.187-2.663.26-4.713c.073-2.048-1.32-3.092-1.803-3.23-.482-.138-.913-.002-.7 1.288.212 1.289-1.205 7.288-1.258 7.92-.053.631-.2.913-.11 3.072.09 2.16-.061 4.252.015 5.115.076.862-.308 3.081-.308 3.081-.235 1.032.012 2.202.012 2.202.96 2.086 1.198 3.964 1.198 3.964l2.257 8.406 2.026 7.628s3.176 10.583 7.268 22.339" transform="translate(-486 -3429) translate(488 3430) translate(37.433 49.816)"/>
                    <path stroke="#FFF" stroke-linecap="round" stroke-linejoin="round" stroke-width="1.875" d="M3.163 115.499s.243-4.653.288-5.48c.044-.829-.667-2.649.18-4.218.849-1.569 4.324-6.786 4.584-7.23.26-.443 1.626-2.899 2.133-2.172.506.727 1.383 1.753-.674 4.788 0 0-2.388 4.622-2.683 5.185l.109 1.648" transform="translate(-486 -3429) translate(488 3430) translate(37.433 49.816)"/>
                    <path stroke="#FFF" stroke-linecap="round" stroke-linejoin="round" stroke-width="1.875" d="M4.527 118.669s-.299-1.444-.09-2.16c.208-.717 1.366-6.272 1.366-6.272s-.025-.59 1.634-2.703c1.659-2.114 2.94-4.724 4.294-5.566 0 0 1.188.856.65 2.255-.537 1.4-3.182 5.56-3.182 5.56s-.327 3.593-.588 4.942c0 0 2.39 6.826 2.449 7.296l1.383 1.753" transform="translate(-486 -3429) translate(488 3430) translate(37.433 49.816)"/>
                    <path stroke="#FFF" stroke-linecap="round" stroke-linejoin="round" stroke-width="1.875" d="M12.224 117.567l-1.85-1.498s.074-.804-1.596-2.42M9.866 114.894L8.977 111.987" transform="translate(-486 -3429) translate(488 3430) translate(37.433 49.816)"/>
                    <path stroke="#FFF" stroke-linecap="round" stroke-linejoin="round" stroke-width="1.875" d="M10.822 107.136s1.744 3.414 1.708 4.438c-.037 1.025.098 2.357.407 3.091.308.735 2.618 8.509 2.729 9.252.11.743.063 2.476-.603 3.644 0 0-1.142 2.132-1.092 3.31.049 1.179 3.292 7.537 3.292 7.537s6.566 10.66 11.591 19.648M2.394 110.911S1.82 103.28 1.36 100.82c-.46-2.46-1.31-3.801.112-3.978 1.422-.176 1.917 2.119 1.917 2.119l.76.234" transform="translate(-486 -3429) translate(488 3430) translate(37.433 49.816)"/>
                    <path stroke="#D1A448" stroke-linecap="round" stroke-linejoin="round" stroke-width="1.875" d="M42.89 71.746c0 4.085-3.343 7.397-7.466 7.397s-7.466-3.312-7.466-7.397c0-4.085 3.343-7.396 7.466-7.396s7.465 3.311 7.465 7.396z" transform="translate(-486 -3429) translate(488 3430) translate(37.433 49.816)"/>
                    <path stroke="#D1A448" stroke-linecap="round" stroke-linejoin="round" stroke-width="1.875" d="M39.961 77.226L35.373 64.68 30.8 77.226 42.202 69.641 28.607 69.641z" transform="translate(-486 -3429) translate(488 3430) translate(37.433 49.816)"/>
                    <path stroke="#D1A448" stroke-linecap="round" stroke-linejoin="round" stroke-width="1.875" d="M27.07 71.737c0-4.572 3.74-8.277 8.353-8.277 4.615 0 8.355 3.705 8.355 8.277 0 4.571-3.74 8.277-8.355 8.277-4.614 0-8.354-3.706-8.354-8.277zM65.351 70.947c0 4.085-3.342 7.397-7.465 7.397-4.123 0-7.466-3.312-7.466-7.397 0-4.085 3.343-7.396 7.466-7.396s7.465 3.311 7.465 7.396z" transform="translate(-486 -3429) translate(488 3430) translate(37.433 49.816)"/>
                    <path stroke="#D1A448" stroke-linecap="round" stroke-linejoin="round" stroke-width="1.875" d="M62.423 76.427L57.835 63.881 53.262 76.427 64.664 68.842 51.07 68.842z" transform="translate(-486 -3429) translate(488 3430) translate(37.433 49.816)"/>
                    <path stroke="#D1A448" stroke-linecap="round" stroke-linejoin="round" stroke-width="1.875" d="M49.531 70.938c0-4.572 3.74-8.277 8.355-8.277 4.614 0 8.354 3.705 8.354 8.277 0 4.571-3.74 8.277-8.354 8.277-4.614 0-8.355-3.706-8.355-8.277zM88.283 71.615c0 4.085-3.342 7.397-7.466 7.397-4.123 0-7.465-3.312-7.465-7.397 0-4.085 3.342-7.396 7.465-7.396 4.124 0 7.466 3.311 7.466 7.396z" transform="translate(-486 -3429) translate(488 3430) translate(37.433 49.816)"/>
                    <path stroke="#D1A448" stroke-linecap="round" stroke-linejoin="round" stroke-width="1.875" d="M85.355 77.095L80.767 64.549 76.194 77.095 87.596 69.51 74.001 69.51z" transform="translate(-486 -3429) translate(488 3430) translate(37.433 49.816)"/>
                    <path stroke="#D1A448" stroke-linecap="round" stroke-linejoin="round" stroke-width="1.875" d="M72.463 71.606c0-4.571 3.74-8.277 8.354-8.277 4.614 0 8.355 3.706 8.355 8.277s-3.74 8.277-8.355 8.277c-4.613 0-8.354-3.706-8.354-8.277zM65.351 96.34c0 4.084-3.342 7.396-7.465 7.396-4.123 0-7.466-3.312-7.466-7.397 0-4.085 3.343-7.396 7.466-7.396s7.465 3.311 7.465 7.396z" transform="translate(-486 -3429) translate(488 3430) translate(37.433 49.816)"/>
                    <path stroke="#D1A448" stroke-linecap="round" stroke-linejoin="round" stroke-width="1.875" d="M62.423 101.819L57.835 89.273 53.262 101.819 64.664 94.234 51.07 94.234z" transform="translate(-486 -3429) translate(488 3430) translate(37.433 49.816)"/>
                    <path stroke="#D1A448" stroke-linecap="round" stroke-linejoin="round" stroke-width="1.875" d="M49.531 96.33c0-4.571 3.74-8.277 8.355-8.277 4.614 0 8.354 3.706 8.354 8.277s-3.74 8.277-8.354 8.277c-4.614 0-8.355-3.706-8.355-8.277zM88.283 96.34c0 4.084-3.342 7.396-7.466 7.396-4.123 0-7.465-3.312-7.465-7.397 0-4.085 3.342-7.396 7.465-7.396 4.124 0 7.466 3.311 7.466 7.396z" transform="translate(-486 -3429) translate(488 3430) translate(37.433 49.816)"/>
                    <path stroke="#D1A448" stroke-linecap="round" stroke-linejoin="round" stroke-width="1.875" d="M85.355 101.819L80.767 89.273 76.194 101.819 87.596 94.234 74.001 94.234z" transform="translate(-486 -3429) translate(488 3430) translate(37.433 49.816)"/>
                    <path stroke="#D1A448" stroke-linecap="round" stroke-linejoin="round" stroke-width="1.875" d="M72.463 96.33c0-4.571 3.74-8.277 8.354-8.277 4.614 0 8.355 3.706 8.355 8.277s-3.74 8.277-8.355 8.277c-4.613 0-8.354-3.706-8.354-8.277zM42.757 96.34c0 4.084-3.342 7.396-7.466 7.396-4.123 0-7.465-3.312-7.465-7.397 0-4.085 3.342-7.396 7.465-7.396 4.124 0 7.466 3.311 7.466 7.396z" transform="translate(-486 -3429) translate(488 3430) translate(37.433 49.816)"/>
                    <path stroke="#D1A448" stroke-linecap="round" stroke-linejoin="round" stroke-width="1.875" d="M39.829 101.819L35.241 89.273 30.668 101.819 42.07 94.234 28.475 94.234z" transform="translate(-486 -3429) translate(488 3430) translate(37.433 49.816)"/>
                    <path stroke="#D1A448" stroke-linecap="round" stroke-linejoin="round" stroke-width="1.875" d="M26.937 96.33c0-4.571 3.74-8.277 8.354-8.277 4.614 0 8.355 3.706 8.355 8.277s-3.74 8.277-8.355 8.277c-4.614 0-8.354-3.706-8.354-8.277zM53.548 47.225c0 4.086-3.342 7.397-7.465 7.397-4.123 0-7.466-3.311-7.466-7.397 0-4.085 3.343-7.396 7.466-7.396s7.465 3.311 7.465 7.396z" transform="translate(-486 -3429) translate(488 3430) translate(37.433 49.816)"/>
                    <path stroke="#D1A448" stroke-linecap="round" stroke-linejoin="round" stroke-width="1.875" d="M50.62 52.705L46.032 40.159 41.459 52.705 52.861 45.12 39.267 45.12z" transform="translate(-486 -3429) translate(488 3430) translate(37.433 49.816)"/>
                    <path stroke="#D1A448" stroke-linecap="round" stroke-linejoin="round" stroke-width="1.875" d="M37.728 47.216c0-4.571 3.74-8.277 8.355-8.277 4.614 0 8.354 3.706 8.354 8.277 0 4.572-3.74 8.277-8.354 8.277-4.614 0-8.355-3.705-8.355-8.277zM76.817 47.225c0 4.086-3.342 7.397-7.465 7.397-4.123 0-7.466-3.311-7.466-7.397 0-4.085 3.343-7.396 7.466-7.396s7.465 3.311 7.465 7.396z" transform="translate(-486 -3429) translate(488 3430) translate(37.433 49.816)"/>
                    <path stroke="#D1A448" stroke-linecap="round" stroke-linejoin="round" stroke-width="1.875" d="M73.889 52.705L69.301 40.159 64.728 52.705 76.13 45.12 62.535 45.12z" transform="translate(-486 -3429) translate(488 3430) translate(37.433 49.816)"/>
                    <path stroke="#D1A448" stroke-linecap="round" stroke-linejoin="round" stroke-width="1.875" d="M60.997 47.216c0-4.571 3.74-8.277 8.355-8.277 4.614 0 8.354 3.706 8.354 8.277 0 4.572-3.74 8.277-8.354 8.277-4.614 0-8.355-3.705-8.355-8.277zM54.157 120.83c0 4.086-3.343 7.397-7.466 7.397s-7.465-3.311-7.465-7.396 3.342-7.397 7.465-7.397c4.123 0 7.466 3.312 7.466 7.397z" transform="translate(-486 -3429) translate(488 3430) translate(37.433 49.816)"/>
                    <path stroke="#D1A448" stroke-linecap="round" stroke-linejoin="round" stroke-width="1.875" d="M51.229 126.31L46.641 113.764 42.068 126.31 53.469 118.726 39.875 118.726z" transform="translate(-486 -3429) translate(488 3430) translate(37.433 49.816)"/>
                    <path stroke="#D1A448" stroke-linecap="round" stroke-linejoin="round" stroke-width="1.875" d="M38.337 120.821c0-4.571 3.74-8.277 8.354-8.277 4.614 0 8.355 3.706 8.355 8.277 0 4.572-3.74 8.277-8.355 8.277-4.614 0-8.354-3.705-8.354-8.277zM77.426 120.83c0 4.086-3.343 7.397-7.466 7.397s-7.465-3.311-7.465-7.396 3.342-7.397 7.465-7.397c4.123 0 7.466 3.312 7.466 7.397z" transform="translate(-486 -3429) translate(488 3430) translate(37.433 49.816)"/>
                    <path stroke="#D1A448" stroke-linecap="round" stroke-linejoin="round" stroke-width="1.875" d="M74.498 126.31L69.91 113.764 65.336 126.31 76.738 118.726 63.144 118.726z" transform="translate(-486 -3429) translate(488 3430) translate(37.433 49.816)"/>
                    <path stroke="#D1A448" stroke-linecap="round" stroke-linejoin="round" stroke-width="1.875" d="M61.606 120.821c0-4.571 3.74-8.277 8.354-8.277 4.614 0 8.354 3.706 8.354 8.277 0 4.572-3.74 8.277-8.354 8.277-4.614 0-8.354-3.705-8.354-8.277z" transform="translate(-486 -3429) translate(488 3430) translate(37.433 49.816)"/>
                    <path stroke="#44E7D9" stroke-linecap="round" stroke-linejoin="round" stroke-width="1.875" d="M107.47 104.676s-.188-2.663-.26-4.712c-.074-2.049 1.32-3.093 1.802-3.23.482-.139.913-.003.7 1.287-.212 1.29 1.205 7.288 1.258 7.92.054.631.2.913.11 3.073-.09 2.16.061 4.251-.015 5.114-.075.862.309 3.081.309 3.081.234 1.033-.013 2.203-.013 2.203-.96 2.085-1.198 3.964-1.198 3.964l-2.257 8.405-2.026 7.628s-3.176 10.583-7.268 22.339" transform="translate(-486 -3429) translate(488 3430) translate(37.433 49.816)"/>
                    <path stroke="#44E7D9" stroke-linecap="round" stroke-linejoin="round" stroke-width="1.875" d="M110.316 118.287s-.242-4.652-.288-5.48c-.044-.828.667-2.648-.18-4.217-.848-1.57-4.324-6.787-4.583-7.23-.26-.444-1.626-2.9-2.133-2.173-.507.727-1.384 1.753.673 4.788 0 0 2.388 4.622 2.683 5.185l-.109 1.648" transform="translate(-486 -3429) translate(488 3430) translate(37.433 49.816)"/>
                    <path stroke="#44E7D9" stroke-linecap="round" stroke-linejoin="round" stroke-width="1.875" d="M108.953 121.457s.298-1.443.09-2.16c-.208-.717-1.366-6.272-1.366-6.272s.024-.59-1.635-2.703c-1.659-2.114-2.94-4.723-4.294-5.566 0 0-1.188.856-.65 2.256.537 1.399 3.183 5.56 3.183 5.56s.326 3.593.587 4.941c0 0-2.39 6.826-2.449 7.296l-1.383 1.753" transform="translate(-486 -3429) translate(488 3430) translate(37.433 49.816)"/>
                    <path stroke="#44E7D9" stroke-linecap="round" stroke-linejoin="round" stroke-width="1.875" d="M101.255 120.355l1.85-1.498s-.074-.804 1.596-2.42M103.614 117.682L104.502 114.775" transform="translate(-486 -3429) translate(488 3430) translate(37.433 49.816)"/>
                    <path stroke="#44E7D9" stroke-linecap="round" stroke-linejoin="round" stroke-width="1.875" d="M102.657 109.924s-1.744 3.414-1.707 4.438c.036 1.025-.099 2.357-.408 3.092-.308.734-2.618 8.508-2.728 9.251-.111.743-.064 2.477.602 3.645 0 0 1.142 2.131 1.093 3.31-.05 1.178-3.293 7.537-3.293 7.537s-6.566 10.66-11.591 19.648M111.085 113.7s.575-7.633 1.035-10.092c.46-2.46 1.31-3.802-.112-3.978-1.422-.177-1.917 2.118-1.917 2.118l-.76.234" transform="translate(-486 -3429) translate(488 3430) translate(37.433 49.816)"/>
                    <path stroke="#FFF" stroke-linecap="round" stroke-linejoin="round" stroke-width="1.875" d="M107.049 62.738s-.187 2.664-.26 4.713c-.073 2.048 1.32 3.092 1.803 3.23.482.138.913.002.7-1.287-.212-1.29 1.205-7.289 1.258-7.92.053-.632.2-.913.11-3.073-.09-2.16.061-4.252-.015-5.114-.075-.863.308-3.082.308-3.082.235-1.032-.012-2.202-.012-2.202-.96-2.086-1.198-3.964-1.198-3.964l-2.257-8.405-2.026-7.628s-3.176-10.584-7.268-22.34" transform="translate(-486 -3429) translate(488 3430) translate(37.433 49.816)"/>
                    <path stroke="#FFF" stroke-linecap="round" stroke-linejoin="round" stroke-width="1.875" d="M109.896 49.127s-.243 4.653-.288 5.48c-.044.829.667 2.649-.18 4.218-.849 1.569-4.324 6.787-4.584 7.23-.259.443-1.626 2.899-2.133 2.172-.506-.726-1.383-1.753.674-4.788 0 0 2.389-4.622 2.683-5.185l-.109-1.648" transform="translate(-486 -3429) translate(488 3430) translate(37.433 49.816)"/>
                    <path stroke="#FFF" stroke-linecap="round" stroke-linejoin="round" stroke-width="1.875" d="M108.533 45.957s.298 1.444.09 2.16c-.209.717-1.366 6.272-1.366 6.272s.024.59-1.635 2.703c-1.659 2.114-2.94 4.724-4.295 5.566 0 0-1.187-.856-.65-2.255.538-1.4 3.183-5.56 3.183-5.56s.327-3.593.588-4.942c0 0-2.39-6.826-2.449-7.296l-1.383-1.753" transform="translate(-486 -3429) translate(488 3430) translate(37.433 49.816)"/>
                    <path stroke="#FFF" stroke-linecap="round" stroke-linejoin="round" stroke-width="1.875" d="M100.835 47.06l1.85 1.497s-.074.804 1.596 2.42M103.193 49.732L104.082 52.639" transform="translate(-486 -3429) translate(488 3430) translate(37.433 49.816)"/>
                    <path stroke="#FFF" stroke-linecap="round" stroke-linejoin="round" stroke-width="1.875" d="M102.237 57.49s-1.744-3.414-1.708-4.438c.037-1.025-.098-2.357-.407-3.091-.308-.735-2.618-8.509-2.729-9.252-.11-.743-.064-2.476.603-3.644 0 0 1.142-2.132 1.092-3.31-.049-1.178-3.293-7.537-3.293-7.537S89.23 15.558 84.205 6.57M110.665 53.714s.575 7.633 1.035 10.093c.46 2.46 1.31 3.802-.112 3.978-1.422.176-1.917-2.119-1.917-2.119l-.76-.233" transform="translate(-486 -3429) translate(488 3430) translate(37.433 49.816)"/>
                    <path stroke="#44E7D9" stroke-linecap="round" stroke-linejoin="round" stroke-width="1.875" d="M5.59 59.95s.186 2.663.26 4.712c.073 2.049-1.32 3.093-1.803 3.23-.482.139-.913.003-.7-1.287.212-1.289-1.205-7.288-1.258-7.92-.053-.631-.2-.913-.11-3.073.09-2.16-.061-4.251.014-5.114.076-.862-.307-3.081-.307-3.081-.235-1.032.012-2.203.012-2.203.96-2.085 1.198-3.963 1.198-3.963l2.257-8.406 2.026-7.628s3.176-10.583 7.268-22.339" transform="translate(-486 -3429) translate(488 3430) translate(37.433 49.816)"/>
                    <path stroke="#44E7D9" stroke-linecap="round" stroke-linejoin="round" stroke-width="1.875" d="M2.743 46.339l.287 5.48c.045.829-.666 2.649.182 4.217.848 1.57 4.323 6.787 4.582 7.23.26.444 1.627 2.9 2.133 2.173.507-.727 1.384-1.753-.673-4.788 0 0-2.389-4.622-2.683-5.185l.109-1.648" transform="translate(-486 -3429) translate(488 3430) translate(37.433 49.816)"/>
                    <path stroke="#44E7D9" stroke-linecap="round" stroke-linejoin="round" stroke-width="1.875" d="M4.106 43.169s-.298 1.443-.09 2.16c.209.717 1.366 6.272 1.366 6.272s-.024.59 1.635 2.703c1.659 2.114 2.94 4.724 4.295 5.566 0 0 1.187-.856.65-2.256-.538-1.398-3.184-5.559-3.184-5.559s-.326-3.594-.587-4.942c0 0 2.39-6.826 2.449-7.296l1.383-1.753" transform="translate(-486 -3429) translate(488 3430) translate(37.433 49.816)"/>
                    <path stroke="#44E7D9" stroke-linecap="round" stroke-linejoin="round" stroke-width="1.875" d="M11.804 44.271l-1.85 1.498s.073.804-1.596 2.42M9.446 46.944L8.557 49.851" transform="translate(-486 -3429) translate(488 3430) translate(37.433 49.816)"/>
                    <path stroke="#44E7D9" stroke-linecap="round" stroke-linejoin="round" stroke-width="1.875" d="M10.402 54.702s1.744-3.414 1.707-4.438c-.036-1.025.099-2.357.408-3.092.308-.734 2.618-8.508 2.729-9.251.11-.743.063-2.476-.603-3.645 0 0-1.142-2.131-1.093-3.31.05-1.178 3.294-7.536 3.294-7.536s6.565-10.66 11.59-19.649M1.974 50.926S1.4 58.56.94 61.02c-.46 2.46-1.31 3.801.112 3.977 1.422.177 1.917-2.118 1.917-2.118l.76-.234" transform="translate(-486 -3429) translate(488 3430) translate(37.433 49.816)"/>
                    <path fill="#FFF" d="M43.885 147.007L43.625 145.838 42.48 145.405 43.66 145.257 43.987 144.013 44.246 145.292 45.392 145.506 44.211 145.763zM35.304 7.684L35.115 6.833 34.282 6.518 35.14 6.41 35.378 5.505 35.567 6.436 36.4 6.591 35.541 6.778zM39.039 31.113L38.894 30.455 38.25 30.212 38.913 30.129 39.097 29.43 39.243 30.148 39.887 30.269 39.223 30.413zM82.458 34.31L82.088 32.645 80.458 32.028 82.138 31.818 82.604 30.046 82.973 31.867 84.604 32.172 82.924 32.538zM58.785 142.804L58.596 141.954 57.763 141.639 58.622 141.531 58.86 140.626 59.048 141.557 59.882 141.712 59.023 141.899zM63.184 29.023L63.038 28.366 62.395 28.123 63.058 28.04 63.242 27.341 63.388 28.06 64.031 28.18 63.368 28.324zM45.24 13.863L45.094 13.205 44.451 12.962 45.114 12.879 45.298 12.18 45.443 12.898 46.087 13.019 45.424 13.163zM28.439 27.304L28.075 25.666 26.471 25.059 28.124 24.852 28.582 23.109 28.945 24.901 30.55 25.2 28.897 25.561zM48.721 28.429L48.152 25.869 45.646 24.921 48.229 24.598 48.945 21.874 49.512 24.674 52.019 25.142 49.436 25.705zM60.528 172.794L60.188 171.265 58.691 170.698 60.234 170.505 60.662 168.878 61 170.551 62.498 170.83 60.955 171.167zM73.39 6.397L73.216 5.616 72.451 5.327 73.239 5.228 73.458 4.397 73.631 5.251 74.396 5.394 73.608 5.567zM74.848 163.954L74.715 163.35 74.124 163.127 74.732 163.051 74.901 162.409 75.035 163.069 75.626 163.179 75.017 163.312zM79.616 141.633L79.347 140.423 78.162 139.974 79.383 139.822 79.721 138.535 79.99 139.858 81.175 140.079 79.954 140.345zM69.195 13.839L69.044 13.159 68.379 12.907 69.065 12.821 69.255 12.097 69.405 12.842 70.072 12.966 69.385 13.115zM51.131 4.469L50.749 2.746 49.062 2.108 50.801 1.89 51.283.057 51.665 1.942 53.352 2.257 51.613 2.636zM79.594 21.416L79.443 20.736 78.777 20.484 79.463 20.399 79.654 19.675 79.804 20.419 80.47 20.543 79.784 20.693zM56.246 18.475L55.894 16.886 54.338 16.297 55.941 16.097 56.386 14.406 56.738 16.144 58.294 16.435 56.691 16.784zM43.497 135.955L43.308 135.104 42.475 134.789 43.334 134.681 43.571 133.776 43.76 134.707 44.593 134.862 43.735 135.049zM47.233 159.384L47.087 158.726 46.444 158.483 47.107 158.4 47.29 157.701 47.436 158.419 48.08 158.54 47.417 158.684zM82.506 154.287L82.36 153.63 81.717 153.387 82.38 153.304 82.564 152.605 82.709 153.324 83.353 153.444 82.69 153.588zM30.502 137.122L30.356 136.465 29.713 136.222 30.376 136.139 30.559 135.439 30.705 136.158 31.348 136.278 30.685 136.423zM36.632 155.575L36.268 153.937 34.664 153.33 36.317 153.123 36.776 151.38 37.139 153.172 38.744 153.471 37.09 153.832zM56.914 156.7L56.346 154.141 53.84 153.192 56.422 152.869 57.138 150.145 57.706 152.945 60.213 153.413 57.63 153.976zM90.014 135.671L89.84 134.89 89.075 134.6 89.864 134.502 90.082 133.671 90.255 134.525 91.02 134.668 90.232 134.84zM59.325 132.74L58.942 131.017 57.255 130.379 58.994 130.161 59.476 128.328 59.858 130.213 61.546 130.528 59.807 130.907zM69.161 148.082L68.808 146.494 67.253 145.905 68.856 145.704 69.3 144.014 69.652 145.752 71.208 146.042 69.605 146.391z" transform="translate(-486 -3429) translate(488 3430) translate(37.433 49.816)"/>
                </g>
            </g>
        </g>
    </g>
</svg>
