<svg xmlns="http://www.w3.org/2000/svg" width="191" height="267" viewBox="0 0 191 267"><title>Рыцарь Жезлов</title>
    <g fill="none" fill-rule="evenodd">
        <g>
            <g>
                <g>
                    <path fill="#2a1612" stroke="#FFF" stroke-linecap="round" stroke-linejoin="round" stroke-width="2.5" d="M177.475 262.744H9.604c-5.21 0-9.435-4.185-9.435-9.348V9.348C.169 4.185 4.393 0 9.604 0h167.871c5.211 0 9.436 4.185 9.436 9.348v244.048c0 5.163-4.225 9.348-9.436 9.348z" transform="translate(-1070 -4980) translate(1072 4982) translate(0 .167)"/>
                    <path stroke="#FFF" stroke-linecap="round" stroke-linejoin="round" stroke-width="1.875" d="M93.39 125.924s-14.945-9.71-16.538-11.287c-1.592-1.577-3.062-17.961-3.062-17.961l2.695 3.64 16.904-3.155M93.448 125.895s14.945-9.71 16.537-11.286c1.592-1.578 3.063-17.962 3.063-17.962l-2.695 3.64-16.905-3.155" transform="translate(-1070 -4980) translate(1072 4982) translate(0 .167)"/>
                    <path stroke="#FFF" stroke-linecap="round" stroke-linejoin="round" stroke-width="1.875" d="M81.017 102.411L85.059 101.53 85.059 116.701 81.017 114.276zM87.509 101.008L91.491 100.318 91.491 120.827 87.509 118.372zM77.036 103.596L78.69 102.99 78.69 112.938 77.526 111.756zM105.79 102.463L101.747 101.583 101.747 116.753 105.79 114.329zM99.297 101.061L95.316 100.37 95.316 120.879 99.297 118.425zM109.771 103.648L108.117 103.043 108.117 112.991 109.281 111.809zM81.515 99.377L81.515 96.19 93.389 93.884M105.333 99.345L105.333 96.158 93.458 93.852M74.55 97.702s2.03-13.446 11-17.654c8.325-3.905 7.663-7.13 7.84-7.524" transform="translate(-1070 -4980) translate(1072 4982) translate(0 .167)"/>
                    <path stroke="#FFF" stroke-linecap="round" stroke-linejoin="round" stroke-width="1.875" d="M112.258 97.754s-2.032-13.446-11-17.653c-8.326-3.905-7.664-7.13-7.84-7.524v9.595s1.013 4.006 5.79 2.549c0 0 3.675 3.762 9.065 2.67M93.354 82.15s-1.013 4.005-5.79 2.549c0 0-3.675 3.762-9.065 2.67" transform="translate(-1070 -4980) translate(1072 4982) translate(0 .167)"/>
                    <path fill="#FFF" d="M92.777 88.12c0 .301.247.546.551.546.305 0 .552-.245.552-.547 0-.301-.247-.546-.552-.546-.304 0-.551.245-.551.546M87.02 89.212c0 .301.246.546.55.546.305 0 .552-.245.552-.546 0-.302-.247-.547-.551-.547-.305 0-.551.245-.551.547M81.262 90.304c0 .301.247.546.551.546.305 0 .552-.245.552-.546 0-.302-.247-.546-.552-.546-.304 0-.55.244-.55.546M99.882 89.212c0 .301-.247.546-.551.546-.305 0-.552-.245-.552-.546 0-.302.247-.547.552-.547.304 0 .55.245.55.547M105.64 90.304c0 .301-.248.546-.552.546-.305 0-.551-.245-.551-.546 0-.302.246-.546.55-.546.305 0 .552.244.552.546" transform="translate(-1070 -4980) translate(1072 4982) translate(0 .167)"/>
                    <path stroke="#FFF" stroke-linecap="round" stroke-linejoin="round" stroke-width="1.875" d="M79.246 116.461s-.189 6.914-6.436 8.492c0 0 8.269 8.314 20.518 8.314M107.737 116.384s.189 6.914 6.436 8.492c0 0-8.269 8.313-20.518 8.313" transform="translate(-1070 -4980) translate(1072 4982) translate(0 .167)"/>
                    <path stroke="#44E7D9" stroke-linecap="round" stroke-linejoin="round" stroke-width="1.875" d="M89.63 77.63s-11.181-7.135-7.77-16.336c0 0 .853-1.783 1.8-2.534 0 0-.947 2.628 1.327 7.135 0 0-2.653-10.703 8.529-14.834 0 0 3.98-1.127 8.339 1.127 4.359 2.253 8.528 7.698 16.299 9.388 0 0-2.843 1.127-5.875 0 0 0 4.169 11.642 8.149 12.393 3.98.75 4.17-3.756 2.653-6.384 0 0 3.222 3.943 1.327 9.951-1.895 6.009-9.097 3.005-10.613 2.066-1.516-.94-3.033-1.878-3.033-1.878s.758 1.878 1.896 2.441c0 0-2.085.376-4.928-2.817-2.843-3.191-3.98-6.76-7.012-5.445-3.033 1.315-2.654 3.192-2.654 3.192s2.464-1.126 4.17-1.126c0 0-3.222 2.44-3.79 4.13" transform="translate(-1070 -4980) translate(1072 4982) translate(0 .167)"/>
                </g>
                <path fill="#44E7D9" fill-rule="nonzero" d="M55.324 251.187V240.39h-.81v10.796h.81zm4.442 0l-2.464-5.382 2.35-5.414h-.891l-2.35 5.446 2.447 5.35h.908zm2.334 0v-6.128l-.03-3.007-.001-.2-.001-.067c.4 1.037 1.632 4.171 3.696 9.402h1.07V240.39h-.81v6.16l.032 3.274-.053-.137c-.281-.73-1.496-3.83-3.643-9.297h-1.054v10.796h.794zm7.976 0V240.39h-.81v10.796h.81zm4.92.08c.848 0 1.629-.21 2.342-.632v-4.62h-.81v4.134c-.368.26-.935.39-1.703.39-1.113 0-1.67-.487-1.67-1.46v-6.484c0-1.027.644-1.54 1.93-1.54.67 0 1.324.103 1.961.308v-.794c-.605-.173-1.232-.26-1.88-.26-1.88 0-2.82.762-2.82 2.286v6.484c0 .768.229 1.324.688 1.67.46.346 1.113.519 1.962.519zm5.503-.08v-4.928h3.793v4.928h.827V240.39h-.827v5.138H80.5v-5.138h-.81v10.796h.81zm8.948 0V241.12h2.14v-.73h-5.09v.73h2.14v10.067h.81zm9.013.162c.854 0 1.497-.23 1.929-.69.432-.459.648-1.056.648-1.79v-6.16c0-.735-.216-1.332-.648-1.792-.432-.459-1.075-.689-1.929-.689-.854 0-1.497.23-1.93.69-.431.459-.647 1.056-.647 1.79v6.16c0 .735.216 1.332.648 1.792.432.459 1.075.689 1.929.689zm0-.73c-1.178 0-1.767-.583-1.767-1.75v-6.16c0-1.168.589-1.751 1.767-1.751s1.767.583 1.767 1.75v6.16c0 1.168-.59 1.751-1.767 1.751zm5.657.568v-4.912h3.372v-.73h-3.372v-4.425h3.518v-.73h-4.328v10.797h.81zm8.948 0v-4.912h3.372v-.73h-3.372v-4.425h3.518v-.73h-4.328v10.797h.81zm5.868 0V240.39h-.81v10.796h.81zm3.243 0v-4.458l1.73-.002c.097-.002.173-.007.231-.014l1.605 4.474h.891l-1.702-4.653c.93-.346 1.394-1.091 1.394-2.237v-1.475c0-.735-.216-1.324-.648-1.767-.432-.443-1.075-.664-1.93-.664h-2.382v10.796h.81zm1.572-5.22h-1.572v-4.847h1.572c1.178 0 1.767.567 1.767 1.702v1.475c0 1.113-.59 1.67-1.767 1.67zm9.386 5.22v-.73h-3.664v-4.344h3.194v-.73h-3.194v-4.263h3.664v-.73h-4.474v10.797h4.474z" transform="translate(-1070 -4980) translate(1072 4982)"/>
                <g>
                    <path stroke="#FFF" stroke-linecap="round" stroke-linejoin="round" stroke-width="1.875" d="M16.15 3.831L163.987 3.831 163.987 224.524M153.937 237.346L131.425 237.346M5.775 14.662L5.775 237.346 37.844 237.346" transform="translate(-1070 -4980) translate(1072 4982) translate(8.43 10.859)"/>
                    <path fill="#000" d="M164.149 240.249L161.531 235.756 158.913 231.264 164.149 231.264 169.384 231.264 166.766 235.756z" transform="translate(-1070 -4980) translate(1072 4982) translate(8.43 10.859)"/>
                    <path stroke="#D1A448" stroke-linecap="round" stroke-linejoin="round" stroke-width="1.875" d="M164.149 240.249L161.531 235.756 158.913 231.264 164.149 231.264 169.384 231.264 166.766 235.756z" transform="translate(-1070 -4980) translate(1072 4982) translate(8.43 10.859)"/>
                    <path fill="#000" d="M5.563 0.025L8.18 4.517 10.798 9.009 5.563 9.009 0.327 9.009 2.945 4.517z" transform="translate(-1070 -4980) translate(1072 4982) translate(8.43 10.859)"/>
                    <path stroke="#D1A448" stroke-linecap="round" stroke-linejoin="round" stroke-width="1.875" d="M5.563 0.025L8.18 4.517 10.798 9.009 5.563 9.009 0.327 9.009 2.945 4.517z" transform="translate(-1070 -4980) translate(1072 4982) translate(8.43 10.859)"/>
                    <path fill="#000" d="M60.77 142.893c.549-.452 1.484.802 1.484.802 29.605 34.47 52.654 64.996 52.654 64.996s.027 2.936-2.753 2.111" transform="translate(-1070 -4980) translate(1072 4982) translate(8.43 10.859)"/>
                    <path stroke="#FFF" stroke-linecap="round" stroke-linejoin="round" stroke-width="1.875" d="M60.77 142.893c.549-.452 1.484.802 1.484.802 29.605 34.47 52.654 64.996 52.654 64.996s.027 2.936-2.753 2.111" transform="translate(-1070 -4980) translate(1072 4982) translate(8.43 10.859)"/>
                    <path fill="#000" d="M60.805 142.874c-.598.39.404 1.595.404 1.595 26.522 36.734 50.855 66.318 50.855 66.318s2.924.807 2.843-1.998" transform="translate(-1070 -4980) translate(1072 4982) translate(8.43 10.859)"/>
                    <path stroke="#FFF" stroke-linecap="round" stroke-linejoin="round" stroke-width="1.875" d="M60.805 142.874c-.598.39.404 1.595.404 1.595 26.522 36.734 50.855 66.318 50.855 66.318s2.924.807 2.843-1.998" transform="translate(-1070 -4980) translate(1072 4982) translate(8.43 10.859)"/>
                    <path fill="#000" d="M70.409 153.275s1.665 2.539.604 4.596" transform="translate(-1070 -4980) translate(1072 4982) translate(8.43 10.859)"/>
                    <path stroke="#FFF" stroke-linecap="round" stroke-linejoin="round" stroke-width="1.875" d="M70.409 153.275s1.665 2.539.604 4.596" transform="translate(-1070 -4980) translate(1072 4982) translate(8.43 10.859)"/>
                    <path fill="#000" d="M75.21 159.009s2.526 4.549 1.981 7.14" transform="translate(-1070 -4980) translate(1072 4982) translate(8.43 10.859)"/>
                    <path stroke="#FFF" stroke-linecap="round" stroke-linejoin="round" stroke-width="1.875" d="M75.21 159.009s2.526 4.549 1.981 7.14" transform="translate(-1070 -4980) translate(1072 4982) translate(8.43 10.859)"/>
                    <path fill="#000" d="M78.022 162.391s2.37 4.117 1.45 6.783" transform="translate(-1070 -4980) translate(1072 4982) translate(8.43 10.859)"/>
                    <path stroke="#FFF" stroke-linecap="round" stroke-linejoin="round" stroke-width="1.875" d="M78.022 162.391s2.37 4.117 1.45 6.783" transform="translate(-1070 -4980) translate(1072 4982) translate(8.43 10.859)"/>
                    <path fill="#000" d="M83.446 168.972s1.67 3.416.344 5.89" transform="translate(-1070 -4980) translate(1072 4982) translate(8.43 10.859)"/>
                    <path stroke="#FFF" stroke-linecap="round" stroke-linejoin="round" stroke-width="1.875" d="M83.446 168.972s1.67 3.416.344 5.89" transform="translate(-1070 -4980) translate(1072 4982) translate(8.43 10.859)"/>
                    <path fill="#000" d="M85.267 171.198s1.646 3.172.211 5.873" transform="translate(-1070 -4980) translate(1072 4982) translate(8.43 10.859)"/>
                    <path stroke="#FFF" stroke-linecap="round" stroke-linejoin="round" stroke-width="1.875" d="M85.267 171.198s1.646 3.172.211 5.873" transform="translate(-1070 -4980) translate(1072 4982) translate(8.43 10.859)"/>
                    <path fill="#000" d="M91.619 179.029s2.023 3.963.416 6.575" transform="translate(-1070 -4980) translate(1072 4982) translate(8.43 10.859)"/>
                    <path stroke="#FFF" stroke-linecap="round" stroke-linejoin="round" stroke-width="1.875" d="M91.619 179.029s2.023 3.963.416 6.575" transform="translate(-1070 -4980) translate(1072 4982) translate(8.43 10.859)"/>
                    <path fill="#000" d="M95.75 184.177s1.667 3.201.592 6.92" transform="translate(-1070 -4980) translate(1072 4982) translate(8.43 10.859)"/>
                    <path stroke="#FFF" stroke-linecap="round" stroke-linejoin="round" stroke-width="1.875" d="M95.75 184.177s1.667 3.201.592 6.92" transform="translate(-1070 -4980) translate(1072 4982) translate(8.43 10.859)"/>
                    <path fill="#000" d="M97.533 186.413s1.26 3.346-.056 6.13" transform="translate(-1070 -4980) translate(1072 4982) translate(8.43 10.859)"/>
                    <path stroke="#FFF" stroke-linecap="round" stroke-linejoin="round" stroke-width="1.875" d="M97.533 186.413s1.26 3.346-.056 6.13" transform="translate(-1070 -4980) translate(1072 4982) translate(8.43 10.859)"/>
                    <path fill="#000" d="M101.256 191.107s2.636 3.829 1.37 7.955" transform="translate(-1070 -4980) translate(1072 4982) translate(8.43 10.859)"/>
                    <path stroke="#FFF" stroke-linecap="round" stroke-linejoin="round" stroke-width="1.875" d="M101.256 191.107s2.636 3.829 1.37 7.955" transform="translate(-1070 -4980) translate(1072 4982) translate(8.43 10.859)"/>
                    <path fill="#000" d="M105.564 196.561s1.454 2.035 1.114 7.575" transform="translate(-1070 -4980) translate(1072 4982) translate(8.43 10.859)"/>
                    <path stroke="#FFF" stroke-linecap="round" stroke-linejoin="round" stroke-width="1.875" d="M105.564 196.561s1.454 2.035 1.114 7.575" transform="translate(-1070 -4980) translate(1072 4982) translate(8.43 10.859)"/>
                    <path fill="#000" d="M104.14 194.771s1.718 3.917.902 7.322" transform="translate(-1070 -4980) translate(1072 4982) translate(8.43 10.859)"/>
                    <path stroke="#FFF" stroke-linecap="round" stroke-linejoin="round" stroke-width="1.875" d="M104.14 194.771s1.718 3.917.902 7.322" transform="translate(-1070 -4980) translate(1072 4982) translate(8.43 10.859)"/>
                    <path fill="#000" d="M109.58 201.747s2.243 2.483.985 7.252" transform="translate(-1070 -4980) translate(1072 4982) translate(8.43 10.859)"/>
                    <path stroke="#FFF" stroke-linecap="round" stroke-linejoin="round" stroke-width="1.875" d="M109.58 201.747s2.243 2.483.985 7.252" transform="translate(-1070 -4980) translate(1072 4982) translate(8.43 10.859)"/>
                    <path fill="#000" d="M110.369 142.893c-.549-.452-1.485.802-1.485.802C79.28 178.165 56.23 208.69 56.23 208.69s-.026 2.936 2.754 2.111" transform="translate(-1070 -4980) translate(1072 4982) translate(8.43 10.859)"/>
                    <path stroke="#FFF" stroke-linecap="round" stroke-linejoin="round" stroke-width="1.875" d="M110.369 142.893c-.549-.452-1.485.802-1.485.802C79.28 178.165 56.23 208.69 56.23 208.69s-.026 2.936 2.754 2.111" transform="translate(-1070 -4980) translate(1072 4982) translate(8.43 10.859)"/>
                    <path fill="#000" d="M110.334 142.874c.598.39-.404 1.595-.404 1.595-26.522 36.734-50.855 66.318-50.855 66.318s-2.925.807-2.843-1.998" transform="translate(-1070 -4980) translate(1072 4982) translate(8.43 10.859)"/>
                    <path stroke="#FFF" stroke-linecap="round" stroke-linejoin="round" stroke-width="1.875" d="M110.334 142.874c.598.39-.404 1.595-.404 1.595-26.522 36.734-50.855 66.318-50.855 66.318s-2.925.807-2.843-1.998" transform="translate(-1070 -4980) translate(1072 4982) translate(8.43 10.859)"/>
                    <path fill="#000" d="M100.73 153.275s-1.665 2.539-.604 4.596" transform="translate(-1070 -4980) translate(1072 4982) translate(8.43 10.859)"/>
                    <path stroke="#FFF" stroke-linecap="round" stroke-linejoin="round" stroke-width="1.875" d="M100.73 153.275s-1.665 2.539-.604 4.596" transform="translate(-1070 -4980) translate(1072 4982) translate(8.43 10.859)"/>
                    <path fill="#000" d="M95.929 159.009s-2.526 4.549-1.981 7.14" transform="translate(-1070 -4980) translate(1072 4982) translate(8.43 10.859)"/>
                    <path stroke="#FFF" stroke-linecap="round" stroke-linejoin="round" stroke-width="1.875" d="M95.929 159.009s-2.526 4.549-1.981 7.14" transform="translate(-1070 -4980) translate(1072 4982) translate(8.43 10.859)"/>
                    <path fill="#000" d="M93.117 162.391s-2.37 4.117-1.45 6.783" transform="translate(-1070 -4980) translate(1072 4982) translate(8.43 10.859)"/>
                    <path stroke="#FFF" stroke-linecap="round" stroke-linejoin="round" stroke-width="1.875" d="M93.117 162.391s-2.37 4.117-1.45 6.783" transform="translate(-1070 -4980) translate(1072 4982) translate(8.43 10.859)"/>
                    <path fill="#000" d="M87.693 168.972s-1.67 3.416-.344 5.89" transform="translate(-1070 -4980) translate(1072 4982) translate(8.43 10.859)"/>
                    <path stroke="#FFF" stroke-linecap="round" stroke-linejoin="round" stroke-width="1.875" d="M87.693 168.972s-1.67 3.416-.344 5.89" transform="translate(-1070 -4980) translate(1072 4982) translate(8.43 10.859)"/>
                    <path fill="#000" d="M85.872 171.198s-1.646 3.172-.212 5.873" transform="translate(-1070 -4980) translate(1072 4982) translate(8.43 10.859)"/>
                    <path stroke="#FFF" stroke-linecap="round" stroke-linejoin="round" stroke-width="1.875" d="M85.872 171.198s-1.646 3.172-.212 5.873" transform="translate(-1070 -4980) translate(1072 4982) translate(8.43 10.859)"/>
                    <path fill="#000" d="M79.52 179.029s-2.023 3.963-.416 6.575" transform="translate(-1070 -4980) translate(1072 4982) translate(8.43 10.859)"/>
                    <path stroke="#FFF" stroke-linecap="round" stroke-linejoin="round" stroke-width="1.875" d="M79.52 179.029s-2.023 3.963-.416 6.575" transform="translate(-1070 -4980) translate(1072 4982) translate(8.43 10.859)"/>
                    <path fill="#000" d="M75.39 184.177s-1.668 3.201-.594 6.92" transform="translate(-1070 -4980) translate(1072 4982) translate(8.43 10.859)"/>
                    <path stroke="#FFF" stroke-linecap="round" stroke-linejoin="round" stroke-width="1.875" d="M75.39 184.177s-1.668 3.201-.594 6.92" transform="translate(-1070 -4980) translate(1072 4982) translate(8.43 10.859)"/>
                    <path fill="#000" d="M73.606 186.413s-1.26 3.346.056 6.13" transform="translate(-1070 -4980) translate(1072 4982) translate(8.43 10.859)"/>
                    <path stroke="#FFF" stroke-linecap="round" stroke-linejoin="round" stroke-width="1.875" d="M73.606 186.413s-1.26 3.346.056 6.13" transform="translate(-1070 -4980) translate(1072 4982) translate(8.43 10.859)"/>
                    <path fill="#000" d="M69.883 191.107s-2.637 3.829-1.37 7.955" transform="translate(-1070 -4980) translate(1072 4982) translate(8.43 10.859)"/>
                    <path stroke="#FFF" stroke-linecap="round" stroke-linejoin="round" stroke-width="1.875" d="M69.883 191.107s-2.637 3.829-1.37 7.955" transform="translate(-1070 -4980) translate(1072 4982) translate(8.43 10.859)"/>
                    <path fill="#000" d="M65.575 196.561s-1.455 2.035-1.114 7.575" transform="translate(-1070 -4980) translate(1072 4982) translate(8.43 10.859)"/>
                    <path stroke="#FFF" stroke-linecap="round" stroke-linejoin="round" stroke-width="1.875" d="M65.575 196.561s-1.455 2.035-1.114 7.575" transform="translate(-1070 -4980) translate(1072 4982) translate(8.43 10.859)"/>
                    <path fill="#000" d="M66.998 194.771s-1.717 3.917-.901 7.322" transform="translate(-1070 -4980) translate(1072 4982) translate(8.43 10.859)"/>
                    <path stroke="#FFF" stroke-linecap="round" stroke-linejoin="round" stroke-width="1.875" d="M66.998 194.771s-1.717 3.917-.901 7.322" transform="translate(-1070 -4980) translate(1072 4982) translate(8.43 10.859)"/>
                    <path fill="#000" d="M61.559 201.747s-2.243 2.483-.985 7.252" transform="translate(-1070 -4980) translate(1072 4982) translate(8.43 10.859)"/>
                    <path stroke="#FFF" stroke-linecap="round" stroke-linejoin="round" stroke-width="1.875" d="M61.559 201.747s-2.243 2.483-.985 7.252" transform="translate(-1070 -4980) translate(1072 4982) translate(8.43 10.859)"/>
                    <path stroke="#D1A448" stroke-linecap="round" stroke-linejoin="round" stroke-width="1.25" d="M85.313 156.312s-4.548-.563-2.463-5.632c0 0 .379-.75 1.895-3.004 1.516-2.253 1.326-3.755 1.326-3.755s3.6 4.318 3.412 8.261c-.19 3.943-2.464 3.943-4.17 4.13z" transform="translate(-1070 -4980) translate(1072 4982) translate(8.43 10.859)"/>
                    <path stroke="#D1A448" stroke-linecap="round" stroke-linejoin="round" stroke-width="1.25" d="M84.94 156.206s-2.28-.647-.805-3.77c0 0 .254-.458 1.21-1.808.957-1.351.98-2.327.98-2.327s1.493 2.998 1.078 5.517c-.414 2.519-1.577 2.375-2.463 2.388z" transform="translate(-1070 -4980) translate(1072 4982) translate(8.43 10.859)"/>
                    <path stroke="#D1A448" stroke-linecap="round" stroke-linejoin="round" stroke-width="1.25" d="M84.934 156.312s-5.874-.75-5.685-8.073c0 0 .38-3.567 3.032-6.57 0 0-.758 2.252-.758 3.566 0 0 1.895-2.816 2.843-5.82.947-3.004.19-5.257.19-5.257s6.821 5.445 7.2 13.706c-.017.034-.09 4.683-2.842 7.51 0 0-2.084 1.502-3.98.938zM86.193 194.473s4.548.564 2.463 5.632c0 0-.379.751-1.895 3.005-1.516 2.252-1.326 3.755-1.326 3.755s-3.601-4.319-3.412-8.262c.19-3.942 2.464-3.942 4.17-4.13z" transform="translate(-1070 -4980) translate(1072 4982) translate(8.43 10.859)"/>
                    <path stroke="#D1A448" stroke-linecap="round" stroke-linejoin="round" stroke-width="1.25" d="M86.566 194.579s2.28.648.805 3.77c0 0-.254.459-1.21 1.81-.957 1.35-.98 2.326-.98 2.326s-1.493-2.999-1.078-5.518c.414-2.518 1.577-2.375 2.463-2.388z" transform="translate(-1070 -4980) translate(1072 4982) translate(8.43 10.859)"/>
                    <path stroke="#D1A448" stroke-linecap="round" stroke-linejoin="round" stroke-width="1.25" d="M86.572 194.473s5.874.751 5.685 8.073c0 0-.38 3.568-3.032 6.572 0 0 .758-2.253.758-3.568 0 0-1.895 2.816-2.843 5.82-.947 3.004-.19 5.258-.19 5.258s-6.821-5.445-7.2-13.706c.017-.034.09-4.683 2.842-7.51 0 0 2.084-1.502 3.98-.94z" transform="translate(-1070 -4980) translate(1072 4982) translate(8.43 10.859)"/>
                    <path fill="#44E7D9" d="M135.349 146.384L134.771 143.778 132.219 142.812 134.849 142.483 135.577 139.71 136.155 142.561 138.708 143.037 136.078 143.61zM152.282 120.472L151.925 118.865 150.352 118.27 151.973 118.067 152.422 116.357 152.779 118.114 154.353 118.409 152.731 118.762zM127.117 117.703L126.346 114.229 122.945 112.942 126.45 112.504 127.421 108.808 128.192 112.607 131.594 113.243 128.088 114.007zM145.665 69.257L145.308 67.65 143.735 67.055 145.356 66.852 145.805 65.143 146.162 66.9 147.736 67.194 146.114 67.547zM128.457 79.028c-.132-.311.015-.67.33-.8.313-.13.674.015.807.326.132.312-.016.67-.33.8-.314.131-.675-.015-.807-.326M122.672 131.394c-.073-.173.009-.371.183-.444.175-.073.375.008.449.181.073.173-.009.372-.183.444-.175.073-.376-.008-.449-.18M138.125 205.633L137.547 203.027 134.995 202.061 137.625 201.732 138.354 198.959 138.932 201.81 141.484 202.286 138.854 202.86zM143.72 173.611L142.949 170.138 139.548 168.85 143.053 168.412 144.024 164.716 144.795 168.516 148.197 169.151 144.691 169.915zM146.408 87.159c-.132-.311.016-.67.33-.8s.675.015.807.326-.015.67-.33.8c-.313.131-.675-.015-.807-.326M125.448 190.644c-.073-.173.009-.372.184-.445.174-.073.375.009.448.182.073.172-.008.371-.183.444-.174.073-.375-.008-.449-.181M126.383 35.623L125.753 32.783 122.973 31.731 125.838 31.373 126.632 28.351 127.262 31.457 130.043 31.977 127.177 32.601zM124.471 45.521c0 .338-.276.611-.616.611-.34 0-.617-.273-.617-.61 0-.338.276-.612.617-.612.34 0 .616.274.616.611M148.041 48.145L147.565 46.004 145.469 45.211 147.63 44.941 148.228 42.663 148.703 45.005 150.8 45.396 148.639 45.867zM28.34 75.573L28.918 78.179 31.47 79.145 28.84 79.474 28.111 82.247 27.533 79.396 24.981 78.92 27.611 78.346zM19.838 115.518L20.194 117.124 21.767 117.72 20.146 117.922 19.697 119.632 19.341 117.875 17.767 117.581 19.388 117.227zM45.002 118.287L45.773 121.76 49.174 123.047 45.669 123.485 44.698 127.181 43.928 123.382 40.525 122.747 44.031 121.983zM26.454 166.732L26.811 168.339 28.384 168.934 26.763 169.137 26.314 170.846 25.957 169.089 24.384 168.795 26.005 168.442zM43.663 156.961c.132.311-.016.67-.33.8-.314.131-.675-.015-.807-.326s.015-.67.329-.8.675.015.808.326M50.219 104.043c.16.375-.019.807-.398.965-.378.158-.815-.018-.974-.393-.16-.376.019-.808.397-.966.38-.158.815.018.975.394M33.994 23.674L34.573 26.28 37.124 27.246 34.494 27.575 33.766 30.348 33.188 27.497 30.635 27.02 33.265 26.447zM53.997 61.247L54.37 62.929 56.017 63.553 54.32 63.765 53.849 65.555 53.476 63.715 51.828 63.407 53.526 63.037zM25.711 148.83c.132.311-.015.67-.33.8-.313.13-.675-.015-.807-.326s.015-.67.33-.8c.313-.13.675.015.807.326M46.67 45.345c.074.173-.008.372-.182.445-.175.073-.375-.008-.449-.181-.073-.173.009-.372.183-.445.175-.073.375.009.449.181M45.736 200.366L46.366 203.206 49.146 204.258 46.281 204.616 45.487 207.638 44.858 204.532 42.076 204.013 44.942 203.388zM47.648 190.468c0-.338.276-.61.617-.61.34 0 .616.272.616.61 0 .338-.276.61-.616.61-.34 0-.617-.272-.617-.61M24.079 187.845L24.554 189.985 26.65 190.779 24.49 191.049 23.891 193.327 23.416 190.985 21.319 190.594 23.48 190.123zM63.75 32.66L64.52 36.133 67.921 37.421 64.417 37.859 63.445 41.555 62.675 37.755 59.273 37.12 62.778 36.356zM71.567 18.634c.073.173-.009.372-.183.445-.175.073-.376-.009-.449-.182-.073-.172.009-.371.183-.444.175-.073.375.008.449.181M63.692 171.971L64.065 173.653 65.713 174.276 64.015 174.488 63.545 176.279 63.172 174.439 61.524 174.131 63.222 173.761zM110.365 177.434L110.739 179.116 112.386 179.739 110.688 179.952 110.218 181.742 109.845 179.902 108.197 179.594 109.895 179.224zM21.934 61.722c-.2-.472.023-1.017.5-1.216.477-.198 1.027.024 1.228.496.2.473-.023 1.018-.5 1.216-.478.2-1.028-.023-1.228-.496M97.37 32.434c-.2-.473.024-1.018.5-1.217.478-.198 1.028.024 1.228.497.201.472-.023 1.017-.5 1.215-.477.2-1.027-.023-1.228-.495" transform="translate(-1070 -4980) translate(1072 4982) translate(8.43 10.859)"/>
                </g>
            </g>
        </g>
    </g>
</svg>
