<svg xmlns="http://www.w3.org/2000/svg" width="191" height="270" viewBox="0 0 191 270"><title>Король Кубков</title>
    <g fill="none" fill-rule="evenodd">
        <g>
            <g>
                <path fill="#152230" stroke="#FFF" stroke-linecap="round" stroke-linejoin="round" stroke-width="2.5" d="M177.795 265.846H9.62c-5.22 0-9.452-4.232-9.452-9.452V9.621C.17 4.401 4.401.17 9.621.17h168.174c5.22 0 9.452 4.232 9.452 9.452v246.773c0 5.22-4.232 9.452-9.452 9.452z" transform="translate(-486 -2241) translate(488 2243)"/>
                <path fill="#D1A448" fill-rule="nonzero" d="M55.505 253.904v-10.816h-.812v10.816h.812zm4.45 0l-2.468-5.392 2.354-5.424h-.893l-2.355 5.457 2.453 5.359h.909zm2.355 0v-10.816h-.812v10.816h.812zm3.231 0v-6.139l-.03-3.13-.002-.15c.4 1.039 1.635 4.179 3.702 9.419h1.072v-10.816h-.812v6.171l.033 3.28c-.13-.346-1.364-3.496-3.703-9.45h-1.055v10.815h.795zm9.67.08c.85 0 1.633-.21 2.347-.633v-4.628h-.811v4.141c-.369.26-.937.39-1.706.39-1.115 0-1.672-.487-1.672-1.462v-6.495c0-1.029.644-1.543 1.932-1.543.671 0 1.326.103 1.965.308v-.795c-.606-.173-1.234-.26-1.884-.26-1.883 0-2.825.763-2.825 2.29v6.495c0 .77.23 1.327.69 1.673.46.347 1.115.52 1.965.52zm10.207.082c.856 0 1.5-.23 1.933-.69.433-.46.65-1.058.65-1.795v-6.17c0-.737-.217-1.335-.65-1.795-.433-.46-1.077-.69-1.933-.69-.855 0-1.5.23-1.932.69-.433.46-.65 1.058-.65 1.794v6.171c0 .737.217 1.335.65 1.795.433.46 1.077.69 1.932.69zm0-.73c-1.18 0-1.77-.585-1.77-1.755v-6.17c0-1.17.59-1.755 1.77-1.755 1.18 0 1.77.585 1.77 1.754v6.171c0 1.17-.59 1.754-1.77 1.754zm5.668.568v-4.921h3.378v-.73h-3.378v-4.434h3.524v-.73h-4.336v10.815h.812zm10.393 0l.99-5.717c.239-1.364.412-2.636.52-3.816.12 1.18.628 4.358 1.527 9.533h1.17l1.883-10.816h-.844c-.899 5.446-1.44 8.807-1.624 10.085l-.423-2.842-1.201-7.243h-.958l-1.202 7.227c-.163.952-.303 1.905-.422 2.858l-.423-2.842-1.201-7.243h-.845l1.884 10.816h1.17zm7.665 0l.731-3.167h3.086l.73 3.167h.845l-2.534-10.816h-1.169l-2.533 10.816h.844zm3.654-3.898h-2.76l1.38-5.992 1.38 5.992zm5.18 3.898v-10.085h2.144v-.73h-5.1v.73h2.145v10.085h.812zm8.007 0v-.731h-3.67v-4.352h3.199v-.731h-3.2v-4.271h3.67v-.73h-4.482v10.815h4.483zm2.68 0v-4.466h1.574c.174 0 .303-.006.39-.017l1.608 4.483h.893l-1.705-4.661c.93-.347 1.396-1.094 1.396-2.241v-1.478c0-.736-.216-1.326-.65-1.77-.432-.444-1.076-.666-1.932-.666h-2.387v10.816h.812zm1.574-5.23h-1.575v-4.855h1.575c1.18 0 1.77.568 1.77 1.705v1.478c0 1.115-.59 1.672-1.77 1.672z" transform="translate(-486 -2241) translate(488 2243)"/>
                <g>
                    <path stroke="#FFF" stroke-linecap="round" stroke-linejoin="round" stroke-width="1.875" d="M154.214 239.996L132 239.996" transform="translate(-486 -2241) translate(488 2243) translate(8.446 10.98)"/>
                    <path fill="#000" d="M5.572 9.109L2.95 4.567 0.328 0.025 5.572 0.025 10.817 0.025 8.195 4.567z" transform="translate(-486 -2241) translate(488 2243) translate(8.446 10.98)"/>
                    <path stroke="#44E7D9" stroke-linecap="round" stroke-linejoin="round" stroke-width="1.875" d="M5.572 9.109L2.95 4.567 0.328 0.025 5.572 0.025 10.817 0.025 8.195 4.567z" transform="translate(-486 -2241) translate(488 2243) translate(8.446 10.98)"/>
                    <path stroke="#D1A448" stroke-linecap="round" stroke-linejoin="round" stroke-width="1.875" d="M104.956 66.11s-3.033-3.032-15.77-3.639c-12.737-.606-19.409 3.64-19.409 3.64L61.892 46.7s7.582 10.615 10.614 7.582c3.033-3.033-2.425-22.442-2.425-22.442s8.491 20.622 12.13 16.377c3.64-4.246 4.852-25.474 4.852-25.474" transform="translate(-486 -2241) translate(488 2243) translate(8.446 10.98)"/>
                    <path stroke="#D1A448" stroke-linecap="round" stroke-linejoin="round" stroke-width="1.875" d="M104.956 65.731s-3.01-3.033-15.65-3.639c-12.64-.606-19.261 3.64-19.261 3.64" transform="translate(-486 -2241) translate(488 2243) translate(8.446 10.98)"/>
                    <path stroke="#FFF" stroke-linecap="round" stroke-linejoin="round" stroke-width="1.875" d="M106.776 60.738s-3.347-3.477-17.401-4.173c-14.055-.695-21.417 4.173-21.417 4.173" transform="translate(-486 -2241) translate(488 2243) translate(8.446 10.98)"/>
                    <path stroke="#FFF" stroke-linecap="round" stroke-linejoin="round" stroke-width="1.875" d="M86.76 59.205c0 .502.407.91.91.91.503 0 .91-.408.91-.91 0-.503-.407-.91-.91-.91-.503 0-.91.407-.91.91zM78.537 59.811c0 .503.408.91.91.91.503 0 .91-.407.91-.91 0-.502-.407-.91-.91-.91-.502 0-.91.408-.91.91zM70.921 61.968c0 .503.407.91.91.91.502 0 .91-.407.91-.91 0-.502-.408-.909-.91-.909-.503 0-.91.407-.91.91zM96.733 59.811c0 .503-.407.91-.91.91-.502 0-.91-.407-.91-.91 0-.502.408-.91.91-.91.503 0 .91.408.91.91zM104.012 61.968c0 .503-.408.91-.91.91-.503 0-.91-.407-.91-.91 0-.502.407-.909.91-.909.502 0 .91.407.91.91z" transform="translate(-486 -2241) translate(488 2243) translate(8.446 10.98)"/>
                    <path stroke="#D1A448" stroke-linecap="round" stroke-linejoin="round" stroke-width="1.875" d="M105.021 66.13l7.885-19.41s-7.582 10.614-10.614 7.582c-3.033-3.033 2.426-22.442 2.426-22.442s-8.492 20.622-12.131 16.377c-3.64-4.246-5.459-25.475-5.459-25.475" transform="translate(-486 -2241) translate(488 2243) translate(8.446 10.98)"/>
                    <path fill="#D1A448" d="M86.194 22.092c0 .502.407.91.91.91.502 0 .91-.408.91-.91s-.408-.91-.91-.91c-.503 0-.91.408-.91.91M104.1 31.214c0 .502.407.91.91.91.502 0 .909-.408.909-.91s-.407-.91-.91-.91c-.502 0-.91.408-.91.91M112.82 45.278c.11.49.598.798 1.088.688.49-.11.798-.597.688-1.087-.11-.49-.597-.798-1.087-.688-.49.11-.798.597-.688 1.087M68.786 31.1c0 .502.407.91.91.91.502 0 .91-.408.91-.91 0-.503-.408-.91-.91-.91-.503 0-.91.407-.91.91M60.089 45.079c0 .502.407.91.91.91.502 0 .91-.408.91-.91 0-.503-.408-.91-.91-.91-.503 0-.91.407-.91.91" transform="translate(-486 -2241) translate(488 2243) translate(8.446 10.98)"/>
                    <path stroke="#D1A448" stroke-linecap="round" stroke-linejoin="round" stroke-width="1.875" d="M112.651 81.169c1.3 25.053-8.498 43.879-24.218 44.34-15.537.455-25.66-18.624-24.219-44.34M83.477 124.724L83.477 138.825M93.098 124.724L93.098 138.825M88.506 140.179c-2.927 0-4.39-.293-5.56-1.17 0 0-1.464 1.463 0 2.926 0 0 1.755.878 4.975.878M83.53 143.361v12.293s1.171 1.463 4.976 1.463c3.805 0 4.683-1.463 4.683-1.463V143.36M85.872 125.801L85.872 139.557M85.872 143.361L85.872 156.239M89.384 126.386L89.384 138.971M89.384 144.239L89.384 149.8M89.384 151.263L89.384 156.239M92.311 126.386L92.311 137.215M92.311 144.239L92.311 155.653" transform="translate(-486 -2241) translate(488 2243) translate(8.446 10.98)"/>
                    <path stroke="#D1A448" stroke-linecap="round" stroke-linejoin="round" stroke-width="1.875" d="M87.943 140.179c2.926 0 4.39-.293 5.56-1.17 0 0 1.464 1.463 0 2.926 0 0-1.755.878-4.975.878M112.505 81.315c0 2.748-10.745 4.976-23.999 4.976s-23.999-2.228-23.999-4.976c0-2.748 10.745-4.975 23.999-4.975s23.999 2.227 23.999 4.975zM82.742 153.526c-3.137.286-9.88 1.068-13.64 2.753 0 0-4.547 2.667 5.446 4.62M93.583 153.365c3.132.324 9.864 1.19 13.603 2.92 0 0 4.512 2.723-5.505 4.554M76.351 160.974s11.706 1.756 24.312 0" transform="translate(-486 -2241) translate(488 2243) translate(8.446 10.98)"/>
                    <path stroke="#D1A448" stroke-linecap="round" stroke-linejoin="round" stroke-width="1.875" d="M68.07 157.024s-1.923 1.023-1.023 2.78c.9 1.755 8.104 3.804 17.408 3.804M91.784 163.615c9.304 0 16.507-2.048 17.408-3.804.9-1.756-1.023-2.78-1.023-2.78M85.356 163.608s3.39.123 5.703 0M112.35 85.672c0 2.748-10.745 4.975-24 4.975-13.253 0-23.998-2.227-23.998-4.975" transform="translate(-486 -2241) translate(488 2243) translate(8.446 10.98)"/>
                    <path fill="#000" d="M88.33 116.83s-.446-3.78 1.786-6.378c0 0 1.722-2.312 4.56-3.236 0 0-.207 3.81-1.563 5.58 0 0-.957 1.881-4.783 4.033" transform="translate(-486 -2241) translate(488 2243) translate(8.446 10.98)"/>
                    <path stroke="#FFF" stroke-linecap="round" stroke-linejoin="round" stroke-width="1.875" d="M88.33 116.83s-.446-3.78 1.786-6.378c0 0 1.722-2.312 4.56-3.236 0 0-.207 3.81-1.563 5.58 0 0-.957 1.881-4.783 4.033z" transform="translate(-486 -2241) translate(488 2243) translate(8.446 10.98)"/>
                    <path fill="#000" d="M88.549 116.776s.446-3.778-1.786-6.377c0 0-1.722-2.311-4.56-3.236 0 0 .207 3.81 1.563 5.58 0 0 .956 1.881 4.783 4.033" transform="translate(-486 -2241) translate(488 2243) translate(8.446 10.98)"/>
                    <path stroke="#FFF" stroke-linecap="round" stroke-linejoin="round" stroke-width="1.875" d="M88.549 116.776s.446-3.778-1.786-6.377c0 0-1.722-2.311-4.56-3.236 0 0 .207 3.81 1.563 5.58 0 0 .956 1.881 4.783 4.033z" transform="translate(-486 -2241) translate(488 2243) translate(8.446 10.98)"/>
                    <path fill="#000" d="M88.506 116.949s1.463-3.512 4.683-4.683c0 0 2.634-1.17 5.56-.585 0 0-2.048 3.22-4.097 4.097 0 0-1.756 1.171-6.146 1.171" transform="translate(-486 -2241) translate(488 2243) translate(8.446 10.98)"/>
                    <path stroke="#FFF" stroke-linecap="round" stroke-linejoin="round" stroke-width="1.875" d="M88.506 116.949s1.463-3.512 4.683-4.683c0 0 2.634-1.17 5.56-.585 0 0-2.048 3.22-4.097 4.097 0 0-1.756 1.171-6.146 1.171z" transform="translate(-486 -2241) translate(488 2243) translate(8.446 10.98)"/>
                    <path fill="#000" d="M88.503 116.949s-1.464-3.512-4.683-4.683c0 0-2.634-1.17-5.56-.585 0 0 2.048 3.22 4.097 4.097 0 0 1.756 1.171 6.146 1.171" transform="translate(-486 -2241) translate(488 2243) translate(8.446 10.98)"/>
                    <path stroke="#FFF" stroke-linecap="round" stroke-linejoin="round" stroke-width="1.875" d="M88.503 116.949s-1.464-3.512-4.683-4.683c0 0-2.634-1.17-5.56-.585 0 0 2.048 3.22 4.097 4.097 0 0 1.756 1.171 6.146 1.171z" transform="translate(-486 -2241) translate(488 2243) translate(8.446 10.98)"/>
                    <path fill="#000" d="M88.532 116.737s-2.358-2.986-1.815-6.368c0 0 .258-2.871 2.193-5.144 0 0 1.817 3.355 1.587 5.573 0 0 .17 2.104-1.965 5.94" transform="translate(-486 -2241) translate(488 2243) translate(8.446 10.98)"/>
                    <path stroke="#FFF" stroke-linecap="round" stroke-linejoin="round" stroke-width="1.875" d="M88.532 116.737s-2.358-2.986-1.815-6.368c0 0 .258-2.871 2.193-5.144 0 0 1.817 3.355 1.587 5.573 0 0 .17 2.104-1.965 5.94z" transform="translate(-486 -2241) translate(488 2243) translate(8.446 10.98)"/>
                    <path stroke="#D1A448" stroke-linecap="round" stroke-linejoin="round" stroke-width="1.875" d="M66.917 97.775s2.284 13.568 8.936 20.346M66.556 95.363s-.293-1.755-.293-3.219M66.848 96.827L66.848 96.534" transform="translate(-486 -2241) translate(488 2243) translate(8.446 10.98)"/>
                    <path stroke="#44E7D9" stroke-linecap="round" stroke-linejoin="round" stroke-width="1.875" d="M94.722 85.7s-3.061-.211-2.34-1.268c.72-1.056 0-1.056-1.441-1.056-1.44 0-3.782.422-1.98.845 0 0 1.528.501 1.08 1.55M67.205 83.273s9.151-4.504 16.894-4.292M85.541 78.981L88.871 78.981M89.974 78.98s13.448-.024 19.891 4.109" transform="translate(-486 -2241) translate(488 2243) translate(8.446 10.98)"/>
                    <path stroke="#44E7D9" stroke-linecap="round" stroke-linejoin="round" stroke-width="1.875" d="M81.343 85.675s.685-1.348-1.656-.926c-2.34.423-2.43-1.796.81-1.373 3.241.422 6.843.211 6.302-1.057-.54-1.267-3.96 0-3.78-1.056.18-1.057 3.06-.845 4.68-.845 1.621 0 3.962-1.057 6.303 0 2.34 1.056-2.52.845-.9 1.901 1.62 1.057 4.861-.845 5.761-.211.9.634-1.26 1.479-1.62 2.113-.36.634 1.838.939 1.838.939" transform="translate(-486 -2241) translate(488 2243) translate(8.446 10.98)"/>
                    <path stroke="#D1A448" stroke-linecap="round" stroke-linejoin="round" stroke-width="1.875" d="M133.484 106.864v44.905s3.962 1.32 7.924 0v-44.905M142.168 102.61h-9.245c-1.09 0-1.98-.892-1.98-1.981 0-1.09.89-1.982 1.98-1.982h9.245c1.09 0 1.981.892 1.981 1.982 0 1.09-.891 1.98-1.98 1.98zM133.5 97.987h0c1.089 0 1.98-.891 1.98-1.98v-1.322c0-1.09-.891-1.98-1.98-1.98-1.09 0-1.982.89-1.982 1.98v1.321c0 1.09.892 1.981 1.981 1.981zM137.461 81.41c-9.245 0-11.886 2.641-11.886 2.641 3.962 3.963 5.958 8.6 5.958 8.6" transform="translate(-486 -2241) translate(488 2243) translate(8.446 10.98)"/>
                    <path stroke="#D1A448" stroke-linecap="round" stroke-linejoin="round" stroke-width="1.875" d="M136.936 81.41c9.245 0 11.886 2.641 11.886 2.641-3.962 3.963-5.958 8.6-5.958 8.6M138.122 83.46c-7.925 0-10.597 1.658-10.597 1.658M142.168 106.616h-9.245c-1.09 0-1.98-.891-1.98-1.98 0-1.09.89-1.982 1.98-1.982h9.245c1.09 0 1.981.891 1.981 1.981s-.891 1.981-1.98 1.981z" transform="translate(-486 -2241) translate(488 2243) translate(8.446 10.98)"/>
                    <path stroke="#FFF" stroke-linecap="round" stroke-linejoin="round" stroke-width="1.875" d="M130.98 100.498L144.156 100.498M131.149 104.552L144.325 104.552" transform="translate(-486 -2241) translate(488 2243) translate(8.446 10.98)"/>
                    <path stroke="#D1A448" stroke-linecap="round" stroke-linejoin="round" stroke-width="1.875" d="M137.653 97.961h0c1.09 0 1.98-.891 1.98-1.98V94.66c0-1.09-.89-1.982-1.98-1.982-1.09 0-1.98.892-1.98 1.982v1.32c0 1.09.89 1.981 1.98 1.981zM141.707 97.961h0c1.09 0 1.98-.891 1.98-1.98V94.66c0-1.09-.89-1.982-1.98-1.982-1.09 0-1.98.892-1.98 1.982v1.32c0 1.09.89 1.981 1.98 1.981zM139.088 83.606s3.793.113 7.095 1.351M128.805 87.935s.824-.613 2.513-.613M129.088 88.564s.413-.357 1.354-.508M129.732 89.467s.823-.613 2.512-.613M130.18 90.178s.59-.557 1.671-.448M128.18 87.22s.53-.613 1.618-.613M130.68 90.826s.642-.551 1.834-.43M135.372 108.268L135.372 148.133" transform="translate(-486 -2241) translate(488 2243) translate(8.446 10.98)"/>
                    <path stroke="#44E7D9" stroke-linecap="round" stroke-linejoin="round" stroke-width="1.875" d="M44.617 181.826L82.117 181.826M55.765 187.569L132.792 187.569M46.982 190.948L100.698 190.948M104.752 190.948L134.819 190.948M108.13 182.164L115.901 182.164M32.792 196.691L84.819 196.691M90.901 196.691L133.13 196.691 150.36 196.691M51.542 203.11L127.725 203.11M35.879 208.268L53.109 208.268M63.536 208.515L67.252 208.515M71.982 208.515L136.846 208.515M94.617 205.475L125.36 205.475M71.982 215.272L46.352 215.272 28.232 215.272M61.846 193.313L73.333 193.313M98.333 215.948L101.711 215.948M145.676 212.66L78.784 212.66M123.379 216.038L105.811 216.038M127.725 200.407L66.238 200.407M95.968 184.867L36.509 184.867M130.09 202.434L134.144 202.434M136.171 187.569L152.725 187.569M42.59 190.948L18.481 190.948M40.901 200.407L29.076 200.407M33.468 184.191L18.879 184.191M152.771 178.448L133.13 178.448 42.59 178.448 18.932 178.448 18.649 178.448" transform="translate(-486 -2241) translate(488 2243) translate(8.446 10.98)"/>
                    <path fill="#FFF" d="M42.557 96.464c.19-.063.398.04.461.232.064.19-.04.398-.231.461-.192.064-.398-.04-.462-.232-.063-.19.04-.398.232-.461M55.6 108.042c.344-.114.716.073.83.417.114.345-.072.717-.417.83-.344.115-.717-.071-.83-.416-.115-.344.072-.716.416-.83M40.894 119.231c.191-.063.398.04.461.232.064.191-.04.397-.231.461-.192.063-.398-.04-.462-.232-.063-.19.04-.397.232-.461M46.757 68.431c.345-.114.716.073.83.417.115.345-.072.716-.416.83-.345.115-.717-.071-.83-.416-.115-.344.071-.716.416-.83M68.072 136.855c-.114-.345.072-.717.417-.83.344-.115.716.071.83.416.115.344-.072.716-.416.83-.345.115-.717-.071-.83-.416M119.599 136.686c.345-.114.716.073.831.417.114.345-.072.717-.417.83-.344.115-.716-.071-.83-.416-.115-.344.071-.716.416-.83M52.325 142.48c.128.156.106.386-.05.514-.155.129-.385.107-.514-.049-.128-.155-.106-.386.05-.514.155-.128.385-.106.514.05M68.467 125.627c.18.218.149.54-.069.72-.218.179-.54.148-.72-.07-.179-.218-.148-.54.07-.72.218-.18.54-.148.72.07M54.1 122.365c.374-.308.927-.255 1.235.119.307.373.254.925-.119 1.233-.373.308-.925.255-1.234-.118-.307-.374-.254-.926.119-1.234M42.533 131.89c.373-.308.925-.255 1.233.119.308.373.255.925-.118 1.233-.373.308-.926.255-1.234-.119-.308-.372-.254-.925.119-1.233M122.286 95.113c.192-.064.398.04.462.231.064.192-.04.398-.231.462-.192.063-.398-.04-.462-.232-.063-.191.04-.398.231-.461M116.748 75.61c.344-.115.716.072.83.417.115.344-.072.716-.416.83-.345.115-.717-.072-.83-.416-.115-.345.071-.717.416-.831M86.84 108.082c.191-.063.398.04.461.232.064.191-.04.398-.231.462-.192.063-.398-.04-.462-.232-.063-.191.04-.398.232-.462M120.743 151.877c.345-.114.717.073.831.417.114.345-.072.716-.416.83-.345.115-.717-.071-.831-.416-.115-.344.072-.716.416-.83M112.329 119.625c-.115-.344.072-.716.416-.83.345-.115.717.071.831.416.115.345-.072.717-.416.83-.345.115-.717-.071-.831-.416M103.383 142.768c.345-.115.716.072.83.416.115.345-.072.717-.416.83-.345.115-.717-.071-.83-.416-.115-.344.071-.716.416-.83M98.27 131.332c.129.155.107.386-.049.514-.155.128-.385.106-.514-.05-.128-.155-.106-.385.05-.513.155-.129.385-.107.514.049M121.846 110.762c.18.218.148.54-.07.72-.217.179-.54.148-.72-.07-.179-.218-.147-.54.07-.72.218-.179.54-.148.72.07M127.75 125.068c.373-.308.925-.255 1.233.119.308.372.255.925-.118 1.233-.374.308-.926.255-1.234-.119-.308-.373-.254-.925.119-1.233M54.695 155.539c.373-.308.925-.255 1.234.118.307.374.254.926-.119 1.234-.373.308-.925.255-1.234-.119-.308-.373-.254-.926.119-1.233M122.497 48.59c.191-.064.398.04.461.231.064.191-.04.398-.231.462-.192.063-.398-.04-.462-.232-.063-.191.04-.398.232-.462M61.553 171.316c.344-.114.716.072.83.417.115.345-.072.717-.416.83-.345.115-.717-.071-.831-.416-.114-.344.072-.716.417-.83M135.699 72.708c.191-.064.398.04.462.231.063.192-.04.398-.232.462-.191.063-.398-.04-.462-.232-.063-.191.04-.398.232-.461M75.345 69.88c.345-.113.717.073.831.418.115.344-.072.716-.416.83-.345.115-.717-.072-.831-.416-.115-.345.072-.717.416-.831M139.228 162.967c-.114-.345.072-.717.417-.831.345-.114.716.072.83.416.115.345-.071.717-.416.831-.345.115-.716-.072-.83-.416M126.228 63.812c.345-.115.717.072.831.416.115.345-.072.717-.416.831-.345.115-.717-.072-.831-.416-.115-.345.072-.717.416-.831M35.981 67.24c.128.156.106.387-.05.515-.155.128-.385.106-.513-.05-.129-.155-.106-.385.05-.513.154-.129.385-.107.513.049M56.853 58.833c.18.218.149.54-.069.72-.218.18-.54.148-.72-.07-.18-.217-.148-.54.07-.719.218-.18.54-.149.72.069M52.622 88.004c.373-.308.926-.255 1.234.118.308.374.255.926-.119 1.234-.373.308-.925.255-1.233-.118-.308-.374-.255-.926.118-1.234M100.176 69.15c.373-.308.925-.255 1.233.12.308.372.255.925-.118 1.233-.374.307-.926.255-1.234-.119-.308-.373-.255-.926.119-1.233M78.916 36.342c.191-.064.398.04.461.231.064.192-.04.398-.231.462-.192.063-.398-.04-.462-.232-.063-.19.04-.398.232-.461M61.553 34.744c.344-.114.716.073.83.417.115.345-.072.717-.416.83-.345.115-.717-.071-.831-.416-.114-.344.072-.716.417-.83M129.618 166.879c.191-.063.398.04.461.232.064.191-.04.398-.231.461-.192.064-.398-.04-.462-.231-.063-.192.04-.398.232-.462M40.548 46.485c.345-.115.717.072.83.417.115.344-.071.716-.416.83-.344.115-.717-.072-.83-.416-.115-.345.072-.717.416-.831M26.39 81.125c-.114-.345.073-.717.417-.831.345-.115.716.072.831.416.114.345-.072.717-.417.831-.345.115-.716-.072-.83-.416M95.147 23.524c.345-.115.717.072.831.416.115.345-.072.717-.417.831-.344.114-.716-.072-.83-.416-.115-.345.072-.717.416-.831M29.224 104.993c.129.156.106.386-.049.514-.155.129-.386.107-.514-.049-.129-.156-.106-.386.05-.514.155-.128.385-.106.513.05M54.826 48.95c.18.218.149.54-.069.72-.218.18-.54.149-.72-.069-.18-.218-.148-.54.07-.72.218-.18.54-.149.72.07M111.744 165.621c.373-.308.926-.255 1.233.119.308.373.255.926-.118 1.233-.373.308-.926.255-1.234-.118-.308-.373-.254-.926.119-1.234M32.946 147.106c.373-.308.926-.255 1.233.118.308.374.255.926-.118 1.234-.374.308-.926.255-1.234-.119-.308-.373-.254-.925.119-1.233M113.502 35.56c.345-.115.716.072.83.416.115.345-.072.717-.416.831-.344.115-.717-.072-.83-.417-.115-.344.071-.716.416-.83M146.817 141.652c.345-.114.717.073.831.417.115.345-.072.716-.416.83-.345.115-.717-.071-.831-.416-.115-.344.071-.716.416-.83M148.13 116.586c.372-.308.925-.255 1.233.118.308.374.255.926-.118 1.234-.374.308-.926.255-1.234-.119-.308-.373-.255-.925.118-1.233" transform="translate(-486 -2241) translate(488 2243) translate(8.446 10.98)"/>
                    <path stroke="#FFF" stroke-linecap="round" stroke-linejoin="round" stroke-width="1.875" d="M16.179 3.874L164.283 3.874 164.283 227.03M38.588 239.996L5.786 239.996 5.786 14.826" transform="translate(-486 -2241) translate(488 2243) translate(8.446 10.98)"/>
                    <path fill="#000" d="M164.444 233.846L167.067 238.388 169.689 242.931 164.444 242.931 159.2 242.931 161.822 238.388z" transform="translate(-486 -2241) translate(488 2243) translate(8.446 10.98)"/>
                    <path stroke="#44E7D9" stroke-linecap="round" stroke-linejoin="round" stroke-width="1.875" d="M164.444 233.846L167.067 238.388 169.689 242.931 164.444 242.931 159.2 242.931 161.822 238.388z" transform="translate(-486 -2241) translate(488 2243) translate(8.446 10.98)"/>
                </g>
            </g>
        </g>
    </g>
</svg>
