<svg xmlns="http://www.w3.org/2000/svg" width="191" height="269" viewBox="0 0 191 269"><title>Пятёрка Жезлов</title>
    <g fill="none" fill-rule="evenodd">
        <g>
            <g>
                <path fill="#2a1612" stroke="#FFF" stroke-linecap="round" stroke-linejoin="round" stroke-width="2.5" d="M177.475 265.252H9.604c-5.21 0-9.435-4.224-9.435-9.435V9.488c0-5.21 4.224-9.435 9.435-9.435h167.871c5.211 0 9.435 4.224 9.435 9.435v246.329c0 5.21-4.224 9.435-9.435 9.435z" transform="translate(-182 -4616) translate(184 4618)"/>
                <path fill="#44E7D9" fill-rule="nonzero" d="M62.015 253.524v-4.912h3.371v-.73h-3.371v-4.425h3.517v-.73h-4.328v10.797h.81zm5.868 0v-10.796h-.81v10.796h.81zm5.057 0l2.432-10.796h-.843c-1.264 5.706-1.988 9.018-2.172 9.937-.151-.735-.875-4.047-2.172-9.937h-.843l2.431 10.796h1.167zm8.365 0v-.73H77.64v-4.344h3.194v-.73H77.64v-4.263h3.664v-.73H76.83v10.797h4.474zm7.36.162c.853 0 1.496-.23 1.928-.689.433-.46.649-1.056.649-1.791v-6.16c0-.735-.216-1.332-.649-1.791-.432-.46-1.075-.69-1.929-.69-.853 0-1.496.23-1.929.69-.432.459-.648 1.056-.648 1.79v6.16c0 .736.216 1.333.648 1.792.433.46 1.076.689 1.93.689zm0-.73c-1.179 0-1.768-.583-1.768-1.75v-6.16c0-1.167.59-1.75 1.767-1.75 1.178 0 1.767.583 1.767 1.75v6.16c0 1.167-.589 1.75-1.767 1.75zm5.657.568v-4.912h3.371v-.73h-3.371v-4.425h3.517v-.73h-4.328v10.797h.81zm8.948 0v-4.912h3.372v-.73h-3.372v-4.425h3.517v-.73h-4.328v10.797h.81zm5.868 0v-10.796h-.81v10.796h.81zm3.242 0v-4.458l1.73-.002c.097-.002.174-.007.231-.014l1.605 4.474h.892l-1.702-4.653c.93-.345 1.394-1.091 1.394-2.237v-1.475c0-.735-.216-1.323-.649-1.767-.432-.443-1.075-.664-1.929-.664h-2.383v10.796h.811zm1.572-5.22h-1.572v-4.847h1.572c1.178 0 1.767.568 1.767 1.702v1.475c0 1.114-.589 1.67-1.767 1.67zm9.386 5.22v-.73h-3.663v-4.344h3.193v-.73h-3.193v-4.263h3.663v-.73h-4.474v10.797h4.474z" transform="translate(-182 -4616) translate(184 4618)"/>
                <g>
                    <path stroke="#FFF" stroke-linecap="round" stroke-linejoin="round" stroke-width="1.875" d="M99.743 3.867L163.738 3.867 163.738 226.622M15.9 3.867L68.043 3.867M153.687 239.564L121.01 239.564M5.526 14.799L5.526 239.564 46.362 239.564" transform="translate(-182 -4616) translate(184 4618) translate(8.094 10.997)"/>
                    <path fill="#000" d="M5.253 0.025L7.871 4.559 10.489 9.093 5.253 9.093 0.018 9.093 2.636 4.559z" transform="translate(-182 -4616) translate(184 4618) translate(8.094 10.997)"/>
                    <path stroke="#D1A448" stroke-linecap="round" stroke-linejoin="round" stroke-width="1.875" d="M5.253 0.025L7.871 4.559 10.489 9.093 5.253 9.093 0.018 9.093 2.636 4.559z" transform="translate(-182 -4616) translate(184 4618) translate(8.094 10.997)"/>
                    <path fill="#000" d="M163.902 244.095L161.285 239.561 158.667 235.027 163.902 235.027 169.137 235.027 166.52 239.561z" transform="translate(-182 -4616) translate(184 4618) translate(8.094 10.997)"/>
                    <path stroke="#D1A448" stroke-linecap="round" stroke-linejoin="round" stroke-width="1.875" d="M163.902 244.095L161.285 239.561 158.667 235.027 163.902 235.027 169.137 235.027 166.52 239.561z" transform="translate(-182 -4616) translate(184 4618) translate(8.094 10.997)"/>
                </g>
                <path fill="#44E7D9" fill-rule="nonzero" d="M92.57 20.802L95 10.006h-.842c-1.265 5.706-1.989 9.018-2.173 9.937-.15-.735-.875-4.047-2.172-9.937h-.843l2.432 10.796h1.167z" transform="translate(-182 -4616) translate(184 4618)"/>
                <g>
                    <path stroke="#FFF" stroke-linecap="round" stroke-linejoin="round" stroke-width="1.875" d="M50.754.448c-.734.639.763 2.175.763 2.175 40.291 47.474 76.67 85.255 76.67 85.255s3.98.687 3.471-3.236" transform="translate(-182 -4616) translate(184 4618) translate(28.327 62.593)"/>
                    <path stroke="#FFF" stroke-linecap="round" stroke-linejoin="round" stroke-width="1.875" d="M50.721.491c.661-.718 2.076.898 2.076.898 44.043 43.83 78.86 83.128 78.86 83.128s.454 4.113-3.338 3.38M62.73 15.718s3.081 2.804 6.108 1.834M69.46 23.45s5.621 4.407 9.259 4.25M73.434 27.983s5.068 4.1 8.891 3.455M81.177 36.74s4.27 3.003 7.921 1.77M83.798 39.683s3.945 2.92 7.929 1.589M93.034 49.966s4.937 3.601 8.836 2.019M99.115 56.665s3.98 2.954 9.266 2.334M101.759 59.56s4.266 2.438 8.336 1.286M107.314 65.61s4.619 4.397 10.5 3.61M113.772 72.615s2.443 2.41 10.04 3.18M111.655 70.304s4.94 3.179 9.742 2.838M119.93 79.17s2.878 3.567 9.63 2.934M25.405 21.467c-.734.638.762 2.175.762 2.175 40.291 47.474 76.67 85.254 76.67 85.254s3.98.687 3.472-3.235" transform="translate(-182 -4616) translate(184 4618) translate(28.327 62.593)"/>
                    <path stroke="#FFF" stroke-linecap="round" stroke-linejoin="round" stroke-width="1.875" d="M25.372 21.51c.66-.718 2.076.898 2.076.898 44.043 43.83 78.86 83.127 78.86 83.127s.453 4.114-3.338 3.38M37.38 36.737s3.081 2.803 6.108 1.834M44.11 44.468s5.621 4.408 9.259 4.25M48.084 49.002s5.069 4.1 8.891 3.455M55.827 57.759s4.27 3.003 7.921 1.77M58.449 60.701s3.944 2.92 7.928 1.59M67.684 70.984s4.937 3.601 8.836 2.02M73.766 77.684s3.98 2.953 9.265 2.333M76.41 80.579s4.266 2.438 8.335 1.285M81.965 86.629s4.618 4.396 10.498 3.61M88.422 93.634s2.443 2.409 10.04 3.18M86.305 91.323s4.94 3.178 9.743 2.837M94.58 100.187s2.878 3.569 9.63 2.935M.212 44.298c-.735.638.762 2.175.762 2.175 40.291 47.474 76.67 85.255 76.67 85.255s3.98.687 3.472-3.236" transform="translate(-182 -4616) translate(184 4618) translate(28.327 62.593)"/>
                    <path stroke="#FFF" stroke-linecap="round" stroke-linejoin="round" stroke-width="1.875" d="M.178 44.34c.661-.717 2.076.899 2.076.899 44.043 43.83 78.86 83.127 78.86 83.127s.454 4.114-3.337 3.38M12.188 59.568s3.08 2.804 6.107 1.834M18.917 67.3s5.621 4.407 9.259 4.25M22.891 71.833s5.068 4.1 8.891 3.455M30.634 80.59s4.27 3.003 7.921 1.77M33.255 83.533s3.945 2.92 7.929 1.589M42.491 93.816s4.937 3.6 8.836 2.019M48.572 100.515s3.98 2.954 9.266 2.334M51.216 103.41s4.266 2.438 8.336 1.286M56.772 109.46s4.618 4.396 10.498 3.61M63.229 116.465s2.443 2.41 10.04 3.18M61.112 114.154s4.94 3.178 9.743 2.838M69.387 123.019s2.878 3.568 9.63 2.935" transform="translate(-182 -4616) translate(184 4618) translate(28.327 62.593)"/>
                    <path stroke="#FFF" stroke-linecap="round" stroke-linejoin="round" stroke-width="1.875" d="M91.204 12.045c.734.638-.762 2.175-.762 2.175-40.291 47.474-76.67 85.254-76.67 85.254s-3.98.688-3.472-3.235" transform="translate(-182 -4616) translate(184 4618) translate(28.327 62.593)"/>
                    <path stroke="#FFF" stroke-linecap="round" stroke-linejoin="round" stroke-width="1.875" d="M91.237 12.088c-.66-.718-2.076.898-2.076.898-44.043 43.83-78.86 83.127-78.86 83.127s-.453 4.114 3.338 3.381M79.229 27.315s-3.081 2.803-6.108 1.833M72.5 35.046s-5.623 4.408-9.26 4.25M68.525 39.58s-5.068 4.1-8.891 3.455M60.782 48.337s-4.27 3.003-7.921 1.77M58.16 51.28s-3.944 2.919-7.928 1.588M48.925 61.562s-4.937 3.602-8.836 2.02M42.844 68.262s-3.98 2.953-9.266 2.333M40.2 71.157s-4.267 2.438-8.336 1.285M34.644 77.207s-4.618 4.396-10.498 3.61M28.187 84.212s-2.443 2.409-10.04 3.18M30.304 81.9s-4.94 3.18-9.743 2.838M22.029 90.766s-2.878 3.568-9.63 2.935M116.397 34.876c.735.638-.762 2.175-.762 2.175-40.291 47.474-76.67 85.255-76.67 85.255s-3.98.687-3.472-3.236" transform="translate(-182 -4616) translate(184 4618) translate(28.327 62.593)"/>
                    <path stroke="#FFF" stroke-linecap="round" stroke-linejoin="round" stroke-width="1.875" d="M116.43 34.919c-.66-.718-2.075.898-2.075.898-44.043 43.83-78.86 83.127-78.86 83.127s-.454 4.114 3.338 3.38M104.421 50.146s-3.08 2.804-6.107 1.834M97.692 57.877s-5.621 4.408-9.259 4.25M93.718 62.411s-5.069 4.101-8.891 3.455M85.975 71.168s-4.27 3.003-7.921 1.77M83.354 74.11s-3.945 2.92-7.929 1.59M74.118 84.394s-4.937 3.6-8.836 2.019M68.037 91.093s-3.98 2.953-9.266 2.334M65.393 93.988s-4.266 2.439-8.336 1.286M59.837 100.038s-4.618 4.397-10.498 3.61M53.38 107.043s-2.443 2.41-10.04 3.181M55.497 104.732s-4.94 3.178-9.742 2.838M47.222 113.597s-2.878 3.568-9.63 2.935" transform="translate(-182 -4616) translate(184 4618) translate(28.327 62.593)"/>
                    <path stroke="#D1A448" stroke-linecap="round" stroke-linejoin="round" stroke-width="1.875" d="M76.159 62.04s-5.044-.631-2.732-6.306c0 0 .42-.84 2.101-3.363C77.21 49.85 77 48.168 77 48.168s3.993 4.834 3.783 9.248c-.21 4.413-2.732 4.413-4.624 4.624z" transform="translate(-182 -4616) translate(184 4618) translate(28.327 62.593)"/>
                    <path stroke="#D1A448" stroke-linecap="round" stroke-linejoin="round" stroke-width="1.875" d="M75.745 61.92s-2.528-.724-.893-4.22c0 0 .282-.513 1.342-2.025 1.061-1.512 1.088-2.604 1.088-2.604s1.654 3.356 1.195 6.176c-.46 2.82-1.749 2.66-2.732 2.674z" transform="translate(-182 -4616) translate(184 4618) translate(28.327 62.593)"/>
                    <path stroke="#D1A448" stroke-linecap="round" stroke-linejoin="round" stroke-width="1.875" d="M75.739 62.04s-6.516-.841-6.306-9.038c0 0 .42-3.993 3.363-7.356 0 0-.84 2.522-.84 3.993 0 0 2.101-3.152 3.152-6.515 1.051-3.363.21-5.885.21-5.885s7.567 6.095 7.987 15.343c-.02.038-.101 5.241-3.153 8.407 0 0-2.312 1.68-4.413 1.05zM54.46 66.52s5.044.63 2.732 6.306c0 0-.42.84-2.102 3.362-1.681 2.522-1.471 4.204-1.471 4.204s-3.993-4.834-3.783-9.248c.21-4.414 2.732-4.414 4.624-4.624z" transform="translate(-182 -4616) translate(184 4618) translate(28.327 62.593)"/>
                    <path stroke="#D1A448" stroke-linecap="round" stroke-linejoin="round" stroke-width="1.875" d="M54.874 66.64s2.527.724.893 4.22c0 0-.282.513-1.343 2.025-1.06 1.512-1.087 2.604-1.087 2.604s-1.655-3.356-1.195-6.176c.46-2.82 1.748-2.66 2.732-2.674z" transform="translate(-182 -4616) translate(184 4618) translate(28.327 62.593)"/>
                    <path stroke="#D1A448" stroke-linecap="round" stroke-linejoin="round" stroke-width="1.875" d="M54.88 66.52s6.515.841 6.305 9.038c0 0-.42 3.993-3.363 7.356 0 0 .841-2.522.841-3.993 0 0-2.101 3.152-3.152 6.515-1.051 3.363-.21 5.885-.21 5.885s-7.567-6.095-7.987-15.343c.02-.038.101-5.242 3.152-8.407 0 0 2.312-1.681 4.414-1.05z" transform="translate(-182 -4616) translate(184 4618) translate(28.327 62.593)"/>
                    <path fill="#D1A448" d="M10.431 29.213c.23-.073.477.056.55.286.072.23-.056.476-.287.55-.23.072-.476-.056-.549-.286-.072-.231.055-.477.286-.55M22.344 42.107c-.093-.296.07-.612.367-.706.297-.093.613.071.706.367.094.297-.07.613-.367.707-.296.093-.613-.071-.706-.368M21.645 26.632c.296-.093.612.071.706.368.093.296-.071.612-.368.706-.296.093-.612-.071-.706-.368-.093-.296.071-.612.368-.706M12.658 36.372c.396-.125.817.094.942.49.125.395-.095.817-.49.941-.395.125-.817-.094-.942-.49-.124-.395.095-.816.49-.941M11.835 13.365c.231-.073.477.055.55.286.072.23-.056.476-.286.549-.231.073-.477-.055-.55-.286-.072-.23.056-.476.286-.549M.49 28.04c.23-.074.476.054.548.285.073.23-.055.476-.285.55-.23.072-.477-.056-.55-.287-.072-.23.056-.476.286-.549M19.005 45.511c.165-.052.34.04.392.204.052.165-.04.34-.204.393-.164.051-.34-.04-.392-.205-.052-.164.04-.34.204-.392M15.618 21.164c.395-.124.817.095.942.49.124.395-.095.817-.49.942-.396.124-.817-.095-.942-.49-.124-.396.095-.817.49-.942M26.187 51.969c.23-.073.476.055.549.286.072.23-.055.476-.286.549-.23.073-.476-.055-.55-.286-.072-.23.056-.476.287-.549M5.172 41.168c.296-.093.612.071.706.368.093.296-.071.612-.368.706-.296.093-.612-.071-.706-.368-.093-.296.071-.612.368-.706M12.693 46.543c.165-.052.34.04.392.204.052.165-.04.34-.204.393-.165.052-.34-.04-.392-.204-.052-.165.04-.34.204-.393M106.445 82.248c.231-.073.477.055.55.286.072.23-.056.476-.286.549-.23.072-.477-.055-.55-.286-.072-.23.056-.476.286-.549M118.358 95.142c-.093-.297.071-.612.368-.706.296-.093.612.07.706.367.093.297-.071.613-.368.706-.296.094-.612-.07-.706-.367M117.659 79.667c.296-.093.612.07.706.367.093.297-.071.613-.368.707-.296.093-.612-.071-.706-.368-.093-.296.071-.613.368-.706M108.673 89.407c.395-.125.817.094.941.49.125.395-.094.816-.49.94-.395.125-.816-.094-.941-.489-.125-.396.095-.817.49-.941M96.503 81.074c.231-.073.477.055.55.286.072.23-.055.476-.286.549-.23.072-.476-.055-.55-.286-.072-.23.056-.477.286-.55M115.02 98.546c.164-.052.34.04.391.204.052.165-.039.34-.204.392-.164.052-.34-.04-.392-.204-.052-.165.04-.34.204-.392M111.632 74.199c.396-.125.817.094.942.49.125.395-.095.817-.49.941-.395.125-.817-.094-.942-.49-.124-.395.095-.816.49-.941M122.2 105.004c.231-.073.477.055.55.285.073.23-.055.477-.286.55-.23.072-.476-.056-.549-.286-.073-.23.055-.477.286-.55M101.186 94.203c.296-.094.613.071.706.367.094.297-.07.613-.367.707-.297.093-.613-.072-.706-.368-.094-.296.07-.613.367-.706M108.707 99.578c.165-.052.34.04.393.204.051.165-.04.34-.205.393-.164.051-.34-.04-.392-.205-.052-.164.04-.34.204-.392" transform="translate(-182 -4616) translate(184 4618) translate(28.327 62.593)"/>
                </g>
            </g>
        </g>
    </g>
</svg>
