<svg xmlns="http://www.w3.org/2000/svg" width="191" height="269" viewBox="0 0 191 269"><title>Королева Жезлов</title>
    <g fill="none" fill-rule="evenodd">
        <g>
            <g>
                <path fill="#2a1612" stroke="#FFF" stroke-linecap="round" stroke-linejoin="round" stroke-width="2.5" d="M177.475 265.368H9.604c-5.21 0-9.435-4.224-9.435-9.435V9.604C.169 4.393 4.393.17 9.604.17h167.871c5.211 0 9.435 4.224 9.435 9.435v246.329c0 5.21-4.224 9.435-9.435 9.435z" transform="translate(-182 -5336) translate(184 5338)"/>
                <path fill="#44E7D9" fill-rule="nonzero" d="M61.784 255.173l-1.718-1.929c.67-.432 1.005-1.124 1.005-2.075v-6.16c0-.734-.216-1.332-.648-1.79-.433-.46-1.076-.69-1.93-.69-.853 0-1.496.23-1.928.69-.433.458-.649 1.056-.649 1.79v6.16c0 .735.216 1.332.649 1.792.432.459 1.075.688 1.929.688.27 0 .54-.027.81-.08l1.427 1.604h1.053zm-3.29-2.253c-1.178 0-1.767-.584-1.767-1.75v-6.16c0-1.168.589-1.751 1.767-1.751s1.766.583 1.766 1.75v6.16c0 1.167-.588 1.751-1.766 1.751zm7.343.73c.854 0 1.497-.23 1.929-.69.432-.459.648-1.056.648-1.79v-8.479h-.81v8.478c0 1.167-.59 1.751-1.767 1.751-1.178 0-1.767-.584-1.767-1.75v-8.479h-.81v8.478c0 .735.216 1.332.648 1.792.432.459 1.075.688 1.929.688zm9.402-.163v-.73h-3.664v-4.343h3.194v-.73h-3.194v-4.263h3.664v-.73h-4.474v10.796h4.474zm6.338 0v-.73h-3.664v-4.343h3.194v-.73h-3.194v-4.263h3.664v-.73h-4.474v10.796h4.474zm2.658 0v-6.127l-.03-3.124-.002-.15c.4 1.037 1.632 4.17 3.696 9.401h1.07v-10.796h-.81v6.16l.032 3.275c-.13-.346-1.362-3.49-3.696-9.435H83.44v10.796h.794zm12.66.162c.854 0 1.497-.23 1.93-.688.432-.46.648-1.057.648-1.792v-6.16c0-.734-.216-1.332-.648-1.79-.433-.46-1.076-.69-1.93-.69-.853 0-1.496.23-1.928.69-.433.458-.649 1.056-.649 1.79v6.16c0 .735.216 1.332.649 1.792.432.459 1.075.688 1.929.688zm0-.729c-1.177 0-1.766-.584-1.766-1.75v-6.16c0-1.168.589-1.751 1.767-1.751s1.767.583 1.767 1.75v6.16c0 1.167-.59 1.751-1.767 1.751zm5.658.567v-4.911h3.372v-.73h-3.372v-4.425h3.518v-.73h-4.328v10.796h.81zm8.948 0v-4.911h3.372v-.73H111.5v-4.425h3.518v-.73h-4.328v10.796h.81zm5.868 0v-10.796h-.81v10.796h.81zm3.242 0v-4.457l1.731-.002c.096-.003.173-.007.23-.015l1.606 4.474h.891l-1.702-4.652c.93-.346 1.394-1.091 1.394-2.237v-1.475c0-.735-.216-1.324-.648-1.767-.433-.443-1.076-.665-1.93-.665h-2.382v10.796h.81zm1.573-5.22h-1.573v-4.846h1.573c1.178 0 1.767.567 1.767 1.702v1.475c0 1.113-.59 1.67-1.767 1.67zm9.385 5.22v-.73h-3.663v-4.343h3.193v-.73h-3.193v-4.263h3.663v-.73h-4.474v10.796h4.474z" transform="translate(-182 -5336) translate(184 5338)"/>
                <g>
                    <path stroke="#FFF" stroke-linecap="round" stroke-linejoin="round" stroke-width="1.875" d="M16.15 3.867L163.987 3.867 163.987 226.622M153.937 239.564L131.088 239.564M5.776 14.799L5.776 239.564 37.844 239.564" transform="translate(-182 -5336) translate(184 5338) translate(8.43 10.96)"/>
                    <path fill="#000" d="M164.149 242.494L161.531 237.96 158.913 233.426 164.149 233.426 169.384 233.426 166.766 237.96z" transform="translate(-182 -5336) translate(184 5338) translate(8.43 10.96)"/>
                    <path stroke="#D1A448" stroke-linecap="round" stroke-linejoin="round" stroke-width="1.875" d="M164.149 242.494L161.531 237.96 158.913 233.426 164.149 233.426 169.384 233.426 166.766 237.96z" transform="translate(-182 -5336) translate(184 5338) translate(8.43 10.96)"/>
                    <path fill="#000" d="M5.562 0.025L8.18 4.559 10.798 9.093 5.562 9.093 0.327 9.093 2.945 4.559z" transform="translate(-182 -5336) translate(184 5338) translate(8.43 10.96)"/>
                    <path stroke="#D1A448" stroke-linecap="round" stroke-linejoin="round" stroke-width="1.875" d="M5.562 0.025L8.18 4.559 10.798 9.093 5.562 9.093 0.327 9.093 2.945 4.559z" transform="translate(-182 -5336) translate(184 5338) translate(8.43 10.96)"/>
                    <path fill="#000" d="M60.77 144.229c.549-.457 1.484.809 1.484.809 29.605 34.792 52.654 65.604 52.654 65.604s.026 2.963-2.753 2.13" transform="translate(-182 -5336) translate(184 5338) translate(8.43 10.96)"/>
                    <path stroke="#FFF" stroke-linecap="round" stroke-linejoin="round" stroke-width="1.875" d="M60.77 144.229c.549-.457 1.484.809 1.484.809 29.605 34.792 52.654 65.604 52.654 65.604s.026 2.963-2.753 2.13" transform="translate(-182 -5336) translate(184 5338) translate(8.43 10.96)"/>
                    <path fill="#000" d="M60.805 144.21c-.598.393.404 1.609.404 1.609 26.522 37.077 50.855 66.938 50.855 66.938s2.924.815 2.843-2.017" transform="translate(-182 -5336) translate(184 5338) translate(8.43 10.96)"/>
                    <path stroke="#FFF" stroke-linecap="round" stroke-linejoin="round" stroke-width="1.875" d="M60.805 144.21c-.598.393.404 1.609.404 1.609 26.522 37.077 50.855 66.938 50.855 66.938s2.924.815 2.843-2.017" transform="translate(-182 -5336) translate(184 5338) translate(8.43 10.96)"/>
                    <path fill="#000" d="M70.409 154.707s1.665 2.563.604 4.64" transform="translate(-182 -5336) translate(184 5338) translate(8.43 10.96)"/>
                    <path stroke="#FFF" stroke-linecap="round" stroke-linejoin="round" stroke-width="1.875" d="M70.409 154.707s1.665 2.563.604 4.64" transform="translate(-182 -5336) translate(184 5338) translate(8.43 10.96)"/>
                    <path fill="#000" d="M75.21 160.495s2.526 4.591 1.981 7.207" transform="translate(-182 -5336) translate(184 5338) translate(8.43 10.96)"/>
                    <path stroke="#FFF" stroke-linecap="round" stroke-linejoin="round" stroke-width="1.875" d="M75.21 160.495s2.526 4.591 1.981 7.207" transform="translate(-182 -5336) translate(184 5338) translate(8.43 10.96)"/>
                    <path fill="#000" d="M78.022 163.909s2.37 4.155 1.45 6.847" transform="translate(-182 -5336) translate(184 5338) translate(8.43 10.96)"/>
                    <path stroke="#FFF" stroke-linecap="round" stroke-linejoin="round" stroke-width="1.875" d="M78.022 163.909s2.37 4.155 1.45 6.847" transform="translate(-182 -5336) translate(184 5338) translate(8.43 10.96)"/>
                    <path fill="#000" d="M83.446 170.552s1.67 3.447.344 5.944" transform="translate(-182 -5336) translate(184 5338) translate(8.43 10.96)"/>
                    <path stroke="#FFF" stroke-linecap="round" stroke-linejoin="round" stroke-width="1.875" d="M83.446 170.552s1.67 3.447.344 5.944" transform="translate(-182 -5336) translate(184 5338) translate(8.43 10.96)"/>
                    <path fill="#000" d="M85.267 172.798s1.646 3.202.211 5.928" transform="translate(-182 -5336) translate(184 5338) translate(8.43 10.96)"/>
                    <path stroke="#FFF" stroke-linecap="round" stroke-linejoin="round" stroke-width="1.875" d="M85.267 172.798s1.646 3.202.211 5.928" transform="translate(-182 -5336) translate(184 5338) translate(8.43 10.96)"/>
                    <path fill="#000" d="M91.619 180.702s2.023 4 .416 6.637" transform="translate(-182 -5336) translate(184 5338) translate(8.43 10.96)"/>
                    <path stroke="#FFF" stroke-linecap="round" stroke-linejoin="round" stroke-width="1.875" d="M91.619 180.702s2.023 4 .416 6.637" transform="translate(-182 -5336) translate(184 5338) translate(8.43 10.96)"/>
                    <path fill="#000" d="M95.75 185.898s1.667 3.231.593 6.985" transform="translate(-182 -5336) translate(184 5338) translate(8.43 10.96)"/>
                    <path stroke="#FFF" stroke-linecap="round" stroke-linejoin="round" stroke-width="1.875" d="M95.75 185.898s1.667 3.231.593 6.985" transform="translate(-182 -5336) translate(184 5338) translate(8.43 10.96)"/>
                    <path fill="#000" d="M97.533 188.155s1.26 3.378-.056 6.188" transform="translate(-182 -5336) translate(184 5338) translate(8.43 10.96)"/>
                    <path stroke="#FFF" stroke-linecap="round" stroke-linejoin="round" stroke-width="1.875" d="M97.533 188.155s1.26 3.378-.056 6.188" transform="translate(-182 -5336) translate(184 5338) translate(8.43 10.96)"/>
                    <path fill="#000" d="M101.256 192.893s2.636 3.865 1.37 8.03" transform="translate(-182 -5336) translate(184 5338) translate(8.43 10.96)"/>
                    <path stroke="#FFF" stroke-linecap="round" stroke-linejoin="round" stroke-width="1.875" d="M101.256 192.893s2.636 3.865 1.37 8.03" transform="translate(-182 -5336) translate(184 5338) translate(8.43 10.96)"/>
                    <path fill="#000" d="M105.564 198.398s1.454 2.054 1.114 7.645" transform="translate(-182 -5336) translate(184 5338) translate(8.43 10.96)"/>
                    <path stroke="#FFF" stroke-linecap="round" stroke-linejoin="round" stroke-width="1.875" d="M105.564 198.398s1.454 2.054 1.114 7.645" transform="translate(-182 -5336) translate(184 5338) translate(8.43 10.96)"/>
                    <path fill="#000" d="M104.14 196.592s1.718 3.952.902 7.39" transform="translate(-182 -5336) translate(184 5338) translate(8.43 10.96)"/>
                    <path stroke="#FFF" stroke-linecap="round" stroke-linejoin="round" stroke-width="1.875" d="M104.14 196.592s1.718 3.952.902 7.39" transform="translate(-182 -5336) translate(184 5338) translate(8.43 10.96)"/>
                    <path fill="#000" d="M109.58 203.632s2.243 2.506.985 7.32" transform="translate(-182 -5336) translate(184 5338) translate(8.43 10.96)"/>
                    <path stroke="#FFF" stroke-linecap="round" stroke-linejoin="round" stroke-width="1.875" d="M109.58 203.632s2.243 2.506.985 7.32" transform="translate(-182 -5336) translate(184 5338) translate(8.43 10.96)"/>
                    <path fill="#000" d="M110.369 144.229c-.549-.457-1.485.809-1.485.809C79.28 179.83 56.23 210.642 56.23 210.642s-.026 2.963 2.754 2.13" transform="translate(-182 -5336) translate(184 5338) translate(8.43 10.96)"/>
                    <path stroke="#FFF" stroke-linecap="round" stroke-linejoin="round" stroke-width="1.875" d="M110.369 144.229c-.549-.457-1.485.809-1.485.809C79.28 179.83 56.23 210.642 56.23 210.642s-.026 2.963 2.754 2.13" transform="translate(-182 -5336) translate(184 5338) translate(8.43 10.96)"/>
                    <path fill="#000" d="M110.334 144.21c.598.393-.404 1.609-.404 1.609-26.522 37.077-50.855 66.938-50.855 66.938s-2.925.815-2.843-2.017" transform="translate(-182 -5336) translate(184 5338) translate(8.43 10.96)"/>
                    <path stroke="#FFF" stroke-linecap="round" stroke-linejoin="round" stroke-width="1.875" d="M110.334 144.21c.598.393-.404 1.609-.404 1.609-26.522 37.077-50.855 66.938-50.855 66.938s-2.925.815-2.843-2.017" transform="translate(-182 -5336) translate(184 5338) translate(8.43 10.96)"/>
                    <path fill="#000" d="M100.73 154.707s-1.665 2.563-.604 4.64" transform="translate(-182 -5336) translate(184 5338) translate(8.43 10.96)"/>
                    <path stroke="#FFF" stroke-linecap="round" stroke-linejoin="round" stroke-width="1.875" d="M100.73 154.707s-1.665 2.563-.604 4.64" transform="translate(-182 -5336) translate(184 5338) translate(8.43 10.96)"/>
                    <path fill="#000" d="M95.929 160.495s-2.526 4.591-1.981 7.207" transform="translate(-182 -5336) translate(184 5338) translate(8.43 10.96)"/>
                    <path stroke="#FFF" stroke-linecap="round" stroke-linejoin="round" stroke-width="1.875" d="M95.929 160.495s-2.526 4.591-1.981 7.207" transform="translate(-182 -5336) translate(184 5338) translate(8.43 10.96)"/>
                    <path fill="#000" d="M93.117 163.909s-2.37 4.155-1.45 6.847" transform="translate(-182 -5336) translate(184 5338) translate(8.43 10.96)"/>
                    <path stroke="#FFF" stroke-linecap="round" stroke-linejoin="round" stroke-width="1.875" d="M93.117 163.909s-2.37 4.155-1.45 6.847" transform="translate(-182 -5336) translate(184 5338) translate(8.43 10.96)"/>
                    <path fill="#000" d="M87.693 170.552s-1.67 3.447-.344 5.944" transform="translate(-182 -5336) translate(184 5338) translate(8.43 10.96)"/>
                    <path stroke="#FFF" stroke-linecap="round" stroke-linejoin="round" stroke-width="1.875" d="M87.693 170.552s-1.67 3.447-.344 5.944" transform="translate(-182 -5336) translate(184 5338) translate(8.43 10.96)"/>
                    <path fill="#000" d="M85.872 172.798s-1.647 3.202-.212 5.928" transform="translate(-182 -5336) translate(184 5338) translate(8.43 10.96)"/>
                    <path stroke="#FFF" stroke-linecap="round" stroke-linejoin="round" stroke-width="1.875" d="M85.872 172.798s-1.647 3.202-.212 5.928" transform="translate(-182 -5336) translate(184 5338) translate(8.43 10.96)"/>
                    <path fill="#000" d="M79.52 180.702s-2.023 4-.416 6.637" transform="translate(-182 -5336) translate(184 5338) translate(8.43 10.96)"/>
                    <path stroke="#FFF" stroke-linecap="round" stroke-linejoin="round" stroke-width="1.875" d="M79.52 180.702s-2.023 4-.416 6.637" transform="translate(-182 -5336) translate(184 5338) translate(8.43 10.96)"/>
                    <path fill="#000" d="M75.39 185.898s-1.668 3.231-.594 6.985" transform="translate(-182 -5336) translate(184 5338) translate(8.43 10.96)"/>
                    <path stroke="#FFF" stroke-linecap="round" stroke-linejoin="round" stroke-width="1.875" d="M75.39 185.898s-1.668 3.231-.594 6.985" transform="translate(-182 -5336) translate(184 5338) translate(8.43 10.96)"/>
                    <path fill="#000" d="M73.606 188.155s-1.26 3.378.056 6.188" transform="translate(-182 -5336) translate(184 5338) translate(8.43 10.96)"/>
                    <path stroke="#FFF" stroke-linecap="round" stroke-linejoin="round" stroke-width="1.875" d="M73.606 188.155s-1.26 3.378.056 6.188" transform="translate(-182 -5336) translate(184 5338) translate(8.43 10.96)"/>
                    <path fill="#000" d="M69.883 192.893s-2.637 3.865-1.37 8.03" transform="translate(-182 -5336) translate(184 5338) translate(8.43 10.96)"/>
                    <path stroke="#FFF" stroke-linecap="round" stroke-linejoin="round" stroke-width="1.875" d="M69.883 192.893s-2.637 3.865-1.37 8.03" transform="translate(-182 -5336) translate(184 5338) translate(8.43 10.96)"/>
                    <path fill="#000" d="M65.575 198.398s-1.455 2.054-1.114 7.645" transform="translate(-182 -5336) translate(184 5338) translate(8.43 10.96)"/>
                    <path stroke="#FFF" stroke-linecap="round" stroke-linejoin="round" stroke-width="1.875" d="M65.575 198.398s-1.455 2.054-1.114 7.645" transform="translate(-182 -5336) translate(184 5338) translate(8.43 10.96)"/>
                    <path fill="#000" d="M66.998 196.592s-1.717 3.952-.901 7.39" transform="translate(-182 -5336) translate(184 5338) translate(8.43 10.96)"/>
                    <path stroke="#FFF" stroke-linecap="round" stroke-linejoin="round" stroke-width="1.875" d="M66.998 196.592s-1.717 3.952-.901 7.39" transform="translate(-182 -5336) translate(184 5338) translate(8.43 10.96)"/>
                    <path fill="#000" d="M61.559 203.632s-2.243 2.506-.985 7.32" transform="translate(-182 -5336) translate(184 5338) translate(8.43 10.96)"/>
                    <path stroke="#FFF" stroke-linecap="round" stroke-linejoin="round" stroke-width="1.875" d="M61.559 203.632s-2.243 2.506-.985 7.32" transform="translate(-182 -5336) translate(184 5338) translate(8.43 10.96)"/>
                    <path stroke="#D1A448" stroke-linecap="round" stroke-linejoin="round" stroke-width="1.875" d="M85.313 157.773s-4.548-.568-2.463-5.685c0 0 .379-.757 1.895-3.032 1.516-2.274 1.326-3.79 1.326-3.79s3.601 4.359 3.411 8.339c-.189 3.979-2.463 3.979-4.169 4.168z" transform="translate(-182 -5336) translate(184 5338) translate(8.43 10.96)"/>
                    <path stroke="#D1A448" stroke-linecap="round" stroke-linejoin="round" stroke-width="1.875" d="M84.94 157.666s-2.28-.654-.805-3.805c0 0 .254-.463 1.21-1.826s.98-2.348.98-2.348 1.493 3.026 1.078 5.568c-.415 2.543-1.577 2.398-2.463 2.411z" transform="translate(-182 -5336) translate(184 5338) translate(8.43 10.96)"/>
                    <path stroke="#D1A448" stroke-linecap="round" stroke-linejoin="round" stroke-width="1.875" d="M84.934 157.773s-5.874-.757-5.685-8.148c0 0 .38-3.601 3.032-6.633 0 0-.758 2.274-.758 3.6 0 0 1.895-2.842 2.843-5.874.947-3.032.19-5.306.19-5.306s6.821 5.495 7.2 13.834c-.017.034-.091 4.726-2.842 7.58 0 0-2.085 1.516-3.98.947zM86.193 196.29s4.548.57 2.463 5.685c0 0-.379.759-1.895 3.033s-1.326 3.79-1.326 3.79-3.6-4.359-3.411-8.338c.19-3.98 2.463-3.98 4.169-4.17z" transform="translate(-182 -5336) translate(184 5338) translate(8.43 10.96)"/>
                    <path stroke="#D1A448" stroke-linecap="round" stroke-linejoin="round" stroke-width="1.875" d="M86.566 196.397s2.28.654.805 3.806c0 0-.254.463-1.21 1.826-.957 1.363-.98 2.348-.98 2.348s-1.493-3.026-1.078-5.569c.414-2.542 1.577-2.397 2.463-2.41z" transform="translate(-182 -5336) translate(184 5338) translate(8.43 10.96)"/>
                    <path stroke="#D1A448" stroke-linecap="round" stroke-linejoin="round" stroke-width="1.875" d="M86.572 196.29s5.874.759 5.685 8.15c0 0-.38 3.6-3.032 6.632 0 0 .758-2.274.758-3.6 0 0-1.895 2.842-2.843 5.874-.947 3.032-.19 5.306-.19 5.306s-6.821-5.495-7.2-13.834c.017-.034.09-4.726 2.842-7.58 0 0 2.085-1.516 3.98-.948z" transform="translate(-182 -5336) translate(184 5338) translate(8.43 10.96)"/>
                    <path stroke="#44E7D9" stroke-linecap="round" stroke-linejoin="round" stroke-width="1.875" d="M83.03 71.314s-12.039-.262-15.899 10.204c-3.621 9.817 4.197 15.053 3.92 15.174" transform="translate(-182 -5336) translate(184 5338) translate(8.43 10.96)"/>
                    <path stroke="#D1A448" stroke-linecap="round" stroke-linejoin="round" stroke-width="1.875" d="M83.742 95.756c-.712-1.424-5.22-8.306-9.73-6.882-4.508 1.424-3.198 7.817-3.198 7.817s-6.775-6.477-11.514-4.97c-5.22 1.662-1.623 7.493-1.623 7.493-.194-.314-6.246-6.911-1.225-9.865 0 0 4.696-3.16 11.721 3.996" transform="translate(-182 -5336) translate(184 5338) translate(8.43 10.96)"/>
                    <path stroke="#FBAE17" stroke-linecap="round" stroke-linejoin="round" stroke-width="1.875" d="M70.938 96.549c-.772.022-4.17-11.678 4.024-10.997 7.13.592 9.017 10.204 9.017 10.204-5.695-15.188 0-24.205 0-24.205v-2.61s-4.983-3.56-4.271-5.696c.712-2.135 3.797-1.898 4.983 0" transform="translate(-182 -5336) translate(184 5338) translate(8.43 10.96)"/>
                    <path stroke="#44E7D9" stroke-linecap="round" stroke-linejoin="round" stroke-width="1.875" d="M59.3 70.602s-6.17 1.877-7.831 10.56" transform="translate(-182 -5336) translate(184 5338) translate(8.43 10.96)"/>
                    <path stroke="#D1A448" stroke-linecap="round" stroke-linejoin="round" stroke-width="1.875" d="M84.691 68.229s-4.034-2.848-2.61-4.034 2.61 1.186 2.61 1.186M98.444 96.64c.772.023 4.17-11.676-4.024-10.996-7.13.592-9.017 10.204-9.017 10.204 5.695-15.187 0-24.205 0-24.205v-2.61s4.983-3.56 4.272-5.695c-.712-2.136-3.797-1.899-4.984 0" transform="translate(-182 -5336) translate(184 5338) translate(8.43 10.96)"/>
                    <path stroke="#D1A448" stroke-linecap="round" stroke-linejoin="round" stroke-width="1.875" d="M84.691 68.321s4.034-2.847 2.61-4.034c-1.423-1.186-2.61 1.187-2.61 1.187" transform="translate(-182 -5336) translate(184 5338) translate(8.43 10.96)"/>
                    <path stroke="#44E7D9" stroke-linecap="round" stroke-linejoin="round" stroke-width="1.875" d="M110.259 99.843s13.526-7.356 7.593-23.493c-5.932-16.137-29.188-7.12-32.035-4.983 0 0 12.038-.263 15.899 10.203 3.62 9.818-4.197 15.054-3.92 15.174" transform="translate(-182 -5336) translate(184 5338) translate(8.43 10.96)"/>
                    <path stroke="#D1A448" stroke-linecap="round" stroke-linejoin="round" stroke-width="1.875" d="M100.673 93.398c7.026-7.157 11.721-3.997 11.721-3.997 5.022 2.954-1.03 9.552-1.224 9.865 0 0 3.597-5.83-1.623-7.491-4.74-1.509-11.514 4.97-11.514 4.97s1.31-6.394-3.199-7.818c-4.509-1.424-8.305 5.458-9.018 6.881l-2.074-.052c-15.9-.712-27.052 5.932-27.052 5.932.712 2.848 2.373 2.61 2.373 2.61s6.233-6.088 23.967-5.932l2.786.053c17.27.159 24.443 5.695 24.443 5.695s1.186.475 1.898-2.373c0 0-11.153-6.644-27.052-5.933" transform="translate(-182 -5336) translate(184 5338) translate(8.43 10.96)"/>
                    <path stroke="#44E7D9" stroke-linecap="round" stroke-linejoin="round" stroke-width="1.875" d="M70.813 96.692s-12.7-18.26 12.217-25.615M98.166 97.031s12.7-18.259-12.217-25.615" transform="translate(-182 -5336) translate(184 5338) translate(8.43 10.96)"/>
                    <path stroke="#D1A448" stroke-linecap="round" stroke-linejoin="round" stroke-width="1.875" d="M83.98 71.314s.711.474 1.423 0" transform="translate(-182 -5336) translate(184 5338) translate(8.43 10.96)"/>
                    <path stroke="#FFF" stroke-linecap="round" stroke-linejoin="round" stroke-width="1.875" d="M60.724 93.857L60.486 95.993 62.147 97.654 62.385 95.282zM75.192 91.019L74.514 93.058 75.792 95.029 76.519 92.758zM108.046 93.778L108.284 95.913 106.622 97.575 106.385 95.201zM93.578 90.939L94.256 92.978 92.978 94.95 92.251 92.678z" transform="translate(-182 -5336) translate(184 5338) translate(8.43 10.96)"/>
                    <path stroke="#D1A448" stroke-linecap="round" stroke-linejoin="round" stroke-width="1.875" d="M56.964 102.301s1.387-.85 1.861-1.087M56.964 102.301s1.387-.85 1.861-1.087M57.261 102.819s.988-.606 1.326-.775M57.444 103.591s1.387-.85 1.862-1.088M58.017 103.875s.988-.605 1.327-.775" transform="translate(-182 -5336) translate(184 5338) translate(8.43 10.96)"/>
                    <path stroke="#44E7D9" stroke-linecap="round" stroke-linejoin="round" stroke-width="1.875" d="M58.673 99.833S45.147 92.477 51.08 76.34c5.932-16.137 29.188-7.119 32.035-4.983" transform="translate(-182 -5336) translate(184 5338) translate(8.43 10.96)"/>
                    <path fill="#44E7D9" d="M136.557 149.058L135.979 146.428 133.427 145.453 136.057 145.122 136.786 142.322 137.364 145.2 139.917 145.681 137.286 146.259zM153.49 122.904L153.133 121.283 151.56 120.682 153.182 120.477 153.631 118.752 153.987 120.525 155.561 120.822 153.939 121.179zM128.326 120.11L127.554 116.604 124.154 115.304 127.659 114.862 128.63 111.132 129.4 114.967 132.802 115.608 129.297 116.379zM146.873 71.211L146.517 69.59 144.943 68.989 146.565 68.784 147.014 67.059 147.37 68.832 148.944 69.129 147.322 69.486zM129.665 81.074c-.132-.314.016-.676.33-.808s.675.015.807.33c.132.313-.016.675-.33.807-.313.132-.675-.015-.807-.33M139.334 208.862L138.755 206.231 136.204 205.256 138.833 204.925 139.562 202.126 140.14 205.003 142.693 205.484 140.063 206.062zM131.102 179.913L130.331 176.407 126.93 175.108 130.435 174.666 131.406 170.935 132.177 174.77 135.579 175.411 132.073 176.182zM147.617 89.28c-.132-.314.015-.675.33-.807.313-.132.675.015.807.33.132.314-.016.675-.33.807s-.675-.015-.807-.33M126.657 193.733c-.073-.175.008-.376.183-.449.174-.074.375.008.449.183.073.174-.009.375-.183.448-.175.074-.376-.008-.449-.182M99.602 23.436L98.972 20.57 96.191 19.508 99.056 19.147 99.85 16.097 100.48 19.232 103.261 19.756 100.396 20.386zM125.68 47.254c0 .34-.276.616-.617.616-.34 0-.616-.276-.616-.616 0-.341.276-.617.616-.617.34 0 .617.276.617.617M149.249 49.902L148.774 47.741 146.678 46.94 148.838 46.668 149.437 44.368 149.911 46.732 152.008 47.127 149.848 47.602zM30.86 81.633L31.438 84.264 33.99 85.238 31.36 85.57 30.631 88.369 30.053 85.492 27.501 85.011 30.131 84.432zM20.672 100.368L21.028 101.99 22.601 102.591 20.98 102.795 20.531 104.521 20.174 102.747 18.601 102.451 20.222 102.094zM39.092 110.582L39.863 114.088 43.263 115.387 39.759 115.83 38.787 119.56 38.017 115.725 34.615 115.084 38.12 114.313zM32.01 160.492L32.366 162.114 33.939 162.715 32.318 162.919 31.869 164.645 31.513 162.871 29.939 162.575 31.56 162.218zM54.95 150.293c.133.314-.015.675-.329.807s-.675-.015-.807-.33c-.132-.313.015-.675.33-.807.313-.132.675.015.807.33M51.689 15.085L52.268 17.716 54.82 18.69 52.19 19.022 51.461 21.822 50.883 18.944 48.331 18.463 50.961 17.884zM36.315 50.779L37.086 54.285 40.487 55.584 36.982 56.026 36.011 59.757 35.241 55.922 31.838 55.281 35.344 54.51zM35.987 142.423c.133.314-.015.675-.33.807-.313.132-.674-.015-.806-.329-.133-.314.015-.675.329-.808.314-.132.675.016.807.33M40.76 36.96c.074.174-.008.374-.183.448-.174.073-.375-.009-.449-.183-.073-.174.01-.375.184-.449.174-.073.375.009.448.183M39.825 193.429L40.456 196.295 43.236 197.357 40.37 197.719 39.576 200.768 38.947 197.633 36.165 197.109 39.031 196.479zM57.25 174.333c0-.34.276-.617.617-.617.34 0 .616.276.616.617 0 .34-.276.617-.616.617-.34 0-.617-.276-.617-.617M20.529 169.999L21.004 172.159 23.1 172.96 20.94 173.233 20.341 175.532 19.866 173.169 17.77 172.773 19.93 172.298zM136.653 30.734L136.023 27.868 133.243 26.806 136.108 26.444 136.902 23.395 137.531 26.529 140.313 27.054 137.447 27.684zM64.239 42.244L65.011 45.75 68.411 47.049 64.906 47.491 63.935 51.222 63.165 47.387 59.763 46.746 63.268 45.975zM72.057 28.087c.073.175-.009.376-.183.449-.175.073-.375-.009-.449-.183-.073-.174.009-.375.183-.449.174-.073.375.009.449.183M97.86 42.016c-.2-.477.024-1.027.5-1.228.478-.2 1.028.024 1.228.501.201.477-.023 1.027-.5 1.227-.477.2-1.027-.023-1.228-.5M99.886 119.109L99.316 116.516 96.801 115.555 99.393 115.228 100.111 112.469 100.681 115.305 103.198 115.779 100.605 116.35zM64.926 130.115L65.389 132.221 67.433 133.002 65.327 133.268 64.743 135.509 64.28 133.205 62.236 132.82 64.342 132.356zM61.233 111.404c.073.174-.009.375-.183.448-.175.074-.375-.008-.449-.183-.073-.174.009-.375.183-.449.174-.073.375.009.449.184M87.036 125.332c-.2-.477.024-1.027.501-1.228.477-.2 1.027.024 1.228.501.2.478-.024 1.027-.501 1.228-.477.2-1.027-.024-1.228-.501" transform="translate(-182 -5336) translate(184 5338) translate(8.43 10.96)"/>
                </g>
            </g>
        </g>
    </g>
</svg>
