<svg xmlns="http://www.w3.org/2000/svg" width="191" height="267" viewBox="0 0 191 267"><title>Семёрка Жезлов</title>
    <g fill="none" fill-rule="evenodd">
        <g>
            <g>
                <path fill="#2a1612" stroke="#FFF" stroke-linecap="round" stroke-linejoin="round" stroke-width="2.5" d="M177.795 263.26H9.62c-5.22 0-9.452-4.194-9.452-9.366V9.407C.169 4.234 4.4.042 9.62.042h168.174c5.22 0 9.452 4.192 9.452 9.365v244.487c0 5.172-4.232 9.365-9.452 9.365z" transform="translate(-777 -4616) translate(779 4618)"/>
                <path fill="#44E7D9" fill-rule="nonzero" d="M57.214 251.706c.893 0 1.575-.198 2.046-.593.471-.395.707-.95.707-1.664v-.845c0-.953-.439-1.667-1.316-2.144l-1.9-1.055c-.66-.357-.99-.893-.99-1.608v-.925c0-.932.606-1.397 1.818-1.397.823 0 1.495.092 2.014.276v-.78c-.563-.162-1.253-.243-2.07-.243-.818 0-1.451.192-1.9.576-.45.385-.674.918-.674 1.6v.942c0 .985.454 1.727 1.364 2.225l1.9 1.039c.357.195.603.406.739.633.135.228.203.53.203.91v.796c0 1.006-.682 1.51-2.046 1.51-.758 0-1.457-.114-2.095-.341v.78c.573.205 1.307.308 2.2.308zm9.021-.081v-.731h-3.67v-4.352h3.2v-.731h-3.2v-4.271h3.67v-.73h-4.482v10.815h4.482zm4.498 0l2.436-10.816h-.844c-1.267 5.716-1.992 9.035-2.176 9.955-.152-.736-.877-4.055-2.176-9.955h-.845l2.436 10.816h1.17zm8.38 0v-.731h-3.67v-4.352h3.2v-.731h-3.2v-4.271h3.67v-.73h-4.482v10.815h4.482zm2.663 0v-6.139l-.03-3.012-.002-.201v-.067c.4 1.039 1.635 4.179 3.702 9.419h1.072v-10.816h-.812v6.171l.033 3.28c-.13-.346-1.364-3.496-3.703-9.45h-1.055v10.815h.795zm12.683.162c.856 0 1.5-.23 1.933-.69.433-.46.65-1.058.65-1.795v-6.17c0-.737-.217-1.335-.65-1.795-.433-.46-1.077-.69-1.933-.69-.855 0-1.5.23-1.932.69-.433.46-.65 1.058-.65 1.794v6.171c0 .737.217 1.335.65 1.795.433.46 1.077.69 1.932.69zm0-.73c-1.18 0-1.77-.585-1.77-1.755v-6.17c0-1.17.59-1.754 1.77-1.754 1.18 0 1.77.584 1.77 1.753v6.171c0 1.17-.59 1.754-1.77 1.754zm5.668.568v-4.921h3.378v-.73h-3.378v-4.434h3.524v-.73h-4.336v10.815h.812zm8.964 0v-4.921h3.378v-.73h-3.378v-4.434h3.524v-.73h-4.336v10.815h.812zm5.879 0v-10.816h-.812v10.816h.812zm3.248 0v-4.466h1.575c.173 0 .303-.006.39-.016l1.607 4.482h.893l-1.705-4.661c.931-.347 1.397-1.094 1.397-2.241v-1.478c0-.736-.217-1.326-.65-1.77-.433-.444-1.077-.666-1.932-.666h-2.387v10.816h.812zm1.575-5.23h-1.575v-4.855h1.575c1.18 0 1.77.568 1.77 1.705v1.478c0 1.115-.59 1.672-1.77 1.672zm9.403 5.23v-.731h-3.67v-4.352h3.199v-.731h-3.2v-4.271h3.67v-.73h-4.482v10.815h4.483z" transform="translate(-777 -4616) translate(779 4618)"/>
                <g>
                    <path stroke="#FFF" stroke-linecap="round" stroke-linejoin="round" stroke-width="1.875" d="M99.731 3.838L164.033 3.838 164.033 224.928M15.929 3.838L68.028 3.838M153.964 237.774L126.971 237.774M5.536 14.688L5.536 237.774 39.351 237.774" transform="translate(-777 -4616) translate(779 4618) translate(8.108 10.904)"/>
                    <path fill="#000" d="M5.263 0.025L7.885 4.525 10.508 9.025 5.263 9.025 0.018 9.025 2.641 4.525z" transform="translate(-777 -4616) translate(779 4618) translate(8.108 10.904)"/>
                    <path stroke="#D1A448" stroke-linecap="round" stroke-linejoin="round" stroke-width="1.875" d="M5.263 0.025L7.885 4.525 10.508 9.025 5.263 9.025 0.018 9.025 2.641 4.525z" transform="translate(-777 -4616) translate(779 4618) translate(8.108 10.904)"/>
                    <path fill="#000" d="M164.198 242.27L161.575 237.77 158.953 233.27 164.198 233.27 169.442 233.27 166.82 237.77z" transform="translate(-777 -4616) translate(779 4618) translate(8.108 10.904)"/>
                    <path stroke="#D1A448" stroke-linecap="round" stroke-linejoin="round" stroke-width="1.875" d="M164.198 242.27L161.575 237.77 158.953 233.27 164.198 233.27 169.442 233.27 166.82 237.77z" transform="translate(-777 -4616) translate(779 4618) translate(8.108 10.904)"/>
                </g>
                <path fill="#44E7D9" fill-rule="nonzero" d="M89.489 18.161l2.436-10.816h-.845c-1.266 5.717-1.992 9.035-2.176 9.955-.151-.736-.877-4.054-2.176-9.955h-.844l2.436 10.816h1.169zm4.71 0V7.345h-.813v10.816h.812zm3.247 0V7.345h-.812v10.816h.812z" transform="translate(-777 -4616) translate(779 4618)"/>
                <g>
                    <path stroke="#FFF" stroke-linecap="round" stroke-linejoin="round" stroke-width="1.875" d="M85.484 88.324c-.698-.203-.16-1.7-.16-1.7 12.61-44.422 25.577-81.106 25.577-81.106s2.493-1.691 3.369 1.108" transform="translate(-777 -4616) translate(779 4618) translate(25 24.627)"/>
                    <path stroke="#FFF" stroke-linecap="round" stroke-linejoin="round" stroke-width="1.875" d="M85.448 88.306c.673.28 1.132-1.246 1.132-1.246 16.295-43.124 27.728-80.348 27.728-80.348s-.973-2.912-3.323-1.248M88.87 74.34s1.222-2.84 3.583-3.12M91.038 67.054s2.45-4.705 4.972-5.722M92.328 62.773s2.169-4.328 4.97-5.073M94.865 54.482s1.968-3.34 4.836-3.637M95.73 51.691s1.774-3.185 4.898-3.518M98.808 41.912s2.235-3.95 5.38-4.088M100.856 35.521s1.786-3.218 5.574-4.432M101.752 32.754s2.141-2.96 5.268-3.438M103.645 26.964s1.77-4.388 6.015-5.673M105.854 20.25s.91-2.376 5.836-5.241M105.134 22.461s2.369-3.666 5.741-4.918M108 13.935s.844-3.293 5.634-4.95M67.601 86.664c-.716.13-.917-1.446-.917-1.446C57.677 39.943 52.52 1.413 52.52 1.413s1.452-2.625 3.51-.52" transform="translate(-777 -4616) translate(779 4618) translate(25 24.627)"/>
                    <path stroke="#FFF" stroke-linecap="round" stroke-linejoin="round" stroke-width="1.875" d="M67.56 86.663c.728-.052.442-1.618.442-1.618C62.876 39.278 56.103.952 56.103.952s-2.195-2.162-3.533.375M64.246 72.672s-.205-3.08 1.773-4.388M62.857 65.201s.04-5.293 1.827-7.33M62.056 60.804s-.038-4.831 2.121-6.75M60.54 52.273s.232-3.862 2.655-5.41M60.04 49.395s.129-3.635 2.764-5.33M58.325 39.293s.193-4.524 2.935-6.054M57.239 32.675s.126-3.67 2.951-6.449M56.776 29.806s.561-3.599 3.132-5.426M55.825 23.792s-.421-4.707 2.78-7.752M54.734 16.815s-.27-2.528 2.817-7.288M55.1 19.11s.442-4.331 2.88-6.958M53.769 10.22s-.748-3.316 2.77-6.939M77.317 93.712c-.727-.012-.61-1.597-.61-1.597.194-46.145 2.817-84.926 2.817-84.926s1.948-2.29 3.546.178" transform="translate(-777 -4616) translate(779 4618) translate(25 24.627)"/>
                    <path stroke="#FFF" stroke-linecap="round" stroke-linejoin="round" stroke-width="1.875" d="M77.278 93.703c.724.092.755-1.5.755-1.5C82.13 46.335 83.13 7.44 83.13 7.44s-1.72-2.55-3.538-.324M76.817 79.339s.413-3.06 2.612-3.954M76.944 71.744s1.095-5.181 3.253-6.828M77.036 67.277s.925-4.744 3.424-6.202M77.25 58.617s.997-3.74 3.68-4.784M77.332 55.697s.852-3.537 3.773-4.684M77.666 45.46s1.09-4.398 4.084-5.362M77.92 38.76s.854-3.574 4.178-5.745M78.038 35.856s1.267-3.418 4.152-4.706M78.304 29.775s.525-4.697 4.27-7.057M78.625 22.721s.239-2.53 4.214-6.593M78.527 25.042s1.296-4.16 4.21-6.258M78.993 16.067s-.071-3.396 4.098-6.26M51.136 93.848c-.588.426-1.46-.909-1.46-.909C21.741 56.015.226 23.513.226 23.513s.16-2.99 2.937-1.976" transform="translate(-777 -4616) translate(779 4618) translate(25 24.627)"/>
                    <path stroke="#FFF" stroke-linecap="round" stroke-linejoin="round" stroke-width="1.875" d="M51.1 93.865c.632-.36-.311-1.648-.311-1.648C26.135 53.182 3.254 21.558 3.254 21.558S.33 20.554.234 23.414M41.987 82.682s-1.533-2.687-.323-4.715M37.466 76.548s-2.281-4.788-1.562-7.39M34.819 72.93s-2.15-4.337-1.044-6.993M29.718 65.895s-1.482-3.58.024-6.015M28.007 63.516s-1.474-3.33.158-5.99M22.04 55.15s-1.806-4.159-.005-6.716M18.164 49.655s-1.493-3.362-.163-7.08M16.491 47.268s-1.07-3.484.447-6.235M13.002 42.258s-2.44-4.06-.89-8.18M8.965 36.44s-1.351-2.162-.653-7.778M10.299 38.35s-1.498-4.092-.452-7.507M5.207 30.912s-2.124-2.666-.541-7.441M95.648 100.455c-.651-.322.144-1.702.144-1.702 20.275-41.544 39.534-75.407 39.534-75.407s2.754-1.232 3.12 1.676" transform="translate(-777 -4616) translate(779 4618) translate(25 24.627)"/>
                    <path stroke="#FFF" stroke-linecap="round" stroke-linejoin="round" stroke-width="1.875" d="M95.616 100.43c.613.392 1.335-1.03 1.335-1.03 23.675-39.626 41.518-74.287 41.518-74.287s-.443-3.035-3.05-1.805M101.457 87.275s1.705-2.584 4.08-2.45M104.88 80.478s3.245-4.206 5.908-4.769M106.908 76.487s2.901-3.883 5.79-4.13M110.873 68.766s2.529-2.947 5.404-2.74M112.22 66.169s2.309-2.828 5.443-2.613M116.98 57.075s2.9-3.5 6.019-3.09M120.127 51.14s2.328-2.858 6.272-3.396M121.498 48.571s2.632-2.542 5.795-2.47M124.387 43.2s2.52-4.013 6.925-4.54M127.75 36.974s1.317-2.182 6.673-4.147M126.65 39.025s2.98-3.198 6.523-3.845M130.98 31.128s1.414-3.094 6.423-3.894M62.2 96.645c-.673.272-1.193-1.231-1.193-1.231C42.919 52.89 29.98 16.197 29.98 16.197s.885-2.862 3.332-1.214" transform="translate(-777 -4616) translate(779 4618) translate(25 24.627)"/>
                    <path stroke="#FFF" stroke-linecap="round" stroke-linejoin="round" stroke-width="1.875" d="M62.161 96.653c.702-.198.101-1.674.101-1.674-14.388-43.785-28.866-79.953-28.866-79.953s-2.593-1.676-3.384 1.077M56.05 83.618s-.83-2.975.839-4.652M53.162 76.582s-1.045-5.192.288-7.544M51.477 72.437s-1.026-4.723.695-7.035M48.246 64.388s-.564-3.828 1.492-5.83M47.166 61.67s-.617-3.585 1.616-5.774M43.42 52.123s-.737-4.469 1.635-6.518M41.001 45.861s-.628-3.62 1.57-6.908M39.961 43.145s-.188-3.637 1.956-5.943M37.798 37.447s-1.376-4.524 1.135-8.15M35.302 30.834s-.783-2.42 1.266-7.703M36.13 33.007s-.454-4.33 1.395-7.392M33.006 24.57s-1.41-3.097 1.292-7.35M77.798 202.284c-.048 1.36-.077 2.08-.077 2.08s-1.886 2.34-3.549-.084M77.603 117.814c.727-.007.654 1.58.654 1.58.6 26.517.333 50.623-.002 66.329" transform="translate(-777 -4616) translate(779 4618) translate(25 24.627)"/>
                    <path stroke="#FFF" stroke-linecap="round" stroke-linejoin="round" stroke-width="1.875" d="M74.112 203.018l-.002 1.192s1.79 2.503 3.546.23M77.642 117.822c-.726-.073-.715 1.519-.715 1.519-1.719 27.593-2.39 52.645-2.65 68.26M78.489 132.17s-.33 3.069-2.505 4.021M78.565 139.764s-.955 5.21-3.067 6.912M78.594 144.233s-.797 4.766-3.256 6.29M78.613 152.895s-.896 3.765-3.551 4.879M78.609 155.816s-.756 3.559-3.645 4.781M78.55 166.058s-.972 4.425-3.938 5.468M78.477 172.763s-.759 3.595-4.023 5.853M78.437 175.669s-1.175 3.45-4.024 4.814M78.334 181.755s-.222 2.627-1.868 4.98" transform="translate(-777 -4616) translate(779 4618) translate(25 24.627)"/>
                    <path stroke="#D1A448" stroke-linecap="round" stroke-linejoin="round" stroke-width="1.875" d="M84.302 188.411s.101.792.435 1.287M83.268 186.664s-.6-.461-.702-1.253M73.515 185.272s-.64.548-1.705.682c-1.066.133-1.464 1.256-1.464 1.256s-1.056 2.327-1.42 3.713c-.365 1.387-2.1 2.642-2.1 2.642l-4.57 2.692-3.208 1.99M81.967 183.172s.165.953-.834 1.614c-.998.661-2.363.564-2.596.862-.233.297-3.329 1.49-4.327 2.15-.998.662-1.264.695-1.996 1.323-.732.627-1.13 1.75-1.13 1.75M72.747 189.054s-1.231.959-1.063 2.278" transform="translate(-777 -4616) translate(779 4618) translate(25 24.627)"/>
                    <path stroke="#D1A448" stroke-linecap="round" stroke-linejoin="round" stroke-width="1.875" d="M81.133 184.786s1.865-.233 2.199.26c.334.496.667.99.735 1.518.067.528-.631 1.42-1.13 1.75-.5.33-2.53 1.39-2.53 1.39M83.935 187.653s.8-.1 1.2.922c.401 1.023.202 1.584-.53 2.212-.731.628-1.73 1.289-2.195 1.883M85.475 193.36s.833.163 1.234 1.185c0 0 .334.495-.597 1.684-.931 1.19-1.13 1.75-2.361 2.71-1.231.957-4.991 3.305-7.389 3.606-2.397.3-7.141 1.278-9.536 2.853-2.395 1.575-3.04 2.045-3.04 2.045M80.913 193.663s-1.231.958-2.263 1.355M80.977 192.046s-.6-.462-.667-.99M80.778 192.607s-1.133-.395-1.268-1.45M82.248 195.64s-.6-.46-.668-.989M82.082 196.465s-1.099-.13-1.267-1.45M83.616 197.882s-.266.034-.9-.691M84.382 197.518s-.867-.428-1.234-1.186M79.207 188.781s-.6-.46-1.267-1.45M78.475 189.41s-.866-.428-1.233-1.187M84.841 192.634s-.334-.494-.4-1.022M86.21 194.876s-.867-.428-.934-.955" transform="translate(-777 -4616) translate(779 4618) translate(25 24.627)"/>
                    <path stroke="#D1A448" stroke-linecap="round" stroke-linejoin="round" stroke-width="1.875" d="M84.906 191.017s.9.692.502 1.814c-.398 1.123-1.828 2.643-1.828 2.643M81.177 183.436s-1.61.871-2.074.125M68.197 203.22s.903-1.201 1.507-1.502l1.207-.603M77.87 123.496s-4.556-.154-2.95-5.361c0 0 .308-.778 1.606-3.144 1.299-2.366.975-3.837.975-3.837s3.957 3.958 4.126 7.88c.168 3.924-2.084 4.125-3.757 4.462z" transform="translate(-777 -4616) translate(779 4618) translate(25 24.627)"/>
                    <path stroke="#D1A448" stroke-linecap="round" stroke-linejoin="round" stroke-width="1.875" d="M77.49 123.424s-2.316-.44-1.138-3.663c0 0 .21-.477 1.036-1.9.825-1.422.761-2.392.761-2.392s1.749 2.839 1.566 5.37c-.183 2.533-1.347 2.494-2.225 2.585z" transform="translate(-777 -4616) translate(779 4618) translate(25 24.627)"/>
                    <path stroke="#D1A448" stroke-linecap="round" stroke-linejoin="round" stroke-width="1.875" d="M77.495 123.53s-5.888-.223-6.362-7.493c0 0 .054-3.568 2.41-6.78 0 0-.547 2.3-.428 3.602 0 0 1.622-2.958 2.29-6.018.667-3.06-.288-5.224-.288-5.224s7.25 4.788 8.373 12.938c-.015.036.332 4.647-2.138 7.692 0 0-1.929 1.673-3.857 1.283z" transform="translate(-777 -4616) translate(779 4618) translate(25 24.627)"/>
                    <path fill="#44E7D9" d="M114.034 134.317L114.613 136.928 117.17 137.895 114.535 138.225 113.805 141.003 113.226 138.147 110.669 137.669 113.304 137.095zM101.801 155.255L102.158 156.865 103.734 157.461 102.11 157.664 101.66 159.377 101.303 157.616 99.726 157.322 101.351 156.968zM129.805 165.729c.19.447-.022.962-.474 1.15-.45.188-.97-.022-1.16-.469-.19-.447.022-.962.473-1.15.451-.188.971.022 1.161.469M126.118 88.015L126.697 90.625 129.253 91.593 126.619 91.922 125.889 94.7 125.31 91.844 122.753 91.367 125.387 90.793zM96.864 112.061L97.637 115.541 101.044 116.83 97.533 117.269 96.56 120.972 95.788 117.166 92.38 116.529 95.891 115.764zM129.02 115.75c.073.173-.008.372-.183.445-.175.073-.376-.009-.45-.182-.073-.173.009-.372.183-.445.175-.073.376.008.45.182M33.868 140.825L34.447 143.436 37.004 144.404 34.369 144.733 33.639 147.511 33.06 144.656 30.503 144.178 33.138 143.604zM20.959 106.536L21.316 108.146 22.892 108.743 21.268 108.945 20.818 110.658 20.461 108.898 18.884 108.603 20.509 108.249zM39.714 120.711c.175.414-.02.89-.438 1.064-.418.174-.899-.02-1.074-.434-.176-.414.02-.89.438-1.064.417-.174.898.02 1.074.434M57.438 104.23L58.017 106.84 60.574 107.808 57.939 108.137 57.209 110.916 56.63 108.059 54.073 107.582 56.708 107.008zM63.658 134.636L64.43 138.115 67.837 139.405 64.326 139.844 63.353 143.546 62.581 139.74 59.173 139.104 62.685 138.339zM55.948 155.394c.074.174-.008.373-.183.446-.175.073-.376-.009-.45-.182-.073-.173.01-.372.184-.445.175-.073.376.008.45.181M34.633 91.785c.175.414-.021.89-.438 1.064-.418.174-.899-.02-1.074-.434-.176-.414.02-.89.438-1.064.417-.174.898.02 1.074.434" transform="translate(-777 -4616) translate(779 4618) translate(25 24.627)"/>
                </g>
            </g>
        </g>
    </g>
</svg>
