<svg xmlns="http://www.w3.org/2000/svg" width="191" height="269" viewBox="0 0 191 269"><title>Шестёрка Кубков</title>
    <g fill="none" fill-rule="evenodd">
        <g>
            <g>
                <path fill="#152230" stroke="#FFF" stroke-linecap="round" stroke-linejoin="round" stroke-width="2.5" d="M177.795 266.063H9.62c-5.22 0-9.452-4.233-9.452-9.453V9.838C.169 4.617 4.4.385 9.62.385h168.174c5.22 0 9.452 4.232 9.452 9.453V256.61c0 5.22-4.232 9.453-9.452 9.453z" transform="translate(-486 -1515) translate(488 1516)"/>
                <path fill="#D1A448" fill-rule="nonzero" d="M61.157 254.201c.893 0 1.575-.198 2.046-.593.47-.395.706-.95.706-1.664v-.845c0-.952-.438-1.667-1.315-2.143l-1.9-1.056c-.66-.357-.99-.893-.99-1.608v-.925c0-.931.605-1.397 1.818-1.397.823 0 1.494.092 2.014.276v-.78c-.563-.162-1.253-.243-2.07-.243-.818 0-1.452.192-1.9.577-.45.384-.675.917-.675 1.6v.941c0 .985.455 1.727 1.364 2.225l1.9 1.04c.358.194.604.405.74.633.135.227.202.53.202.909v.796c0 1.007-.682 1.51-2.046 1.51-.758 0-1.456-.114-2.095-.341v.78c.574.205 1.307.308 2.2.308zm5.35-.081v-10.816h-.811v10.816h.812zm2.355 0l1.884-4.417 1.884 4.417h.893l-2.371-5.408 2.371-5.408h-.893l-1.884 4.434-1.884-4.434h-.893l2.355 5.408-2.355 5.408h.893zm11.628.162c.855 0 1.5-.23 1.932-.69.433-.46.65-1.058.65-1.794v-6.171c0-.737-.217-1.335-.65-1.795-.433-.46-1.077-.69-1.932-.69-.856 0-1.5.23-1.933.69-.433.46-.65 1.058-.65 1.795v6.17c0 .737.217 1.335.65 1.795.433.46 1.077.69 1.933.69zm0-.73c-1.18 0-1.77-.585-1.77-1.754v-6.171c0-1.17.59-1.754 1.77-1.754 1.18 0 1.77.584 1.77 1.754v6.17c0 1.17-.59 1.754-1.77 1.754zm5.667.568v-4.92h3.378v-.732h-3.378v-4.433h3.524v-.73h-4.336v10.815h.812zm10.394 0l.99-5.717c.238-1.364.412-2.636.52-3.816.119 1.18.628 4.358 1.526 9.533h1.17l1.883-10.816h-.844c-.899 5.446-1.44 8.808-1.624 10.085l-.422-2.842-1.202-7.243h-.958l-1.202 7.227c-.162.953-.303 1.905-.422 2.858l-.422-2.842-1.202-7.243h-.844l1.883 10.816h1.17zm7.665 0l.73-3.167h3.086l.73 3.167h.845l-2.533-10.816h-1.17l-2.533 10.816h.845zm3.653-3.898h-2.76l1.38-5.992 1.38 5.992zm5.18 3.898v-10.085h2.144v-.73h-5.099v.73h2.144v10.085h.812zm8.007 0v-.731h-3.67v-4.352h3.199v-.73h-3.2v-4.272h3.67v-.73h-4.481v10.815h4.482zm2.68 0v-4.466h1.575c.173 0 .303-.005.39-.016l1.607 4.482h.893l-1.705-4.66c.931-.347 1.397-1.094 1.397-2.242v-1.478c0-.736-.217-1.326-.65-1.77-.433-.444-1.077-.666-1.932-.666h-2.388v10.816h.812zm1.575-5.23h-1.576v-4.855h1.576c1.18 0 1.77.568 1.77 1.705v1.478c0 1.115-.59 1.673-1.77 1.673z" transform="translate(-486 -1515) translate(488 1516)"/>
                <g stroke="#FFF" stroke-linecap="round" stroke-linejoin="round" stroke-width="1.875">
                    <path d="M92.083.496L158.54.496 158.54 223.652M10.436.496L66.955.496M148.471 236.617L121.865 236.617M37.913 236.617L.043 236.617.043 11.447" transform="translate(-486 -1515) translate(488 1516) translate(14.19 14.574)"/>
                </g>
                <path fill="#D1A448" fill-rule="nonzero" d="M92.67 19.102l2.435-10.815h-.844c-1.267 5.716-1.992 9.034-2.177 9.954-.151-.736-.876-4.054-2.176-9.954h-.844L91.5 19.102h1.17zm4.709 0V8.287h-.812v10.815h.812z" transform="translate(-486 -1515) translate(488 1516)"/>
                <g>
                    <path fill="#000" d="M164.444 233.846L167.067 238.388 169.689 242.931 164.444 242.931 159.2 242.931 161.822 238.388z" transform="translate(-486 -1515) translate(488 1516) translate(8.446 11.196)"/>
                    <path stroke="#44E7D9" stroke-linecap="round" stroke-linejoin="round" stroke-width="1.875" d="M164.444 233.846L167.067 238.388 169.689 242.931 164.444 242.931 159.2 242.931 161.822 238.388z" transform="translate(-486 -1515) translate(488 1516) translate(8.446 11.196)"/>
                    <path fill="#000" d="M5.573 9.11L2.95 4.567 0.328 0.025 5.573 0.025 10.817 0.025 8.195 4.567z" transform="translate(-486 -1515) translate(488 1516) translate(8.446 11.196)"/>
                    <path stroke="#44E7D9" stroke-linecap="round" stroke-linejoin="round" stroke-width="1.875" d="M5.573 9.11L2.95 4.567 0.328 0.025 5.573 0.025 10.817 0.025 8.195 4.567z" transform="translate(-486 -1515) translate(488 1516) translate(8.446 11.196)"/>
                    <path stroke="#D1A448" stroke-width="1.875" d="M69.975 91.903c1.017 17.18-5.612 30.143-16.393 30.538-10.656.39-17.695-12.649-16.835-30.297M50.178 121.927L50.248 131.6M56.778 121.879L56.848 131.552M53.705 132.504c-2.008.015-3.013-.179-3.82-.775 0 0-.997 1.01.014 2.007 0 0 1.209.594 3.418.578M50.308 134.712l.06 8.432s.811.998 3.421.98c2.61-.02 3.205-1.028 3.205-1.028l-.061-8.432M51.826 122.654L51.895 132.09M51.914 134.7L51.978 143.534M54.239 123.038L54.302 131.671M54.327 135.285L54.355 139.1M54.362 140.104L54.387 143.517M56.246 123.023L56.3 130.452M56.335 135.27L56.392 143.101" transform="translate(-486 -1515) translate(488 1516) translate(8.446 11.196)"/>
                    <path stroke="#D1A448" stroke-width="1.875" d="M53.319 132.507c2.007-.015 3.01-.223 3.808-.831 0 0 1.012.997.015 2.008 0 0-1.2.61-3.409.627M69.876 92.004c.013 1.885-7.346 3.467-16.439 3.532-9.093.066-16.475-1.408-16.488-3.293-.014-1.886 7.346-3.467 16.438-3.533 9.093-.066 16.475 1.409 16.489 3.294zM49.817 141.689c-2.15.211-6.772.782-9.343 1.956 0 0-3.107 1.852 3.759 3.143M57.253 141.524c2.15.207 6.773.768 9.347 1.936 0 0 3.108 1.845-3.754 3.151M45.47 146.83s8.039 1.146 16.678-.12" transform="translate(-486 -1515) translate(488 1516) translate(8.446 11.196)"/>
                    <path stroke="#D1A448" stroke-width="1.875" d="M39.77 144.161s-1.315.712-.688 1.912c.626 1.2 5.578 2.57 11.96 2.524M56.07 148.565c6.383-.046 11.314-1.487 11.923-2.696.61-1.21-.715-1.902-.715-1.902M51.66 148.592s2.326.068 3.913-.028M69.79 94.993c.014 1.885-7.346 3.467-16.438 3.533-9.092.065-16.474-1.41-16.488-3.294M53.468 116.487s-.325-2.59 1.194-4.384c0 0 1.17-1.594 3.112-2.242 0 0-.124 2.615-1.045 3.835 0 0-.647 1.295-3.26 2.79z" transform="translate(-486 -1515) translate(488 1516) translate(8.446 11.196)"/>
                    <path stroke="#D1A448" stroke-width="1.875" d="M53.618 116.45s.287-2.595-1.257-4.366c0 0-1.193-1.577-3.144-2.198 0 0 .16 2.613 1.1 3.82 0 0 .665 1.286 3.3 2.743zM53.59 116.568s.986-2.416 3.188-3.236c0 0 1.802-.816 3.812-.429 0 0-1.39 2.219-2.79 2.831 0 0-1.2.812-4.21.834z" transform="translate(-486 -1515) translate(488 1516) translate(8.446 11.196)"/>
                    <path stroke="#D1A448" stroke-width="1.875" d="M53.587 116.568s-1.021-2.402-3.235-3.189c0 0-1.813-.79-3.818-.374 0 0 1.421 2.198 2.831 2.79 0 0 1.21.795 4.222.773z" transform="translate(-486 -1515) translate(488 1516) translate(8.446 11.196)"/>
                    <path stroke="#D1A448" stroke-width="1.875" d="M53.606 116.423s-1.632-2.037-1.276-4.36c0 0 .162-1.97 1.478-3.54 0 0 1.263 2.293 1.117 3.816 0 0 .126 1.442-1.32 4.084zM38.684 103.522s1.634 9.296 6.231 13.913M38.424 101.87s-.21-1.204-.217-2.207M38.632 102.872L38.63 102.671" transform="translate(-486 -1515) translate(488 1516) translate(8.446 11.196)"/>
                    <path stroke="#44E7D9" stroke-width="1.875" d="M54.487 95.173c.302-.722-.749-1.059-.749-1.059-1.237-.28.366-.582 1.355-.59.988-.006 1.482-.01.993.718-.489.729 1.612.858 1.612.858s-4.408-26.182 6.787-38.263M38.809 93.572s6.256-3.135 11.568-3.029M51.366 90.537L53.651 90.52M54.407 90.514s9.226-.083 13.666 2.72" transform="translate(-486 -1515) translate(488 1516) translate(8.446 11.196)"/>
                    <path stroke="#44E7D9" stroke-width="1.875" d="M48.52 95.15s.463-.929-1.14-.627c-1.604.301-1.677-1.22.548-.946 2.226.273 4.696.11 4.319-.757-.378-.866-2.718.02-2.6-.705.119-.726 2.096-.595 3.208-.603 1.111-.008 2.712-.745 4.323-.031 1.611.712-1.725.592-.608 1.308 1.117.717 3.33-.604 3.951-.173.621.43-.857 1.02-1.1 1.457-.245.437 1.265.635 1.265.635" transform="translate(-486 -1515) translate(488 1516) translate(8.446 11.196)"/>
                    <path stroke="#D1A448" stroke-width="1.875" d="M69.975 91.903c1.017 17.18-5.612 30.143-16.393 30.538-10.656.39-17.695-12.649-16.835-30.297M50.178 121.927L50.248 131.6M56.778 121.879L56.848 131.552M53.705 132.504c-2.008.015-3.013-.179-3.82-.775 0 0-.997 1.01.014 2.007 0 0 1.209.594 3.418.578M50.308 134.712l.06 8.432s.811.998 3.421.98c2.61-.02 3.205-1.028 3.205-1.028l-.061-8.432M51.826 122.654L51.895 132.09M51.914 134.7L51.978 143.534M54.239 123.038L54.302 131.671M54.327 135.285L54.355 139.1M54.362 140.104L54.387 143.517M56.246 123.023L56.3 130.452M56.335 135.27L56.392 143.101" transform="translate(-486 -1515) translate(488 1516) translate(8.446 11.196)"/>
                    <path stroke="#D1A448" stroke-width="1.875" d="M53.319 132.507c2.007-.015 3.01-.223 3.808-.831 0 0 1.012.997.015 2.008 0 0-1.2.61-3.409.627M69.876 92.004c.013 1.885-7.346 3.467-16.439 3.532-9.093.066-16.475-1.408-16.488-3.293-.014-1.886 7.346-3.467 16.438-3.533 9.093-.066 16.475 1.409 16.489 3.294zM49.817 141.689c-2.15.211-6.772.782-9.343 1.956 0 0-3.107 1.852 3.759 3.143M57.253 141.524c2.15.207 6.773.768 9.347 1.936 0 0 3.108 1.845-3.754 3.151M45.47 146.83s8.039 1.146 16.678-.12" transform="translate(-486 -1515) translate(488 1516) translate(8.446 11.196)"/>
                    <path stroke="#D1A448" stroke-width="1.875" d="M39.77 144.161s-1.315.712-.688 1.912c.626 1.2 5.578 2.57 11.96 2.524M56.07 148.565c6.383-.046 11.314-1.487 11.923-2.696.61-1.21-.715-1.902-.715-1.902M51.66 148.592s2.326.068 3.913-.028M69.79 94.993c.014 1.885-7.346 3.467-16.438 3.533-9.092.065-16.474-1.41-16.488-3.294M53.468 116.487s-.325-2.59 1.194-4.384c0 0 1.17-1.594 3.112-2.242 0 0-.124 2.615-1.045 3.835 0 0-.647 1.295-3.26 2.79z" transform="translate(-486 -1515) translate(488 1516) translate(8.446 11.196)"/>
                    <path stroke="#D1A448" stroke-width="1.875" d="M53.618 116.45s.287-2.595-1.257-4.366c0 0-1.193-1.577-3.144-2.198 0 0 .16 2.613 1.1 3.82 0 0 .665 1.286 3.3 2.743zM53.59 116.568s.986-2.416 3.188-3.236c0 0 1.802-.816 3.812-.429 0 0-1.39 2.219-2.79 2.831 0 0-1.2.812-4.21.834z" transform="translate(-486 -1515) translate(488 1516) translate(8.446 11.196)"/>
                    <path stroke="#D1A448" stroke-width="1.875" d="M53.587 116.568s-1.021-2.402-3.235-3.189c0 0-1.813-.79-3.818-.374 0 0 1.421 2.198 2.831 2.79 0 0 1.21.795 4.222.773z" transform="translate(-486 -1515) translate(488 1516) translate(8.446 11.196)"/>
                    <path stroke="#D1A448" stroke-width="1.875" d="M53.606 116.423s-1.632-2.037-1.276-4.36c0 0 .162-1.97 1.478-3.54 0 0 1.263 2.293 1.117 3.816 0 0 .126 1.442-1.32 4.084zM38.684 103.522s1.634 9.296 6.231 13.913M38.424 101.87s-.21-1.204-.217-2.207M38.632 102.872L38.63 102.671" transform="translate(-486 -1515) translate(488 1516) translate(8.446 11.196)"/>
                    <path stroke="#44E7D9" stroke-width="1.875" d="M54.487 95.173c.302-.722-.749-1.059-.749-1.059-1.237-.28.366-.582 1.355-.59.988-.006 1.482-.01.993.718-.489.729 1.612.858 1.612.858s-4.408-26.182 6.787-38.263M38.809 93.572s6.256-3.135 11.568-3.029M51.366 90.537L53.651 90.52M54.407 90.514s9.226-.083 13.666 2.72" transform="translate(-486 -1515) translate(488 1516) translate(8.446 11.196)"/>
                    <path stroke="#44E7D9" stroke-width="1.875" d="M48.52 95.15s.463-.929-1.14-.627c-1.604.301-1.677-1.22.548-.946 2.226.273 4.696.11 4.319-.757-.378-.866-2.718.02-2.6-.705.119-.726 2.096-.595 3.208-.603 1.111-.008 2.712-.745 4.323-.031 1.611.712-1.725.592-.608 1.308 1.117.717 3.33-.604 3.951-.173.621.43-.857 1.02-1.1 1.457-.245.437 1.265.635 1.265.635" transform="translate(-486 -1515) translate(488 1516) translate(8.446 11.196)"/>
                    <path stroke="#D1A448" stroke-width="1.875" d="M128.36 91.722c1.017 17.18-5.612 30.143-16.393 30.537-10.657.39-17.695-12.648-16.835-30.296M108.563 121.746L108.633 131.419M115.163 121.698L115.233 131.371M112.09 132.323c-2.008.014-3.013-.179-3.82-.775 0 0-.997 1.01.014 2.007 0 0 1.209.594 3.417.578M108.692 134.53l.062 8.433s.81.998 3.42.98c2.61-.02 3.205-1.028 3.205-1.028l-.061-8.432M110.211 122.473L110.279 131.909M110.299 134.519L110.362 143.353M112.624 122.857L112.686 131.49M112.712 135.104L112.74 138.919M112.747 139.923L112.772 143.336M114.631 122.842L114.685 130.271M114.72 135.09L114.777 142.92" transform="translate(-486 -1515) translate(488 1516) translate(8.446 11.196)"/>
                    <path stroke="#D1A448" stroke-width="1.875" d="M111.703 132.326c2.008-.015 3.01-.223 3.81-.83 0 0 1.01.995.014 2.007 0 0-1.2.61-3.409.627M128.26 91.823c.014 1.885-7.346 3.466-16.438 3.532-9.093.066-16.475-1.408-16.489-3.294-.013-1.884 7.347-3.466 16.44-3.532 9.091-.066 16.474 1.409 16.487 3.294zM108.202 141.507c-2.15.212-6.772.783-9.344 1.957 0 0-3.106 1.852 3.76 3.143M115.638 141.343c2.15.207 6.773.767 9.346 1.936 0 0 3.11 1.845-3.754 3.151M103.855 146.649s8.039 1.146 16.678-.121" transform="translate(-486 -1515) translate(488 1516) translate(8.446 11.196)"/>
                    <path stroke="#D1A448" stroke-width="1.875" d="M98.154 143.98s-1.314.712-.688 1.912c.626 1.2 5.578 2.57 11.961 2.523M114.455 148.384c6.383-.046 11.314-1.487 11.923-2.696.61-1.21-.715-1.902-.715-1.902M110.045 148.411s2.326.068 3.912-.028M128.176 94.812c.013 1.885-7.347 3.467-16.44 3.532-9.091.066-16.474-1.408-16.487-3.293M111.853 116.306s-.325-2.59 1.193-4.384c0 0 1.17-1.594 3.113-2.242 0 0-.124 2.614-1.045 3.835 0 0-.647 1.295-3.261 2.79z" transform="translate(-486 -1515) translate(488 1516) translate(8.446 11.196)"/>
                    <path stroke="#D1A448" stroke-width="1.875" d="M112.003 116.268s.287-2.594-1.257-4.366c0 0-1.193-1.577-3.144-2.197 0 0 .16 2.613 1.1 3.82 0 0 .665 1.286 3.3 2.743zM111.974 116.387s.987-2.416 3.19-3.236c0 0 1.8-.816 3.811-.43 0 0-1.39 2.22-2.79 2.832 0 0-1.2.812-4.21.834z" transform="translate(-486 -1515) translate(488 1516) translate(8.446 11.196)"/>
                    <path stroke="#D1A448" stroke-width="1.875" d="M111.972 116.387s-1.021-2.402-3.236-3.189c0 0-1.812-.79-3.817-.374 0 0 1.421 2.198 2.831 2.79 0 0 1.21.795 4.222.773z" transform="translate(-486 -1515) translate(488 1516) translate(8.446 11.196)"/>
                    <path stroke="#D1A448" stroke-width="1.875" d="M111.99 116.242s-1.631-2.037-1.276-4.36c0 0 .163-1.97 1.479-3.54 0 0 1.263 2.293 1.117 3.815 0 0 .126 1.443-1.32 4.085zM97.068 103.341s1.635 9.296 6.232 13.913M96.809 101.689s-.21-1.204-.217-2.208M97.017 102.691L97.015 102.49" transform="translate(-486 -1515) translate(488 1516) translate(8.446 11.196)"/>
                    <path stroke="#44E7D9" stroke-width="1.875" d="M113.068 94.617c-.302-.722.75-1.059.75-1.059 1.237-.28-.367-.582-1.355-.59-.988-.006-1.483-.01-.993.718.488.729-1.613.858-1.613.858s4.408-26.182-6.787-38.263M97.194 93.391s6.256-3.135 11.568-3.028M109.751 90.355L112.036 90.339M112.792 90.333s9.226-.083 13.666 2.72" transform="translate(-486 -1515) translate(488 1516) translate(8.446 11.196)"/>
                    <path stroke="#44E7D9" stroke-width="1.875" d="M106.905 94.968s.463-.928-1.14-.626c-1.605.301-1.677-1.22.548-.946 2.226.273 4.695.11 4.318-.757-.377-.867-2.717.02-2.599-.705.118-.726 2.096-.595 3.208-.603 1.111-.009 2.711-.745 4.323-.032 1.611.713-1.725.593-.609 1.31 1.118.716 3.331-.604 3.952-.174.62.43-.857 1.02-1.1 1.457-.245.437 1.265.635 1.265.635" transform="translate(-486 -1515) translate(488 1516) translate(8.446 11.196)"/>
                    <path stroke="#D1A448" stroke-width="1.875" d="M43.096 165.623c.694 11.849-3.883 20.786-11.32 21.054-7.349.264-12.197-8.73-11.596-20.902M29.43 186.321L29.474 192.993M33.982 186.291L34.026 192.962M31.858 193.618c-1.385.009-2.078-.125-2.635-.537 0 0-.688.697.01 1.385 0 0 .833.41 2.356.4M29.513 195.139l.039 5.815s.559.69 2.359.677c1.8-.012 2.21-.707 2.21-.707l-.038-5.815M30.566 186.823L30.61 193.331M30.621 195.131L30.662 201.224M32.23 187.089L32.269 193.044M32.285 195.536L32.303 198.167M32.308 198.859L32.323 201.213M33.614 187.08L33.649 192.204M33.67 195.527L33.706 200.927" transform="translate(-486 -1515) translate(488 1516) translate(8.446 11.196)"/>
                    <path stroke="#D1A448" stroke-width="1.875" d="M31.591 193.62c1.385-.01 2.076-.153 2.627-.572 0 0 .697.688.01 1.385 0 0-.829.42-2.352.43M43.027 165.693c.009 1.3-5.068 2.387-11.339 2.429-6.27.041-11.36-.979-11.37-2.279-.008-1.3 5.068-2.387 11.34-2.429 6.27-.041 11.36.979 11.37 2.279zM29.172 199.95c-1.483.146-4.67.537-6.445 1.345 0 0-2.142 1.277 2.592 2.17M34.3 199.84c1.484.144 4.672.532 6.446 1.34 0 0 2.143 1.273-2.59 2.171M26.172 203.494s5.544.794 11.502-.076" transform="translate(-486 -1515) translate(488 1516) translate(8.446 11.196)"/>
                    <path stroke="#D1A448" stroke-width="1.875" d="M22.241 201.651s-.906.49-.475 1.318c.432.829 3.846 1.775 8.248 1.746M33.482 204.696c4.402-.03 7.803-1.021 8.224-1.855.42-.833-.492-1.312-.492-1.312M30.44 204.712s1.605.048 2.699-.018M42.968 167.754c.008 1.3-5.068 2.388-11.34 2.43-6.27.04-11.36-.98-11.37-2.28M31.701 182.571s-.223-1.787.825-3.023c0 0 .808-1.099 2.147-1.545 0 0-.086 1.803-.721 2.645 0 0-.447.893-2.25 1.923z" transform="translate(-486 -1515) translate(488 1516) translate(8.446 11.196)"/>
                    <path stroke="#D1A448" stroke-width="1.875" d="M31.804 182.545s.2-1.789-.865-3.011c0 0-.821-1.089-2.167-1.517 0 0 .11 1.802.757 2.635 0 0 .458.887 2.275 1.893zM31.785 182.627s.681-1.666 2.2-2.23c0 0 1.243-.563 2.63-.295 0 0-.96 1.53-1.926 1.952 0 0-.827.56-2.904.573z" transform="translate(-486 -1515) translate(488 1516) translate(8.446 11.196)"/>
                    <path stroke="#D1A448" stroke-width="1.875" d="M31.783 182.627s-.703-1.657-2.23-2.201c0 0-1.25-.546-2.633-.26 0 0 .98 1.517 1.952 1.926 0 0 .834.549 2.911.535z" transform="translate(-486 -1515) translate(488 1516) translate(8.446 11.196)"/>
                    <path stroke="#D1A448" stroke-width="1.875" d="M31.796 182.527s-1.124-1.406-.878-3.008c0 0 .113-1.359 1.021-2.44 0 0 .87 1.582.768 2.632 0 0 .087.994-.91 2.816zM21.51 173.623s1.123 6.412 4.292 9.598M21.332 172.483s-.144-.83-.148-1.522M21.475 173.175L21.474 173.036" transform="translate(-486 -1515) translate(488 1516) translate(8.446 11.196)"/>
                    <path stroke="#44E7D9" stroke-width="1.875" d="M34.628 167.823s-1.45-.09-1.112-.592c.338-.502-.003-.5-.684-.496-.682.005-1.788.212-.935.406 0 0 .725.233.516.73M21.601 166.76s4.316-2.159 7.98-2.083M30.263 164.673L31.838 164.662M32.36 164.659s6.363-.054 9.424 1.881" transform="translate(-486 -1515) translate(488 1516) translate(8.446 11.196)"/>
                    <path stroke="#44E7D9" stroke-width="1.875" d="M28.298 167.853s.32-.64-.787-.433c-1.106.208-1.155-.842.38-.652 1.534.19 3.237.078 2.978-.52-.26-.598-1.874.013-1.793-.487.082-.501 1.446-.41 2.213-.415.767-.005 1.87-.512 2.981-.02 1.111.493-1.19.408-.42.903.77.495 2.298-.415 2.726-.118.428.297-.592.703-.76 1.004-.169.301.872.439.872.439" transform="translate(-486 -1515) translate(488 1516) translate(8.446 11.196)"/>
                    <path stroke="#D1A448" stroke-width="1.875" d="M77.083 165.623c.694 11.849-3.883 20.786-11.32 21.054-7.349.264-12.198-8.73-11.597-20.902M63.417 186.321L63.461 192.993M67.968 186.291L68.013 192.962M65.844 193.618c-1.385.009-2.077-.125-2.635-.537 0 0-.687.697.01 1.385 0 0 .833.41 2.357.4M63.5 195.139l.039 5.815s.558.69 2.358.677c1.8-.012 2.211-.707 2.211-.707l-.039-5.815M64.553 186.823L64.596 193.331M64.608 195.131L64.648 201.224M66.216 187.089L66.256 193.044M66.272 195.536L66.29 198.167M66.294 198.859L66.31 201.213M67.601 187.08L67.635 192.204M67.657 195.527L67.693 200.927" transform="translate(-486 -1515) translate(488 1516) translate(8.446 11.196)"/>
                    <path stroke="#D1A448" stroke-width="1.875" d="M65.578 193.62c1.384-.01 2.076-.153 2.627-.572 0 0 .697.688.01 1.385 0 0-.829.42-2.352.43M77.014 165.693c.008 1.3-5.068 2.387-11.339 2.429-6.27.041-11.361-.979-11.37-2.279-.008-1.3 5.068-2.387 11.34-2.429 6.27-.041 11.36.979 11.369 2.279zM63.16 199.95c-1.484.146-4.672.537-6.446 1.345 0 0-2.143 1.277 2.591 2.17M68.287 199.84c1.484.144 4.671.532 6.446 1.34 0 0 2.143 1.273-2.591 2.171M60.159 203.494s5.543.794 11.502-.076" transform="translate(-486 -1515) translate(488 1516) translate(8.446 11.196)"/>
                    <path stroke="#D1A448" stroke-width="1.875" d="M56.228 201.651s-.907.49-.475 1.318c.431.829 3.846 1.775 8.248 1.746M67.468 204.696c4.402-.03 7.804-1.021 8.225-1.855.42-.833-.493-1.312-.493-1.312M64.427 204.712s1.604.048 2.698-.018M76.954 167.754c.009 1.3-5.068 2.388-11.339 2.43-6.27.04-11.36-.98-11.37-2.28M65.688 182.571s-.223-1.787.825-3.023c0 0 .807-1.099 2.147-1.545 0 0-.086 1.803-.722 2.645 0 0-.446.893-2.25 1.923z" transform="translate(-486 -1515) translate(488 1516) translate(8.446 11.196)"/>
                    <path stroke="#D1A448" stroke-width="1.875" d="M65.791 182.545s.2-1.789-.865-3.011c0 0-.822-1.089-2.168-1.517 0 0 .11 1.802.757 2.635 0 0 .459.887 2.276 1.893zM65.771 182.627s.682-1.666 2.201-2.23c0 0 1.243-.563 2.63-.295 0 0-.96 1.53-1.926 1.952 0 0-.828.56-2.905.573z" transform="translate(-486 -1515) translate(488 1516) translate(8.446 11.196)"/>
                    <path stroke="#D1A448" stroke-width="1.875" d="M65.77 182.627s-.703-1.657-2.23-2.201c0 0-1.25-.546-2.633-.26 0 0 .98 1.517 1.952 1.926 0 0 .834.549 2.911.535z" transform="translate(-486 -1515) translate(488 1516) translate(8.446 11.196)"/>
                    <path stroke="#D1A448" stroke-width="1.875" d="M65.783 182.527s-1.125-1.406-.879-3.008c0 0 .113-1.359 1.022-2.44 0 0 .87 1.582.768 2.632 0 0 .087.994-.911 2.816zM55.497 173.623s1.123 6.412 4.292 9.598M55.319 172.483s-.144-.83-.149-1.522M55.462 173.175L55.461 173.036" transform="translate(-486 -1515) translate(488 1516) translate(8.446 11.196)"/>
                    <path stroke="#44E7D9" stroke-width="1.875" d="M68.615 167.823s-1.45-.09-1.112-.592c.338-.502-.003-.5-.685-.496-.681.005-1.788.212-.934.406 0 0 .725.233.516.73M55.588 166.76s4.315-2.159 7.98-2.083M64.25 164.673L65.825 164.662M66.347 164.659s6.362-.054 9.424 1.881" transform="translate(-486 -1515) translate(488 1516) translate(8.446 11.196)"/>
                    <path stroke="#44E7D9" stroke-width="1.875" d="M62.284 167.853s.32-.64-.786-.433c-1.106.208-1.155-.842.38-.652 1.534.19 3.237.078 2.977-.52-.26-.598-1.874.013-1.792-.487.082-.501 1.446-.41 2.213-.415.766-.005 1.87-.512 2.981-.02 1.11.493-1.19.408-.42.903.77.495 2.297-.415 2.725-.118.429.297-.591.703-.76 1.004-.168.301.873.439.873.439" transform="translate(-486 -1515) translate(488 1516) translate(8.446 11.196)"/>
                    <path stroke="#D1A448" stroke-width="1.875" d="M109.677 165.623c.694 11.849-3.883 20.786-11.319 21.054-7.35.264-12.198-8.73-11.597-20.902M96.011 186.321L96.055 192.993M100.563 186.291L100.607 192.962M98.439 193.618c-1.385.009-2.078-.125-2.635-.537 0 0-.688.697.01 1.385 0 0 .833.41 2.356.4M96.095 195.139l.038 5.815s.559.69 2.359.677c1.8-.012 2.21-.707 2.21-.707l-.038-5.815M97.147 186.823L97.191 193.331M97.202 195.131L97.243 201.224M98.811 187.089L98.85 193.044M98.867 195.536L98.884 198.167M98.889 198.859L98.905 201.213M100.196 187.08L100.23 192.204M100.252 195.527L100.287 200.927" transform="translate(-486 -1515) translate(488 1516) translate(8.446 11.196)"/>
                    <path stroke="#D1A448" stroke-width="1.875" d="M98.172 193.62c1.385-.01 2.076-.153 2.627-.572 0 0 .697.688.01 1.385 0 0-.828.42-2.351.43M109.608 165.693c.009 1.3-5.067 2.387-11.338 2.429-6.271.041-11.362-.979-11.37-2.279-.009-1.3 5.068-2.387 11.339-2.429 6.27-.041 11.361.979 11.37 2.279zM95.753 199.95c-1.483.146-4.67.537-6.444 1.345 0 0-2.143 1.277 2.59 2.17M100.882 199.84c1.483.144 4.67.532 6.445 1.34 0 0 2.143 1.273-2.59 2.171M92.753 203.494s5.544.794 11.503-.076" transform="translate(-486 -1515) translate(488 1516) translate(8.446 11.196)"/>
                    <path stroke="#D1A448" stroke-width="1.875" d="M88.823 201.651s-.907.49-.475 1.318c.43.829 3.846 1.775 8.248 1.746M100.063 204.696c4.402-.03 7.804-1.021 8.224-1.855.42-.833-.492-1.312-.492-1.312M97.022 204.712s1.604.048 2.698-.018M109.549 167.754c.008 1.3-5.068 2.388-11.34 2.43-6.27.04-11.36-.98-11.37-2.28M98.282 182.571s-.223-1.787.825-3.023c0 0 .808-1.099 2.148-1.545 0 0-.087 1.803-.722 2.645 0 0-.447.893-2.25 1.923z" transform="translate(-486 -1515) translate(488 1516) translate(8.446 11.196)"/>
                    <path stroke="#D1A448" stroke-width="1.875" d="M98.386 182.545s.199-1.789-.866-3.011c0 0-.821-1.089-2.167-1.517 0 0 .11 1.802.757 2.635 0 0 .458.887 2.276 1.893zM98.366 182.627s.681-1.666 2.2-2.23c0 0 1.243-.563 2.63-.295 0 0-.96 1.53-1.926 1.952 0 0-.827.56-2.904.573z" transform="translate(-486 -1515) translate(488 1516) translate(8.446 11.196)"/>
                    <path stroke="#D1A448" stroke-width="1.875" d="M98.364 182.627s-.703-1.657-2.23-2.201c0 0-1.25-.546-2.633-.26 0 0 .98 1.517 1.952 1.926 0 0 .834.549 2.911.535z" transform="translate(-486 -1515) translate(488 1516) translate(8.446 11.196)"/>
                    <path stroke="#D1A448" stroke-width="1.875" d="M98.377 182.527s-1.124-1.406-.878-3.008c0 0 .113-1.359 1.021-2.44 0 0 .87 1.582.769 2.632 0 0 .086.994-.912 2.816zM88.091 173.623s1.123 6.412 4.292 9.598M87.913 172.483s-.144-.83-.148-1.522M88.056 173.175L88.055 173.036" transform="translate(-486 -1515) translate(488 1516) translate(8.446 11.196)"/>
                    <path stroke="#44E7D9" stroke-width="1.875" d="M101.209 167.823s-1.449-.09-1.111-.592c.337-.502-.004-.5-.685-.496-.682.005-1.788.212-.935.406 0 0 .725.233.516.73M88.182 166.76s4.316-2.159 7.98-2.083M96.844 164.673L98.42 164.662M98.941 164.659s6.363-.054 9.424 1.881" transform="translate(-486 -1515) translate(488 1516) translate(8.446 11.196)"/>
                    <path stroke="#44E7D9" stroke-width="1.875" d="M94.879 167.853s.32-.64-.786-.433c-1.107.208-1.156-.842.379-.652 1.534.19 3.238.078 2.978-.52-.26-.598-1.874.013-1.792-.487.082-.501 1.445-.41 2.212-.415.767-.005 1.871-.512 2.981-.02 1.111.493-1.19.408-.42.903.77.495 2.298-.415 2.726-.118.428.297-.592.703-.76 1.004-.168.301.872.439.872.439" transform="translate(-486 -1515) translate(488 1516) translate(8.446 11.196)"/>
                    <path stroke="#D1A448" stroke-width="1.875" d="M143.664 165.623c.694 11.849-3.883 20.786-11.32 21.054-7.349.264-12.197-8.73-11.596-20.902M129.998 186.321L130.042 192.993M134.55 186.291L134.594 192.962M132.425 193.618c-1.384.009-2.077-.125-2.634-.537 0 0-.688.697.009 1.385 0 0 .833.41 2.357.4M130.081 195.139l.039 5.815s.559.69 2.359.677c1.8-.012 2.21-.707 2.21-.707l-.038-5.815M131.134 186.823L131.177 193.331M131.189 195.131L131.229 201.224M132.798 187.089L132.837 193.044M132.854 195.536L132.871 198.167M132.875 198.859L132.891 201.213M134.182 187.08L134.216 192.204M134.238 195.527L134.274 200.927" transform="translate(-486 -1515) translate(488 1516) translate(8.446 11.196)"/>
                    <path stroke="#D1A448" stroke-width="1.875" d="M132.159 193.62c1.385-.01 2.076-.153 2.627-.572 0 0 .697.688.01 1.385 0 0-.828.42-2.352.43M143.595 165.693c.009 1.3-5.068 2.387-11.339 2.429-6.27.041-11.36-.979-11.37-2.279-.008-1.3 5.068-2.387 11.34-2.429 6.27-.041 11.36.979 11.37 2.279zM129.74 199.95c-1.483.146-4.67.537-6.445 1.345 0 0-2.142 1.277 2.591 2.17M134.868 199.84c1.484.144 4.671.532 6.446 1.34 0 0 2.143 1.273-2.59 2.171M126.74 203.494s5.543.794 11.502-.076" transform="translate(-486 -1515) translate(488 1516) translate(8.446 11.196)"/>
                    <path stroke="#D1A448" stroke-width="1.875" d="M122.81 201.651s-.908.49-.476 1.318c.432.829 3.846 1.775 8.249 1.746M134.05 204.696c4.402-.03 7.804-1.021 8.224-1.855.42-.833-.493-1.312-.493-1.312M131.008 204.712s1.604.048 2.698-.018M143.535 167.754c.009 1.3-5.067 2.388-11.338 2.43-6.271.04-11.362-.98-11.37-2.28M132.269 182.571s-.223-1.787.825-3.023c0 0 .807-1.099 2.147-1.545 0 0-.086 1.803-.722 2.645 0 0-.446.893-2.25 1.923z" transform="translate(-486 -1515) translate(488 1516) translate(8.446 11.196)"/>
                    <path stroke="#D1A448" stroke-width="1.875" d="M132.372 182.545s.2-1.789-.865-3.011c0 0-.822-1.089-2.168-1.517 0 0 .11 1.802.758 2.635 0 0 .458.887 2.275 1.893zM132.352 182.627s.682-1.666 2.201-2.23c0 0 1.243-.563 2.63-.295 0 0-.96 1.53-1.926 1.952 0 0-.828.56-2.905.573z" transform="translate(-486 -1515) translate(488 1516) translate(8.446 11.196)"/>
                    <path stroke="#D1A448" stroke-width="1.875" d="M132.351 182.627s-.703-1.657-2.23-2.201c0 0-1.25-.546-2.633-.26 0 0 .98 1.517 1.952 1.926 0 0 .834.549 2.911.535z" transform="translate(-486 -1515) translate(488 1516) translate(8.446 11.196)"/>
                    <path stroke="#D1A448" stroke-width="1.875" d="M132.364 182.527s-1.125-1.406-.879-3.008c0 0 .113-1.359 1.022-2.44 0 0 .87 1.582.768 2.632 0 0 .087.994-.911 2.816zM122.078 173.623s1.123 6.412 4.292 9.598M121.9 172.483s-.144-.83-.149-1.522M122.043 173.175L122.042 173.036" transform="translate(-486 -1515) translate(488 1516) translate(8.446 11.196)"/>
                    <path stroke="#44E7D9" stroke-width="1.875" d="M135.196 167.823s-1.45-.09-1.112-.592c.338-.502-.003-.5-.685-.496-.681.005-1.787.212-.934.406 0 0 .725.233.516.73M122.169 166.76s4.315-2.159 7.98-2.083M130.831 164.673L132.406 164.662M132.928 164.659s6.362-.054 9.424 1.881" transform="translate(-486 -1515) translate(488 1516) translate(8.446 11.196)"/>
                    <path stroke="#44E7D9" stroke-width="1.875" d="M128.866 167.853s.32-.64-.787-.433c-1.106.208-1.155-.842.38-.652 1.534.19 3.237.078 2.977-.52-.259-.598-1.874.013-1.791-.487.081-.501 1.445-.41 2.212-.415.766-.005 1.87-.512 2.981-.02 1.111.493-1.19.408-.42.903.77.495 2.298-.415 2.726-.118.428.297-.592.703-.76 1.004-.169.301.872.439.872.439" transform="translate(-486 -1515) translate(488 1516) translate(8.446 11.196)"/>
                    <path fill="#000" d="M98.16 60.65s-.724-2.375 2.375-4.186c3.098-1.81 2.494.805 2.374 1.53-.12.724-1.57 2.857-3.38 3.018 0 0-.926.402-1.369-.363" transform="translate(-486 -1515) translate(488 1516) translate(8.446 11.196)"/>
                    <path stroke="#FFF" stroke-width="1.875" d="M98.16 60.65s-.724-2.375 2.375-4.186c3.098-1.81 2.494.805 2.374 1.53-.12.724-1.57 2.857-3.38 3.018 0 0-.926.402-1.369-.363z" transform="translate(-486 -1515) translate(488 1516) translate(8.446 11.196)"/>
                    <g>
                        <path fill="#000" d="M2.079 9.167S-.135 4.377.228 2.406c0 0 .24-1.127 1.287-1.046C2.562 1.44 2.763-.01 4.091.313c1.328.322.885 1.65.885 1.65" transform="translate(-486 -1515) translate(488 1516) translate(8.446 11.196) translate(97.973 47.297)"/>
                        <path stroke="#FFF" stroke-width="1.875" d="M2.079 9.167S-.135 4.377.228 2.406c0 0 .24-1.127 1.287-1.046C2.562 1.44 2.763-.01 4.091.313c1.328.322.885 1.65.885 1.65" transform="translate(-486 -1515) translate(488 1516) translate(8.446 11.196) translate(97.973 47.297)"/>
                    </g>
                    <g>
                        <path fill="#000" d="M.245 8.941S.97 2.461 3.022.892c2.053-1.57 2.495 0 2.495 0s1.369 0 1.65.926c.282.925-.362 1.57-.362 1.57" transform="translate(-486 -1515) translate(488 1516) translate(8.446 11.196) translate(101.014 46.96)"/>
                        <path stroke="#FFF" stroke-width="1.875" d="M.245 8.941S.97 2.461 3.022.892c2.053-1.57 2.495 0 2.495 0s1.369 0 1.65.926c.282.925-.362 1.57-.362 1.57" transform="translate(-486 -1515) translate(488 1516) translate(8.446 11.196) translate(101.014 46.96)"/>
                    </g>
                    <g>
                        <path fill="#000" d="M.327 5.9S3.305.79 5.84.348C8.376-.096 7.37 1.514 7.651 2.36c.282.846.443 1.65-.603 2.495C6 5.7 1.113 6.22.318 7.026" transform="translate(-486 -1515) translate(488 1516) translate(8.446 11.196) translate(102.703 50)"/>
                        <path stroke="#FFF" stroke-width="1.875" d="M.327 5.9S3.305.79 5.84.348C8.376-.096 7.37 1.514 7.651 2.36c.282.846.443 1.65-.603 2.495C6 5.7 1.113 6.22.318 7.026" transform="translate(-486 -1515) translate(488 1516) translate(8.446 11.196) translate(102.703 50)"/>
                    </g>
                    <g>
                        <path fill="#000" d="M.575 3.319S.173 2.232.253.26" transform="translate(-486 -1515) translate(488 1516) translate(8.446 11.196) translate(100 52.703)"/>
                        <path stroke="#FFF" stroke-width="1.875" d="M.575 3.319S.173 2.232.253.26" transform="translate(-486 -1515) translate(488 1516) translate(8.446 11.196) translate(100 52.703)"/>
                    </g>
                    <g>
                        <path fill="#000" d="M.319 2.578S.68 1.13 1.325.244" transform="translate(-486 -1515) translate(488 1516) translate(8.446 11.196) translate(102.027 53.04)"/>
                        <path stroke="#FFF" stroke-width="1.875" d="M.319 2.578S.68 1.13 1.325.244" transform="translate(-486 -1515) translate(488 1516) translate(8.446 11.196) translate(102.027 53.04)"/>
                    </g>
                    <g>
                        <path fill="#000" d="M.15 1.236S.955.31 2.243.31" transform="translate(-486 -1515) translate(488 1516) translate(8.446 11.196) translate(103.04 55.068)"/>
                        <path stroke="#FFF" stroke-width="1.875" d="M.15 1.236S.955.31 2.243.31" transform="translate(-486 -1515) translate(488 1516) translate(8.446 11.196) translate(103.04 55.068)"/>
                    </g>
                    <g>
                        <path fill="#000" d="M.15.36s1.047-.322 1.57 0" transform="translate(-486 -1515) translate(488 1516) translate(8.446 11.196) translate(103.04 57.432)"/>
                        <path stroke="#FFF" stroke-width="1.875" d="M.15.36s1.047-.322 1.57 0" transform="translate(-486 -1515) translate(488 1516) translate(8.446 11.196) translate(103.04 57.432)"/>
                    </g>
                    <g>
                        <path fill="#000" d="M1.67.014s1.243.723.84 1.77c-.402 1.045-.885.362-.844 1.69C1.706 4.8.096 5.042.016 4.921" transform="translate(-486 -1515) translate(488 1516) translate(8.446 11.196) translate(106.757 55.405)"/>
                        <path stroke="#FFF" stroke-width="1.875" d="M1.67.014s1.243.723.84 1.77c-.402 1.045-.885.362-.844 1.69C1.706 4.8.096 5.042.016 4.921" transform="translate(-486 -1515) translate(488 1516) translate(8.446 11.196) translate(106.757 55.405)"/>
                    </g>
                    <g>
                        <path fill="#000" d="M2.692.175S6.354.538 6.435 2.35c.08 1.81-1.61 1.65-2.013 1.891-.402.242-1.127 1.972-1.73 1.972-.604 0-3.219-.458-2.274-4.394" transform="translate(-486 -1515) translate(488 1516) translate(8.446 11.196) translate(100.338 58.784)"/>
                        <path stroke="#FFF" stroke-width="1.875" d="M2.692.175S6.354.538 6.435 2.35c.08 1.81-1.61 1.65-2.013 1.891-.402.242-1.127 1.972-1.73 1.972-.604 0-3.219-.458-2.274-4.394" transform="translate(-486 -1515) translate(488 1516) translate(8.446 11.196) translate(100.338 58.784)"/>
                    </g>
                    <g>
                        <path fill="#000" d="M.037.087s.322 1.007.322 1.248" transform="translate(-486 -1515) translate(488 1516) translate(8.446 11.196) translate(102.027 59.797)"/>
                        <path stroke="#FFF" stroke-width="1.875" d="M.037.087s.322 1.007.322 1.248" transform="translate(-486 -1515) translate(488 1516) translate(8.446 11.196) translate(102.027 59.797)"/>
                    </g>
                    <g>
                        <path fill="#000" d="M2.375.322S-.16 3.34.363 4.789c.523 1.449 1.489.804 2.173.684.684-.121 2.053.322 2.777-.402.724-.725 0-1.662 0-1.662" transform="translate(-486 -1515) translate(488 1516) translate(8.446 11.196) translate(95.946 60.81)"/>
                        <path stroke="#FFF" stroke-width="1.875" d="M2.375.322S-.16 3.34.363 4.789c.523 1.449 1.489.804 2.173.684.684-.121 2.053.322 2.777-.402.724-.725 0-1.662 0-1.662" transform="translate(-486 -1515) translate(488 1516) translate(8.446 11.196) translate(95.946 60.81)"/>
                    </g>
                    <g>
                        <path fill="#000" d="M6.87.087S2.316.611 1.23 1.335c-1.087.724-1.892 1.408-.121 2.777 0 0 .644.402.925 1.087.282.684 1.629 1.137 2.987-.458" transform="translate(-486 -1515) translate(488 1516) translate(8.446 11.196) translate(91.216 59.797)"/>
                        <path stroke="#FFF" stroke-width="1.875" d="M6.87.087S2.316.611 1.23 1.335c-1.087.724-1.892 1.408-.121 2.777 0 0 .644.402.925 1.087.282.684 1.629 1.137 2.987-.458" transform="translate(-486 -1515) translate(488 1516) translate(8.446 11.196) translate(91.216 59.797)"/>
                    </g>
                    <g>
                        <path fill="#000" d="M6.623 8.563S2.469 6.174 1.786 5.651C1.1 5.128-.951 3.639.94 2.43c0 0 .966-.402 1.288-1.126C2.55.58 3.758-.305 4.602.379c.845.684 1.075.597 1.604 2.31" transform="translate(-486 -1515) translate(488 1516) translate(8.446 11.196) translate(92.23 49.324)"/>
                        <path stroke="#FFF" stroke-width="1.875" d="M6.623 8.563S2.469 6.174 1.786 5.651C1.1 5.128-.951 3.639.94 2.43c0 0 .966-.402 1.288-1.126C2.55.58 3.758-.305 4.602.379c.845.684 1.075.597 1.604 2.31" transform="translate(-486 -1515) translate(488 1516) translate(8.446 11.196) translate(92.23 49.324)"/>
                    </g>
                    <path fill="#000" d="M94.015 54.975c-1.57-.04-3.099.402-3.22 1.69-.12 1.288-.2 1.53-.321 1.811-.121.282-.282.805-.282.805-.483 2.133 2.213 1.852 2.213 1.852s7.183 5.605 10.866 2.45c3.682-3.157 5.786-3.683 5.786-9.996 0-6.312-13.677-2.104-14.203 0-.526 2.104-.839 1.388-.839 1.388" transform="translate(-486 -1515) translate(488 1516) translate(8.446 11.196)"/>
                    <path stroke="#FFF" stroke-width="1.875" d="M94.015 54.975c-1.57-.04-3.099.402-3.22 1.69-.12 1.288-.2 1.53-.321 1.811-.121.282-.282.805-.282.805-.483 2.133 2.213 1.852 2.213 1.852s7.183 5.605 10.866 2.45c3.682-3.157 5.786-3.683 5.786-9.996 0-6.312-13.677-2.104-14.203 0-.526 2.104-.839 1.388-.839 1.388z" transform="translate(-486 -1515) translate(488 1516) translate(8.446 11.196)"/>
                    <g>
                        <path fill="#000" d="M1.591 1.602S.465.717.103.032" transform="translate(-486 -1515) translate(488 1516) translate(8.446 11.196) translate(97.635 55.405)"/>
                        <path stroke="#FFF" stroke-width="1.875" d="M1.591 1.602S.465.717.103.032" transform="translate(-486 -1515) translate(488 1516) translate(8.446 11.196) translate(97.635 55.405)"/>
                    </g>
                    <g>
                        <path fill="#000" d="M3.147.368S1.337-.115.13.368" transform="translate(-486 -1515) translate(488 1516) translate(8.446 11.196) translate(94.932 58.108)"/>
                        <path stroke="#FFF" stroke-width="1.875" d="M3.147.368S1.337-.115.13.368" transform="translate(-486 -1515) translate(488 1516) translate(8.446 11.196) translate(94.932 58.108)"/>
                    </g>
                    <g>
                        <path fill="#000" d="M2.206.322s-.966.12-1.892.845" transform="translate(-486 -1515) translate(488 1516) translate(8.446 11.196) translate(95.27 60.81)"/>
                        <path stroke="#FFF" stroke-width="1.875" d="M2.206.322s-.966.12-1.892.845" transform="translate(-486 -1515) translate(488 1516) translate(8.446 11.196) translate(95.27 60.81)"/>
                    </g>
                    <g>
                        <path fill="#000" d="M.542.322S.14 1.448.22 2.213" transform="translate(-486 -1515) translate(488 1516) translate(8.446 11.196) translate(98.986 60.81)"/>
                        <path stroke="#FFF" stroke-width="1.875" d="M.542.322S.14 1.448.22 2.213" transform="translate(-486 -1515) translate(488 1516) translate(8.446 11.196) translate(98.986 60.81)"/>
                    </g>
                    <path fill="#000" d="M98.162 60.782s-.725-2.374 2.374-4.185c3.099-1.81 2.495.805 2.375 1.53-.121.724-1.57 2.857-3.38 3.017 0 0-.926.403-1.37-.362" transform="translate(-486 -1515) translate(488 1516) translate(8.446 11.196)"/>
                    <path stroke="#FFF" stroke-width="1.875" d="M98.162 60.782s-.725-2.374 2.374-4.185c3.099-1.81 2.495.805 2.375 1.53-.121.724-1.57 2.857-3.38 3.017 0 0-.926.403-1.37-.362z" transform="translate(-486 -1515) translate(488 1516) translate(8.446 11.196)"/>
                    <g>
                        <path fill="#000" d="M2.08 8.962S-.133 4.172.23 2.2c0 0 .24-1.127 1.287-1.047 1.046.08 1.247-1.368 2.576-1.046 1.328.322.885 1.65.885 1.65" transform="translate(-486 -1515) translate(488 1516) translate(8.446 11.196) translate(97.973 47.635)"/>
                        <path stroke="#FFF" stroke-width="1.875" d="M2.08 8.962S-.133 4.172.23 2.2c0 0 .24-1.127 1.287-1.047 1.046.08 1.247-1.368 2.576-1.046 1.328.322.885 1.65.885 1.65" transform="translate(-486 -1515) translate(488 1516) translate(8.446 11.196) translate(97.973 47.635)"/>
                    </g>
                    <g>
                        <path fill="#000" d="M.247 9.074s.725-6.48 2.777-8.049c2.052-1.57 2.495 0 2.495 0s1.368 0 1.65.926c.282.925-.362 1.57-.362 1.57" transform="translate(-486 -1515) translate(488 1516) translate(8.446 11.196) translate(101.014 46.96)"/>
                        <path stroke="#FFF" stroke-width="1.875" d="M.247 9.074s.725-6.48 2.777-8.049c2.052-1.57 2.495 0 2.495 0s1.368 0 1.65.926c.282.925-.362 1.57-.362 1.57" transform="translate(-486 -1515) translate(488 1516) translate(8.446 11.196) translate(101.014 46.96)"/>
                    </g>
                    <g>
                        <path fill="#000" d="M.329 5.696S3.306.585 5.842.142C8.377-.3 7.372 1.31 7.653 2.154c.282.845.443 1.65-.603 2.495-1.047.845-5.936 1.366-6.73 2.172" transform="translate(-486 -1515) translate(488 1516) translate(8.446 11.196) translate(102.703 50.338)"/>
                        <path stroke="#FFF" stroke-width="1.875" d="M.329 5.696S3.306.585 5.842.142C8.377-.3 7.372 1.31 7.653 2.154c.282.845.443 1.65-.603 2.495-1.047.845-5.936 1.366-6.73 2.172" transform="translate(-486 -1515) translate(488 1516) translate(8.446 11.196) translate(102.703 50.338)"/>
                    </g>
                    <g>
                        <path fill="#000" d="M.577 3.114S.174 2.027.255.055" transform="translate(-486 -1515) translate(488 1516) translate(8.446 11.196) translate(100 53.04)"/>
                        <path stroke="#FFF" stroke-width="1.875" d="M.577 3.114S.174 2.027.255.055" transform="translate(-486 -1515) translate(488 1516) translate(8.446 11.196) translate(100 53.04)"/>
                    </g>
                    <g>
                        <path fill="#000" d="M.32 2.373S.682.925 1.327.04" transform="translate(-486 -1515) translate(488 1516) translate(8.446 11.196) translate(102.027 53.378)"/>
                        <path stroke="#FFF" stroke-width="1.875" d="M.32 2.373S.682.925 1.327.04" transform="translate(-486 -1515) translate(488 1516) translate(8.446 11.196) translate(102.027 53.378)"/>
                    </g>
                    <g>
                        <path fill="#000" d="M.152 1.03S.957.106 2.245.106" transform="translate(-486 -1515) translate(488 1516) translate(8.446 11.196) translate(103.04 55.405)"/>
                        <path stroke="#FFF" stroke-width="1.875" d="M.152 1.03S.957.106 2.245.106" transform="translate(-486 -1515) translate(488 1516) translate(8.446 11.196) translate(103.04 55.405)"/>
                    </g>
                    <g>
                        <path fill="#000" d="M.152.493s1.046-.322 1.57 0" transform="translate(-486 -1515) translate(488 1516) translate(8.446 11.196) translate(103.04 57.432)"/>
                        <path stroke="#FFF" stroke-width="1.875" d="M.152.493s1.046-.322 1.57 0" transform="translate(-486 -1515) translate(488 1516) translate(8.446 11.196) translate(103.04 57.432)"/>
                    </g>
                    <g>
                        <path fill="#000" d="M1.673.147s1.242.723.84 1.769c-.403 1.046-.886.362-.846 1.69.04 1.328-1.57 1.57-1.65 1.449" transform="translate(-486 -1515) translate(488 1516) translate(8.446 11.196) translate(106.757 55.405)"/>
                        <path stroke="#FFF" stroke-width="1.875" d="M1.673.147s1.242.723.84 1.769c-.403 1.046-.886.362-.846 1.69.04 1.328-1.57 1.57-1.65 1.449" transform="translate(-486 -1515) translate(488 1516) translate(8.446 11.196) translate(106.757 55.405)"/>
                    </g>
                    <g>
                        <path fill="#000" d="M2.694.308S6.356.67 6.436 2.481c.08 1.812-1.61 1.65-2.012 1.892-.402.241-1.127 1.972-1.73 1.972-.604 0-3.22-.458-2.274-4.394" transform="translate(-486 -1515) translate(488 1516) translate(8.446 11.196) translate(100.338 58.784)"/>
                        <path stroke="#FFF" stroke-width="1.875" d="M2.694.308S6.356.67 6.436 2.481c.08 1.812-1.61 1.65-2.012 1.892-.402.241-1.127 1.972-1.73 1.972-.604 0-3.22-.458-2.274-4.394" transform="translate(-486 -1515) translate(488 1516) translate(8.446 11.196) translate(100.338 58.784)"/>
                    </g>
                    <g>
                        <path fill="#000" d="M.038.22S.36 1.227.36 1.468" transform="translate(-486 -1515) translate(488 1516) translate(8.446 11.196) translate(102.027 59.797)"/>
                        <path stroke="#FFF" stroke-width="1.875" d="M.038.22S.36 1.227.36 1.468" transform="translate(-486 -1515) translate(488 1516) translate(8.446 11.196) translate(102.027 59.797)"/>
                    </g>
                    <g>
                        <path fill="#000" d="M2.377.116S-.16 3.135.365 4.584c.523 1.449 1.489.804 2.173.684.684-.12 2.052.322 2.777-.403.724-.724 0-1.66 0-1.66" transform="translate(-486 -1515) translate(488 1516) translate(8.446 11.196) translate(95.946 61.149)"/>
                        <path stroke="#FFF" stroke-width="1.875" d="M2.377.116S-.16 3.135.365 4.584c.523 1.449 1.489.804 2.173.684.684-.12 2.052.322 2.777-.403.724-.724 0-1.66 0-1.66" transform="translate(-486 -1515) translate(488 1516) translate(8.446 11.196) translate(95.946 61.149)"/>
                    </g>
                    <g>
                        <path fill="#000" d="M6.872.22s-4.554.524-5.64 1.248C.143 2.192-.66 2.876 1.11 4.245c0 0 .645.402.926 1.086.282.684 1.629 1.138 2.987-.457" transform="translate(-486 -1515) translate(488 1516) translate(8.446 11.196) translate(91.216 59.797)"/>
                        <path stroke="#FFF" stroke-width="1.875" d="M6.872.22s-4.554.524-5.64 1.248C.143 2.192-.66 2.876 1.11 4.245c0 0 .645.402.926 1.086.282.684 1.629 1.138 2.987-.457" transform="translate(-486 -1515) translate(488 1516) translate(8.446 11.196) translate(91.216 59.797)"/>
                    </g>
                    <g>
                        <path fill="#000" d="M6.624 8.696s-4.153-2.39-4.837-2.913C1.103 5.261-.95 3.771.942 2.564c0 0 .966-.402 1.288-1.127.322-.724 1.53-1.61 2.374-.925.845.684 1.074.597 1.604 2.31" transform="translate(-486 -1515) translate(488 1516) translate(8.446 11.196) translate(92.23 49.324)"/>
                        <path stroke="#FFF" stroke-width="1.875" d="M6.624 8.696s-4.153-2.39-4.837-2.913C1.103 5.261-.95 3.771.942 2.564c0 0 .966-.402 1.288-1.127.322-.724 1.53-1.61 2.374-.925.845.684 1.074.597 1.604 2.31" transform="translate(-486 -1515) translate(488 1516) translate(8.446 11.196) translate(92.23 49.324)"/>
                    </g>
                    <g>
                        <path fill="#000" d="M2.542 6.197S-.154 6.48.33 4.348c0 0 .16-.523.281-.805.121-.282.202-.524.322-1.811C1.053.443 2.582 0 4.152.04" transform="translate(-486 -1515) translate(488 1516) translate(8.446 11.196) translate(89.865 55.068)"/>
                        <path stroke="#FFF" stroke-width="1.875" d="M2.542 6.197S-.154 6.48.33 4.348c0 0 .16-.523.281-.805.121-.282.202-.524.322-1.811C1.053.443 2.582 0 4.152.04" transform="translate(-486 -1515) translate(488 1516) translate(8.446 11.196) translate(89.865 55.068)"/>
                    </g>
                    <g>
                        <path fill="#000" d="M1.593 1.735S.466.85.104.165" transform="translate(-486 -1515) translate(488 1516) translate(8.446 11.196) translate(97.635 55.405)"/>
                        <path stroke="#FFF" stroke-width="1.875" d="M1.593 1.735S.466.85.104.165" transform="translate(-486 -1515) translate(488 1516) translate(8.446 11.196) translate(97.635 55.405)"/>
                    </g>
                    <g>
                        <path fill="#000" d="M3.149.501S1.339.018.131.501" transform="translate(-486 -1515) translate(488 1516) translate(8.446 11.196) translate(94.932 58.108)"/>
                        <path stroke="#FFF" stroke-width="1.875" d="M3.149.501S1.339.018.131.501" transform="translate(-486 -1515) translate(488 1516) translate(8.446 11.196) translate(94.932 58.108)"/>
                    </g>
                    <g>
                        <path fill="#000" d="M2.207.116S1.242.237.316.962" transform="translate(-486 -1515) translate(488 1516) translate(8.446 11.196) translate(95.27 61.149)"/>
                        <path stroke="#FFF" stroke-width="1.875" d="M2.207.116S1.242.237.316.962" transform="translate(-486 -1515) translate(488 1516) translate(8.446 11.196) translate(95.27 61.149)"/>
                    </g>
                    <g>
                        <path fill="#000" d="M.544.116S.142 1.243.222 2.008" transform="translate(-486 -1515) translate(488 1516) translate(8.446 11.196) translate(98.986 61.149)"/>
                        <path stroke="#FFF" stroke-width="1.875" d="M.544.116S.142 1.243.222 2.008" transform="translate(-486 -1515) translate(488 1516) translate(8.446 11.196) translate(98.986 61.149)"/>
                    </g>
                    <g>
                        <path fill="#000" d="M2.705 17.642c1.916.199 4.406.04 5.84-.853 1.433-.895 4.337-3.9 4.337-3.9l1.697-1.703s2.822-4.607 1.117-7.341C13.992 1.11 6.651-.007 4.303.033c-2.348.04-3.98 9.6-3.98 9.6s-.604 5.123.803 6.618" transform="translate(-486 -1515) translate(488 1516) translate(8.446 11.196) translate(59.797 45.608)"/>
                        <path stroke="#FFF" stroke-width="1.875" d="M2.705 17.642c1.916.199 4.406.04 5.84-.853 1.433-.895 4.337-3.9 4.337-3.9l1.697-1.703s2.822-4.607 1.117-7.341C13.992 1.11 6.651-.007 4.303.033c-2.348.04-3.98 9.6-3.98 9.6s-.604 5.123.803 6.618" transform="translate(-486 -1515) translate(488 1516) translate(8.446 11.196) translate(59.797 45.608)"/>
                    </g>
                    <path fill="#000" d="M68.026 55.824s.54-2.328-.425-4.514c-.964-2.186-.873-3.636-1.518-4.03-.643-.396-.984.016-1.092.482-.065.279.129.397.324.773.13.25.262.614.318 1.215.142 1.504 2.29 1.758 2.395 4.48l-.002 1.594z" transform="translate(-486 -1515) translate(488 1516) translate(8.446 11.196)"/>
                    <path stroke="#FFF" stroke-width="1.875" d="M68.026 55.824s.54-2.328-.425-4.514c-.964-2.186-.873-3.636-1.518-4.03-.643-.396-.984.016-1.092.482-.065.279.129.397.324.773.13.25.262.614.318 1.215.142 1.504 2.29 1.758 2.395 4.48l-.002 1.594z" transform="translate(-486 -1515) translate(488 1516) translate(8.446 11.196)"/>
                    <g>
                        <path fill="#000" d="M.729.292S.422 2.674.027 3.318" transform="translate(-486 -1515) translate(488 1516) translate(8.446 11.196) translate(64.19 48.31)"/>
                        <path stroke="#FFF" stroke-width="1.875" d="M.729.292S.422 2.674.027 3.318" transform="translate(-486 -1515) translate(488 1516) translate(8.446 11.196) translate(64.19 48.31)"/>
                    </g>
                    <g>
                        <path fill="#000" d="M5.967 2.075l-.536-.86C5.073.642 3.909.372 2.746.102c-1.164-.27-1.202.948-1.255 1.18C1.437 1.516.95 3.61.199 3.682c0 0 1.342.557 1.251 2.007-.091 1.45 2.236 1.99 2.361 2.51.125.52 1.967 3.154 2.432 3.262.466.108 1.218.037 1.218.037s-1.77-1.882-2.307-2.742c-.537-.86-1.127-1.488-1.198-2.24" transform="translate(-486 -1515) translate(488 1516) translate(8.446 11.196) translate(60.135 44.595)"/>
                        <path stroke="#FFF" stroke-width="1.875" d="M5.967 2.075l-.536-.86C5.073.642 3.909.372 2.746.102c-1.164-.27-1.202.948-1.255 1.18C1.437 1.516.95 3.61.199 3.682c0 0 1.342.557 1.251 2.007-.091 1.45 2.236 1.99 2.361 2.51.125.52 1.967 3.154 2.432 3.262.466.108 1.218.037 1.218.037s-1.77-1.882-2.307-2.742c-.537-.86-1.127-1.488-1.198-2.24" transform="translate(-486 -1515) translate(488 1516) translate(8.446 11.196) translate(60.135 44.595)"/>
                    </g>
                    <g>
                        <path fill="#000" d="M.233 9.926S2.33 7.224 3.998 6.384c1.666-.84 1.72-1.073 3.744-1.34 2.024-.266 2.705-1.089 3.1-1.733.394-.644 3.424-3.13 3.424-3.13s1.575.61.462 3.295-.773 2.274-1.043 3.438c0 0-.178-.287-1.737.087-1.558.375-4.692.138-5.623-.077-.931-.216-2.256.212-3.01.283" transform="translate(-486 -1515) translate(488 1516) translate(8.446 11.196) translate(61.824 51.014)"/>
                        <path stroke="#FFF" stroke-width="1.875" d="M.233 9.926S2.33 7.224 3.998 6.384c1.666-.84 1.72-1.073 3.744-1.34 2.024-.266 2.705-1.089 3.1-1.733.394-.644 3.424-3.13 3.424-3.13s1.575.61.462 3.295-.773 2.274-1.043 3.438c0 0-.178-.287-1.737.087-1.558.375-4.692.138-5.623-.077-.931-.216-2.256.212-3.01.283" transform="translate(-486 -1515) translate(488 1516) translate(8.446 11.196) translate(61.824 51.014)"/>
                    </g>
                    <g>
                        <path fill="#000" d="M10.763 6.756s.108-.466-.429-1.326c-.536-.86-.32-1.792-.39-2.544-.072-.752-1.073-1.72-.911-2.418 0 0-1.093.482-2.723.104C4.681.194 1.834-.22.866.781c0 0-.342.6-.655.801" transform="translate(-486 -1515) translate(488 1516) translate(8.446 11.196) translate(65.203 43.919)"/>
                        <path stroke="#FFF" stroke-width="1.875" d="M10.763 6.756s.108-.466-.429-1.326c-.536-.86-.32-1.792-.39-2.544-.072-.752-1.073-1.72-.911-2.418 0 0-1.093.482-2.723.104C4.681.194 1.834-.22.866.781c0 0-.342.6-.655.801" transform="translate(-486 -1515) translate(488 1516) translate(8.446 11.196) translate(65.203 43.919)"/>
                    </g>
                    <g>
                        <path fill="#000" d="M.233 4.1S1.22.895 1.616.25" transform="translate(-486 -1515) translate(488 1516) translate(8.446 11.196) translate(70.946 51.351)"/>
                        <path stroke="#FFF" stroke-width="1.875" d="M.233 4.1S1.22.895 1.616.25" transform="translate(-486 -1515) translate(488 1516) translate(8.446 11.196) translate(70.946 51.351)"/>
                    </g>
                    <g>
                        <path fill="#000" d="M.5 3.952s1.218.037 1.862.431c.645.395.986-.016 1.721-1.072.735-1.056 1.613-.607 1.883-1.771S6.002.322 6.002.322 4.39.93 3.996 1.574c-.395.644-1.13 1.7-2.116 1.717-.985.016-1.457.398-1.795.564" transform="translate(-486 -1515) translate(488 1516) translate(8.446 11.196) translate(67.905 48.649)"/>
                        <path stroke="#FFF" stroke-width="1.875" d="M.5 3.952s1.218.037 1.862.431c.645.395.986-.016 1.721-1.072.735-1.056 1.613-.607 1.883-1.771S6.002.322 6.002.322 4.39.93 3.996 1.574c-.395.644-1.13 1.7-2.116 1.717-.985.016-1.457.398-1.795.564" transform="translate(-486 -1515) translate(488 1516) translate(8.446 11.196) translate(67.905 48.649)"/>
                    </g>
                    <g>
                        <path fill="#000" d="M.045.773C.44.129 1.192.058 2.355.328c1.164.27 2.669.128 2.669.128s-.735 1.056-.091 1.45c.644.395.607 1.613.607 1.613" transform="translate(-486 -1515) translate(488 1516) translate(8.446 11.196) translate(68.243 44.932)"/>
                        <path stroke="#FFF" stroke-width="1.875" d="M.045.773C.44.129 1.192.058 2.355.328c1.164.27 2.669.128 2.669.128s-.735 1.056-.091 1.45c.644.395.607 1.613.607 1.613" transform="translate(-486 -1515) translate(488 1516) translate(8.446 11.196) translate(68.243 44.932)"/>
                    </g>
                    <g>
                        <path fill="#000" d="M5.846 4.254s-1.001-.968-1.538-1.828C3.772 1.566 3.88 1.1 2.716.83 1.552.56.854.398.676.11c0 0 .016.985-.611 1.575" transform="translate(-486 -1515) translate(488 1516) translate(8.446 11.196) translate(66.216 45.27)"/>
                        <path stroke="#FFF" stroke-width="1.875" d="M5.846 4.254s-1.001-.968-1.538-1.828C3.772 1.566 3.88 1.1 2.716.83 1.552.56.854.398.676.11c0 0 .016.985-.611 1.575" transform="translate(-486 -1515) translate(488 1516) translate(8.446 11.196) translate(66.216 45.27)"/>
                    </g>
                    <g>
                        <path fill="#000" d="M2.565 2.732s.627-.59-.017-.985S1.188.205.723.097C.257-.01.149.455.095.687" transform="translate(-486 -1515) translate(488 1516) translate(8.446 11.196) translate(68.243 47.973)"/>
                        <path stroke="#FFF" stroke-width="1.875" d="M2.565 2.732s.627-.59-.017-.985S1.188.205.723.097C.257-.01.149.455.095.687" transform="translate(-486 -1515) translate(488 1516) translate(8.446 11.196) translate(68.243 47.973)"/>
                    </g>
                    <path fill="#000" d="M69.644 50.435s.054-.233-.536-.86c-.59-.628-.715-1.147-1.056-.736-.34.412.195 1.272.894 1.434l.698.162z" transform="translate(-486 -1515) translate(488 1516) translate(8.446 11.196)"/>
                    <path stroke="#FFF" stroke-width="1.875" d="M69.644 50.435s.054-.233-.536-.86c-.59-.628-.715-1.147-1.056-.736-.34.412.195 1.272.894 1.434l.698.162z" transform="translate(-486 -1515) translate(488 1516) translate(8.446 11.196)"/>
                    <g>
                        <path fill="#000" d="M3.757 2.68s-1.683-.144-2.382-.306c0 0 1.11.502 1.056.735-.054.233-.806.304-1.45-.091C.336 2.623-.271 1.011.124.366c.394-.644.31.36.54.637 0 0 .354.797.533 1.084" transform="translate(-486 -1515) translate(488 1516) translate(8.446 11.196) translate(67.23 48.31)"/>
                        <path stroke="#FFF" stroke-width="1.875" d="M3.757 2.68s-1.683-.144-2.382-.306c0 0 1.11.502 1.056.735-.054.233-.806.304-1.45-.091C.336 2.623-.271 1.011.124.366c.394-.644.31.36.54.637 0 0 .354.797.533 1.084" transform="translate(-486 -1515) translate(488 1516) translate(8.446 11.196) translate(67.23 48.31)"/>
                    </g>
                    <g>
                        <path fill="#000" d="M.232.577s.34-.412.806-.304" transform="translate(-486 -1515) translate(488 1516) translate(8.446 11.196) translate(67.23 47.635)"/>
                        <path stroke="#FFF" stroke-width="1.875" d="M.232.577s.34-.412.806-.304" transform="translate(-486 -1515) translate(488 1516) translate(8.446 11.196) translate(67.23 47.635)"/>
                    </g>
                    <g>
                        <path fill="#000" d="M.308.841s.52-.124.86-.536" transform="translate(-486 -1515) translate(488 1516) translate(8.446 11.196) translate(70.27 46.622)"/>
                        <path stroke="#FFF" stroke-width="1.875" d="M.308.841s.52-.124.86-.536" transform="translate(-486 -1515) translate(488 1516) translate(8.446 11.196) translate(70.27 46.622)"/>
                    </g>
                    <g>
                        <path fill="#000" d="M1.078 1.762S1.115.545.184.33" transform="translate(-486 -1515) translate(488 1516) translate(8.446 11.196) translate(63.176 48.649)"/>
                        <path stroke="#FFF" stroke-width="1.875" d="M1.078 1.762S1.115.545.184.33" transform="translate(-486 -1515) translate(488 1516) translate(8.446 11.196) translate(63.176 48.649)"/>
                    </g>
                    <g>
                        <path fill="#000" d="M2.498.275S1.04 6.437.43 8.012c-.611 1.575.316 4.979 1.66 5.535" transform="translate(-486 -1515) translate(488 1516) translate(8.446 11.196) translate(58.784 49.324)"/>
                        <path stroke="#FFF" stroke-width="1.875" d="M2.498.275S1.04 6.437.43 8.012c-.611 1.575.316 4.979 1.66 5.535" transform="translate(-486 -1515) translate(488 1516) translate(8.446 11.196) translate(58.784 49.324)"/>
                    </g>
                    <g>
                        <path fill="#000" d="M2.163 4.429s2.739.88 3.761-.354c0 0-2.668-.129-3.313-.523 0 0 .86-.537 1.077-1.467 0 0-1.559.374-1.954 1.018 0 0-.016-.985-.087-1.737 0 0-.574.357-.61 1.575 0 0-.965-2.186-.804-2.884 0 0-.485 2.095.05 2.955.537.86 1.772 1.882 2.291 1.758" transform="translate(-486 -1515) translate(488 1516) translate(8.446 11.196) translate(59.122 58.784)"/>
                        <path stroke="#FFF" stroke-width="1.875" d="M2.163 4.429s2.739.88 3.761-.354c0 0-2.668-.129-3.313-.523 0 0 .86-.537 1.077-1.467 0 0-1.559.374-1.954 1.018 0 0-.016-.985-.087-1.737 0 0-.574.357-.61 1.575 0 0-.965-2.186-.804-2.884 0 0-.485 2.095.05 2.955.537.86 1.772 1.882 2.291 1.758" transform="translate(-486 -1515) translate(488 1516) translate(8.446 11.196) translate(59.122 58.784)"/>
                    </g>
                    <path stroke="#FFF" stroke-width="1.875" d="M68.066 56.125s.54-2.327-.425-4.513c-.965-2.186-.874-3.637-1.518-4.032-.644-.394-.985.017-1.093.483-.065.28.129.398.325.773.13.25.26.614.318 1.215.141 1.505 2.29 1.758 2.395 4.48l-.002 1.594zM64.957 48.904s-.307 2.382-.701 3.026" transform="translate(-486 -1515) translate(488 1516) translate(8.446 11.196)"/>
                    <path stroke="#FFF" stroke-width="1.875" d="M66.142 46.972l-.537-.86c-.357-.574-1.521-.844-2.685-1.114-1.164-.27-1.2.948-1.255 1.18-.054.233-.54 2.328-1.292 2.399 0 0 1.343.556 1.252 2.007-.092 1.45 2.236 1.99 2.36 2.51.125.52 1.967 3.154 2.433 3.262.465.108 1.218.037 1.218.037s-1.771-1.882-2.308-2.742c-.536-.86-1.126-1.488-1.197-2.24M62.096 61.24s2.099-2.701 3.765-3.541c1.666-.84 1.72-1.073 3.745-1.34 2.024-.266 2.705-1.089 3.1-1.733.394-.644 3.424-3.13 3.424-3.13s1.575.61.462 3.295c-1.114 2.685-.773 2.274-1.043 3.437 0 0-.178-.286-1.737.088-1.559.375-4.692.138-5.623-.078-.931-.215-2.257.213-3.01.284M76.005 50.976s.108-.465-.429-1.326c-.535-.86-.32-1.791-.39-2.543-.071-.752-1.073-1.72-.911-2.419 0 0-1.093.482-2.723.104-1.629-.377-4.476-.792-5.444.21 0 0-.341.6-.655.8M71.218 55.752s.989-3.204 1.383-3.849" transform="translate(-486 -1515) translate(488 1516) translate(8.446 11.196)"/>
                    <path stroke="#FFF" stroke-width="1.875" d="M68.445 52.902s1.218.037 1.863.432c.644.394.985-.017 1.72-1.073s1.612-.607 1.882-1.77c.27-1.164.037-1.218.037-1.218s-1.612.607-2.007 1.25c-.394.645-1.13 1.7-2.115 1.718-.985.017-1.457.398-1.795.565M68.328 46.007c.394-.644 1.147-.715 2.31-.445 1.164.27 2.669.128 2.669.128s-.736 1.056-.092 1.45c.645.395.608 1.613.608 1.613" transform="translate(-486 -1515) translate(488 1516) translate(8.446 11.196)"/>
                    <path stroke="#FFF" stroke-width="1.875" d="M72.102 49.826s-1.002-.968-1.538-1.829c-.536-.86-.428-1.326-1.592-1.596-1.164-.27-1.862-.431-2.041-.718 0 0 .017.985-.61 1.575" transform="translate(-486 -1515) translate(488 1516) translate(8.446 11.196)"/>
                    <path stroke="#FFF" stroke-width="1.875" d="M70.847 51.006s.628-.59-.017-.985c-.644-.395-1.359-1.541-1.824-1.65-.466-.107-.574.358-.628.591" transform="translate(-486 -1515) translate(488 1516) translate(8.446 11.196)"/>
                    <path stroke="#FFF" stroke-width="1.875" d="M69.684 50.736s.053-.232-.537-.86c-.59-.627-.715-1.147-1.056-.736-.34.412.196 1.272.894 1.435l.699.161z" transform="translate(-486 -1515) translate(488 1516) translate(8.446 11.196)"/>
                    <path stroke="#FFF" stroke-width="1.875" d="M71.026 51.293s-1.683-.145-2.382-.307c0 0 1.11.503 1.056.736-.054.232-.806.303-1.45-.092-.645-.395-1.252-2.007-.857-2.651.395-.645.311.36.54.637 0 0 .354.797.533 1.083M67.501 48.513s.34-.411.806-.303M70.618 47.764s.52-.124.86-.536M64.293 50.713s.037-1.218-.894-1.434M72.72 58.799s-2.906 3.005-4.34 3.899c-1.433.894-3.922 1.052-5.838.853M61.32 49.9s-1.456 6.162-2.067 7.737c-.61 1.576.317 4.98 1.66 5.536" transform="translate(-486 -1515) translate(488 1516) translate(8.446 11.196)"/>
                    <path stroke="#FFF" stroke-width="1.875" d="M61.324 63.514s2.739.88 3.761-.354c0 0-2.668-.128-3.312-.523 0 0 .86-.536 1.076-1.467 0 0-1.559.374-1.954 1.018 0 0-.016-.985-.087-1.737 0 0-.574.358-.61 1.576 0 0-.965-2.187-.803-2.885 0 0-.486 2.095.05 2.955.536.86 1.77 1.883 2.29 1.758" transform="translate(-486 -1515) translate(488 1516) translate(8.446 11.196)"/>
                    <path stroke="#44E7D9" stroke-width="1.875" d="M57.026 77.166s1.332-5.458-2.37-9.678c-.892-1.019-1.726-1.978-2.467-2.838-2.33-2.703-3.749-4.433-3.238-3.993.674.581 2.142 1.26 4.178 2.136 2.034.874 4.699 4.934 3.603 8.247 0 0-.467-.99-2.032-1.9-1.565-.91-3.022-1.432-4.052-3.642-1.03-2.21-.748-3.728-1.865-4.986M53.876 66.521L50.648 65.498M54.361 67.15L51.126 66.364M52.242 64.671L52.084 62.338M52.729 62.62L52.849 65.414M49.166 69.002c3.827.474 6.56 2.797 8.016 4.385" transform="translate(-486 -1515) translate(488 1516) translate(8.446 11.196)"/>
                    <path stroke="#44E7D9" stroke-width="1.875" d="M55.583 71.885s-.753.59-2.211.322c-1.459-.268-4.037-3.157-6.707-3.148 0 0 2.499-1.336 4.306-.75 1.806.586 3.507 1.288 4.612 3.576zM51.833 69.666L49.201 69.778M52.525 69.953L50.118 70.304M110.499 77.79c1.362-1.006 3.118-2.782 3.713-5.52.247-1.136.483-2.2.698-3.15.676-2.984 1.145-4.844 1.102-4.267-.057.76.223 2.12.658 3.968.434 1.85-1.006 5.756-3.848 6.69 0 0 .444-.827.273-2.37-.17-1.542-.553-2.813.445-4.65.998-1.837 2.189-2.416 2.486-3.828M114.481 71.238L113.54 68.491M114.294 71.893L113.187 69.262M114.923 69.168L116.45 67.87M116.585 68.458L114.72 69.966" transform="translate(-486 -1515) translate(488 1516) translate(8.446 11.196)"/>
                    <path fill="#FFF" d="M56.219 36.804c.068-.19.278-.288.467-.219.19.068.288.278.22.467-.069.19-.278.288-.468.22-.19-.069-.288-.278-.22-.468M74.02 36.754c.124-.342.5-.519.842-.396.341.124.518.5.395.842-.123.341-.5.518-.841.395-.342-.123-.519-.5-.395-.841M53.786 52.864c.069-.19.278-.288.468-.22.19.069.287.278.22.468-.07.19-.279.288-.468.22-.19-.069-.288-.278-.22-.468M33.97 43.955c.123-.341.5-.518.84-.395.343.123.52.5.396.841-.123.342-.5.519-.841.395-.342-.123-.519-.5-.395-.84M58.745 40.625c-.342-.123-.519-.5-.396-.842.124-.341.5-.518.842-.395.341.123.518.5.395.842-.123.341-.5.518-.841.395M78.886 69.843c.123-.342.5-.518.841-.395.342.123.518.5.395.84-.123.342-.5.52-.841.396-.342-.123-.518-.5-.395-.841M83.18 52.179c.201-.005.368.155.373.357.005.2-.155.368-.357.373-.201.005-.368-.155-.373-.357-.005-.201.155-.369.357-.373M83.26 64.8c.282-.007.516.217.522.5.007.281-.217.515-.499.522-.282.007-.516-.217-.523-.5-.006-.282.217-.516.5-.522M86.997 42.964c-.01-.484.373-.885.856-.896.485-.011.886.372.897.856.01.484-.372.885-.856.896-.484.011-.885-.372-.897-.856M73.797 22.714c-.011-.485.372-.886.856-.896.484-.012.885.372.896.855.011.484-.372.886-.856.897-.484.01-.885-.372-.896-.856M92.515 19.43c.069-.19.278-.289.468-.22.19.069.288.278.22.468-.07.19-.278.287-.468.22-.19-.07-.288-.279-.22-.468M110.317 19.379c.123-.342.5-.518.841-.395.342.123.519.5.396.84-.123.342-.5.52-.842.396-.341-.123-.518-.5-.395-.841M94.137 29.408c.068-.19.278-.288.467-.22.19.069.288.278.22.468-.069.19-.278.288-.468.22-.19-.069-.287-.278-.22-.468M84.456 28.945c.123-.341.5-.518.84-.395.342.123.52.5.396.841-.123.342-.5.519-.841.396-.342-.124-.519-.5-.395-.842M100.447 22.574c-.342-.123-.519-.5-.395-.841.123-.341.5-.518.84-.395.342.123.52.5.396.841-.123.342-.5.518-.841.395M103.358 38.955c.123-.342.5-.519.841-.396.342.124.519.5.396.842-.123.341-.5.518-.842.395-.341-.123-.518-.5-.395-.841M119.476 34.804c.202-.005.37.155.374.357.004.201-.155.368-.357.373-.201.005-.369-.155-.373-.357-.005-.201.155-.368.356-.373M118.543 45.06c.282-.007.516.217.523.5.006.281-.218.516-.5.522-.282.007-.516-.217-.523-.499-.006-.282.218-.516.5-.523M110.118 33.022c-.01-.484.373-.885.857-.896.483-.011.885.372.896.856.011.483-.372.885-.856.896-.484.01-.885-.372-.897-.856M40.837 28.987c-.011-.483.372-.885.856-.896.484-.011.885.372.896.856.011.484-.372.885-.856.896-.484.011-.885-.372-.896-.856M120.556 41.727c.068-.19.278-.288.467-.22.19.069.288.278.22.468-.069.19-.278.288-.468.22-.19-.069-.287-.278-.22-.468M126.871 28.838c.123-.341.5-.518.841-.395.342.123.519.5.396.841-.123.342-.5.519-.842.395-.341-.123-.518-.5-.395-.84M124.204 55.422c.069-.19.278-.288.468-.22.19.069.288.278.22.467-.069.19-.278.289-.468.22-.19-.068-.288-.278-.22-.467M114.523 54.959c.123-.342.5-.519.841-.395.342.123.519.5.395.84-.123.342-.5.52-.84.396-.342-.123-.52-.5-.396-.841M136.933 58.385c-.341-.123-.518-.5-.395-.841.123-.342.5-.519.841-.395.342.123.519.5.396.84-.124.342-.5.52-.842.396M119.236 76.792c.124-.341.5-.518.842-.395.341.123.518.5.395.841-.123.342-.5.519-.841.396-.342-.123-.518-.5-.396-.842M52.584 27.71c.202-.005.37.154.374.356.005.201-.155.369-.357.373-.201.005-.369-.155-.373-.356-.005-.202.155-.369.356-.374M39.826 55.195c.283-.007.517.217.523.5.007.282-.217.516-.5.522-.281.007-.515-.217-.522-.499-.006-.282.217-.516.5-.523M130.389 75.095c-.005-.217.167-.397.384-.402.216-.005.397.167.402.384.005.217-.167.397-.385.402-.216.005-.396-.167-.401-.384M123.27 65.474c-.012-.484.371-.885.855-.896.484-.012.885.372.896.856.012.483-.372.885-.856.896-.483.01-.885-.372-.896-.856M47.18 68.892c.069-.19.278-.288.468-.22.19.07.288.278.22.468-.069.19-.278.288-.468.22-.19-.069-.288-.278-.22-.468M64.982 68.841c.123-.341.5-.518.841-.395.342.123.519.5.396.841-.123.342-.5.519-.842.396-.341-.123-.518-.5-.395-.842M48.802 78.87c.068-.19.278-.288.467-.219.19.069.288.278.22.468-.068.19-.278.288-.467.22-.19-.07-.288-.279-.22-.468M37.093 71.313c.124-.341.5-.518.842-.395.341.123.518.5.395.841-.123.342-.5.519-.841.396-.342-.124-.519-.5-.396-.842M55.112 72.037c-.342-.123-.519-.5-.395-.842.123-.341.5-.518.84-.395.342.123.52.5.396.842-.123.341-.5.518-.841.395M63.09 79.633c.124-.341.5-.518.842-.395.342.123.518.5.395.841-.123.342-.5.519-.841.396-.342-.123-.518-.5-.395-.842M72.452 75.145c.202-.005.369.155.373.357.005.2-.155.368-.356.373-.202.005-.369-.155-.374-.357-.004-.201.156-.368.357-.373M83.343 85.063c.282-.007.516.217.523.5.006.282-.217.516-.5.522-.282.007-.516-.217-.523-.5-.006-.281.217-.515.5-.522M101.27 72.35c-.011-.485.372-.886.856-.897.484-.011.885.372.896.856.012.484-.372.885-.856.896-.483.011-.885-.372-.896-.856M88.435 75.938c-.005-.217.167-.397.384-.402.217-.005.397.167.402.384.005.217-.167.397-.384.402-.217.005-.397-.167-.402-.384M132.347 67.01c-.005-.218.167-.397.384-.402.217-.005.397.166.402.383.005.218-.167.397-.384.402-.217.005-.397-.166-.402-.383M131.334 39.983c-.005-.218.167-.397.384-.402.216-.005.397.166.401.383.006.218-.166.397-.384.402-.216.005-.396-.166-.401-.383M67.642 30.175c-.005-.217.167-.397.384-.402.217-.005.397.167.402.384.005.217-.167.397-.384.402-.217.005-.397-.167-.402-.384M47.519 39.215c-.005-.217.167-.397.384-.402.217-.005.397.167.402.384.005.217-.167.397-.384.402-.217.005-.397-.167-.402-.384M28.938 63.54c-.005-.218.167-.398.384-.402.216-.006.397.166.402.383.005.217-.167.397-.385.402-.216.005-.396-.167-.401-.384M49.251 47.14c.283-.006.517.218.523.5.007.282-.217.516-.5.523-.282.006-.515-.217-.522-.5-.006-.282.217-.516.5-.522" transform="translate(-486 -1515) translate(488 1516) translate(8.446 11.196)"/>
                </g>
            </g>
        </g>
    </g>
</svg>
