<svg xmlns="http://www.w3.org/2000/svg" width="191" height="269" viewBox="0 0 191 269"><title>Туз Жезлов</title>
    <g fill="none" fill-rule="evenodd">
        <g>
            <g>
                <path fill="#2a1612" stroke="#FFF" stroke-linecap="round" stroke-linejoin="round" stroke-width="2.5" d="M177.475 265.252H9.605c-5.212 0-9.436-4.224-9.436-9.435V9.487c0-5.21 4.224-9.435 9.435-9.435h167.871c5.211 0 9.435 4.225 9.435 9.436v246.329c0 5.21-4.224 9.435-9.435 9.435z" transform="translate(-185 -4253) translate(187 4255)"/>
                <path fill="#44E7D9" fill-rule="nonzero" d="M62.38 256.024l.729-3.161h3.08l.73 3.16h.842l-2.529-10.795h-1.167l-2.529 10.796h.843zm3.647-3.89H63.27l1.378-5.982 1.378 5.981zm5.852 3.97c.702 0 1.323-.086 1.864-.258v-.762c-.616.183-1.26.275-1.93.275-.67 0-1.148-.121-1.434-.365-.286-.243-.43-.602-.43-1.078v-6.58c0-.476.144-.836.43-1.079.286-.243.76-.365 1.419-.365s1.296.092 1.912.276v-.762c-.605-.173-1.215-.26-1.831-.26-1.827 0-2.74.73-2.74 2.19v6.58c0 1.46.913 2.189 2.74 2.189zm8.202-.08v-.73h-3.664v-4.344h3.194v-.73h-3.194v-4.263h3.664v-.73h-4.474v10.797h4.474zm7.36.162c.853 0 1.496-.23 1.928-.689.433-.46.649-1.056.649-1.791v-6.16c0-.735-.216-1.332-.649-1.791-.432-.46-1.075-.69-1.929-.69-.853 0-1.496.23-1.929.69-.432.459-.648 1.056-.648 1.79v6.16c0 .736.216 1.333.648 1.792.433.46 1.076.689 1.93.689zm0-.73c-1.179 0-1.768-.583-1.768-1.75v-6.16c0-1.167.59-1.75 1.767-1.75 1.178 0 1.767.583 1.767 1.75v6.16c0 1.167-.589 1.75-1.767 1.75zm5.657.568v-4.912h3.372v-.73h-3.372v-4.425h3.517v-.73h-4.328v10.797h.81zm8.948 0v-4.912h3.372v-.73h-3.372v-4.425h3.517v-.73h-4.328v10.797h.81zm5.868 0v-10.796h-.81v10.796h.81zm3.242 0v-4.458l1.73-.002c.097-.002.174-.007.231-.014l1.605 4.474h.892l-1.702-4.653c.93-.345 1.394-1.091 1.394-2.237v-1.475c0-.735-.216-1.323-.649-1.767-.432-.443-1.075-.664-1.929-.664h-2.383v10.796h.811zm1.572-5.22h-1.572v-4.847h1.572c1.178 0 1.767.568 1.767 1.702v1.475c0 1.114-.589 1.67-1.767 1.67zm9.386 5.22v-.73h-3.663v-4.344h3.193v-.73h-3.193v-4.263h3.663v-.73h-4.474v10.797h4.474z" transform="translate(-185 -4253) translate(187 4255)"/>
                <g>
                    <path stroke="#FFF" stroke-linecap="round" stroke-linejoin="round" stroke-width="1.875" d="M99.342 3.867L163.738 3.867 163.738 226.622M15.9 3.867L68.043 3.867M153.687 239.564L121.01 239.564M5.526 14.799L5.526 239.564 46.362 239.564" transform="translate(-185 -4253) translate(187 4255) translate(8.094 10.997)"/>
                    <path fill="#000" d="M5.253 0.025L7.871 4.559 10.489 9.093 5.253 9.093 0.018 9.093 2.636 4.559z" transform="translate(-185 -4253) translate(187 4255) translate(8.094 10.997)"/>
                    <path stroke="#D1A448" stroke-linecap="round" stroke-linejoin="round" stroke-width="1.875" d="M5.253 0.025L7.871 4.559 10.489 9.093 5.253 9.093 0.018 9.093 2.636 4.559z" transform="translate(-185 -4253) translate(187 4255) translate(8.094 10.997)"/>
                    <path fill="#000" d="M163.902 244.095L161.285 239.561 158.667 235.027 163.902 235.027 169.138 235.027 166.52 239.561z" transform="translate(-185 -4253) translate(187 4255) translate(8.094 10.997)"/>
                    <path stroke="#D1A448" stroke-linecap="round" stroke-linejoin="round" stroke-width="1.875" d="M163.902 244.095L161.285 239.561 158.667 235.027 163.902 235.027 169.138 235.027 166.52 239.561z" transform="translate(-185 -4253) translate(187 4255) translate(8.094 10.997)"/>
                </g>
                <path fill="#44E7D9" fill-rule="nonzero" d="M92.392 18.302L92.392 7.506 91.581 7.506 91.581 18.302z" transform="translate(-185 -4253) translate(187 4255)"/>
                <g>
                    <path stroke="#FFF" stroke-linecap="round" stroke-linejoin="round" stroke-width="1.875" d="M29.316 110.997s-3.059-.227-3.965-3.172c-.906-2.946-2.153-3.285-2.153-3.285s-1.7.566-2.152 2.379c0 0 .113.453-.793.68-.906.226-1.586.679-1.7 1.019M18.553 108.958c-.453-1.473-2.265-1.02-1.812-.114.453.907.906 3.06.906 3.06" transform="translate(-185 -4253) translate(187 4255) translate(58.678 25.16)"/>
                    <path stroke="#FFF" stroke-linecap="round" stroke-linejoin="round" stroke-width="1.875" d="M17.874 111.563s2.379-1.359 2.606-2.605c.226-1.246-1.39-.864-1.658-.432M13.456 107.145s.226-1.36.226-2.266c0-.906.68-2.152 1.36-.34 0 0 1.02-.452 1.246.567.226 1.02-1.926 1.246-2.38 1.926M23.198 104.54s-.793-2.266-2.152-3.06c-1.36-.792-4.305-1.132-4.758-2.152-.453-1.02-.793-1.02-.793-1.02" transform="translate(-185 -4253) translate(187 4255) translate(58.678 25.16)"/>
                    <path stroke="#FFF" stroke-linecap="round" stroke-linejoin="round" stroke-width="1.875" d="M17.874 100.688s0 1.925-1.246 2.492-1.473 1.133-1.473 1.133M22.405 102.5s.114-1.472 1.02-1.812M14.022 94.344c.34.68-.566 3.738-.226 4.305.34.566 1.359-.453 1.359-.453M15.835 98.309s1.133 0 .68-1.133c-.454-1.133-1.36-1.586-2.04-2.606" transform="translate(-185 -4253) translate(187 4255) translate(58.678 25.16)"/>
                    <path stroke="#FFF" stroke-linecap="round" stroke-linejoin="round" stroke-width="1.875" d="M23.765 100.461s-1.246-.113-1.36-1.132c-.023-.207.038-.423.15-.64.438-.857 1.663-1.74 1.663-2.193 0 0-.113.907.227 2.04.34 1.132.34 3.285-.34 2.832-.68-.453-.34-.907-.34-.907zM35.01 94.54s2.493-2.492 3.059-3.398c.566-.907 2.152-1.813 2.379-2.266.227-.453.793-1.02 1.02-1.926.226-.906 1.246-1.36 1.699-1.699.31-.233.728-.786 1.033-1.11.14-.149.255-.25.326-.25.227 0 .567-.453 1.7-.34 1.132.114 2.379.114 2.832-.452.453-.567 1.812-1.247 1.812-1.247s-1.02.453-.34 1.473c.68 1.02 2.38-2.492 3.512-2.379.91.091-2.718-.68-3.738-.34s.226 1.133.226 1.133" transform="translate(-185 -4253) translate(187 4255) translate(58.678 25.16)"/>
                    <path stroke="#FFF" stroke-linecap="round" stroke-linejoin="round" stroke-width="1.875" d="M45.999 79.133s-1.133.793-1.473 1.7c-.34.906-.68.68-.566 1.812.113 1.133-.04 1.813-.04 1.813M46.225 83.552s0 .68.454 1.246c.453.566.68.792.68 1.246 0 .453.452 1.02.452 1.02" transform="translate(-185 -4253) translate(187 4255) translate(58.678 25.16)"/>
                    <path stroke="#FFF" stroke-linecap="round" stroke-linejoin="round" stroke-width="1.875" d="M48.265 87.063s.34-.68.68-.566c.34.113.113 2.719.113 2.719-.453-.68-2.266-1.133-2.153-1.813.114-.68 1.36 0 1.36 0M49.171 75.961c-.907 0-2.72 1.246-3.172 2.153-.453.906.453.68.453.68" transform="translate(-185 -4253) translate(187 4255) translate(58.678 25.16)"/>
                    <path stroke="#FFF" stroke-linecap="round" stroke-linejoin="round" stroke-width="1.875" d="M46.452 79.133s.227.567.793.454c.566-.114 1.36-3.626 2.379-3.626" transform="translate(-185 -4253) translate(187 4255) translate(58.678 25.16)"/>
                    <path fill="#000" d="M29.525 68.53s-14.403-1.86-13.939-19.98c0 0 .93-8.827 7.434-16.261 0 0-1.858 5.575-1.858 8.827 0 0 4.646-6.97 6.97-14.403 2.322-7.434.464-13.01.464-13.01S45.322 27.179 46.25 47.622c-.043.085-.224 11.588-6.969 18.585 0 0-5.111 3.717-9.757 2.323" transform="translate(-185 -4253) translate(187 4255) translate(58.678 25.16)"/>
                    <path stroke="#D1A448" stroke-linecap="round" stroke-linejoin="round" stroke-width="1.875" d="M29.525 68.53s-14.403-1.86-13.939-19.98c0 0 .93-8.827 7.434-16.261 0 0-1.858 5.575-1.858 8.827 0 0 4.646-6.97 6.97-14.403 2.322-7.434.464-13.01.464-13.01S45.322 27.179 46.25 47.622c-.043.085-.224 11.588-6.969 18.585 0 0-5.111 3.717-9.757 2.323z" transform="translate(-185 -4253) translate(187 4255) translate(58.678 25.16)"/>
                    <path stroke="#D1A448" stroke-linecap="round" stroke-linejoin="round" stroke-width="1.875" d="M30.454 68.53s-11.15-1.395-6.04-13.94c0 0 .93-1.858 4.646-7.433 3.717-5.576 3.253-9.293 3.253-9.293s8.827 10.686 8.363 20.443c-.465 9.757-6.04 9.757-10.222 10.222z" transform="translate(-185 -4253) translate(187 4255) translate(58.678 25.16)"/>
                    <path stroke="#D1A448" stroke-linecap="round" stroke-linejoin="round" stroke-width="1.875" d="M29.538 68.267s-5.587-1.604-1.974-9.33c0 0 .624-1.135 2.968-4.477 2.345-3.343 2.404-5.758 2.404-5.758s3.658 7.42 2.642 13.654c-1.017 6.233-3.866 5.878-6.04 5.91z" transform="translate(-185 -4253) translate(187 4255) translate(58.678 25.16)"/>
                    <path fill="#FFF" d="M11.393 74.147c0 .31-.252.563-.563.563-.31 0-.563-.252-.563-.563 0-.311.252-.563.563-.563.311 0 .563.252.563.563M5.329 60.59c0 .173-.14.313-.313.313s-.313-.14-.313-.313c0-.172.14-.312.313-.312s.313.14.313.312M55.016 46.634c0 .415-.336.751-.75.751-.415 0-.751-.336-.751-.75 0-.415.336-.751.75-.751.415 0 .75.336.75.75M9.737 65.788c0 .172-.14.312-.313.312s-.313-.14-.313-.312c0-.173.14-.313.313-.313.172 0 .313.14.313.313M37.846 9.567c0 .242-.195.438-.437.438s-.438-.196-.438-.438.196-.438.438-.438.437.196.437.438M21.966 17.048c.31 0 .562.252.562.563 0 .311-.252.563-.562.563-.311 0-.563-.252-.563-.563 0-.31.252-.563.563-.563M14.245 39.312c0 .241-.196.437-.437.437-.242 0-.438-.196-.438-.437 0-.242.196-.438.438-.438.241 0 .437.196.437.438M.917 53.964c0 .173-.14.313-.313.313s-.312-.14-.312-.313c0-.172.14-.312.312-.312.173 0 .313.14.313.312M36.934 21.037c0 .311-.252.563-.563.563-.31 0-.563-.252-.563-.563 0-.31.252-.562.563-.562.31 0 .563.251.563.562M20.02 78.972c.415 0 .751.336.751.75 0 .415-.336.75-.75.75-.415 0-.751-.335-.751-.75 0-.414.336-.75.75-.75M26.147 22.528c0 .311-.251.563-.562.563-.311 0-.563-.252-.563-.563 0-.31.252-.563.563-.563.31 0 .562.252.562.563M49.758 67.234c0 .31-.252.563-.563.563-.31 0-.562-.253-.562-.563 0-.311.252-.563.562-.563.311 0 .563.252.563.563M55.53 36.218c0 .172-.14.312-.312.312-.173 0-.313-.14-.313-.312 0-.173.14-.313.313-.313s.313.14.313.313M30.35 9.537c0 .415-.337.75-.751.75-.415 0-.75-.335-.75-.75 0-.414.335-.75.75-.75.414 0 .75.336.75.75M50.607 51.724c0 .173-.14.313-.313.313s-.313-.14-.313-.313c0-.172.14-.312.313-.312s.313.14.313.312M52.538 15.674c0 .242-.196.438-.438.438s-.438-.196-.438-.438.196-.437.438-.437.438.195.438.437M47.38 30.175c.31 0 .562.252.562.563 0 .31-.252.563-.563.563-.31 0-.563-.252-.563-.563 0-.31.252-.563.563-.563M41.957.439c0 .242-.196.438-.437.438-.242 0-.438-.196-.438-.438s.196-.438.438-.438c.241 0 .437.196.437.438M52.293 23.74c0 .311-.252.563-.563.563-.31 0-.562-.252-.562-.563 0-.31.252-.563.562-.563.311 0 .563.252.563.563M56.445 29.888c0 .172-.14.312-.312.312-.173 0-.313-.14-.313-.312 0-.173.14-.313.313-.313.172 0 .312.14.312.313M49.258 40.234c0 .311-.252.563-.563.563-.31 0-.563-.252-.563-.563 0-.31.252-.563.563-.563.311 0 .563.253.563.563M49.508 62.293c.415 0 .75.336.75.75 0 .415-.335.751-.75.751-.414 0-.75-.336-.75-.75 0-.415.336-.75.75-.75M57.5 65.007c0 .31-.252.563-.563.563-.311 0-.563-.252-.563-.563 0-.311.252-.563.563-.563.31 0 .563.252.563.563M56.325 53.99c0 .173-.14.313-.312.313-.173 0-.313-.14-.313-.312 0-.173.14-.313.313-.313.172 0 .312.14.312.313M7.442 43.856c0 .31-.253.563-.563.563-.311 0-.563-.252-.563-.563 0-.311.252-.563.563-.563.31 0 .563.252.563.563M19.724 12.84c0 .172-.14.312-.313.312-.172 0-.312-.14-.312-.312 0-.173.14-.313.312-.313.173 0 .313.14.313.313M43.962 16.935c0 .415-.336.75-.75.75-.415 0-.751-.335-.751-.75 0-.414.336-.75.75-.75.415 0 .75.336.75.75M14.8 28.346c0 .173-.14.313-.313.313-.172 0-.312-.14-.312-.313 0-.172.14-.312.312-.312.173 0 .313.14.313.312M11.405 17.746c0 .242-.196.437-.438.437s-.438-.195-.438-.437.196-.438.438-.438.438.196.438.438M15.647 23.747c.31 0 .562.253.562.563 0 .311-.252.563-.562.563-.311 0-.563-.252-.563-.563 0-.31.252-.563.563-.563M45.509 23.817c0 .242-.196.437-.438.437s-.438-.195-.438-.437.196-.438.438-.438.438.196.438.438M28.028.954c0 .311-.252.563-.563.563-.311 0-.563-.252-.563-.563 0-.31.252-.562.563-.562.31 0 .563.251.563.562M20.639 6.51c0 .172-.14.312-.313.312-.172 0-.312-.14-.312-.312 0-.173.14-.313.312-.313.173 0 .313.14.313.313M6.941 31.288c0 .31-.252.562-.563.562-.31 0-.563-.251-.563-.562 0-.311.252-.563.563-.563.311 0 .563.252.563.563M10.15 51.344c.415 0 .75.336.75.75 0 .415-.335.751-.75.751-.414 0-.75-.336-.75-.75 0-.415.336-.75.75-.75M25.066 29.489c0 .31-.252.563-.563.563-.311 0-.563-.253-.563-.563 0-.311.252-.563.563-.563.31 0 .563.252.563.563M20.519 30.613c0 .173-.14.312-.313.312s-.312-.14-.312-.312c0-.173.14-.313.312-.313.173 0 .313.14.313.313" transform="translate(-185 -4253) translate(187 4255) translate(58.678 25.16)"/>
                    <path stroke="#D1A448" stroke-linecap="round" stroke-linejoin="round" stroke-width="1.875" d="M43.106 53.949s-1.776-8.286-6.51-13.613M26.814 45.331s4.71-5.397 3.287-12.578" transform="translate(-185 -4253) translate(187 4255) translate(58.678 25.16)"/>
                    <path stroke="#44E7D9" stroke-linecap="round" stroke-linejoin="round" stroke-width="1.875" d="M23.675 144.052c-1.074 1.269-3.53 5.616-4.722 6.492-1.192.876-3.813 4.115-5.297 6.15-1.484 2.037-3.29 6.402-4.72 11.166-1.429 4.764-1.349 6.584-1.349 6.584.523 9.361.012 13.761.012 13.761s-.017 4.873-.802 8.9M24.222 143.029s1.087-1.788 1.509-2.945M26.145 139.187s1.45-5.543 3.723-7.947c0 0 1.002 1.326 1.085 3.016 0 0-1.857 6.18-3.024 6.148-1.168-.032-2.21.07-1.784-1.217zM32.307 141.693s-1.341 6.324-2.415 7.593M29.492 149.664s-1.576 5.41-4.652 8.7M22.985 159.742s-1.733 1.64-2.796 2.52M30.566 138.919s2.182-3.835 3.887-4.438c1.704-.602 2.57.98 2.292 1.621-.277.641-2.73 4.859-5.076 5.184 0 0-1.542-.562-1.117-1.848" transform="translate(-185 -4253) translate(187 4255) translate(58.678 25.16)"/>
                    <path stroke="#44E7D9" stroke-linecap="round" stroke-linejoin="round" stroke-width="1.875" d="M30.847 138.147s-.985-1.974 1.007-3.607c1.993-1.633 1.628-2.552 2.954-3.554 1.326-1.002 1.08-1.528 2.125-1.76 1.045-.23 1.816.05 2.549 1.758M39.986 131.517s1.273.944.974 2.364c-.299 1.42-3.368 4.451-4.308 5.594-.94 1.143-2.496 1.1-2.496 1.1M41.331 134.54s1.659 1.084 2.152 2.006c.494.923 2.949 1.38 2.586 5.134 0 0-.421 1.157-2.287 2.923 0 0-2.575 3.954-4.3 5.335-1.726 1.38-6.503 5.145-6.643 5.53-.141.386-1.726 1.381-1.653 3.46M35.831 141.01s-1.112 2.696-1.779 3.327c0 0-.017.649.617 1.185M28.899 152.374s.309-1.809 1.638-2.94c0 0 .951-1.532 1.61-1.904 0 0-.09-1.43 1.625-2.422" transform="translate(-185 -4253) translate(187 4255) translate(58.678 25.16)"/>
                    <path stroke="#44E7D9" stroke-linecap="round" stroke-linejoin="round" stroke-width="1.875" d="M32.549 151.825s1.766 1.866-1.029 4.386-4.089 2.354-4.198 1.572c-.108-.781.219-3.239 1.555-4.63 1.337-1.392 2.666-2.524 3.672-1.328zM33.434 157.432s-2.515 1.748-3.195 2.898c-.681 1.15-1.095 2.047-.741 3.355.353 1.308 2.46.197 3.25-.17.789-.368 3.458-3.021 3.476-3.67M34.352 157.068s1.543.561 1.886 2.258M46.534 143.64s-.908-.024-2.658 2.264c-1.75 2.29-4.242 4.468-6.7 5.874M46.923 143.651s2.044 1.225 2.222 4.216" transform="translate(-185 -4253) translate(187 4255) translate(58.678 25.16)"/>
                    <path stroke="#44E7D9" stroke-linecap="round" stroke-linejoin="round" stroke-width="1.875" d="M33.523 163.66s1.02.683 4.078-1.96c0 0 2.77-1.611 4.482-2.473 1.711-.862 5.453-4.784 6.386-5.667.234-.22.492-.482.746-.773.76-.873 1.473-2.022 1.31-3.195-.216-1.564-1.37-2.122-1.37-2.122M52.29 156.261s-.059-2.598-1.857-3.296c0 0-.515-.144-1.168-.032M33.206 165.734s3.437-2.242 5.116-1.937c1.68.306 1.903 1.61.708 2.616-1.196 1.006-2.112 1.24-2.112 1.24" transform="translate(-185 -4253) translate(187 4255) translate(58.678 25.16)"/>
                    <path stroke="#44E7D9" stroke-linecap="round" stroke-linejoin="round" stroke-width="1.875" d="M52.276 156.78s1.398 1.077.805 3.787c-.125.571-.538 1.117-1.14 1.64-2.255 1.96-7.163 3.606-9.56 5.077-3.037 1.864-4.468 1.954-5.992.744l-2.36.845M52.375 162.625s-1.923 3.842-5.4 2.838M50.48 165.429s-.575 2.061-1.67 4.108c-1.095 2.047-3.545 1.46-3.545 1.46M44.494 170.717s-2.703-.853-3.709-2.049M47.99 171.073s-1.016 3.866-1.556 4.63c-.54.765-3.22 3.807-3.767 4.83-.548 1.024-3.63 4.575-4.286 4.816l-1.471 1.677M28.274 183.255s-.725-1.967-.697-3.005l.1-3.633M11.782 189.553s.508.404 1.92.962c1.413.557 1.259 1.462 3.054 2.29 1.794.828 2.342-.195 3.621.49M21.411 193.452s1.904 1.61 3.716 1.79c1.813.18 2.99-.178 3.517-.423M13.877 193.635s1.02.677 2.822 1.246c1.802.568 2.601-.188 2.601-.188M28.424 202.831c-3.517.657-9.389 1.2-13.99-1.132M13.923 201.426s-4.49-1.94-6.008-3.41M35.847 145.165s2.163 1.617 2.93 2.028M40.604 146.853l-1.514-1.6c-1.03-.287-1.654-1.213-1.654-1.213M22.797 145.262s1.57 1.925 2.349 1.946M23.568 147.944L21.978 146.725M24.721 148.495L24.08 148.218M23.283 148.845s-1.746-.048-2.015-.964M38.383 142.638s.645.147 1.153.551M40.42 144.122s.62 1.055.865 1.582M41.093 152.709s-.688 1.409 1.857 3.296M42.52 152.748s.624.926.991 1.715M43.34 151.212s1.392 1.337 1.61 2.9M44.263 160.195s1.237 2.241 2.394 2.662M45.196 159.312s.234.915.876 1.193" transform="translate(-185 -4253) translate(187 4255) translate(58.678 25.16)"/>
                    <path stroke="#44E7D9" stroke-linecap="round" stroke-linejoin="round" stroke-width="1.875" d="M46.104 159.337s.39.01 1.006 1.196c.616 1.185.508.403.49 1.052M12.689 156.474s1.501-2.685 2.144-7.212c0 0 3.548-6.263 6.588-8.257 3.041-1.994 3.876-4.049 4.654-4.027" transform="translate(-185 -4253) translate(187 4255) translate(58.678 25.16)"/>
                    <path stroke="#FFF" stroke-linecap="round" stroke-linejoin="round" stroke-width="1.875" d="M35.84 212.17c-3.115 4.42-6.488.048-6.488.048l-.43-47.388.164-6.014M32.232 52.57c-1.33-.037-1.244 2.894-1.244 2.894-1.1 28.094-1.838 75.65-1.838 75.65" transform="translate(-185 -4253) translate(187 4255) translate(58.678 25.16)"/>
                    <path stroke="#FFF" stroke-linecap="round" stroke-linejoin="round" stroke-width="1.875" d="M36.138 169.515c.108 26.236-.183 42.528-.183 42.528s-3.348 4.562-6.488.317M32.16 52.582c1.328-.111 1.259 2.825 1.259 2.825.044.978.088 1.955.13 2.93 1.111 25.387 1.77 49.532 2.147 70.848M30.17 79.022s.51 5.672 4.454 7.494M29.797 93.03s1.584 9.637 5.393 12.842M29.606 101.27s1.312 8.817 5.758 11.702M29.305 117.25s1.522 6.972 6.34 9.107M29.223 122.637s.7 3.625 3.201 6.453M28.926 170.493s.585 8.698 7.234 13.343M28.95 183.518s.233 4.685 7.169 12.488M28.956 179.233s2.035 7.769 7.187 11.867M29.091 195.813s-.402 6.254 6.984 11.861" transform="translate(-185 -4253) translate(187 4255) translate(58.678 25.16)"/>
                    <path stroke="#44E7D9" stroke-linecap="round" stroke-linejoin="round" stroke-width="1.875" d="M32.86 164.167s-.807 1.016-.457 2.454M33.12 168.848s-1.412-.558-.317-2.606" transform="translate(-185 -4253) translate(187 4255) translate(58.678 25.16)"/>
                </g>
            </g>
        </g>
    </g>
</svg>
