<svg xmlns="http://www.w3.org/2000/svg" width="191" height="267" viewBox="0 0 191 267"><title>Десятка Мечей</title>
    <g fill="none" fill-rule="evenodd">
        <g>
            <g>
                <g stroke="#FFF" stroke-linecap="round" stroke-linejoin="round">
                    <path fill="#1a1d24" stroke-width="2.5" d="M177.795 263.217H9.62c-5.22 0-9.452-4.192-9.452-9.365V9.365C.17 4.193 4.401 0 9.621 0h168.174c5.22 0 9.452 4.193 9.452 9.365v244.487c0 5.173-4.232 9.365-9.452 9.365z" transform="translate(-477 -988) translate(479 989) translate(0 .569)"/>
                    <path stroke-width="1.25" d="M27.521 85.394L46.91 85.357 46.921 90.816 27.531 90.854zM25.186 91.768L26.308 91.766 27.431 91.763 27.417 84.686 25.172 84.691zM26.397 84.688L26.41 91.766" transform="translate(-477 -988) translate(479 989) translate(0 .569)"/>
                    <path stroke-width="1.25" d="M25.183 90.271s-1.735-.218-1.943-2.038c0 0-.003-1.745 1.935-2.09M50.29 91.988L130.294 90.556 141.718 88.107 130.283 85.096 50.274 83.79M50.283 88.131L80.897 87.819M81.917 87.817L83.55 87.814M84.366 87.812L83.958 87.813M85.387 87.81L141.718 88.107M54.159 87.062L55.789 85.845M53.545 86.456L54.972 85.442M55.383 87.059L56.198 86.451" transform="translate(-477 -988) translate(479 989) translate(0 .569)"/>
                    <path stroke-width="1.25" d="M46.833 98.602L46.793 77.572 50.262 77.565 50.303 98.595zM48.67 98.598L48.63 77.568M29.309 90.746L29.318 85.39M31.546 90.793L31.555 85.436M33.669 90.719L33.677 85.363M35.906 90.766L35.914 85.409M38.427 90.671L38.436 85.315M40.441 90.999L40.673 85.361M42.787 90.644L42.795 85.288M45.024 90.691L45.032 85.334M161.762 74.211L142.373 74.248 142.362 68.788 161.752 68.751zM164.097 67.837L162.975 67.839 161.852 67.841 161.866 74.918 164.111 74.914zM162.886 74.916L162.872 67.839" transform="translate(-477 -988) translate(479 989) translate(0 .569)"/>
                    <path stroke-width="1.25" d="M164.1 69.333s1.735.219 1.943 2.038c0 0 .003 1.746-1.935 2.09M138.993 67.617L58.989 69.049 47.565 71.498 59 74.509 139.008 75.815M139 71.474L108.386 71.785M107.366 71.787L105.733 71.791M104.917 71.792L105.325 71.791M103.896 71.794L47.565 71.498M135.124 72.543L133.494 73.759M135.738 73.148L134.311 74.162M133.9 72.545L133.084 73.153" transform="translate(-477 -988) translate(479 989) translate(0 .569)"/>
                    <path stroke-width="1.25" d="M142.449 61.003L142.49 82.032 139.021 82.039 138.979 61.01zM140.612 61.007L140.653 82.036M159.974 68.858L159.965 74.215M157.736 68.812L157.728 74.168M155.614 68.885L155.606 74.242M153.377 68.839L153.369 74.196M150.856 68.933L150.847 74.289M148.842 68.605L148.61 74.243M146.496 68.96L146.488 74.317M144.259 68.914L144.251 74.27M27.521 52.737L46.91 52.7 46.921 58.159 27.531 58.197zM25.186 59.111L26.308 59.109 27.431 59.107 27.417 52.03 25.172 52.034zM26.397 52.031L26.41 59.109" transform="translate(-477 -988) translate(479 989) translate(0 .569)"/>
                    <path stroke-width="1.25" d="M25.183 57.614s-1.735-.218-1.943-2.038c0 0-.003-1.745 1.935-2.09M50.29 59.331L130.294 57.899 141.718 55.45 130.283 52.439 50.274 51.133M50.283 55.474L80.897 55.162M81.917 55.161L83.55 55.157M84.366 55.156L83.958 55.157M85.387 55.154L141.718 55.45M54.159 54.405L55.789 53.188M53.545 53.799L54.972 52.786M55.383 54.403L56.198 53.794" transform="translate(-477 -988) translate(479 989) translate(0 .569)"/>
                    <path stroke-width="1.25" d="M46.833 65.945L46.793 44.915 50.262 44.908 50.303 65.938zM48.67 65.941L48.63 44.912M29.309 58.09L29.318 52.733M31.546 58.136L31.555 52.78M33.669 58.062L33.677 52.706M35.906 58.109L35.914 52.752M38.427 58.015L38.436 52.658M40.441 58.343L40.673 52.705M42.787 57.988L42.795 52.631M45.024 58.034L45.032 52.678" transform="translate(-477 -988) translate(479 989) translate(0 .569)"/>
                </g>
                <path fill="#D1A448" fill-rule="nonzero" d="M68.57 251.5v-10.084h2.143v-.73h-5.099v.73h2.144V251.5h.812zm8.006 0v-.73h-3.67v-4.352h3.199v-.731h-3.2v-4.271h3.67v-.73h-4.481V251.5h4.482zm2.663 0v-6.138l-.031-3.19-.001-.068v-.022c.4 1.039 1.634 4.179 3.702 9.419h1.072v-10.816h-.812v6.171l.033 3.28c-.13-.346-1.365-3.496-3.703-9.45h-1.056V251.5h.796zm12.683.163c.855 0 1.5-.23 1.933-.69.433-.46.65-1.058.65-1.795v-6.17c0-.737-.217-1.335-.65-1.795-.433-.46-1.078-.69-1.933-.69s-1.5.23-1.932.69c-.433.46-.65 1.058-.65 1.794v6.171c0 .737.217 1.335.65 1.795.433.46 1.077.69 1.932.69zm0-.73c-1.18 0-1.77-.585-1.77-1.755v-6.17c0-1.17.59-1.755 1.77-1.755 1.18 0 1.77.585 1.77 1.754v6.171c0 1.17-.59 1.754-1.77 1.754zm5.668.568v-4.921h3.377v-.73H97.59v-4.434h3.524v-.73h-4.336V251.5h.812zm8.103 0l.73-3.167h3.086l.731 3.167h.845l-2.534-10.816h-1.169l-2.533 10.816h.844zm3.654-3.898h-2.76l1.38-5.992 1.38 5.992zm4.092 3.898v-10.816h-.812v10.816h.812zm3.248 0v-4.466h1.576c.173 0 .303-.006.39-.017l1.607 4.483h.893l-1.705-4.661c.931-.347 1.397-1.094 1.397-2.241v-1.478c0-.736-.217-1.326-.65-1.77-.433-.444-1.077-.666-1.932-.666h-2.388v10.816h.812zm1.576-5.23h-1.576v-4.855h1.576c1.18 0 1.77.568 1.77 1.705v1.478c0 1.115-.59 1.672-1.77 1.672z" transform="translate(-477 -988) translate(479 989)"/>
                <g>
                    <path stroke="#FFF" stroke-linecap="round" stroke-linejoin="round" stroke-width="1.875" d="M154.214 237.773L126.932 237.773M44.331 237.773L5.786 237.773 5.786 14.688" transform="translate(-477 -988) translate(479 989) translate(8.446 11.28)"/>
                    <path stroke="#44E7D9" stroke-linecap="round" stroke-linejoin="round" stroke-width="1.875" d="M5.513 0.025L8.136 4.525 10.758 9.025 5.513 9.025 0.269 9.025 2.891 4.525z" transform="translate(-477 -988) translate(479 989) translate(8.446 11.28)"/>
                    <g>
                        <path fill="#000" d="M0.277 0.192L10.75 0.192" transform="translate(-477 -988) translate(479 989) translate(8.446 11.28) translate(0 3.682)"/>
                        <path stroke="#44E7D9" stroke-linecap="round" stroke-linejoin="round" stroke-width="1.875" d="M0.277 0.192L10.75 0.192" transform="translate(-477 -988) translate(479 989) translate(8.446 11.28) translate(0 3.682)"/>
                    </g>
                    <path stroke="#44E7D9" stroke-linecap="round" stroke-linejoin="round" stroke-width="1.875" d="M164.448 242.27L161.826 237.77 159.203 233.27 164.448 233.27 169.692 233.27 167.071 237.77z" transform="translate(-477 -988) translate(479 989) translate(8.446 11.28)"/>
                    <g>
                        <path fill="#000" d="M10.563 0.448L0.09 0.448" transform="translate(-477 -988) translate(479 989) translate(8.446 11.28) translate(159.122 237.979)"/>
                        <path stroke="#44E7D9" stroke-linecap="round" stroke-linejoin="round" stroke-width="1.875" d="M10.563 0.448L0.09 0.448" transform="translate(-477 -988) translate(479 989) translate(8.446 11.28) translate(159.122 237.979)"/>
                    </g>
                    <path stroke="#FFF" stroke-linecap="round" stroke-linejoin="round" stroke-width="1.875" d="M101.27 3.431L165.38 3.431 165.38 224.521M17.276 3.431L69.513 3.431" transform="translate(-477 -988) translate(479 989) translate(8.446 11.28)"/>
                </g>
                <path fill="#D1A448" fill-rule="nonzero" d="M91.878 20.578L93.837 15.984 95.797 20.578 96.726 20.578 94.26 14.953 96.726 9.328 95.797 9.328 93.837 13.94 91.878 9.328 90.949 9.328 93.398 14.953 90.949 20.578z" transform="translate(-477 -988) translate(479 989)"/>
                <g>
                    <path stroke="#FFF" stroke-linecap="round" stroke-linejoin="round" stroke-width="1.875" d="M4.81 60.604L24.199 60.566 24.21 66.026 4.821 66.063zM2.475 66.977L3.598 66.975 4.721 66.973 4.707 59.896 2.462 59.9zM3.686 59.898L3.7 66.975" transform="translate(-477 -988) translate(479 989) translate(22.635 58.474)"/>
                    <path stroke="#FFF" stroke-linecap="round" stroke-linejoin="round" stroke-width="1.875" d="M2.472 65.48S.737 65.263.53 63.444c0 0-.004-1.746 1.935-2.09M27.58 67.197L107.583 65.765 119.008 63.316 107.572 60.305 27.564 58.999M27.572 63.34L58.186 63.029M59.207 63.027L60.84 63.024M61.656 63.022L61.248 63.023M62.677 63.02L119.008 63.317M31.448 62.271L33.078 61.055M30.835 61.666L32.261 60.652M32.673 62.269L33.488 61.661M24.123 73.811L24.082 52.782 27.551 52.775 27.593 73.804zM25.96 73.808L25.919 52.778M6.599 65.956L6.607 60.6M8.836 66.002L8.844 60.646M10.958 65.929L10.967 60.572M13.195 65.975L13.204 60.619M15.717 65.881L15.725 60.525M17.731 66.209L17.963 60.571M20.076 65.854L20.085 60.498M22.313 65.9L22.322 60.544M139.127 49.42L119.738 49.457 119.727 43.998 139.116 43.96zM141.462 43.046L140.339 43.048 139.216 43.051 139.231 50.127 141.476 50.123zM140.251 50.126L140.237 43.048" transform="translate(-477 -988) translate(479 989) translate(22.635 58.474)"/>
                    <path stroke="#FFF" stroke-linecap="round" stroke-linejoin="round" stroke-width="1.875" d="M141.465 44.543s1.735.219 1.943 2.038c0 0 .003 1.745-1.936 2.09M116.357 42.826L36.354 44.259 24.929 46.707 36.365 49.718 116.373 51.024M116.365 46.683L85.751 46.995M84.73 46.997L83.098 47M82.281 47.001L82.689 47.001M81.261 47.003L24.93 46.707M112.489 47.752L110.859 48.969M113.102 48.358L111.676 49.372M111.264 47.755L110.449 48.363M119.814 36.213L119.855 57.242 116.386 57.249 116.344 36.219zM117.977 36.216L118.018 57.246M137.338 44.068L137.33 49.424M135.101 44.021L135.093 49.378M132.979 44.095L132.97 49.451M130.742 44.048L130.734 49.405M128.22 44.142L128.212 49.499M126.207 43.815L125.974 49.453M123.861 44.17L123.852 49.526M121.624 44.123L121.616 49.48M4.449 93.948L23.839 93.911 23.849 99.371 4.46 99.408zM2.114 100.322L3.237 100.32 4.36 100.318 4.346 93.241 2.101 93.245zM3.325 93.243L3.339 100.32" transform="translate(-477 -988) translate(479 989) translate(22.635 58.474)"/>
                    <path stroke="#FFF" stroke-linecap="round" stroke-linejoin="round" stroke-width="1.875" d="M2.112 98.825S.376 98.607.169 96.787c0 0-.004-1.745 1.935-2.09M27.219 100.542L107.222 99.11 118.647 96.661 107.212 93.65 27.203 92.344M27.211 96.685L57.825 96.374M58.846 96.372L60.479 96.368M61.295 96.367L60.887 96.368M62.316 96.365L118.647 96.661M31.087 95.616L32.717 94.4M30.474 95.011L31.9 93.997M32.312 95.614L33.127 95.006" transform="translate(-477 -988) translate(479 989) translate(22.635 58.474)"/>
                    <path stroke="#FFF" stroke-linecap="round" stroke-linejoin="round" stroke-width="1.875" d="M23.762 107.156L23.721 86.126 27.191 86.119 27.232 107.149zM25.599 107.152L25.558 86.123M6.238 99.301L6.247 93.944M8.475 99.347L8.483 93.991M10.597 99.274L10.606 93.917M12.835 99.32L12.843 93.964M15.356 99.226L15.365 93.87M17.37 99.554L17.602 93.916M19.715 99.199L19.724 93.842M21.952 99.245L21.961 93.889M139.127 82.765L119.738 82.802 119.727 77.343 139.116 77.305zM141.462 76.391L140.339 76.393 139.216 76.395 139.231 83.473 141.476 83.468zM140.251 83.471L140.237 76.393" transform="translate(-477 -988) translate(479 989) translate(22.635 58.474)"/>
                    <path stroke="#FFF" stroke-linecap="round" stroke-linejoin="round" stroke-width="1.875" d="M141.465 77.888s1.735.218 1.943 2.038c0 0 .003 1.745-1.936 2.09M116.357 76.171L36.354 77.603 24.929 80.052 36.365 83.063 116.373 84.369M116.365 80.028L85.751 80.34M84.73 80.342L83.098 80.345M82.281 80.346L82.689 80.345M81.261 80.348L24.93 80.052M112.489 81.097L110.859 82.314M113.102 81.703L111.676 82.716M111.264 81.1L110.449 81.708M119.814 69.557L119.855 90.587 116.386 90.594 116.344 69.564zM117.977 69.561L118.018 90.59M137.338 77.413L137.33 82.769M135.101 77.366L135.093 82.722M132.979 77.44L132.97 82.796M130.742 77.393L130.734 82.75M128.22 77.487L128.212 82.844M126.207 77.16L125.974 82.797M123.861 77.515L123.852 82.871M121.624 77.468L121.616 82.824M4.712 127.781L24.101 127.744 24.112 133.203 4.722 133.241zM2.377 134.155L3.499 134.153 4.622 134.151 4.608 127.074 2.363 127.078zM3.588 127.075L3.601 134.153" transform="translate(-477 -988) translate(479 989) translate(22.635 58.474)"/>
                    <path stroke="#FFF" stroke-linecap="round" stroke-linejoin="round" stroke-width="1.875" d="M2.374 132.658S.64 132.44.431 130.62c0 0-.003-1.745 1.935-2.09M27.481 134.375L107.485 132.942 118.909 130.494 107.474 127.483 27.465 126.177M27.474 130.518L58.088 130.206M59.108 130.204L60.741 130.201M61.557 130.2L61.149 130.2M62.578 130.198L118.909 130.494M31.35 129.449L32.98 128.232M30.736 128.843L32.163 127.83M32.574 129.446L33.389 128.838" transform="translate(-477 -988) translate(479 989) translate(22.635 58.474)"/>
                    <path stroke="#FFF" stroke-linecap="round" stroke-linejoin="round" stroke-width="1.875" d="M24.024 140.988L23.984 119.959 27.453 119.952 27.494 140.982zM25.861 140.985L25.821 119.956M6.5 133.134L6.509 127.777M8.737 133.18L8.746 127.824M10.86 133.106L10.868 127.75M13.097 133.152L13.105 127.796M15.618 133.059L15.627 127.702M17.632 133.387L17.864 127.749M19.978 133.032L19.986 127.675M22.215 133.078L22.223 127.721M139.127 116.598L119.738 116.635 119.727 111.175 139.116 111.138zM141.462 110.224L140.339 110.226 139.216 110.228 139.231 117.305 141.476 117.301zM140.251 117.303L140.237 110.226" transform="translate(-477 -988) translate(479 989) translate(22.635 58.474)"/>
                    <path stroke="#FFF" stroke-linecap="round" stroke-linejoin="round" stroke-width="1.875" d="M141.465 111.72s1.735.219 1.943 2.039c0 0 .003 1.745-1.936 2.089M116.357 110.004L36.354 111.436 24.929 113.885 36.365 116.896 116.373 118.202M116.365 113.861L85.751 114.173M84.73 114.174L83.098 114.177M82.281 114.179L82.689 114.178M81.261 114.181L24.93 113.884M112.489 114.93L110.859 116.146M113.102 115.535L111.676 116.549M111.264 114.932L110.449 115.54M119.814 103.39L119.855 124.42 116.386 124.426 116.344 103.397zM117.977 103.394L118.018 124.423M137.338 111.245L137.33 116.601M135.101 111.199L135.093 116.555M132.979 111.272L132.97 116.629M130.742 111.226L130.734 116.582M128.22 111.32L128.212 116.676M126.207 110.992L125.974 116.63M123.861 111.347L123.852 116.704M121.624 111.301L121.616 116.657M139.127 150.795L119.738 150.832 119.727 145.372 139.116 145.335zM141.462 144.42L140.339 144.423 139.216 144.425 139.231 151.502 141.476 151.498zM140.251 151.5L140.237 144.423" transform="translate(-477 -988) translate(479 989) translate(22.635 58.474)"/>
                    <path stroke="#FFF" stroke-linecap="round" stroke-linejoin="round" stroke-width="1.875" d="M141.465 145.917s1.735.219 1.943 2.039c0 0 .003 1.745-1.936 2.089M116.357 144.201L36.354 145.633 24.929 148.081 36.365 151.093 116.373 152.399M116.365 148.058L85.751 148.369M84.73 148.371L83.098 148.374M82.281 148.376L82.689 148.375M81.261 148.378L24.93 148.081M112.489 149.127L110.859 150.343M113.102 149.732L111.676 150.746M111.264 149.129L110.449 149.737M119.814 137.587L119.855 158.617 116.386 158.623 116.344 137.594zM117.977 137.591L118.018 158.62M137.338 145.442L137.33 150.798M135.101 145.396L135.093 150.752M132.979 145.469L132.97 150.826M130.742 145.423L130.734 150.779M128.22 145.517L128.212 150.873M126.207 145.189L125.974 150.827M123.861 145.544L123.852 150.901M121.624 145.498L121.616 150.854" transform="translate(-477 -988) translate(479 989) translate(22.635 58.474)"/>
                    <path fill="#000" d="M64.233 146.91c1.014-8.368-1.013-16.067-1.35-18.075-.339-2.008.337-19.079.337-19.079 3.647-3.686-18.399 11.497-21.622 2.343-5.067-14.392-3.04-39.495-1.013-47.194 2.027-7.698 8.784-18.074 8.784-18.074 1.35-3.347 9.459-14.058 12.837-18.074 3.379-4.017 2.703-18.744 2.703-18.744S64.073-.683 73.106.146c9.033.83 9.06 2.514 7.696 9.37 0 0-.676 14.727 2.702 18.744 3.379 4.017 11.487 14.727 12.838 18.074 0 0 6.757 10.376 8.784 18.075 2.027 7.698 4.054 32.801-1.014 47.194-3.908 11.101-22.78-3.515-21.621-2.343 0 0 .676 17.07.338 19.078-.338 2.008-2.365 9.707-1.352 18.075" transform="translate(-477 -988) translate(479 989) translate(22.635 58.474)"/>
                    <path stroke="#44E7D9" stroke-linecap="round" stroke-linejoin="round" stroke-width="1.875" d="M74.018 52.514s1.823.226 2.962-.903l.114-1.694s.911-.677 2.05-.903c0 0 .684.226.684-1.354s-.228-1.806-1.14-1.806c-.91 0-2.05.225-2.734.677-.683.451-1.595 0-2.05.451-.456.452 0 .678-.456.904V52.4l.57.113zM78.233 46.53s.228 1.356 0 2.258M74.245 58.722s1.823.226 2.963-.903l.114-1.694s.911-.677 2.05-.903c0 0 .684.226.684-1.354s-.228-1.806-1.14-1.806c-.91 0-2.05.225-2.734.677-.683.452-1.595 0-2.05.452-.456.45 0 .677-.456.903v4.515l.57.113zM78.46 52.739s.229 1.355 0 2.257" transform="translate(-477 -988) translate(479 989) translate(22.635 58.474)"/>
                    <path stroke="#44E7D9" stroke-linecap="round" stroke-linejoin="round" stroke-width="1.875" d="M74.245 64.872s1.595.226 2.735-.903l.114-1.919s.716-.68 2.279-.677c0 0 .911.226.911-1.355 0-3.988-1.595-1.806-1.595-1.806s-1.823.226-2.507.677c-.683.452-1.595 0-2.05.452-.456.451 0 .677-.456.903v4.516l.57.112zM78.46 58.89s.229 1.354 0 2.257M74.018 46.231s1.823.185 2.962-.74l.114-1.387s.911-.781 2.05-.966c0 0 .912-.267.912-1.562s0-1.705-.911-1.705c-.912 0-2.507 1.088-3.19 1.458-.684.37-1.596 0-2.052.37-.455.37 0 .555-.455.74v3.7l.57.092zM78.233 40.245s.228 1.355 0 2.258" transform="translate(-477 -988) translate(479 989) translate(22.635 58.474)"/>
                    <path stroke="#44E7D9" stroke-linecap="round" stroke-linejoin="round" stroke-width="1.875" d="M74.473 41.174s.912.452 2.05-.677c-.196-1.26.799-1.92.799-1.92l2.279-.902s.683.025.683-1.355c0-1.333.312-2.395-1.14-1.806-.736.3-1.662.727-2.506.903-.804.168-1.823-.226-2.279.226-.456.451 0 .677-.456.903v4.515l.57.113zM78.689 35.191s.228 1.355 0 2.258M80.109 68.65s2.682.457 3.821.909c1.14.452 7.292 2.935 9.343 3.612 2.05.677 4.102.677 6.836 2.71 2.735 2.031 3.874 4.063 4.558 6.773.683 2.709.683 6.095.683 6.095.228-.903.456-3.838.456-3.838.228-3.16-.683-6.547-3.873-10.16-3.191-3.612-6.61-4.063-8.888-4.74-2.279-.678-9.684-3.048-11.507-3.725-1.824-.678-4.558-1.355-4.558-1.355" transform="translate(-477 -988) translate(479 989) translate(22.635 58.474)"/>
                    <path stroke="#44E7D9" stroke-linecap="round" stroke-linejoin="round" stroke-width="1.875" d="M80.284 58.045s1.14.677 2.507 1.58c1.367.903 10.938 3.612 12.305 4.29 1.367.677 3.19 1.129 4.785 2.483 1.595 1.355 4.33 3.613 5.47 7.225 1.139 3.612.227 6.999.227 6.999" transform="translate(-477 -988) translate(479 989) translate(22.635 58.474)"/>
                    <path stroke="#44E7D9" stroke-linecap="round" stroke-linejoin="round" stroke-width="1.875" d="M105.35 79.944s.456-3.612-2.278-7.676c-2.735-4.063-5.014-4.967-7.064-5.192-2.052-.226-6.381-2.258-7.976-3.161-1.595-.903-7.292-2.484-7.52-2.935M80.312 52.739s2.137-.451 5.327 1.13c3.19 1.58 5.925 2.257 7.52 2.934 1.595.678 3.076 1.468 5.583 3.274s3.874 3.386 4.558 5.193c.683 1.805 1.467 3.386 1.303 6.547" transform="translate(-477 -988) translate(479 989) translate(22.635 58.474)"/>
                    <path stroke="#44E7D9" stroke-linecap="round" stroke-linejoin="round" stroke-width="1.875" d="M79.372 55.336s2.735.677 4.102.677c1.367 0 3.19.677 4.33 1.58 1.14.903 6.836 2.484 6.836 2.484s2.507.903 4.558 2.935c2.05 2.032 4.33 4.515 4.557 6.321 0 0 .188 1.419.208 1.387M79.828 49.24s2.735-.226 4.102.677c1.367.904 3.418 2.258 6.38 3.161 2.963.903 5.47 1.58 6.837 2.71 1.367 1.128 2.734 2.031 3.646 3.837.911 1.807 1.033 3.193 1.033 3.193" transform="translate(-477 -988) translate(479 989) translate(22.635 58.474)"/>
                    <path stroke="#44E7D9" stroke-linecap="round" stroke-linejoin="round" stroke-width="1.875" d="M79.828 46.246s1.823-.167 4.558 1.414c2.734 1.58 5.241 2.483 6.153 2.709.91.225 7.291 2.483 8.203 4.064 0 0 2.734 3.386 3.19 5.644.456 2.257.358 3.333.358 3.333" transform="translate(-477 -988) translate(479 989) translate(22.635 58.474)"/>
                    <path stroke="#44E7D9" stroke-linecap="round" stroke-linejoin="round" stroke-width="1.875" d="M80.284 42.467s4.102 0 6.836 1.355c2.735 1.354 7.065 5.644 7.065 5.644s1.86 2.294 1.842 3.066" transform="translate(-477 -988) translate(479 989) translate(22.635 58.474)"/>
                    <path stroke="#44E7D9" stroke-linecap="round" stroke-linejoin="round" stroke-width="1.875" d="M80.284 39.758s3.19-.226 6.38 1.58c3.191 1.806 5.925 3.613 8.66 7.225 2.734 3.612 2.619 4.288 2.904 5.305" transform="translate(-477 -988) translate(479 989) translate(22.635 58.474)"/>
                    <path stroke="#44E7D9" stroke-linecap="round" stroke-linejoin="round" stroke-width="1.875" d="M80.312 37.449s3.162-.4 7.036 2.309c0 0 3.33 3.002 3.715 4.436" transform="translate(-477 -988) translate(479 989) translate(22.635 58.474)"/>
                    <path stroke="#44E7D9" stroke-linecap="round" stroke-linejoin="round" stroke-width="1.875" d="M80.512 34.34s3.418.677 6.38 3.16c2.963 2.483 5.242 5.419 6.153 6.773.912 1.355.991 2.717.991 2.717M91.064 46.99s.792 1.075-1.348 3.13M92.469 51.021c1.246-.702 1.26-1.555 1.26-1.555M87.274 52.062s-1.25.89-2.525 1.405M88.155 54.996L90.599 53.467M85.354 56.339L80.74 57.593M81.196 30.502s3.874 1.58 6.152 4.289c2.279 2.709 2.368 5.08 2.368 5.08M80.512 33.436s4.163 1.125 5.5 3.385M86.632 39.286s.26.923.033 2.052M86.011 43.365s-.9 2.489-4.225 3.166M89.06 45.04s-1.826 2.791-3.706 3.157M89.716 42.158L89.716 43.21M78.917 51.046c1.139 0 4.345-1.454 4.345-1.454M95.88 54.996s.128 1.017-2.835 1.92M89.377 58.372s-1.464 1.166-5.164 1.887M81.196 61.358s-1.823 1.428-2.963 1.428h-1.14M98.228 56.916s-.194 1.165-1.435 1.824M94.413 60.077s-3.696 1.507-4.697 1.995M86.758 63.345s-3.967 2.15-6.246 2.376M99.99 58.372s.54 1.592-.07 2.608M99.198 63.012s-1.47 1.01-2.672 1.52M92.945 66.192s-2.66 2.164-4.356 2.427M85.354 70.128s-.513 1.076-5.525.592M90.767 72.255s-2.507 1.82-8.66 1.82M98.228 67.657s-2.904 1.685-3.816 2.47M101.042 64.931L99.881 66.398M103 78.78s-.612 1.164-1.524 1.842" transform="translate(-477 -988) translate(479 989) translate(22.635 58.474)"/>
                    <path stroke="#44E7D9" stroke-linecap="round" stroke-linejoin="round" stroke-width="1.875" d="M76.866 72.494s1.14.677 2.05 1.129c.913.451 1.14.451 2.735.903 1.595.451 9.343 2.032 11.394 2.709s5.697 1.355 7.748 3.387 3.874 4.29 4.557 8.579c.684 4.29-.227 5.87-.227 5.87" transform="translate(-477 -988) translate(479 989) translate(22.635 58.474)"/>
                    <path stroke="#44E7D9" stroke-linecap="round" stroke-linejoin="round" stroke-width="1.875" d="M79.6 75.655s1.823.903 5.014 2.031c3.19 1.13 7.747 2.936 9.799 3.387 2.05.451 3.646.226 5.24 1.354 1.596 1.13 5.014 4.968 5.242 8.128.228 3.16 0 3.838 0 3.838M102.238 66.491s.078 1.487 0 1.826M101.932 70.72s-.683 1.574-2.05 2.126M97.862 74.772s-2.082 1.786-4.817 2.463M79.03 77.235c6.495 2.258 8.3 1.441 8.3 1.441" transform="translate(-477 -988) translate(479 989) translate(22.635 58.474)"/>
                    <path stroke="#44E7D9" stroke-linecap="round" stroke-linejoin="round" stroke-width="1.875" d="M76.638 79.719s7.292 3.612 13.445 3.386c0 0 2.752-1.121 3.883-2.141M97.944 78.82s2.62-1.678 2.963-2.308M102.273 75.187s1.227-1.126 1.355-2.022c0 0 .1 3.28-.456 3.45" transform="translate(-477 -988) translate(479 989) translate(22.635 58.474)"/>
                    <path stroke="#44E7D9" stroke-linecap="round" stroke-linejoin="round" stroke-width="1.875" d="M76.866 80.17s1.14.452 2.05 1.355c.913.903 12.534 3.838 12.534 3.838s7.976 1.355 9.799 2.483c0 0 2.05 1.806 2.506 3.387 0 0 1.14 2.483 1.14 5.418v3.386" transform="translate(-477 -988) translate(479 989) translate(22.635 58.474)"/>
                    <path stroke="#44E7D9" stroke-linecap="round" stroke-linejoin="round" stroke-width="1.875" d="M80.056 84.911s5.014 1.129 7.292 2.258c2.279 1.128 6.38 2.935 8.887 3.16 2.507.226 4.786.226 6.38 2.258 1.596 2.032 2.052 4.516 1.824 6.773M86.437 70.72L87.331 73.55M82.829 62.072L83.702 64.592M82.829 56.916L82.64 55.957M82.104 50.12L81.786 49.277M90.083 83.105L89.287 79.701" transform="translate(-477 -988) translate(479 989) translate(22.635 58.474)"/>
                    <path stroke="#44E7D9" stroke-linecap="round" stroke-linejoin="round" stroke-width="1.875" d="M102.16 110.874s.912-.677 1.368-2.032c.455-1.354 1.595-4.515.911-7.676-.684-3.16-1.367-4.967-3.19-6.095-1.823-1.13-4.558-1.355-7.292-1.806-2.735-.452-5.47-.678-9.344-1.58-3.873-.904-5.696-2.259-7.063-3.162" transform="translate(-477 -988) translate(479 989) translate(22.635 58.474)"/>
                    <path stroke="#44E7D9" stroke-linecap="round" stroke-linejoin="round" stroke-width="1.875" d="M79.63 92.136s3.616 1.354 5.44 2.032c1.822.677 3.646 1.58 5.24 2.032 1.596.45 6.837.677 6.837.677s3.418.452 5.013 2.257c1.595 1.807 3.19 5.193 0 11.063" transform="translate(-477 -988) translate(479 989) translate(22.635 58.474)"/>
                    <path stroke="#44E7D9" stroke-linecap="round" stroke-linejoin="round" stroke-width="1.875" d="M77.55 94.845s1.367.903 2.05 1.129c.684.225 4.558.903 7.292 2.257 2.735 1.355 8.888 2.71 11.622 5.419 2.735 2.709 3.646 5.644 3.418 7.902-.228 2.257-.911.903-.911-.226s-.228-2.258-1.367-3.161c-1.14-.903-2.507-2.71-5.242-4.064-2.734-1.355-9.342-4.063-9.342-4.063s-2.735-.904-4.33-1.355c-1.595-.452-2.507-.677-2.507-.677M83.722 91.46s-.704-2.26-.931-2.937c-.228-.677-1.368-1.58-2.735-2.032-1.367-.451-.911.904-.911.904s.538 2.071 1.522 3.067M85.645 91.915s-1.26-2.94-.348-2.94 6.153 2.483 7.748 2.483c0 0-.077-1.251-.267-1.98M93.5 91.458s1.387-.446 2.289-1.013M95.78 86.04s1.823-.677 3.874-3.612M99.654 87.193s1.82-.927 2.505-2.282M103.163 83.397s.592-.97.82-.744c.228.226.019 1.772.019 1.772M103.496 86.794s-.655 1.503-1.11 1.955M100.418 90.986s-1.924 2.333-3.395 2.757M77.55 93.264s1.823 1.807 2.05 2.71" transform="translate(-477 -988) translate(479 989) translate(22.635 58.474)"/>
                    <path stroke="#44E7D9" stroke-linecap="round" stroke-linejoin="round" stroke-width="1.875" d="M82.107 99.36s4.558 4.515 5.47 6.096c.91 1.58.91 2.71.91 2.71M77.55 102.07s3.874 2.709 5.468 3.16c1.596.452 6.153 3.387 6.837 4.064.684.677 2.962 1.806 3.646 3.16.683 1.355.911 2.484-.456 2.033-1.367-.452-2.05-2.258-4.101-3.387-2.052-1.129-3.191-2.483-3.647-2.71-.455-.225-6.152-2.257-6.152-2.257M97.261 105.982s-.798 1.054-2.393 1.506c-1.595.452-3.646-1.355-2.962.226.683 1.58 3.874.903 3.874.903s1.749-.77 2.355-1.852" transform="translate(-477 -988) translate(479 989) translate(22.635 58.474)"/>
                    <path stroke="#44E7D9" stroke-linecap="round" stroke-linejoin="round" stroke-width="1.875" d="M89.528 101.908s2.326 2.512 4.516 2.014c0 0-.771 2.211.824 3.34M98.946 104.096s2.303-3.607 2.986-4.284M102.462 99.812s-1.441 3.838-2.58 4.74M101.172 106.927s1.216-3.051 1.672-3.051c.456 0-.684 4.289-1.14 4.74M100.808 109.79s-2.75 2.89-3.433 3.342c0 0-2.507.225-2.735-.903-.228-1.13.684 0 2.735-1.355 2.05-1.355 2.506-2.257 2.506-2.257M96.529 102.182s2.645-2.39 3.91-4.3M93.5 100.57s2.692-.856 5.22-3.178M101.249 95.07s1.139-2.257 1.367-1.805c.228.45-.228 2.13-.684 2.306M85.797 97.745s-.955-1.094-.272-1.094c.684 0 3.565 2.396 4.403 2.778M95.456 99.699s-.829-1.242-1.164-3.048M96.529 111.25s-.315-.7-.418-2.796" transform="translate(-477 -988) translate(479 989) translate(22.635 58.474)"/>
                    <path stroke="#44E7D9" stroke-linecap="round" stroke-linejoin="round" stroke-width="1.875" d="M93.5 114.588s2.508.801 4.103-.102c0 0-.228-.225-.228-1.354M101.08 111.923s-2.338 2.563-3.477 2.563M73.448 91.233s.683-2.032 2.05-2.484c1.368-.452 1.824-.903 1.824-1.806s-.228-2.258.455-2.483c.684-.226 1.595.451 1.823 0 .229-.452 0-2.484-.455-2.484-.456 0-2.507.226-2.507-.226 0-.451.228-1.128-.456-1.128s-2.506.45-2.734 1.354M78.239 82.653L78.227 84.234M76.638 71.817s0 2.257.456 2.257 1.367-.226 2.05.903c.684 1.129.457 2.258-.91 2.258-1.368 0-1.596.451-1.368 1.354 0 0 .173 1.807-1.394 2.033" transform="translate(-477 -988) translate(479 989) translate(22.635 58.474)"/>
                    <path stroke="#44E7D9" stroke-linecap="round" stroke-linejoin="round" stroke-width="1.875" d="M73.676 74.3s.455-2.257 2.278-2.483c1.823-.226 1.14-1.806 1.14-2.258 0-.452.228-.903 1.14-.677.91.225 2.278.225 2.05-1.13-.228-1.354-1.14-1.805-2.05-1.805-.912 0-1.368 0-1.596-1.13M76.866 51.498s2.05 1.354 2.05-1.806M77.024 44.948s.753-.343.867.958M73.676 98.006s2.278-1.355 2.734-1.806c.456-.452 1.14-.678 1.14-2.032 0-1.355-.228-1.13.91-1.13 1.14 0 1.14-1.128.685-2.483-.456-1.355-2.28-.451-2.28-1.129v-1.359M78.917 67.075s-.228.452 0 1.58M78.233 75.203s0 .452.228 1.355M77.024 35.186s.298-1.975 1.21-1.975c0 0 .683-.226 1.366.225.684.452 1.596-.451 1.596-1.129 0-.677.227-2.257 0-2.708-.228-.452-.912-.226-1.596.225-.683.452-1.823.452-1.823 0" transform="translate(-477 -988) translate(479 989) translate(22.635 58.474)"/>
                    <path stroke="#44E7D9" stroke-linecap="round" stroke-linejoin="round" stroke-width="1.875" d="M74.36 30.05s1.139.452 2.734 0 2.507-.452 2.962-1.58c.456-1.13.684-.452 1.14-.904.455-.451.455-1.58-.228-1.58-.684 0-.912-.226-1.14-.677-.227-.452-1.14-.452-1.14-.452M74.815 23.954s1.367.903 2.735.677c1.367-.225 2.506-1.128 2.506-1.128s.228-.452-.228-1.355-.228-1.129-.683-1.58c-.456-.452-.456 0-1.368-.226M79.145 16.955c-.228.452.228 1.58 0 2.484-.228.903-1.823.903-2.507.452-.683-.452-1.823-.452-1.823-.452h-.684M73.903 103.424s2.28 1.129 2.963-1.58c0 0-.456-1.58 0-1.806.456-.226.456-.452 1.595-.678 1.14-.226-1.595-3.387-1.595-3.387" transform="translate(-477 -988) translate(479 989) translate(22.635 58.474)"/>
                    <path stroke="#44E7D9" stroke-linecap="round" stroke-linejoin="round" stroke-width="1.875" d="M76.866 101.844s1.14 1.806 1.595 2.709c.456.903.228 2.032-.684 2.257-.911.226-1.595.452-1.367 1.13.228.677.456 2.709-.455 2.934-.912.226-2.052-.225-2.052-.225v-12.87" transform="translate(-477 -988) translate(479 989) translate(22.635 58.474)"/>
                    <path stroke="#44E7D9" stroke-linecap="round" stroke-linejoin="round" stroke-width="1.875" d="M74.36 117.421s2.506.452 2.734-.677c0 0-.684-1.58-.684-2.258 0-.677.684-1.354 1.823-1.354 1.14 0 2.962 0 2.962-.903s-1.822-.903-1.822-.903-.912-.226-1.14-1.129c-.228-.903-1.675-1.58-1.675-1.58" transform="translate(-477 -988) translate(479 989) translate(22.635 58.474)"/>
                    <path stroke="#44E7D9" stroke-linecap="round" stroke-linejoin="round" stroke-width="1.875" d="M74.36 124.194s1.139 1.13 1.822.678c.684-.452.684-2.484.684-3.387s-.684-1.806.911-2.032c1.596-.225 2.507-.225 3.19-.451.684-.226.684-2.032 0-2.258-.683-.226-1.366.452-1.822.452-.456 0-.684-.226-.684-1.129s-1.823-1.806-2.279-1.58" transform="translate(-477 -988) translate(479 989) translate(22.635 58.474)"/>
                    <path stroke="#44E7D9" stroke-linecap="round" stroke-linejoin="round" stroke-width="1.875" d="M74.36 131.645s1.367 1.355 2.05 0c.684-1.355-.911-3.161 0-4.064.912-.903 1.823-1.58 2.963-1.355 1.139.226 2.734-.903 2.506-1.58-.228-.678-2.507-.226-3.646-.452-1.14-.226-1.481-.649-1.481-.649" transform="translate(-477 -988) translate(479 989) translate(22.635 58.474)"/>
                    <path stroke="#44E7D9" stroke-linecap="round" stroke-linejoin="round" stroke-width="1.875" d="M73.903 137.289s1.14 2.483 2.507 2.032c1.367-.452.456-1.129.456-2.484 0-1.354.456-2.483 1.14-3.386.683-.903.116-4.183-1.652-3.898" transform="translate(-477 -988) translate(479 989) translate(22.635 58.474)"/>
                    <path stroke="#44E7D9" stroke-linecap="round" stroke-linejoin="round" stroke-width="1.875" d="M74.131 144.288s1.823-.677 2.051 0c.228.677.912 2.483 2.051 2.483 1.14 0 1.367-1.355 1.595-2.258.228-.902-1.14-1.128-1.14-2.031 0-.904 1.14-2.258.912-2.71-.227-.451-.911-2.483-1.367-2.709-.456-.226-.911-.677-1.14-.226M75.514 139.376s-.243 1.525-1.61 1.3M74.131 133s.943-.151 1.383-.753M71.59 52.652s-1.822.225-2.962-.903l-.114-1.693s-.912-.678-2.05-.904c0 0-.684.226-.684-1.354s.228-1.806 1.139-1.806c.912 0 2.05.225 2.735.677.683.451 1.594 0 2.05.451.456.452 0 .678.456.903v4.516l-.57.113zM67.375 46.669s-.228 1.354 0 2.258M71.363 58.86s-1.823.226-2.963-.903l-.114-1.693s-.911-.678-2.05-.903c0 0-.684.225-.684-1.355S65.78 52.2 66.69 52.2c.912 0 2.051.226 2.735.677.683.452 1.595 0 2.05.452.457.451 0 .677.457.903v4.515l-.57.113zM67.147 52.877s-.228 1.355 0 2.258" transform="translate(-477 -988) translate(479 989) translate(22.635 58.474)"/>
                    <path stroke="#44E7D9" stroke-linecap="round" stroke-linejoin="round" stroke-width="1.875" d="M71.363 65.01s-1.596.226-2.735-.902l-.114-1.92s-.717-.68-2.279-.677c0 0-.911.226-.911-1.355 0-3.988 1.595-1.805 1.595-1.805s1.823.225 2.507.677c.683.451 1.595 0 2.05.451.457.452 0 .677.457.903v4.516l-.57.113zM67.147 59.028s-.228 1.354 0 2.257M71.59 46.37s-1.822.184-2.962-.74l-.114-1.388s-.912-.78-2.05-.966c0 0-.912-.266-.912-1.561s0-1.706.911-1.706c.912 0 2.507 1.088 3.19 1.458.684.37 1.595 0 2.051.37.456.37 0 .555.456.74v3.7l-.57.092zM67.375 40.383s-.228 1.355 0 2.258" transform="translate(-477 -988) translate(479 989) translate(22.635 58.474)"/>
                    <path stroke="#44E7D9" stroke-linecap="round" stroke-linejoin="round" stroke-width="1.875" d="M71.135 41.312s-.912.452-2.051-.677c.197-1.26-.798-1.92-.798-1.92l-2.279-.902s-.683.025-.683-1.355c0-1.333-.312-2.395 1.14-1.806.736.3 1.662.727 2.506.903.804.168 1.823-.226 2.279.226.456.451 0 .677.456.903v4.515l-.57.113zM66.919 35.33s-.228 1.354 0 2.257M65.5 68.788s-2.682.457-3.822.91c-1.14.45-7.292 2.934-9.343 3.611-2.05.678-4.102.678-6.836 2.71-2.735 2.032-3.874 4.063-4.558 6.772-.684 2.71-.684 6.096-.684 6.096-.228-.903-.455-3.838-.455-3.838-.228-3.16.684-6.547 3.873-10.16 3.19-3.612 6.61-4.063 8.888-4.74 2.279-.678 9.685-3.048 11.508-3.725 1.823-.678 4.557-1.355 4.557-1.355" transform="translate(-477 -988) translate(479 989) translate(22.635 58.474)"/>
                    <path stroke="#44E7D9" stroke-linecap="round" stroke-linejoin="round" stroke-width="1.875" d="M65.324 58.183s-1.14.677-2.507 1.58c-1.367.904-10.938 3.613-12.305 4.29-1.368.677-3.19 1.129-4.785 2.483-1.596 1.355-4.33 3.613-5.47 7.225-1.139 3.612-.227 6.999-.227 6.999" transform="translate(-477 -988) translate(479 989) translate(22.635 58.474)"/>
                    <path stroke="#44E7D9" stroke-linecap="round" stroke-linejoin="round" stroke-width="1.875" d="M40.258 80.082s-.456-3.612 2.278-7.676c2.735-4.063 5.013-4.966 7.064-5.192 2.051-.226 6.38-2.258 7.976-3.161 1.595-.903 7.292-2.484 7.52-2.935M65.296 52.877s-2.137-.451-5.327 1.13c-3.19 1.58-5.925 2.257-7.52 2.934-1.595.678-3.077 1.468-5.583 3.274-2.507 1.806-3.874 3.387-4.558 5.193-.683 1.806-1.467 3.386-1.303 6.547" transform="translate(-477 -988) translate(479 989) translate(22.635 58.474)"/>
                    <path stroke="#44E7D9" stroke-linecap="round" stroke-linejoin="round" stroke-width="1.875" d="M66.235 55.474s-2.734.677-4.102.677c-1.367 0-3.19.678-4.329 1.58-1.14.903-6.836 2.484-6.836 2.484s-2.507.903-4.558 2.935c-2.05 2.032-4.33 4.515-4.557 6.321 0 0-.189 1.419-.208 1.387M65.78 49.378s-2.735-.226-4.102.677c-1.367.903-3.419 2.258-6.38 3.161-2.963.903-5.47 1.58-6.837 2.71-1.367 1.128-2.734 2.031-3.646 3.837-.912 1.806-1.033 3.193-1.033 3.193" transform="translate(-477 -988) translate(479 989) translate(22.635 58.474)"/>
                    <path stroke="#44E7D9" stroke-linecap="round" stroke-linejoin="round" stroke-width="1.875" d="M65.78 46.384s-1.823-.166-4.558 1.414c-2.734 1.58-5.241 2.483-6.152 2.709-.912.226-7.293 2.483-8.204 4.064 0 0-2.735 3.386-3.19 5.644-.456 2.257-.358 3.333-.358 3.333" transform="translate(-477 -988) translate(479 989) translate(22.635 58.474)"/>
                    <path stroke="#44E7D9" stroke-linecap="round" stroke-linejoin="round" stroke-width="1.875" d="M65.324 42.605s-4.102 0-6.836 1.355c-2.735 1.354-7.065 5.644-7.065 5.644s-1.86 2.295-1.842 3.066" transform="translate(-477 -988) translate(479 989) translate(22.635 58.474)"/>
                    <path stroke="#44E7D9" stroke-linecap="round" stroke-linejoin="round" stroke-width="1.875" d="M65.324 39.896s-3.19-.226-6.38 1.58c-3.19 1.807-5.926 3.613-8.66 7.225-2.735 3.612-2.619 4.288-2.904 5.305" transform="translate(-477 -988) translate(479 989) translate(22.635 58.474)"/>
                    <path stroke="#44E7D9" stroke-linecap="round" stroke-linejoin="round" stroke-width="1.875" d="M65.296 37.587s-3.162-.4-7.036 2.309c0 0-3.33 3.002-3.716 4.436" transform="translate(-477 -988) translate(479 989) translate(22.635 58.474)"/>
                    <path stroke="#44E7D9" stroke-linecap="round" stroke-linejoin="round" stroke-width="1.875" d="M65.096 34.478s-3.418.677-6.38 3.16c-2.963 2.484-5.241 5.419-6.153 6.773-.912 1.355-.991 2.717-.991 2.717M54.544 47.128s-.792 1.076 1.348 3.13M53.14 51.16c-1.247-.703-1.26-1.556-1.26-1.556M58.334 52.2s1.25.89 2.525 1.405M57.453 55.135L55.009 53.605M60.254 56.477L64.868 57.731M64.412 30.64s-3.874 1.58-6.152 4.29c-2.28 2.708-2.368 5.079-2.368 5.079M65.096 33.574s-4.163 1.125-5.5 3.385M58.976 39.424s-.26.923-.033 2.052M59.596 43.503s.9 2.489 4.226 3.166M56.548 45.179s1.826 2.79 3.706 3.156M55.892 42.296L55.892 43.348M66.691 51.184c-1.14 0-4.345-1.453-4.345-1.453M49.727 55.135s-.126 1.016 2.836 1.919M56.23 58.51s1.465 1.166 5.165 1.887M64.412 61.496s1.823 1.428 2.963 1.428h1.14M47.38 57.054s.194 1.165 1.435 1.824M51.196 60.215s3.695 1.507 4.696 1.995M58.85 63.483s3.967 2.15 6.246 2.376M45.618 58.51s-.54 1.592.069 2.608M46.41 63.15s1.47 1.01 2.671 1.521M52.663 66.33s2.66 2.164 4.356 2.427M60.254 70.266s.512 1.076 5.526.592M54.84 72.393s2.508 1.82 8.661 1.82M47.38 67.795s2.904 1.685 3.816 2.47M44.566 65.069L45.727 66.537M42.608 78.918s.612 1.164 1.523 1.842" transform="translate(-477 -988) translate(479 989) translate(22.635 58.474)"/>
                    <path stroke="#44E7D9" stroke-linecap="round" stroke-linejoin="round" stroke-width="1.875" d="M68.742 72.632s-1.14.677-2.05 1.129c-.912.452-1.14.452-2.735.903-1.596.452-9.343 2.032-11.394 2.71-2.05.676-5.697 1.354-7.748 3.386-2.05 2.032-3.874 4.29-4.557 8.579-.684 4.29.227 5.87.227 5.87" transform="translate(-477 -988) translate(479 989) translate(22.635 58.474)"/>
                    <path stroke="#44E7D9" stroke-linecap="round" stroke-linejoin="round" stroke-width="1.875" d="M66.007 75.793s-1.823.903-5.013 2.032-7.747 2.935-9.798 3.386c-2.051.452-3.647.226-5.241 1.355-1.596 1.128-5.014 4.967-5.242 8.128-.228 3.16 0 3.837 0 3.837M43.37 66.63s-.078 1.486 0 1.825M43.676 70.858s.683 1.574 2.05 2.126M47.746 74.91s2.082 1.786 4.817 2.463M66.577 77.373c-6.494 2.258-8.3 1.44-8.3 1.44" transform="translate(-477 -988) translate(479 989) translate(22.635 58.474)"/>
                    <path stroke="#44E7D9" stroke-linecap="round" stroke-linejoin="round" stroke-width="1.875" d="M68.97 79.857s-7.292 3.612-13.445 3.386c0 0-2.752-1.12-3.883-2.14M47.665 78.958s-2.622-1.677-2.964-2.308M43.335 75.325s-1.227-1.126-1.355-2.022c0 0-.1 3.28.456 3.45" transform="translate(-477 -988) translate(479 989) translate(22.635 58.474)"/>
                    <path stroke="#44E7D9" stroke-linecap="round" stroke-linejoin="round" stroke-width="1.875" d="M68.742 80.308s-1.14.452-2.05 1.355c-.912.903-12.534 3.838-12.534 3.838s-7.976 1.354-9.799 2.483c0 0-2.05 1.806-2.506 3.387 0 0-1.14 2.483-1.14 5.418v3.387" transform="translate(-477 -988) translate(479 989) translate(22.635 58.474)"/>
                    <path stroke="#44E7D9" stroke-linecap="round" stroke-linejoin="round" stroke-width="1.875" d="M65.552 85.05s-5.014 1.128-7.292 2.257c-2.28 1.129-6.38 2.935-8.888 3.16-2.506.226-4.785.226-6.38 2.258-1.595 2.032-2.051 4.516-1.823 6.773M59.171 70.858L58.277 73.688M62.779 62.21L61.906 64.73M62.779 57.054L62.968 56.094M63.504 50.258L63.822 49.415M55.525 83.243L56.32 79.838" transform="translate(-477 -988) translate(479 989) translate(22.635 58.474)"/>
                    <path stroke="#44E7D9" stroke-linecap="round" stroke-linejoin="round" stroke-width="1.875" d="M43.448 111.012s-.912-.677-1.367-2.031c-.456-1.355-1.596-4.516-.912-7.677.684-3.16 1.367-4.966 3.19-6.095 1.823-1.129 4.558-1.355 7.292-1.806 2.735-.452 5.47-.678 9.343-1.58 3.874-.904 5.697-2.258 7.065-3.161" transform="translate(-477 -988) translate(479 989) translate(22.635 58.474)"/>
                    <path stroke="#44E7D9" stroke-linecap="round" stroke-linejoin="round" stroke-width="1.875" d="M65.978 92.274s-3.617 1.354-5.44 2.031c-1.822.678-3.646 1.581-5.24 2.033-1.596.451-6.837.677-6.837.677s-3.418.451-5.013 2.258c-1.595 1.806-3.19 5.192 0 11.062" transform="translate(-477 -988) translate(479 989) translate(22.635 58.474)"/>
                    <path stroke="#44E7D9" stroke-linecap="round" stroke-linejoin="round" stroke-width="1.875" d="M68.059 94.983s-1.368.903-2.052 1.129c-.683.226-4.557.903-7.291 2.257-2.735 1.355-8.888 2.71-11.622 5.419-2.734 2.709-3.646 5.644-3.419 7.902.228 2.257.912.903.912-.226 0-1.13.228-2.258 1.367-3.16 1.14-.904 2.507-2.71 5.242-4.065 2.734-1.354 9.342-4.063 9.342-4.063s2.735-.904 4.33-1.355c1.595-.452 2.507-.678 2.507-.678M61.886 91.597s.703-2.258.931-2.936c.228-.677 1.368-1.58 2.735-2.032 1.367-.45.911.903.911.903s-.538 2.072-1.522 3.068M59.963 92.053s1.26-2.94.348-2.94-6.153 2.484-7.748 2.484c0 0 .077-1.252.266-1.98M52.107 91.596s-1.386-.446-2.288-1.013M49.828 86.178s-1.823-.677-3.874-3.612M45.955 87.332s-1.82-.928-2.506-2.282M42.445 83.535s-.592-.97-.82-.744c-.228.226-.019 1.772-.019 1.772M42.112 86.931s.655 1.505 1.11 1.956M45.19 91.124s1.924 2.333 3.395 2.757M68.059 93.402s-1.823 1.807-2.052 2.71" transform="translate(-477 -988) translate(479 989) translate(22.635 58.474)"/>
                    <path stroke="#44E7D9" stroke-linecap="round" stroke-linejoin="round" stroke-width="1.875" d="M63.501 99.498s-4.557 4.516-5.469 6.096c-.912 1.58-.912 2.71-.912 2.71M68.059 102.208s-3.874 2.709-5.47 3.16c-1.595.452-6.152 3.387-6.836 4.064-.683.677-2.962 1.806-3.646 3.16-.684 1.355-.911 2.484.456 2.033 1.367-.452 2.05-2.258 4.102-3.387 2.05-1.129 3.19-2.483 3.646-2.709.455-.226 6.152-2.257 6.152-2.257M48.347 106.12s.797 1.054 2.393 1.506c1.595.451 3.646-1.355 2.962.226-.684 1.58-3.874.903-3.874.903s-1.749-.77-2.356-1.852" transform="translate(-477 -988) translate(479 989) translate(22.635 58.474)"/>
                    <path stroke="#44E7D9" stroke-linecap="round" stroke-linejoin="round" stroke-width="1.875" d="M56.08 102.046s-2.326 2.513-4.516 2.014c0 0 .77 2.211-.824 3.34M46.662 104.234s-2.302-3.607-2.987-4.284M43.146 99.95s1.441 3.838 2.58 4.741M44.436 107.066s-1.216-3.052-1.672-3.052c-.456 0 .684 4.29 1.14 4.74M44.8 109.928s2.75 2.89 3.433 3.342c0 0 2.507.226 2.735-.903.228-1.129-.684 0-2.735-1.355-2.05-1.354-2.506-2.257-2.506-2.257M49.08 102.32s-2.646-2.39-3.91-4.3M52.107 100.71s-2.692-.857-5.22-3.18M44.36 95.209s-1.14-2.258-1.368-1.806c-.228.451.228 2.13.684 2.306M59.81 97.883s.956-1.094.273-1.094c-.684 0-3.565 2.396-4.404 2.778M50.152 99.837s.829-1.242 1.164-3.048M49.08 111.388s.314-.7.417-2.796M52.107 114.726s-2.507.802-4.102-.101c0 0 .228-.226.228-1.355M44.529 112.062s2.337 2.563 3.476 2.563M72.16 91.37s-.683-2.031-2.05-2.483c-1.368-.451-1.824-.903-1.824-1.806s.228-2.258-.455-2.483c-.684-.226-1.596.451-1.824 0-.227-.452 0-2.484.456-2.484s2.507.226 2.507-.225c0-.452-.228-1.13.456-1.13.683 0 2.506.452 2.734 1.355M67.369 82.792L67.381 84.372M68.97 71.955s0 2.257-.456 2.257c-.455 0-1.367-.225-2.05.904-.684 1.128-.457 2.257.91 2.257 1.368 0 1.596.452 1.368 1.355 0 0-.173 1.806 1.394 2.032" transform="translate(-477 -988) translate(479 989) translate(22.635 58.474)"/>
                    <path stroke="#44E7D9" stroke-linecap="round" stroke-linejoin="round" stroke-width="1.875" d="M71.932 74.438s-.456-2.258-2.278-2.483c-1.824-.226-1.14-1.806-1.14-2.258 0-.452-.228-.903-1.139-.677-.911.225-2.279.225-2.051-1.13.228-1.353 1.14-1.805 2.051-1.805.911 0 1.367 0 1.595-1.129M68.742 51.636s-2.05 1.355-2.05-1.806M68.583 45.086s-.753-.343-.866.959M71.932 98.144s-2.278-1.355-2.734-1.806c-.456-.452-1.14-.678-1.14-2.033 0-1.354.228-1.128-.911-1.128-1.14 0-1.14-1.13-.683-2.484.455-1.354 2.278-.45 2.278-1.128v-1.36M66.691 67.214s.228.451 0 1.58M67.375 75.341s0 .452-.228 1.355M68.583 35.324s-.297-1.975-1.208-1.975c0 0-.684-.226-1.368.225-.683.452-1.595-.451-1.595-1.128 0-.678-.228-2.258 0-2.71.228-.451.912-.225 1.595.226.684.452 1.823.452 1.823 0" transform="translate(-477 -988) translate(479 989) translate(22.635 58.474)"/>
                    <path stroke="#44E7D9" stroke-linecap="round" stroke-linejoin="round" stroke-width="1.875" d="M71.249 30.188s-1.14.452-2.735 0-2.507-.452-2.962-1.58c-.456-1.13-.684-.452-1.14-.903-.455-.452-.455-1.581.228-1.581.684 0 .912-.226 1.14-.677.227-.452 1.14-.452 1.14-.452M70.793 24.092s-1.367.903-2.735.677c-1.367-.225-2.506-1.128-2.506-1.128s-.228-.452.228-1.355c.455-.903.227-1.129.684-1.58.455-.452.455 0 1.366-.226" transform="translate(-477 -988) translate(479 989) translate(22.635 58.474)"/>
                    <path stroke="#44E7D9" stroke-linecap="round" stroke-linejoin="round" stroke-width="1.875" d="M66.463 17.094c.228.451-.228 1.58 0 2.483s1.823.903 2.507.452c.684-.452 1.823-.452 1.823-.452s.148.765.832.99M71.704 103.562s-2.278 1.129-2.962-1.58c0 0 .456-1.58 0-1.806-.456-.226-.456-.452-1.595-.678-1.14-.225 1.595-3.386 1.595-3.386" transform="translate(-477 -988) translate(479 989) translate(22.635 58.474)"/>
                    <path stroke="#44E7D9" stroke-linecap="round" stroke-linejoin="round" stroke-width="1.875" d="M68.742 101.982s-1.14 1.806-1.595 2.71c-.456.902-.228 2.03.684 2.257.911.225 1.595.45 1.367 1.128-.228.678-.456 2.71.456 2.935.911.226 2.05-.225 2.05-.225V98.006" transform="translate(-477 -988) translate(479 989) translate(22.635 58.474)"/>
                    <path stroke="#44E7D9" stroke-linecap="round" stroke-linejoin="round" stroke-width="1.875" d="M71.249 117.56s-2.507.451-2.735-.677c0 0 .684-1.58.684-2.258 0-.678-.684-1.355-1.823-1.355-1.14 0-2.963 0-2.963-.903s1.823-.903 1.823-.903.912-.226 1.14-1.129c.228-.903 1.675-1.58 1.675-1.58" transform="translate(-477 -988) translate(479 989) translate(22.635 58.474)"/>
                    <path stroke="#44E7D9" stroke-linecap="round" stroke-linejoin="round" stroke-width="1.875" d="M71.249 124.333s-1.14 1.128-1.823.677c-.684-.452-.684-2.483-.684-3.387 0-.903.684-1.806-.911-2.031-1.596-.226-2.507-.226-3.19-.452-.684-.226-.684-2.032 0-2.258.683-.226 1.366.452 1.822.452.456 0 .684-.226.684-1.13 0-.902 1.823-1.805 2.279-1.58" transform="translate(-477 -988) translate(479 989) translate(22.635 58.474)"/>
                    <path stroke="#44E7D9" stroke-linecap="round" stroke-linejoin="round" stroke-width="1.875" d="M71.249 131.783s-1.368 1.354-2.051 0c-.684-1.355.911-3.16 0-4.064-.912-.903-1.823-1.58-2.963-1.354-1.139.225-2.734-.904-2.506-1.58.228-.678 2.506-.227 3.646-.452 1.14-.226 1.48-.65 1.48-.65" transform="translate(-477 -988) translate(479 989) translate(22.635 58.474)"/>
                    <path stroke="#44E7D9" stroke-linecap="round" stroke-linejoin="round" stroke-width="1.875" d="M71.704 137.427s-1.14 2.483-2.506 2.032c-1.368-.452-.456-1.13-.456-2.484s-.456-2.483-1.14-3.386c-.683-.903-.115-4.183 1.651-3.898" transform="translate(-477 -988) translate(479 989) translate(22.635 58.474)"/>
                    <path stroke="#44E7D9" stroke-linecap="round" stroke-linejoin="round" stroke-width="1.875" d="M71.476 144.426s-1.822-.677-2.05 0c-.228.677-.912 2.483-2.051 2.483-1.14 0-1.367-1.354-1.595-2.257-.228-.903 1.14-1.13 1.14-2.032 0-.903-1.14-2.258-.912-2.71.227-.451.911-2.483 1.367-2.709.456-.226.911-.677 1.139-.226M70.094 139.514s.243 1.526 1.61 1.3M71.476 133.137s-.942-.15-1.382-.752M72.194 68.994v7.451s-.113 1.016.57 1.016c.684 0 .456-1.355.456-4.064v-4.29M72.157 78.025v6.41s-.114.873.57.873c.683 0 .455-1.165.455-3.496v-3.69M72.177 86.378v6.237s-.115.85.57.85c.683 0 .455-1.133.455-3.401v-3.59M72.222 93.829v4.941s-.114.674.57.674c.683 0 .455-.898.455-2.695v-2.845M72.132 99.925v3.688s-.114.502.57.502c.683 0 .456-.67.456-2.011V99.98M72.196 104.891v5.733s-.113.782.57.782c.684 0 .456-1.042.456-3.127v-3.3M72.103 112.342v4.869s-.114.664.57.664c.684 0 .456-.885.456-2.656v-2.803" transform="translate(-477 -988) translate(479 989) translate(22.635 58.474)"/>
                    <path stroke="#44E7D9" stroke-linecap="round" stroke-linejoin="round" stroke-width="1.875" d="M70.876 111.012s-.39 1.217.749 1.217c1.14 0 3.12.451 2.927-1.355M72.067 118.154v4.869s-.114.664.57.664c.683 0 .455-.885.455-2.656v-2.803M72.157 124.307v6.211s-.114.847.57.847c.683 0 .455-1.129.455-3.387V124.4M72.077 131.986l.028 5.49s-.11.75.574.747c.684-.004.45-1 .44-2.997l-.017-3.162M72.138 138.756v5.765s-.114.786.57.786c.683 0 .455-1.048.455-3.144v-3.32M72.365 62.833v4.87s-.114.663.57.663c.684 0 .456-.885.456-2.656v-2.804M72.32 53.643v7.782s-.114 1.062.57 1.062c.684 0 .456-1.416.456-4.246v-4.48" transform="translate(-477 -988) translate(479 989) translate(22.635 58.474)"/>
                    <path stroke="#44E7D9" stroke-linecap="round" stroke-linejoin="round" stroke-width="1.875" d="M72.378 47.321v5.761s-.114.786.57.786c.683 0 .455-1.048.455-3.143v-3.317" transform="translate(-477 -988) translate(479 989) translate(22.635 58.474)"/>
                    <path stroke="#44E7D9" stroke-linecap="round" stroke-linejoin="round" stroke-width="1.875" d="M72.307 42.046v4.87s-.114.663.57.663c.683 0 .456-.885.456-2.656V42.12M72.486 35.895v4.87s-.114.663.57.663c.684 0 .456-.885.456-2.655v-2.804M72.425 30.19v4.869s-.114.663.57.663c.684 0 .456-.885.456-2.655v-2.804M72.412 24.46v4.87s-.114.664.57.664c.684 0 .456-.885.456-2.656v-2.804M72.103 112.342v4.869s-.114.664.57.664c.684 0 .456-.885.456-2.656v-2.803" transform="translate(-477 -988) translate(479 989) translate(22.635 58.474)"/>
                    <path stroke="#44E7D9" stroke-linecap="round" stroke-linejoin="round" stroke-width="1.875" d="M72.48 18.95v4.868s-.114.664.57.664c.683 0 .455-.885.455-2.656v-2.803" transform="translate(-477 -988) translate(479 989) translate(22.635 58.474)"/>
                    <path stroke="#44E7D9" stroke-linecap="round" stroke-linejoin="round" stroke-width="1.875" d="M72.454 13.446v4.87s-.114.663.57.663c.683 0 .456-.885.456-2.655V13.52M72.464 7.822v4.869s-.114.664.57.664c.684 0 .456-.885.456-2.656V7.895M75.011 16.363s1.14 0 1.823.452c.684.451 2.279.451 2.507-.452.228-.903-.228-2.032 0-2.483 0 0 .175-.632.217-1.374M67.75 7.473s0 1.58-.91 2.032c-.912.452-.36 2.514-.36 2.514.228.902 1.823.902 2.507.451 0 0 .359-.03.587-.482.228-.45.455-.903 1.367-.677.912.226.912.452.912.452" transform="translate(-477 -988) translate(479 989) translate(22.635 58.474)"/>
                    <path stroke="#44E7D9" stroke-linecap="round" stroke-linejoin="round" stroke-width="1.875" d="M70.99 16.501s-1.14 0-1.824.452c-.684.451-2.279.451-2.507-.452-.227-.903.228-2.031 0-2.483 0 0-.52-1.221.172-1.513M71.397 8.376s-.228-.451-.228-1.129c0-.677-1.14-.225-1.367.226-.228.452-2.051.452-2.051-.677 0-1.13-1.368-.226-1.368-.452 0-.225-.228-1.58.912-1.58 1.14 0 .684-.226.684-.903s.228-1.129.683-1.355c.456-.225 1.367-.902 1.595-.451.229.451.229.903.912 1.129.684.225 1.823 0 1.823 0M75.31 8.336s.227-.451.227-1.128c0-.678 1.14-.226 1.367.225.228.452 2.051.452 2.051-.677s1.367-.226 1.367-.451c0-.226.228-1.58-.91-1.58-1.14 0-.685-.227-.685-.904s-.228-1.128-.683-1.354c-.456-.226-1.368-.903-1.596-.452-.227.452-.227.903-.91 1.129-.685.226-1.824 0-1.824 0M69.916 7.586s.202 1.09 1.354.432M75.499 8.15s1.14.452 1.367-.677" transform="translate(-477 -988) translate(479 989) translate(22.635 58.474)"/>
                    <path stroke="#44E7D9" stroke-linecap="round" stroke-linejoin="round" stroke-width="1.875" d="M78.56 7.532s0 1.58.911 2.032c.912.452.36 2.514.36 2.514-.228.903-1.824.903-2.507.451 0 0-.36-.03-.587-.481-.228-.452-.456-.903-1.367-.677-.912.225-.912.451-.912.451M71.625 19.439s-.684 0-.912.226M74.36 20.568s.878.225 1.122-1.13M74.131 35.017L74.131 8.263M71.625 41.113L71.625 8.24M71.169 7.247c0-1.128 1.14-.677 1.367-2.257.228-1.58.684-1.806.684-1.806s.456-.226.683.451c.229.677.229 1.806.912 2.71.683.902.633.47.658 1.477M72.08 7.925s.912-1.355 2.051 0M65.928 27.566s.456-.677 1.14-.902M68.207 29.598s1.367-.677 2.05-1.806M78.005 29.373s-1.367-.904-1.595-1.355M79.828 28.018s-.683-1.129-1.823-1.355M74.131 112.279v32.46c-1.823 1.806-2.734 0-2.734 0v-32.51" transform="translate(-477 -988) translate(479 989) translate(22.635 58.474)"/>
                </g>
            </g>
        </g>
    </g>
</svg>
