<svg xmlns="http://www.w3.org/2000/svg" width="191" height="269" viewBox="0 0 191 269"><title>Восьмёрка Кубков</title>
    <g fill="none" fill-rule="evenodd">
        <g>
            <g>
                <path fill="#152230" stroke="#FFF" stroke-linecap="round" stroke-linejoin="round" stroke-width="2.5" d="M177.795 266.062H9.62c-5.22 0-9.452-4.231-9.452-9.452V9.838C.17 4.617 4.401.385 9.621.385h168.174c5.22 0 9.452 4.232 9.452 9.453V256.61c0 5.22-4.232 9.452-9.452 9.452z" transform="translate(-1081 -1518) translate(1083 1519)"/>
                <path fill="#D1A448" fill-rule="nonzero" d="M56.74 254.12v-.731h-3.67v-4.352h3.199v-.731h-3.2v-4.271h3.67v-.731h-4.481v10.815h4.482zm2.68 0v-10.816h-.813v10.815h.812zm4.928.08c.85 0 1.632-.21 2.346-.633v-4.628h-.812v4.141c-.368.26-.936.39-1.705.39-1.115 0-1.672-.487-1.672-1.462v-6.495c0-1.029.644-1.543 1.932-1.543.671 0 1.326.103 1.965.308v-.795c-.606-.174-1.234-.26-1.884-.26-1.883 0-2.825.763-2.825 2.29v6.495c0 .769.23 1.327.69 1.673.46.346 1.115.52 1.965.52zm5.513-.08v-4.937h3.8v4.936h.828v-10.815h-.828v5.148h-3.8v-5.148h-.812v10.815h.812zm8.964 0v-10.085h2.144v-.731h-5.1v.73h2.144v10.085h.812zm9.03.162c.855 0 1.499-.23 1.932-.69.433-.46.65-1.059.65-1.795v-6.17c0-.737-.217-1.335-.65-1.795-.433-.46-1.077-.69-1.933-.69-.855 0-1.499.23-1.932.69-.433.46-.65 1.058-.65 1.794v6.171c0 .736.217 1.335.65 1.795.433.46 1.077.69 1.932.69zm0-.73c-1.18 0-1.77-.586-1.77-1.755v-6.17c0-1.17.59-1.755 1.77-1.755 1.18 0 1.77.585 1.77 1.754v6.171c0 1.17-.59 1.754-1.77 1.754zm5.667.567v-4.92H96.9v-.73h-3.378v-4.434h3.524v-.731H92.71v10.815h.812zm10.393 0l.99-5.716c.239-1.364.412-2.636.52-3.816.12 1.18.628 4.358 1.527 9.532h1.17l1.883-10.815h-.844c-.899 5.446-1.44 8.807-1.624 10.085l-.423-2.842-1.201-7.243h-.958l-1.202 7.227c-.163.952-.303 1.905-.422 2.858l-.423-2.842-1.201-7.243h-.845l1.884 10.815h1.17zm7.665 0l.731-3.166h3.086l.73 3.166h.845l-2.534-10.815h-1.169l-2.533 10.815h.844zm3.654-3.897h-2.76l1.38-5.992 1.38 5.992zm5.18 3.897v-10.084h2.144v-.731h-5.1l.001.73h2.144v10.085h.812zm8.007 0v-.73h-3.67v-4.352h3.199v-.731h-3.2v-4.271h3.67v-.731h-4.482v10.815h4.483zm2.68 0v-4.465h1.574c.174 0 .303-.006.39-.017l1.608 4.482h.893l-1.705-4.66c.93-.347 1.396-1.094 1.396-2.241v-1.478c0-.736-.216-1.326-.65-1.77-.432-.444-1.076-.666-1.932-.666h-2.387v10.815h.812zm1.574-5.229H131.1v-4.855h1.575c1.18 0 1.77.568 1.77 1.705v1.478c0 1.115-.59 1.672-1.77 1.672z" transform="translate(-1081 -1518) translate(1083 1519)"/>
                <g stroke="#FFF" stroke-width="1.875">
                    <path d="M92.083.496L158.54.496 158.54 223.652M10.436.496L66.955.496M148.471 236.618L128.959 236.618M.043 11.447L.043 236.618 28.115 236.618" transform="translate(-1081 -1518) translate(1083 1519) translate(14.19 14.574)"/>
                </g>
                <path fill="#D1A448" fill-rule="nonzero" d="M89.42 19.102l2.437-10.816h-.845c-1.266 5.717-1.992 9.035-2.176 9.955-.151-.736-.877-4.054-2.176-9.955h-.844l2.435 10.816h1.17zm4.71 0V8.286h-.812v10.816h.812zm3.248 0V8.286h-.812v10.816h.812zm3.248 0V8.286h-.812v10.816h.812z" transform="translate(-1081 -1518) translate(1083 1519)"/>
                <g>
                    <path fill="#000" d="M164.444 233.847L167.067 238.388 169.689 242.931 164.444 242.931 159.2 242.931 161.822 238.388z" transform="translate(-1081 -1518) translate(1083 1519) translate(8.446 11.196)"/>
                    <path stroke="#44E7D9" stroke-width="1.875" d="M164.444 233.847L167.067 238.388 169.689 242.931 164.444 242.931 159.2 242.931 161.822 238.388z" transform="translate(-1081 -1518) translate(1083 1519) translate(8.446 11.196)"/>
                    <path fill="#000" d="M5.572 9.109L2.95 4.568 0.328 0.025 5.572 0.025 10.817 0.025 8.195 4.568z" transform="translate(-1081 -1518) translate(1083 1519) translate(8.446 11.196)"/>
                    <path stroke="#44E7D9" stroke-linecap="round" stroke-linejoin="round" stroke-width="1.875" d="M5.572 9.109L2.95 4.568 0.328 0.025 5.572 0.025 10.817 0.025 8.195 4.568z" transform="translate(-1081 -1518) translate(1083 1519) translate(8.446 11.196)"/>
                    <path stroke="#44E7D9" stroke-width="1.875" d="M142.043 187.972c-3.871 2.437-8.55 1.807-12.426-.453-3.693-2.153-7.074-3.03-12.098.725l-.598.478c-3.871 2.437-8.037 1.566-11.912-.693s-7.406-3.113-12.852 1.313l-.603.505c-3.871 2.437-8.036 1.566-11.912-.693-3.693-2.153-7.074-3.03-12.098.725l-.598.478c-3.872 2.436-8.037 1.566-11.912-.693-3.875-2.26-7.406-3.113-12.853 1.313-5.446 4.426-11.037-.162-11.037-.162M142.043 177.14c-3.871 2.437-8.55 1.806-12.426-.453-3.693-2.153-7.074-3.03-12.098.725l-.598.478c-3.871 2.437-8.037 1.566-11.912-.693-3.875-2.26-7.406-3.113-12.852 1.313l-.603.505c-3.871 2.436-8.036 1.566-11.912-.693-3.693-2.153-7.074-3.03-12.098.724l-.598.478c-3.872 2.437-8.037 1.566-11.912-.693s-7.406-3.113-12.853 1.314c-5.446 4.426-11.037-.163-11.037-.163M142.043 198.346c-3.871 2.436-8.55 1.806-12.426-.453-3.693-2.153-7.074-3.03-12.098.725l-.598.478c-3.871 2.437-8.037 1.566-11.912-.693-3.875-2.26-7.406-3.113-12.852 1.313l-.603.505c-3.871 2.436-8.036 1.566-11.912-.693-3.693-2.153-7.074-3.03-12.098.724l-.598.478c-3.872 2.437-8.037 1.566-11.912-.693-3.875-2.26-7.406-3.113-12.853 1.314-5.446 4.426-11.037-.163-11.037-.163M142.043 208.777c-3.871 2.437-8.55 1.806-12.426-.453-3.693-2.153-7.074-3.03-12.098.725l-.598.478c-3.871 2.437-8.037 1.566-11.912-.693-3.875-2.26-7.406-3.113-12.852 1.313l-.603.505c-3.871 2.436-8.036 1.566-11.912-.693-3.693-2.153-7.074-3.03-12.098.724l-.598.478c-3.872 2.437-8.037 1.566-11.912-.693s-7.406-3.113-12.853 1.314c-5.446 4.426-11.037-.163-11.037-.163" transform="translate(-1081 -1518) translate(1083 1519) translate(8.446 11.196)"/>
                    <path stroke="#D1A448" stroke-width="1.875" d="M52.74 132.596c.607 10.35-3.392 18.158-9.887 18.392-6.42.23-10.657-7.627-10.132-18.26M40.802 150.677L40.841 156.505M44.779 150.651L44.817 156.479M42.923 157.051c-1.21.008-1.815-.109-2.301-.468 0 0-.601.608.007 1.209 0 0 .729.358 2.06.35M40.875 158.38l.034 5.08s.488.602 2.06.592c1.573-.01 1.932-.618 1.932-.618l-.034-5.08M41.795 151.116L41.832 156.801M41.843 158.374L41.878 163.696M43.248 151.348L43.283 156.549M43.297 158.727L43.312 161.025M43.316 161.63L43.33 163.686M44.458 151.34L44.487 155.816M44.507 158.719L44.538 163.436" transform="translate(-1081 -1518) translate(1083 1519) translate(8.446 11.196)"/>
                    <path stroke="#D1A448" stroke-width="1.875" d="M42.69 157.053c1.21-.008 1.814-.133 2.295-.5 0 0 .61.601.008 1.21 0 0-.723.368-2.054.377M52.68 132.657c.008 1.135-4.426 2.086-9.904 2.122-5.478.036-9.925-.855-9.933-1.99-.008-1.137 4.427-2.087 9.905-2.123 5.478-.036 9.925.855 9.933 1.99zM40.577 162.583c-1.295.127-4.08.47-5.63 1.176 0 0-1.872 1.114 2.264 1.894M45.057 162.487c1.296.126 4.08.465 5.63 1.17 0 0 1.873 1.113-2.262 1.897M37.956 165.68s4.843.693 10.048-.067" transform="translate(-1081 -1518) translate(1083 1519) translate(8.446 11.196)"/>
                    <path stroke="#D1A448" stroke-width="1.875" d="M34.523 164.07s-.793.428-.416 1.15c.378.724 3.36 1.551 7.206 1.526M44.342 166.729c3.846-.026 6.817-.892 7.184-1.62.368-.729-.43-1.147-.43-1.147M41.685 166.743s1.401.042 2.357-.015M52.629 134.458c.007 1.135-4.427 2.085-9.906 2.121-5.478.037-9.925-.854-9.932-1.99M42.786 147.4s-.194-1.56.721-2.64c0 0 .706-.96 1.876-1.35 0 0-.075 1.576-.63 2.31 0 0-.39.78-1.967 1.68z" transform="translate(-1081 -1518) translate(1083 1519) translate(8.446 11.196)"/>
                    <path stroke="#D1A448" stroke-width="1.875" d="M42.876 147.379s.175-1.563-.755-2.631c0 0-.718-.95-1.894-1.325 0 0 .096 1.574.662 2.301 0 0 .4.775 1.987 1.655zM42.86 147.45s.595-1.456 1.922-1.948c0 0 1.085-.491 2.297-.257 0 0-.838 1.336-1.683 1.704 0 0-.722.489-2.537.501z" transform="translate(-1081 -1518) translate(1083 1519) translate(8.446 11.196)"/>
                    <path stroke="#D1A448" stroke-width="1.875" d="M42.858 147.45s-.614-1.448-1.948-1.923c0 0-1.092-.476-2.3-.226 0 0 .855 1.325 1.705 1.682 0 0 .729.479 2.543.467z" transform="translate(-1081 -1518) translate(1083 1519) translate(8.446 11.196)"/>
                    <path stroke="#D1A448" stroke-width="1.875" d="M42.87 147.363s-.983-1.228-.768-2.628c0 0 .099-1.187.892-2.132 0 0 .76 1.382.671 2.3 0 0 .076.868-.795 2.46zM33.884 139.584s.98 5.602 3.75 8.385M33.728 138.589s-.126-.725-.13-1.33M33.853 139.193L33.852 139.072" transform="translate(-1081 -1518) translate(1083 1519) translate(8.446 11.196)"/>
                    <path stroke="#44E7D9" stroke-width="1.875" d="M45.343 134.518s-1.266-.08-.971-.518c.295-.439-.003-.436-.598-.433-.596.004-1.562.185-.817.355 0 0 .634.203.451.638M33.963 133.59s3.77-1.887 6.971-1.82M41.53 131.766L42.906 131.757M43.362 131.754s5.558-.047 8.233 1.643" transform="translate(-1081 -1518) translate(1083 1519) translate(8.446 11.196)"/>
                    <path stroke="#44E7D9" stroke-width="1.875" d="M39.813 134.544s.28-.56-.687-.378c-.966.181-1.01-.736.331-.57 1.341.166 2.829.069 2.602-.454-.226-.522-1.637.011-1.565-.426.071-.437 1.262-.358 1.932-.362.67-.005 1.634-.448 2.605-.017.97.43-1.04.356-.367.788.673.432 2.007-.363 2.38-.103.375.26-.516.614-.663.877-.147.263.762.383.762.383" transform="translate(-1081 -1518) translate(1083 1519) translate(8.446 11.196)"/>
                    <path stroke="#D1A448" stroke-width="1.875" d="M82.43 132.596c.607 10.35-3.392 18.158-9.888 18.392-6.42.23-10.656-7.627-10.13-18.26M70.492 150.677L70.531 156.505M74.469 150.651L74.507 156.479M72.613 157.051c-1.21.008-1.815-.109-2.301-.468 0 0-.601.608.008 1.209 0 0 .728.358 2.058.35M70.565 158.38l.034 5.08s.488.602 2.06.592c1.573-.01 1.932-.618 1.932-.618l-.034-5.08M71.485 151.116L71.523 156.801M71.533 158.374L71.568 163.696M72.938 151.348L72.973 156.549M72.987 158.727L73.002 161.025M73.006 161.63L73.02 163.686M74.148 151.34L74.178 155.816M74.197 158.719L74.228 163.436" transform="translate(-1081 -1518) translate(1083 1519) translate(8.446 11.196)"/>
                    <path stroke="#D1A448" stroke-width="1.875" d="M72.38 157.053c1.21-.008 1.814-.133 2.295-.5 0 0 .61.601.008 1.21 0 0-.723.368-2.054.377M82.37 132.657c.008 1.135-4.426 2.086-9.904 2.122-5.479.036-9.926-.855-9.933-1.99-.007-1.137 4.427-2.087 9.905-2.123 5.478-.036 9.925.855 9.933 1.99zM70.267 162.583c-1.295.127-4.08.47-5.63 1.176 0 0-1.872 1.114 2.264 1.894M74.747 162.487c1.296.126 4.08.465 5.63 1.17 0 0 1.873 1.113-2.262 1.897M67.646 165.68s4.843.693 10.048-.067" transform="translate(-1081 -1518) translate(1083 1519) translate(8.446 11.196)"/>
                    <path stroke="#D1A448" stroke-width="1.875" d="M64.213 164.07s-.793.428-.415 1.15c.377.724 3.36 1.551 7.205 1.526M74.032 166.729c3.845-.026 6.817-.892 7.185-1.62.367-.729-.43-1.147-.43-1.147M71.375 166.743s1.401.042 2.357-.015M82.319 134.458c.007 1.135-4.427 2.085-9.906 2.121-5.478.037-9.925-.854-9.932-1.99M72.477 147.4s-.195-1.56.72-2.64c0 0 .706-.96 1.876-1.35 0 0-.075 1.576-.63 2.31 0 0-.39.78-1.966 1.68z" transform="translate(-1081 -1518) translate(1083 1519) translate(8.446 11.196)"/>
                    <path stroke="#D1A448" stroke-width="1.875" d="M72.567 147.379s.174-1.563-.756-2.631c0 0-.718-.95-1.893-1.325 0 0 .096 1.574.66 2.301 0 0 .401.775 1.989 1.655zM72.55 147.45s.595-1.456 1.922-1.948c0 0 1.086-.491 2.297-.257 0 0-.838 1.336-1.682 1.704 0 0-.723.489-2.538.501z" transform="translate(-1081 -1518) translate(1083 1519) translate(8.446 11.196)"/>
                    <path stroke="#D1A448" stroke-width="1.875" d="M72.548 147.45s-.614-1.448-1.948-1.923c0 0-1.092-.476-2.3-.226 0 0 .856 1.325 1.705 1.682 0 0 .729.479 2.543.467z" transform="translate(-1081 -1518) translate(1083 1519) translate(8.446 11.196)"/>
                    <path stroke="#D1A448" stroke-width="1.875" d="M72.56 147.363s-.983-1.228-.768-2.628c0 0 .099-1.187.892-2.132 0 0 .76 1.382.672 2.3 0 0 .075.868-.797 2.46zM63.574 139.584s.981 5.602 3.75 8.385M63.418 138.589s-.125-.725-.13-1.33M63.543 139.193L63.542 139.072" transform="translate(-1081 -1518) translate(1083 1519) translate(8.446 11.196)"/>
                    <path stroke="#44E7D9" stroke-width="1.875" d="M75.033 134.518s-1.266-.08-.97-.518c.294-.439-.004-.436-.6-.433-.594.004-1.561.185-.816.355 0 0 .634.203.451.638M63.653 133.59s3.77-1.887 6.971-1.82M71.22 131.766L72.596 131.757M73.052 131.754s5.558-.047 8.233 1.643" transform="translate(-1081 -1518) translate(1083 1519) translate(8.446 11.196)"/>
                    <path stroke="#44E7D9" stroke-width="1.875" d="M69.503 134.544s.28-.56-.687-.378c-.966.181-1.009-.736.332-.57 1.34.166 2.828.069 2.601-.454-.226-.522-1.637.011-1.565-.426.071-.437 1.263-.358 1.932-.362.67-.005 1.635-.448 2.605-.017.97.43-1.04.356-.367.788.673.432 2.007-.363 2.38-.103.375.26-.516.614-.663.877-.147.263.762.383.762.383" transform="translate(-1081 -1518) translate(1083 1519) translate(8.446 11.196)"/>
                    <path stroke="#D1A448" stroke-width="1.875" d="M110.905 132.596c.606 10.35-3.393 18.158-9.889 18.392-6.42.23-10.656-7.627-10.13-18.26M98.966 150.677L99.005 156.505M102.943 150.651L102.981 156.479M101.087 157.051c-1.21.008-1.815-.109-2.302-.468 0 0-.6.608.008 1.209 0 0 .728.358 2.06.35M99.039 158.38l.034 5.08s.488.602 2.06.592c1.573-.01 1.932-.618 1.932-.618l-.034-5.08M99.959 151.116L99.996 156.801M100.007 158.374L100.042 163.696M101.412 151.348L101.447 156.549M101.461 158.727L101.476 161.025M101.48 161.63L101.494 163.686M102.622 151.34L102.651 155.816M102.67 158.719L102.702 163.436" transform="translate(-1081 -1518) translate(1083 1519) translate(8.446 11.196)"/>
                    <path stroke="#D1A448" stroke-width="1.875" d="M100.854 157.053c1.21-.008 1.814-.133 2.295-.5 0 0 .609.601.008 1.21 0 0-.723.368-2.054.377M110.845 132.657c.007 1.135-4.427 2.086-9.906 2.122-5.478.036-9.925-.855-9.932-1.99-.008-1.137 4.427-2.087 9.905-2.123 5.478-.036 9.925.855 9.933 1.99zM98.741 162.583c-1.295.127-4.08.47-5.63 1.176 0 0-1.872 1.114 2.264 1.894M103.221 162.487c1.296.126 4.08.465 5.63 1.17 0 0 1.873 1.113-2.262 1.897M96.12 165.68s4.843.693 10.048-.067" transform="translate(-1081 -1518) translate(1083 1519) translate(8.446 11.196)"/>
                    <path stroke="#D1A448" stroke-width="1.875" d="M92.686 164.07s-.792.428-.415 1.15c.378.724 3.36 1.551 7.206 1.526M102.505 166.729c3.846-.026 6.818-.892 7.185-1.62.368-.729-.43-1.147-.43-1.147M99.849 166.743s1.401.042 2.357-.015M110.792 134.458c.008 1.135-4.427 2.085-9.905 2.121-5.478.037-9.925-.854-9.933-1.99M100.95 147.4s-.194-1.56.721-2.64c0 0 .706-.96 1.876-1.35 0 0-.075 1.576-.63 2.31 0 0-.391.78-1.967 1.68z" transform="translate(-1081 -1518) translate(1083 1519) translate(8.446 11.196)"/>
                    <path stroke="#D1A448" stroke-width="1.875" d="M101.04 147.379s.175-1.563-.755-2.631c0 0-.718-.95-1.894-1.325 0 0 .096 1.574.661 2.301 0 0 .401.775 1.988 1.655zM101.023 147.45s.595-1.456 1.923-1.948c0 0 1.085-.491 2.296-.257 0 0-.837 1.336-1.682 1.704 0 0-.722.489-2.537.501z" transform="translate(-1081 -1518) translate(1083 1519) translate(8.446 11.196)"/>
                    <path stroke="#D1A448" stroke-width="1.875" d="M101.022 147.45s-.614-1.448-1.948-1.923c0 0-1.092-.476-2.3-.226 0 0 .855 1.325 1.705 1.682 0 0 .728.479 2.543.467z" transform="translate(-1081 -1518) translate(1083 1519) translate(8.446 11.196)"/>
                    <path stroke="#D1A448" stroke-width="1.875" d="M101.033 147.363s-.982-1.228-.767-2.628c0 0 .099-1.187.892-2.132 0 0 .76 1.382.671 2.3 0 0 .076.868-.796 2.46zM92.048 139.584s.98 5.602 3.749 8.385M91.892 138.589s-.126-.725-.13-1.33M92.017 139.193L92.016 139.072" transform="translate(-1081 -1518) translate(1083 1519) translate(8.446 11.196)"/>
                    <path stroke="#44E7D9" stroke-width="1.875" d="M103.507 134.518s-1.266-.08-.971-.518c.295-.439-.003-.436-.598-.433-.596.004-1.562.185-.817.355 0 0 .633.203.451.638M92.127 133.59s3.77-1.887 6.97-1.82M99.694 131.766L101.07 131.757M101.526 131.754s5.558-.047 8.232 1.643" transform="translate(-1081 -1518) translate(1083 1519) translate(8.446 11.196)"/>
                    <path stroke="#44E7D9" stroke-width="1.875" d="M97.977 134.544s.28-.56-.687-.378c-.966.181-1.01-.736.331-.57 1.341.166 2.829.069 2.602-.454-.226-.522-1.637.011-1.566-.426.072-.437 1.263-.358 1.933-.362.67-.005 1.634-.448 2.605-.017.97.43-1.04.356-.367.788.673.432 2.007-.363 2.38-.103.374.26-.516.614-.663.877-.147.263.762.383.762.383" transform="translate(-1081 -1518) translate(1083 1519) translate(8.446 11.196)"/>
                    <path stroke="#D1A448" stroke-width="1.875" d="M140.595 132.596c.606 10.35-3.393 18.158-9.889 18.392-6.42.23-10.656-7.627-10.13-18.26M128.656 150.677L128.695 156.505M132.632 150.651L132.671 156.479M130.777 157.051c-1.21.008-1.815-.109-2.301-.468 0 0-.601.608.007 1.209 0 0 .728.358 2.06.35M128.73 158.38l.033 5.08s.488.602 2.06.592c1.573-.01 1.931-.618 1.931-.618l-.033-5.08M129.649 151.116L129.686 156.801M129.697 158.374L129.732 163.696M131.102 151.348L131.137 156.549M131.151 158.727L131.166 161.025M131.17 161.63L131.184 163.686M132.312 151.34L132.341 155.816M132.361 158.719L132.392 163.436" transform="translate(-1081 -1518) translate(1083 1519) translate(8.446 11.196)"/>
                    <path stroke="#D1A448" stroke-width="1.875" d="M130.544 157.053c1.21-.008 1.814-.133 2.295-.5 0 0 .61.601.008 1.21 0 0-.723.368-2.054.377M140.535 132.657c.007 1.135-4.427 2.086-9.905 2.122-5.479.036-9.926-.855-9.933-1.99-.008-1.137 4.427-2.087 9.905-2.123 5.478-.036 9.925.855 9.933 1.99zM128.431 162.583c-1.295.127-4.08.47-5.63 1.176 0 0-1.872 1.114 2.264 1.894M132.911 162.487c1.296.126 4.08.465 5.63 1.17 0 0 1.873 1.113-2.262 1.897M125.81 165.68s4.843.693 10.048-.067" transform="translate(-1081 -1518) translate(1083 1519) translate(8.446 11.196)"/>
                    <path stroke="#D1A448" stroke-width="1.875" d="M122.377 164.07s-.793.428-.416 1.15c.377.724 3.36 1.551 7.206 1.526M132.196 166.729c3.845-.026 6.817-.892 7.184-1.62.368-.729-.43-1.147-.43-1.147M129.54 166.743s1.4.042 2.356-.015M140.483 134.458c.007 1.135-4.427 2.085-9.906 2.121-5.478.037-9.925-.854-9.933-1.99M130.64 147.4s-.194-1.56.721-2.64c0 0 .705-.96 1.876-1.35 0 0-.076 1.576-.631 2.31 0 0-.39.78-1.966 1.68z" transform="translate(-1081 -1518) translate(1083 1519) translate(8.446 11.196)"/>
                    <path stroke="#D1A448" stroke-width="1.875" d="M130.73 147.379s.175-1.563-.755-2.631c0 0-.718-.95-1.894-1.325 0 0 .096 1.574.662 2.301 0 0 .4.775 1.987 1.655zM130.713 147.45s.596-1.456 1.923-1.948c0 0 1.085-.491 2.297-.257 0 0-.838 1.336-1.683 1.704 0 0-.722.489-2.537.501z" transform="translate(-1081 -1518) translate(1083 1519) translate(8.446 11.196)"/>
                    <path stroke="#D1A448" stroke-width="1.875" d="M130.712 147.45s-.614-1.448-1.948-1.923c0 0-1.092-.476-2.3-.226 0 0 .855 1.325 1.705 1.682 0 0 .728.479 2.543.467z" transform="translate(-1081 -1518) translate(1083 1519) translate(8.446 11.196)"/>
                    <path stroke="#D1A448" stroke-width="1.875" d="M130.723 147.363s-.982-1.228-.767-2.628c0 0 .099-1.187.892-2.132 0 0 .76 1.382.671 2.3 0 0 .076.868-.796 2.46zM121.738 139.584s.98 5.602 3.75 8.385M121.582 138.589s-.126-.725-.13-1.33M121.707 139.193L121.706 139.072" transform="translate(-1081 -1518) translate(1083 1519) translate(8.446 11.196)"/>
                    <path stroke="#44E7D9" stroke-width="1.875" d="M133.197 134.518s-1.266-.08-.971-.518c.295-.439-.003-.436-.598-.433-.596.004-1.562.185-.817.355 0 0 .634.203.451.638M121.817 133.59s3.77-1.887 6.97-1.82M129.384 131.766L130.76 131.757M131.216 131.754s5.558-.047 8.233 1.643" transform="translate(-1081 -1518) translate(1083 1519) translate(8.446 11.196)"/>
                    <path stroke="#44E7D9" stroke-width="1.875" d="M127.667 134.544s.28-.56-.687-.378c-.966.181-1.01-.736.331-.57 1.34.166 2.829.069 2.602-.454-.227-.522-1.637.011-1.565-.426.071-.437 1.262-.358 1.932-.362.67-.005 1.634-.448 2.605-.017.97.43-1.04.356-.367.788.673.432 2.007-.363 2.38-.103.375.26-.516.614-.663.877-.147.263.762.383.762.383" transform="translate(-1081 -1518) translate(1083 1519) translate(8.446 11.196)"/>
                    <path stroke="#D1A448" stroke-width="1.875" d="M52.796 87.68c.606 10.351-3.392 18.159-9.888 18.392-6.42.231-10.656-7.627-10.131-18.259M40.858 105.762L40.896 111.589M44.834 105.735L44.873 111.563M42.978 112.136c-1.21.007-1.815-.11-2.301-.47 0 0-.601.61.008 1.21 0 0 .728.358 2.059.35M40.93 113.464l.035 5.08s.488.602 2.06.592c1.572-.01 1.931-.618 1.931-.618l-.034-5.08M41.85 106.2L41.888 111.885M41.899 113.458L41.934 118.78M43.304 106.433L43.338 111.634M43.353 113.811L43.368 116.109M43.372 116.714L43.386 118.771M44.513 106.425L44.543 110.9M44.562 113.803L44.593 118.521" transform="translate(-1081 -1518) translate(1083 1519) translate(8.446 11.196)"/>
                    <path stroke="#D1A448" stroke-width="1.875" d="M42.746 112.137c1.21-.008 1.813-.133 2.295-.5 0 0 .609.602.008 1.21 0 0-.723.368-2.054.377M52.736 87.74c.008 1.136-4.427 2.087-9.905 2.123-5.478.036-9.925-.855-9.933-1.99-.007-1.137 4.428-2.087 9.906-2.123 5.478-.036 9.925.855 9.932 1.99zM40.633 117.668c-1.296.126-4.08.469-5.63 1.175 0 0-1.872 1.114 2.263 1.895M45.113 117.571c1.295.126 4.08.465 5.63 1.17 0 0 1.872 1.113-2.263 1.897M38.012 120.764s4.843.693 10.048-.067" transform="translate(-1081 -1518) translate(1083 1519) translate(8.446 11.196)"/>
                    <path stroke="#D1A448" stroke-width="1.875" d="M34.578 119.154s-.792.428-.415 1.15c.377.725 3.36 1.551 7.206 1.526M44.397 121.813c3.846-.025 6.818-.892 7.185-1.62.367-.728-.43-1.146-.43-1.146M41.74 121.828s1.402.041 2.358-.016M52.684 89.542c.007 1.135-4.427 2.086-9.905 2.122-5.478.036-9.925-.855-9.933-1.99M42.842 102.485s-.195-1.56.72-2.64c0 0 .706-.96 1.876-1.35 0 0-.075 1.575-.63 2.31 0 0-.39.78-1.966 1.68z" transform="translate(-1081 -1518) translate(1083 1519) translate(8.446 11.196)"/>
                    <path stroke="#D1A448" stroke-width="1.875" d="M42.932 102.463s.174-1.563-.756-2.63c0 0-.717-.952-1.893-1.326 0 0 .096 1.574.661 2.302 0 0 .4.775 1.988 1.654zM42.915 102.534s.595-1.456 1.922-1.948c0 0 1.086-.491 2.297-.257 0 0-.838 1.336-1.682 1.705 0 0-.723.488-2.537.5z" transform="translate(-1081 -1518) translate(1083 1519) translate(8.446 11.196)"/>
                    <path stroke="#D1A448" stroke-width="1.875" d="M42.913 102.534s-.614-1.447-1.948-1.922c0 0-1.091-.477-2.3-.227 0 0 .856 1.325 1.705 1.682 0 0 .73.48 2.543.467z" transform="translate(-1081 -1518) translate(1083 1519) translate(8.446 11.196)"/>
                    <path stroke="#D1A448" stroke-width="1.875" d="M42.925 102.447s-.982-1.228-.767-2.627c0 0 .098-1.188.892-2.132 0 0 .76 1.382.67 2.299 0 0 .077.869-.795 2.46zM33.94 94.669s.98 5.601 3.749 8.384M33.784 93.673s-.126-.725-.13-1.33M33.909 94.277L33.908 94.156" transform="translate(-1081 -1518) translate(1083 1519) translate(8.446 11.196)"/>
                    <path stroke="#44E7D9" stroke-width="1.875" d="M45.398 89.602s-1.265-.08-.97-.518c.294-.438-.003-.436-.599-.432-.595.003-1.561.184-.816.354 0 0 .633.203.45.639M34.019 88.674s3.77-1.886 6.97-1.82M41.585 86.85L42.962 86.841M43.418 86.838s5.558-.047 8.232 1.643" transform="translate(-1081 -1518) translate(1083 1519) translate(8.446 11.196)"/>
                    <path stroke="#44E7D9" stroke-width="1.875" d="M39.869 89.628s.279-.559-.687-.378c-.966.181-1.01-.735.33-.57 1.342.166 2.83.069 2.602-.454-.226-.522-1.636.011-1.565-.426.072-.437 1.263-.358 1.932-.362.67-.005 1.635-.448 2.605-.017.97.43-1.04.356-.367.788.673.432 2.008-.362 2.381-.103.374.26-.517.615-.664.878-.147.263.763.383.763.383" transform="translate(-1081 -1518) translate(1083 1519) translate(8.446 11.196)"/>
                    <path stroke="#D1A448" stroke-width="1.875" d="M82.486 87.68c.606 10.351-3.392 18.159-9.888 18.392-6.42.231-10.656-7.627-10.131-18.259M70.548 105.762L70.586 111.589M74.524 105.735L74.563 111.563M72.669 112.136c-1.21.007-1.816-.11-2.302-.47 0 0-.6.61.008 1.21 0 0 .728.358 2.06.35M70.621 113.464l.034 5.08s.487.602 2.06.592c1.573-.01 1.931-.618 1.931-.618l-.033-5.08M71.541 106.2L71.578 111.885M71.589 113.458L71.624 118.78M72.994 106.433L73.028 111.634M73.043 113.811L73.058 116.109M73.062 116.714L73.075 118.771M74.203 106.425L74.233 110.9M74.252 113.803L74.284 118.521" transform="translate(-1081 -1518) translate(1083 1519) translate(8.446 11.196)"/>
                    <path stroke="#D1A448" stroke-width="1.875" d="M72.436 112.137c1.21-.008 1.813-.133 2.295-.5 0 0 .609.602.008 1.21 0 0-.723.368-2.054.377M82.426 87.74c.008 1.136-4.427 2.087-9.905 2.123-5.478.036-9.925-.855-9.933-1.99-.007-1.137 4.428-2.087 9.906-2.123 5.478-.036 9.925.855 9.932 1.99zM70.323 117.668c-1.296.126-4.08.469-5.63 1.175 0 0-1.872 1.114 2.263 1.895M74.803 117.571c1.295.126 4.08.465 5.63 1.17 0 0 1.872 1.113-2.263 1.897M67.702 120.764s4.843.693 10.048-.067" transform="translate(-1081 -1518) translate(1083 1519) translate(8.446 11.196)"/>
                    <path stroke="#D1A448" stroke-width="1.875" d="M64.268 119.154s-.792.428-.415 1.15c.377.725 3.36 1.551 7.206 1.526M74.088 121.813c3.845-.025 6.817-.892 7.184-1.62.368-.728-.43-1.146-.43-1.146M71.43 121.828s1.402.041 2.358-.016M82.374 89.542c.008 1.135-4.427 2.086-9.905 2.122-5.478.036-9.925-.855-9.933-1.99M72.532 102.485s-.195-1.56.72-2.64c0 0 .706-.96 1.877-1.35 0 0-.076 1.575-.631 2.31 0 0-.39.78-1.966 1.68z" transform="translate(-1081 -1518) translate(1083 1519) translate(8.446 11.196)"/>
                    <path stroke="#D1A448" stroke-width="1.875" d="M72.622 102.463s.174-1.563-.755-2.63c0 0-.718-.952-1.894-1.326 0 0 .096 1.574.661 2.302 0 0 .4.775 1.988 1.654zM72.605 102.534s.595-1.456 1.922-1.948c0 0 1.086-.491 2.297-.257 0 0-.838 1.336-1.682 1.705 0 0-.723.488-2.537.5z" transform="translate(-1081 -1518) translate(1083 1519) translate(8.446 11.196)"/>
                    <path stroke="#D1A448" stroke-width="1.875" d="M72.604 102.534s-.615-1.447-1.949-1.922c0 0-1.091-.477-2.3-.227 0 0 .856 1.325 1.705 1.682 0 0 .73.48 2.544.467z" transform="translate(-1081 -1518) translate(1083 1519) translate(8.446 11.196)"/>
                    <path stroke="#D1A448" stroke-width="1.875" d="M72.615 102.447s-.982-1.228-.767-2.627c0 0 .099-1.188.892-2.132 0 0 .76 1.382.671 2.299 0 0 .076.869-.796 2.46zM63.63 94.669s.98 5.601 3.749 8.384M63.474 93.673s-.126-.725-.13-1.33M63.599 94.277L63.598 94.156" transform="translate(-1081 -1518) translate(1083 1519) translate(8.446 11.196)"/>
                    <path stroke="#44E7D9" stroke-width="1.875" d="M75.088 89.602s-1.265-.08-.97-.518c.294-.438-.003-.436-.599-.432-.595.003-1.561.184-.816.354 0 0 .633.203.451.639M63.709 88.674s3.77-1.886 6.97-1.82M71.276 86.85L72.652 86.841M73.108 86.838s5.558-.047 8.232 1.643" transform="translate(-1081 -1518) translate(1083 1519) translate(8.446 11.196)"/>
                    <path stroke="#44E7D9" stroke-width="1.875" d="M69.56 89.628s.278-.559-.688-.378c-.967.181-1.01-.735.331-.57 1.34.166 2.828.069 2.602-.454-.227-.522-1.637.011-1.566-.426.072-.437 1.263-.358 1.933-.362.67-.005 1.634-.448 2.604-.017.97.43-1.04.356-.367.788.673.432 2.007-.362 2.381-.103.374.26-.516.615-.664.878-.147.263.763.383.763.383" transform="translate(-1081 -1518) translate(1083 1519) translate(8.446 11.196)"/>
                    <path stroke="#D1A448" stroke-width="1.875" d="M110.96 87.68c.606 10.351-3.392 18.159-9.888 18.392-6.42.231-10.656-7.627-10.131-18.259M99.022 105.762L99.06 111.589M102.998 105.735L103.037 111.563M101.142 112.136c-1.21.007-1.815-.11-2.301-.47 0 0-.601.61.008 1.21 0 0 .728.358 2.059.35M99.095 113.464l.034 5.08s.487.602 2.06.592c1.572-.01 1.931-.618 1.931-.618l-.034-5.08M100.014 106.2L100.052 111.885M100.062 113.458L100.098 118.78M101.468 106.433L101.502 111.634M101.516 113.811L101.532 116.109M101.536 116.714L101.549 118.771M102.677 106.425L102.707 110.9M102.726 113.803L102.757 118.521" transform="translate(-1081 -1518) translate(1083 1519) translate(8.446 11.196)"/>
                    <path stroke="#D1A448" stroke-width="1.875" d="M100.91 112.137c1.21-.008 1.813-.133 2.295-.5 0 0 .609.602.008 1.21 0 0-.724.368-2.054.377M110.9 87.74c.007 1.136-4.427 2.087-9.905 2.123-5.478.036-9.925-.855-9.933-1.99-.007-1.137 4.427-2.087 9.906-2.123 5.478-.036 9.925.855 9.932 1.99zM98.797 117.668c-1.296.126-4.08.469-5.63 1.175 0 0-1.873 1.114 2.263 1.895M103.277 117.571c1.295.126 4.08.465 5.63 1.17 0 0 1.872 1.113-2.263 1.897M96.176 120.764s4.843.693 10.048-.067" transform="translate(-1081 -1518) translate(1083 1519) translate(8.446 11.196)"/>
                    <path stroke="#D1A448" stroke-width="1.875" d="M92.742 119.154s-.792.428-.415 1.15c.377.725 3.36 1.551 7.205 1.526M102.561 121.813c3.846-.025 6.817-.892 7.185-1.62.367-.728-.43-1.146-.43-1.146M99.904 121.828s1.401.041 2.357-.016M110.848 89.542c.007 1.135-4.427 2.086-9.905 2.122-5.479.036-9.925-.855-9.933-1.99M101.006 102.485s-.195-1.56.72-2.64c0 0 .706-.96 1.876-1.35 0 0-.075 1.575-.63 2.31 0 0-.39.78-1.966 1.68z" transform="translate(-1081 -1518) translate(1083 1519) translate(8.446 11.196)"/>
                    <path stroke="#D1A448" stroke-width="1.875" d="M101.096 102.463s.174-1.563-.756-2.63c0 0-.718-.952-1.893-1.326 0 0 .096 1.574.66 2.302 0 0 .402.775 1.99 1.654zM101.079 102.534s.595-1.456 1.922-1.948c0 0 1.086-.491 2.297-.257 0 0-.838 1.336-1.682 1.705 0 0-.723.488-2.537.5z" transform="translate(-1081 -1518) translate(1083 1519) translate(8.446 11.196)"/>
                    <path stroke="#D1A448" stroke-width="1.875" d="M101.077 102.534s-.614-1.447-1.948-1.922c0 0-1.092-.477-2.3-.227 0 0 .856 1.325 1.705 1.682 0 0 .73.48 2.543.467z" transform="translate(-1081 -1518) translate(1083 1519) translate(8.446 11.196)"/>
                    <path stroke="#D1A448" stroke-width="1.875" d="M101.089 102.447s-.983-1.228-.767-2.627c0 0 .098-1.188.891-2.132 0 0 .76 1.382.672 2.299 0 0 .075.869-.796 2.46zM92.103 94.669s.981 5.601 3.75 8.384M91.947 93.673s-.125-.725-.13-1.33M92.072 94.277L92.072 94.156" transform="translate(-1081 -1518) translate(1083 1519) translate(8.446 11.196)"/>
                    <path stroke="#44E7D9" stroke-width="1.875" d="M103.562 89.602s-1.265-.08-.97-.518c.294-.438-.003-.436-.599-.432-.595.003-1.562.184-.816.354 0 0 .633.203.45.639M92.183 88.674s3.77-1.886 6.97-1.82M99.749 86.85L101.126 86.841M101.581 86.838s5.558-.047 8.233 1.643" transform="translate(-1081 -1518) translate(1083 1519) translate(8.446 11.196)"/>
                    <path stroke="#44E7D9" stroke-width="1.875" d="M98.033 89.628s.279-.559-.687-.378c-.967.181-1.01-.735.33-.57 1.342.166 2.83.069 2.602-.454-.226-.522-1.636.011-1.565-.426.071-.437 1.263-.358 1.932-.362.67-.005 1.635-.448 2.605-.017.97.43-1.04.356-.367.788.673.432 2.008-.362 2.381-.103.374.26-.517.615-.664.878-.147.263.763.383.763.383" transform="translate(-1081 -1518) translate(1083 1519) translate(8.446 11.196)"/>
                    <path stroke="#D1A448" stroke-width="1.875" d="M140.65 87.68c.606 10.351-3.392 18.159-9.888 18.392-6.42.231-10.656-7.627-10.131-18.259M128.712 105.762L128.75 111.589M132.688 105.735L132.727 111.563M130.832 112.136c-1.21.007-1.815-.11-2.301-.47 0 0-.601.61.008 1.21 0 0 .728.358 2.059.35M128.785 113.464l.034 5.08s.487.602 2.06.592c1.572-.01 1.931-.618 1.931-.618l-.034-5.08M129.704 106.2L129.742 111.885M129.753 113.458L129.788 118.78M131.158 106.433L131.192 111.634M131.207 113.811L131.222 116.109M131.226 116.714L131.239 118.771M132.367 106.425L132.397 110.9M132.416 113.803L132.447 118.521" transform="translate(-1081 -1518) translate(1083 1519) translate(8.446 11.196)"/>
                    <path stroke="#D1A448" stroke-width="1.875" d="M130.6 112.137c1.21-.008 1.813-.133 2.295-.5 0 0 .609.602.007 1.21 0 0-.722.368-2.053.377M140.59 87.74c.008 1.136-4.427 2.087-9.905 2.123-5.478.036-9.925-.855-9.933-1.99-.007-1.137 4.428-2.087 9.906-2.123 5.478-.036 9.925.855 9.932 1.99zM128.487 117.668c-1.296.126-4.08.469-5.63 1.175 0 0-1.872 1.114 2.263 1.895M132.967 117.571c1.295.126 4.08.465 5.63 1.17 0 0 1.872 1.113-2.263 1.897M125.866 120.764s4.843.693 10.048-.067" transform="translate(-1081 -1518) translate(1083 1519) translate(8.446 11.196)"/>
                    <path stroke="#D1A448" stroke-width="1.875" d="M122.432 119.154s-.792.428-.415 1.15c.377.725 3.36 1.551 7.206 1.526M132.251 121.813c3.846-.025 6.818-.892 7.185-1.62.367-.728-.43-1.146-.43-1.146M129.595 121.828s1.4.041 2.357-.016M140.538 89.542c.007 1.135-4.427 2.086-9.905 2.122-5.478.036-9.925-.855-9.933-1.99M130.696 102.485s-.195-1.56.72-2.64c0 0 .706-.96 1.876-1.35 0 0-.075 1.575-.63 2.31 0 0-.39.78-1.966 1.68z" transform="translate(-1081 -1518) translate(1083 1519) translate(8.446 11.196)"/>
                    <path stroke="#D1A448" stroke-width="1.875" d="M130.786 102.463s.174-1.563-.756-2.63c0 0-.717-.952-1.893-1.326 0 0 .096 1.574.661 2.302 0 0 .4.775 1.988 1.654zM130.769 102.534s.595-1.456 1.922-1.948c0 0 1.086-.491 2.297-.257 0 0-.838 1.336-1.682 1.705 0 0-.723.488-2.537.5z" transform="translate(-1081 -1518) translate(1083 1519) translate(8.446 11.196)"/>
                    <path stroke="#D1A448" stroke-width="1.875" d="M130.767 102.534s-.614-1.447-1.948-1.922c0 0-1.091-.477-2.3-.227 0 0 .856 1.325 1.705 1.682 0 0 .73.48 2.543.467z" transform="translate(-1081 -1518) translate(1083 1519) translate(8.446 11.196)"/>
                    <path stroke="#D1A448" stroke-width="1.875" d="M130.779 102.447s-.982-1.228-.767-2.627c0 0 .098-1.188.892-2.132 0 0 .76 1.382.67 2.299 0 0 .077.869-.795 2.46zM121.793 94.669s.981 5.601 3.75 8.384M121.638 93.673s-.126-.725-.13-1.33M121.763 94.277L121.762 94.156" transform="translate(-1081 -1518) translate(1083 1519) translate(8.446 11.196)"/>
                    <path stroke="#44E7D9" stroke-width="1.875" d="M133.252 89.602s-1.265-.08-.97-.518c.294-.438-.004-.436-.599-.432-.595.003-1.562.184-.816.354 0 0 .633.203.45.639M121.873 88.674s3.77-1.886 6.97-1.82M129.439 86.85L130.815 86.841M131.272 86.838s5.558-.047 8.232 1.643" transform="translate(-1081 -1518) translate(1083 1519) translate(8.446 11.196)"/>
                    <path stroke="#44E7D9" stroke-width="1.875" d="M127.723 89.628s.279-.559-.687-.378c-.967.181-1.01-.735.33-.57 1.342.166 2.83.069 2.603-.454-.227-.522-1.638.011-1.566-.426.072-.437 1.263-.358 1.932-.362.67-.005 1.635-.448 2.605-.017.97.43-1.04.356-.367.788.673.432 2.007-.362 2.381-.103.374.26-.517.615-.664.878-.147.263.762.383.762.383" transform="translate(-1081 -1518) translate(1083 1519) translate(8.446 11.196)"/>
                    <path stroke="#FFF" stroke-linecap="round" stroke-linejoin="round" stroke-width="1.875" d="M92.319 53.583s-.314.471.47.942c0 0 0 .628-.47 1.256l-.435.519c-2.257 2.62-5.6 3.964-9.329 3.964-6.799 0-12.31-5.51-12.31-12.31 0-6.798 5.511-12.31 12.31-12.31 5.099 0 9.16 2.944 11.028 7.362 0 0-.48 4.299-.793 4.927-.314.628-.785 1.412-1.413 2.04-.628.628.47 1.256 1.256 1.57 0 0 .314.627-.157.942-.471.314-.157.627 0 .784.157.157.628-.157.628-.157s.628.471 2.04.471H92.32zm-5.18-22.602c-9.362 0-16.952 7.59-16.952 16.952 0 9.362 7.59 16.952 16.952 16.952 9.362 0 16.952-7.59 16.952-16.952 0-9.363-7.59-16.952-16.952-16.952z" transform="translate(-1081 -1518) translate(1083 1519) translate(8.446 11.196)"/>
                    <path stroke="#FFF" stroke-linecap="round" stroke-linejoin="round" stroke-width="1.875" d="M94.516 45.578s1.413.471 3.14 0c0 0-1.57.785-3.14 0zM94.83 46.677s.157.157.785.314M94.516 44.95s.158-.784.628-.941M95.615 43.852s1.884.157 2.512 1.255M93.418 51.386s-.314-.314-.942-.314c-.628 0 .314-.785 1.256.47 0 0 .784.472.784-.313 0-.785-.314-.785-.314-.785" transform="translate(-1081 -1518) translate(1083 1519) translate(8.446 11.196)"/>
                    <path stroke="#FFF" stroke-linecap="round" stroke-linejoin="round" stroke-width="1.875" d="M94.516 45.578s0 .314-.627.314c0 0-.102.192 1.047-.14 0 0 .051.61-.577.61 0 0 .839-.013 1.126-.477 0 0 .287.478-.027.635 0 0 .628-.245.628-.594M94.516 43.067s1.57-.471 2.355-.628c.785-.157 1.727.628 1.727.628s-.942-1.099-2.041-1.099-2.511.628-2.511.628M94.36 43.067s-.314 0-.472-.471M96.557 39.143s-.157-.628.628-.628.628.785.314.942c-.314.157-.942.313-.942 0M88.509 31.036s-.271.73.357.886c.628.158.942.315.942.315M90.122 32.394s.784.313.941-.158c.157-.47.274-.731.274-.731M89.877 37.866s.679-1.013 1.286-.425c.607.587.284.964.456 1.373.172.41.032.632-.205.65M98.598 47.462s-.785.314-.942.784c-.157.472 1.413.628 1.726.315.314-.315.785-.471.157-.942M99.382 47.462s-.314-.157-.47 0M98.44 55.78s-.627 0-.627.629c0 .628.941.157.941-.314s-.313-.314-.313-.314zM91.125 59.271s-.471-.941.627-1.098c1.099-.157.942 1.098.471 1.098-.47 0-.314.628-1.098 0zM87.477 63.168s0 1.1-.942.942c-.941-.157-.941-.314-.941-.314s-.315-.628.313-.941c.628-.314 1.256 0 1.256 0M78.192 59.705s-.314.628.471.785c.785.157 1.467.347 1.519-.454M81.018 61.274s-.471 0-.314.315c.157.313.628 0 .314-.315zM81.018 34.748s-.157-.471.47-.314c.628.157.628.314.471.47-.157.158-.627 0-.941-.156zM103.777 44.95L102.835 44.95M103.929 45.578L102.207 45.578M103.929 46.213L102.836 46.206M104.091 47.126L102.365 47.126M104.091 47.933L103.306 47.933M104.091 48.724L102.992 48.718M104.026 49.422L102.365 49.422M103.906 50.444L103.15 50.444M103.777 51.196L102.208 51.196M103.615 51.936L102.835 51.936M103.382 52.798L102.207 52.798M103.149 53.517L101.737 53.517M102.835 54.346L102.051 54.346M102.522 55.066L100.638 55.066" transform="translate(-1081 -1518) translate(1083 1519) translate(8.446 11.196)"/>
                    <path fill="#FFF" d="M55.955 15.764L55.789 15.01 55.057 14.729 55.811 14.635 56.02 13.831 56.187 14.657 56.919 14.795 56.164 14.961zM41.33 63.113L40.9 61.158 39.003 60.434 40.958 60.187 41.499 58.107 41.929 60.245 43.826 60.603 41.871 61.033zM61.192 77.009L60.914 75.747 59.69 75.279 60.951 75.12 61.301 73.777 61.578 75.157 62.803 75.388 61.541 75.666zM133.218 64.42L133.052 63.665 132.32 63.385 133.074 63.29 133.283 62.487 133.449 63.313 134.182 63.451 133.427 63.616zM105.401 65.163L105.192 64.214 104.272 63.863 105.22 63.744 105.483 62.734 105.691 63.772 106.612 63.945 105.663 64.154zM105.229 19.91L105.008 18.904 104.032 18.531 105.038 18.405 105.316 17.334 105.537 18.435 106.513 18.618 105.508 18.84zM129.304 38.265L128.969 36.743 127.493 36.179 129.015 35.987 129.437 34.367 129.771 36.032 131.248 36.311 129.726 36.646zM115.243 70.025c.084.2-.01.429-.21.513-.2.084-.43-.01-.513-.21-.084-.2.01-.429.21-.513.2-.084.429.01.513.21M113.114 31.814c-.061-.147.007-.315.154-.376.146-.062.314.007.375.153.062.146-.007.314-.153.376-.146.061-.314-.007-.376-.153M62.076 39.311c-.061-.146.008-.315.153-.376.147-.061.315.007.377.154.061.145-.008.314-.154.375-.146.062-.314-.007-.376-.153M114.074 48.585c-.061-.147.008-.315.154-.376.146-.062.314.007.376.153.061.146-.008.314-.154.376s-.314-.007-.376-.153M88.319 25.558c0 .16-.13.287-.288.287-.158 0-.286-.128-.286-.287 0-.158.128-.287.286-.287.159 0 .288.129.288.287M59.425 44.68L59.164 43.495 58.014 43.055 59.2 42.906 59.528 41.645 59.788 42.941 60.939 43.158 59.754 43.419zM90.054 75.868L89.926 75.286 89.361 75.071 89.943 74.997 90.104 74.378 90.232 75.015 90.797 75.121 90.215 75.249zM54.915 65.198c-.072-.17.008-.365.178-.437.17-.071.366.008.437.178.072.17-.008.366-.178.438-.17.071-.366-.008-.437-.179M40.23 36.205c-.062-.147.006-.315.153-.376.146-.062.314.007.375.153.062.146-.007.314-.153.376s-.314-.007-.376-.153" transform="translate(-1081 -1518) translate(1083 1519) translate(8.446 11.196)"/>
                    <path stroke="#FFF" stroke-linecap="round" stroke-linejoin="round" stroke-width="1.25" d="M30.04 48.584c-.06-.146.008-.315.154-.376s.315.007.376.153-.007.315-.154.376c-.146.062-.314-.007-.375-.153z" transform="translate(-1081 -1518) translate(1083 1519) translate(8.446 11.196)"/>
                    <path fill="#FFF" d="M127.803 60.639c-.061-.147.007-.315.153-.376.147-.062.315.007.376.153.062.146-.007.315-.153.376-.146.062-.314-.007-.376-.153M71.391 24.481L70.953 22.49 69.022 21.752 71.012 21.501 71.564 19.383 72.001 21.56 73.933 21.925 71.942 22.362z" transform="translate(-1081 -1518) translate(1083 1519) translate(8.446 11.196)"/>
                </g>
            </g>
        </g>
    </g>
</svg>
