<svg xmlns="http://www.w3.org/2000/svg" width="191" height="270" viewBox="0 0 191 270"><title>Туз Мечей</title>
    <g fill="none" fill-rule="evenodd">
        <g>
            <g>
                <path fill="#1a1d24" stroke="#FFF" stroke-linecap="round" stroke-linejoin="round" stroke-width="2.5" d="M177.795 265.914H9.621c-5.22 0-9.452-4.232-9.452-9.453V9.69c0-5.22 4.232-9.453 9.452-9.453h168.174c5.22 0 9.452 4.233 9.452 9.453V256.46c0 5.22-4.232 9.453-9.452 9.453z" transform="translate(-177 -253) translate(179 255)"/>
                <path fill="#D1A448" fill-rule="nonzero" d="M65.751 255.97l.731-3.166h3.086l.73 3.167h.845l-2.533-10.816h-1.17l-2.533 10.816h.844zm3.654-3.897h-2.76l1.38-5.992 1.38 5.992zm5.863 3.979c.703 0 1.326-.087 1.867-.26v-.763c-.617.184-1.261.276-1.932.276s-1.15-.122-1.437-.365c-.287-.244-.43-.604-.43-1.08v-6.594c0-.476.143-.836.43-1.08.286-.243.76-.365 1.42-.365.66 0 1.3.092 1.917.276v-.763c-.607-.173-1.218-.26-1.835-.26-1.83 0-2.745.73-2.745 2.192v6.594c0 1.461.915 2.192 2.745 2.192zm8.217-.081v-.73h-3.67v-4.353h3.199v-.73h-3.2v-4.272h3.67v-.73h-4.481v10.815h4.482zm7.373.162c.855 0 1.499-.23 1.932-.69.433-.46.65-1.058.65-1.794v-6.171c0-.737-.217-1.335-.65-1.795-.433-.46-1.077-.69-1.932-.69-.856 0-1.5.23-1.933.69-.433.46-.65 1.058-.65 1.795v6.17c0 .737.217 1.335.65 1.795.433.46 1.077.69 1.933.69zm0-.73c-1.18 0-1.77-.585-1.77-1.754v-6.171c0-1.17.59-1.754 1.77-1.754 1.18 0 1.77.584 1.77 1.754v6.17c0 1.17-.59 1.754-1.77 1.754zm5.667.568v-4.92h3.378v-.731h-3.378v-4.434h3.524v-.73h-4.336v10.815h.812zm8.104 0l.73-3.167h3.086l.73 3.167h.845l-2.533-10.816h-1.17l-2.533 10.816h.845zm3.654-3.898h-2.761l1.38-5.992 1.38 5.992zm4.092 3.898v-10.816h-.812v10.816h.812zm3.248 0v-4.466h1.575c.173 0 .303-.005.39-.016l1.607 4.482h.894l-1.706-4.66c.932-.347 1.397-1.094 1.397-2.242v-1.478c0-.736-.216-1.326-.65-1.77-.433-.444-1.077-.666-1.932-.666h-2.387v10.816h.812zm1.575-5.23h-1.575v-4.855h1.575c1.18 0 1.77.569 1.77 1.705v1.478c0 1.115-.59 1.673-1.77 1.673z" transform="translate(-177 -253) translate(179 255)"/>
                <g>
                    <path stroke="#FFF" stroke-linecap="round" stroke-linejoin="round" stroke-width="1.875" d="M100.256 3.874L164.283 3.874 164.283 227.03M16.179 3.874L68.416 3.874M154.214 239.996L121.479 239.996M5.786 14.826L5.786 239.996 46.696 239.996" transform="translate(-177 -253) translate(179 255) translate(8.446 11.047)"/>
                    <path stroke="#44E7D9" stroke-linecap="round" stroke-linejoin="round" stroke-width="1.875" d="M5.513 0.025L8.136 4.567 10.758 9.11 5.513 9.11 0.269 9.11 2.891 4.567z" transform="translate(-177 -253) translate(179 255) translate(8.446 11.047)"/>
                    <g>
                        <path fill="#000" d="M0.277 0.193L10.75 0.193" transform="translate(-177 -253) translate(179 255) translate(8.446 11.047) translate(0 3.716)"/>
                        <path stroke="#44E7D9" stroke-linecap="round" stroke-linejoin="round" stroke-width="1.875" d="M0.277 0.193L10.75 0.193" transform="translate(-177 -253) translate(179 255) translate(8.446 11.047) translate(0 3.716)"/>
                    </g>
                    <path stroke="#44E7D9" stroke-linecap="round" stroke-linejoin="round" stroke-width="1.875" d="M164.448 244.535L161.825 239.992 159.203 235.45 164.448 235.45 169.693 235.45 167.07 239.992z" transform="translate(-177 -253) translate(179 255) translate(8.446 11.047)"/>
                    <g>
                        <path fill="#000" d="M10.563 0.448L0.09 0.448" transform="translate(-177 -253) translate(179 255) translate(8.446 11.047) translate(159.122 240.203)"/>
                        <path stroke="#44E7D9" stroke-linecap="round" stroke-linejoin="round" stroke-width="1.875" d="M10.563 0.448L0.09 0.448" transform="translate(-177 -253) translate(179 255) translate(8.446 11.047) translate(159.122 240.203)"/>
                    </g>
                </g>
                <path fill="#D1A448" fill-rule="nonzero" d="M93.163 20.793L93.163 9.543 92.318 9.543 92.318 20.793z" transform="translate(-177 -253) translate(179 255)"/>
                <g>
                    <path stroke="#FBAE17" stroke-linecap="round" stroke-linejoin="round" stroke-width="1.875" d="M46.781 160.89L46.771 155.443 55.061 155.427 55.071 161.166M55.087 169.338L55.117 184.594 46.827 184.611 46.824 182.881M56.505 188.122L56.502 186.434 56.499 184.745 45.753 184.766 45.759 188.143z" transform="translate(-177 -253) translate(179 255) translate(42.905 40.101)"/>
                    <g>
                        <path fill="#000" d="M0.148 0.49L10.894 0.469" transform="translate(-177 -253) translate(179 255) translate(42.905 40.101) translate(45.608 185.81)"/>
                        <path stroke="#FBAE17" stroke-linecap="round" stroke-linejoin="round" stroke-width="1.875" d="M0.148 0.49L10.894 0.469" transform="translate(-177 -253) translate(179 255) translate(42.905 40.101) translate(45.608 185.81)"/>
                    </g>
                    <path stroke="#FBAE17" stroke-linecap="round" stroke-linejoin="round" stroke-width="1.875" d="M54.233 188.127s-.332 2.61-3.095 2.923c0 0-2.65.005-3.173-2.91M56.839 150.358L54.665 30.009 50.947 12.823 46.375 30.025 44.391 150.382" transform="translate(-177 -253) translate(179 255) translate(42.905 40.101)"/>
                    <g>
                        <path fill="#000" d="M0.645 46.315L0.172 0.263" transform="translate(-177 -253) translate(179 255) translate(42.905 40.101) translate(50.338 104.054)"/>
                        <path stroke="#FBAE17" stroke-linecap="round" stroke-linejoin="round" stroke-width="1.875" d="M0.645 46.315L0.172 0.263" transform="translate(-177 -253) translate(179 255) translate(42.905 40.101) translate(50.338 104.054)"/>
                    </g>
                    <g>
                        <path fill="#000" d="M0.507 2.782L0.502 0.325" transform="translate(-177 -253) translate(179 255) translate(42.905 40.101) translate(50 100)"/>
                        <path stroke="#FBAE17" stroke-linecap="round" stroke-linejoin="round" stroke-width="1.875" d="M0.507 2.782L0.502 0.325" transform="translate(-177 -253) translate(179 255) translate(42.905 40.101) translate(50 100)"/>
                    </g>
                    <g>
                        <path fill="#000" d="M0.5 0.111L0.501 0.725" transform="translate(-177 -253) translate(179 255) translate(42.905 40.101) translate(50 98.986)"/>
                        <path stroke="#FBAE17" stroke-linecap="round" stroke-linejoin="round" stroke-width="1.875" d="M0.5 0.111L0.501 0.725" transform="translate(-177 -253) translate(179 255) translate(42.905 40.101) translate(50 98.986)"/>
                    </g>
                    <g>
                        <path fill="#000" d="M0.159 85.062L0.609 0.323" transform="translate(-177 -253) translate(179 255) translate(42.905 40.101) translate(50.338 12.5)"/>
                        <path stroke="#FBAE17" stroke-linecap="round" stroke-linejoin="round" stroke-width="1.875" d="M0.159 85.062L0.609 0.323" transform="translate(-177 -253) translate(179 255) translate(42.905 40.101) translate(50.338 12.5)"/>
                    </g>
                    <g>
                        <path fill="#000" d="M2.062 2.647L0.215 0.194" transform="translate(-177 -253) translate(179 255) translate(42.905 40.101) translate(47.297 141.892)"/>
                        <path stroke="#FBAE17" stroke-linecap="round" stroke-linejoin="round" stroke-width="1.875" d="M2.062 2.647L0.215 0.194" transform="translate(-177 -253) translate(179 255) translate(42.905 40.101) translate(47.297 141.892)"/>
                    </g>
                    <g>
                        <path fill="#000" d="M1.818 2.219L0.279 0.072" transform="translate(-177 -253) translate(179 255) translate(42.905 40.101) translate(46.622 143.243)"/>
                        <path stroke="#FBAE17" stroke-linecap="round" stroke-linejoin="round" stroke-width="1.875" d="M1.818 2.219L0.279 0.072" transform="translate(-177 -253) translate(179 255) translate(42.905 40.101) translate(46.622 143.243)"/>
                    </g>
                    <g>
                        <path fill="#000" d="M1.045 1.481L0.122 0.254" transform="translate(-177 -253) translate(179 255) translate(42.905 40.101) translate(48.31 141.216)"/>
                        <path stroke="#FBAE17" stroke-linecap="round" stroke-linejoin="round" stroke-width="1.875" d="M1.045 1.481L0.122 0.254" transform="translate(-177 -253) translate(179 255) translate(42.905 40.101) translate(48.31 141.216)"/>
                    </g>
                    <path stroke="#FBAE17" stroke-linecap="round" stroke-linejoin="round" stroke-width="1.875" d="M66.881 155.558L34.951 155.62 34.941 150.4 66.871 150.338z" transform="translate(-177 -253) translate(179 255) translate(42.905 40.101)"/>
                    <g>
                        <path fill="#000" d="M32.078 0.43L0.148 0.492" transform="translate(-177 -253) translate(179 255) translate(42.905 40.101) translate(34.797 152.365)"/>
                        <path stroke="#FBAE17" stroke-linecap="round" stroke-linejoin="round" stroke-width="1.875" d="M32.078 0.43L0.148 0.492" transform="translate(-177 -253) translate(179 255) translate(42.905 40.101) translate(34.797 152.365)"/>
                    </g>
                    <g>
                        <path fill="#000" d="M2.927 0.501L0.21 0.496" transform="translate(-177 -253) translate(179 255) translate(42.905 40.101) translate(52.027 181.419)"/>
                        <path stroke="#FBAE17" stroke-linecap="round" stroke-linejoin="round" stroke-width="1.875" d="M2.927 0.501L0.21 0.496" transform="translate(-177 -253) translate(179 255) translate(42.905 40.101) translate(52.027 181.419)"/>
                    </g>
                    <path stroke="#FBAE17" stroke-linecap="round" stroke-linejoin="round" stroke-width="1.875" d="M55.025 178.554L52.867 178.551" transform="translate(-177 -253) translate(179 255) translate(42.905 40.101)"/>
                    <g>
                        <path fill="#000" d="M1.197 0.362L0.15 0.36" transform="translate(-177 -253) translate(179 255) translate(42.905 40.101) translate(53.716 175)"/>
                        <path stroke="#FBAE17" stroke-linecap="round" stroke-linejoin="round" stroke-width="1.875" d="M1.197 0.362L0.15 0.36" transform="translate(-177 -253) translate(179 255) translate(42.905 40.101) translate(53.716 175)"/>
                    </g>
                    <g>
                        <path fill="#000" d="M3.294 0.375L0.21 0.37" transform="translate(-177 -253) translate(179 255) translate(42.905 40.101) translate(51.69 171.622)"/>
                        <path stroke="#FBAE17" stroke-linecap="round" stroke-linejoin="round" stroke-width="1.875" d="M3.294 0.375L0.21 0.37" transform="translate(-177 -253) translate(179 255) translate(42.905 40.101) translate(51.69 171.622)"/>
                    </g>
                    <g>
                        <path fill="#000" d="M4.937 0.297L0.221 0.289" transform="translate(-177 -253) translate(179 255) translate(42.905 40.101) translate(48.986 167.905)"/>
                        <path stroke="#FBAE17" stroke-linecap="round" stroke-linejoin="round" stroke-width="1.875" d="M4.937 0.297L0.221 0.289" transform="translate(-177 -253) translate(179 255) translate(42.905 40.101) translate(48.986 167.905)"/>
                    </g>
                    <g>
                        <path fill="#000" d="M1.507 0.486L0.045 0.484" transform="translate(-177 -253) translate(179 255) translate(42.905 40.101) translate(46.622 161.149)"/>
                        <path stroke="#FBAE17" stroke-linecap="round" stroke-linejoin="round" stroke-width="1.875" d="M1.507 0.486L0.045 0.484" transform="translate(-177 -253) translate(179 255) translate(42.905 40.101) translate(46.622 161.149)"/>
                    </g>
                    <g>
                        <path fill="#000" d="M8.248 0.51L0.116 0.497" transform="translate(-177 -253) translate(179 255) translate(42.905 40.101) translate(46.622 157.77)"/>
                        <path stroke="#FBAE17" stroke-linecap="round" stroke-linejoin="round" stroke-width="1.875" d="M8.248 0.51L0.116 0.497" transform="translate(-177 -253) translate(179 255) translate(42.905 40.101) translate(46.622 157.77)"/>
                    </g>
                    <path stroke="#FFF" stroke-linecap="round" stroke-linejoin="round" stroke-width="1.875" d="M42.637 155.884s-2.081.611-2.704 1.489c-.622.877-.904 3.753-.65 4.482.251.728 4.01 3.174 4.97 3.525.96.35 2.565.72 3.022.385 0 0 .832-.399.599-1.773" transform="translate(-177 -253) translate(179 255) translate(42.905 40.101)"/>
                    <path stroke="#FFF" stroke-linecap="round" stroke-linejoin="round" stroke-width="1.875" d="M42.94 159.175s1.358 1.183 2.778 1.97c1.42.787 2.174 2.2 2.092 2.472M43.578 162.923s-.247.814.484 1.332c0 0 1.462 1.037 2.775 1.199 0 0 .664-.627.723-1.794l-.856-.763s-1.652-1.389-3.043-.37M39.55 161.166s.056-1.938.867-2.462M40.098 162.873s-1.978.465-2.182 1.528c-.205 1.063-.032 2.834.616 3.623.649.79 3.07 2.178 3.217 2.281M42.187 170.616s1.962.952 2.776 1.2c.813.247 4.737 2.15 5.922 1.563 0 0 .79-.65.599-1.773M44.734 165.94s1.462 1.037 2.005 1.202c.542.165 3.966 2.154 4.365 2.986.398.831.295.978.295.978" transform="translate(-177 -253) translate(179 255) translate(42.905 40.101)"/>
                    <path stroke="#FFF" stroke-linecap="round" stroke-linejoin="round" stroke-width="1.875" d="M40.08 169.561s-.875.149-1.08 1.212c-.205 1.063-.701 1.92-.407 2.898.295.978 1.797 1.494 2.528 2.012.731.519 3.653 1.821 4.174 1.861.52.04 2.647.45 3.565.55.917.101 2.794.553 3.75.134 0 0 .958-.42 1.08-1.213.122-.792-.13-1.52-.298-1.749-.382-.521-2.275-1.284-2.921-1.303-.646-.018-2.74-.868-2.74-.868" transform="translate(-177 -253) translate(179 255) translate(42.905 40.101)"/>
                    <path stroke="#FFF" stroke-linecap="round" stroke-linejoin="round" stroke-width="1.875" d="M41.477 176.265s-.645-.018-.79.649c-.143.667-.201 1.834.009 2.313.21.478 1.653 2.16 2.717 2.366 1.063.204 1.67.744 3.21.739 1.543-.006 5.57-.554 5.895-.875.481-.476.794-.99.69-1.513-.135-.671-.784-1.3-.784-1.3-.438-.31-3.104-.114-4.147-.193-1.041-.08-1.709-.224-1.709-.224s-.278-.041-1.057-.507M40 170.603s-.561.481-.58 1.127c-.019.646-.101.917-.037 1.292M41.398 177.307s-.373.835-.288 1.335M46.284 174.29s-.79.649-.745 1.67M45.327 174.71s-.665.628-.348 1.73M46.845 173.81s.255 1.499-.367 2.376M44.99 167.44s-.894.795-.952 1.962M45.138 168.314s-.122.793-.93 2.087M43.759 167.006s-.83 1.17-.617 2.42M38.708 164.523s-.144.668-.16 2.085M45.917 164.582c-1.188-.183-1.837-.973-1.837-.973M46.239 179.312s.17 1-.078 1.813M45.739 179.397s-.351.96-.035 2.063M45.279 178.96s-.436.46-.309 1.21M56.497 169.338s-.27-.082-2.254-1.159c-1.983-1.077-4.368-3.756-5.226-5.024-.859-1.269-.407-3.145-.407-3.145s.268-.689.622-.877M55.559 169.112s.784 3.852 1.999 5.702M60.328 180.514c-1.149-.705-2.866-3.24-2.866-3.24s-1.571-2.433-2.414-5.118M59.702 180.015c-1.417-.621-2.341-1.824-2.341-1.824M43.859 181.935s1.47 1.744 3.815 2.79M63.877 194.975c-.934-1.75-3.328-4.447-3.328-4.447-1.46-.266-2.169-.66-2.169-.66s-3.145-1.869-3.107-1.744" transform="translate(-177 -253) translate(179 255) translate(42.905 40.101)"/>
                    <path stroke="#FFF" stroke-linecap="round" stroke-linejoin="round" stroke-width="1.875" d="M54.311 161.781s-.643.787-1.538.746c-.894-.041-3.571-1.423-3.504-2.982 0 0 .06-.3.351-.543l4.691 2.78zM60.083 163.971c-1.73-.348-5.257-2.19-5.257-2.19M60.5 164.157s.668.144 1.466 1.808c.797 1.664 1.7 3.953 3.248 5.49 1.547 1.536 3.198 2.926 4.184 4.944.986 2.018 2.48 6.263 2.48 6.263s2.961 5.158 4.035 5.71M59.876 164.263s-.957.42-.997.941M60.565 164.532s-.726 1.023-1.287 1.505M60.982 164.718s-.29.563-.497.856M51.058 179.396s.988-.192 1.348-.105c.158.178.952.729.276 1.624 0 0-2.331.654-2.876-.282-.545-.935.954-1.19.954-1.19M51.59 175.159s1.235.131 1.625.387c.117.297.84 1.334-.3 2.254 0 0-2.991-.045-3.272-1.494-.282-1.449 1.58-1.202 1.58-1.202M64.025 189.398s1.436-.63 2.451-2.217c0 0 .394-.71 1.1-1.087M69.427 184.879s1.186-.588 1.058-1.337c-.128-.75.516-1.502.473-1.752M49.163 170.196s-1.797-.542-1.752.933c.045 1.475 2.991 1.998 2.991 1.998 1.272-.725.725-1.865.657-2.177-.344-.314-1.542-.642-1.542-.642l-.354-.112zM49.798 160.193s.524.811 1.38 1.308M48.129 171.534s.21.478.898.747M50.994 180.817s1.146-.067 1.374-.234M44.734 155.884L46.478 156.954" transform="translate(-177 -253) translate(179 255) translate(42.905 40.101)"/>
                    <g>
                        <path fill="#000" d="M0.1 0.366L2.165 0.366" transform="translate(-177 -253) translate(179 255) translate(42.905 40.101) translate(47.973 164.527)"/>
                        <path stroke="#FFF" stroke-linecap="round" stroke-linejoin="round" stroke-width="1.25" d="M0.1 0.366L2.165 0.366" transform="translate(-177 -253) translate(179 255) translate(42.905 40.101) translate(47.973 164.527)"/>
                    </g>
                    <path stroke="#44E7D9" stroke-linecap="round" stroke-linejoin="round" stroke-width="1.875" d="M51.132 12.05s1.866-5.6 9.955-5.911c8.088-.311 10.577 8.088 11.2 13.688.622 5.6-3.112 59.42-.934 67.508 2.178 8.089 8.711 7.778 8.711 7.778M57.825 13.995c-1.713-2.371-4.317-3.235-5.753-3.542" transform="translate(-177 -253) translate(179 255) translate(42.905 40.101)"/>
                    <path stroke="#44E7D9" stroke-linecap="round" stroke-linejoin="round" stroke-width="1.875" d="M53.86 11.004s-.11.667.552 1.478c.662.812 3.326 1.425 4.228 3.08 0 0-.023-2-1-2.92-.977-.918-1.99-1.732-3.78-1.638zM56.507 12.571L57.332 14.238M56.095 12.24L56.696 13.849M62.258 11.224c-.486-.392-.907-.813-.907-.813-1.841-2.024-4.567-2.669-6.179-2.874" transform="translate(-177 -253) translate(179 255) translate(42.905 40.101)"/>
                    <path stroke="#44E7D9" stroke-linecap="round" stroke-linejoin="round" stroke-width="1.875" d="M56.425 7.67s.53-.855 3.014.392c2.483 1.246 2.6 3.186 4.147 3.555 0 0-4.123.036-5.786-1.43-1.663-1.466-1.375-2.517-1.375-2.517zM60.98 11.4L60.109 9.366M59.422 8.886L59.982 11.194M58.769 8.512L60.381 8.641M58.041 8.239L59.474 7.969M61.82 6.218s3.907.911 5.402 4.628c.361.898.703 1.738 1.012 2.487.971 2.356 1.617 3.817 1.5 3.35-.153-.617-.112-1.772-.013-3.35.098-1.578-1.63-4.583-4.093-4.953 0 0 .48.617.555 1.906.075 1.29-.061 2.387 1.015 3.756 1.076 1.368 2.133 1.678 2.575 2.794M67.587 11.655L67.198 14.041M67.342 11.144L66.8 13.458M69.701 13.644L67.96 12.666M64.488 13.857c.931-2.591.332-5.08-.21-6.52" transform="translate(-177 -253) translate(179 255) translate(42.905 40.101)"/>
                    <path stroke="#44E7D9" stroke-linecap="round" stroke-linejoin="round" stroke-width="1.875" d="M64.72 8.84s-.619.289-.918 1.304c-.3 1.016.71 3.59-.157 5.287 0 0 1.657-1.161 1.866-2.5.209-1.34.31-2.65-.792-4.091zM64.924 11.943L64.004 13.584M64.964 11.41L63.965 12.83M69.883 20.868c1.499-2.513 1.26-5.246.972-6.687" transform="translate(-177 -253) translate(179 255) translate(42.905 40.101)"/>
                    <path stroke="#44E7D9" stroke-linecap="round" stroke-linejoin="round" stroke-width="1.875" d="M71.057 16.042s-.654.164-1.137 1.093c-.483.929.01 3.618-1.153 5.102 0 0 1.828-.814 2.284-2.075.457-1.26.802-2.513.006-4.12zM70.669 19.093L69.465 20.512M70.809 18.583L69.57 19.773M67.862 27.671c.436-.446.895-.827.895-.827 2.187-1.644 3.13-4.677 3.483-6.263" transform="translate(-177 -253) translate(179 255) translate(42.905 40.101)"/>
                    <path stroke="#44E7D9" stroke-linecap="round" stroke-linejoin="round" stroke-width="1.875" d="M71.944 22.195s.802.608-.67 2.964c-1.472 2.357-3.414 2.292-3.926 3.798 0 0 .348-4.108 1.962-5.627 1.615-1.52 2.634-1.135 2.634-1.135zM67.807 26.383L69.912 25.705M70.454 25.066L68.105 25.409M70.888 24.45L70.609 26.043M71.227 23.751L71.362 25.202M67.576 32.36c.397-.274.801-.495.801-.495 1.903-.924 3.357-3.568 3.86-4.719" transform="translate(-177 -253) translate(179 255) translate(42.905 40.101)"/>
                    <path stroke="#44E7D9" stroke-linecap="round" stroke-linejoin="round" stroke-width="1.875" d="M71.483 28.81s.518.58-.947 2.15c-1.465 1.57-3.54 2.3-3.54 2.3s.872-3.065 2.321-3.98c1.45-.913 2.166-.47 2.166-.47zM69.928 30.767L68.095 30.679M70.348 30.364L69.901 31.532M70.709 29.884L70.597 31.005M72.078 31.74s.068 4.01-3.173 6.365c-.783.569-1.514 1.105-2.166 1.588-2.048 1.515-3.307 2.497-2.882 2.27.56-.298 1.69-.54 3.244-.829 1.555-.288 4.05-2.696 3.808-5.175 0 0-.482.616-1.714 1.002-1.233.388-2.33.522-3.395 1.9-1.065 1.375-1.107 2.477-2.084 3.177M68.209 38.656L65.8 38.86M68.646 38.294L66.269 38.332M66.796 41.191L67.319 39.265M65.32 36.186c2.739.273 5.007-.914 6.272-1.791" transform="translate(-177 -253) translate(179 255) translate(42.905 40.101)"/>
                    <path stroke="#44E7D9" stroke-linecap="round" stroke-linejoin="round" stroke-width="1.875" d="M70.242 35.19s-.431-.53-1.49-.573c-1.057-.043-3.307 1.563-5.165 1.136 0 0 1.53 1.324 2.88 1.2 1.35-.124 2.645-.345 3.775-1.764zM67.281 36.144L65.466 35.651M67.808 36.053L66.188 35.43M67.878 45.555c2.487-1.541 3.534-4.078 3.942-5.488" transform="translate(-177 -253) translate(179 255) translate(42.905 40.101)"/>
                    <path stroke="#44E7D9" stroke-linecap="round" stroke-linejoin="round" stroke-width="1.875" d="M71.143 41.812s-.657-.157-1.514.446c-.856.602-1.657 3.216-3.372 3.998 0 0 1.997.12 2.983-.79.986-.909 1.87-1.861 1.903-3.654zM69.393 44.341L67.671 45.046M69.752 43.953L68.105 44.439M66.162 51.86c.507-.364 1.025-.659 1.025-.659 2.44-1.237 3.898-4.059 4.524-5.558" transform="translate(-177 -253) translate(179 255) translate(42.905 40.101)"/>
                    <path stroke="#44E7D9" stroke-linecap="round" stroke-linejoin="round" stroke-width="1.875" d="M71.138 47.18s.683.739-1.178 2.802c-1.86 2.063-3.762 1.66-4.529 3.054 0 0 1.06-3.984 2.915-5.199 1.855-1.214 2.792-.657 2.792-.657zM66.332 50.581L68.524 50.281M69.169 49.746L66.796 49.674M69.704 49.216L69.151 50.736M70.16 48.586L70.04 50.04M71.096 51.372s.068 4.01-3.173 6.366c-.782.569-1.514 1.105-2.166 1.587-2.047 1.516-3.307 2.498-2.882 2.271.56-.298 1.69-.54 3.245-.83 1.554-.288 4.049-2.695 3.807-5.175 0 0-.481.616-1.714 1.003-1.233.387-2.33.522-3.395 1.899-1.065 1.376-1.107 2.478-2.083 3.178M67.227 58.288L64.818 58.492M67.664 57.927L65.287 57.965M65.814 60.824L66.338 58.897M64.338 55.82c2.74.271 5.007-.916 6.272-1.792" transform="translate(-177 -253) translate(179 255) translate(42.905 40.101)"/>
                    <path stroke="#44E7D9" stroke-linecap="round" stroke-linejoin="round" stroke-width="1.875" d="M69.26 54.822s-.431-.53-1.49-.572c-1.057-.043-3.307 1.563-5.165 1.136 0 0 1.53 1.324 2.88 1.2 1.35-.124 2.646-.345 3.775-1.764zM66.3 55.776L64.484 55.284M66.827 55.686L65.206 55.063M65.179 71.537c.507-.363 1.025-.658 1.025-.658 2.44-1.237 3.898-4.058 4.523-5.558" transform="translate(-177 -253) translate(179 255) translate(42.905 40.101)"/>
                    <path stroke="#44E7D9" stroke-linecap="round" stroke-linejoin="round" stroke-width="1.875" d="M70.154 66.858s.683.739-1.178 2.801c-1.86 2.064-3.761 1.66-4.528 3.055 0 0 1.06-3.984 2.915-5.199 1.855-1.214 2.791-.657 2.791-.657zM65.349 70.259L67.541 69.959M68.186 69.425L65.812 69.352M68.72 68.894L68.168 70.414M69.177 68.264L69.057 69.717M66.19 65.406c.396-.275.8-.495.8-.495 1.903-.924 3.357-3.569 3.86-4.72" transform="translate(-177 -253) translate(179 255) translate(42.905 40.101)"/>
                    <path stroke="#44E7D9" stroke-linecap="round" stroke-linejoin="round" stroke-width="1.875" d="M70.097 61.855s.518.58-.948 2.15c-1.465 1.57-3.54 2.3-3.54 2.3s.872-3.065 2.321-3.979c1.45-.914 2.167-.471 2.167-.471zM68.541 63.813L66.708 63.725M68.961 63.41L68.514 64.577M69.322 62.929L69.21 64.051M66.444 75.713c2.545-1.443 3.69-3.937 4.152-5.33" transform="translate(-177 -253) translate(179 255) translate(42.905 40.101)"/>
                    <path stroke="#44E7D9" stroke-linecap="round" stroke-linejoin="round" stroke-width="1.875" d="M69.852 72.1s-.65-.183-1.53.386c-.879.57-1.78 3.15-3.525 3.865 0 0 1.991.197 3.012-.674 1.02-.87 1.94-1.787 2.043-3.577zM68.004 74.559L66.257 75.197M68.378 74.185L66.714 74.606M65.353 82.91c.484-.394.983-.72.983-.72 2.36-1.385 3.64-4.29 4.171-5.827" transform="translate(-177 -253) translate(179 255) translate(42.905 40.101)"/>
                    <path stroke="#44E7D9" stroke-linecap="round" stroke-linejoin="round" stroke-width="1.875" d="M70.03 77.933s.728.695-1.002 2.87c-1.73 2.173-3.652 1.888-4.331 3.327 0 0 .811-4.042 2.588-5.369 1.776-1.326 2.746-.828 2.746-.828zM65.444 81.625L67.613 81.19M68.224 80.616L65.851 80.69M68.725 80.054L68.267 81.605M69.142 79.397L69.111 80.855M71.264 82.753s-3.675 1.605-4.47 5.532c-.193.948-.376 1.837-.544 2.63-.527 2.492-.896 4.046-.867 3.566.038-.634-.211-1.762-.595-3.296-.384-1.534.77-4.804 3.125-5.614 0 0-.36.693-.2 1.975.16 1.282.494 2.336-.315 3.877-.81 1.54-1.794 2.037-2.025 3.216M66.582 89.147L67.398 91.423M66.73 88.599L67.683 90.777M64.863 91.486L66.398 90.209M70.03 90.749c-1.387-2.379-1.25-4.935-.98-6.45" transform="translate(-177 -253) translate(179 255) translate(42.905 40.101)"/>
                    <path stroke="#44E7D9" stroke-linecap="round" stroke-linejoin="round" stroke-width="1.875" d="M68.89 85.857s.66.172 1.14 1.117c.478.944-.047 3.658 1.114 5.17 0 0-1.84-.84-2.29-2.12-.448-1.28-.785-2.55.036-4.167zM69.252 88.947L70.455 90.393M69.116 88.429L70.356 89.645M74.012 97.023c-.222-.429-.475-.813-.475-.813-1.247-1.709-1.29-4.726-1.194-5.978" transform="translate(-177 -253) translate(179 255) translate(42.905 40.101)"/>
                    <path stroke="#44E7D9" stroke-linecap="round" stroke-linejoin="round" stroke-width="1.875" d="M72.228 92.054s-.73.269-.173 2.343c.558 2.074 2.047 3.692 2.047 3.692s.669-3.115-.182-4.603c-.852-1.487-1.692-1.432-1.692-1.432zM72.683 94.512L74.343 95.295M72.5 93.96L72.348 95.2M72.407 93.366L71.98 94.409M80.015 99.286c-2.545-1.442-3.69-3.936-4.152-5.33" transform="translate(-177 -253) translate(179 255) translate(42.905 40.101)"/>
                    <path stroke="#44E7D9" stroke-linecap="round" stroke-linejoin="round" stroke-width="1.875" d="M76.608 95.673s.65-.182 1.529.387c.88.57 1.781 3.15 3.525 3.864 0 0-1.99.198-3.011-.673-1.02-.87-1.94-1.787-2.043-3.578zM78.455 98.133L80.202 98.77M78.081 97.759L79.746 98.18M55.504 4.38c-2.316 1.788-3.098 4.418-3.359 5.863" transform="translate(-177 -253) translate(179 255) translate(42.905 40.101)"/>
                    <path stroke="#44E7D9" stroke-linecap="round" stroke-linejoin="round" stroke-width="1.875" d="M52.64 8.438s.669.088 1.46-.599c.79-.687 1.318-3.369 2.944-4.323 0 0-1.999.086-2.886 1.091-.888 1.006-1.669 2.044-1.518 3.83zM54.122 5.742L55.761 4.865M53.804 6.165L55.393 5.514M74.061 7.05c-.616-.095-1.192-.248-1.192-.248-2.608-.829-5.29-.02-6.786.611" transform="translate(-177 -253) translate(179 255) translate(42.905 40.101)"/>
                    <path stroke="#44E7D9" stroke-linecap="round" stroke-linejoin="round" stroke-width="1.875" d="M67.233 6.9s.03-1.005 2.804-1.172c2.773-.167 3.846 1.453 5.37.996 0 0-3.549 2.098-5.723 1.664C67.51 7.954 67.233 6.9 67.233 6.9zM73.044 7.843L71.271 6.52M70.436 6.45L72.077 8.166M69.683 6.453L71.142 5.757M68.916 6.583L70.02 5.631M56.322 6.832s1.504-3.718 5.408-4.62c.943-.217 1.826-.425 2.614-.614 2.478-.595 4.02-1.006 3.541-.964-.632.056-1.767-.163-3.31-.505-1.545-.342-4.781.9-5.528 3.276 0 0 .684-.379 1.97-.253 1.285.125 2.348.43 3.866-.42 1.519-.851 1.989-1.85 3.16-2.112M62.586 1.978L64.883 2.731M62.043 2.14L64.245 3.034M64.878.196L63.643 1.765M64.28 5.38c-2.414-1.321-4.966-1.115-6.473-.803" transform="translate(-177 -253) translate(179 255) translate(42.905 40.101)"/>
                    <path stroke="#44E7D9" stroke-linecap="round" stroke-linejoin="round" stroke-width="1.875" d="M59.36 4.374s.19.656 1.147 1.109c.957.453 3.656-.146 5.2.973 0 0-.891-1.817-2.183-2.23-1.291-.414-2.57-.717-4.164.148zM62.458 4.653L63.937 5.815M61.938 4.53L63.186 5.737M73.873 14.317c-1.218-2.66-3.604-4.015-4.953-4.596" transform="translate(-177 -253) translate(179 255) translate(42.905 40.101)"/>
                    <path stroke="#44E7D9" stroke-linecap="round" stroke-linejoin="round" stroke-width="1.875" d="M70.567 10.61s-.237.633.254 1.558c.49.925 2.984 2.046 3.546 3.845 0 0 .368-1.967-.412-3.059-.779-1.09-1.614-2.086-3.388-2.343zM72.858 12.663L73.343 14.459M72.518 12.258L72.794 13.953M75.87 22.677c-.201-.59-.332-1.172-.332-1.172-.476-2.695-2.753-4.908-4.007-5.942" transform="translate(-177 -253) translate(179 255) translate(42.905 40.101)"/>
                    <path stroke="#44E7D9" stroke-linecap="round" stroke-linejoin="round" stroke-width="1.875" d="M72.836 16.557s.905-.439 2.34 1.94c1.434 2.38.496 4.083 1.607 5.22 0 0-3.504-2.17-4.128-4.298-.624-2.127.181-2.862.181-2.862zM74.696 22.143L75.045 19.959M74.721 19.186L73.962 21.436M74.368 18.521L75.662 19.491M73.898 17.901L75.254 18.438M77.051 28.23c-.241-.417-.429-.838-.429-.838-.768-1.97-3.286-3.633-4.392-4.227" transform="translate(-177 -253) translate(179 255) translate(42.905 40.101)"/>
                    <path stroke="#44E7D9" stroke-linecap="round" stroke-linejoin="round" stroke-width="1.875" d="M73.827 24.05s.62-.47 2.066 1.117c1.447 1.587 2.008 3.714 2.008 3.714s-2.985-1.116-3.779-2.634c-.795-1.519-.295-2.197-.295-2.197zM75.653 25.758L75.418 27.578M75.285 25.307L76.412 25.846M74.835 24.908L75.944 25.11M72.213 26.555s3.624 1.718 4.297 5.668c.163.954.319 1.848.462 2.645.45 2.508.77 4.073.756 3.591-.019-.634.266-1.754.697-3.275.43-1.522-.62-4.825-2.95-5.709 0 0 .34.705.14 1.981-.2 1.276-.567 2.32.194 3.884.761 1.566 1.73 2.093 1.924 3.278M76.695 33.091L75.809 35.34M76.564 32.539L75.544 34.686M78.34 35.483L76.846 34.159M73.2 34.585c1.46-2.334 1.402-4.894 1.178-6.416" transform="translate(-177 -253) translate(179 255) translate(42.905 40.101)"/>
                    <path stroke="#44E7D9" stroke-linecap="round" stroke-linejoin="round" stroke-width="1.875" d="M74.49 29.732s-.665.15-1.173 1.08c-.508.929-.068 3.658-1.274 5.134 0 0 1.865-.784 2.354-2.05.488-1.264.864-2.523.093-4.164zM74.032 32.808L72.786 34.216M74.185 32.295L72.907 33.471M74.91 42.408c-.333-2.906-2.182-4.934-3.284-5.905" transform="translate(-177 -253) translate(179 255) translate(42.905 40.101)"/>
                    <path stroke="#44E7D9" stroke-linecap="round" stroke-linejoin="round" stroke-width="1.875" d="M72.916 37.86s-.421.527-.241 1.558c.18 1.032 2.202 2.87 2.179 4.756 0 0 .96-1.756.557-3.036-.403-1.279-.887-2.484-2.495-3.278zM74.458 40.521L74.362 42.379M74.26 40.031L73.997 41.727M74.831 50.22c-.116-.613-.163-1.208-.163-1.208-.092-2.734-2.035-5.246-3.13-6.447" transform="translate(-177 -253) translate(179 255) translate(42.905 40.101)"/>
                    <path stroke="#44E7D9" stroke-linecap="round" stroke-linejoin="round" stroke-width="1.875" d="M72.69 43.734s.958-.308 2.042 2.25c1.085 2.558-.083 4.111.857 5.395 0 0-3.164-2.643-3.482-4.837-.318-2.194.583-2.808.583-2.808zM73.744 49.526L74.398 47.412M74.185 46.602L73.117 48.723M73.93 45.894L75.075 47.036M73.552 45.214L74.818 45.936M74.39 55.19c-.135-.463-.217-.916-.217-.916-.275-2.097-2.324-4.312-3.257-5.153" transform="translate(-177 -253) translate(179 255) translate(42.905 40.101)"/>
                    <path stroke="#44E7D9" stroke-linecap="round" stroke-linejoin="round" stroke-width="1.875" d="M72.256 50.361s.714-.308 1.74 1.578c1.026 1.887 1.064 4.086 1.064 4.086s-2.632-1.795-3.041-3.46c-.41-1.664.237-2.204.237-2.204zM73.622 52.456L72.959 54.167M73.372 51.93L74.338 52.723M73.03 51.436L74.059 51.896M70.627 54.898s3.819 1.227 5.006 5.053c.287.924.56 1.79.806 2.562.776 2.426 1.3 3.935 1.222 3.46-.102-.627.032-1.774.26-3.34.227-1.564-1.25-4.7-3.675-5.27 0 0 .428.654.398 1.946-.03 1.291-.256 2.373.705 3.825.96 1.451 1.99 1.846 2.338 2.996M75.931 60.787L75.349 63.134M75.728 60.257L75 62.52M77.877 62.941L76.221 61.825M72.662 62.729c1.14-2.507.746-5.036.323-6.516" transform="translate(-177 -253) translate(179 255) translate(42.905 40.101)"/>
                    <path stroke="#44E7D9" stroke-linecap="round" stroke-linejoin="round" stroke-width="1.875" d="M73.302 57.747s-.64.238-1.02 1.226c-.382.988.414 3.635-.587 5.256 0 0 1.746-1.022 2.063-2.34.317-1.319.524-2.616-.456-4.142zM73.254 60.857L72.203 62.417M73.337 60.329L72.226 61.663M73.05 71.487c.195-2.92-1.257-5.247-2.166-6.4" transform="translate(-177 -253) translate(179 255) translate(42.905 40.101)"/>
                    <path stroke="#44E7D9" stroke-linecap="round" stroke-linejoin="round" stroke-width="1.875" d="M71.908 66.653s-.51.443-.519 1.49c-.008 1.047 1.65 3.22 1.287 5.07 0 0 1.26-1.555 1.095-2.885-.165-1.331-.425-2.604-1.863-3.675zM72.945 69.549L72.516 71.359M72.839 69.031L72.274 70.652M73.483 81.024c-.064-.62-.061-1.217-.061-1.217.141-2.732-1.58-5.4-2.57-6.69" transform="translate(-177 -253) translate(179 255) translate(42.905 40.101)"/>
                    <path stroke="#44E7D9" stroke-linecap="round" stroke-linejoin="round" stroke-width="1.875" d="M71.9 74.38s.98-.225 1.844 2.416c.863 2.64-.432 4.089.395 5.447 0 0-2.928-2.901-3.058-5.115-.13-2.213.819-2.748.819-2.748zM72.459 80.241L73.289 78.19M73.146 77.365L71.902 79.387M72.952 76.637L73.996 77.873M72.633 75.928L73.834 76.755M75.791 86.248c-.415-.245-.834-.437-.834-.437-1.964-.785-3.603-3.319-4.188-4.43" transform="translate(-177 -253) translate(179 255) translate(42.905 40.101)"/>
                    <path stroke="#44E7D9" stroke-linecap="round" stroke-linejoin="round" stroke-width="1.875" d="M71.64 82.986s-.475.615 1.098 2.076c1.574 1.461 3.696 2.041 3.696 2.041s-1.089-2.994-2.6-3.802c-1.511-.808-2.194-.315-2.194-.315zM73.331 84.827L75.154 84.609M72.884 84.456L73.413 85.588M72.489 84.002L72.681 85.112M71.206 87.253s2.377 3.23 6.383 3.14c.967-.022 1.874-.04 2.684-.05 2.548-.036 4.145-.02 3.67.058-.627.103-1.672.595-3.084 1.307-1.411.713-4.854.31-6.165-1.808 0 0 .756.199 1.97-.241 1.216-.44 2.17-.997 3.852-.548 1.681.45 2.383 1.3 3.583 1.265M78.476 90.409L80.516 89.111M77.909 90.386L79.822 88.976M81.137 91.569L79.553 90.354M79.277 86.693c-2.013 1.877-4.537 2.308-6.074 2.378" transform="translate(-177 -253) translate(179 255) translate(42.905 40.101)"/>
                    <path stroke="#44E7D9" stroke-linecap="round" stroke-linejoin="round" stroke-width="1.875" d="M74.758 88.884s.022-.683.838-1.358c.815-.675 3.577-.762 4.797-2.228 0 0-.415 1.98-1.564 2.7-1.149.721-2.313 1.33-4.07.886zM77.691 87.848L78.836 86.357M77.217 88.096L78.128 86.618M82.135 92.886c-2.63 1.282-5.333.816-6.744.41" transform="translate(-177 -253) translate(179 255) translate(42.905 40.101)"/>
                    <path stroke="#44E7D9" stroke-linecap="round" stroke-linejoin="round" stroke-width="1.875" d="M77.228 93.653s.218-.64 1.184-1.043c.966-.403 3.604.312 5.18-.722 0 0-.963 1.754-2.258 2.103-1.295.35-2.572.59-4.106-.338zM80.301 93.52L81.815 92.44M79.781 93.617L81.07 92.483M50.628 12.019s-1.867-5.6-9.955-5.912c-8.089-.31-10.578 8.09-11.2 13.689-.622 5.6 3.111 59.42.933 67.508-2.177 8.088-8.71 7.777-8.71 7.777M43.935 13.964c1.713-2.371 4.317-3.236 5.753-3.542" transform="translate(-177 -253) translate(179 255) translate(42.905 40.101)"/>
                    <path stroke="#44E7D9" stroke-linecap="round" stroke-linejoin="round" stroke-width="1.875" d="M47.9 10.973s.109.666-.553 1.478c-.661.811-3.325 1.425-4.227 3.08 0 0 .022-2 1-2.92.976-.918 1.989-1.732 3.78-1.638zM45.252 12.54L44.427 14.207M45.665 12.209L45.064 13.818M39.502 11.193c.485-.392.907-.813.907-.813 1.84-2.025 4.566-2.67 6.178-2.874" transform="translate(-177 -253) translate(179 255) translate(42.905 40.101)"/>
                    <path stroke="#44E7D9" stroke-linecap="round" stroke-linejoin="round" stroke-width="1.875" d="M45.335 7.639s-.531-.855-3.014.391c-2.483 1.247-2.6 3.187-4.147 3.555 0 0 4.122.037 5.786-1.43 1.663-1.465 1.375-2.516 1.375-2.516zM40.779 11.369L41.65 9.335M42.337 8.855L41.777 11.163M42.99 8.481L41.379 8.61M43.719 8.208L42.286 7.938M39.94 6.187s-3.907.911-5.402 4.628c-.362.898-.703 1.738-1.012 2.487-.972 2.356-1.617 3.817-1.501 3.35.153-.617.113-1.772.014-3.35s1.63-4.583 4.092-4.953c0 0-.48.617-.555 1.906-.075 1.29.062 2.387-1.014 3.755-1.076 1.369-2.134 1.678-2.575 2.795M34.173 11.624L34.562 14.01M34.417 11.112L34.959 13.427M32.058 13.612L33.799 12.635M37.272 13.825c-.932-2.59-.332-5.08.21-6.52" transform="translate(-177 -253) translate(179 255) translate(42.905 40.101)"/>
                    <path stroke="#44E7D9" stroke-linecap="round" stroke-linejoin="round" stroke-width="1.875" d="M37.04 8.809s.619.288.918 1.304c.3 1.016-.71 3.59.156 5.287 0 0-1.657-1.161-1.866-2.501-.208-1.34-.309-2.65.792-4.09zM36.836 11.912L37.755 13.553M36.795 11.379L37.794 12.799M31.876 20.836c-1.498-2.512-1.259-5.245-.972-6.686" transform="translate(-177 -253) translate(179 255) translate(42.905 40.101)"/>
                    <path stroke="#44E7D9" stroke-linecap="round" stroke-linejoin="round" stroke-width="1.875" d="M30.702 16.01s.655.164 1.138 1.093c.483.93-.01 3.618 1.152 5.103 0 0-1.828-.814-2.284-2.075-.456-1.261-.802-2.513-.006-4.12zM31.091 19.062L32.294 20.481M30.951 18.552L32.189 19.741M33.897 27.64c-.436-.446-.894-.827-.894-.827-2.187-1.644-3.13-4.677-3.483-6.263" transform="translate(-177 -253) translate(179 255) translate(42.905 40.101)"/>
                    <path stroke="#44E7D9" stroke-linecap="round" stroke-linejoin="round" stroke-width="1.875" d="M29.815 22.164s-.801.608.67 2.964c1.473 2.357 3.415 2.292 3.926 3.798 0 0-.348-4.108-1.962-5.627-1.614-1.52-2.634-1.135-2.634-1.135zM33.953 26.352L31.847 25.674M31.305 25.035L33.655 25.378M30.872 24.419L31.15 26.012M30.532 23.719L30.397 25.171M34.183 32.33c-.396-.275-.8-.496-.8-.496-1.903-.924-3.357-3.568-3.86-4.719" transform="translate(-177 -253) translate(179 255) translate(42.905 40.101)"/>
                    <path stroke="#44E7D9" stroke-linecap="round" stroke-linejoin="round" stroke-width="1.875" d="M30.276 28.779s-.518.58.948 2.15c1.465 1.57 3.54 2.3 3.54 2.3s-.872-3.065-2.322-3.98c-1.45-.913-2.166-.47-2.166-.47zM31.832 30.736L33.665 30.649M31.412 30.333L31.858 31.501M31.05 29.853L31.163 30.974M29.682 31.708s-.068 4.01 3.173 6.366c.782.569 1.513 1.105 2.165 1.587 2.048 1.516 3.308 2.498 2.883 2.271-.56-.298-1.69-.54-3.245-.83-1.555-.288-4.049-2.695-3.807-5.174 0 0 .48.615 1.714 1.002 1.232.387 2.33.522 3.394 1.899 1.065 1.377 1.108 2.478 2.084 3.178M33.55 38.625L35.959 38.829M33.114 38.263L35.49 38.301M34.964 41.16L34.44 39.233M36.44 36.155c-2.74.273-5.008-.914-6.272-1.791" transform="translate(-177 -253) translate(179 255) translate(42.905 40.101)"/>
                    <path stroke="#44E7D9" stroke-linecap="round" stroke-linejoin="round" stroke-width="1.875" d="M31.518 35.158s.43-.53 1.489-.572c1.058-.043 3.308 1.563 5.166 1.136 0 0-1.53 1.324-2.88 1.2-1.351-.124-2.646-.345-3.775-1.764zM34.478 36.113L36.293 35.62M33.951 36.022L35.572 35.399M33.881 45.523c-2.486-1.54-3.533-4.076-3.941-5.487" transform="translate(-177 -253) translate(179 255) translate(42.905 40.101)"/>
                    <path stroke="#44E7D9" stroke-linecap="round" stroke-linejoin="round" stroke-width="1.875" d="M30.617 41.78s.657-.156 1.513.447c.856.602 1.657 3.216 3.372 3.998 0 0-1.997.12-2.982-.79-.986-.91-1.87-1.862-1.903-3.654zM32.367 44.31L34.088 45.015M32.008 43.922L33.655 44.407M35.597 51.828c-.507-.363-1.025-.658-1.025-.658-2.44-1.237-3.898-4.058-4.523-5.558" transform="translate(-177 -253) translate(179 255) translate(42.905 40.101)"/>
                    <path stroke="#44E7D9" stroke-linecap="round" stroke-linejoin="round" stroke-width="1.875" d="M30.622 47.149s-.683.739 1.177 2.801c1.861 2.064 3.762 1.66 4.53 3.054 0 0-1.06-3.983-2.916-5.198-1.855-1.214-2.791-.657-2.791-.657zM35.427 50.55L33.235 50.25M32.59 49.715L34.964 49.642M32.056 49.185L32.608 50.705M31.599 48.555L31.72 50.008M30.663 51.34s-.068 4.01 3.173 6.367c.783.568 1.514 1.105 2.166 1.587 2.048 1.516 3.308 2.498 2.883 2.271-.56-.298-1.69-.54-3.245-.83-1.555-.288-4.049-2.696-3.807-5.175 0 0 .48.616 1.713 1.003 1.233.387 2.33.522 3.395 1.899 1.065 1.376 1.108 2.478 2.084 3.178M34.532 58.257L36.941 58.461M34.096 57.896L36.472 57.934M35.945 60.793L35.422 58.866M37.422 55.788c-2.74.272-5.008-.915-6.273-1.791" transform="translate(-177 -253) translate(179 255) translate(42.905 40.101)"/>
                    <path stroke="#44E7D9" stroke-linecap="round" stroke-linejoin="round" stroke-width="1.875" d="M32.5 54.79s.43-.529 1.489-.571c1.058-.043 3.307 1.562 5.165 1.136 0 0-1.53 1.324-2.88 1.2-1.35-.124-2.645-.345-3.774-1.764zM35.46 55.745L37.275 55.253M34.933 55.655L36.554 55.032M36.581 71.506c-.507-.363-1.025-.658-1.025-.658-2.44-1.237-3.898-4.059-4.524-5.558" transform="translate(-177 -253) translate(179 255) translate(42.905 40.101)"/>
                    <path stroke="#44E7D9" stroke-linecap="round" stroke-linejoin="round" stroke-width="1.875" d="M31.605 66.827s-.683.739 1.178 2.801c1.86 2.064 3.762 1.66 4.529 3.055 0 0-1.06-3.985-2.915-5.199s-2.792-.657-2.792-.657zM36.411 70.228L34.219 69.928M33.574 69.393L35.947 69.32M33.039 68.863L33.592 70.383M32.583 68.233L32.703 69.687M35.57 65.374c-.397-.274-.801-.494-.801-.494-1.902-.924-3.356-3.569-3.86-4.72" transform="translate(-177 -253) translate(179 255) translate(42.905 40.101)"/>
                    <path stroke="#44E7D9" stroke-linecap="round" stroke-linejoin="round" stroke-width="1.875" d="M31.663 61.824s-.518.58.947 2.15c1.466 1.57 3.54 2.3 3.54 2.3s-.871-3.065-2.321-3.979c-1.45-.914-2.166-.471-2.166-.471zM33.218 63.781L35.052 63.694M32.798 63.379L33.245 64.546M32.437 62.898L32.549 64.019M35.316 75.681c-2.545-1.442-3.69-3.936-4.152-5.33" transform="translate(-177 -253) translate(179 255) translate(42.905 40.101)"/>
                    <path stroke="#44E7D9" stroke-linecap="round" stroke-linejoin="round" stroke-width="1.875" d="M31.908 72.068s.65-.181 1.53.388c.878.568 1.78 3.149 3.525 3.863 0 0-1.992.198-3.012-.673-1.02-.87-1.94-1.787-2.043-3.578zM33.755 74.528L35.502 75.165M33.381 74.154L35.046 74.575M36.406 82.88c-.484-.395-.983-.72-.983-.72-2.359-1.386-3.64-4.292-4.171-5.827" transform="translate(-177 -253) translate(179 255) translate(42.905 40.101)"/>
                    <path stroke="#44E7D9" stroke-linecap="round" stroke-linejoin="round" stroke-width="1.875" d="M31.729 77.902s-.727.695 1.003 2.87c1.73 2.173 3.652 1.888 4.331 3.327 0 0-.812-4.042-2.588-5.369-1.777-1.326-2.746-.828-2.746-.828zM36.316 81.593L34.146 81.159M33.535 80.585L35.909 80.659M33.035 80.023L33.492 81.574M32.618 79.366L32.648 80.824M30.495 82.722s3.676 1.605 4.471 5.532c.192.948.376 1.836.544 2.63.527 2.492.896 4.046.867 3.565-.039-.633.21-1.761.594-3.295.384-1.535-.769-4.804-3.124-5.615 0 0 .36.694.2 1.976-.161 1.282-.494 2.336.315 3.877.81 1.54 1.794 2.037 2.024 3.216M35.178 89.116L34.362 91.391M35.03 88.568L34.077 90.746M36.896 91.455L35.361 90.178M31.73 90.717c1.387-2.378 1.25-4.934.979-6.45" transform="translate(-177 -253) translate(179 255) translate(42.905 40.101)"/>
                    <path stroke="#44E7D9" stroke-linecap="round" stroke-linejoin="round" stroke-width="1.875" d="M32.87 85.826s-.66.172-1.14 1.116c-.478.945.047 3.659-1.114 5.171 0 0 1.84-.84 2.289-2.12.449-1.28.786-2.55-.035-4.167zM32.507 88.915L31.305 90.362M32.644 88.398L31.403 89.613M27.748 96.992c.221-.429.475-.814.475-.814 1.246-1.708 1.29-4.725 1.193-5.978" transform="translate(-177 -253) translate(179 255) translate(42.905 40.101)"/>
                    <path stroke="#44E7D9" stroke-linecap="round" stroke-linejoin="round" stroke-width="1.875" d="M29.532 92.023s.73.269.172 2.343c-.557 2.073-2.047 3.692-2.047 3.692s-.668-3.116.183-4.603c.852-1.487 1.692-1.432 1.692-1.432zM29.077 94.481L27.417 95.264M29.259 93.929L29.412 95.169M29.352 93.335L29.78 94.378M21.744 99.255c2.545-1.442 3.69-3.936 4.152-5.33" transform="translate(-177 -253) translate(179 255) translate(42.905 40.101)"/>
                    <path stroke="#44E7D9" stroke-linecap="round" stroke-linejoin="round" stroke-width="1.875" d="M25.152 95.642s-.65-.182-1.53.387c-.879.569-1.78 3.149-3.525 3.864 0 0 1.992.197 3.011-.673 1.021-.87 1.94-1.788 2.044-3.578zM23.304 98.102L21.557 98.739M23.678 97.728L22.014 98.149M46.256 4.35c2.316 1.786 3.097 4.417 3.358 5.862" transform="translate(-177 -253) translate(179 255) translate(42.905 40.101)"/>
                    <path stroke="#44E7D9" stroke-linecap="round" stroke-linejoin="round" stroke-width="1.875" d="M49.12 8.407s-.67.088-1.46-.599c-.79-.687-1.319-3.369-2.945-4.323 0 0 2 .086 2.887 1.091.887 1.006 1.668 2.044 1.518 3.83zM47.638 5.711L45.998 4.833M47.955 6.134L46.367 5.483M27.698 7.02c.617-.097 1.193-.25 1.193-.25 2.608-.828 5.29-.019 6.786.613" transform="translate(-177 -253) translate(179 255) translate(42.905 40.101)"/>
                    <path stroke="#44E7D9" stroke-linecap="round" stroke-linejoin="round" stroke-width="1.875" d="M34.527 6.87s-.03-1.006-2.804-1.173c-2.773-.167-3.847 1.453-5.37.996 0 0 3.548 2.099 5.722 1.664 2.174-.434 2.452-1.488 2.452-1.488zM28.716 7.812L30.489 6.489M31.324 6.419L29.682 8.134M32.077 6.422L30.618 5.726M32.844 6.552L31.739 5.6M45.438 6.801s-1.505-3.718-5.409-4.62c-.943-.217-1.825-.425-2.614-.614-2.477-.595-4.02-1.006-3.54-.964.632.056 1.767-.163 3.31-.505 1.544-.342 4.78.9 5.527 3.276 0 0-.683-.38-1.969-.253-1.286.125-2.348.43-3.867-.421-1.518-.85-1.988-1.848-3.16-2.11M39.173 1.947L36.876 2.7M39.717 2.109L37.514 3.003M36.882.165L38.116 1.734M37.479 5.349c2.415-1.321 4.967-1.115 6.473-.803" transform="translate(-177 -253) translate(179 255) translate(42.905 40.101)"/>
                    <path stroke="#44E7D9" stroke-linecap="round" stroke-linejoin="round" stroke-width="1.875" d="M42.4 4.343s-.19.656-1.148 1.109c-.957.453-3.655-.146-5.199.973 0 0 .891-1.817 2.182-2.23 1.292-.415 2.57-.717 4.164.148zM39.301 4.621L37.823 5.784M39.822 4.499L38.574 5.706M27.887 14.286c1.217-2.66 3.603-4.015 4.952-4.596" transform="translate(-177 -253) translate(179 255) translate(42.905 40.101)"/>
                    <path stroke="#44E7D9" stroke-linecap="round" stroke-linejoin="round" stroke-width="1.875" d="M31.193 10.58s.237.632-.254 1.557c-.491.924-2.984 2.045-3.546 3.845 0 0-.368-1.967.411-3.058.78-1.092 1.614-2.088 3.389-2.344zM28.901 12.632L28.417 14.428M29.242 12.227L28.966 13.922M25.89 22.646c.2-.591.332-1.172.332-1.172.476-2.695 2.753-4.908 4.006-5.942" transform="translate(-177 -253) translate(179 255) translate(42.905 40.101)"/>
                    <path stroke="#44E7D9" stroke-linecap="round" stroke-linejoin="round" stroke-width="1.875" d="M28.923 16.526s-.905-.439-2.339 1.94c-1.434 2.38-.496 4.083-1.608 5.22 0 0 3.505-2.17 4.129-4.298.623-2.127-.182-2.862-.182-2.862zM27.063 22.112L26.714 19.927M27.039 19.155L27.797 21.405M27.391 18.49L26.097 19.459M27.861 17.87L26.505 18.407M24.708 28.2c.242-.418.43-.84.43-.84.767-1.97 3.286-3.632 4.392-4.226" transform="translate(-177 -253) translate(179 255) translate(42.905 40.101)"/>
                    <path stroke="#44E7D9" stroke-linecap="round" stroke-linejoin="round" stroke-width="1.875" d="M27.933 24.019s-.62-.47-2.067 1.117c-1.446 1.587-2.007 3.714-2.007 3.714s2.984-1.116 3.779-2.635c.794-1.518.295-2.196.295-2.196zM26.107 25.727L26.342 27.547M26.474 25.276L25.347 25.815M26.924 24.877L25.816 25.079M29.546 26.524s-3.624 1.718-4.297 5.668c-.163.954-.319 1.847-.462 2.645-.45 2.508-.77 4.073-.756 3.591.02-.634-.265-1.754-.696-3.276-.431-1.521.62-4.825 2.949-5.708 0 0-.34.705-.139 1.98.2 1.277.566 2.32-.195 3.885-.76 1.566-1.73 2.093-1.923 3.278M25.064 33.06L25.95 35.31M25.195 32.508L26.216 34.655M23.419 35.452L24.914 34.128M28.56 34.554c-1.46-2.334-1.403-4.894-1.178-6.416" transform="translate(-177 -253) translate(179 255) translate(42.905 40.101)"/>
                    <path stroke="#44E7D9" stroke-linecap="round" stroke-linejoin="round" stroke-width="1.875" d="M27.27 29.7s.665.152 1.173 1.08c.508.93.067 3.659 1.274 5.135 0 0-1.866-.784-2.354-2.05-.488-1.265-.864-2.523-.094-4.165zM27.727 32.777L28.974 34.185M27.575 32.264L28.852 33.44M26.85 42.377c.333-2.906 2.181-4.934 3.284-5.905" transform="translate(-177 -253) translate(179 255) translate(42.905 40.101)"/>
                    <path stroke="#44E7D9" stroke-linecap="round" stroke-linejoin="round" stroke-width="1.875" d="M28.844 37.828s.421.528.241 1.56c-.18 1.03-2.203 2.87-2.18 4.754 0 0-.959-1.755-.557-3.035.403-1.28.888-2.484 2.496-3.279zM27.301 40.49L27.397 42.347M27.499 40L27.762 41.696M26.928 50.189c.116-.614.164-1.208.164-1.208.092-2.734 2.034-5.246 3.13-6.447" transform="translate(-177 -253) translate(179 255) translate(42.905 40.101)"/>
                    <path stroke="#44E7D9" stroke-linecap="round" stroke-linejoin="round" stroke-width="1.875" d="M29.07 43.703s-.958-.308-2.043 2.25c-1.085 2.558.084 4.111-.856 5.395 0 0 3.164-2.643 3.482-4.837.318-2.194-.583-2.808-.583-2.808zM28.015 49.495L27.362 47.381M27.574 46.571L28.642 48.692M27.829 45.862L26.685 47.005M28.208 45.183L26.941 45.905M27.37 55.16c.134-.464.216-.917.216-.917.276-2.097 2.325-4.312 3.257-5.153" transform="translate(-177 -253) translate(179 255) translate(42.905 40.101)"/>
                    <path stroke="#44E7D9" stroke-linecap="round" stroke-linejoin="round" stroke-width="1.875" d="M29.503 50.33s-.714-.308-1.74 1.578c-1.026 1.887-1.063 4.086-1.063 4.086s2.632-1.795 3.041-3.46c.409-1.664-.238-2.204-.238-2.204zM28.138 52.425L28.8 54.136M28.387 51.899L27.421 52.692M28.729 51.404L27.701 51.865M31.133 54.867s-3.82 1.226-5.007 5.053c-.286.924-.559 1.79-.806 2.562-.776 2.426-1.3 3.935-1.222 3.46.102-.627-.032-1.775-.26-3.34-.226-1.564 1.25-4.7 3.676-5.27 0 0-.428.654-.398 1.945.03 1.292.256 2.374-.705 3.825-.96 1.452-1.99 1.847-2.338 2.996M25.829 60.756L26.411 63.103M26.031 60.226L26.76 62.489M23.883 62.91L25.539 61.794M29.097 62.697c-1.14-2.506-.746-5.035-.323-6.515" transform="translate(-177 -253) translate(179 255) translate(42.905 40.101)"/>
                    <path stroke="#44E7D9" stroke-linecap="round" stroke-linejoin="round" stroke-width="1.875" d="M28.457 57.716s.64.238 1.02 1.226c.382.987-.414 3.635.588 5.256 0 0-1.746-1.022-2.064-2.34-.317-1.32-.524-2.616.456-4.142zM28.506 60.826L29.556 62.386M28.423 60.298L29.534 61.632M28.71 71.455c-.196-2.919 1.257-5.246 2.166-6.4" transform="translate(-177 -253) translate(179 255) translate(42.905 40.101)"/>
                    <path stroke="#44E7D9" stroke-linecap="round" stroke-linejoin="round" stroke-width="1.875" d="M29.852 66.622s.51.443.518 1.49c.01 1.047-1.65 3.22-1.287 5.07 0 0-1.26-1.555-1.095-2.885.166-1.331.426-2.604 1.864-3.675zM28.814 69.518L29.244 71.328M28.921 69L29.485 70.621M28.277 80.993c.063-.62.06-1.217.06-1.217-.14-2.732 1.581-5.4 2.57-6.69" transform="translate(-177 -253) translate(179 255) translate(42.905 40.101)"/>
                    <path stroke="#44E7D9" stroke-linecap="round" stroke-linejoin="round" stroke-width="1.875" d="M29.86 74.349s-.98-.225-1.844 2.416c-.864 2.64.432 4.089-.396 5.447 0 0 2.929-2.901 3.059-5.115.13-2.213-.82-2.748-.82-2.748zM29.301 80.21L28.47 78.159M28.613 77.334L29.858 79.356M28.807 76.606L27.764 77.842M29.126 75.897L27.926 76.724M25.968 86.217c.415-.246.835-.437.835-.437 1.964-.785 3.603-3.319 4.187-4.43" transform="translate(-177 -253) translate(179 255) translate(42.905 40.101)"/>
                    <path stroke="#44E7D9" stroke-linecap="round" stroke-linejoin="round" stroke-width="1.875" d="M30.12 82.955s.475.615-1.099 2.076c-1.574 1.461-3.696 2.041-3.696 2.041s1.089-2.994 2.6-3.802c1.512-.808 2.195-.315 2.195-.315zM28.428 84.796L26.606 84.577M28.876 84.424L28.347 85.556M29.271 83.971L29.079 85.081M30.553 87.222s-2.376 3.23-6.382 3.14c-.967-.022-1.874-.039-2.685-.05-2.547-.037-4.144-.02-3.669.058.626.102 1.672.595 3.083 1.307 1.412.713 4.855.31 6.166-1.808 0 0-.757.198-1.971-.241-1.215-.44-2.17-.997-3.851-.548-1.682.45-2.383 1.3-3.584 1.265M23.284 90.378L21.244 89.08M23.85 90.354L21.937 88.944M20.623 91.538L22.207 90.323M22.482 86.662c2.014 1.877 4.538 2.308 6.075 2.378" transform="translate(-177 -253) translate(179 255) translate(42.905 40.101)"/>
                    <path stroke="#44E7D9" stroke-linecap="round" stroke-linejoin="round" stroke-width="1.875" d="M27.002 88.853s-.022-.683-.838-1.358c-.815-.675-3.578-.762-4.797-2.228 0 0 .414 1.981 1.563 2.7 1.15.72 2.313 1.33 4.072.886zM24.068 87.817L22.923 86.326M24.543 88.065L23.632 86.586M19.625 92.854c2.629 1.284 5.333.817 6.744.41" transform="translate(-177 -253) translate(179 255) translate(42.905 40.101)"/>
                    <path stroke="#44E7D9" stroke-linecap="round" stroke-linejoin="round" stroke-width="1.875" d="M24.531 93.621s-.217-.639-1.183-1.042c-.967-.403-3.605.312-5.181-.722 0 0 .964 1.754 2.258 2.103 1.295.35 2.572.59 4.106-.339zM21.459 93.489L19.945 92.409M21.979 93.586L20.69 92.451" transform="translate(-177 -253) translate(179 255) translate(42.905 40.101)"/>
                    <path fill="#FFF" d="M11.798 106.369L11.468 104.873 10.017 104.319 11.513 104.13 11.928 102.538 12.256 104.175 13.708 104.448 12.212 104.777zM24.699 107.092L24.468 106.042 23.45 105.652 24.5 105.52 24.791 104.402 25.021 105.551 26.041 105.743 24.99 105.974zM38.441 112.695L38.273 111.93 37.531 111.647 38.295 111.551 38.507 110.738 38.675 111.574 39.417 111.713 38.652 111.881zM39.465 98.176L39.136 96.68 37.685 96.125 39.181 95.936 39.595 94.344 39.923 95.981 41.375 96.254 39.879 96.584zM40.501 77.587L40.333 76.823 39.592 76.54 40.356 76.444 40.567 75.63 40.735 76.466 41.477 76.606 40.713 76.774zM30.776 117.983L30.646 117.393 30.073 117.174 30.663 117.1 30.827 116.472 30.956 117.117 31.529 117.225 30.939 117.355zM86.05 116.635L86.38 115.139 87.831 114.585 86.335 114.396 85.921 112.804 85.592 114.441 84.14 114.714 85.636 115.044zM78.437 105.536L78.668 104.486 79.687 104.097 78.637 103.964 78.346 102.847 78.115 103.996 77.096 104.188 78.147 104.419zM72.162 121.716L72.331 120.952 73.071 120.669 72.308 120.573 72.096 119.76 71.928 120.595 71.186 120.735 71.951 120.903zM60.25 86.665L60.579 85.169 62.03 84.614 60.534 84.426 60.12 82.834 59.791 84.47 58.339 84.744 59.835 85.073zM66.057 102.164L66.225 101.4 66.967 101.117 66.203 101.02 65.991 100.207 65.823 101.043 65.081 101.183 65.846 101.351zM71.117 110.828L71.247 110.238 71.819 110.019 71.229 109.945 71.066 109.317 70.936 109.962 70.363 110.07 70.953 110.2zM80.149 71.544L79.82 70.048 78.369 69.494 79.864 69.305 80.279 67.713 80.607 69.349 82.059 69.623 80.564 69.952zM90.251 65.734L90.02 64.683 89.001 64.294 90.051 64.162 90.342 63.044 90.573 64.193 91.592 64.385 90.542 64.616zM97.052 94.155L96.87 93.325 96.065 93.017 96.894 92.913 97.124 92.029 97.307 92.937 98.112 93.089 97.282 93.272zM96.137 36.158L95.78 34.533 94.204 33.931 95.828 33.726 96.278 31.998 96.636 33.775 98.212 34.072 96.588 34.429zM85.209 47.74L85.041 46.975 84.3 46.692 85.064 46.596 85.276 45.783 85.443 46.619 86.185 46.758 85.421 46.926zM86.061 81.291L85.931 80.701 85.358 80.482 85.949 80.408 86.112 79.78 86.242 80.426 86.815 80.534 86.224 80.663zM1.785 82.495L1.456 81 .004 80.445 1.5 80.257 1.915 78.664 2.243 80.301 3.695 80.575 2.199 80.904zM5.043 69.219L4.811 68.169 3.793 67.779 4.843 67.647 5.134 66.529 5.364 67.678 6.384 67.87 5.333 68.101zM14.428 74.822L14.26 74.057 13.519 73.774 14.283 73.678 14.495 72.865 14.662 73.701 15.404 73.84 14.64 74.008zM15.453 60.302L15.124 58.806 13.672 58.252 15.168 58.064 15.582 56.471 15.911 58.108 17.363 58.381 15.867 58.711zM16.489 39.714L16.321 38.95 15.58 38.667 16.343 38.571 16.555 37.757 16.723 38.593 17.465 38.733 16.701 38.901zM11.741 87.265L11.611 86.675 11.038 86.456 11.629 86.382 11.792 85.754 11.922 86.4 12.495 86.507 11.904 86.637z" transform="translate(-177 -253) translate(179 255) translate(42.905 40.101)"/>
                </g>
            </g>
        </g>
    </g>
</svg>
