<svg xmlns="http://www.w3.org/2000/svg" width="191" height="269" viewBox="0 0 191 269"><title>Король Пентаклей</title>
    <g fill="none" fill-rule="evenodd">
        <g>
            <g>
                <path fill="#182018" stroke="#FFF" stroke-linecap="round" stroke-linejoin="round" stroke-width="2.5" d="M177.475 265.368H9.604c-5.21 0-9.435-4.224-9.435-9.435V9.603C.169 4.394 4.393.17 9.604.17h167.871c5.211 0 9.436 4.224 9.436 9.435v246.329c0 5.21-4.225 9.435-9.436 9.435z" transform="translate(-489 -3789) translate(491 3791)"/>
                <path fill="#44E7D9" fill-rule="nonzero" d="M56.443 253.487v-10.796h-.81v10.796h.81zm4.441 0l-2.463-5.381 2.35-5.415h-.892l-2.35 5.447 2.448 5.35h.907zm2.351 0v-10.796h-.81v10.796h.81zm3.226 0v-6.127l-.032-3.208v-.067c.4 1.038 1.631 4.172 3.695 9.402h1.07v-10.796h-.81v6.16l.032 3.275c-.13-.346-1.362-3.49-3.696-9.435h-1.054v10.796h.795zm9.653.081c.848 0 1.63-.21 2.342-.632v-4.62h-.81v4.134c-.368.26-.935.389-1.702.389-1.113 0-1.67-.486-1.67-1.459v-6.484c0-1.027.643-1.54 1.93-1.54.67 0 1.323.103 1.96.308v-.794c-.605-.173-1.231-.26-1.88-.26-1.88 0-2.82.762-2.82 2.286v6.484c0 .767.23 1.324.689 1.67.459.346 1.113.518 1.961.518zm10.188.081c.854 0 1.497-.23 1.93-.688.431-.46.648-1.057.648-1.792v-6.16c0-.734-.217-1.332-.649-1.79-.432-.46-1.075-.69-1.929-.69-.854 0-1.497.23-1.929.69-.432.458-.648 1.056-.648 1.79v6.16c0 .735.216 1.332.648 1.792.432.459 1.075.688 1.93.688zm0-.729c-1.178 0-1.767-.584-1.767-1.75v-6.16c0-1.168.59-1.751 1.767-1.751 1.178 0 1.767.583 1.767 1.75v6.16c0 1.167-.589 1.751-1.767 1.751zm5.658.567v-4.911h3.371v-.73H91.96v-4.425h3.517v-.73H91.15v10.796h.81zm12.611 0v-.73h-3.663v-4.343h3.193v-.73h-3.193v-4.263h3.663v-.73h-4.474v10.796h4.474zm1.816 0l.73-3.16h3.08l.729 3.16h.842l-2.528-10.796h-1.167l-2.53 10.796h.844zm3.647-3.89h-2.756l1.378-5.982 1.378 5.982zm4.085 3.89v-4.457l1.73-.002c.097-.003.174-.007.231-.015l1.605 4.474h.892l-1.702-4.652c.93-.346 1.394-1.091 1.394-2.237v-1.475c0-.735-.216-1.324-.649-1.767-.432-.443-1.075-.665-1.929-.665h-2.383v10.796h.81zm1.572-5.22h-1.572v-4.846h1.572c1.178 0 1.767.567 1.767 1.702v1.475c0 1.113-.589 1.67-1.767 1.67zm6.809 5.22v-10.066h2.14v-.73h-5.09v.73h2.14v10.066h.81zm4.328 0v-4.928h3.793v4.928h.827v-10.796h-.827v5.139h-3.793v-5.139h-.81v10.796h.81z" transform="translate(-489 -3789) translate(491 3791)"/>
                <g>
                    <path stroke="#FFF" stroke-linecap="round" stroke-linejoin="round" stroke-width="1.875" d="M153.937 239.564L132.1 239.564M5.775 14.799L5.775 239.564 37.17 239.564" transform="translate(-489 -3789) translate(491 3791) translate(8.43 10.96)"/>
                    <path stroke="#D1A448" stroke-linecap="round" stroke-linejoin="round" stroke-width="1.875" d="M5.503 9.093L2.886 4.559 0.268 0.025 5.503 0.025 10.739 0.025 8.121 4.559z" transform="translate(-489 -3789) translate(491 3791) translate(8.43 10.96)"/>
                    <g>
                        <path fill="#000" d="M10.73 0.495L0.276 0.495" transform="translate(-489 -3789) translate(491 3791) translate(8.43 10.96) translate(0 4.721)"/>
                        <path stroke="#D1A448" stroke-linecap="round" stroke-linejoin="round" stroke-width="1.875" d="M10.73 0.495L0.276 0.495" transform="translate(-489 -3789) translate(491 3791) translate(8.43 10.96) translate(0 4.721)"/>
                    </g>
                    <path stroke="#D1A448" stroke-width="1.875" d="M164.152 234.015L166.77 238.549 169.387 243.083 164.152 243.083 158.917 243.083 161.534 238.549z" transform="translate(-489 -3789) translate(491 3791) translate(8.43 10.96)"/>
                    <g>
                        <path fill="#000" d="M0.09 0.482L10.544 0.482" transform="translate(-489 -3789) translate(491 3791) translate(8.43 10.96) translate(158.835 237.41)"/>
                        <path stroke="#D1A448" stroke-width="1.875" d="M0.09 0.482L10.544 0.482" transform="translate(-489 -3789) translate(491 3791) translate(8.43 10.96) translate(158.835 237.41)"/>
                    </g>
                    <path stroke="#FFF" stroke-linecap="round" stroke-linejoin="round" stroke-width="1.875" d="M17.245 3.457L165.082 3.457 165.082 226.211" transform="translate(-489 -3789) translate(491 3791) translate(8.43 10.96)"/>
                    <path stroke="#FFF" stroke-linecap="round" stroke-linejoin="round" stroke-width="1.875" d="M106.315 99.313s-3.027-3.028-15.742-3.633C77.86 95.075 71.2 99.313 71.2 99.313l-7.87-19.374s7.568 10.595 10.595 7.568c3.027-3.027-2.422-22.402-2.422-22.402s8.476 20.585 12.109 16.347c3.632-4.238 4.843-25.428 4.843-25.428" transform="translate(-489 -3789) translate(491 3791) translate(8.43 10.96)"/>
                    <path stroke="#FFF" stroke-linecap="round" stroke-linejoin="round" stroke-width="1.875" d="M106.315 98.934s-3.004-3.027-15.622-3.632c-12.617-.606-19.227 3.632-19.227 3.632M108.131 93.95s-3.34-3.471-17.37-4.166c-14.03-.694-21.378 4.166-21.378 4.166" transform="translate(-489 -3789) translate(491 3791) translate(8.43 10.96)"/>
                    <path stroke="#FFF" stroke-linecap="round" stroke-linejoin="round" stroke-width="1.875" d="M88.152 92.42c0 .5.406.907.908.907.501 0 .908-.406.908-.908 0-.501-.407-.908-.908-.908-.502 0-.908.407-.908.908zM79.944 93.025c0 .501.406.908.908.908.501 0 .908-.407.908-.908 0-.502-.407-.908-.908-.908-.502 0-.908.406-.908.908zM72.341 95.178c0 .502.407.908.908.908.502 0 .908-.406.908-.908 0-.501-.406-.908-.908-.908-.501 0-.908.407-.908.908zM98.107 93.025c0 .501-.407.908-.908.908-.502 0-.908-.407-.908-.908 0-.502.406-.908.908-.908.501 0 .908.406.908.908zM105.372 95.178c0 .502-.406.908-.908.908s-.908-.406-.908-.908c0-.501.406-.908.908-.908s.908.407.908.908z" transform="translate(-489 -3789) translate(491 3791) translate(8.43 10.96)"/>
                    <path stroke="#FFF" stroke-linecap="round" stroke-linejoin="round" stroke-width="1.875" d="M106.38 99.332l7.87-19.375s-7.568 10.596-10.595 7.568c-3.027-3.027 2.422-22.401 2.422-22.401S97.6 85.709 93.968 81.47c-3.633-4.238-5.449-25.428-5.449-25.428" transform="translate(-489 -3789) translate(491 3791) translate(8.43 10.96)"/>
                    <path fill="#D1A448" d="M87.586 55.374c0 .501.407.908.909.908.501 0 .908-.407.908-.908 0-.502-.407-.908-.908-.908-.502 0-.909.406-.909.908" transform="translate(-489 -3789) translate(491 3791) translate(8.43 10.96)"/>
                    <path stroke="#D1A448" stroke-width="1.875" d="M87.586 55.374c0 .501.407.908.909.908.501 0 .908-.407.908-.908 0-.502-.407-.908-.908-.908-.502 0-.909.406-.909.908z" transform="translate(-489 -3789) translate(491 3791) translate(8.43 10.96)"/>
                    <path fill="#D1A448" d="M105.46 64.479c0 .501.406.908.908.908.501 0 .908-.407.908-.908 0-.502-.407-.908-.908-.908-.502 0-.908.406-.908.908" transform="translate(-489 -3789) translate(491 3791) translate(8.43 10.96)"/>
                    <path stroke="#D1A448" stroke-width="1.875" d="M105.46 64.479c0 .501.406.908.908.908.501 0 .908-.407.908-.908 0-.502-.407-.908-.908-.908-.502 0-.908.406-.908.908z" transform="translate(-489 -3789) translate(491 3791) translate(8.43 10.96)"/>
                    <path fill="#D1A448" d="M114.165 78.518c.11.49.596.797 1.086.687.489-.11.797-.596.687-1.085-.11-.49-.596-.797-1.086-.687-.489.11-.796.596-.687 1.085" transform="translate(-489 -3789) translate(491 3791) translate(8.43 10.96)"/>
                    <path stroke="#D1A448" stroke-width="1.875" d="M114.165 78.518c.11.49.596.797 1.086.687.489-.11.797-.596.687-1.085-.11-.49-.596-.797-1.086-.687-.489.11-.796.596-.687 1.085z" transform="translate(-489 -3789) translate(491 3791) translate(8.43 10.96)"/>
                    <path fill="#D1A448" d="M70.21 64.365c0 .501.406.908.908.908s.908-.407.908-.908c0-.501-.406-.908-.908-.908s-.908.407-.908.908" transform="translate(-489 -3789) translate(491 3791) translate(8.43 10.96)"/>
                    <path stroke="#D1A448" stroke-width="1.875" d="M70.21 64.365c0 .501.406.908.908.908s.908-.407.908-.908c0-.501-.406-.908-.908-.908s-.908.407-.908.908z" transform="translate(-489 -3789) translate(491 3791) translate(8.43 10.96)"/>
                    <path fill="#D1A448" d="M61.528 78.319c0 .501.407.908.908.908.502 0 .909-.407.909-.908 0-.502-.407-.908-.909-.908-.501 0-.908.406-.908.908" transform="translate(-489 -3789) translate(491 3791) translate(8.43 10.96)"/>
                    <path stroke="#D1A448" stroke-width="1.875" d="M61.528 78.319c0 .501.407.908.908.908.502 0 .909-.407.909-.908 0-.502-.407-.908-.909-.908-.501 0-.908.406-.908.908z" transform="translate(-489 -3789) translate(491 3791) translate(8.43 10.96)"/>
                    <g>
                        <path fill="#000" d="M8.114 24.283L0.196 0.237" transform="translate(-489 -3789) translate(491 3791) translate(8.43 10.96) translate(71.83 66.097)"/>
                        <path stroke="#D1A448" stroke-linecap="round" stroke-linejoin="round" stroke-width="1.875" d="M8.114 24.283L0.196 0.237" transform="translate(-489 -3789) translate(491 3791) translate(8.43 10.96) translate(71.83 66.097)"/>
                    </g>
                    <g>
                        <path fill="#000" d="M0.546 32.05L0.165 0.282" transform="translate(-489 -3789) translate(491 3791) translate(8.43 10.96) translate(88.354 57.666)"/>
                        <path stroke="#D1A448" stroke-linecap="round" stroke-linejoin="round" stroke-width="1.875" d="M0.546 32.05L0.165 0.282" transform="translate(-489 -3789) translate(491 3791) translate(8.43 10.96) translate(88.354 57.666)"/>
                    </g>
                    <g>
                        <path fill="#000" d="M8.148 0.295L0.231 24.342" transform="translate(-489 -3789) translate(491 3791) translate(8.43 10.96) translate(97.46 65.76)"/>
                        <path stroke="#D1A448" stroke-linecap="round" stroke-linejoin="round" stroke-width="1.875" d="M8.148 0.295L0.231 24.342" transform="translate(-489 -3789) translate(491 3791) translate(8.43 10.96) translate(97.46 65.76)"/>
                    </g>
                    <path stroke="#44E7D9" stroke-linecap="round" stroke-linejoin="round" stroke-width="1.875" d="M49.303 205.812s2.749 1.25 4.498-1.249" transform="translate(-489 -3789) translate(491 3791) translate(8.43 10.96)"/>
                    <path stroke="#FFF" stroke-linecap="round" stroke-linejoin="round" stroke-width="1.875" d="M121.013 156.59s-1.75-.75-1.25-1.999 1.75-4.497 4.498-5.746c0 0 1.249-.25 1.749.5l-4.997 7.246zM42.932 163.961s4.497-.75 7.996-3.248c3.498-2.499 2.623-3.623 7.37-4.622 4.748-1 8.496-3.249 11.744-3.249 3.248 0 10.494 2 14.991 3.998 4.498 2 7.746 3.248 7.746 3.248M93.528 160.088s8.246.25 12.243 2.999c0 0 .75.75.75 1.749M101.274 164.086s5.996 1.25 6.746 2c.75.748 1 .999 1 2.248 0 1.25-1 1.25-1 1.25s-7.996-.501-8.995-1.75c0 0 .25-2.998 1.5-3.748" transform="translate(-489 -3789) translate(491 3791) translate(8.43 10.96)"/>
                    <path stroke="#FFF" stroke-linecap="round" stroke-linejoin="round" stroke-width="1.875" d="M99.525 168.084c-2.748-1-6.746-.25-6.746-.25s-2.749.25-6.996-.75c-4.248-1-7.746-.5-7.746-.5M76.788 166.335s5.746 3.248 6.746 3.748M84.284 169.583s7.745-1 9.244-1.499M106.52 163.336s3.499-3.248 5.248-4.996M112.268 157.84s4.247-7.496 7.745-7.496c0 0 1.75-.25 2 .25M120.513 157.34l-2.749 4.747s-4.497 5.747-5.996 7.496c-1.5 1.75-4.747 4.997-7.246 5.747-2.499.75-18.24 3.748-18.24 3.748s-2.998 1.249-4.247 0" transform="translate(-489 -3789) translate(491 3791) translate(8.43 10.96)"/>
                    <path stroke="#FFF" stroke-linecap="round" stroke-linejoin="round" stroke-width="1.875" d="M76.288 185.824s1.749.5 4.497 0c2.749-.5 5.248-.75 5.248-.75s2.498-1 6.246-1.999c3.748-1 8.245-2.998 10.744-3.497 0 0 2.748-1.25 3.998-2.25 1.249-.999 5.496-6.996 6.746-8.744 1.249-1.75 2.103-3.249 2.426-4.498" transform="translate(-489 -3789) translate(491 3791) translate(8.43 10.96)"/>
                    <path stroke="#FFF" stroke-linecap="round" stroke-linejoin="round" stroke-width="1.875" d="M103.023 179.578s-1.75 2.248-2.749 2.248c-1 0-9.494 2.249-10.993 2.748-1.5.5-7.246 2.5-8.246 2.749-1 .25-2.998-.5-2.998-.5s-9.744-3.248-13.242-3.997c-3.498-.75-4.998-1-10.245-1.25-5.247-.25-9.994 2.499-9.994 2.499M89.78 163.836s-1.749 2.14-.874 3.818M90.53 165.085s-.25 1.337-.75 2.668M91.78 164.836s.217 2.012-.767 3.005M105.518 174.924s-2.245-.844-2.495-3.842M106.52 174.346s-1.248-.266-1.498-1.265M107.423 173.714s-1.402-1.383-1.402-2.382M107.77 172.581s-1-1-1-1.249M114.516 158.84s.75 1.748 2 2.498M116.515 162.837s-.75-.5-1.499-1.5M105.521 175.58c.75.999 1.25 1.749 1.25 1.749M107.77 176.566s-.5-.487-1-.987M105.521 178.303s-.5-.724-.5-1.474" transform="translate(-489 -3789) translate(491 3791) translate(8.43 10.96)"/>
                    <path stroke="#44E7D9" stroke-linecap="round" stroke-linejoin="round" stroke-width="1.875" d="M25.567 145.097s-2.249-1.499-3.498.25v1s-1.999 0-2.249 1.498c0 0-5.996 6.997 2.749 13.493 0 0 7.244 3.644 7.995-2.249 0 0-.25-2.249-1.749-2-1.499.251-2.249 2.75 0 2.25" transform="translate(-489 -3789) translate(491 3791) translate(8.43 10.96)"/>
                    <path stroke="#44E7D9" stroke-linecap="round" stroke-linejoin="round" stroke-width="1.875" d="M20.32 149.345s-1.25 1.249-1.499 3.497c-.25 2.25 1.499 4.748 1.499 4.748M21.07 158.34s1 1.748 3.248 2.248M26.816 162.837s-1.25.5-.5 1c0 0-.999.999.5 1.748 0 0-.5 3.248 3.248 3.998s4.748-1.999 3.998-3.248c-.75-1.25-2.748.25-1.749 1M30.564 149.345s1.999-.25 2.249.75c.25.999-.25 1.998-.25 1.998s1.25-.25 1.25.75c0 0 1.998-1.75 4.497-.25 2.498 1.499 2.498 4.497 1.499 6.746-1 2.249-5.747 2.748-5.497-1 0 0 .25-1.749 1.749-.749" transform="translate(-489 -3789) translate(491 3791) translate(8.43 10.96)"/>
                    <path stroke="#44E7D9" stroke-linecap="round" stroke-linejoin="round" stroke-width="1.875" d="M32.813 150.094s3.498 1.75 4.747-1.25l.25-.998s.5 2.498 4.497 1.748c0 0 2.499-1.249 2-3.497 0 0 2.998.25 3.247-2 0 0 0-.5-.25-.75 0 0 .5-.999-.499-1.498 0 0-.25-.25-.75 0 0 0 .5-.5 0-1.25s-1.25 0-1.25 0 2.5-5.496-.998-8.745c-3.498-3.248-6.247-1.998-6.247-1.998s0-2-1.999-2.25c-1.998-.249-2.748 0-3.248.5 0 0-1-.999-2.748-.5-1.75.5-4.248 2.25-1.75 3 0 0 1.25 0 1-1M43.248 149.317s1.558.277 1.308 1.277c0 0 2.249-.5 1.25 1.499 0 0 4.247-1 4.747 2.998 0 0-.25 1.75-1.5 2.499 0 0 3.066-.435 2.658 2.53M46.055 152.842s2.999-.75 3.498 1.5M41.058 148.845c-2.249 0-2.748-2.249-2.748-2.249M26.317 130.355s-2.25.25-2.25 2.499c0 0-2.248-.25-2.498 1.75 0 0-1 .748-.5 1.498 0 0-2.998 1.25-2.248 4.248 0 0 .75 2.498 4.247 2.998 0 0-1.106.557.696 1.153" transform="translate(-489 -3789) translate(491 3791) translate(8.43 10.96)"/>
                    <path stroke="#44E7D9" stroke-linecap="round" stroke-linejoin="round" stroke-width="1.875" d="M36.81 133.604s1.5-.5 1.25 1.249c0 0 2.249-1.5 4.248.5 1.998 1.998 0 6.496-2.749 4.497-2.748-1.999 0-2.998.75-2.499M40.059 160.088s1.999 0 1.749 1.75c0 0 1 .999 0 1.498 0 0 2.248 2.749 0 4.748 0 0-1.75 1.25-3.249 0 0 0-1.249 3.248-4.497.5" transform="translate(-489 -3789) translate(491 3791) translate(8.43 10.96)"/>
                    <path stroke="#44E7D9" stroke-linecap="round" stroke-linejoin="round" stroke-width="1.875" d="M38.31 169.333s2.998-.5 2.998 2.249c0 2.748-1.5 2.498-1.5 2.498s3-.749 3.249 1c0 0 4.248-.75 4.747 2.748.5 3.498-1.749 5.997-4.497 4.998-2.749-1 .25-3.998 1.25-2.999M23.068 162.337s-3.997 1.25-1.998 4.248c0 0-1 .5-.5 1.499 0 0-1.999-.25-1.749 3.998.25 4.247 2.998 7.495 8.745 8.745 5.746 1.249 5.247-6.247 2.499-5.747-2.749.5-1.75 1.999-.5 1.999M20.32 169.333s-2.249 3.998 2.249 7.996M25.317 181.077s-.75.499-.75.75c0 0-3.747-.5-2.748 3.747 0 0-3.498 1.499-1.249 5.997 1.405 2.81 3.591 3.962 5.156 3.76.938-.122 1.652-.73 1.84-1.762.5-2.748-3.748-1.249-2.249 0M45.75 183.476s2.054.1 2.054 1.598c0 0 1-1.25 2.499 0 0 0 3.248-.5 2.748 2.749 0 0 1.5-.25 1.5 1.25 0 0 3.248-.501 2.998 3.497-.25 3.998-4.248 7.495-6.747 5.497-2.498-2-.25-4.748.75-3.998M56.05 191.07s1.499 3.749-2 5.747M54.05 199.566s2.5 2.249 1.25 4.747c-1.25 2.499-5.497 4.248-7.495 2 0 0-.75 1.248-2.75.249-1.998-1-1.248-2.499-.499-2.748M54.05 203.564s.75-2-.998-3.249M26.067 196.068s.25 1.999 2.498 1.499c0 0 .5 2.498 3.998 1 0 0-1.25 3.747 3.748 3.248 0 0 .25 1.25 1.25.75 0 0 1.998 4.746 6.246.5 0 0 1.499-2 .75-3.499-.75-1.499-3.249-1-2.999 1M39.31 202.814s1.998 2.249 3.747-1M36.81 186.323s-1.749.75-.999 2c0 0-1.999 3.747 1.999 3.747 0 0 1.75-1 0-1.999M24.568 183.075s-2.499.25-1.5 2.499M21.82 187.323s-2.75 2.748 1.998 6.496M43.807 175.83s2.998.194 2.998 2.498M39.809 167.334s2.498.5 1.999-2.498M27.566 166.335s1.5 3.248 4.747 2.249M35.561 158.59s0 1.498 1.5 1.498M34.312 153.592s2.998-1.499 4.747 1.25M21.07 137.351s-2.499 1.75-.75 3.498M26.816 131.105s-2.498.75-1.749 2.498c0 0-2.748-.25-2.498 1.5M40.059 139.1s1.499.75 1.999-1.249M38.31 130.855s3.997-.25 4.997 2.999M29.565 196.068s.75 2.498 2.748.75M33.563 198.566s.25 2.499 2.748 2" transform="translate(-489 -3789) translate(491 3791) translate(8.43 10.96)"/>
                    <path stroke="#D1A448" stroke-linecap="round" stroke-linejoin="round" stroke-width="1.875" d="M102.272 161.49c8.158-4.607 13.666-13.358 13.666-23.396 0-14.83-12.022-26.852-26.851-26.852-14.83 0-26.852 12.022-26.852 26.852 0 5.56 1.69 10.727 4.586 15.013" transform="translate(-489 -3789) translate(491 3791) translate(8.43 10.96)"/>
                    <path stroke="#D1A448" stroke-linecap="round" stroke-linejoin="round" stroke-width="1.875" d="M74.412 153.444L89.269 112.44 105.716 157.987 64.708 130.451 113.603 130.451 78.111 154.383" transform="translate(-489 -3789) translate(491 3791) translate(8.43 10.96)"/>
                    <path stroke="#D1A448" stroke-linecap="round" stroke-linejoin="round" stroke-width="1.875" d="M106.021 162.885c7.918-5.411 13.114-14.511 13.114-24.825 0-16.595-13.453-30.049-30.048-30.049-16.596 0-30.048 13.454-30.048 30.049 0 6.026 1.773 11.638 4.828 16.342" transform="translate(-489 -3789) translate(491 3791) translate(8.43 10.96)"/>
                    <path fill="#FFF" d="M132.409 185.825c.201.133.256.405.123.606-.133.202-.405.257-.607.124-.201-.134-.256-.405-.123-.607.134-.201.405-.257.607-.123M113.203 201.011c.172-.259.521-.33.78-.158.26.172.33.52.159.78-.172.259-.521.33-.78.158-.26-.171-.33-.52-.159-.78M139.035 163.346c.26.172.33.521.159.78-.172.26-.521.33-.78.159-.26-.172-.33-.521-.159-.78.172-.26.521-.33.78-.159M125.66 196.987c.346.229.44.695.212 1.04-.23.346-.695.44-1.04.211-.346-.228-.44-.694-.212-1.04.23-.345.695-.44 1.04-.211M110.83 189.778c.26.171.33.52.159.78-.172.259-.521.33-.78.158-.26-.172-.33-.52-.158-.78.171-.26.52-.33.78-.158M139.462 180.373c.144.095.183.289.088.433-.095.144-.29.183-.433.088-.144-.095-.184-.29-.088-.433.095-.144.29-.184.433-.088M122.805 185.365c.202.134.257.406.123.607-.133.202-.405.257-.606.124-.202-.134-.257-.406-.123-.607.133-.202.405-.257.606-.124M132.278 176.32c.171-.259.52-.33.78-.158.259.172.33.521.158.78-.172.26-.52.33-.78.158-.259-.17-.33-.52-.158-.78M37.062 64.669c-.214-.113-.296-.378-.183-.592.112-.214.378-.296.591-.183.214.113.296.378.183.592-.113.214-.378.296-.591.183M55.34 54.396c-.145.274-.486.38-.76.235-.276-.145-.38-.486-.236-.76.145-.276.486-.38.76-.236.276.145.38.486.236.76M63.05 55.994c-.276-.145-.38-.485-.236-.76.145-.275.486-.38.76-.235.275.145.38.485.236.76-.145.275-.486.38-.76.235M40.983 55.927c-.367-.194-.507-.648-.314-1.014.194-.367.648-.507 1.014-.314.367.194.508.647.314 1.014s-.648.507-1.014.314M53.42 63.652c-.275-.145-.38-.485-.235-.76.145-.275.485-.38.76-.235.275.145.38.485.235.76-.145.275-.485.38-.76.235M31.259 77.538c-.153-.08-.211-.27-.131-.422.08-.153.27-.211.422-.13.153.08.212.27.13.422-.08.152-.269.211-.421.13M47.338 70.917c-.214-.113-.295-.377-.183-.592.113-.213.378-.295.592-.182.213.113.295.377.182.591-.113.214-.377.296-.591.183M38.81 80.857c-.146.275-.486.38-.76.235-.275-.144-.381-.485-.236-.76.145-.275.486-.38.76-.235.276.145.38.486.236.76" transform="translate(-489 -3789) translate(491 3791) translate(8.43 10.96)"/>
                </g>
            </g>
        </g>
    </g>
</svg>
