<svg xmlns="http://www.w3.org/2000/svg" width="191" height="267" viewBox="0 0 191 267"><title>Рыцарь Мечей</title>
    <g fill="none" fill-rule="evenodd">
        <g>
            <g>
                <g>
                    <path fill="#1a1d24" stroke="#FFF" stroke-linecap="round" stroke-linejoin="round" stroke-width="2.5" d="M177.795 263.217H9.62c-5.22 0-9.452-4.192-9.452-9.365V9.365C.17 4.193 4.401 0 9.621 0h168.174c5.22 0 9.452 4.193 9.452 9.365v244.487c0 5.173-4.232 9.365-9.452 9.365z" transform="translate(-1067 -987) translate(1069 989) translate(0 .167)"/>
                    <path stroke="#FFF" stroke-linecap="round" stroke-linejoin="round" stroke-width="1.25" d="M93.558 126.151s-14.972-9.727-16.567-11.307c-1.596-1.58-3.068-17.994-3.068-17.994l2.7 3.647 16.935-3.161M93.616 126.122s14.972-9.727 16.567-11.307c1.596-1.58 3.068-17.994 3.068-17.994l-2.7 3.647-16.935-3.161" transform="translate(-1067 -987) translate(1069 989) translate(0 .167)"/>
                    <path stroke="#FFF" stroke-linecap="round" stroke-linejoin="round" stroke-width="1.25" d="M81.163 102.595L85.213 101.713 85.213 116.911 81.163 114.482zM87.667 101.19L91.656 100.499 91.656 121.044 87.667 118.585zM77.175 103.782L78.831 103.176 78.831 113.142 77.666 111.958zM105.98 102.648L101.931 101.766 101.931 116.964 105.98 114.535zM99.476 101.243L95.488 100.551 95.488 121.097 99.476 118.638zM109.969 103.835L108.312 103.229 108.312 113.195 109.478 112.011zM81.661 99.556L81.661 96.363 93.558 94.053M105.523 99.524L105.523 96.331 93.627 94.021M74.684 97.878s2.035-13.47 11.02-17.685c8.34-3.913 7.677-7.144 7.854-7.538" transform="translate(-1067 -987) translate(1069 989) translate(0 .167)"/>
                    <path stroke="#FFF" stroke-linecap="round" stroke-linejoin="round" stroke-width="1.25" d="M112.46 97.93s-2.035-13.47-11.02-17.684c-8.34-3.913-7.677-7.145-7.854-7.538v9.612s1.015 4.013 5.8 2.554c0 0 3.682 3.769 9.082 2.675M93.522 82.298s-1.015 4.012-5.8 2.553c0 0-3.682 3.77-9.082 2.675" transform="translate(-1067 -987) translate(1069 989) translate(0 .167)"/>
                    <path fill="#FFF" d="M92.944 88.278c0 .302.247.547.552.547.305 0 .553-.245.553-.547 0-.302-.248-.547-.553-.547-.305 0-.552.245-.552.547M87.176 89.372c0 .302.247.547.553.547.304 0 .552-.245.552-.547 0-.302-.248-.547-.552-.547-.306 0-.553.245-.553.547M81.408 90.467c0 .302.248.547.553.547.305 0 .552-.245.552-.547 0-.303-.247-.548-.552-.548-.305 0-.553.245-.553.548M100.062 89.372c0 .302-.247.547-.553.547-.304 0-.552-.245-.552-.547 0-.302.248-.547.552-.547.306 0 .553.245.553.547M105.83 90.467c0 .302-.248.547-.553.547-.305 0-.552-.245-.552-.547 0-.303.247-.548.552-.548.305 0 .553.245.553.548" transform="translate(-1067 -987) translate(1069 989) translate(0 .167)"/>
                    <path stroke="#FFF" stroke-linecap="round" stroke-linejoin="round" stroke-width="1.25" d="M79.389 116.671s-.19 6.927-6.448 8.507c0 0 8.283 8.329 20.555 8.329M107.93 116.593s.19 6.927 6.449 8.508c0 0-8.284 8.328-20.555 8.328" transform="translate(-1067 -987) translate(1069 989) translate(0 .167)"/>
                    <path stroke="#44E7D9" stroke-linecap="round" stroke-linejoin="round" stroke-width="1.25" d="M89.792 77.77s-11.202-7.148-7.785-16.365c0 0 .855-1.787 1.804-2.54 0 0-.95 2.634 1.33 7.148 0 0-2.659-10.722 8.543-14.86 0 0 3.987-1.129 8.354 1.129 4.367 2.257 8.544 7.712 16.329 9.405 0 0-2.848 1.128-5.886 0 0 0 4.177 11.663 8.164 12.415 3.987.752 4.177-3.762 2.658-6.396 0 0 3.228 3.95 1.33 9.97-1.9 6.02-9.114 3.01-10.633 2.069l-3.038-1.881s.76 1.881 1.899 2.446c0 0-2.089.376-4.937-2.822-2.848-3.198-3.987-6.772-7.025-5.455-3.038 1.317-2.658 3.197-2.658 3.197s2.468-1.128 4.177-1.128c0 0-3.228 2.445-3.797 4.138" transform="translate(-1067 -987) translate(1069 989) translate(0 .167)"/>
                </g>
                <path fill="#D1A448" fill-rule="nonzero" d="M58.096 252.099v-10.816h-.812V252.1h.812zm4.45 0l-2.47-5.392 2.355-5.424h-.893l-2.354 5.457 2.452 5.359h.91zm2.338 0v-6.139l-.031-3.138-.001-.09v-.052c.4 1.04 1.634 4.179 3.702 9.419h1.072v-10.816h-.812v6.171l.032 3.28c-.13-.346-1.364-3.496-3.703-9.45h-1.055v10.815h.796zm7.99 0v-10.816h-.813V252.1h.812zm4.928.081c.85 0 1.632-.211 2.347-.633v-4.628h-.812v4.14c-.368.26-.937.39-1.705.39-1.116 0-1.673-.487-1.673-1.461v-6.496c0-1.029.644-1.543 1.932-1.543.672 0 1.327.103 1.965.309v-.796c-.606-.173-1.234-.26-1.883-.26-1.884 0-2.826.763-2.826 2.29v6.496c0 .768.23 1.326.69 1.672.46.347 1.115.52 1.965.52zm5.513-.081v-4.937h3.8v4.937h.829v-10.816h-.829v5.148h-3.8v-5.148h-.812V252.1h.812zm8.965 0v-10.085h2.143v-.73h-5.099v.73h2.144V252.1h.812zm9.029.162c.855 0 1.5-.23 1.932-.69.433-.46.65-1.058.65-1.794v-6.171c0-.737-.217-1.335-.65-1.795-.433-.46-1.077-.69-1.932-.69-.856 0-1.5.23-1.933.69-.433.46-.65 1.058-.65 1.795v6.17c0 .737.217 1.335.65 1.795.433.46 1.077.69 1.933.69zm0-.73c-1.18 0-1.77-.585-1.77-1.754v-6.171c0-1.17.59-1.754 1.77-1.754 1.18 0 1.77.584 1.77 1.754v6.17c0 1.17-.59 1.755-1.77 1.755zm5.667.568v-4.92h3.378v-.731h-3.378v-4.434h3.524v-.73h-4.336v10.815h.812zm8.104 0l.73-3.167h3.086l.73 3.167h.845l-2.533-10.816h-1.17l-2.533 10.816h.845zm3.654-3.898h-2.761l1.38-5.992 1.38 5.992zm4.092 3.898v-10.816h-.812V252.1h.812zm3.248 0v-4.466h1.575c.173 0 .303-.005.39-.016l1.608 4.482h.893l-1.705-4.66c.93-.347 1.396-1.094 1.396-2.242v-1.478c0-.736-.216-1.326-.65-1.77-.432-.444-1.077-.666-1.932-.666h-2.387V252.1h.812zm1.575-5.23h-1.575v-4.855h1.575c1.18 0 1.77.569 1.77 1.705v1.478c0 1.115-.59 1.673-1.77 1.673z" transform="translate(-1067 -987) translate(1069 989)"/>
                <g>
                    <path stroke="#FFF" stroke-linecap="round" stroke-linejoin="round" stroke-width="1.875" d="M15.841 5.512L163.945 5.512 163.945 226.602M153.877 239.447L127.608 239.447M5.448 16.362L5.448 239.447 41.629 239.447" transform="translate(-1067 -987) translate(1069 989) translate(8.784 9.205)"/>
                    <path fill="#000" d="M118.244 204.678L107.225 192.665 110.671 189.562 121.69 201.575z" transform="translate(-1067 -987) translate(1069 989) translate(8.784 9.205)"/>
                    <path stroke="#D1A448" stroke-linecap="round" stroke-linejoin="round" stroke-width="1.875" d="M118.244 204.678L107.225 192.665 110.671 189.562 121.69 201.575z" transform="translate(-1067 -987) translate(1069 989) translate(8.784 9.205)"/>
                    <path fill="#000" d="M123.598 202.512L122.96 201.817 122.322 201.122 117.855 205.143 119.131 206.535z" transform="translate(-1067 -987) translate(1069 989) translate(8.784 9.205)"/>
                    <path stroke="#D1A448" stroke-linecap="round" stroke-linejoin="round" stroke-width="1.875" d="M123.598 202.512L122.96 201.817 122.322 201.122 117.855 205.143 119.131 206.535z" transform="translate(-1067 -987) translate(1069 989) translate(8.784 9.205)"/>
                    <g>
                        <path fill="#000" d="M0.191 4.28L4.659 0.258" transform="translate(-1067 -987) translate(1069 989) translate(8.784 9.205) translate(118.243 201.495)"/>
                        <path stroke="#D1A448" stroke-linecap="round" stroke-linejoin="round" stroke-width="1.875" d="M0.191 4.28L4.659 0.258" transform="translate(-1067 -987) translate(1069 989) translate(8.784 9.205) translate(118.243 201.495)"/>
                    </g>
                    <g>
                        <path fill="#000" d="M2.72.194s.846 1.201-.186 2.362c0 0-1.102.992-2.419-.016" transform="translate(-1067 -987) translate(1069 989) translate(8.784 9.205) translate(119.932 203.169)"/>
                        <path stroke="#D1A448" stroke-linecap="round" stroke-linejoin="round" stroke-width="1.875" d="M2.72.194s.846 1.201-.186 2.362c0 0-1.102.992-2.419-.016" transform="translate(-1067 -987) translate(1069 989) translate(8.784 9.205) translate(119.932 203.169)"/>
                    </g>
                    <g>
                        <path fill="#000" d="M54.433 54.596L8.159 5.753 0.132 0.05 4.713 8.856 49.258 59.255" transform="translate(-1067 -987) translate(1069 989) translate(8.784 9.205) translate(55.068 132.21)"/>
                        <path stroke="#D1A448" stroke-linecap="round" stroke-linejoin="round" stroke-width="1.875" d="M54.433 54.596L8.159 5.753 0.132 0.05 4.713 8.856 49.258 59.255" transform="translate(-1067 -987) translate(1069 989) translate(8.784 9.205) translate(55.068 132.21)"/>
                    </g>
                    <g>
                        <path fill="#000" d="M17.877 18.966L0.319 0.141" transform="translate(-1067 -987) translate(1069 989) translate(8.784 9.205) translate(89.19 170.033)"/>
                        <path stroke="#D1A448" stroke-linecap="round" stroke-linejoin="round" stroke-width="1.875" d="M17.877 18.966L0.319 0.141" transform="translate(-1067 -987) translate(1069 989) translate(8.784 9.205) translate(89.19 170.033)"/>
                    </g>
                    <g>
                        <path fill="#000" d="M1.091 1.194L0.163 0.173" transform="translate(-1067 -987) translate(1069 989) translate(8.784 9.205) translate(87.838 168.359)"/>
                        <path stroke="#D1A448" stroke-linecap="round" stroke-linejoin="round" stroke-width="1.875" d="M1.091 1.194L0.163 0.173" transform="translate(-1067 -987) translate(1069 989) translate(8.784 9.205) translate(87.838 168.359)"/>
                    </g>
                    <g>
                        <path fill="#000" d="M0.374 0.338L0.607 0.593" transform="translate(-1067 -987) translate(1069 989) translate(8.784 9.205) translate(87.162 167.69)"/>
                        <path stroke="#D1A448" stroke-linecap="round" stroke-linejoin="round" stroke-width="1.875" d="M0.374 0.338L0.607 0.593" transform="translate(-1067 -987) translate(1069 989) translate(8.784 9.205) translate(87.162 167.69)"/>
                    </g>
                    <g>
                        <path fill="#000" d="M31.889 35.182L0.132 0.051" transform="translate(-1067 -987) translate(1069 989) translate(8.784 9.205) translate(55.068 132.21)"/>
                        <path stroke="#D1A448" stroke-linecap="round" stroke-linejoin="round" stroke-width="1.875" d="M31.889 35.182L0.132 0.051" transform="translate(-1067 -987) translate(1069 989) translate(8.784 9.205) translate(55.068 132.21)"/>
                    </g>
                    <g>
                        <path fill="#000" d="M1.827 0.435L0.134 0.11" transform="translate(-1067 -987) translate(1069 989) translate(8.784 9.205) translate(102.365 186.768)"/>
                        <path stroke="#D1A448" stroke-linecap="round" stroke-linejoin="round" stroke-width="1.875" d="M1.827 0.435L0.134 0.11" transform="translate(-1067 -987) translate(1069 989) translate(8.784 9.205) translate(102.365 186.768)"/>
                    </g>
                    <g>
                        <path fill="#000" d="M1.454 0.49L0.004 0.177" transform="translate(-1067 -987) translate(1069 989) translate(8.784 9.205) translate(102.703 187.437)"/>
                        <path stroke="#D1A448" stroke-linecap="round" stroke-linejoin="round" stroke-width="1.875" d="M1.454 0.49L0.004 0.177" transform="translate(-1067 -987) translate(1069 989) translate(8.784 9.205) translate(102.703 187.437)"/>
                    </g>
                    <g>
                        <path fill="#000" d="M1.131 0.345L0.284 0.182" transform="translate(-1067 -987) translate(1069 989) translate(8.784 9.205) translate(102.365 186.099)"/>
                        <path stroke="#D1A448" stroke-linecap="round" stroke-linejoin="round" stroke-width="1.875" d="M1.131 0.345L0.284 0.182" transform="translate(-1067 -987) translate(1069 989) translate(8.784 9.205) translate(102.365 186.099)"/>
                    </g>
                    <path fill="#000" d="M115.643 185.201L102.369 197.152 100.397 195.003 113.671 183.051z" transform="translate(-1067 -987) translate(1069 989) translate(8.784 9.205)"/>
                    <path stroke="#D1A448" stroke-linecap="round" stroke-linejoin="round" stroke-width="1.875" d="M115.643 185.201L102.369 197.152 100.397 195.003 113.671 183.051z" transform="translate(-1067 -987) translate(1069 989) translate(8.784 9.205)"/>
                    <g>
                        <path fill="#000" d="M13.585 0.307L0.311 12.259" transform="translate(-1067 -987) translate(1069 989) translate(8.784 9.205) translate(101.014 183.756)"/>
                        <path stroke="#D1A448" stroke-linecap="round" stroke-linejoin="round" stroke-width="1.875" d="M13.585 0.307L0.311 12.259" transform="translate(-1067 -987) translate(1069 989) translate(8.784 9.205) translate(101.014 183.756)"/>
                    </g>
                    <g>
                        <path fill="#000" d="M3.722 0.041L0.33 3.074" transform="translate(-1067 -987) translate(1069 989) translate(8.784 9.205) translate(116.892 200.491)"/>
                        <path stroke="#D1A448" stroke-linecap="round" stroke-linejoin="round" stroke-width="1.875" d="M3.722 0.041L0.33 3.074" transform="translate(-1067 -987) translate(1069 989) translate(8.784 9.205) translate(116.892 200.491)"/>
                    </g>
                    <g>
                        <path fill="#000" d="M3.496 0.3L0.104 3.332" transform="translate(-1067 -987) translate(1069 989) translate(8.784 9.205) translate(115.878 198.818)"/>
                        <path stroke="#D1A448" stroke-linecap="round" stroke-linejoin="round" stroke-width="1.875" d="M3.496 0.3L0.104 3.332" transform="translate(-1067 -987) translate(1069 989) translate(8.784 9.205) translate(115.878 198.818)"/>
                    </g>
                    <g>
                        <path fill="#000" d="M3.597 0.029L0.206 3.061" transform="translate(-1067 -987) translate(1069 989) translate(8.784 9.205) translate(114.527 197.813)"/>
                        <path stroke="#D1A448" stroke-linecap="round" stroke-linejoin="round" stroke-width="1.875" d="M3.597 0.029L0.206 3.061" transform="translate(-1067 -987) translate(1069 989) translate(8.784 9.205) translate(114.527 197.813)"/>
                    </g>
                    <g>
                        <path fill="#000" d="M3.709 0.287L0.317 3.32" transform="translate(-1067 -987) translate(1069 989) translate(8.784 9.205) translate(113.176 196.14)"/>
                        <path stroke="#D1A448" stroke-linecap="round" stroke-linejoin="round" stroke-width="1.875" d="M3.709 0.287L0.317 3.32" transform="translate(-1067 -987) translate(1069 989) translate(8.784 9.205) translate(113.176 196.14)"/>
                    </g>
                    <g>
                        <path fill="#000" d="M3.571 0.115L0.179 3.147" transform="translate(-1067 -987) translate(1069 989) translate(8.784 9.205) translate(111.824 194.801)"/>
                        <path stroke="#D1A448" stroke-linecap="round" stroke-linejoin="round" stroke-width="1.875" d="M3.571 0.115L0.179 3.147" transform="translate(-1067 -987) translate(1069 989) translate(8.784 9.205) translate(111.824 194.801)"/>
                    </g>
                    <g>
                        <path fill="#000" d="M3.988 0.018L0.292 3.071" transform="translate(-1067 -987) translate(1069 989) translate(8.784 9.205) translate(110.473 193.462)"/>
                        <path stroke="#D1A448" stroke-linecap="round" stroke-linejoin="round" stroke-width="1.875" d="M3.988 0.018L0.292 3.071" transform="translate(-1067 -987) translate(1069 989) translate(8.784 9.205) translate(110.473 193.462)"/>
                    </g>
                    <g>
                        <path fill="#000" d="M3.447 0.102L0.055 3.134" transform="translate(-1067 -987) translate(1069 989) translate(8.784 9.205) translate(109.46 192.123)"/>
                        <path stroke="#D1A448" stroke-linecap="round" stroke-linejoin="round" stroke-width="1.875" d="M3.447 0.102L0.055 3.134" transform="translate(-1067 -987) translate(1069 989) translate(8.784 9.205) translate(109.46 192.123)"/>
                    </g>
                    <g>
                        <path fill="#000" d="M3.559 0.026L0.167 3.058" transform="translate(-1067 -987) translate(1069 989) translate(8.784 9.205) translate(108.108 190.785)"/>
                        <path stroke="#D1A448" stroke-linecap="round" stroke-linejoin="round" stroke-width="1.875" d="M3.559 0.026L0.167 3.058" transform="translate(-1067 -987) translate(1069 989) translate(8.784 9.205) translate(108.108 190.785)"/>
                    </g>
                    <path fill="#000" d="M56.162 204.678L67.181 192.665 63.735 189.562 52.716 201.575z" transform="translate(-1067 -987) translate(1069 989) translate(8.784 9.205)"/>
                    <path stroke="#D1A448" stroke-linecap="round" stroke-linejoin="round" stroke-width="1.875" d="M56.162 204.678L67.181 192.665 63.735 189.562 52.716 201.575z" transform="translate(-1067 -987) translate(1069 989) translate(8.784 9.205)"/>
                    <path fill="#000" d="M50.808 202.512L51.445 201.817 52.083 201.122 56.551 205.143 55.275 206.535z" transform="translate(-1067 -987) translate(1069 989) translate(8.784 9.205)"/>
                    <path stroke="#D1A448" stroke-linecap="round" stroke-linejoin="round" stroke-width="1.875" d="M50.808 202.512L51.445 201.817 52.083 201.122 56.551 205.143 55.275 206.535z" transform="translate(-1067 -987) translate(1069 989) translate(8.784 9.205)"/>
                    <g>
                        <path fill="#000" d="M4.62 4.28L0.152 0.258" transform="translate(-1067 -987) translate(1069 989) translate(8.784 9.205) translate(51.351 201.495)"/>
                        <path stroke="#D1A448" stroke-linecap="round" stroke-linejoin="round" stroke-width="1.875" d="M4.62 4.28L0.152 0.258" transform="translate(-1067 -987) translate(1069 989) translate(8.784 9.205) translate(51.351 201.495)"/>
                    </g>
                    <g>
                        <path fill="#000" d="M.401.194s-.846 1.201.187 2.362c0 0 1.101.992 2.419-.016" transform="translate(-1067 -987) translate(1069 989) translate(8.784 9.205) translate(51.351 203.169)"/>
                        <path stroke="#D1A448" stroke-linecap="round" stroke-linejoin="round" stroke-width="1.875" d="M.401.194s-.846 1.201.187 2.362c0 0 1.101.992 2.419-.016" transform="translate(-1067 -987) translate(1069 989) translate(8.784 9.205) translate(51.351 203.169)"/>
                    </g>
                    <g>
                        <path fill="#000" d="M0.04 54.596L46.314 5.753 54.341 0.05 49.761 8.856 5.215 59.255" transform="translate(-1067 -987) translate(1069 989) translate(8.784 9.205) translate(64.865 132.21)"/>
                        <path stroke="#D1A448" stroke-linecap="round" stroke-linejoin="round" stroke-width="1.875" d="M0.04 54.596L46.314 5.753 54.341 0.05 49.761 8.856 5.215 59.255" transform="translate(-1067 -987) translate(1069 989) translate(8.784 9.205) translate(64.865 132.21)"/>
                    </g>
                    <g>
                        <path fill="#000" d="M0.11 18.966L17.668 0.141" transform="translate(-1067 -987) translate(1069 989) translate(8.784 9.205) translate(67.23 170.033)"/>
                        <path stroke="#D1A448" stroke-linecap="round" stroke-linejoin="round" stroke-width="1.875" d="M0.11 18.966L17.668 0.141" transform="translate(-1067 -987) translate(1069 989) translate(8.784 9.205) translate(67.23 170.033)"/>
                    </g>
                    <g>
                        <path fill="#000" d="M0.004 1.194L0.932 0.173" transform="translate(-1067 -987) translate(1069 989) translate(8.784 9.205) translate(85.473 168.359)"/>
                        <path stroke="#D1A448" stroke-linecap="round" stroke-linejoin="round" stroke-width="1.875" d="M0.004 1.194L0.932 0.173" transform="translate(-1067 -987) translate(1069 989) translate(8.784 9.205) translate(85.473 168.359)"/>
                    </g>
                    <g>
                        <path fill="#000" d="M0.382 0.338L0.15 0.593" transform="translate(-1067 -987) translate(1069 989) translate(8.784 9.205) translate(86.486 167.69)"/>
                        <path stroke="#D1A448" stroke-linecap="round" stroke-linejoin="round" stroke-width="1.875" d="M0.382 0.338L0.15 0.593" transform="translate(-1067 -987) translate(1069 989) translate(8.784 9.205) translate(86.486 167.69)"/>
                    </g>
                    <g>
                        <path fill="#000" d="M0.287 35.182L32.044 0.051" transform="translate(-1067 -987) translate(1069 989) translate(8.784 9.205) translate(87.162 132.21)"/>
                        <path stroke="#D1A448" stroke-linecap="round" stroke-linejoin="round" stroke-width="1.875" d="M0.287 35.182L32.044 0.051" transform="translate(-1067 -987) translate(1069 989) translate(8.784 9.205) translate(87.162 132.21)"/>
                    </g>
                    <g>
                        <path fill="#000" d="M0.281 0.435L1.975 0.11" transform="translate(-1067 -987) translate(1069 989) translate(8.784 9.205) translate(69.932 186.768)"/>
                        <path stroke="#D1A448" stroke-linecap="round" stroke-linejoin="round" stroke-width="1.875" d="M0.281 0.435L1.975 0.11" transform="translate(-1067 -987) translate(1069 989) translate(8.784 9.205) translate(69.932 186.768)"/>
                    </g>
                    <g>
                        <path fill="#000" d="M0.316 0.49L1.766 0.177" transform="translate(-1067 -987) translate(1069 989) translate(8.784 9.205) translate(69.932 187.437)"/>
                        <path stroke="#D1A448" stroke-linecap="round" stroke-linejoin="round" stroke-width="1.875" d="M0.316 0.49L1.766 0.177" transform="translate(-1067 -987) translate(1069 989) translate(8.784 9.205) translate(69.932 187.437)"/>
                    </g>
                    <g>
                        <path fill="#000" d="M0.301 0.345L1.148 0.182" transform="translate(-1067 -987) translate(1069 989) translate(8.784 9.205) translate(70.608 186.099)"/>
                        <path stroke="#D1A448" stroke-linecap="round" stroke-linejoin="round" stroke-width="1.875" d="M0.301 0.345L1.148 0.182" transform="translate(-1067 -987) translate(1069 989) translate(8.784 9.205) translate(70.608 186.099)"/>
                    </g>
                    <path fill="#000" d="M58.763 185.201L72.037 197.152 74.009 195.003 60.734 183.051z" transform="translate(-1067 -987) translate(1069 989) translate(8.784 9.205)"/>
                    <path stroke="#D1A448" stroke-linecap="round" stroke-linejoin="round" stroke-width="1.875" d="M58.763 185.201L72.037 197.152 74.009 195.003 60.734 183.051z" transform="translate(-1067 -987) translate(1069 989) translate(8.784 9.205)"/>
                    <g>
                        <path fill="#000" d="M0.009 0.307L13.283 12.259" transform="translate(-1067 -987) translate(1069 989) translate(8.784 9.205) translate(59.797 183.756)"/>
                        <path stroke="#D1A448" stroke-linecap="round" stroke-linejoin="round" stroke-width="1.875" d="M0.009 0.307L13.283 12.259" transform="translate(-1067 -987) translate(1069 989) translate(8.784 9.205) translate(59.797 183.756)"/>
                    </g>
                    <g>
                        <path fill="#000" d="M0.076 0.041L3.467 3.074" transform="translate(-1067 -987) translate(1069 989) translate(8.784 9.205) translate(53.716 200.491)"/>
                        <path stroke="#D1A448" stroke-linecap="round" stroke-linejoin="round" stroke-width="1.875" d="M0.076 0.041L3.467 3.074" transform="translate(-1067 -987) translate(1069 989) translate(8.784 9.205) translate(53.716 200.491)"/>
                    </g>
                    <g>
                        <path fill="#000" d="M0.301 0.3L3.693 3.332" transform="translate(-1067 -987) translate(1069 989) translate(8.784 9.205) translate(54.73 198.818)"/>
                        <path stroke="#D1A448" stroke-linecap="round" stroke-linejoin="round" stroke-width="1.875" d="M0.301 0.3L3.693 3.332" transform="translate(-1067 -987) translate(1069 989) translate(8.784 9.205) translate(54.73 198.818)"/>
                    </g>
                    <g>
                        <path fill="#000" d="M0.2 0.029L3.592 3.061" transform="translate(-1067 -987) translate(1069 989) translate(8.784 9.205) translate(56.081 197.813)"/>
                        <path stroke="#D1A448" stroke-linecap="round" stroke-linejoin="round" stroke-width="1.875" d="M0.2 0.029L3.592 3.061" transform="translate(-1067 -987) translate(1069 989) translate(8.784 9.205) translate(56.081 197.813)"/>
                    </g>
                    <g>
                        <path fill="#000" d="M0.088 0.287L3.48 3.32" transform="translate(-1067 -987) translate(1069 989) translate(8.784 9.205) translate(57.432 196.14)"/>
                        <path stroke="#D1A448" stroke-linecap="round" stroke-linejoin="round" stroke-width="1.875" d="M0.088 0.287L3.48 3.32" transform="translate(-1067 -987) translate(1069 989) translate(8.784 9.205) translate(57.432 196.14)"/>
                    </g>
                    <g>
                        <path fill="#000" d="M0.226 0.115L3.618 3.147" transform="translate(-1067 -987) translate(1069 989) translate(8.784 9.205) translate(58.784 194.801)"/>
                        <path stroke="#D1A448" stroke-linecap="round" stroke-linejoin="round" stroke-width="1.875" d="M0.226 0.115L3.618 3.147" transform="translate(-1067 -987) translate(1069 989) translate(8.784 9.205) translate(58.784 194.801)"/>
                    </g>
                    <g>
                        <path fill="#000" d="M0.147 0.018L3.843 3.071" transform="translate(-1067 -987) translate(1069 989) translate(8.784 9.205) translate(59.797 193.462)"/>
                        <path stroke="#D1A448" stroke-linecap="round" stroke-linejoin="round" stroke-width="1.875" d="M0.147 0.018L3.843 3.071" transform="translate(-1067 -987) translate(1069 989) translate(8.784 9.205) translate(59.797 193.462)"/>
                    </g>
                    <g>
                        <path fill="#000" d="M0.013 0.102L3.404 3.134" transform="translate(-1067 -987) translate(1069 989) translate(8.784 9.205) translate(61.486 192.123)"/>
                        <path stroke="#D1A448" stroke-linecap="round" stroke-linejoin="round" stroke-width="1.875" d="M0.013 0.102L3.404 3.134" transform="translate(-1067 -987) translate(1069 989) translate(8.784 9.205) translate(61.486 192.123)"/>
                    </g>
                    <g>
                        <path fill="#000" d="M0.238 0.026L3.63 3.058" transform="translate(-1067 -987) translate(1069 989) translate(8.784 9.205) translate(62.5 190.785)"/>
                        <path stroke="#D1A448" stroke-linecap="round" stroke-linejoin="round" stroke-width="1.875" d="M0.238 0.026L3.63 3.058" transform="translate(-1067 -987) translate(1069 989) translate(8.784 9.205) translate(62.5 190.785)"/>
                    </g>
                    <path fill="#FFF" d="M66.154 133.069L65.797 131.459 64.221 130.862 65.845 130.66 66.295 128.947 66.652 130.707 68.229 131.002 66.604 131.356zM111.277 112.616L110.646 109.772 107.86 108.718 110.731 108.359 111.526 105.332 112.157 108.443 114.943 108.964 112.072 109.589zM139.861 131.504L139.385 129.359 137.285 128.565 139.449 128.294 140.049 126.012 140.525 128.358 142.625 128.75 140.461 129.222zM74.481 106.129c-.073-.173.008-.372.183-.445.175-.073.376.008.45.181.073.173-.009.373-.184.446-.174.072-.375-.009-.449-.182M136.042 74.285c-.133-.312.015-.67.33-.802.314-.13.676.016.809.327.132.312-.016.67-.33.802-.315.13-.677-.016-.81-.327M85.064 139.175c-.133-.311.015-.67.33-.801.314-.131.676.015.808.327.133.312-.015.67-.33.801-.314.131-.676-.015-.808-.327M131.812 111.624c-.074-.173.008-.372.183-.445.175-.073.376.008.45.182.073.173-.01.372-.184.445-.175.073-.376-.008-.45-.182M110.037 130.9c0 .339-.277.612-.618.612-.341 0-.617-.273-.617-.612 0-.338.276-.611.617-.611.341 0 .618.273.618.611M137.73 174.079L136.957 170.599 133.55 169.31 137.061 168.871 138.034 165.168 138.806 168.974 142.214 169.611 138.703 170.376zM48.878 169.728L48.521 168.118 46.945 167.521 48.569 167.319 49.019 165.606 49.377 167.366 50.953 167.661 49.328 168.015zM38.573 152.127L37.921 149.194 35.049 148.106 38.009 147.737 38.83 144.615 39.48 147.824 42.353 148.36 39.393 149.006zM115.829 180.213L115.353 178.068 113.253 177.273 115.417 177.003 116.017 174.721 116.492 177.067 118.593 177.459 116.428 177.931zM58.219 157.18c-.074-.173.008-.372.183-.445.175-.072.376.009.45.182.073.173-.009.372-.184.445-.175.073-.375-.008-.449-.182M120.118 200.646c-.133-.312.015-.67.33-.802.314-.13.676.016.808.328.132.311-.015.67-.33.8-.314.132-.676-.014-.808-.326M38.058 183.198c-.132-.312.016-.67.33-.801.315-.131.677.015.81.327.132.311-.016.67-.33.801-.315.131-.677-.015-.81-.327M110.144 163.01c-.074-.173.008-.372.183-.444.175-.073.376.008.45.18.073.174-.009.373-.184.446-.175.073-.376-.008-.449-.181M74.18 167.56c0 .338-.276.612-.617.612-.342 0-.618-.274-.618-.613 0-.338.276-.612.618-.612.34 0 .617.274.617.612M54.458 103.183L53.685 99.704 50.278 98.414 53.789 97.975 54.762 94.273 55.534 98.079 58.943 98.715 55.431 99.48zM56.485 65.026L56.127 63.417 54.551 62.82 56.176 62.617 56.626 60.905 56.983 62.665 58.56 62.96 56.935 63.314zM106.862 44.486L106.077 40.951 102.616 39.641 106.183 39.195 107.171 35.434 107.955 39.301 111.418 39.947 107.85 40.725zM118.705 83.544L118.229 81.4 116.129 80.605 118.293 80.334 118.893 78.052 119.369 80.398 121.47 80.79 119.305 81.262zM58.055 39.09c-.074-.172.008-.372.183-.444.175-.073.376.008.45.181.073.173-.009.373-.184.445-.174.073-.375-.008-.449-.181M129.75 91.594c-.132-.312.016-.67.33-.802.315-.13.677.015.81.327.132.312-.016.67-.33.802-.315.13-.677-.016-.81-.327M39.246 74.815c-.133-.312.015-.67.33-.802.314-.13.676.016.808.327.133.312-.015.67-.33.802-.314.13-.676-.015-.808-.327M117.412 51.95c-.073-.173.009-.372.184-.445.175-.073.376.008.45.181.073.173-.01.373-.184.446-.175.073-.376-.009-.45-.182M81.449 31.396c0 .338-.277.611-.618.611-.341 0-.618-.273-.618-.611 0-.338.277-.613.618-.613.341 0 .618.275.618.613M133.408 191.032L133.051 189.422 131.475 188.826 133.099 188.623 133.549 186.91 133.906 188.67 135.483 188.965 133.858 189.319zM33.45 127.276c-.073-.174.01-.373.184-.446.175-.073.376.009.45.182.073.173-.01.372-.184.445-.175.073-.376-.008-.45-.181M80.539 206.214L80.182 204.604 78.606 204.008 80.23 203.805 80.68 202.092 81.037 203.853 82.614 204.147 80.989 204.501zM89.88 193.667c-.074-.173.008-.372.183-.445.175-.073.376.008.45.181.073.173-.009.373-.184.446-.175.072-.376-.009-.45-.182M105.841 204.046c0 .338-.276.612-.618.612-.34 0-.617-.274-.617-.612 0-.338.276-.612.617-.612.342 0 .618.274.618.612" transform="translate(-1067 -987) translate(1069 989) translate(8.784 9.205)"/>
                    <path stroke="#44E7D9" stroke-linecap="round" stroke-linejoin="round" stroke-width="1.875" d="M5.337 0.194L7.959 4.695 10.582 9.195 5.337 9.195 0.093 9.195 2.714 4.695z" transform="translate(-1067 -987) translate(1069 989) translate(8.784 9.205)"/>
                    <g>
                        <path fill="#000" d="M0.101 0.363L10.574 0.363" transform="translate(-1067 -987) translate(1069 989) translate(8.784 9.205) translate(0 3.682)"/>
                        <path stroke="#44E7D9" stroke-linecap="round" stroke-linejoin="round" stroke-width="1.875" d="M0.101 0.363L10.574 0.363" transform="translate(-1067 -987) translate(1069 989) translate(8.784 9.205) translate(0 3.682)"/>
                    </g>
                    <path stroke="#44E7D9" stroke-linecap="round" stroke-linejoin="round" stroke-width="1.875" d="M164.272 242.44L161.649 237.94 159.027 233.44 164.272 233.44 169.516 233.44 166.894 237.94z" transform="translate(-1067 -987) translate(1069 989) translate(8.784 9.205)"/>
                    <g>
                        <path fill="#000" d="M10.724 0.282L0.251 0.282" transform="translate(-1067 -987) translate(1069 989) translate(8.784 9.205) translate(158.784 238.313)"/>
                        <path stroke="#44E7D9" stroke-linecap="round" stroke-linejoin="round" stroke-width="1.875" d="M10.724 0.282L0.251 0.282" transform="translate(-1067 -987) translate(1069 989) translate(8.784 9.205) translate(158.784 238.313)"/>
                    </g>
                </g>
            </g>
        </g>
    </g>
</svg>
