<svg xmlns="http://www.w3.org/2000/svg" width="191" height="269" viewBox="0 0 191 269"><title>Десятка Кубков</title>
    <g fill="none" fill-rule="evenodd">
        <g>
            <g>
                <path fill="#152230" stroke="#FFF" stroke-linecap="round" stroke-linejoin="round" stroke-width="2.5" d="M177.795 266.063H9.621c-5.22 0-9.452-4.232-9.452-9.453V9.838C.169 4.617 4.401.385 9.621.385h168.174c5.22 0 9.452 4.232 9.452 9.453V256.61c0 5.22-4.232 9.453-9.452 9.453z" transform="translate(-489 -1884) translate(491 1885)"/>
                <path fill="#D1A448" fill-rule="nonzero" d="M59.33 254.12v-10.085h2.143v-.73h-5.099v.73h2.144v10.085h.812zm8.006 0v-.731h-3.67v-4.352h3.199v-.73h-3.2v-4.272h3.67v-.73h-4.481v10.815h4.482zm2.663 0v-6.139l-.03-3.012-.002-.201v-.067c.4 1.04 1.634 4.179 3.702 9.419h1.072v-10.816h-.812v6.171l.032 3.28c-.13-.346-1.364-3.496-3.702-9.45h-1.056v10.815H70zm12.683.162c.855 0 1.5-.23 1.933-.69.433-.46.65-1.058.65-1.794v-6.171c0-.737-.217-1.335-.65-1.795-.434-.46-1.078-.69-1.933-.69s-1.5.23-1.932.69c-.434.46-.65 1.058-.65 1.795v6.17c0 .737.216 1.335.65 1.795.433.46 1.077.69 1.932.69zm0-.73c-1.18 0-1.77-.585-1.77-1.754v-6.171c0-1.17.59-1.754 1.77-1.754 1.18 0 1.77.584 1.77 1.754v6.17c0 1.17-.59 1.754-1.77 1.754zm5.668.568v-4.92h3.377v-.732H88.35v-4.433h3.524v-.73h-4.336v10.815h.812zm10.393 0l.99-5.717c.239-1.364.412-2.636.52-3.816.12 1.18.628 4.358 1.527 9.533h1.169l1.884-10.816h-.845c-.898 5.446-1.44 8.808-1.624 10.085l-.422-2.842-1.202-7.243h-.958l-1.202 7.227c-.162.953-.303 1.905-.422 2.858l-.422-2.842-1.202-7.243h-.844l1.884 10.816h1.169zm7.665 0l.73-3.167h3.086l.73 3.167h.845l-2.533-10.816h-1.17l-2.533 10.816h.845zm3.654-3.898h-2.76l1.38-5.992 1.38 5.992zm5.18 3.898v-10.085h2.144v-.73h-5.1v.73h2.144v10.085h.812zm8.006 0v-.731h-3.67v-4.352h3.2v-.73h-3.2v-4.272h3.67v-.73h-4.482v10.815h4.482zm2.68 0v-4.466h1.575c.173 0 .303-.005.39-.016l1.607 4.482h.894l-1.706-4.66c.931-.347 1.397-1.094 1.397-2.242v-1.478c0-.736-.217-1.326-.65-1.77-.433-.444-1.077-.666-1.932-.666h-2.387v10.816h.812zm1.575-5.23h-1.575v-4.855h1.575c1.18 0 1.77.568 1.77 1.705v1.478c0 1.115-.59 1.673-1.77 1.673z" transform="translate(-489 -1884) translate(491 1885)"/>
                <g stroke="#FFF" stroke-linecap="round" stroke-linejoin="round" stroke-width="1.875">
                    <path d="M92.083.496L158.54.496 158.54 223.652M10.436.496L66.955.496M148.471 236.617L124.23 236.617M35.21 236.617L.042 236.617.042 11.447" transform="translate(-489 -1884) translate(491 1885) translate(14.19 14.574)"/>
                </g>
                <path fill="#D1A448" fill-rule="nonzero" d="M91.824 19.102L93.708 14.685 95.592 19.102 96.485 19.102 94.114 13.694 96.485 8.287 95.592 8.287 93.708 12.72 91.824 8.287 90.931 8.287 93.286 13.694 90.931 19.102z" transform="translate(-489 -1884) translate(491 1885)"/>
                <g>
                    <path fill="#000" d="M164.444 233.846L167.067 238.388 169.689 242.931 164.444 242.931 159.2 242.931 161.822 238.388z" transform="translate(-489 -1884) translate(491 1885) translate(8.446 11.196)"/>
                    <path stroke="#44E7D9" stroke-linecap="round" stroke-linejoin="round" stroke-width="1.875" d="M164.444 233.846L167.067 238.388 169.689 242.931 164.444 242.931 159.2 242.931 161.822 238.388z" transform="translate(-489 -1884) translate(491 1885) translate(8.446 11.196)"/>
                    <path fill="#000" d="M5.573 9.109L2.95 4.568 0.328 0.025 5.573 0.025 10.817 0.025 8.195 4.568z" transform="translate(-489 -1884) translate(491 1885) translate(8.446 11.196)"/>
                    <path stroke="#44E7D9" stroke-linecap="round" stroke-linejoin="round" stroke-width="1.875" d="M5.573 9.109L2.95 4.568 0.328 0.025 5.573 0.025 10.817 0.025 8.195 4.568z" transform="translate(-489 -1884) translate(491 1885) translate(8.446 11.196)"/>
                    <path stroke="#FFF" stroke-linecap="round" stroke-linejoin="round" stroke-width="1.875" d="M37.03 66.273c.771-1.654 1.485-2.967 1.485-2.967S52 34.172 84.227 33.216h.367c32.228.956 45.712 30.09 45.712 30.09s.549 1.024 1.251 2.967" transform="translate(-489 -1884) translate(491 1885) translate(8.446 11.196)"/>
                    <path stroke="#44E7D9" stroke-linecap="round" stroke-linejoin="round" stroke-width="1.875" d="M33.531 66.273c1.372-4.186 2.758-6.549 2.758-6.549s14.138-29.135 47.93-30.09h.383c33.792.955 47.93 30.09 47.93 30.09s1.617 2.736 2.706 6.55" transform="translate(-489 -1884) translate(491 1885) translate(8.446 11.196)"/>
                    <path stroke="#D1A448" stroke-linecap="round" stroke-linejoin="round" stroke-width="1.875" d="M30.461 66.273c1.914-5.634 3.69-8.775 3.69-8.775S48.916 27.068 84.21 26.07h.4c35.294.997 50.06 31.427 50.06 31.427s2.225 3.593 3.52 8.775" transform="translate(-489 -1884) translate(491 1885) translate(8.446 11.196)"/>
                    <path stroke="#D1A448" stroke-linecap="round" stroke-linejoin="round" stroke-width="1.875" d="M40.066 67.073s.127-.285.387-.8c2.37-4.69 15.743-28.45 43.844-29.311h.355c28.101.861 41.474 24.62 43.844 29.311.26.515.388.8.388.8" transform="translate(-489 -1884) translate(491 1885) translate(8.446 11.196)"/>
                    <path stroke="#44E7D9" stroke-linecap="round" stroke-linejoin="round" stroke-width="1.875" d="M124.322 66.329c-4.861-8.24-17.352-24.807-39.508-25.523h-.336c-22.107.715-34.592 17.21-39.476 25.467" transform="translate(-489 -1884) translate(491 1885) translate(8.446 11.196)"/>
                    <path stroke="#FFF" stroke-linecap="round" stroke-linejoin="round" stroke-width="1.875" d="M84.543 57.579L79.231 57.579 75.248 61.894 84.875 73.181 81.042 61.894zM75.248 61.895L84.875 61.895" transform="translate(-489 -1884) translate(491 1885) translate(8.446 11.196)"/>
                    <path stroke="#FFF" stroke-linecap="round" stroke-linejoin="round" stroke-width="1.875" d="M84.82 57.579L90.132 57.579 94.115 61.894 84.488 73.181 88.321 61.894zM94.115 61.895L84.488 61.895M78.325 58.561L80.129 58.561M77.208 59.737L78.914 59.737M76.248 60.909L79.724 60.909M76.436 62.95L78.142 62.95M77.235 64.103L79.319 64.103M78.186 65.306L79.319 65.306M79.239 66.344L80.944 66.344M80.049 67.559L81.344 67.559M81.001 68.65L81.75 68.65M81.926 69.549L82.559 69.549" transform="translate(-489 -1884) translate(491 1885) translate(8.446 11.196)"/>
                    <path fill="#000" d="M69.986 86.834c0 8.165 6.62 14.784 14.784 14.784 8.165 0 14.784-6.62 14.784-14.784 0-8.165-6.62-14.784-14.784-14.784-8.165 0-14.784 6.619-14.784 14.784" transform="translate(-489 -1884) translate(491 1885) translate(8.446 11.196)"/>
                    <path stroke="#D1A448" stroke-width="1.875" d="M69.986 86.834c0 8.165 6.62 14.784 14.784 14.784 8.165 0 14.784-6.62 14.784-14.784 0-8.165-6.62-14.784-14.784-14.784-8.165 0-14.784 6.619-14.784 14.784z" transform="translate(-489 -1884) translate(491 1885) translate(8.446 11.196)"/>
                    <path stroke="#D1A448" stroke-width="1.875" d="M73.754 86.834c0 6.084 4.932 11.015 11.016 11.015s11.016-4.931 11.016-11.015c0-6.084-4.932-11.016-11.016-11.016S73.754 80.75 73.754 86.834zM76.288 76.651c-2.255 1.852-3.864 4.463-4.435 7.443M45.57 70.962c.658 11.245-3.686 19.726-10.742 19.98-6.975.25-11.576-8.285-11.006-19.836M32.6 90.605L32.642 96.936M36.92 90.576L36.962 96.907M34.904 97.529c-1.314.008-1.972-.119-2.5-.51 0 0-.653.662.009 1.315 0 0 .79.388 2.236.379M32.68 98.972l.036 5.52s.53.653 2.238.641c1.709-.01 2.098-.67 2.098-.67l-.036-5.52M33.679 91.081L33.72 97.257M33.731 98.965L33.769 104.747M35.258 91.333L35.295 96.984M35.311 99.349L35.327 101.846M35.331 102.503L35.346 104.737M36.571 91.325L36.604 96.187M36.624 99.341L36.658 104.465" transform="translate(-489 -1884) translate(491 1885) translate(8.446 11.196)"/>
                    <path stroke="#D1A448" stroke-width="1.875" d="M34.651 97.53c1.314-.008 1.97-.144 2.494-.542 0 0 .66.653.008 1.314 0 0-.786.4-2.231.41M45.504 71.028c.008 1.234-4.809 2.266-10.76 2.305-5.951.04-10.782-.928-10.79-2.162-.008-1.233 4.81-2.266 10.76-2.305 5.951-.04 10.782.929 10.79 2.162zM32.356 103.538c-1.408.138-4.433.51-6.116 1.277 0 0-2.033 1.21 2.459 2.059M37.223 103.434c1.407.136 4.432.505 6.116 1.27 0 0 2.034 1.21-2.458 2.061M29.509 106.902s5.26.753 10.916-.073" transform="translate(-489 -1884) translate(491 1885) translate(8.446 11.196)"/>
                    <path stroke="#D1A448" stroke-width="1.875" d="M25.779 105.152s-.86.466-.451 1.251c.41.786 3.65 1.684 7.827 1.657M36.446 108.041c4.177-.027 7.405-.968 7.804-1.76.4-.79-.467-1.245-.467-1.245M33.56 108.057s1.522.046 2.56-.017M45.447 72.985c.009 1.233-4.809 2.266-10.76 2.305-5.95.04-10.782-.929-10.79-2.162M34.756 87.045s-.212-1.695.782-2.868c0 0 .767-1.043 2.039-1.466 0 0-.082 1.71-.686 2.51 0 0-.424.847-2.135 1.824z" transform="translate(-489 -1884) translate(491 1885) translate(8.446 11.196)"/>
                    <path stroke="#D1A448" stroke-width="1.875" d="M34.854 87.02s.189-1.697-.821-2.857c0 0-.78-1.033-2.057-1.44 0 0 .104 1.711.718 2.502 0 0 .435.841 2.16 1.796zM34.835 87.099s.646-1.582 2.089-2.117c0 0 1.179-.533 2.494-.28 0 0-.91 1.453-1.827 1.853 0 0-.785.53-2.756.544z" transform="translate(-489 -1884) translate(491 1885) translate(8.446 11.196)"/>
                    <path stroke="#D1A448" stroke-width="1.875" d="M34.834 87.099s-.668-1.573-2.117-2.089c0 0-1.186-.518-2.498-.246 0 0 .93 1.44 1.851 1.827 0 0 .793.52 2.764.508z" transform="translate(-489 -1884) translate(491 1885) translate(8.446 11.196)"/>
                    <path stroke="#D1A448" stroke-width="1.875" d="M34.846 87.004s-1.067-1.334-.834-2.854c0 0 .108-1.29.97-2.316 0 0 .825 1.501.729 2.497 0 0 .082.944-.865 2.673zM25.085 78.554s1.065 6.085 4.073 9.109M24.916 77.472s-.137-.787-.141-1.444M25.051 78.129L25.05 77.997" transform="translate(-489 -1884) translate(491 1885) translate(8.446 11.196)"/>
                    <path stroke="#44E7D9" stroke-width="1.875" d="M37.533 73.05s-1.375-.086-1.055-.562c.32-.477-.003-.474-.65-.47-.646.004-1.696.2-.886.385 0 0 .687.22.49.693M25.17 72.042s4.096-2.05 7.573-1.977M33.391 70.06L34.886 70.051M35.381 70.047s6.038-.05 8.943 1.785" transform="translate(-489 -1884) translate(491 1885) translate(8.446 11.196)"/>
                    <path stroke="#44E7D9" stroke-width="1.875" d="M31.526 73.078s.303-.607-.746-.41c-1.05.196-1.097-.8.36-.62 1.456.18 3.072.075 2.826-.492-.247-.568-1.779.011-1.7-.463.077-.475 1.37-.389 2.098-.394.728-.005 1.776-.486 2.83-.019 1.054.468-1.129.387-.399.857.731.47 2.18-.394 2.587-.112.406.282-.562.668-.721.954-.16.285.828.415.828.415" transform="translate(-489 -1884) translate(491 1885) translate(8.446 11.196)"/>
                    <path stroke="#D1A448" stroke-width="1.875" d="M143.538 70.962c.658 11.245-3.685 19.726-10.742 19.98-6.974.25-11.576-8.285-11.005-19.836M130.569 90.605L130.611 96.936M134.888 90.576L134.93 96.907M132.873 97.529c-1.315.008-1.972-.119-2.5-.51 0 0-.653.662.008 1.315 0 0 .791.388 2.236.379M130.648 98.972l.036 5.52s.53.653 2.239.641c1.708-.01 2.098-.67 2.098-.67l-.037-5.52M131.647 91.081L131.688 97.257M131.699 98.965L131.738 104.747M133.226 91.333L133.263 96.984M133.279 99.349L133.296 101.846M133.3 102.503L133.315 104.737M134.54 91.325L134.572 96.187M134.593 99.341L134.627 104.465" transform="translate(-489 -1884) translate(491 1885) translate(8.446 11.196)"/>
                    <path stroke="#D1A448" stroke-width="1.875" d="M132.62 97.53c1.314-.008 1.97-.144 2.493-.542 0 0 .661.653.008 1.314 0 0-.785.4-2.23.41M143.473 71.028c.008 1.234-4.81 2.266-10.761 2.305-5.95.04-10.782-.928-10.79-2.162-.008-1.233 4.81-2.266 10.76-2.305 5.952-.04 10.782.929 10.79 2.162zM130.324 103.538c-1.407.138-4.432.51-6.116 1.277 0 0-2.033 1.21 2.46 2.059M135.191 103.434c1.407.136 4.433.505 6.116 1.27 0 0 2.034 1.21-2.458 2.061M127.477 106.902s5.26.753 10.916-.073" transform="translate(-489 -1884) translate(491 1885) translate(8.446 11.196)"/>
                    <path stroke="#D1A448" stroke-width="1.875" d="M123.747 105.152s-.86.466-.451 1.251c.41.786 3.65 1.684 7.828 1.657M134.414 108.041c4.177-.027 7.406-.968 7.805-1.76.399-.79-.468-1.245-.468-1.245M131.528 108.057s1.522.046 2.56-.017M143.416 72.985c.008 1.233-4.81 2.266-10.76 2.305-5.951.04-10.782-.929-10.79-2.162M132.724 87.045s-.211-1.695.783-2.868c0 0 .766-1.043 2.038-1.466 0 0-.082 1.71-.685 2.51 0 0-.424.847-2.136 1.824z" transform="translate(-489 -1884) translate(491 1885) translate(8.446 11.196)"/>
                    <path stroke="#D1A448" stroke-width="1.875" d="M132.822 87.02s.19-1.697-.82-2.857c0 0-.78-1.033-2.058-1.44 0 0 .105 1.711.718 2.502 0 0 .436.841 2.16 1.796zM132.803 87.099s.647-1.582 2.09-2.117c0 0 1.178-.533 2.494-.28 0 0-.91 1.453-1.828 1.853 0 0-.785.53-2.756.544z" transform="translate(-489 -1884) translate(491 1885) translate(8.446 11.196)"/>
                    <path stroke="#D1A448" stroke-width="1.875" d="M132.802 87.099s-.668-1.573-2.117-2.089c0 0-1.185-.518-2.498-.246 0 0 .93 1.44 1.852 1.827 0 0 .792.52 2.763.508z" transform="translate(-489 -1884) translate(491 1885) translate(8.446 11.196)"/>
                    <path stroke="#D1A448" stroke-width="1.875" d="M132.814 87.004s-1.067-1.334-.833-2.854c0 0 .107-1.29.969-2.316 0 0 .826 1.501.73 2.497 0 0 .081.944-.866 2.673zM123.053 78.554s1.066 6.085 4.073 9.109M122.884 77.472s-.137-.787-.141-1.444M123.019 78.129L123.019 77.997" transform="translate(-489 -1884) translate(491 1885) translate(8.446 11.196)"/>
                    <path stroke="#44E7D9" stroke-width="1.875" d="M135.501 73.05s-1.374-.086-1.054-.562c.32-.477-.003-.474-.65-.47-.647.004-1.697.2-.887.385 0 0 .688.22.49.693M123.14 72.042s4.094-2.05 7.572-1.977M131.359 70.06L132.854 70.051M133.35 70.047s6.037-.05 8.943 1.785" transform="translate(-489 -1884) translate(491 1885) translate(8.446 11.196)"/>
                    <path stroke="#44E7D9" stroke-width="1.875" d="M129.494 73.078s.304-.607-.746-.41c-1.05.196-1.097-.8.36-.62 1.456.18 3.072.075 2.826-.492-.246-.568-1.778.011-1.7-.463.077-.475 1.371-.389 2.099-.394.727-.005 1.775-.486 2.829-.019 1.054.468-1.129.387-.398.857.73.47 2.18-.394 2.586-.112.406.282-.561.668-.721.954-.16.285.828.415.828.415" transform="translate(-489 -1884) translate(491 1885) translate(8.446 11.196)"/>
                    <path stroke="#D1A448" stroke-width="1.875" d="M52.396 122.776c.665 11.351-3.72 19.913-10.843 20.169-7.04.253-11.686-8.364-11.11-20.023M39.305 142.605L39.347 148.995M43.665 142.576L43.707 148.967M41.63 149.594c-1.326.009-1.99-.12-2.524-.514 0 0-.659.668.01 1.327 0 0 .798.392 2.257.383M39.385 151.051l.037 5.571s.535.66 2.26.649c1.723-.011 2.117-.677 2.117-.677l-.037-5.572M40.393 143.086L40.435 149.32M40.446 151.044L40.485 156.881M41.987 143.34L42.024 149.044M42.04 151.432L42.057 153.952M42.061 154.615L42.077 156.87M43.313 143.331L43.346 148.239M43.367 151.423L43.401 156.596" transform="translate(-489 -1884) translate(491 1885) translate(8.446 11.196)"/>
                    <path stroke="#D1A448" stroke-width="1.875" d="M41.375 149.596c1.327-.009 1.99-.146 2.517-.547 0 0 .668.658.009 1.326 0 0-.794.403-2.252.413M52.33 122.843c.009 1.246-4.854 2.287-10.861 2.327-6.008.04-10.884-.938-10.893-2.183-.008-1.245 4.856-2.287 10.863-2.327 6.007-.04 10.884.937 10.892 2.183zM39.058 155.66c-1.42.14-4.474.515-6.174 1.29 0 0-2.053 1.222 2.482 2.077M43.97 155.555c1.422.138 4.475.51 6.175 1.283 0 0 2.053 1.22-2.481 2.08M36.184 159.056s5.31.76 11.019-.073" transform="translate(-489 -1884) translate(491 1885) translate(8.446 11.196)"/>
                    <path stroke="#D1A448" stroke-width="1.875" d="M32.419 157.29s-.869.47-.456 1.263c.414.793 3.685 1.7 7.902 1.672M43.186 160.206c4.217-.027 7.476-.978 7.879-1.776.403-.799-.472-1.257-.472-1.257M40.273 160.222s1.536.046 2.584-.017M52.273 124.818c.009 1.245-4.854 2.287-10.862 2.327-6.007.04-10.884-.938-10.892-2.183M41.48 139.012s-.213-1.711.791-2.896c0 0 .773-1.053 2.057-1.48 0 0-.083 1.727-.692 2.533 0 0-.428.856-2.156 1.843z" transform="translate(-489 -1884) translate(491 1885) translate(8.446 11.196)"/>
                    <path stroke="#D1A448" stroke-width="1.875" d="M41.58 138.987s.19-1.714-.83-2.885c0 0-.786-1.042-2.076-1.453 0 0 .106 1.727.725 2.524 0 0 .44.85 2.18 1.814zM41.56 139.065s.653-1.596 2.109-2.136c0 0 1.19-.539 2.518-.282 0 0-.918 1.465-1.845 1.87 0 0-.792.535-2.781.548z" transform="translate(-489 -1884) translate(491 1885) translate(8.446 11.196)"/>
                    <path stroke="#D1A448" stroke-width="1.875" d="M41.559 139.065s-.674-1.587-2.136-2.108c0 0-1.197-.523-2.522-.249 0 0 .938 1.453 1.869 1.845 0 0 .8.526 2.789.512z" transform="translate(-489 -1884) translate(491 1885) translate(8.446 11.196)"/>
                    <path stroke="#D1A448" stroke-width="1.875" d="M41.571 138.97s-1.077-1.347-.841-2.882c0 0 .108-1.302.978-2.337 0 0 .834 1.515.737 2.52 0 0 .083.954-.874 2.698zM31.718 130.44s1.076 6.143 4.111 9.195M31.547 129.348s-.138-.795-.142-1.458M31.684 130.011L31.683 129.878" transform="translate(-489 -1884) translate(491 1885) translate(8.446 11.196)"/>
                    <path stroke="#44E7D9" stroke-width="1.875" d="M44.284 124.884s-1.388-.087-1.064-.568c.323-.481-.004-.479-.657-.474-.653.004-1.712.203-.895.389 0 0 .694.222.495.7M31.805 123.866s4.134-2.068 7.644-1.996M40.103 121.866L41.612 121.856M42.112 121.853s6.095-.052 9.028 1.802" transform="translate(-489 -1884) translate(491 1885) translate(8.446 11.196)"/>
                    <path stroke="#44E7D9" stroke-width="1.875" d="M38.22 124.912s.306-.613-.753-.414c-1.06.198-1.107-.807.363-.625 1.47.182 3.102.075 2.853-.498-.248-.573-1.795.012-1.717-.467.078-.48 1.385-.392 2.12-.397.734-.005 1.792-.491 2.856-.019 1.064.472-1.14.39-.403.864.738.474 2.201-.397 2.612-.113.41.285-.568.675-.729.963-.161.288.836.42.836.42" transform="translate(-489 -1884) translate(491 1885) translate(8.446 11.196)"/>
                    <path stroke="#D1A448" stroke-width="1.875" d="M80.852 122.776c.665 11.351-3.72 19.913-10.844 20.169-7.04.253-11.685-8.364-11.109-20.023M67.76 142.605L67.803 148.995M72.121 142.576L72.163 148.967M70.086 149.594c-1.327.009-1.99-.12-2.524-.514 0 0-.659.668.009 1.327 0 0 .798.392 2.257.383M67.84 151.051l.037 5.571s.535.66 2.26.649c1.724-.011 2.118-.677 2.118-.677l-.037-5.572M68.849 143.086L68.89 149.32M68.902 151.044L68.94 156.881M70.442 143.34L70.48 149.044M70.496 151.432L70.513 153.952M70.517 154.615L70.532 156.87M71.769 143.331L71.801 148.239M71.823 151.423L71.857 156.596" transform="translate(-489 -1884) translate(491 1885) translate(8.446 11.196)"/>
                    <path stroke="#D1A448" stroke-width="1.875" d="M69.83 149.596c1.327-.009 1.99-.146 2.517-.547 0 0 .668.658.01 1.326 0 0-.794.403-2.253.413M80.786 122.843c.009 1.246-4.855 2.287-10.862 2.327-6.007.04-10.884-.938-10.892-2.183-.008-1.245 4.855-2.287 10.862-2.327 6.008-.04 10.884.937 10.892 2.183zM67.513 155.66c-1.42.14-4.474.515-6.173 1.29 0 0-2.053 1.222 2.482 2.077M72.426 155.555c1.421.138 4.475.51 6.175 1.283 0 0 2.053 1.22-2.482 2.08M64.64 159.056s5.31.76 11.018-.073" transform="translate(-489 -1884) translate(491 1885) translate(8.446 11.196)"/>
                    <path stroke="#D1A448" stroke-width="1.875" d="M60.874 157.29s-.868.47-.455 1.263c.413.793 3.685 1.7 7.901 1.672M71.642 160.206c4.217-.027 7.476-.978 7.878-1.776.403-.799-.472-1.257-.472-1.257M68.729 160.222s1.536.046 2.584-.017M80.729 124.818c.008 1.245-4.855 2.287-10.862 2.327-6.008.04-10.884-.938-10.892-2.183M69.936 139.012s-.214-1.711.79-2.896c0 0 .774-1.053 2.058-1.48 0 0-.083 1.727-.692 2.533 0 0-.428.856-2.156 1.843z" transform="translate(-489 -1884) translate(491 1885) translate(8.446 11.196)"/>
                    <path stroke="#D1A448" stroke-width="1.875" d="M70.035 138.987s.19-1.714-.829-2.885c0 0-.787-1.042-2.076-1.453 0 0 .106 1.727.725 2.524 0 0 .44.85 2.18 1.814zM70.016 139.065s.653-1.596 2.108-2.136c0 0 1.19-.539 2.519-.282 0 0-.919 1.465-1.845 1.87 0 0-.792.535-2.782.548z" transform="translate(-489 -1884) translate(491 1885) translate(8.446 11.196)"/>
                    <path stroke="#D1A448" stroke-width="1.875" d="M70.015 139.065s-.674-1.587-2.137-2.108c0 0-1.197-.523-2.522-.249 0 0 .938 1.453 1.87 1.845 0 0 .799.526 2.789.512z" transform="translate(-489 -1884) translate(491 1885) translate(8.446 11.196)"/>
                    <path stroke="#D1A448" stroke-width="1.875" d="M70.027 138.97s-1.077-1.347-.841-2.882c0 0 .108-1.302.978-2.337 0 0 .833 1.515.736 2.52 0 0 .083.954-.873 2.698zM60.173 130.44s1.077 6.143 4.112 9.195M60.003 129.348s-.138-.795-.143-1.458M60.14 130.011L60.139 129.878" transform="translate(-489 -1884) translate(491 1885) translate(8.446 11.196)"/>
                    <path stroke="#44E7D9" stroke-width="1.875" d="M72.74 124.884s-1.388-.087-1.065-.568c.323-.481-.003-.479-.656-.474-.653.004-1.712.203-.895.389 0 0 .694.222.494.7M60.26 123.866s4.135-2.068 7.645-1.996M68.558 121.866L70.068 121.856M70.567 121.853s6.095-.052 9.029 1.802" transform="translate(-489 -1884) translate(491 1885) translate(8.446 11.196)"/>
                    <path stroke="#44E7D9" stroke-width="1.875" d="M66.676 124.912s.306-.613-.753-.414c-1.06.198-1.108-.807.363-.625 1.47.182 3.101.075 2.853-.498-.249-.573-1.796.012-1.717-.467.078-.48 1.385-.392 2.119-.397.734-.005 1.792-.491 2.856-.019 1.065.472-1.14.39-.402.864.738.474 2.201-.397 2.611-.113.41.285-.567.675-.728.963-.161.288.836.42.836.42" transform="translate(-489 -1884) translate(491 1885) translate(8.446 11.196)"/>
                    <path stroke="#D1A448" stroke-width="1.875" d="M109.308 122.776c.665 11.351-3.72 19.913-10.844 20.169-7.04.253-11.685-8.364-11.11-20.023M96.216 142.605L96.258 148.995M100.576 142.576L100.619 148.967M98.541 149.594c-1.326.009-1.99-.12-2.523-.514 0 0-.659.668.009 1.327 0 0 .798.392 2.257.383M96.296 151.051l.037 5.571s.535.66 2.26.649c1.724-.011 2.117-.677 2.117-.677l-.037-5.572M97.305 143.086L97.346 149.32M97.357 151.044L97.396 156.881M98.898 143.34L98.936 149.044M98.952 151.432L98.968 153.952M98.973 154.615L98.988 156.87M100.225 143.331L100.257 148.239M100.278 151.423L100.313 156.596" transform="translate(-489 -1884) translate(491 1885) translate(8.446 11.196)"/>
                    <path stroke="#D1A448" stroke-width="1.875" d="M98.286 149.596c1.327-.009 1.99-.146 2.517-.547 0 0 .668.658.009 1.326 0 0-.794.403-2.252.413M109.242 122.843c.008 1.246-4.855 2.287-10.862 2.327-6.008.04-10.884-.938-10.892-2.183-.009-1.245 4.855-2.287 10.862-2.327 6.007-.04 10.884.937 10.892 2.183zM95.969 155.66c-1.42.14-4.474.515-6.174 1.29 0 0-2.053 1.222 2.482 2.077M100.882 155.555c1.42.138 4.474.51 6.174 1.283 0 0 2.054 1.22-2.481 2.08M93.095 159.056s5.31.76 11.019-.073" transform="translate(-489 -1884) translate(491 1885) translate(8.446 11.196)"/>
                    <path stroke="#D1A448" stroke-width="1.875" d="M89.33 157.29s-.869.47-.456 1.263c.414.793 3.685 1.7 7.902 1.672M100.097 160.206c4.217-.027 7.476-.978 7.879-1.776.403-.799-.472-1.257-.472-1.257M97.184 160.222s1.537.046 2.585-.017M109.185 124.818c.008 1.245-4.855 2.287-10.863 2.327-6.007.04-10.883-.938-10.892-2.183M98.392 139.012s-.214-1.711.79-2.896c0 0 .774-1.053 2.057-1.48 0 0-.083 1.727-.691 2.533 0 0-.429.856-2.156 1.843z" transform="translate(-489 -1884) translate(491 1885) translate(8.446 11.196)"/>
                    <path stroke="#D1A448" stroke-width="1.875" d="M98.49 138.987s.191-1.714-.828-2.885c0 0-.787-1.042-2.076-1.453 0 0 .105 1.727.725 2.524 0 0 .439.85 2.18 1.814zM98.472 139.065s.652-1.596 2.108-2.136c0 0 1.19-.539 2.518-.282 0 0-.918 1.465-1.844 1.87 0 0-.792.535-2.782.548z" transform="translate(-489 -1884) translate(491 1885) translate(8.446 11.196)"/>
                    <path stroke="#D1A448" stroke-width="1.875" d="M98.47 139.065s-.674-1.587-2.136-2.108c0 0-1.197-.523-2.522-.249 0 0 .938 1.453 1.87 1.845 0 0 .799.526 2.788.512z" transform="translate(-489 -1884) translate(491 1885) translate(8.446 11.196)"/>
                    <path stroke="#D1A448" stroke-width="1.875" d="M98.483 138.97s-1.077-1.347-.842-2.882c0 0 .109-1.302.978-2.337 0 0 .834 1.515.737 2.52 0 0 .083.954-.873 2.698zM88.629 130.44s1.076 6.143 4.111 9.195M88.458 129.348s-.137-.795-.142-1.458M88.595 130.011L88.595 129.878" transform="translate(-489 -1884) translate(491 1885) translate(8.446 11.196)"/>
                    <path stroke="#44E7D9" stroke-width="1.875" d="M101.195 124.884s-1.388-.087-1.064-.568c.323-.481-.004-.479-.657-.474-.652.004-1.712.203-.895.389 0 0 .695.222.495.7M88.716 123.866s4.134-2.068 7.644-1.996M97.014 121.866L98.523 121.856M99.023 121.853s6.095-.052 9.028 1.802" transform="translate(-489 -1884) translate(491 1885) translate(8.446 11.196)"/>
                    <path stroke="#44E7D9" stroke-width="1.875" d="M95.131 124.912s.307-.613-.753-.414c-1.06.198-1.107-.807.363-.625 1.47.182 3.102.075 2.853-.498-.248-.573-1.795.012-1.717-.467.079-.48 1.385-.392 2.12-.397.734-.005 1.792-.491 2.856-.019 1.064.472-1.14.39-.402.864.737.474 2.2-.397 2.61-.113.41.285-.566.675-.728.963-.16.288.836.42.836.42" transform="translate(-489 -1884) translate(491 1885) translate(8.446 11.196)"/>
                    <path stroke="#D1A448" stroke-width="1.875" d="M137.764 122.776c.664 11.351-3.721 19.913-10.844 20.169-7.04.253-11.686-8.364-11.11-20.023M124.672 142.605L124.714 148.995M129.032 142.576L129.074 148.967M126.997 149.594c-1.326.009-1.99-.12-2.524-.514 0 0-.658.668.01 1.327 0 0 .798.392 2.257.383M124.752 151.051l.036 5.571s.535.66 2.26.649c1.724-.011 2.118-.677 2.118-.677l-.037-5.572M125.76 143.086L125.801 149.32M125.813 151.044L125.851 156.881M127.354 143.34L127.391 149.044M127.407 151.432L127.424 153.952M127.429 154.615L127.443 156.87M128.68 143.331L128.713 148.239M128.734 151.423L128.768 156.596" transform="translate(-489 -1884) translate(491 1885) translate(8.446 11.196)"/>
                    <path stroke="#D1A448" stroke-width="1.875" d="M126.742 149.596c1.326-.009 1.989-.146 2.516-.547 0 0 .668.658.01 1.326 0 0-.794.403-2.253.413M137.698 122.843c.008 1.246-4.856 2.287-10.863 2.327-6.007.04-10.883-.938-10.892-2.183-.008-1.245 4.855-2.287 10.862-2.327 6.008-.04 10.884.937 10.893 2.183zM124.425 155.66c-1.421.14-4.475.515-6.174 1.29 0 0-2.053 1.222 2.482 2.077M129.338 155.555c1.42.138 4.474.51 6.174 1.283 0 0 2.053 1.22-2.482 2.08M121.55 159.056s5.311.76 11.02-.073" transform="translate(-489 -1884) translate(491 1885) translate(8.446 11.196)"/>
                    <path stroke="#D1A448" stroke-width="1.875" d="M117.785 157.29s-.868.47-.455 1.263c.413.793 3.685 1.7 7.902 1.672M128.553 160.206c4.217-.027 7.476-.978 7.879-1.776.403-.799-.472-1.257-.472-1.257M125.64 160.222s1.536.046 2.584-.017M137.64 124.818c.008 1.245-4.855 2.287-10.862 2.327-6.007.04-10.884-.938-10.892-2.183M126.847 139.012s-.213-1.711.79-2.896c0 0 .774-1.053 2.058-1.48 0 0-.083 1.727-.692 2.533 0 0-.428.856-2.156 1.843z" transform="translate(-489 -1884) translate(491 1885) translate(8.446 11.196)"/>
                    <path stroke="#D1A448" stroke-width="1.875" d="M126.946 138.987s.191-1.714-.828-2.885c0 0-.788-1.042-2.077-1.453 0 0 .106 1.727.725 2.524 0 0 .44.85 2.18 1.814zM126.927 139.065s.653-1.596 2.108-2.136c0 0 1.191-.539 2.52-.282 0 0-.92 1.465-1.846 1.87 0 0-.792.535-2.782.548z" transform="translate(-489 -1884) translate(491 1885) translate(8.446 11.196)"/>
                    <path stroke="#D1A448" stroke-width="1.875" d="M126.926 139.065s-.674-1.587-2.136-2.108c0 0-1.198-.523-2.523-.249 0 0 .938 1.453 1.87 1.845 0 0 .8.526 2.789.512z" transform="translate(-489 -1884) translate(491 1885) translate(8.446 11.196)"/>
                    <path stroke="#D1A448" stroke-width="1.875" d="M126.938 138.97s-1.077-1.347-.841-2.882c0 0 .108-1.302.978-2.337 0 0 .834 1.515.737 2.52 0 0 .082.954-.874 2.698zM117.085 130.44s1.076 6.143 4.111 9.195M116.914 129.348s-.138-.795-.142-1.458M117.051 130.011L117.05 129.878" transform="translate(-489 -1884) translate(491 1885) translate(8.446 11.196)"/>
                    <path stroke="#44E7D9" stroke-width="1.875" d="M129.65 124.884s-1.387-.087-1.064-.568c.324-.481-.003-.479-.656-.474-.652.004-1.712.203-.895.389 0 0 .694.222.495.7M117.172 123.866s4.134-2.068 7.644-1.996M125.469 121.866L126.979 121.856M127.479 121.853s6.095-.052 9.028 1.802" transform="translate(-489 -1884) translate(491 1885) translate(8.446 11.196)"/>
                    <path stroke="#44E7D9" stroke-width="1.875" d="M123.587 124.912s.306-.613-.753-.414c-1.06.198-1.108-.807.363-.625 1.47.182 3.101.075 2.853-.498-.249-.573-1.795.012-1.717-.467.078-.48 1.385-.392 2.12-.397.734-.005 1.791-.491 2.856-.019 1.064.472-1.14.39-.403.864.738.474 2.201-.397 2.611-.113.41.285-.567.675-.728.963-.161.288.836.42.836.42" transform="translate(-489 -1884) translate(491 1885) translate(8.446 11.196)"/>
                    <path stroke="#D1A448" stroke-width="1.875" d="M53.105 172.885c.664 11.35-3.72 19.912-10.844 20.168-7.04.254-11.686-8.363-11.11-20.023M40.013 192.713L40.055 199.104M44.373 192.684L44.416 199.075M42.338 199.702c-1.326.01-1.99-.12-2.523-.513 0 0-.66.667.008 1.326 0 0 .799.393 2.258.383M40.093 201.16l.037 5.57s.535.66 2.26.65c1.723-.012 2.117-.678 2.117-.678l-.037-5.571M41.101 193.194L41.143 199.428M41.154 201.153L41.193 206.989M42.695 193.448L42.733 199.153M42.749 201.54L42.765 204.06M42.77 204.724L42.785 206.979M44.021 193.44L44.054 198.348M44.075 201.531L44.109 206.705" transform="translate(-489 -1884) translate(491 1885) translate(8.446 11.196)"/>
                    <path stroke="#D1A448" stroke-width="1.875" d="M42.083 199.704c1.327-.008 1.99-.146 2.517-.547 0 0 .668.659.009 1.326 0 0-.793.403-2.252.413M53.039 172.951c.008 1.246-4.855 2.288-10.862 2.328-6.008.04-10.884-.938-10.893-2.184-.008-1.245 4.856-2.287 10.863-2.327 6.007-.04 10.884.938 10.892 2.183zM39.766 205.769c-1.42.14-4.474.514-6.174 1.288 0 0-2.053 1.223 2.482 2.079M44.679 205.663c1.42.138 4.474.51 6.174 1.284 0 0 2.053 1.22-2.481 2.08M36.892 209.164s5.31.76 11.019-.073" transform="translate(-489 -1884) translate(491 1885) translate(8.446 11.196)"/>
                    <path stroke="#D1A448" stroke-width="1.875" d="M33.127 207.398s-.869.47-.456 1.263c.414.794 3.685 1.7 7.902 1.673M43.894 210.315c4.217-.028 7.476-.978 7.879-1.777.403-.798-.472-1.257-.472-1.257M40.98 210.33s1.537.047 2.585-.016M52.981 174.926c.009 1.246-4.854 2.288-10.862 2.327-6.007.04-10.883-.937-10.892-2.183M42.188 189.12s-.213-1.71.791-2.895c0 0 .774-1.054 2.057-1.48 0 0-.083 1.727-.691 2.533 0 0-.429.855-2.157 1.842z" transform="translate(-489 -1884) translate(491 1885) translate(8.446 11.196)"/>
                    <path stroke="#D1A448" stroke-width="1.875" d="M42.287 189.096s.191-1.714-.828-2.885c0 0-.787-1.043-2.077-1.453 0 0 .106 1.726.726 2.524 0 0 .439.85 2.18 1.814zM42.269 189.174s.652-1.597 2.108-2.136c0 0 1.19-.539 2.518-.283 0 0-.918 1.466-1.844 1.87 0 0-.793.536-2.782.549z" transform="translate(-489 -1884) translate(491 1885) translate(8.446 11.196)"/>
                    <path stroke="#D1A448" stroke-width="1.875" d="M42.267 189.174s-.674-1.587-2.136-2.108c0 0-1.197-.523-2.522-.25 0 0 .938 1.454 1.87 1.846 0 0 .798.525 2.788.512z" transform="translate(-489 -1884) translate(491 1885) translate(8.446 11.196)"/>
                    <path stroke="#D1A448" stroke-width="1.875" d="M42.28 189.078s-1.078-1.347-.842-2.881c0 0 .108-1.302.978-2.338 0 0 .834 1.515.737 2.521 0 0 .083.953-.874 2.698zM32.426 180.549s1.076 6.142 4.111 9.194M32.255 179.457s-.138-.796-.142-1.459M32.392 180.119L32.391 179.986" transform="translate(-489 -1884) translate(491 1885) translate(8.446 11.196)"/>
                    <path stroke="#44E7D9" stroke-width="1.875" d="M44.992 174.992s-1.388-.086-1.064-.567c.323-.482-.004-.48-.657-.475-.652.005-1.712.203-.895.39 0 0 .694.222.495.699M32.513 173.975s4.134-2.069 7.644-1.996M40.811 171.974L42.32 171.964M42.82 171.96s6.095-.05 9.028 1.803" transform="translate(-489 -1884) translate(491 1885) translate(8.446 11.196)"/>
                    <path stroke="#44E7D9" stroke-width="1.875" d="M38.928 175.02s.307-.612-.753-.414c-1.06.199-1.107-.806.363-.624 1.47.181 3.102.075 2.853-.498-.248-.573-1.795.011-1.717-.468.078-.48 1.385-.392 2.12-.397.734-.005 1.792-.49 2.856-.019 1.064.472-1.14.39-.403.865.738.474 2.201-.398 2.612-.113.41.284-.567.674-.729.962-.16.289.836.42.836.42" transform="translate(-489 -1884) translate(491 1885) translate(8.446 11.196)"/>
                    <path stroke="#D1A448" stroke-width="1.875" d="M81.56 172.885c.665 11.35-3.72 19.912-10.843 20.168-7.041.254-11.686-8.363-11.11-20.023M68.469 192.713L68.511 199.104M72.829 192.684L72.871 199.075M70.794 199.702c-1.327.01-1.99-.12-2.524-.513 0 0-.659.667.009 1.326 0 0 .799.393 2.257.383M68.548 201.16l.037 5.57s.535.66 2.26.65c1.724-.012 2.118-.678 2.118-.678l-.037-5.571M69.557 193.194L69.598 199.428M69.61 201.153L69.648 206.989M71.15 193.448L71.188 199.153M71.204 201.54L71.221 204.06M71.225 204.724L71.24 206.979M72.477 193.44L72.509 198.348M72.531 201.531L72.565 206.705" transform="translate(-489 -1884) translate(491 1885) translate(8.446 11.196)"/>
                    <path stroke="#D1A448" stroke-width="1.875" d="M70.539 199.704c1.326-.008 1.989-.146 2.516-.547 0 0 .668.659.01 1.326 0 0-.794.403-2.253.413M81.494 172.951c.009 1.246-4.855 2.288-10.862 2.328-6.007.04-10.884-.938-10.892-2.184-.008-1.245 4.855-2.287 10.863-2.327 6.007-.04 10.883.938 10.891 2.183zM68.221 205.769c-1.42.14-4.474.514-6.173 1.288 0 0-2.053 1.223 2.482 2.079M73.135 205.663c1.42.138 4.474.51 6.174 1.284 0 0 2.053 1.22-2.481 2.08M65.347 209.164s5.311.76 11.02-.073" transform="translate(-489 -1884) translate(491 1885) translate(8.446 11.196)"/>
                    <path stroke="#D1A448" stroke-width="1.875" d="M61.582 207.398s-.868.47-.455 1.263c.413.794 3.685 1.7 7.901 1.673M72.35 210.315c4.217-.028 7.476-.978 7.878-1.777.403-.798-.471-1.257-.471-1.257M69.437 210.33s1.536.047 2.584-.016M81.437 174.926c.008 1.246-4.855 2.288-10.862 2.327-6.008.04-10.884-.937-10.892-2.183M70.644 189.12s-.213-1.71.79-2.895c0 0 .774-1.054 2.058-1.48 0 0-.083 1.727-.692 2.533 0 0-.428.855-2.156 1.842z" transform="translate(-489 -1884) translate(491 1885) translate(8.446 11.196)"/>
                    <path stroke="#D1A448" stroke-width="1.875" d="M70.743 189.096s.19-1.714-.828-2.885c0 0-.788-1.043-2.077-1.453 0 0 .106 1.726.725 2.524 0 0 .44.85 2.18 1.814zM70.724 189.174s.653-1.597 2.108-2.136c0 0 1.19-.539 2.519-.283 0 0-.919 1.466-1.845 1.87 0 0-.792.536-2.782.549z" transform="translate(-489 -1884) translate(491 1885) translate(8.446 11.196)"/>
                    <path stroke="#D1A448" stroke-width="1.875" d="M70.723 189.174s-.674-1.587-2.137-2.108c0 0-1.197-.523-2.522-.25 0 0 .938 1.454 1.87 1.846 0 0 .799.525 2.789.512z" transform="translate(-489 -1884) translate(491 1885) translate(8.446 11.196)"/>
                    <path stroke="#D1A448" stroke-width="1.875" d="M70.735 189.078s-1.077-1.347-.841-2.881c0 0 .108-1.302.978-2.338 0 0 .833 1.515.736 2.521 0 0 .083.953-.873 2.698zM60.882 180.549s1.076 6.142 4.111 9.194M60.71 179.457s-.137-.796-.141-1.459M60.848 180.119L60.847 179.986" transform="translate(-489 -1884) translate(491 1885) translate(8.446 11.196)"/>
                    <path stroke="#44E7D9" stroke-width="1.875" d="M73.448 174.992s-1.388-.086-1.065-.567c.323-.482-.003-.48-.656-.475-.653.005-1.712.203-.895.39 0 0 .694.222.494.699M60.969 173.975s4.134-2.069 7.644-1.996M69.266 171.974L70.776 171.964M71.276 171.96s6.094-.05 9.028 1.803" transform="translate(-489 -1884) translate(491 1885) translate(8.446 11.196)"/>
                    <path stroke="#44E7D9" stroke-width="1.875" d="M67.384 175.02s.306-.612-.753-.414c-1.06.199-1.108-.806.363-.624 1.47.181 3.101.075 2.853-.498-.249-.573-1.795.011-1.717-.468.078-.48 1.385-.392 2.119-.397.734-.005 1.792-.49 2.857-.019 1.064.472-1.14.39-.403.865.738.474 2.201-.398 2.611-.113.41.284-.567.674-.728.962-.161.289.836.42.836.42" transform="translate(-489 -1884) translate(491 1885) translate(8.446 11.196)"/>
                    <path stroke="#D1A448" stroke-width="1.875" d="M110.016 172.885c.665 11.35-3.72 19.912-10.844 20.168-7.04.254-11.685-8.363-11.11-20.023M96.924 192.713L96.966 199.104M101.285 192.684L101.327 199.075M99.25 199.702c-1.327.01-1.991-.12-2.524-.513 0 0-.659.667.009 1.326 0 0 .798.393 2.257.383M97.004 201.16l.037 5.57s.535.66 2.26.65c1.724-.012 2.117-.678 2.117-.678l-.036-5.571M98.013 193.194L98.054 199.428M98.065 201.153L98.104 206.989M99.606 193.448L99.644 199.153M99.66 201.54L99.676 204.06M99.681 204.724L99.696 206.979M100.933 193.44L100.965 198.348M100.986 201.531L101.021 206.705" transform="translate(-489 -1884) translate(491 1885) translate(8.446 11.196)"/>
                    <path stroke="#D1A448" stroke-width="1.875" d="M98.994 199.704c1.327-.008 1.99-.146 2.517-.547 0 0 .668.659.009 1.326 0 0-.793.403-2.252.413M109.95 172.951c.008 1.246-4.855 2.288-10.862 2.328-6.008.04-10.884-.938-10.892-2.184-.008-1.245 4.855-2.287 10.862-2.327 6.007-.04 10.884.938 10.892 2.183zM96.677 205.769c-1.42.14-4.474.514-6.174 1.288 0 0-2.053 1.223 2.482 2.079M101.59 205.663c1.42.138 4.475.51 6.174 1.284 0 0 2.054 1.22-2.48 2.08M93.803 209.164s5.31.76 11.019-.073" transform="translate(-489 -1884) translate(491 1885) translate(8.446 11.196)"/>
                    <path stroke="#D1A448" stroke-width="1.875" d="M90.038 207.398s-.869.47-.456 1.263c.414.794 3.685 1.7 7.902 1.673M100.805 210.315c4.218-.028 7.476-.978 7.879-1.777.403-.798-.472-1.257-.472-1.257M97.892 210.33s1.537.047 2.585-.016M109.893 174.926c.008 1.246-4.855 2.288-10.862 2.327-6.008.04-10.884-.937-10.893-2.183M99.1 189.12s-.214-1.71.79-2.895c0 0 .774-1.054 2.057-1.48 0 0-.082 1.727-.691 2.533 0 0-.428.855-2.156 1.842z" transform="translate(-489 -1884) translate(491 1885) translate(8.446 11.196)"/>
                    <path stroke="#D1A448" stroke-width="1.875" d="M99.199 189.096s.19-1.714-.829-2.885c0 0-.787-1.043-2.076-1.453 0 0 .105 1.726.725 2.524 0 0 .439.85 2.18 1.814zM99.18 189.174s.653-1.597 2.108-2.136c0 0 1.19-.539 2.518-.283 0 0-.918 1.466-1.844 1.87 0 0-.792.536-2.782.549z" transform="translate(-489 -1884) translate(491 1885) translate(8.446 11.196)"/>
                    <path stroke="#D1A448" stroke-width="1.875" d="M99.178 189.174s-.674-1.587-2.136-2.108c0 0-1.197-.523-2.522-.25 0 0 .938 1.454 1.87 1.846 0 0 .799.525 2.788.512z" transform="translate(-489 -1884) translate(491 1885) translate(8.446 11.196)"/>
                    <path stroke="#D1A448" stroke-width="1.875" d="M99.19 189.078s-1.076-1.347-.84-2.881c0 0 .108-1.302.978-2.338 0 0 .833 1.515.736 2.521 0 0 .083.953-.873 2.698zM89.337 180.549s1.076 6.142 4.112 9.194M89.166 179.457s-.137-.796-.142-1.459M89.303 180.119L89.303 179.986" transform="translate(-489 -1884) translate(491 1885) translate(8.446 11.196)"/>
                    <path stroke="#44E7D9" stroke-width="1.875" d="M101.903 174.992s-1.388-.086-1.064-.567c.323-.482-.004-.48-.656-.475-.653.005-1.713.203-.896.39 0 0 .695.222.495.699M89.424 173.975s4.134-2.069 7.644-1.996M97.722 171.974L99.231 171.964M99.731 171.96s6.095-.05 9.028 1.803" transform="translate(-489 -1884) translate(491 1885) translate(8.446 11.196)"/>
                    <path stroke="#44E7D9" stroke-width="1.875" d="M95.84 175.02s.306-.612-.754-.414c-1.06.199-1.107-.806.363-.624 1.47.181 3.102.075 2.853-.498-.248-.573-1.795.011-1.717-.468.079-.48 1.385-.392 2.12-.397.734-.005 1.792-.49 2.856-.019 1.064.472-1.14.39-.402.865.737.474 2.2-.398 2.61-.113.41.284-.566.674-.728.962-.16.289.837.42.837.42" transform="translate(-489 -1884) translate(491 1885) translate(8.446 11.196)"/>
                    <path stroke="#D1A448" stroke-width="1.875" d="M138.472 172.885c.664 11.35-3.72 19.912-10.844 20.168-7.04.254-11.686-8.363-11.11-20.023M125.38 192.713L125.422 199.104M129.74 192.684L129.782 199.075M127.705 199.702c-1.326.01-1.99-.12-2.524-.513 0 0-.658.667.01 1.326 0 0 .798.393 2.257.383M125.46 201.16l.036 5.57s.535.66 2.26.65c1.724-.012 2.118-.678 2.118-.678l-.037-5.571M126.468 193.194L126.509 199.428M126.521 201.153L126.559 206.989M128.062 193.448L128.099 199.153M128.115 201.54L128.132 204.06M128.137 204.724L128.151 206.979M129.388 193.44L129.421 198.348M129.442 201.531L129.476 206.705" transform="translate(-489 -1884) translate(491 1885) translate(8.446 11.196)"/>
                    <path stroke="#D1A448" stroke-width="1.875" d="M127.45 199.704c1.327-.008 1.989-.146 2.516-.547 0 0 .668.659.01 1.326 0 0-.794.403-2.253.413M138.406 172.951c.008 1.246-4.855 2.288-10.863 2.328-6.007.04-10.883-.938-10.892-2.184-.008-1.245 4.855-2.287 10.863-2.327 6.007-.04 10.883.938 10.892 2.183zM125.133 205.769c-1.421.14-4.475.514-6.174 1.288 0 0-2.053 1.223 2.482 2.079M130.046 205.663c1.42.138 4.474.51 6.174 1.284 0 0 2.053 1.22-2.481 2.08M122.259 209.164s5.31.76 11.019-.073" transform="translate(-489 -1884) translate(491 1885) translate(8.446 11.196)"/>
                    <path stroke="#D1A448" stroke-width="1.875" d="M118.493 207.398s-.868.47-.455 1.263c.413.794 3.685 1.7 7.902 1.673M129.261 210.315c4.217-.028 7.476-.978 7.879-1.777.403-.798-.472-1.257-.472-1.257M126.348 210.33s1.536.047 2.584-.016M138.348 174.926c.008 1.246-4.855 2.288-10.862 2.327-6.007.04-10.884-.937-10.892-2.183M127.556 189.12s-.214-1.71.79-2.895c0 0 .773-1.054 2.057-1.48 0 0-.083 1.727-.692 2.533 0 0-.428.855-2.155 1.842z" transform="translate(-489 -1884) translate(491 1885) translate(8.446 11.196)"/>
                    <path stroke="#D1A448" stroke-width="1.875" d="M127.654 189.096s.191-1.714-.828-2.885c0 0-.788-1.043-2.077-1.453 0 0 .106 1.726.725 2.524 0 0 .44.85 2.18 1.814zM127.635 189.174s.653-1.597 2.109-2.136c0 0 1.19-.539 2.518-.283 0 0-.919 1.466-1.845 1.87 0 0-.792.536-2.782.549z" transform="translate(-489 -1884) translate(491 1885) translate(8.446 11.196)"/>
                    <path stroke="#D1A448" stroke-width="1.875" d="M127.634 189.174s-.674-1.587-2.136-2.108c0 0-1.198-.523-2.522-.25 0 0 .937 1.454 1.869 1.846 0 0 .8.525 2.79.512z" transform="translate(-489 -1884) translate(491 1885) translate(8.446 11.196)"/>
                    <path stroke="#D1A448" stroke-width="1.875" d="M127.647 189.078s-1.078-1.347-.842-2.881c0 0 .108-1.302.978-2.338 0 0 .834 1.515.737 2.521 0 0 .082.953-.873 2.698zM117.793 180.549s1.076 6.142 4.111 9.194M117.622 179.457s-.138-.796-.142-1.459M117.759 180.119L117.758 179.986" transform="translate(-489 -1884) translate(491 1885) translate(8.446 11.196)"/>
                    <path stroke="#44E7D9" stroke-width="1.875" d="M130.359 174.992s-1.388-.086-1.065-.567c.324-.482-.003-.48-.656-.475-.652.005-1.712.203-.895.39 0 0 .694.222.495.699M117.88 173.975s4.134-2.069 7.644-1.996M126.177 171.974L127.687 171.964M128.187 171.96s6.095-.05 9.028 1.803" transform="translate(-489 -1884) translate(491 1885) translate(8.446 11.196)"/>
                    <path stroke="#44E7D9" stroke-width="1.875" d="M124.295 175.02s.306-.612-.753-.414c-1.06.199-1.108-.806.363-.624 1.47.181 3.101.075 2.853-.498-.249-.573-1.795.011-1.717-.468.078-.48 1.385-.392 2.12-.397.734-.005 1.792-.49 2.856-.019 1.064.472-1.14.39-.403.865.738.474 2.201-.398 2.611-.113.41.284-.567.674-.728.962-.161.289.836.42.836.42" transform="translate(-489 -1884) translate(491 1885) translate(8.446 11.196)"/>
                    <path fill="#FFF" d="M80.117 91.018L79.857 89.836 78.711 89.397 79.892 89.248 80.22 87.99 80.479 89.283 81.627 89.5 80.445 89.759zM71.859 105.206L71.67 104.346 70.835 104.027 71.695 103.919 71.933 103.003 72.122 103.945 72.957 104.102 72.097 104.291zM52.966 87.68L52.82 87.016 52.176 86.77 52.84 86.686 53.024 85.979 53.17 86.706 53.815 86.827 53.15 86.973zM103.558 64.901L103.187 63.217 101.554 62.593 103.237 62.381 103.704 60.589 104.074 62.431 105.708 62.739 104.024 63.109zM106.194 85.417L106.004 84.557 105.17 84.238 106.03 84.129 106.269 83.214 106.457 84.155 107.292 84.313 106.432 84.502zM88.979 83.203L88.833 82.539 88.188 82.293 88.852 82.209 89.036 81.502 89.183 82.229 89.827 82.35 89.163 82.496zM72.016 68.887L71.87 68.222 71.225 67.976 71.889 67.892 72.074 67.185 72.22 67.912 72.864 68.034 72.2 68.179zM59.546 100.978L59.307 99.892 58.254 99.49 59.339 99.353 59.639 98.198 59.878 99.385 60.932 99.584 59.846 99.823zM76.319 50.824L76.145 50.034 75.379 49.742 76.169 49.642 76.388 48.802 76.561 49.665 77.327 49.81 76.538 49.984zM93.076 112.63L92.942 112.02 92.351 111.794 92.96 111.717 93.129 111.068 93.263 111.735 93.855 111.847 93.245 111.981zM114.02 97.498L113.68 95.952 112.18 95.379 113.726 95.184 114.154 93.538 114.494 95.23 115.995 95.512 114.449 95.853zM96.162 54.244L95.988 53.454 95.222 53.161 96.012 53.062 96.231 52.221 96.404 53.085 97.17 53.23 96.381 53.403zM109.786 106.464L109.652 105.854 109.06 105.628 109.669 105.551 109.839 104.902 109.973 105.57 110.565 105.681 109.955 105.815zM101.001 100.404L100.866 99.794 100.275 99.568 100.884 99.491 101.053 98.842 101.188 99.509 101.78 99.621 101.17 99.755zM115.913 67.002L115.644 65.779 114.457 65.325 115.68 65.171 116.019 63.869 116.288 65.208 117.475 65.431 116.252 65.7zM81.679 114.254L81.483 113.364 80.62 113.034 81.51 112.922 81.757 111.974 81.952 112.948 82.816 113.111 81.925 113.307zM62.906 80.687L62.755 80 62.088 79.745 62.775 79.658 62.966 78.926 63.117 79.678 63.784 79.804 63.096 79.955zM60.688 65.132L60.305 63.39 58.615 62.744 60.357 62.524 60.839 60.67 61.222 62.576 62.913 62.895 61.171 63.278zM117.025 90.616L116.83 89.726 115.966 89.396 116.856 89.284 117.103 88.337 117.298 89.31 118.162 89.473 117.272 89.669zM114.11 76.636L113.959 75.949 113.292 75.694 113.979 75.607 114.17 74.875 114.321 75.628 114.988 75.753 114.3 75.904zM100.351 77.201L100.199 76.513 99.532 76.258 100.22 76.172 100.41 75.44 100.561 76.192 101.229 76.318 100.541 76.469z" transform="translate(-489 -1884) translate(491 1885) translate(8.446 11.196)"/>
                </g>
            </g>
        </g>
    </g>
</svg>
