<svg xmlns="http://www.w3.org/2000/svg" width="191" height="269" viewBox="0 0 191 269"><title>Четвёрка Пентаклей</title>
    <g fill="none" fill-rule="evenodd">
        <g>
            <g>
                <path fill="#182018" stroke="#FFF" stroke-linecap="round" stroke-linejoin="round" stroke-width="2.5" d="M177.475 265.764H9.605c-5.212 0-9.436-4.224-9.436-9.436V10C.169 4.789 4.393.564 9.604.564h167.871c5.211 0 9.435 4.225 9.435 9.436v246.328c0 5.212-4.224 9.436-9.435 9.436z" transform="translate(-1078 -2705) translate(1080 2706)"/>
                <path fill="#44E7D9" fill-rule="nonzero" d="M55.106 253.883v-4.912h3.372v-.73h-3.372v-4.425h3.517v-.729h-4.328v10.796h.81zm7.473.162c.853 0 1.496-.23 1.929-.689.432-.46.648-1.056.648-1.791v-6.16c0-.735-.216-1.332-.648-1.791-.433-.46-1.076-.69-1.93-.69-.853 0-1.496.23-1.928.69-.433.46-.649 1.056-.649 1.791v6.16c0 .735.216 1.332.649 1.791.432.46 1.075.69 1.929.69zm0-.73c-1.178 0-1.767-.583-1.767-1.75v-6.16c0-1.167.589-1.75 1.767-1.75s1.767.583 1.767 1.75v6.16c0 1.167-.59 1.75-1.767 1.75zm7.343.73c.854 0 1.497-.23 1.929-.689.432-.46.648-1.056.648-1.791v-8.478h-.81v8.478c0 1.167-.59 1.75-1.767 1.75-1.178 0-1.767-.583-1.767-1.75v-8.478h-.81v8.478c0 .735.216 1.332.648 1.791.432.46 1.075.69 1.929.69zm5.738-.162v-4.458l1.731-.002c.096-.002.173-.007.23-.014l1.606 4.474h.891l-1.702-4.652c.93-.346 1.394-1.092 1.394-2.237v-1.475c0-.735-.216-1.324-.648-1.767-.432-.443-1.075-.665-1.93-.665H74.85v10.796h.81zm1.573-5.22H75.66v-4.847h1.573c1.178 0 1.767.568 1.767 1.703v1.475c0 1.113-.59 1.67-1.767 1.67zm10.407 5.382c.853 0 1.496-.23 1.929-.689.432-.46.648-1.056.648-1.791v-6.16c0-.735-.216-1.332-.648-1.791-.433-.46-1.076-.69-1.93-.69-.853 0-1.496.23-1.928.69-.433.46-.649 1.056-.649 1.791v6.16c0 .735.216 1.332.649 1.791.432.46 1.075.69 1.929.69zm0-.73c-1.178 0-1.767-.583-1.767-1.75v-6.16c0-1.167.589-1.75 1.767-1.75s1.767.583 1.767 1.75v6.16c0 1.167-.59 1.75-1.767 1.75zm5.657.568v-4.912h3.372v-.73h-3.372v-4.425h3.518v-.729h-4.328v10.796h.81zm12.612 0v-.73h-3.664v-4.344h3.194v-.73h-3.194v-4.263h3.664v-.729h-4.474v10.796h4.474zm1.815 0l.73-3.16h3.08l.73 3.16h.842l-2.529-10.796h-1.167l-2.529 10.796h.843zm3.648-3.89h-2.756l1.378-5.982 1.378 5.982zm4.085 3.89v-4.458l1.73-.002c.097-.002.173-.007.231-.014l1.605 4.474h.891l-1.702-4.652c.93-.346 1.394-1.092 1.394-2.237v-1.475c0-.735-.216-1.324-.648-1.767-.432-.443-1.075-.665-1.93-.665h-2.382v10.796h.81zm1.572-5.22h-1.572v-4.847h1.572c1.178 0 1.767.568 1.767 1.703v1.475c0 1.113-.59 1.67-1.767 1.67zm6.808 5.22v-10.067h2.14v-.729h-5.09v.73h2.14v10.066h.81zm4.328 0v-4.928h3.794v4.928h.826v-10.796h-.826v5.139h-3.794v-5.139h-.81v10.796h.81z" transform="translate(-1078 -2705) translate(1080 2706)"/>
                <g>
                    <path stroke="#FFF" stroke-linecap="round" stroke-linejoin="round" stroke-width="1.875" d="M153.937 239.564L132.099 239.564" transform="translate(-1078 -2705) translate(1080 2706) translate(8.43 11.356)"/>
                    <path stroke="#D1A448" stroke-linecap="round" stroke-linejoin="round" stroke-width="1.875" d="M5.503 9.093L2.886 4.559 0.268 0.025 5.503 0.025 10.739 0.025 8.121 4.559z" transform="translate(-1078 -2705) translate(1080 2706) translate(8.43 11.356)"/>
                    <g>
                        <path fill="#000" d="M10.731 0.496L0.276 0.496" transform="translate(-1078 -2705) translate(1080 2706) translate(8.43 11.356) translate(0 4.721)"/>
                        <path stroke="#D1A448" stroke-linecap="round" stroke-linejoin="round" stroke-width="1.875" d="M10.731 0.496L0.276 0.496" transform="translate(-1078 -2705) translate(1080 2706) translate(8.43 11.356) translate(0 4.721)"/>
                    </g>
                    <path stroke="#D1A448" stroke-linecap="round" stroke-linejoin="round" stroke-width="1.875" d="M164.152 234.015L166.77 238.549 169.388 243.083 164.152 243.083 158.917 243.083 161.535 238.549z" transform="translate(-1078 -2705) translate(1080 2706) translate(8.43 11.356)"/>
                    <g>
                        <path fill="#000" d="M0.09 0.482L10.544 0.482" transform="translate(-1078 -2705) translate(1080 2706) translate(8.43 11.356) translate(158.835 237.41)"/>
                        <path stroke="#D1A448" stroke-linecap="round" stroke-linejoin="round" stroke-width="1.875" d="M0.09 0.482L10.544 0.482" transform="translate(-1078 -2705) translate(1080 2706) translate(8.43 11.356) translate(158.835 237.41)"/>
                    </g>
                    <path stroke="#FFF" stroke-linecap="round" stroke-linejoin="round" stroke-width="1.875" d="M66.272 177.656s-3.443-1.452-6.122-2.477c-2.68-1.025-4.689.33-5.087.9-.4.57-.413 1.197 1.39 1.503 1.803.306 9.108 4.884 9.92 5.24.813.356 1.12.676 4.02 1.537 2.9.862 5.602 2.008 6.777 2.3 1.176.291 3.941 1.8 3.941 1.8 1.262.777 2.922.983 2.922.983 3.192-.315 5.786.225 5.786.225l12.143.85 11.009.801s19.63.802 39.572.543" transform="translate(-1078 -2705) translate(1080 2706) translate(8.43 11.356)"/>
                    <path stroke="#FFF" stroke-linecap="round" stroke-linejoin="round" stroke-width="1.875" d="M83.014 187.56s-6.051-2.426-7.127-2.86c-1.076-.435-3.805-.327-5.502-2.15-1.697-1.824-7.043-8.748-7.514-9.289-.47-.541-3.108-3.447-1.918-3.783 1.19-.335 2.942-1.02 6.036 3.055 0 0 5.047 5.228 5.66 5.869l2.23.605" transform="translate(-1078 -2705) translate(1080 2706) translate(8.43 11.356)"/>
                    <path stroke="#FFF" stroke-linecap="round" stroke-linejoin="round" stroke-width="1.875" d="M87.823 187.21s-2.045-.263-2.9-.861c-.856-.598-7.69-4.636-7.69-4.636s-.791-.234-2.845-3.369c-2.054-3.134-4.934-5.998-5.44-8.157 0 0 1.667-1.168 3.278.17 1.61 1.34 5.93 6.696 5.93 6.696s4.612 2.057 6.28 3.012c0 0 10.11-.04 10.76.095l2.942-1.02" transform="translate(-1078 -2705) translate(1080 2706) translate(8.43 11.356)"/>
                    <path stroke="#FFF" stroke-linecap="round" stroke-linejoin="round" stroke-width="1.875" d="M89.821 176.613l-2.814 1.747s-1.03-.46-3.92.997M85.223 178.495L80.975 178.343" transform="translate(-1078 -2705) translate(1080 2706) translate(8.43 11.356)"/>
                    <path stroke="#FFF" stroke-linecap="round" stroke-linejoin="round" stroke-width="1.875" d="M75.381 173.723s5.304-.74 6.643-.227c1.34.512 3.165.939 4.276.867 1.112-.072 12.442.422 13.474.615 1.034.192 3.307 1.039 4.555 2.442 0 0 2.31 2.464 3.892 2.934 1.582.47 11.457-.903 11.457-.903s18.416-4.08 32.857-6.584M76.595 186.49s-10.364-2.706-13.827-3.218c-3.463-.511-5.622-.004-5.217-1.95.406-1.945 3.666-1.555 3.666-1.555l.652-.89M77.044 181.237L77.718 180.562M75.998 180.562L77.381 179.551M71.83 183.603L72.66 182.248M70.299 182.248L71.648 181.574M65.526 176.613L66.253 175.841M64.916 175.841L66.253 174.829M72.66 175.841L73.672 175.167M71.83 174.868L72.66 174.492M68.1 183.603L68.95 182.586M69.471 184.077L69.962 183.26" transform="translate(-1078 -2705) translate(1080 2706) translate(8.43 11.356)"/>
                    <path fill="#000" d="M70.553 173.173s1.096-.03.421-1.379c-.674-1.349-2.36-2.698-2.36-2.698s-.982-.27.857 2.394l1.082 1.683z" transform="translate(-1078 -2705) translate(1080 2706) translate(8.43 11.356)"/>
                    <path stroke="#44E7D9" stroke-linecap="round" stroke-linejoin="round" stroke-width="1.875" d="M70.553 173.173s1.096-.03.421-1.379c-.674-1.349-2.36-2.698-2.36-2.698s-.982-.27.857 2.394l1.082 1.683z" transform="translate(-1078 -2705) translate(1080 2706) translate(8.43 11.356)"/>
                    <path fill="#000" d="M62.252 172.65s1.096-.03.421-1.378c-.674-1.349-2.36-2.698-2.36-2.698s-.982-.27.858 2.394l1.08 1.683z" transform="translate(-1078 -2705) translate(1080 2706) translate(8.43 11.356)"/>
                    <path stroke="#44E7D9" stroke-linecap="round" stroke-linejoin="round" stroke-width="1.875" d="M62.252 172.65s1.096-.03.421-1.378c-.674-1.349-2.36-2.698-2.36-2.698s-.982-.27.858 2.394l1.08 1.683z" transform="translate(-1078 -2705) translate(1080 2706) translate(8.43 11.356)"/>
                    <path fill="#000" d="M57.829 177.866s.804-.745-.593-1.314c-1.396-.569-3.553-.47-3.553-.47s-.916.444 2.224 1.233l1.922.55z" transform="translate(-1078 -2705) translate(1080 2706) translate(8.43 11.356)"/>
                    <path stroke="#44E7D9" stroke-linecap="round" stroke-linejoin="round" stroke-width="1.875" d="M57.829 177.866s.804-.745-.593-1.314c-1.396-.569-3.553-.47-3.553-.47s-.916.444 2.224 1.233l1.922.55z" transform="translate(-1078 -2705) translate(1080 2706) translate(8.43 11.356)"/>
                    <path fill="#000" d="M60.327 183.037s.68-.86-.788-1.207c-1.467-.348-3.584.081-3.584.081s-.837.58 2.388.877l1.984.249z" transform="translate(-1078 -2705) translate(1080 2706) translate(8.43 11.356)"/>
                    <path stroke="#44E7D9" stroke-linecap="round" stroke-linejoin="round" stroke-width="1.875" d="M60.327 183.037s.68-.86-.788-1.207c-1.467-.348-3.584.081-3.584.081s-.837.58 2.388.877l1.984.249z" transform="translate(-1078 -2705) translate(1080 2706) translate(8.43 11.356)"/>
                    <path stroke="#D1A448" stroke-linecap="round" stroke-linejoin="round" stroke-width="1.875" d="M75.368 95.386c0 7.906 6.409 14.314 14.314 14.314 7.906 0 14.315-6.408 14.315-14.314 0-7.905-6.41-14.314-14.315-14.314-7.905 0-14.314 6.409-14.314 14.314z" transform="translate(-1078 -2705) translate(1080 2706) translate(8.43 11.356)"/>
                    <path stroke="#D1A448" stroke-linecap="round" stroke-linejoin="round" stroke-width="1.875" d="M80.982 105.991L89.779 81.71 98.547 105.991 76.686 91.312 102.752 91.312z" transform="translate(-1078 -2705) translate(1080 2706) translate(8.43 11.356)"/>
                    <path stroke="#D1A448" stroke-linecap="round" stroke-linejoin="round" stroke-width="1.875" d="M105.7 95.368c0-8.846-7.171-16.018-16.018-16.018-8.846 0-16.018 7.172-16.018 16.018 0 8.847 7.172 16.019 16.018 16.019 8.847 0 16.019-7.172 16.019-16.019zM93.226 125.609c0 7.905 6.409 14.314 14.314 14.314 7.906 0 14.315-6.41 14.315-14.314 0-7.906-6.409-14.314-14.315-14.314-7.905 0-14.314 6.408-14.314 14.314z" transform="translate(-1078 -2705) translate(1080 2706) translate(8.43 11.356)"/>
                    <path stroke="#D1A448" stroke-linecap="round" stroke-linejoin="round" stroke-width="1.875" d="M98.84 136.213L107.638 111.933 116.406 136.213 94.544 121.535 120.61 121.535z" transform="translate(-1078 -2705) translate(1080 2706) translate(8.43 11.356)"/>
                    <path stroke="#D1A448" stroke-linecap="round" stroke-linejoin="round" stroke-width="1.875" d="M123.559 125.59c0-8.846-7.172-16.018-16.019-16.018-8.846 0-16.018 7.172-16.018 16.018 0 8.847 7.172 16.019 16.018 16.019 8.847 0 16.019-7.172 16.019-16.019zM57.817 125.609c0 7.905 6.409 14.314 14.314 14.314 7.906 0 14.315-6.41 14.315-14.314 0-7.906-6.41-14.314-14.315-14.314-7.905 0-14.314 6.408-14.314 14.314z" transform="translate(-1078 -2705) translate(1080 2706) translate(8.43 11.356)"/>
                    <path stroke="#D1A448" stroke-linecap="round" stroke-linejoin="round" stroke-width="1.875" d="M63.431 136.213L72.228 111.933 80.996 136.213 59.135 121.535 85.201 121.535z" transform="translate(-1078 -2705) translate(1080 2706) translate(8.43 11.356)"/>
                    <path stroke="#D1A448" stroke-linecap="round" stroke-linejoin="round" stroke-width="1.875" d="M88.15 125.59c0-8.846-7.172-16.018-16.019-16.018-8.846 0-16.018 7.172-16.018 16.018 0 8.847 7.172 16.019 16.018 16.019 8.847 0 16.019-7.172 16.019-16.019zM75.353 156.128c0 7.905 6.409 14.314 14.314 14.314 7.906 0 14.315-6.409 14.315-14.314s-6.41-14.314-14.315-14.314c-7.905 0-14.314 6.409-14.314 14.314z" transform="translate(-1078 -2705) translate(1080 2706) translate(8.43 11.356)"/>
                    <path stroke="#D1A448" stroke-linecap="round" stroke-linejoin="round" stroke-width="1.875" d="M80.967 166.733L89.764 142.452 98.532 166.733 76.671 152.054 102.737 152.054z" transform="translate(-1078 -2705) translate(1080 2706) translate(8.43 11.356)"/>
                    <path stroke="#D1A448" stroke-linecap="round" stroke-linejoin="round" stroke-width="1.875" d="M105.686 156.11c0-8.847-7.172-16.019-16.019-16.019-8.846 0-16.018 7.172-16.018 16.019 0 8.846 7.172 16.018 16.018 16.018 8.847 0 16.019-7.172 16.019-16.018z" transform="translate(-1078 -2705) translate(1080 2706) translate(8.43 11.356)"/>
                    <path stroke="#FFF" stroke-linecap="round" stroke-linejoin="round" stroke-width="1.875" d="M111.219 74.25s3.442 1.452 6.121 2.477c2.68 1.025 4.689-.33 5.088-.9.398-.57.412-1.197-1.39-1.503-1.803-.306-9.109-4.884-9.921-5.24-.813-.356-1.12-.677-4.02-1.538-2.9-.861-5.601-2.007-6.777-2.299-1.176-.292-3.941-1.8-3.941-1.8-1.262-.777-2.922-.983-2.922-.983-3.192.315-5.786-.225-5.786-.225l-12.142-.85-11.01-.801s-26.122-1.068-48.71-.342" transform="translate(-1078 -2705) translate(1080 2706) translate(8.43 11.356)"/>
                    <path stroke="#FFF" stroke-linecap="round" stroke-linejoin="round" stroke-width="1.875" d="M94.477 64.345s6.05 2.427 7.126 2.861c1.077.434 3.806.326 5.502 2.15 1.697 1.824 7.044 8.747 7.514 9.289.47.541 3.108 3.447 1.919 3.782-1.19.336-2.943 1.02-6.037-3.054 0 0-5.047-5.228-5.66-5.87l-2.23-.604" transform="translate(-1078 -2705) translate(1080 2706) translate(8.43 11.356)"/>
                    <path stroke="#FFF" stroke-linecap="round" stroke-linejoin="round" stroke-width="1.875" d="M89.667 64.696s2.045.263 2.9.861c.856.598 7.691 4.636 7.691 4.636s.79.234 2.845 3.369c2.053 3.134 4.933 5.997 5.44 8.156 0 0-1.667 1.17-3.279-.17-1.61-1.338-5.93-6.695-5.93-6.695s-4.611-2.057-6.28-3.012c0 0-10.11.04-10.759-.095l-2.942 1.02" transform="translate(-1078 -2705) translate(1080 2706) translate(8.43 11.356)"/>
                    <path stroke="#FFF" stroke-linecap="round" stroke-linejoin="round" stroke-width="1.875" d="M87.67 75.292l2.813-1.747s1.031.461 3.921-.996M92.267 73.411L96.515 73.563" transform="translate(-1078 -2705) translate(1080 2706) translate(8.43 11.356)"/>
                    <path stroke="#FFF" stroke-linecap="round" stroke-linejoin="round" stroke-width="1.875" d="M102.11 78.183s-5.304.74-6.644.227c-1.34-.512-3.164-.939-4.276-.867-1.111.071-12.441-.423-13.474-.615-1.033-.192-3.307-1.039-4.554-2.442 0 0-2.31-2.465-3.892-2.934-1.582-.47-11.458.902-11.458.902s-27.982 6.199-42.01 8.006M100.895 65.416s10.364 2.706 13.827 3.217c3.463.512 5.622.005 5.217 1.95-.405 1.946-3.666 1.555-3.666 1.555l-.651.892M100.446 70.669L99.772 71.344M101.493 71.344L100.109 72.355M105.66 68.302L104.83 69.657M107.191 69.657L105.842 70.332M111.964 75.292L111.238 76.065M112.574 76.065L111.238 77.076M104.83 76.065L103.819 76.739M105.66 77.038L104.83 77.414M109.391 68.302L108.54 69.32M108.019 67.829L107.528 68.646" transform="translate(-1078 -2705) translate(1080 2706) translate(8.43 11.356)"/>
                    <path fill="#000" d="M106.938 78.733s-1.096.03-.422 1.378c.675 1.35 2.36 2.698 2.36 2.698s.983.27-.857-2.394l-1.081-1.682z" transform="translate(-1078 -2705) translate(1080 2706) translate(8.43 11.356)"/>
                    <path stroke="#44E7D9" stroke-linecap="round" stroke-linejoin="round" stroke-width="1.875" d="M106.938 78.733s-1.096.03-.422 1.378c.675 1.35 2.36 2.698 2.36 2.698s.983.27-.857-2.394l-1.081-1.682z" transform="translate(-1078 -2705) translate(1080 2706) translate(8.43 11.356)"/>
                    <path fill="#000" d="M115.239 79.255s-1.096.03-.422 1.378c.675 1.35 2.36 2.698 2.36 2.698s.982.27-.857-2.394l-1.081-1.682z" transform="translate(-1078 -2705) translate(1080 2706) translate(8.43 11.356)"/>
                    <path stroke="#44E7D9" stroke-linecap="round" stroke-linejoin="round" stroke-width="1.875" d="M115.239 79.255s-1.096.03-.422 1.378c.675 1.35 2.36 2.698 2.36 2.698s.982.27-.857-2.394l-1.081-1.682z" transform="translate(-1078 -2705) translate(1080 2706) translate(8.43 11.356)"/>
                    <path fill="#000" d="M119.661 74.04s-.804.745.593 1.314c1.397.569 3.554.47 3.554.47s.916-.444-2.224-1.233l-1.923-.551z" transform="translate(-1078 -2705) translate(1080 2706) translate(8.43 11.356)"/>
                    <path stroke="#44E7D9" stroke-linecap="round" stroke-linejoin="round" stroke-width="1.875" d="M119.661 74.04s-.804.745.593 1.314c1.397.569 3.554.47 3.554.47s.916-.444-2.224-1.233l-1.923-.551z" transform="translate(-1078 -2705) translate(1080 2706) translate(8.43 11.356)"/>
                    <path fill="#000" d="M117.164 68.869s-.68.86.787 1.207c1.468.347 3.584-.081 3.584-.081s.837-.58-2.387-.877l-1.984-.249z" transform="translate(-1078 -2705) translate(1080 2706) translate(8.43 11.356)"/>
                    <path stroke="#44E7D9" stroke-linecap="round" stroke-linejoin="round" stroke-width="1.875" d="M117.164 68.869s-.68.86.787 1.207c1.468.347 3.584-.081 3.584-.081s.837-.58-2.387-.877l-1.984-.249z" transform="translate(-1078 -2705) translate(1080 2706) translate(8.43 11.356)"/>
                    <path fill="#FFF" d="M36.368 160.663c-.239.042-.465-.118-.506-.357-.041-.238.118-.464.357-.506.238-.04.464.12.505.358.042.238-.118.464-.356.505M60.888 163.943c.053.307-.153.598-.459.651-.306.053-.598-.153-.65-.46-.053-.306.152-.597.458-.65.307-.052.598.153.65.46M49.728 166.266c-.307.053-.598-.153-.65-.459-.053-.306.152-.598.458-.65.306-.053.598.152.65.458.054.307-.152.598-.458.65M59.854 146.222c-.409.07-.797-.204-.867-.612-.071-.408.203-.797.612-.867.408-.07.796.203.867.612.07.408-.204.797-.612.867M47.206 126.108c-.307.053-.598-.152-.651-.459-.053-.306.152-.597.459-.65.306-.053.598.152.65.459.053.306-.152.597-.458.65M58.048 155.769c-.17.03-.332-.085-.361-.255-.03-.17.084-.332.255-.361.17-.03.331.084.36.255.03.17-.084.332-.254.361M30.802 143.537c-.17.03-.332-.084-.36-.254-.03-.17.084-.332.254-.362.17-.029.332.085.361.255.03.17-.084.332-.255.361M45.8 138.7c-.24.04-.466-.12-.507-.358-.04-.238.119-.465.357-.506.239-.04.465.12.506.357.041.239-.118.465-.357.506M45.112 151.779c.053.306-.152.597-.459.65-.306.053-.597-.152-.65-.459-.053-.306.152-.597.459-.65.306-.053.597.152.65.459M140.262 86.282c.232-.067.474.067.54.3.068.232-.067.475-.3.541-.232.067-.474-.068-.54-.3-.067-.232.067-.475.3-.541M120.251 85.67c-.085-.298.087-.61.387-.696.298-.085.61.087.696.386.085.299-.087.611-.386.697-.3.085-.61-.088-.697-.386M131.095 82.156c.3-.086.61.087.696.386.086.298-.087.61-.385.696-.3.085-.61-.088-.697-.386-.085-.3.088-.61.386-.696M133.153 119.237c.399-.114.814.116.928.515.115.398-.116.814-.514.928-.398.114-.814-.116-.928-.515-.115-.398.116-.813.514-.928M116.697 100.223c.299-.086.61.087.696.386.085.299-.087.61-.386.696-.299.086-.61-.087-.696-.386-.086-.299.087-.61.386-.696M123.958 93.49c.166-.048.34.049.387.215.048.165-.049.339-.214.386-.166.048-.34-.048-.387-.214-.048-.166.048-.34.214-.387M144.947 105.404c.166-.048.34.048.387.214.047.166-.049.34-.215.387-.166.048-.34-.049-.387-.215-.047-.166.049-.339.215-.386M129.212 105.427c.232-.067.474.067.541.3.067.232-.068.475-.3.541-.232.067-.475-.068-.542-.3-.066-.232.068-.475.3-.541M137.25 96.06c-.086-.3.087-.612.385-.697.3-.086.611.087.696.386.086.299-.087.61-.385.696-.3.086-.61-.087-.697-.386" transform="translate(-1078 -2705) translate(1080 2706) translate(8.43 11.356)"/>
                    <path stroke="#FFF" stroke-linecap="round" stroke-linejoin="round" stroke-width="1.875" d="M5.775 14.799L5.775 239.564 37.17 239.564M101.087 3.457L165.082 3.457 165.082 226.212M17.245 3.457L69.388 3.457" transform="translate(-1078 -2705) translate(1080 2706) translate(8.43 11.356)"/>
                </g>
                <path fill="#44E7D9" fill-rule="nonzero" d="M90.701 20.22V8.99h-.843v11.23h.843zm5.26 0l2.53-11.23h-.877c-1.315 5.935-2.068 9.38-2.26 10.336-.156-.765-.91-4.21-2.259-10.336h-.876l2.529 11.23h1.214z" transform="translate(-1078 -2705) translate(1080 2706)"/>
            </g>
        </g>
    </g>
</svg>
