<svg xmlns="http://www.w3.org/2000/svg" width="191" height="269" viewBox="0 0 191 269"><title>Двойка Пентаклей</title>
    <g fill="none" fill-rule="evenodd">
        <g>
            <g>
                <path fill="#182018" stroke="#FFF" stroke-linecap="round" stroke-linejoin="round" stroke-width="2.5" d="M177.475 265.764H9.604c-5.21 0-9.435-4.224-9.435-9.436V10C.169 4.789 4.393.564 9.604.564h167.871c5.211 0 9.436 4.225 9.436 9.436v246.328c0 5.212-4.225 9.436-9.436 9.436z" transform="translate(-485 -2705) translate(487 2706)"/>
                <path fill="#44E7D9" fill-rule="nonzero" d="M58.81 253.883v-10.067h2.14v-.729h-5.09v.73H58v10.066h.81zm5.754 0l.99-5.706c.237-1.362.41-2.631.518-3.81.119 1.179.627 4.35 1.524 9.516h1.167l1.88-10.796H69.8c-.897 5.436-1.437 8.791-1.62 10.067l-.422-2.837-1.2-7.23h-.956l-1.2 7.214c-.162.95-.302 1.902-.421 2.853l-.422-2.837-1.2-7.23h-.842l1.88 10.796h1.167zm10.116.162c.853 0 1.496-.23 1.929-.689.432-.46.648-1.056.648-1.791v-6.16c0-.735-.216-1.332-.648-1.791-.433-.46-1.076-.69-1.93-.69-.853 0-1.496.23-1.929.69-.432.46-.648 1.056-.648 1.791v6.16c0 .735.216 1.332.648 1.791.433.46 1.076.69 1.93.69zm0-.73c-1.178 0-1.767-.583-1.767-1.75v-6.16c0-1.167.589-1.75 1.767-1.75 1.177 0 1.766.583 1.766 1.75v6.16c0 1.167-.589 1.75-1.766 1.75zm10.342.73c.853 0 1.496-.23 1.929-.689.432-.46.648-1.056.648-1.791v-6.16c0-.735-.216-1.332-.648-1.791-.433-.46-1.076-.69-1.93-.69-.853 0-1.496.23-1.928.69-.433.46-.649 1.056-.649 1.791v6.16c0 .735.216 1.332.649 1.791.432.46 1.075.69 1.929.69zm0-.73c-1.178 0-1.767-.583-1.767-1.75v-6.16c0-1.167.589-1.75 1.767-1.75s1.767.583 1.767 1.75v6.16c0 1.167-.59 1.75-1.767 1.75zm5.657.568v-4.912h3.372v-.73h-3.372v-4.425h3.518v-.729h-4.328v10.796h.81zm12.612 0v-.73h-3.664v-4.344h3.194v-.73h-3.194v-4.263h3.664v-.729h-4.474v10.796h4.474zm1.815 0l.73-3.16h3.08l.729 3.16h.843l-2.529-10.796h-1.167l-2.529 10.796h.843zm3.647-3.89h-2.755l1.378-5.982 1.377 5.982zm4.085 3.89v-4.458l1.731-.002c.096-.002.173-.007.23-.014l1.606 4.474h.891l-1.702-4.652c.93-.346 1.394-1.092 1.394-2.237v-1.475c0-.735-.216-1.324-.648-1.767-.432-.443-1.075-.665-1.93-.665h-2.382v10.796h.81zm1.573-5.22h-1.573v-4.847h1.573c1.178 0 1.767.568 1.767 1.703v1.475c0 1.113-.59 1.67-1.767 1.67zm6.808 5.22v-10.067h2.14v-.729h-5.09v.73h2.14v10.066h.81zm4.328 0v-4.928h3.793v4.928h.827v-10.796h-.827v5.139h-3.793v-5.139h-.81v10.796h.81z" transform="translate(-485 -2705) translate(487 2706)"/>
                <g>
                    <path stroke="#FFF" stroke-linecap="round" stroke-linejoin="round" stroke-width="1.875" d="M153.937 239.564L132.1 239.564M5.775 14.799L5.775 239.564 37.17 239.564" transform="translate(-485 -2705) translate(487 2706) translate(8.43 11.356)"/>
                    <path stroke="#D1A448" stroke-linecap="round" stroke-linejoin="round" stroke-width="1.875" d="M5.503 9.093L2.886 4.559 0.268 0.025 5.503 0.025 10.739 0.025 8.121 4.559z" transform="translate(-485 -2705) translate(487 2706) translate(8.43 11.356)"/>
                    <g>
                        <path fill="#000" d="M10.73 0.495L0.276 0.495" transform="translate(-485 -2705) translate(487 2706) translate(8.43 11.356) translate(0 4.721)"/>
                        <path stroke="#D1A448" stroke-linecap="round" stroke-linejoin="round" stroke-width="1.875" d="M10.73 0.495L0.276 0.495" transform="translate(-485 -2705) translate(487 2706) translate(8.43 11.356) translate(0 4.721)"/>
                    </g>
                    <path stroke="#D1A448" stroke-linecap="round" stroke-linejoin="round" stroke-width="1.875" d="M164.152 234.015L166.77 238.549 169.387 243.083 164.152 243.083 158.917 243.083 161.534 238.549z" transform="translate(-485 -2705) translate(487 2706) translate(8.43 11.356)"/>
                    <g>
                        <path fill="#000" d="M0.09 0.482L10.544 0.482" transform="translate(-485 -2705) translate(487 2706) translate(8.43 11.356) translate(158.835 237.41)"/>
                        <path stroke="#D1A448" stroke-linecap="round" stroke-linejoin="round" stroke-width="1.875" d="M0.09 0.482L10.544 0.482" transform="translate(-485 -2705) translate(487 2706) translate(8.43 11.356) translate(158.835 237.41)"/>
                    </g>
                    <path stroke="#FFF" stroke-linecap="round" stroke-linejoin="round" stroke-width="1.875" d="M101.088 3.457L165.082 3.457 165.082 226.212M17.245 3.457L69.388 3.457" transform="translate(-485 -2705) translate(487 2706) translate(8.43 11.356)"/>
                </g>
                <path fill="#44E7D9" fill-rule="nonzero" d="M92.404 20.22V8.99h-.843v11.23h.843zm3.372 0V8.99h-.843v11.23h.843z" transform="translate(-485 -2705) translate(487 2706)"/>
                <g>
                    <path stroke="#FFF" stroke-linecap="round" stroke-linejoin="round" stroke-width="1.875" d="M133.544 41.017c-1.15 9.907-13.27 17.81-16.717 19.057-3.448 1.246-11.175 4.12-18.913 3.315 0 0-6.828.452-16.69-2.06l-4.59-1.244S83.307 43.96 92.75 34.604c9.443-9.356 18.68-12.587 26.292-12.059 7.612.528 15.653 8.565 14.502 18.472zm-64.532 22.9c-3.228 6.84-13.176 23.126-24.142 29.161-10.967 6.035-18.787 3.592-18.787 3.592-14.937-5.543-12.798-16.703-11.03-20.399 1.879-3.93 4.286-10.081 15.541-16.508 13.287-7.586 39.893.797 39.893.797l-1.475 3.356zm60.745-39.922s-9.816-3.872-17.07-2.89c-7.254.982-14.127 2.795-23.547 11.47-9.42 8.676-17.777 26.243-17.777 26.243l-9.861-2.512c-24.867-6.013-47.613 3.917-51.796 18.9-4.182 14.983 9.52 20.757 9.52 20.757 9.367 5.083 23.263 1.055 23.263 1.055s13.245-2.893 23.874-19.157c10.082-15.427 9.377-16.263 9.277-16.308.195.058 13.282 3.98 23.035 3.497 9.826-.487 25.327.443 36.936-16.607 0 0 10.918-12.712-5.854-24.448z" transform="translate(-485 -2705) translate(487 2706) translate(17.536 69.022)"/>
                    <path stroke="#D1A448" stroke-linecap="round" stroke-linejoin="round" stroke-width="1.875" d="M26.837 80.634c2.783 6.068 9.957 8.731 16.025 5.948 6.067-2.783 8.73-9.958 5.947-16.026-2.783-6.067-9.958-8.73-16.025-5.947-6.068 2.783-8.73 9.958-5.947 16.025z" transform="translate(-485 -2705) translate(487 2706) translate(17.536 69.022)"/>
                    <path stroke="#D1A448" stroke-linecap="round" stroke-linejoin="round" stroke-width="1.875" d="M34.879 86.797L33.083 65.065 48.36 80.614 26.414 77.044 46.42 67.868z" transform="translate(-485 -2705) translate(487 2706) translate(17.536 69.022)"/>
                    <path stroke="#D1A448" stroke-linecap="round" stroke-linejoin="round" stroke-width="1.875" d="M50.11 69.943c-3.113-6.79-11.142-9.77-17.932-6.656-6.79 3.115-9.77 11.144-6.656 17.934 3.114 6.79 11.143 9.77 17.934 6.655 6.79-3.115 9.77-11.143 6.655-17.933zM100.952 46.763c2.783 6.067 9.958 8.73 16.025 5.947 6.068-2.783 8.73-9.958 5.947-16.026-2.782-6.067-9.957-8.73-16.025-5.947-6.068 2.783-8.73 9.958-5.947 16.026z" transform="translate(-485 -2705) translate(487 2706) translate(17.536 69.022)"/>
                    <path stroke="#D1A448" stroke-linecap="round" stroke-linejoin="round" stroke-width="1.875" d="M108.994 52.926L107.198 31.193 122.475 46.742 100.529 43.172 120.535 33.996z" transform="translate(-485 -2705) translate(487 2706) translate(17.536 69.022)"/>
                    <path stroke="#D1A448" stroke-linecap="round" stroke-linejoin="round" stroke-width="1.875" d="M124.226 36.07c-3.114-6.79-11.143-9.77-17.933-6.655-6.79 3.115-9.77 11.144-6.656 17.934 3.115 6.79 11.144 9.77 17.934 6.655 6.79-3.114 9.77-11.143 6.655-17.933z" transform="translate(-485 -2705) translate(487 2706) translate(17.536 69.022)"/>
                    <path fill="#FFF" d="M144.633 27.799c-.08.228-.33.347-.559.266-.227-.08-.347-.33-.266-.558.08-.228.331-.347.559-.267.228.081.347.331.266.559M119.958 10.602c.293.104.446.426.342.72-.104.292-.426.445-.719.341-.293-.104-.446-.425-.342-.718.104-.294.426-.447.719-.343M134.42 16.573c-.105.293-.427.446-.72.342-.293-.104-.446-.426-.342-.718.104-.294.426-.447.719-.343.293.104.446.426.342.719M146.55 11.755c-.139.391-.568.595-.958.457-.391-.14-.595-.568-.457-.958.139-.391.568-.596.958-.457.39.139.595.568.457.958M99.587 10.204c-.104.292-.425.446-.718.342-.293-.104-.446-.426-.343-.719.104-.293.426-.446.72-.342.292.104.445.426.341.719M135.838 5.773c-.058.162-.237.248-.4.19-.162-.058-.247-.237-.19-.4.058-.162.237-.247.4-.19.162.058.247.237.19.4M111.364 13.353c-.057.163-.236.248-.399.19-.163-.057-.248-.236-.19-.399.058-.163.236-.248.4-.19.162.058.247.237.19.4M109.962 3.12c-.08.229-.331.347-.559.267-.228-.081-.347-.331-.266-.56.08-.227.33-.346.559-.266.228.081.347.332.266.56M123.106.129c.293.104.446.426.342.718-.104.293-.426.446-.719.343-.293-.104-.446-.426-.342-.72.104-.292.425-.446.719-.341M26.042 123.868c-.119.21-.386.285-.596.166-.21-.119-.285-.386-.166-.597.119-.21.385-.285.596-.166.21.12.285.386.166.597M44.095 106.954c.271.152.366.496.214.766-.153.271-.497.367-.767.214-.271-.153-.367-.496-.214-.767.153-.27.496-.366.767-.213M38.833 117.066c-.153.27-.496.366-.766.213-.271-.152-.367-.496-.214-.767.153-.27.496-.366.767-.213.27.153.366.496.213.767M1.702 106.316c-.203.36-.661.488-1.022.285-.361-.204-.488-.662-.285-1.023.204-.361.662-.488 1.023-.285.36.204.488.662.284 1.023M6.138 93.613c-.153.271-.496.366-.767.214-.27-.153-.366-.497-.213-.768.152-.27.496-.366.767-.213.27.153.366.496.213.767M35.968 103.981c-.085.15-.276.204-.426.12-.15-.086-.204-.277-.119-.427.085-.15.276-.204.426-.119.15.085.204.276.119.426M9.258 117.343c-.084.15-.275.204-.426.119-.15-.085-.203-.276-.118-.426.085-.15.276-.204.426-.12.15.086.203.277.118.427M15 102.668c-.12.21-.386.285-.597.166-.21-.119-.285-.386-.166-.596.119-.21.386-.285.596-.167.21.12.285.387.166.597M24.694 111.475c.27.153.366.496.213.767-.153.27-.496.366-.767.213-.27-.153-.366-.496-.213-.767.153-.27.496-.366.767-.213" transform="translate(-485 -2705) translate(487 2706) translate(17.536 69.022)"/>
                </g>
            </g>
        </g>
    </g>
</svg>
