<svg xmlns="http://www.w3.org/2000/svg" width="191" height="267" viewBox="0 0 191 267"><title>Пятёрка Мечей</title>
    <g fill="none" fill-rule="evenodd">
        <g>
            <g>
                <g>
                    <path fill="#1a1d24" stroke="#FFF" stroke-linecap="round" stroke-linejoin="round" stroke-width="2.5" d="M177.795 263.217H9.62c-5.22 0-9.452-4.192-9.452-9.365V9.365C.17 4.193 4.401 0 9.621 0h168.174c5.22 0 9.452 4.193 9.452 9.365v244.487c0 5.173-4.232 9.365-9.452 9.365z" transform="translate(-177 -621) translate(179 622) translate(0 .569)"/>
                    <path stroke="#FFF" stroke-linecap="round" stroke-linejoin="round" stroke-width="1.875" d="M120.152 136.75L116.018 128.966 120.494 126.633 123.361 132.032M126.185 137.349L128.78 142.236 124.305 144.569 124.061 144.111M130.53 143.736L130.05 142.832 129.57 141.929 123.768 144.954 124.727 146.761zM124.204 145.775L130.006 142.75" transform="translate(-177 -621) translate(179 622) translate(0 .569)"/>
                    <path stroke="#FFF" stroke-linecap="round" stroke-linejoin="round" stroke-width="1.875" d="M129.303 144.375s.559 1.491-.846 2.433c0 0-1.43.746-2.539-.668M98.63 98.024L113.299 126.923M98.433 84.317L84.778 59.583 77.904 51.422 80.302 61.916 94.974 90.82M120.02 123.419L102.104 90.967M116.858 125.068L103.566 100.539M103.13 99.718L102.433 98.404M102.084 97.747L102.258 98.076M96.726 87.493L77.904 51.422M101.648 96.926L100.366 94.47M114.33 122.401L112.638 121.606M114.095 123.153L112.655 122.435M113.807 121.415L112.961 121.018M126.92 123.388L109.679 132.376 108.196 129.583 125.437 120.595zM126.135 121.909L108.894 130.897M127.935 140.849L126.421 141.632M127.021 139.027L125.554 139.785M126.057 137.349L123.507 138.667M124.668 135.772L122.373 136.959M121.198 134.98L119.592 135.81M119.147 133.768L118.677 133.988M123.403 131.774L122.678 132.114M122.113 130.036L117.714 132.31M121.198 128.214L116.799 130.488M162.66 248.484L132.675 248.484M52.777 248.484L14.232 248.484 14.232 25.399" transform="translate(-177 -621) translate(179 622) translate(0 .569)"/>
                    <path stroke="#44E7D9" stroke-linecap="round" stroke-linejoin="round" stroke-width="1.25" d="M13.959 10.736L16.582 15.236 19.204 19.736 13.959 19.736 8.715 19.736 11.337 15.236z" transform="translate(-177 -621) translate(179 622) translate(0 .569)"/>
                    <g>
                        <path fill="#000" d="M0.277 0.193L10.75 0.193" transform="translate(-177 -621) translate(179 622) translate(0 .569) translate(8.446 14.393)"/>
                        <path stroke="#44E7D9" stroke-linecap="round" stroke-linejoin="round" stroke-width="1.25" d="M0.277 0.193L10.75 0.193" transform="translate(-177 -621) translate(179 622) translate(0 .569) translate(8.446 14.393)"/>
                    </g>
                </g>
                <path fill="#D1A448" fill-rule="nonzero" d="M66.353 251.5v-4.92h3.378v-.73h-3.378v-4.434h3.524v-.73h-4.336V251.5h.812zm5.879 0v-10.815h-.812v10.816h.812zm5.066 0l2.436-10.815h-.844c-1.267 5.716-1.992 9.035-2.176 9.955-.152-.736-.877-4.055-2.176-9.955h-.845l2.436 10.816h1.17zm8.38 0v-.73h-3.67v-4.352h3.2v-.731h-3.2v-4.271h3.67v-.73h-4.482V251.5h4.482zm7.373.163c.855 0 1.5-.23 1.932-.69.433-.46.65-1.058.65-1.795v-6.17c0-.737-.217-1.335-.65-1.795-.433-.46-1.077-.69-1.932-.69-.856 0-1.5.23-1.933.69-.433.46-.65 1.058-.65 1.794v6.171c0 .737.217 1.335.65 1.795.433.46 1.077.69 1.933.69zm0-.73c-1.18 0-1.77-.585-1.77-1.755v-6.17c0-1.17.59-1.755 1.77-1.755 1.18 0 1.77.585 1.77 1.754v6.171c0 1.17-.59 1.754-1.77 1.754zm5.667.568v-4.921h3.378v-.73h-3.378v-4.434h3.524v-.73h-4.336V251.5h.812zm8.104 0l.73-3.167h3.086l.73 3.167h.845l-2.533-10.816h-1.17l-2.533 10.816h.845zm3.654-3.898h-2.761l1.38-5.992 1.38 5.992zm4.092 3.898v-10.816h-.812v10.816h.812zm3.248 0v-4.466h1.575c.173 0 .303-.006.39-.017l1.608 4.483h.893l-1.705-4.661c.93-.347 1.396-1.094 1.396-2.241v-1.478c0-.736-.216-1.326-.65-1.77-.432-.444-1.077-.666-1.932-.666h-2.387v10.816h.812zm1.575-5.23h-1.575v-4.855h1.575c1.18 0 1.77.568 1.77 1.705v1.478c0 1.115-.59 1.672-1.77 1.672z" transform="translate(-177 -621) translate(179 622)"/>
                <g>
                    <path stroke="#44E7D9" stroke-linecap="round" stroke-linejoin="round" stroke-width="1.875" d="M147.218 239.258L144.596 234.758 141.974 230.258 147.218 230.258 152.463 230.258 149.841 234.758z" transform="translate(-177 -621) translate(179 622) translate(25.676 14.292)"/>
                    <path stroke="#FFF" stroke-linecap="round" stroke-linejoin="round" stroke-width="1.875" d="M84.04.419L148.15.419 148.15 221.508M.046.419L51.86.419" transform="translate(-177 -621) translate(179 622) translate(25.676 14.292)"/>
                    <g>
                        <path fill="#000" d="M10.563 0.448L0.09 0.448" transform="translate(-177 -621) translate(179 622) translate(25.676 14.292) translate(141.892 234.966)"/>
                        <path stroke="#44E7D9" stroke-linecap="round" stroke-linejoin="round" stroke-width="1.875" d="M10.563 0.448L0.09 0.448" transform="translate(-177 -621) translate(179 622) translate(25.676 14.292) translate(141.892 234.966)"/>
                    </g>
                    <path stroke="#FFF" stroke-linecap="round" stroke-linejoin="round" stroke-width="1.875" d="M54.859 117.307L55.925 115.243 51.423 112.96 49.144 117.37M48.006 131.996L47.419 133.133 43.089 130.937M42.817 130.8s-.136.374-.095.864c.042.49.26 1.096.968 1.559 0 0 1.439.73 2.53-.697M51.86 109.741L86.374 45.516 93.155 37.279 90.877 47.799 58.621 113.17M55.041 111.354L68.053 86.679M68.48 85.853L69.162 84.532M69.504 83.871L69.333 84.201M69.931 83.045L93.156 37.279M57.538 108.659L59.221 107.845M57.782 109.409L59.213 108.675M58.05 107.668L58.892 107.261" transform="translate(-177 -621) translate(179 622) translate(25.676 14.292)"/>
                    <path stroke="#FFF" stroke-linecap="round" stroke-linejoin="round" stroke-width="1.875" d="M44.961 109.787L62.302 118.581 63.753 115.773 46.412 106.978zM45.729 108.3L63.071 117.095M49.843 116.381L51.458 117.193M50.736 114.549L55.162 116.773M23.293 190.699L39.677 190.668 39.686 195.281 23.302 195.312zM21.32 196.085L22.269 196.083 23.217 196.081 23.205 190.101 21.308 190.105zM22.343 190.103L22.354 196.083M21.317 194.82s-1.466-.184-1.641-1.722c0 0-.003-1.474 1.634-1.766M42.533 196.271L110.137 195.06 119.791 192.992 110.128 190.447 42.52 189.343M42.527 193.012L68.396 192.749M69.259 192.747L70.638 192.744M71.328 192.743L70.983 192.743M72.19 192.741L119.791 192.992M45.802 192.108L47.18 191.08M45.284 191.597L46.489 190.74M46.837 192.106L47.526 191.592" transform="translate(-177 -621) translate(179 622) translate(25.676 14.292)"/>
                    <path stroke="#FFF" stroke-linecap="round" stroke-linejoin="round" stroke-width="1.875" d="M39.612 201.86L39.577 184.09 42.51 184.084 42.544 201.854zM41.165 201.857L41.13 184.086M24.804 195.222L24.811 190.696M26.695 195.261L26.702 190.735M28.488 195.199L28.495 190.673M30.378 195.238L30.385 190.712M32.509 195.159L32.516 190.633M34.211 195.436L34.406 190.672M36.193 195.136L36.2 190.609M38.083 195.175L38.09 190.649M116.174 174.575L99.79 174.607 99.781 169.993 116.165 169.962zM118.147 169.189L117.198 169.191 116.25 169.193 116.261 175.173 118.159 175.169zM117.124 175.171L117.112 169.191" transform="translate(-177 -621) translate(179 622) translate(25.676 14.292)"/>
                    <path stroke="#FFF" stroke-linecap="round" stroke-linejoin="round" stroke-width="1.875" d="M118.15 170.454s1.466.185 1.64 1.722c0 0 .004 1.475-1.634 1.766M96.933 169.003L29.33 170.214 19.675 172.283 29.339 174.827 96.947 175.931M96.94 172.263L71.071 172.526M70.208 172.528L68.828 172.53M68.138 172.532L68.483 172.531M67.276 172.533L19.676 172.282M93.665 173.166L92.287 174.194M94.183 173.678L92.978 174.534M92.63 173.168L91.941 173.682" transform="translate(-177 -621) translate(179 622) translate(25.676 14.292)"/>
                    <path stroke="#FFF" stroke-linecap="round" stroke-linejoin="round" stroke-width="1.875" d="M99.854 163.415L99.889 181.185 96.957 181.191 96.922 163.421zM98.302 163.418L98.337 181.188M114.662 170.052L114.655 174.578M112.772 170.013L112.765 174.539M110.979 170.076L110.971 174.601M109.088 170.036L109.081 174.562M106.958 170.116L106.951 174.642M105.256 169.839L105.06 174.602M103.274 170.139L103.267 174.665M101.384 170.099L101.376 174.626M23.293 149.165L39.677 149.133 39.686 153.746 23.302 153.778zM21.32 154.551L22.269 154.549 23.217 154.547 23.205 148.567 21.308 148.57zM22.343 148.568L22.354 154.549M21.317 153.286s-1.466-.185-1.641-1.722c0 0-.003-1.475 1.634-1.766M42.533 154.737L110.137 153.526 119.791 151.457 110.128 148.913 42.52 147.809M42.527 151.477L68.396 151.214M69.259 151.212L70.638 151.21M71.328 151.209L70.983 151.209M72.19 151.207L119.791 151.457M45.802 150.574L47.18 149.546M45.284 150.062L46.489 149.206M46.837 150.572L47.526 150.058" transform="translate(-177 -621) translate(179 622) translate(25.676 14.292)"/>
                    <path stroke="#FFF" stroke-linecap="round" stroke-linejoin="round" stroke-width="1.875" d="M39.612 160.325L39.577 142.555 42.51 142.55 42.544 160.32zM41.165 160.322L41.13 142.552M24.804 153.688L24.811 149.161M26.695 153.727L26.702 149.201M28.488 153.665L28.495 149.138M30.378 153.704L30.385 149.178M32.509 153.624L32.516 149.098M34.211 153.901L34.406 149.137M36.193 153.601L36.2 149.075M38.083 153.641L38.09 149.115" transform="translate(-177 -621) translate(179 622) translate(25.676 14.292)"/>
                    <path stroke="#D1A448" stroke-linecap="round" stroke-linejoin="round" stroke-width="1.875" d="M58.466 122.355s-.27.752-.196 1.342M58.335 120.333s-.327-.68-.058-1.432M50.257 114.743s-.82.205-1.833-.151c-1.012-.356-1.877.47-1.877.47s-2 1.607-2.955 2.683c-.955 1.075-3.074 1.424-3.074 1.424l-5.305.367-3.768.346M58.759 116.635s-.286.924-1.477 1.07c-1.192.146-2.368-.55-2.71-.388-.343.162-3.65-.153-4.841-.008-1.192.146-1.445.057-2.384.291-.939.235-1.804 1.06-1.804 1.06M47.853 117.778s-1.534.308-1.983 1.562" transform="translate(-177 -621) translate(179 622) translate(25.676 14.292)"/>
                    <path stroke="#D1A448" stroke-linecap="round" stroke-linejoin="round" stroke-width="1.875" d="M57.282 117.705s1.771.622 1.845 1.213c.073.59.147 1.18-.033 1.682-.18.501-1.208.987-1.804 1.06-.596.072-2.89.113-2.89.113M58.482 121.514s.76.267.653 1.358c-.106 1.092-.538 1.505-1.477 1.74-.939.234-2.13.38-2.816.703M57.266 127.296s.67.518.564 1.61c0 0 .073.59-1.298 1.237-1.371.647-1.804 1.06-3.339 1.367-1.535.308-5.959.729-8.236-.072-2.278-.8-6.958-2.041-9.812-1.702-2.854.34-3.644.472-3.644.472M53.054 125.534s-1.535.307-2.637.202M53.846 124.118s-.327-.679-.148-1.18M53.413 124.531s-.833-.857-.474-1.86M53.348 127.895s-.327-.679-.147-1.18M52.826 128.558s-.923-.606-.474-1.86M53.552 130.507s-.253-.089-.49-1.018M54.401 130.524s-.58-.769-.563-1.61M53.747 120.414s-.326-.679-.473-1.86M52.809 120.649s-.58-.768-.564-1.61M57.03 126.366s-.074-.59.105-1.092M57.234 128.979s-.58-.769-.4-1.27" transform="translate(-177 -621) translate(179 622) translate(25.676 14.292)"/>
                    <path stroke="#D1A448" stroke-linecap="round" stroke-linejoin="round" stroke-width="1.875" d="M57.821 124.951s.49 1.019-.375 1.844c-.865.825-2.833 1.545-2.833 1.545M56.024 115.705c.077.874 1.91.814 1.91.814M37.359 128.402s1.35-.67 2.027-.67h1.351" transform="translate(-177 -621) translate(179 622) translate(25.676 14.292)"/>
                    <g>
                        <path fill="#000" d="M0.196 0.29L17.595 9.078" transform="translate(-177 -621) translate(179 622) translate(25.676 14.292) translate(44.595 109.45)"/>
                        <path stroke="#FFF" stroke-linecap="round" stroke-linejoin="round" stroke-width="1.25" d="M0.196 0.29L17.595 9.078" transform="translate(-177 -621) translate(179 622) translate(25.676 14.292) translate(44.595 109.45)"/>
                    </g>
                    <path stroke="#44E7D9" stroke-linecap="round" stroke-linejoin="round" stroke-width="1.875" d="M93.823 121.278c.466.615.156 1.02.156 1.02-.14.28-1.03.505-1.593.575-.565.07-3.048-.178-3.359-.471-.31-.293-.905-1.774-.821-2.361.084-.588.957-1.413.957-1.413l2.338-.447" transform="translate(-177 -621) translate(179 622) translate(25.676 14.292)"/>
                    <path stroke="#44E7D9" stroke-linecap="round" stroke-linejoin="round" stroke-width="1.875" d="M90.153 120.164s.974.237 1.877.264c.903.026 1.637.529 1.665.682M91.425 121.84s.085.461.579.53c0 0 .988.14 1.679-.113 0 0 .169-.476-.1-1.063l-.618-.157s-1.172-.263-1.6.587M88.984 121.997s-.467-.964-.2-1.426M89.69 122.695s-.86.728-.69 1.3c.17.574.708 1.398 1.23 1.62.523.224 2.075.292 2.173.306M92.7 125.962s1.213-.03 1.679-.114c.465-.084 2.892-.143 3.328-.73 0 0 .225-.518-.156-1.02M92.767 123.027s.987.138 1.298.082c.31-.056 2.511.053 2.92.36.41.307.396.405.396.405" transform="translate(-177 -621) translate(179 622) translate(25.676 14.292)"/>
                    <path stroke="#44E7D9" stroke-linecap="round" stroke-linejoin="round" stroke-width="1.875" d="M91.388 125.978s-.395.294-.225.867.142 1.118.538 1.522c.396.405 1.27.279 1.764.348.494.07 2.272-.03 2.54-.143.267-.112 1.424-.45 1.904-.631.479-.183 1.523-.436 1.889-.883 0 0 .366-.448.225-.867-.142-.42-.453-.713-.594-.782-.322-.16-1.453-.055-1.778.1-.324.154-1.576.266-1.576.266" transform="translate(-177 -621) translate(179 622) translate(25.676 14.292)"/>
                    <path stroke="#44E7D9" stroke-linecap="round" stroke-linejoin="round" stroke-width="1.875" d="M93.79 128.91s-.325.154-.225.518c.099.363.368.95.594 1.131.226.182 1.37.642 1.947.473.579-.169 1.016-.057 1.778-.45.76-.392 2.613-1.678 2.692-1.918.117-.355.14-.686-.045-.916-.237-.295-.719-.439-.719-.439-.296-.041-1.565.73-2.1.953-.537.225-.903.323-.903.323s-.149.05-.653.019M91.614 126.509s-.155.377 0 .699c.157.32.185.474.312.642M94.016 129.441s.03.503.199.727M95.664 126.727s-.225.518.057 1.006M95.297 127.175s-.168.476.27.936M95.818 126.35s.51.67.425 1.257M93.275 123.697s-.239.615.03 1.202M93.572 124.088s.142.419.072 1.258M92.556 123.796s-.112.783.312 1.341M89.424 123.855s.1.364.453 1.062M93.005 122.062c-.634.21-1.157-.013-1.157-.013M96.922 129.2s.34.447.425.908M96.697 129.368s.071.559.51 1.02M96.358 129.27s-.098.336.156.671M99.453 121.718s-.156.029-1.411.002c-1.256-.026-3.12-.737-3.868-1.141-.748-.405-1.003-1.439-1.003-1.439s-.043-.405.084-.587M98.93 121.845s1.371 1.69 2.444 2.29M104.199 126.228c-.748-.056-2.245-.864-2.245-.864M103.762 126.141c-.86.054-1.623-.302-1.623-.302M96.414 131.087s.652.317 1.417.327M109.645 132.418c-.909-.622-2.781-1.338-2.781-1.338-.79.238-1.242.225-1.242.225s-2.032-.122-1.982-.07" transform="translate(-177 -621) translate(179 622) translate(25.676 14.292)"/>
                    <path stroke="#44E7D9" stroke-linecap="round" stroke-linejoin="round" stroke-width="1.875" d="M96.443 118.567s-.117.548-.57.754c-.453.207-2.13.206-2.494-.575 0 0-.048-.162.035-.355l3.03.176zM99.857 118.181c-.945.267-3.16.256-3.16.256M100.111 118.167s.367-.098 1.186.516c.82.614 1.85 1.507 3.008 1.87 1.157.361 2.329.625 3.33 1.365 1.004.74 2.826 2.443 2.826 2.443s2.781 1.78 3.453 1.779M99.83 118.377s-.367.448-.254.713M100.239 118.335s-.098.685-.253 1.062M100.492 118.32s.001.35-.027.546M99.328 128.023s.44-.344.64-.392c.124.047.657.116.551.726 0 0-.987.91-1.495.589-.508-.321.169-.825.169-.825M98.51 125.812s.644-.248.903-.222c.133.117.755.442.427 1.18 0 0-1.492.736-2 .096-.51-.639.474-.988.474-.988M108.295 129.647s.55-.672.647-1.706c0 0 .013-.447.267-.811M109.814 126.067s.437-.588.182-.923c-.254-.335-.128-.866-.212-.978M96.043 123.993s-1.027.189-.628.9c.398.712 1.99.223 1.99.223.443-.677-.118-1.097-.231-1.233-.25-.067-.927.075-.927.075l-.204.035zM93.806 118.93s.465.265 1.016.292M95.873 124.91s.226.181.635.139M99.659 128.735s.55-.322.62-.462" transform="translate(-177 -621) translate(179 622) translate(25.676 14.292)"/>
                    <path fill="#D1A448" d="M88.852 85.353c.248.282.218.71-.067.957-.286.246-.718.216-.966-.067-.249-.283-.219-.711.067-.957.285-.246.718-.216.966.067M55.15 69.941c.284-.246.717-.216.965.067.248.282.218.71-.067.957-.286.246-.718.216-.966-.067-.248-.282-.218-.711.067-.957M41.722 77.505c.138.157.121.395-.037.531-.159.137-.4.12-.537-.037-.138-.157-.121-.395.038-.531.158-.137.398-.12.536.037M50.56 90.776c.138.157.12.395-.037.532-.159.136-.4.12-.537-.037-.138-.157-.121-.395.037-.532.159-.137.4-.12.537.037M62.7 82.486c.249.283.219.712-.067.957-.285.246-.717.216-.966-.066-.248-.283-.218-.711.067-.957.286-.246.718-.217.966.066M89.73 68.84c.198.07.302.284.232.48-.07.197-.286.3-.485.231-.198-.069-.302-.284-.232-.48.07-.197.286-.3.485-.23M111.543 69.354c.277.096.423.397.326.672-.098.275-.402.42-.68.323-.277-.096-.423-.398-.325-.673.097-.275.402-.42.679-.322M64.124 39.839c.248.283.218.711-.067.957-.286.246-.718.216-.966-.067-.249-.282-.219-.71.067-.957.285-.246.718-.216.966.067M42.92 24.092c.286-.245.719-.216.967.067.248.283.218.711-.067.957-.286.246-.718.216-.966-.066-.249-.283-.218-.712.067-.958M72.444 53.813c.138.157.12.395-.037.532-.16.136-.4.12-.537-.037-.138-.157-.121-.395.037-.532.159-.137.399-.12.537.037M44.075 53.295c.138.157.121.395-.037.532-.159.137-.4.12-.537-.037-.138-.157-.121-.395.037-.532.159-.137.4-.12.537.037M35.45 67.997c.249.283.219.711-.066.957-.286.246-.718.216-.966-.066-.249-.283-.219-.711.067-.957.285-.246.718-.217.966.066M35.872 36.59c-.28.09-.58-.063-.67-.34-.09-.277.063-.575.343-.664.28-.09.58.063.67.34.09.278-.063.575-.343.664M80.88 41.735c.198.07.302.285.232.481-.07.196-.286.3-.484.23-.199-.069-.303-.284-.234-.48.07-.196.288-.3.486-.23M107.201 56.369c.278.097.424.397.326.673-.097.274-.402.419-.68.322-.276-.096-.422-.397-.325-.673.098-.274.402-.419.68-.322M78.247 23.585c.247.283.218.712-.068.957-.285.246-.718.216-.966-.066-.248-.283-.218-.711.068-.957.284-.246.717-.217.966.066M102.845 42.29c.138.157.12.395-.037.531-.16.137-.4.12-.537-.036-.138-.157-.122-.396.037-.532.158-.137.399-.12.537.037M92.195 27.237c.248.283.218.712-.067.958-.286.245-.718.215-.967-.067-.248-.283-.217-.711.068-.957.285-.246.718-.216.966.066M100.978 78.081c.41.29.506.855.213 1.262-.293.406-.863.5-1.274.21-.41-.29-.506-.854-.213-1.261.293-.406.863-.501 1.274-.211M61.39 21.106c.278.097.424.398.326.673-.097.275-.401.42-.679.323-.277-.097-.423-.398-.325-.673.097-.275.401-.42.679-.323" transform="translate(-177 -621) translate(179 622) translate(25.676 14.292)"/>
                </g>
                <path fill="#D1A448" fill-rule="nonzero" d="M94.445 20.578l2.534-11.25h-.878c-1.318 5.946-2.072 9.398-2.264 10.355-.157-.766-.912-4.217-2.263-10.355h-.879l2.534 11.25h1.216z" transform="translate(-177 -621) translate(179 622)"/>
                <g fill="#D1A448">
                    <path d="M14.785 60.119L14.205 57.508 11.649 56.541 14.284 56.212 15.014 53.433 15.593 56.289 18.15 56.766 15.515 57.341zM29.045 34.83L28.688 33.22 27.112 32.624 28.736 32.421 29.186 30.708 29.543 32.469 31.12 32.763 29.495 33.117zM4.511 21.68L3.738 18.2.332 16.911 3.843 16.472 4.816 12.769 5.588 16.575 8.996 17.212 5.484 17.977zM47.714.078L48.071 1.687 49.647 2.284 48.023 2.487 47.573 4.2 47.216 2.439 45.639 2.145 47.264 1.791zM85.086 47.703L85.858 51.182 89.265 52.472 85.754 52.911 84.781 56.613 84.009 52.807 80.601 52.171 84.113 51.406zM71.352 27.772L70.772 25.162 68.216 24.194 70.85 23.865 71.58 21.087 72.159 23.943 74.716 24.42 72.081 24.994zM89.33 15.581L88.945 13.848 87.248 13.206 88.997 12.987 89.482 11.143 89.866 13.039 91.564 13.356 89.815 13.737z" transform="translate(-177 -621) translate(179 622) translate(49.662 44.416)"/>
                </g>
            </g>
        </g>
    </g>
</svg>
