<svg xmlns="http://www.w3.org/2000/svg" width="191" height="269" viewBox="0 0 191 269"><title>Король Жезлов</title>
    <g fill="none" fill-rule="evenodd">
        <g>
            <g>
                <path fill="#2a1612" stroke="#FFF" stroke-linecap="round" stroke-linejoin="round" stroke-width="2.5" d="M177.475 265.368H9.605c-5.212 0-9.436-4.224-9.436-9.435V9.604c0-5.21 4.224-9.435 9.435-9.435h167.871c5.211 0 9.435 4.224 9.435 9.435v246.329c0 5.21-4.224 9.435-9.435 9.435z" transform="translate(-480 -5336) translate(482 5338)"/>
                <path fill="#44E7D9" fill-rule="nonzero" d="M61.963 253.487v-10.796h-.81v10.796h.81zm4.441 0l-2.464-5.381 2.35-5.415h-.89l-2.351 5.447 2.448 5.35h.907zm2.35 0v-10.796h-.81v10.796h.81zm3.227 0v-6.127l-.032-3.208v-.067c.399 1.038 1.631 4.172 3.695 9.402h1.07v-10.796h-.81v6.16l.032 3.275c-.13-.346-1.362-3.49-3.696-9.435h-1.054v10.796h.795zm9.653.081c.848 0 1.629-.21 2.342-.632v-4.62h-.81v4.134c-.368.26-.935.389-1.702.389-1.113 0-1.67-.486-1.67-1.459v-6.484c0-1.027.643-1.54 1.929-1.54.67 0 1.324.103 1.961.308v-.794c-.605-.173-1.232-.26-1.88-.26-1.88 0-2.82.762-2.82 2.286v6.484c0 .767.23 1.324.688 1.67.46.346 1.113.518 1.962.518zm10.188.081c.854 0 1.497-.23 1.929-.688.432-.46.648-1.057.648-1.792v-6.16c0-.734-.216-1.332-.648-1.79-.432-.46-1.075-.69-1.929-.69-.854 0-1.497.23-1.93.69-.431.458-.647 1.056-.647 1.79v6.16c0 .735.216 1.332.648 1.792.432.459 1.075.688 1.929.688zm0-.729c-1.178 0-1.767-.584-1.767-1.75v-6.16c0-1.168.589-1.751 1.767-1.751s1.767.583 1.767 1.75v6.16c0 1.167-.59 1.751-1.767 1.751zm5.657.567v-4.911h3.372v-.73H97.48v-4.425h3.518v-.73h-4.328v10.796h.81zm8.948 0v-4.911h3.372v-.73h-3.372v-4.425h3.518v-.73h-4.328v10.796h.81zm5.869 0v-10.796h-.811v10.796h.81zm3.242 0v-4.457l1.73-.002c.097-.003.173-.007.231-.015l1.605 4.474h.891l-1.702-4.652c.93-.346 1.394-1.091 1.394-2.237v-1.475c0-.735-.216-1.324-.648-1.767-.432-.443-1.075-.665-1.929-.665h-2.383v10.796h.81zm1.572-5.22h-1.572v-4.846h1.572c1.178 0 1.767.567 1.767 1.702v1.475c0 1.113-.59 1.67-1.767 1.67zm9.386 5.22v-.73h-3.664v-4.343h3.194v-.73h-3.194v-4.263h3.664v-.73h-4.474v10.796h4.474z" transform="translate(-480 -5336) translate(482 5338)"/>
                <g>
                    <path stroke="#FFF" stroke-linecap="round" stroke-linejoin="round" stroke-width="1.875" d="M16.15 3.867L163.987 3.867 163.987 226.622M153.937 239.564L125.692 239.564M5.776 14.799L5.776 239.564 43.24 239.564" transform="translate(-480 -5336) translate(482 5338) translate(8.43 10.96)"/>
                    <path fill="#000" d="M164.149 242.494L161.531 237.96 158.913 233.426 164.149 233.426 169.384 233.426 166.766 237.96z" transform="translate(-480 -5336) translate(482 5338) translate(8.43 10.96)"/>
                    <path stroke="#D1A448" stroke-linecap="round" stroke-linejoin="round" stroke-width="1.875" d="M164.149 242.494L161.531 237.96 158.913 233.426 164.149 233.426 169.384 233.426 166.766 237.96z" transform="translate(-480 -5336) translate(482 5338) translate(8.43 10.96)"/>
                    <path fill="#000" d="M5.562 0.025L8.18 4.559 10.798 9.093 5.562 9.093 0.327 9.093 2.945 4.559z" transform="translate(-480 -5336) translate(482 5338) translate(8.43 10.96)"/>
                    <path stroke="#D1A448" stroke-linecap="round" stroke-linejoin="round" stroke-width="1.875" d="M5.562 0.025L8.18 4.559 10.798 9.093 5.562 9.093 0.327 9.093 2.945 4.559z" transform="translate(-480 -5336) translate(482 5338) translate(8.43 10.96)"/>
                    <path fill="#000" d="M60.77 144.229c.549-.457 1.484.809 1.484.809 29.605 34.792 52.655 65.604 52.655 65.604s.025 2.963-2.754 2.13" transform="translate(-480 -5336) translate(482 5338) translate(8.43 10.96)"/>
                    <path stroke="#FFF" stroke-linecap="round" stroke-linejoin="round" stroke-width="1.875" d="M60.77 144.229c.549-.457 1.484.809 1.484.809 29.605 34.792 52.655 65.604 52.655 65.604s.025 2.963-2.754 2.13" transform="translate(-480 -5336) translate(482 5338) translate(8.43 10.96)"/>
                    <path fill="#000" d="M60.805 144.21c-.598.394.404 1.609.404 1.609 26.522 37.077 50.855 66.937 50.855 66.937s2.924.816 2.842-2.016" transform="translate(-480 -5336) translate(482 5338) translate(8.43 10.96)"/>
                    <path stroke="#FFF" stroke-linecap="round" stroke-linejoin="round" stroke-width="1.875" d="M60.805 144.21c-.598.394.404 1.609.404 1.609 26.522 37.077 50.855 66.937 50.855 66.937s2.924.816 2.842-2.016" transform="translate(-480 -5336) translate(482 5338) translate(8.43 10.96)"/>
                    <path fill="#000" d="M70.409 154.707s1.665 2.563.604 4.64" transform="translate(-480 -5336) translate(482 5338) translate(8.43 10.96)"/>
                    <path stroke="#FFF" stroke-linecap="round" stroke-linejoin="round" stroke-width="1.875" d="M70.409 154.707s1.665 2.563.604 4.64" transform="translate(-480 -5336) translate(482 5338) translate(8.43 10.96)"/>
                    <path fill="#000" d="M75.21 160.495s2.526 4.592 1.981 7.206" transform="translate(-480 -5336) translate(482 5338) translate(8.43 10.96)"/>
                    <path stroke="#FFF" stroke-linecap="round" stroke-linejoin="round" stroke-width="1.875" d="M75.21 160.495s2.526 4.592 1.981 7.206" transform="translate(-480 -5336) translate(482 5338) translate(8.43 10.96)"/>
                    <path fill="#000" d="M78.022 163.909s2.37 4.155 1.45 6.846" transform="translate(-480 -5336) translate(482 5338) translate(8.43 10.96)"/>
                    <path stroke="#FFF" stroke-linecap="round" stroke-linejoin="round" stroke-width="1.875" d="M78.022 163.909s2.37 4.155 1.45 6.846" transform="translate(-480 -5336) translate(482 5338) translate(8.43 10.96)"/>
                    <path fill="#000" d="M83.446 170.551s1.67 3.448.344 5.945" transform="translate(-480 -5336) translate(482 5338) translate(8.43 10.96)"/>
                    <path stroke="#FFF" stroke-linecap="round" stroke-linejoin="round" stroke-width="1.875" d="M83.446 170.551s1.67 3.448.344 5.945" transform="translate(-480 -5336) translate(482 5338) translate(8.43 10.96)"/>
                    <path fill="#000" d="M85.267 172.798s1.647 3.201.212 5.928" transform="translate(-480 -5336) translate(482 5338) translate(8.43 10.96)"/>
                    <path stroke="#FFF" stroke-linecap="round" stroke-linejoin="round" stroke-width="1.875" d="M85.267 172.798s1.647 3.201.212 5.928" transform="translate(-480 -5336) translate(482 5338) translate(8.43 10.96)"/>
                    <path fill="#000" d="M91.619 180.702s2.023 4 .416 6.637" transform="translate(-480 -5336) translate(482 5338) translate(8.43 10.96)"/>
                    <path stroke="#FFF" stroke-linecap="round" stroke-linejoin="round" stroke-width="1.875" d="M91.619 180.702s2.023 4 .416 6.637" transform="translate(-480 -5336) translate(482 5338) translate(8.43 10.96)"/>
                    <path fill="#000" d="M95.75 185.898s1.667 3.231.592 6.985" transform="translate(-480 -5336) translate(482 5338) translate(8.43 10.96)"/>
                    <path stroke="#FFF" stroke-linecap="round" stroke-linejoin="round" stroke-width="1.875" d="M95.75 185.898s1.667 3.231.592 6.985" transform="translate(-480 -5336) translate(482 5338) translate(8.43 10.96)"/>
                    <path fill="#000" d="M97.533 188.155s1.26 3.378-.056 6.187" transform="translate(-480 -5336) translate(482 5338) translate(8.43 10.96)"/>
                    <path stroke="#FFF" stroke-linecap="round" stroke-linejoin="round" stroke-width="1.875" d="M97.533 188.155s1.26 3.378-.056 6.187" transform="translate(-480 -5336) translate(482 5338) translate(8.43 10.96)"/>
                    <path fill="#000" d="M101.256 192.893s2.636 3.865 1.37 8.03" transform="translate(-480 -5336) translate(482 5338) translate(8.43 10.96)"/>
                    <path stroke="#FFF" stroke-linecap="round" stroke-linejoin="round" stroke-width="1.875" d="M101.256 192.893s2.636 3.865 1.37 8.03" transform="translate(-480 -5336) translate(482 5338) translate(8.43 10.96)"/>
                    <path fill="#000" d="M105.564 198.398s1.454 2.054 1.114 7.645" transform="translate(-480 -5336) translate(482 5338) translate(8.43 10.96)"/>
                    <path stroke="#FFF" stroke-linecap="round" stroke-linejoin="round" stroke-width="1.875" d="M105.564 198.398s1.454 2.054 1.114 7.645" transform="translate(-480 -5336) translate(482 5338) translate(8.43 10.96)"/>
                    <path fill="#000" d="M104.14 196.592s1.717 3.952.902 7.39" transform="translate(-480 -5336) translate(482 5338) translate(8.43 10.96)"/>
                    <path stroke="#FFF" stroke-linecap="round" stroke-linejoin="round" stroke-width="1.875" d="M104.14 196.592s1.717 3.952.902 7.39" transform="translate(-480 -5336) translate(482 5338) translate(8.43 10.96)"/>
                    <path fill="#000" d="M109.58 203.633s2.243 2.506.985 7.32" transform="translate(-480 -5336) translate(482 5338) translate(8.43 10.96)"/>
                    <path stroke="#FFF" stroke-linecap="round" stroke-linejoin="round" stroke-width="1.875" d="M109.58 203.633s2.243 2.506.985 7.32" transform="translate(-480 -5336) translate(482 5338) translate(8.43 10.96)"/>
                    <path fill="#000" d="M110.369 144.229c-.55-.457-1.484.809-1.484.809C79.28 179.83 56.23 210.642 56.23 210.642s-.026 2.963 2.754 2.13" transform="translate(-480 -5336) translate(482 5338) translate(8.43 10.96)"/>
                    <path stroke="#FFF" stroke-linecap="round" stroke-linejoin="round" stroke-width="1.875" d="M110.369 144.229c-.55-.457-1.484.809-1.484.809C79.28 179.83 56.23 210.642 56.23 210.642s-.026 2.963 2.754 2.13" transform="translate(-480 -5336) translate(482 5338) translate(8.43 10.96)"/>
                    <path fill="#000" d="M110.334 144.21c.598.394-.405 1.609-.405 1.609-26.521 37.077-50.854 66.937-50.854 66.937s-2.925.816-2.843-2.016" transform="translate(-480 -5336) translate(482 5338) translate(8.43 10.96)"/>
                    <path stroke="#FFF" stroke-linecap="round" stroke-linejoin="round" stroke-width="1.875" d="M110.334 144.21c.598.394-.405 1.609-.405 1.609-26.521 37.077-50.854 66.937-50.854 66.937s-2.925.816-2.843-2.016" transform="translate(-480 -5336) translate(482 5338) translate(8.43 10.96)"/>
                    <path fill="#000" d="M100.73 154.707s-1.665 2.563-.604 4.64" transform="translate(-480 -5336) translate(482 5338) translate(8.43 10.96)"/>
                    <path stroke="#FFF" stroke-linecap="round" stroke-linejoin="round" stroke-width="1.875" d="M100.73 154.707s-1.665 2.563-.604 4.64" transform="translate(-480 -5336) translate(482 5338) translate(8.43 10.96)"/>
                    <path fill="#000" d="M95.929 160.495s-2.526 4.592-1.981 7.206" transform="translate(-480 -5336) translate(482 5338) translate(8.43 10.96)"/>
                    <path stroke="#FFF" stroke-linecap="round" stroke-linejoin="round" stroke-width="1.875" d="M95.929 160.495s-2.526 4.592-1.981 7.206" transform="translate(-480 -5336) translate(482 5338) translate(8.43 10.96)"/>
                    <path fill="#000" d="M93.117 163.909s-2.37 4.155-1.45 6.846" transform="translate(-480 -5336) translate(482 5338) translate(8.43 10.96)"/>
                    <path stroke="#FFF" stroke-linecap="round" stroke-linejoin="round" stroke-width="1.875" d="M93.117 163.909s-2.37 4.155-1.45 6.846" transform="translate(-480 -5336) translate(482 5338) translate(8.43 10.96)"/>
                    <path fill="#000" d="M87.692 170.551s-1.668 3.448-.343 5.945" transform="translate(-480 -5336) translate(482 5338) translate(8.43 10.96)"/>
                    <path stroke="#FFF" stroke-linecap="round" stroke-linejoin="round" stroke-width="1.875" d="M87.692 170.551s-1.668 3.448-.343 5.945" transform="translate(-480 -5336) translate(482 5338) translate(8.43 10.96)"/>
                    <path fill="#000" d="M85.872 172.798s-1.647 3.201-.212 5.928" transform="translate(-480 -5336) translate(482 5338) translate(8.43 10.96)"/>
                    <path stroke="#FFF" stroke-linecap="round" stroke-linejoin="round" stroke-width="1.875" d="M85.872 172.798s-1.647 3.201-.212 5.928" transform="translate(-480 -5336) translate(482 5338) translate(8.43 10.96)"/>
                    <path fill="#000" d="M79.52 180.702s-2.023 4-.416 6.637" transform="translate(-480 -5336) translate(482 5338) translate(8.43 10.96)"/>
                    <path stroke="#FFF" stroke-linecap="round" stroke-linejoin="round" stroke-width="1.875" d="M79.52 180.702s-2.023 4-.416 6.637" transform="translate(-480 -5336) translate(482 5338) translate(8.43 10.96)"/>
                    <path fill="#000" d="M75.39 185.898s-1.668 3.231-.594 6.985" transform="translate(-480 -5336) translate(482 5338) translate(8.43 10.96)"/>
                    <path stroke="#FFF" stroke-linecap="round" stroke-linejoin="round" stroke-width="1.875" d="M75.39 185.898s-1.668 3.231-.594 6.985" transform="translate(-480 -5336) translate(482 5338) translate(8.43 10.96)"/>
                    <path fill="#000" d="M73.606 188.155s-1.26 3.378.056 6.187" transform="translate(-480 -5336) translate(482 5338) translate(8.43 10.96)"/>
                    <path stroke="#FFF" stroke-linecap="round" stroke-linejoin="round" stroke-width="1.875" d="M73.606 188.155s-1.26 3.378.056 6.187" transform="translate(-480 -5336) translate(482 5338) translate(8.43 10.96)"/>
                    <path fill="#000" d="M69.883 192.893s-2.637 3.865-1.37 8.03" transform="translate(-480 -5336) translate(482 5338) translate(8.43 10.96)"/>
                    <path stroke="#FFF" stroke-linecap="round" stroke-linejoin="round" stroke-width="1.875" d="M69.883 192.893s-2.637 3.865-1.37 8.03" transform="translate(-480 -5336) translate(482 5338) translate(8.43 10.96)"/>
                    <path fill="#000" d="M65.575 198.398s-1.455 2.054-1.115 7.645" transform="translate(-480 -5336) translate(482 5338) translate(8.43 10.96)"/>
                    <path stroke="#FFF" stroke-linecap="round" stroke-linejoin="round" stroke-width="1.875" d="M65.575 198.398s-1.455 2.054-1.115 7.645" transform="translate(-480 -5336) translate(482 5338) translate(8.43 10.96)"/>
                    <path fill="#000" d="M66.998 196.592s-1.717 3.952-.901 7.39" transform="translate(-480 -5336) translate(482 5338) translate(8.43 10.96)"/>
                    <path stroke="#FFF" stroke-linecap="round" stroke-linejoin="round" stroke-width="1.875" d="M66.998 196.592s-1.717 3.952-.901 7.39" transform="translate(-480 -5336) translate(482 5338) translate(8.43 10.96)"/>
                    <path fill="#000" d="M61.559 203.633s-2.243 2.506-.985 7.32" transform="translate(-480 -5336) translate(482 5338) translate(8.43 10.96)"/>
                    <path stroke="#FFF" stroke-linecap="round" stroke-linejoin="round" stroke-width="1.875" d="M61.559 203.633s-2.243 2.506-.985 7.32" transform="translate(-480 -5336) translate(482 5338) translate(8.43 10.96)"/>
                    <path stroke="#D1A448" stroke-linecap="round" stroke-linejoin="round" stroke-width="1.875" d="M85.313 157.774s-4.548-.57-2.463-5.685c0 0 .379-.759 1.895-3.033s1.326-3.79 1.326-3.79 3.601 4.359 3.411 8.338c-.19 3.98-2.463 3.98-4.169 4.17z" transform="translate(-480 -5336) translate(482 5338) translate(8.43 10.96)"/>
                    <path stroke="#D1A448" stroke-linecap="round" stroke-linejoin="round" stroke-width="1.875" d="M84.94 157.667s-2.28-.654-.805-3.806c0 0 .254-.463 1.21-1.826s.98-2.348.98-2.348 1.493 3.026 1.078 5.569c-.415 2.542-1.577 2.397-2.463 2.41z" transform="translate(-480 -5336) translate(482 5338) translate(8.43 10.96)"/>
                    <path stroke="#D1A448" stroke-linecap="round" stroke-linejoin="round" stroke-width="1.875" d="M84.934 157.774s-5.874-.758-5.685-8.15c0 0 .38-3.6 3.032-6.632 0 0-.758 2.274-.758 3.6 0 0 1.895-2.842 2.843-5.874.947-3.032.19-5.306.19-5.306s6.821 5.495 7.2 13.834c-.017.034-.091 4.726-2.842 7.58 0 0-2.085 1.516-3.98.948zM86.193 196.29s4.548.57 2.463 5.686c0 0-.379.757-1.895 3.032-1.516 2.274-1.326 3.79-1.326 3.79s-3.601-4.359-3.411-8.339c.19-3.979 2.463-3.979 4.169-4.168z" transform="translate(-480 -5336) translate(482 5338) translate(8.43 10.96)"/>
                    <path stroke="#D1A448" stroke-linecap="round" stroke-linejoin="round" stroke-width="1.875" d="M86.566 196.398s2.279.654.805 3.805c0 0-.254.463-1.21 1.826s-.98 2.348-.98 2.348-1.493-3.026-1.078-5.569c.415-2.542 1.577-2.397 2.463-2.41z" transform="translate(-480 -5336) translate(482 5338) translate(8.43 10.96)"/>
                    <path stroke="#D1A448" stroke-linecap="round" stroke-linejoin="round" stroke-width="1.875" d="M86.572 196.29s5.874.758 5.685 8.15c0 0-.38 3.6-3.032 6.632 0 0 .758-2.274.758-3.6 0 0-1.895 2.842-2.843 5.874-.947 3.032-.19 5.306-.19 5.306s-6.821-5.495-7.2-13.834c.017-.034.091-4.726 2.842-7.58 0 0 2.085-1.516 3.98-.947z" transform="translate(-480 -5336) translate(482 5338) translate(8.43 10.96)"/>
                    <path fill="#000" d="M74.633 96.528L66.715 72.481" transform="translate(-480 -5336) translate(482 5338) translate(8.43 10.96)"/>
                    <path stroke="#FFF" stroke-linecap="round" stroke-linejoin="round" stroke-width="1.875" d="M74.633 96.528L66.715 72.481" transform="translate(-480 -5336) translate(482 5338) translate(8.43 10.96)"/>
                    <path fill="#000" d="M83.589 95.864L83.208 64.096" transform="translate(-480 -5336) translate(482 5338) translate(8.43 10.96)"/>
                    <path stroke="#FFF" stroke-linecap="round" stroke-linejoin="round" stroke-width="1.875" d="M83.589 95.864L83.208 64.096" transform="translate(-480 -5336) translate(482 5338) translate(8.43 10.96)"/>
                    <path fill="#000" d="M100.297 72.202L92.379 96.249" transform="translate(-480 -5336) translate(482 5338) translate(8.43 10.96)"/>
                    <path stroke="#FFF" stroke-linecap="round" stroke-linejoin="round" stroke-width="1.875" d="M100.297 72.202L92.379 96.249" transform="translate(-480 -5336) translate(482 5338) translate(8.43 10.96)"/>
                    <path stroke="#D1A448" stroke-linecap="round" stroke-linejoin="round" stroke-width="1.875" d="M101.039 105.433s-3.032-3.023-15.747-3.608c-12.715-.586-19.369 3.662-19.369 3.662l-7.9-19.361s7.584 10.583 10.607 7.551c3.022-3.032-2.457-22.397-2.457-22.397S74.68 91.85 78.307 87.608c3.626-4.244 4.804-25.436 4.804-25.436" transform="translate(-480 -5336) translate(482 5338) translate(8.43 10.96)"/>
                    <path stroke="#D1A448" stroke-linecap="round" stroke-linejoin="round" stroke-width="1.875" d="M101.038 105.054s-3.008-3.023-15.627-3.608c-12.618-.586-19.22 3.662-19.22 3.662M102.847 100.067S99.5 96.6 85.47 95.929c-14.03-.673-21.371 4.198-21.371 4.198" transform="translate(-480 -5336) translate(482 5338) translate(8.43 10.96)"/>
                    <path stroke="#D1A448" stroke-linecap="round" stroke-linejoin="round" stroke-width="1.25" d="M82.865 98.568c0 .501.408.907.91.906.501 0 .907-.408.906-.91 0-.5-.408-.907-.91-.906-.5 0-.907.408-.906.91zM74.658 99.186c0 .501.408.907.91.906.501 0 .907-.407.906-.91 0-.5-.408-.906-.91-.906-.5 0-.907.408-.906.91zM67.059 101.351c0 .502.408.908.91.907.501 0 .907-.408.906-.91 0-.501-.408-.907-.91-.906-.5 0-.907.408-.906.91zM92.821 99.157c0 .502-.405.909-.907.91-.501 0-.908-.405-.91-.907 0-.501.406-.909.908-.909.501-.001.909.405.91.906zM100.09 101.3c0 .501-.405.908-.907.91-.501 0-.908-.406-.91-.908 0-.501.406-.908.907-.91.502 0 .91.406.91.908z" transform="translate(-480 -5336) translate(482 5338) translate(8.43 10.96)"/>
                    <path stroke="#D1A448" stroke-linecap="round" stroke-linejoin="round" stroke-width="1.25" d="M101.104 105.451l7.84-19.386s-7.551 10.607-10.583 7.585c-3.032-3.023 2.387-22.406 2.387-22.406S92.303 91.843 88.664 87.61c-3.639-4.232-5.488-25.42-5.488-25.42" transform="translate(-480 -5336) translate(482 5338) translate(8.43 10.96)"/>
                    <path fill="#D1A448" d="M82.242 61.523c0 .501.408.907.91.907.501-.001.907-.409.906-.91 0-.501-.408-.907-.91-.907-.5.001-.907.408-.906.91" transform="translate(-480 -5336) translate(482 5338) translate(8.43 10.96)"/>
                    <path stroke="#D1A448" stroke-width="1.25" d="M82.242 61.523c0 .501.408.907.91.907.501-.001.907-.409.906-.91 0-.501-.408-.907-.91-.907-.5.001-.907.408-.906.91z" transform="translate(-480 -5336) translate(482 5338) translate(8.43 10.96)"/>
                    <path fill="#D1A448" d="M100.13 70.6c0 .502.407.907.909.907s.907-.408.907-.91c-.001-.501-.408-.907-.91-.906-.501 0-.907.408-.907.91" transform="translate(-480 -5336) translate(482 5338) translate(8.43 10.96)"/>
                    <path stroke="#D1A448" stroke-width="1.25" d="M100.13 70.6c0 .502.407.907.909.907s.907-.408.907-.91c-.001-.501-.408-.907-.91-.906-.501 0-.907.408-.907.91z" transform="translate(-480 -5336) translate(482 5338) translate(8.43 10.96)"/>
                    <path fill="#D1A448" d="M108.857 84.626c.111.489.597.795 1.086.685.49-.111.797-.597.686-1.086-.111-.49-.598-.797-1.087-.686-.489.111-.796.597-.685 1.087" transform="translate(-480 -5336) translate(482 5338) translate(8.43 10.96)"/>
                    <path stroke="#D1A448" stroke-width="1.25" d="M108.857 84.626c.111.489.597.795 1.086.685.49-.111.797-.597.686-1.086-.111-.49-.598-.797-1.087-.686-.489.111-.796.597-.685 1.087z" transform="translate(-480 -5336) translate(482 5338) translate(8.43 10.96)"/>
                    <path fill="#D1A448" d="M64.88 70.541c0 .501.407.907.909.907s.908-.408.907-.91c-.001-.501-.409-.907-.91-.906-.501 0-.907.408-.907.909" transform="translate(-480 -5336) translate(482 5338) translate(8.43 10.96)"/>
                    <path stroke="#D1A448" stroke-width="1.25" d="M64.88 70.541c0 .501.407.907.909.907s.908-.408.907-.91c-.001-.501-.409-.907-.91-.906-.501 0-.907.408-.907.909z" transform="translate(-480 -5336) translate(482 5338) translate(8.43 10.96)"/>
                    <path fill="#D1A448" d="M56.22 84.508c0 .502.408.908.91.907.5 0 .907-.408.906-.91 0-.5-.408-.907-.91-.906-.501 0-.907.408-.906.91" transform="translate(-480 -5336) translate(482 5338) translate(8.43 10.96)"/>
                    <path stroke="#D1A448" stroke-width="1.25" d="M56.22 84.508c0 .502.408.908.91.907.5 0 .907-.408.906-.91 0-.5-.408-.907-.91-.906-.501 0-.907.408-.906.91z" transform="translate(-480 -5336) translate(482 5338) translate(8.43 10.96)"/>
                    <path fill="#44E7D9" d="M145.137 92.428L145.517 95.094 147.988 96.258 145.341 96.391 144.405 99.127 144.044 96.215 141.534 95.544 144.201 95.164zM127.64 93.632L127.874 95.276 129.397 95.993 127.765 96.075 127.188 97.762 126.965 95.967 125.418 95.553 127.062 95.319zM151.175 121.912L151.68 125.466 154.975 127.017 151.446 127.195 150.198 130.842 149.717 126.96 146.373 126.066 149.927 125.559zM129.011 169.282L129.245 170.926 130.769 171.643 129.137 171.725 128.559 173.412 128.337 171.617 126.79 171.203 128.434 170.969zM146.91 160.738c.109.323-.065.672-.388.78-.323.109-.673-.066-.78-.389-.11-.322.065-.672.388-.78.323-.108.673.066.78.39M146.855 32.585L147.234 35.251 149.706 36.414 147.059 36.548 146.122 39.285 145.762 36.372 143.252 35.701 145.918 35.321zM152.892 62.069L153.398 65.623 156.692 67.174 153.163 67.352 151.915 70.999 151.435 67.117 148.09 66.222 151.644 65.717zM129.625 151.207c.108.324-.066.673-.389.78-.323.11-.672-.065-.78-.388-.108-.323.066-.672.389-.78.323-.109.672.066.78.388M158.361 48.622c.06.18-.036.374-.216.434s-.374-.037-.434-.216c-.06-.18.037-.374.216-.434.18-.06.374.037.434.216M145.692 204.581L146.106 207.486 148.798 208.754 145.914 208.899 144.893 211.881 144.501 208.707 141.766 207.976 144.671 207.563zM148.348 194.762c.026-.34.322-.595.66-.569.34.026.595.322.57.661-.026.34-.322.595-.661.569-.34-.026-.595-.321-.569-.661M125.044 190.353L125.356 192.544 127.386 193.499 125.211 193.609 124.442 195.857 124.146 193.464 122.084 192.913 124.274 192.601zM35.16 90.405L35.739 93.036 38.291 94.01 35.661 94.342 34.932 97.141 34.354 94.264 31.802 93.783 34.432 93.204zM18.228 116.559L18.584 118.181 20.158 118.782 18.536 118.986 18.087 120.712 17.731 118.938 16.157 118.642 17.778 118.285zM43.392 119.354L44.163 122.86 47.564 124.159 44.059 124.601 43.088 128.332 42.318 124.497 38.915 123.856 42.421 123.085zM31.926 168.252L32.283 169.874 33.856 170.475 32.235 170.679 31.786 172.405 31.429 170.632 29.855 170.335 31.477 169.978zM55.542 161.425c.132.314-.016.676-.33.808s-.675-.016-.807-.33.016-.675.33-.807c.313-.132.675.015.807.33M43.513 25.543L44.091 28.174 46.643 29.149 44.013 29.481 43.284 32.28 42.706 29.402 40.154 28.921 42.784 28.343zM40.616 59.551L41.387 63.057 44.788 64.356 41.283 64.798 40.312 68.528 39.541 64.694 36.139 64.053 39.645 63.281zM24.101 150.183c.132.314-.015.675-.33.808-.313.132-.675-.016-.807-.33s.015-.675.33-.807c.313-.132.675.015.807.329M45.06 45.731c.074.175-.008.376-.182.449-.175.073-.375-.009-.449-.183-.073-.174.009-.375.183-.449.175-.073.375.009.449.183M44.126 202.201L44.756 205.067 47.536 206.129 44.671 206.491 43.877 209.54 43.248 206.405 40.466 205.881 43.332 205.251zM46.038 192.21c0-.34.276-.616.617-.616.34 0 .616.275.616.616 0 .34-.276.617-.616.617-.34 0-.617-.276-.617-.617M22.469 189.562L22.944 191.723 25.04 192.524 22.88 192.796 22.281 195.095 21.806 192.732 19.71 192.337 21.87 191.861zM118.644 57.982L118.321 56.513 116.896 55.969 118.365 55.783 118.772 54.22 119.094 55.827 120.52 56.096 119.051 56.419zM78.646 33.239L79.417 36.745 82.818 38.044 79.313 38.486 78.342 42.217 77.571 38.382 74.169 37.741 77.675 36.97zM86.463 19.082c.073.175-.008.375-.183.449-.174.073-.375-.009-.448-.183-.074-.175.008-.376.183-.449.174-.073.375.008.448.183M112.267 33.01c-.2-.477.024-1.026.5-1.227.478-.2 1.027.024 1.228.5.2.478-.023 1.027-.5 1.228-.478.2-1.027-.024-1.228-.5M127.557 137.646L127.06 135.386 124.869 134.548 127.128 134.264 127.754 131.859 128.25 134.331 130.443 134.744 128.183 135.241zM68.04 128.549L68.42 130.276 70.096 130.917 68.369 131.134 67.891 132.972 67.511 131.083 65.835 130.767 67.562 130.387zM76.526 111.186c.073.174-.009.375-.183.449-.175.073-.375-.009-.449-.183-.073-.174.009-.375.183-.449.175-.074.375.008.449.183M102.33 125.114c-.201-.477.023-1.026.5-1.227.477-.2 1.027.023 1.228.5.2.478-.024 1.027-.5 1.228-.478.2-1.028-.024-1.228-.5" transform="translate(-480 -5336) translate(482 5338) translate(8.43 10.96)"/>
                </g>
            </g>
        </g>
    </g>
</svg>
