<svg xmlns="http://www.w3.org/2000/svg" xmlns:xlink="http://www.w3.org/1999/xlink" width="191" height="269" viewBox="0 0 191 269"><title>Двойка Жезлов</title>
    <defs>
        <path id="343vv24rda" d="M.313 17.445c0 4.555 1.752 8.7 4.62 11.8l26.179-.743c2.48-3.005 3.969-6.857 3.969-11.057C35.081 7.843 27.298.06 17.697.06 8.096.06.313 7.843.313 17.445z"/>
        <path id="3mss8giw6c" d="M.313 17.445c0 4.555 1.752 8.7 4.62 11.8l26.179-.743c2.48-3.005 3.969-6.857 3.969-11.057C35.081 7.843 27.298.06 17.697.06 8.096.06.313 7.843.313 17.445z"/>
        <path id="vp0nqfb4ae" d="M.313 17.445c0 4.555 1.752 8.7 4.62 11.8l26.179-.743c2.48-3.005 3.969-6.857 3.969-11.057C35.081 7.843 27.298.06 17.697.06 8.096.06.313 7.843.313 17.445"/>
        <path id="q561b0shug" d="M.313 17.445c0 4.555 1.752 8.7 4.62 11.8l26.179-.743c2.48-3.005 3.969-6.857 3.969-11.057C35.081 7.843 27.298.06 17.697.06 8.096.06.313 7.843.313 17.445z"/>
    </defs>
    <g fill="none" fill-rule="evenodd">
        <g>
            <g>
                <path fill="#2a1612" stroke="#FFF" stroke-linecap="round" stroke-linejoin="round" stroke-width="2.5" d="M177.475 265.252H9.604c-5.21 0-9.435-4.224-9.435-9.435V9.487c0-5.21 4.224-9.434 9.435-9.434h167.871c5.211 0 9.435 4.224 9.435 9.435v246.329c0 5.21-4.224 9.435-9.435 9.435z" transform="translate(-482 -4253) translate(484 4255)"/>
                <path fill="#44E7D9" fill-rule="nonzero" d="M62.776 253.524v-10.067h2.14v-.73h-5.09v.73h2.14v10.067h.81zm5.755 0l.989-5.706c.237-1.362.41-2.632.518-3.81.12 1.178.627 4.35 1.524 9.516h1.167l1.88-10.796h-.842c-.897 5.436-1.438 8.791-1.621 10.066l-.422-2.836-1.2-7.23h-.956l-1.2 7.213c-.161.951-.302 1.902-.42 2.853l-.422-2.836-1.2-7.23h-.843l1.88 10.796h1.168zm10.115.162c.854 0 1.497-.23 1.929-.689.432-.46.648-1.056.648-1.791v-6.16c0-.735-.216-1.332-.648-1.791-.432-.46-1.075-.69-1.929-.69-.854 0-1.497.23-1.93.69-.431.459-.647 1.056-.647 1.79v6.16c0 .736.216 1.333.648 1.792.432.46 1.075.689 1.929.689zm0-.73c-1.178 0-1.767-.583-1.767-1.75v-6.16c0-1.167.589-1.75 1.767-1.75s1.767.583 1.767 1.75v6.16c0 1.167-.59 1.75-1.767 1.75zm10.342.73c.854 0 1.497-.23 1.93-.689.431-.46.648-1.056.648-1.791v-6.16c0-.735-.217-1.332-.649-1.791-.432-.46-1.075-.69-1.929-.69-.854 0-1.497.23-1.929.69-.432.459-.648 1.056-.648 1.79v6.16c0 .736.216 1.333.648 1.792.432.46 1.075.689 1.93.689zm0-.73c-1.178 0-1.767-.583-1.767-1.75v-6.16c0-1.167.59-1.75 1.767-1.75 1.178 0 1.767.583 1.767 1.75v6.16c0 1.167-.589 1.75-1.767 1.75zm5.657.568v-4.912h3.372v-.73h-3.372v-4.425h3.518v-.73h-4.328v10.797h.81zm8.949 0v-4.912h3.371v-.73h-3.371v-4.425h3.517v-.73h-4.328v10.797h.81zm5.868 0v-10.796h-.81v10.796h.81zm3.242 0v-4.458l1.73-.002c.097-.002.173-.007.231-.014l1.605 4.474h.892l-1.703-4.653c.93-.345 1.395-1.091 1.395-2.237v-1.475c0-.735-.217-1.323-.649-1.767-.432-.443-1.075-.664-1.929-.664h-2.383v10.796h.81zm1.572-5.22h-1.572v-4.847h1.572c1.178 0 1.767.568 1.767 1.702v1.475c0 1.114-.589 1.67-1.767 1.67zm9.386 5.22v-.73h-3.664v-4.344h3.194v-.73h-3.194v-4.263h3.664v-.73h-4.474v10.797h4.474z" transform="translate(-482 -4253) translate(484 4255)"/>
                <g>
                    <path stroke="#FFF" stroke-linecap="round" stroke-linejoin="round" stroke-width="1.875" d="M100.112 3.867L163.738 3.867 163.738 226.622M15.9 3.867L68.043 3.867M153.687 239.564L121.01 239.564M5.526 14.799L5.526 239.564 46.362 239.564" transform="translate(-482 -4253) translate(484 4255) translate(8.094 10.997)"/>
                    <path fill="#000" d="M5.253 0.025L7.871 4.559 10.489 9.093 5.253 9.093 0.018 9.093 2.636 4.559z" transform="translate(-482 -4253) translate(484 4255) translate(8.094 10.997)"/>
                    <path stroke="#D1A448" stroke-linecap="round" stroke-linejoin="round" stroke-width="1.875" d="M5.253 0.025L7.871 4.559 10.489 9.093 5.253 9.093 0.018 9.093 2.636 4.559z" transform="translate(-482 -4253) translate(484 4255) translate(8.094 10.997)"/>
                    <path fill="#000" d="M163.902 244.095L161.285 239.561 158.667 235.027 163.902 235.027 169.137 235.027 166.52 239.561z" transform="translate(-482 -4253) translate(484 4255) translate(8.094 10.997)"/>
                    <path stroke="#D1A448" stroke-linecap="round" stroke-linejoin="round" stroke-width="1.875" d="M163.902 244.095L161.285 239.561 158.667 235.027 163.902 235.027 169.137 235.027 166.52 239.561z" transform="translate(-482 -4253) translate(484 4255) translate(8.094 10.997)"/>
                </g>
                <path fill="#44E7D9" fill-rule="nonzero" d="M90.77 18.302V7.506h-.81v10.796h.81zm3.243 0V7.506h-.811v10.796h.81z" transform="translate(-482 -4253) translate(484 4255)"/>
                <g stroke-linecap="round" stroke-linejoin="round" stroke-width="1.875">
                    <path stroke="#D1A448" d="M46.584 103.084s2.034-2.588 3.143-2.958c1.109-.37 8.69-.37 11.647.924M45.937 103.361s-1.849.74-3.513 2.034c-1.664 1.294-8.135 3.328-8.135 3.328l-6.285 2.773M95.854 100.588s3.883-3.697 5.177-4.252c1.294-.555 2.218-1.294 4.437-1.11 0 0 .555.186.924.555M97.148 103.177s-1.294-.925-1.294-1.48" transform="translate(-482 -4253) translate(484 4255) translate(25.292 34.94)"/>
                    <path stroke="#D1A448" d="M95.3 107.244s2.033-3.143 4.252-4.437c0 0 3.882-5.177 4.807-5.916.924-.74 2.403-1.664 4.067-1.664 1.664 0 2.588.37 3.143 1.664 0 0 0 1.109-.74 1.848" transform="translate(-482 -4253) translate(484 4255) translate(25.292 34.94)"/>
                    <path stroke="#D1A448" d="M107.502 98.555s3.143-.74 4.252.74c1.109 1.478-.74 2.957-.74 2.957l-3.143 3.328M107.132 98.74s-1.664.739-2.404 1.663c-.74.925-4.067 4.438-4.067 4.438s-2.034 1.479-2.588 2.033c-.555.555-2.034 2.219-2.034 2.219" transform="translate(-482 -4253) translate(484 4255) translate(25.292 34.94)"/>
                    <path stroke="#D1A448" d="M104.913 105.395s3.328-.555 4.622 1.48c0 0 .555.554.185 1.848 0 0-4.992 2.773-5.362 2.958-.37.185-4.252 2.219-4.252 2.219s-6.286 3.882-7.765 4.991c-1.479 1.11-6.655 4.807-9.244 7.026 0 0-1.663.74-4.067.74M104.174 105.58s-4.807 2.219-6.101 3.143c0 0-5.362 1.849-7.21 3.328M90.493 112.236l-.74.554s-4.622 1.294-6.47 3.883M83.282 116.118s-.184-.37-2.033-.185l-3.698.37-2.958.74s-4.992-3.513-5.916-3.698c-.924-.185-6.47-2.219-7.21-3.143M57.954 106.69s2.403 2.403 2.958 2.588" transform="translate(-482 -4253) translate(484 4255) translate(25.292 34.94)"/>
                    <path stroke="#D1A448" d="M101.95 112.935s-4.247 6.141-6.096 7.62c-1.849 1.48-6.47 4.437-7.58 5.177M87.904 125.917s-4.067 2.588-4.807 3.143c-.74.554-2.588 2.588-3.882 3.327-1.294.74-3.143 1.48-6.47-.37M72.19 131.833s-7.765-2.404-8.875-2.404c-1.109 0-8.134-2.033-8.134-2.033s-5.362-1.48-7.396-1.48c-2.033 0-5.176.555-6.655 1.665-1.48 1.109-7.95 2.958-7.95 2.958M44.458 107.983s1.109 3.513.554 5.547c-.554 2.034-.185 5.916-.185 5.916M51.298 111.866s.555 2.034 0 3.513M89.753 112.79s1.11.925 1.294 2.219M98.073 108.723s1.11.924 1.11 1.849M100.66 104.84s.37.925.925 1.294M99.552 102.807s.554.47 1.109 1.067M80.232 118.244s-1.11 1.48-1.48 3.513M74.963 119.261s0 2.219-1.295 3.883M39.743 112.143s-8.504 4.807-13.126 6.101" transform="translate(-482 -4253) translate(484 4255) translate(25.292 34.94)"/>
                    <path stroke="#FFF" d="M126.584 174.373c.973.01.872-2.133.872-2.133 1.32-62.253-.859-114.656-.859-114.656s-2.524-3.153-4.744.12" transform="translate(-482 -4253) translate(484 4255) translate(25.292 34.94)"/>
                    <path stroke="#FFF" d="M126.637 174.363c-.97.099-.958-2.049-.958-2.049C121.774 110.302 121.77 57.8 121.77 57.8s2.388-3.38 4.74-.317M127.745 155.002s-.447-4.141-3.356-5.422M127.834 144.753s-1.285-7.027-4.112-9.32M127.866 138.724s-1.075-6.43-4.364-8.482M127.877 127.034s-1.205-5.079-4.756-6.577M127.866 123.094s-1.017-4.801-4.881-6.447M127.77 109.272s-1.307-5.969-5.274-7.37M127.661 100.225s-1.02-4.85-5.388-7.89M127.602 96.305s-1.576-4.654-5.387-6.49M127.455 88.093s-.542-6.353-5.465-9.664M127.267 78.567s-.232-3.423-5.406-9.038M127.319 81.7s-1.59-5.653-5.411-8.583M127.002 69.578s.213-4.58-5.262-8.582M8.514 20.05c-.973-.009-.871 2.134-.871 2.134C6.323 84.437 8.5 136.84 8.5 136.84s2.524 3.153 4.744-.12" transform="translate(-482 -4253) translate(484 4255) translate(25.292 34.94)"/>
                    <path stroke="#FFF" d="M8.46 20.06c.971-.098.96 2.049.96 2.049 3.904 62.013 3.908 114.516 3.908 114.516s-2.388 3.38-4.74.317M7.353 39.422s.447 4.141 3.356 5.422M7.264 49.67s1.285 7.028 4.112 9.322M7.232 55.7s1.075 6.43 4.365 8.482M7.221 67.39s1.205 5.079 4.756 6.576M7.233 71.33s1.017 4.801 4.88 6.446M7.328 85.151s1.307 5.97 5.274 7.37M7.437 94.198s1.02 4.85 5.388 7.891M7.496 98.119s1.577 4.654 5.387 6.49M7.643 106.331s.542 6.353 5.465 9.664M7.832 115.856s.231 3.423 5.405 9.038M7.78 112.723s1.59 5.654 5.41 8.584M8.096 124.846s-.212 4.579 5.262 8.582" transform="translate(-482 -4253) translate(484 4255) translate(25.292 34.94)"/>
                    <path stroke="#D1A448" d="M7.773 28.379s-5.709-.714-3.092-7.137c0 0 .476-.951 2.379-3.806 1.903-2.854 1.665-4.757 1.665-4.757s4.52 5.47 4.282 10.466c-.238 4.996-3.092 4.996-5.234 5.234z" transform="translate(-482 -4253) translate(484 4255) translate(25.292 34.94)"/>
                    <path stroke="#D1A448" d="M7.304 28.244s-2.86-.82-1.01-4.777c0 0 .32-.58 1.52-2.291 1.2-1.712 1.23-2.948 1.23-2.948s1.873 3.799 1.353 6.99c-.52 3.191-1.98 3.01-3.093 3.026z" transform="translate(-482 -4253) translate(484 4255) translate(25.292 34.94)"/>
                    <path stroke="#D1A448" d="M7.298 28.379s-7.374-.952-7.136-10.23c0 0 .475-4.519 3.806-8.325 0 0-.952 2.855-.952 4.52 0 0 2.379-3.568 3.568-7.374 1.19-3.806.238-6.66.238-6.66s8.564 6.898 9.04 17.364c-.023.043-.116 5.933-3.569 9.515 0 0-2.616 1.903-4.995 1.19zM127.59 167.023s5.708.713 3.092 7.136c0 0-.476.951-2.38 3.806-1.902 2.854-1.665 4.757-1.665 4.757s-4.52-5.47-4.281-10.466c.238-4.996 3.092-4.996 5.233-5.233z" transform="translate(-482 -4253) translate(484 4255) translate(25.292 34.94)"/>
                    <path stroke="#D1A448" d="M128.058 167.157s2.86.82 1.01 4.777c0 0-.319.58-1.519 2.291-1.2 1.712-1.23 2.949-1.23 2.949s-1.874-3.8-1.353-6.99c.52-3.192 1.979-3.01 3.092-3.027z" transform="translate(-482 -4253) translate(484 4255) translate(25.292 34.94)"/>
                    <path stroke="#D1A448" d="M128.065 167.023s7.374.95 7.136 10.228c0 0-.476 4.52-3.806 8.326 0 0 .952-2.855.952-4.52 0 0-2.38 3.568-3.569 7.374-1.189 3.806-.237 6.66-.237 6.66s-8.564-6.898-9.04-17.364c.022-.044.115-5.933 3.568-9.515 0 0 2.617-1.903 4.996-1.19z" transform="translate(-482 -4253) translate(484 4255) translate(25.292 34.94)"/>
                </g>
                <g transform="translate(-482 -4253) translate(484 4255) translate(85.994 118.236)">
                    <mask id="89xkizqf5b" fill="#fff">
                        <use xlink:href="#343vv24rda"/>
                    </mask>
                    <path stroke="#44E7D9" stroke-linecap="round" stroke-linejoin="round" stroke-width="1.875" d="M2.931 7.574s-.013.247.18.286c0 0-.426 1.472.388 2.092.814.62.969.426 1.046.658.078.233-.194.427.233.93.426.504.31 1.046.426 1.123.116.078.89.581.89.853 0 .271.233.852-.658 2.053-.891 1.2-.426 2.44-.426 2.44s-.194.775.62 1.473c0 0 .697 1.046 1.278 1.24 0 0-.077.697.271 1.472.35.774-.387 1.897-.232 3.33.155 1.434-.233 1.783.039 2.713.271.93.813 2.556 1.86 2.983l.542.193s-.543-1.51-.543-1.86c0-.348.969-1.859.969-1.859l1.704-1.317 1.511-2.17s1.007-.232 1.704-.851c.698-.62 1.162-2.286 1.162-2.286s.853-.62.969-1.86c0 0-.62-.968-1.666-1.278l-.852-.232s-.465-.93-.852-1.24c0 0-.465-1.51-2.557-2.402 0 0-.775-.93-1.86-1.162 0 0-.774-.775-1.084-.465-.31.31-1.317 1.123-1.937.426-.62-.697-.233-1.898-.233-1.898s-.464-.232-.348-.62c.116-.387.852-.58.271-1.123 0 0-1.085.31-1.085-.426 0-.737.194-1.55 1.511-2.209 1.317-.658 2.13.388 2.13.853 0 .465.62 1.278.698.775.078-.504.078-1.589.349-1.821.271-.233 1.433-1.046 1.975-1.007.543.038 1.124-.543 1.782-.581.659-.04 1.666-.117 1.86-.465.194-.35 1.356.465 1.627-.31.271-.775.271-.969.271-.969s-.542.233-.349-.232c.194-.465.271-.697-.116-.891-.387-.194-.038-.542-.852-.465-.814.078-.426.426-.968.31-.543-.116-.427.775-.892.775-.464 0-1.084.426-.697-1.085 0 0 .852-.891 1.356-.852.504.038.581.116 1.511 0 .93-.116.504.697 1.007.542.504-.155 1.2-.968.814-1.356l-.388-.387-3.244-1.792-10.77 5.424-.345 4.527z" mask="url(#89xkizqf5b)"/>
                    <mask id="lg2qifhuod" fill="#fff">
                        <use xlink:href="#3mss8giw6c"/>
                    </mask>
                    <path stroke="#44E7D9" stroke-linecap="round" stroke-linejoin="round" stroke-width="1.875" d="M27.25 2.23c-.64-.194-1.179 0-1.179 0s-.038.077-.038.929c0 .852.58.93.852 1.007.271.078.31.116.426.388.116.27.503.193.736.27.233.078.194.156.155.465-.038.31 0 .466.078.62.077.155.155.465-.155.581-.31.117-.581.814-.969.698-.387-.117-1.278.31-1.472.387-.194.078.077.116.271.504.194.387.698 1.162 1.124 1.317.426.155.89-.155 1.123-.194.233-.039.233-.62.233-.968 0-.349.154-.426.154-.426.04.116 1.085.62 1.201.542.117-.078.31-.194.31.349 0 .542.155.542.388.542.232 0 .465-.581.542-.387.078.193.271.89.504.813.232-.077.348-.697.426-.194.077.504.155.426.968.66.814.231.93 1.278.93 1.278-.31-.117-1.2 0-1.51-.04-.31-.038-1.318-1.045-1.318-1.045s-.697-.349-2.014-.349c-1.318 0-.465-.349-1.744-.116-1.278.232-1.317.465-1.588.852-.271.387-.387.426-.62.465-.232.039-1.24.697-1.24 1.162 0 0-.077.194 0 .504.078.31-.464 2.208-.464 2.711 0 .504-.233.93.154 1.317.388.388 1.124 1.24 2.131 1.821 1.008.581 1.201.155 2.131.194.93.039 1.046.194 1.2.426.156.233.427-.271.698-.077.271.193.039 1.317-.077 1.55-.117.232-.465.89-.155 1.742.31.853.465 1.046 0 1.821-.465.775-1.124.891-1.24 2.208 0 0 .039.543.194 1.201.155.659-.775 1.55-.814 2.092-.038.543-.426.581-.155 1.046.271.465 3.02-1.322 3.02-1.322s8.547-7.235 7.617-10.645C37.134 15.521 34.19.257 31.44.257c-2.75 0-4.19 1.972-4.19 1.972z" mask="url(#lg2qifhuod)"/>
                    <mask id="izlg13e03f" fill="#fff">
                        <use xlink:href="#vp0nqfb4ae"/>
                    </mask>
                    <path stroke="#44E7D9" stroke-linecap="round" stroke-linejoin="round" stroke-width="1.875" d="M18.036-1.253l.155.93-.271.813c-.04.116-.271.542.077 1.55.349 1.007.852.968.852.968s1.008-1.162 1.24-1.511l.232-.349s.698 0 .853-.077c.155-.078.89-1.472.89-1.472" mask="url(#izlg13e03f)"/>
                    <mask id="nihm9a35gh" fill="#fff">
                        <use xlink:href="#q561b0shug"/>
                    </mask>
                    <path stroke="#44E7D9" stroke-linecap="round" stroke-linejoin="round" stroke-width="1.875" d="M20.515 2.62s-.503-.31-.039-.542c.465-.232.891-.426 1.124-.232.232.193.194.31.077.464-.116.156-.116.427-.193.504-.078.078-.969-.194-.969-.194z" mask="url(#nihm9a35gh)"/>
                </g>
                <g>
                    <path stroke="#44E7D9" stroke-linecap="round" stroke-linejoin="round" stroke-width="1.875" d="M4.932 62.294c-2.867-3.1-4.62-7.246-4.62-11.801 0-9.601 7.784-17.384 17.385-17.384 9.6 0 17.384 7.783 17.384 17.384 0 4.2-1.49 8.053-3.97 11.058" transform="translate(-482 -4253) translate(484 4255) translate(85.994 85.187)"/>
                    <path stroke="#44E7D9" stroke-linecap="round" stroke-linejoin="round" stroke-width="1.875" d="M25.319 37.528s-.039-.31 0-.426c.039-.116.155-.27.581.117.426.387.697.387.736.658.039.271.465.581.349.891-.116.31-.31.581-.814.388-.503-.194-.426-.427-.426-.737s-.039-.348-.349-.232c-.31.116-.387.039-.426-.155-.039-.194-.116-.116.117-.31l.232-.194zM8.119 42.642s-.891 0-.504-.426c.388-.426.969-.116 1.085 0 .116.116.852.232 1.046.271.193.039.349.31-.116.349-.465.038-1.511-.194-1.511-.194zM9.59 43.804s-.425.04-.076-.155c.348-.193.542-.31.735-.31.194 0 .35.194.504.233.155.038-.116.31-.465.31-.348 0-.193-.272-.697-.078zM6.493 48.992s-.876.751-.5 1.752M27.899 43.61s-.877-.126-1.628.625M24.268 49.618s.626.75 1.753 1.377M12.627 37.225s-.626.501-1.377.626" transform="translate(-482 -4253) translate(484 4255) translate(85.994 85.187)"/>
                    <path fill="#FFF" d="M23.472 9.465c0 .242-.196.438-.437.438-.242 0-.438-.196-.438-.438s.196-.438.438-.438c.241 0 .437.196.437.438M8.603 26.726c.31 0 .563.252.563.563 0 .31-.252.563-.563.563-.31 0-.563-.252-.563-.563 0-.31.252-.563.563-.563M28.63 17.226c0 .31-.252.563-.563.563-.31 0-.563-.252-.563-.563 0-.311.252-.563.563-.563.31 0 .563.252.563.563M16.65 19.215c0 .414-.336.75-.75.75-.415 0-.751-.336-.751-.75s.336-.75.75-.75c.415 0 .75.336.75.75M36.815 20.968c0 .242-.196.438-.438.438s-.438-.196-.438-.438.196-.438.438-.438.438.196.438.438M30.618 5.395c0 .242-.196.438-.437.438-.242 0-.438-.196-.438-.438 0-.241.196-.437.438-.437.241 0 .437.196.437.437M22.211 26.564c0 .173-.14.313-.312.313-.173 0-.313-.14-.313-.313 0-.172.14-.312.313-.312.172 0 .312.14.312.312M29.588 28.3c0 .414-.337.75-.751.75s-.75-.336-.75-.75c0-.415.336-.751.75-.751s.75.336.75.75M1.077 23.714c0 .242-.196.438-.437.438-.242 0-.438-.196-.438-.438s.196-.438.438-.438c.241 0 .437.196.437.438M13.654.852c0 .311-.252.563-.563.563-.311 0-.563-.252-.563-.563 0-.31.252-.562.563-.562.31 0 .563.251.563.562M6.265 6.408c0 .172-.14.312-.313.312s-.313-.14-.313-.312c0-.173.14-.313.313-.313s.313.14.313.313M6.049 16.56c0 .172-.14.312-.313.312s-.312-.14-.312-.313c0-.172.14-.312.312-.312.173 0 .313.14.313.312" transform="translate(-482 -4253) translate(484 4255) translate(85.994 85.187)"/>
                </g>
            </g>
        </g>
    </g>
</svg>
