<svg xmlns="http://www.w3.org/2000/svg" width="191" height="269" viewBox="0 0 191 269"><title>Туз Кубков</title>
    <g fill="none" fill-rule="evenodd">
        <g>
            <g>
                <path fill="#152230" stroke="#FFF" stroke-linecap="round" stroke-linejoin="round" stroke-width="2.5" d="M177.795 266.063H9.62c-5.22 0-9.452-4.232-9.452-9.453V9.837C.17 4.618 4.401.386 9.621.386h168.174c5.22 0 9.452 4.232 9.452 9.453V256.61c0 5.22-4.232 9.452-9.452 9.452z" transform="translate(-191 -1152) translate(193 1153)"/>
                <path fill="#D1A448" fill-rule="nonzero" d="M57.479 256.62l.73-3.167h3.086l.73 3.167h.845l-2.533-10.816h-1.17l-2.533 10.816h.845zm3.654-3.898h-2.761l1.38-5.992 1.38 5.992zm5.862 3.979c.704 0 1.326-.087 1.867-.26v-.763c-.617.184-1.26.276-1.932.276-.671 0-1.15-.122-1.437-.365-.287-.244-.43-.604-.43-1.08v-6.594c0-.476.143-.836.43-1.08.287-.243.76-.365 1.42-.365.661 0 1.3.092 1.917.276v-.763c-.606-.173-1.218-.26-1.835-.26-1.83 0-2.745.73-2.745 2.192v6.594c0 1.461.915 2.192 2.745 2.192zm8.217-.081v-.731h-3.67v-4.352h3.2v-.73h-3.2v-4.272h3.67v-.73H70.73v10.815h4.482zm7.373.162c.855 0 1.5-.23 1.932-.69.433-.46.65-1.058.65-1.794v-6.171c0-.737-.217-1.335-.65-1.795-.433-.46-1.077-.69-1.932-.69s-1.5.23-1.933.69c-.433.46-.65 1.058-.65 1.795v6.17c0 .737.217 1.335.65 1.795.433.46 1.078.69 1.933.69zm0-.73c-1.18 0-1.77-.585-1.77-1.754v-6.171c0-1.17.59-1.754 1.77-1.754 1.18 0 1.77.584 1.77 1.754v6.17c0 1.17-.59 1.754-1.77 1.754zm5.667.568v-4.92h3.378v-.732h-3.378v-4.433h3.524v-.73H87.44v10.815h.812zm10.394 0l.99-5.717c.238-1.364.412-2.636.52-3.816.119 1.18.628 4.358 1.526 9.533h1.17l1.883-10.816h-.844c-.899 5.446-1.44 8.808-1.624 10.085l-.422-2.842-1.202-7.243h-.958l-1.202 7.227c-.162.953-.303 1.905-.422 2.858l-.422-2.842-1.202-7.243h-.844l1.883 10.816h1.17zm7.665 0l.73-3.167h3.086l.73 3.167h.845l-2.533-10.816h-1.17l-2.533 10.816h.845zm3.654-3.898h-2.761l1.38-5.992 1.38 5.992zm5.18 3.898v-10.085h2.144v-.73h-5.1v.73h2.144v10.085h.812zm8.006 0v-.731h-3.67v-4.352h3.2v-.73h-3.2v-4.272h3.67v-.73h-4.482v10.815h4.482zm2.68 0v-4.466h1.575c.173 0 .303-.005.39-.016l1.607 4.482h.893l-1.705-4.66c.931-.347 1.397-1.094 1.397-2.242v-1.478c0-.736-.217-1.326-.65-1.77-.433-.444-1.077-.666-1.932-.666h-2.387v10.816h.812zm1.575-5.23h-1.575v-4.855h1.575c1.18 0 1.77.568 1.77 1.705v1.478c0 1.115-.59 1.673-1.77 1.673z" transform="translate(-191 -1152) translate(193 1153)"/>
                <g stroke="#FFF" stroke-linecap="round" stroke-linejoin="round" stroke-width="1.875">
                    <path d="M92.083.496L158.54.496 158.54 223.652M10.436.496L66.955.496M148.471 236.617L122.878 236.617M36.899 236.617L.042 236.617.042 11.447" transform="translate(-191 -1152) translate(193 1153) translate(14.19 14.574)"/>
                </g>
                <path fill="#D1A448" fill-rule="nonzero" d="M94.114 19.102L94.114 8.287 93.302 8.287 93.302 19.102z" transform="translate(-191 -1152) translate(193 1153)"/>
                <g>
                    <path fill="#000" d="M164.444 233.846L167.067 238.389 169.689 242.931 164.444 242.931 159.2 242.931 161.822 238.389z" transform="translate(-191 -1152) translate(193 1153) translate(8.446 11.196)"/>
                    <path stroke="#44E7D9" stroke-linecap="round" stroke-linejoin="round" stroke-width="1.875" d="M164.444 233.846L167.067 238.389 169.689 242.931 164.444 242.931 159.2 242.931 161.822 238.389z" transform="translate(-191 -1152) translate(193 1153) translate(8.446 11.196)"/>
                    <path fill="#000" d="M5.572 9.11L2.95 4.567 0.328 0.025 5.572 0.025 10.817 0.025 8.195 4.567z" transform="translate(-191 -1152) translate(193 1153) translate(8.446 11.196)"/>
                    <path stroke="#44E7D9" stroke-linecap="round" stroke-linejoin="round" stroke-width="1.875" d="M5.572 9.11L2.95 4.567 0.328 0.025 5.572 0.025 10.817 0.025 8.195 4.567z" transform="translate(-191 -1152) translate(193 1153) translate(8.446 11.196)"/>
                    <path fill="#000" d="M90.572 34.539c0 2.685-2.177 4.862-4.863 4.862-2.685 0-4.862-2.177-4.862-4.862 0-2.686 2.177-4.863 4.862-4.863 2.686 0 4.863 2.177 4.863 4.863" transform="translate(-191 -1152) translate(193 1153) translate(8.446 11.196)"/>
                    <path stroke="#D1A448" stroke-linecap="round" stroke-linejoin="round" stroke-width="1.875" d="M90.572 34.539c0 2.685-2.177 4.862-4.863 4.862-2.685 0-4.862-2.177-4.862-4.862 0-2.686 2.177-4.863 4.862-4.863 2.686 0 4.863 2.177 4.863 4.863z" transform="translate(-191 -1152) translate(193 1153) translate(8.446 11.196)"/>
                    <g>
                        <path fill="#F9FAF4" d="M0.27 0.238L0.27 3.638" transform="translate(-191 -1152) translate(193 1153) translate(8.446 11.196) translate(85.473 32.77)"/>
                        <path stroke="#D1A448" stroke-linecap="round" stroke-linejoin="round" stroke-width="1.875" d="M0.27 0.238L0.27 3.638" transform="translate(-191 -1152) translate(193 1153) translate(8.446 11.196) translate(85.473 32.77)"/>
                    </g>
                    <g>
                        <path fill="#F9FAF4" d="M0.125 0.181L3.109 0.181" transform="translate(-191 -1152) translate(193 1153) translate(8.446 11.196) translate(84.122 34.46)"/>
                        <path stroke="#D1A448" stroke-linecap="round" stroke-linejoin="round" stroke-width="1.875" d="M0.125 0.181L3.109 0.181" transform="translate(-191 -1152) translate(193 1153) translate(8.446 11.196) translate(84.122 34.46)"/>
                    </g>
                    <path stroke="#FFF" stroke-linecap="round" stroke-linejoin="round" stroke-width="1.875" d="M81.439 32.212s-3.11-3.624-7.598-2.536c-4.488 1.088-3.536 4.08-8.57 4.896 0 0-2.04.545-2.856.137 0 0 1.905 3.128 4.625 2.312 0 0 2.517-.612 3.605-1.428" transform="translate(-191 -1152) translate(193 1153) translate(8.446 11.196)"/>
                    <path stroke="#FFF" stroke-linecap="round" stroke-linejoin="round" stroke-width="1.875" d="M65.748 37.089s.544 2.04 3.673 1.768c3.128-.272 3.264-1.632 4.624-2.04" transform="translate(-191 -1152) translate(193 1153) translate(8.446 11.196)"/>
                    <path stroke="#FFF" stroke-linecap="round" stroke-linejoin="round" stroke-width="1.875" d="M69.42 38.857s.68 1.496 4.081.544c3.4-.952 3.312-3.9 7.437-3.922M90.177 32.391s3.108-3.624 7.597-2.536c4.488 1.088 3.536 4.081 8.57 4.897 0 0 2.04.544 2.856.136 0 0-1.904 3.128-4.625 2.312 0 0-2.516-.612-3.604-1.428" transform="translate(-191 -1152) translate(193 1153) translate(8.446 11.196)"/>
                    <path stroke="#FFF" stroke-linecap="round" stroke-linejoin="round" stroke-width="1.875" d="M105.867 37.269s-.544 2.04-3.672 1.768c-3.129-.272-3.265-1.633-4.625-2.04" transform="translate(-191 -1152) translate(193 1153) translate(8.446 11.196)"/>
                    <path stroke="#FFF" stroke-linecap="round" stroke-linejoin="round" stroke-width="1.875" d="M102.195 39.037s-.68 1.496-4.08.544c-3.402-.952-3.313-3.901-7.438-3.923" transform="translate(-191 -1152) translate(193 1153) translate(8.446 11.196)"/>
                    <path stroke="#44E7D9" stroke-linecap="round" stroke-linejoin="round" stroke-width="1.875" d="M89.416 63.885s-2.313-.136-1.768-.816c.544-.68 0-.68-1.089-.68-1.088 0-2.856.272-1.496.544 0 0 1.155.323.817.999M70.67 62.323s4.872-3.334 10.72-3.199M82.207 59.124L83.975 59.124M85.063 59.124s8.628-.015 13.495 2.645" transform="translate(-191 -1152) translate(193 1153) translate(8.446 11.196)"/>
                    <path stroke="#44E7D9" stroke-linecap="round" stroke-linejoin="round" stroke-width="1.875" d="M79.31 63.869s.516-.868-1.252-.596c-1.769.272-1.836-1.156.612-.884 2.448.272 5.169.136 4.76-.68-.407-.816-2.992 0-2.856-.68.136-.68 2.313-.544 3.537-.544 1.224 0 2.992-.68 4.76 0 1.769.68-1.903.544-.68 1.224 1.225.68 3.673-.544 4.353-.136.68.408-.952.952-1.224 1.36-.272.408 1.389.605 1.389.605M64.478 112.811l-.77-53.006c0-7.89 2.04-11.356 2.04-11.356M65.34 175.695L64.685 128.07M66.403 128.457l.977 47.238s-.136 1.088-1.768.408" transform="translate(-191 -1152) translate(193 1153) translate(8.446 11.196)"/>
                    <path stroke="#44E7D9" stroke-linecap="round" stroke-linejoin="round" stroke-width="1.875" d="M67.43 48.712s-3.586 3.883-1.954 37.617l.62 26.733M104.96 113.422l.778-53.55c0-7.888-2.04-11.083-2.04-11.083M104.106 175.763L104.645 135.462M102.888 135.162l-.822 40.601s2.04 1.156 3.264-.612" transform="translate(-191 -1152) translate(193 1153) translate(8.446 11.196)"/>
                    <path stroke="#44E7D9" stroke-linecap="round" stroke-linejoin="round" stroke-width="1.875" d="M101.88 48.508c.822.76 4.166 5.331 2.09 37.889l-.61 26.955M97.17 47.852s-1.583.908-1.88 2.486M9.435 169.166L56.091 169.166M59.355 169.166L64.796 169.166M68.06 169.166L90.912 169.166M92.816 169.166L97.577 169.166 98.801 169.166 101.93 169.166M104.786 169.166L108.186 169.166M111.043 169.166L162.231 169.166M68.06 172.295s1.224-.409.68 1.496c-.544 1.904 1.36.136 2.585.544 1.224.408.136 1.224-1.632 2.04-1.768.816-1.633 2.448-3.4 1.768-1.77-.68.815-.544-1.225-1.224-2.04-.68-.68-.952 0-2.176" transform="translate(-191 -1152) translate(193 1153) translate(8.446 11.196)"/>
                    <path stroke="#44E7D9" stroke-linecap="round" stroke-linejoin="round" stroke-width="1.875" d="M67.925 171.342s.952-.952 2.312-.68c1.36.272-.136.544.544 1.632.68 1.089 1.768.272 3.4 1.089 1.633.816 1.36 2.176-1.36 3.672-2.72 1.497-2.176 1.36-.408 2.177 1.769.816 3.265 2.312.408 2.72-2.856.408-2.04 1.904 0 2.312 2.04.409-1.496 1.497-.952 3.129s-.952 2.584-2.312 1.224c-1.36-1.36-2.721.544-4.49-.68-1.767-1.224-1.631-3.264 1.225-4.353 2.857-1.088.272-2.992-2.584-3.128-2.857-.136-2.585-2.585-1.632-4.76.952-2.178-1.905-.817 0-3.402 0 0 1.632-.272 2.584-.952" transform="translate(-191 -1152) translate(193 1153) translate(8.446 11.196)"/>
                    <path stroke="#44E7D9" stroke-linecap="round" stroke-linejoin="round" stroke-width="1.875" d="M71.597 170.39s.272 1.632 2.04 1.224c1.768-.408 5.985.273 5.305 2.177-.68 1.904-5.169 3.4-3.808 4.488 1.36 1.089 3.944 2.585 2.176 3.945-1.768 1.36-1.905 2.176-.272 3.4 1.632 1.225-2.993 2.857-2.449 4.081.545 1.224.137 2.176-.408 2.448-.544.273 0 1.36 1.36.409 1.36-.952.137-3.945 2.585-4.08 2.448-.137 4.217-1.225 2.72-2.994-1.496-1.768-2.312-1.904-.816-3.4 1.497-1.496-1.496-2.313.408-4.217 1.905-1.904 6.801-1.768 5.441-4.489 0 0-2.992-1.904-1.632-2.72 1.36-.816-.544-1.224-6.121-1.088-5.577.136-6.257-.408-6.53.816z" transform="translate(-191 -1152) translate(193 1153) translate(8.446 11.196)"/>
                    <path stroke="#44E7D9" stroke-linecap="round" stroke-linejoin="round" stroke-width="1.875" d="M57.859 192.426s-3.129.816-3.4 1.36c-.273.544-.545.408-.273 1.904s-2.993 1.224-3.536 1.768c-.544.545-1.769 1.497 0 3.129 1.768 1.632-2.04 1.768-2.313 2.72-.272.952-2.448 2.177 0 3.537 2.448 1.36 5.985.544 6.121 1.768.136 1.224-3.808 1.36-2.992 4.217.816 2.856 5.44.952 7.345 1.904 1.904.952 1.496 2.177-.272 3.537-1.768 1.36-.408 3.808 3.944 4.08 4.353.273 15.235-1.904 15.643-5.848.408-3.945-4.353-6.938-2.176-8.026 2.176-1.088 6.937-1.496 7.889-3.809.952-2.312-.136-6.8-4.081-8.705-3.945-1.904-3.128-5.033-.408-5.713 2.72-.68 5.17-1.904 2.993-5.985-2.177-4.08 2.312-5.712 4.352-5.985 2.04-.272 4.49-3.536 3.129-5.984-1.36-2.45.393-3.13.393-3.13" transform="translate(-191 -1152) translate(193 1153) translate(8.446 11.196)"/>
                    <path stroke="#44E7D9" stroke-linecap="round" stroke-linejoin="round" stroke-width="1.875" d="M101.794 169.982s-5.849-1.224-7.482 1.088c-1.632 2.313-.816 3.673.953 5.305 1.768 1.632-2.177 2.856-3.81 2.993-1.631.136-5.168 2.992-1.903 4.76 3.264 1.768 7.073 1.36 6.937 4.353-.136 2.992-8.161 2.857-9.93 3.809-1.768.952-5.032 2.448 1.088 3.672 0 0 2.04-.136 2.585 3.264.544 3.401 7.99 3.07 9.794 3.265 2.806.303 1.626-1.276-1.224-4.489-2.208-2.487 5.712-2.176 5.712-2.176s1.632 0 2.72.136M109.351 196.111s4.005-.693.332-3.685" transform="translate(-191 -1152) translate(193 1153) translate(8.446 11.196)"/>
                    <path stroke="#44E7D9" stroke-linecap="round" stroke-linejoin="round" stroke-width="1.875" d="M107.234 191.473s-5.304-2.176-2.584-3.808c0 0 3.415.085 3.476-.706M108.126 184.23s-1.436-1.462.06-2.414M110.293 181.247s2.927-.927 1.702-3.783c-1.224-2.857 0-2.993.272-3.945s-1.632-2.721-.952-3.537c.68-.816.953-.816.953-.816M105.33 171.478s2.04 0 1.905 2.04c-.137 2.04-2.177 2.313-2.449 3.537-.272 1.224-3.809.816-3.536-1.36.272-2.176-2.04-2.448-.544-2.993 1.496-.544 1.088-.407 1.088-.407" transform="translate(-191 -1152) translate(193 1153) translate(8.446 11.196)"/>
                    <path stroke="#44E7D9" stroke-linecap="round" stroke-linejoin="round" stroke-width="1.875" d="M100.978 170.934s-5.17 2.04-4.08 3.673c1.087 1.632 4.08 1.768 2.72 3.128-1.361 1.36-4.761 1.088-2.857 3.537 1.904 2.448 5.577-.816 8.025-.544 2.449.272 3.4-1.768 3.4-1.768M108.187 175.151s-.272-.816.408-1.632M105.738 170.118L108.731 170.39M123.15 170.526s-3.945 0-3.81 1.632c.137 1.633 2.04.816 2.857 0 .816-.816 2.448-.68 2.312-1.224-.136-.544-1.36-.408-1.36-.408zM126.142 181.272s-1.497-.136-1.633-1.904c-.135-1.769-2.72-2.449-3.4-.952-.68 1.496-1.36 2.584.816 3.4 2.176.816 1.224 2.584 0 2.448-1.224-.136-1.224 1.632 1.768 1.224 2.992-.408 4.081-1.36 3.673-2.448-.408-1.088-1.224-1.768-1.224-1.768z" transform="translate(-191 -1152) translate(193 1153) translate(8.446 11.196)"/>
                    <path stroke="#44E7D9" stroke-linecap="round" stroke-linejoin="round" stroke-width="1.875" d="M137.975 174.335s2.449-1.496 5.033-1.905c2.585-.408 2.177-3.672-5.033-2.312-7.209 1.36-10.61.544-11.425 1.36-.816.817-4.353 2.857 0 5.44 4.352 2.586 4.896 2.041 4.216 4.354-.68 2.312-1.904 4.625.273 6.801 2.176 2.176-.817 4.625-.273 5.305 0 0 .544 2.72 3.673 1.904 3.128-.816.68-1.632 1.36-3.809.68-2.176 1.36-3.536 3.4-3.536s3.81-3.945.817-6.12c-2.993-2.177-6.801-4.49-2.04-7.482z" transform="translate(-191 -1152) translate(193 1153) translate(8.446 11.196)"/>
                    <path stroke="#44E7D9" stroke-linecap="round" stroke-linejoin="round" stroke-width="1.875" d="M134.439 171.75s-.952 1.36-2.448 2.177c-1.497.816-3.81.816-1.769 2.584 2.04 1.768 3.673 3.809 3.128 5.713-.543 1.905-1.495 3.264 1.089 3.264s3.808-.815 1.904-3.944-3.808-3.945-1.904-6.937c1.904-2.993 1.36-3.129 0-2.857zM100.978 205.892s1.496.952 1.632 1.224c.136.272-.816.952-3.129.952-2.312 0-4.624.816-3.944 2.856.68 2.04 1.224 3.401-1.225 3.81-2.448.407-7.208-.545-8.569-1.905-1.36-1.36-4.224-3.119-5.169-1.768-.944 1.35 4.081 3.128 2.313 4.216-1.769 1.089-7.073 4.489-6.938 5.85.137 1.36 3.401 1.087 3.13 3.4-.273 2.312-3.673 2.992-2.993 4.217.68 1.224 4.896 3.264 4.896 2.04 0-1.224-1.904-2.448 0-2.72 1.905-.273 7.482-1.633 4.761-3.401-2.72-1.769-4.625-2.72-1.496-4.489 3.129-1.768 7.617-1.224 11.29-1.632 3.672-.408 9.793-1.36 7.889-2.857-1.905-1.496-3.672-1.36-2.448-2.72 0 0 2.448-1.224 5.985-.408 0 0 1.904-.816 0-2.04-1.905-1.225-.68-2.993 2.04-2.585 2.72.408 5.985-.136 5.713-2.04-.272-1.905-3.4-2.176-2.04-3.4 1.36-1.225 3.264-3.537.68-4.49-2.585-.952-8.162-.272-9.386-.952-1.224-.68-4.625.409-2.992 1.36 1.632.953 3.264 1.769 2.992 3.265-.272 1.496-3.944 3.537-2.992 4.217z" transform="translate(-191 -1152) translate(193 1153) translate(8.446 11.196)"/>
                    <path stroke="#44E7D9" stroke-linecap="round" stroke-linejoin="round" stroke-width="1.875" d="M107.234 198.683s-.135.136-1.496 0c-1.36-.136-.68.68-.68.68 1.224 1.224-.136 2.856-1.088 4.352-.952 1.497 1.224 1.905 3.129 2.177 1.904.272 2.176-.544 1.496-2.04-.68-1.497 2.448-1.633 3.672-2.585 1.225-.952-1.496-1.904-1.496-1.904l-1.36-.408M57.587 196.098s-4.489 1.224-4.217 1.905c.272.68.544 1.496 2.72 2.72 2.177 1.224-3.128 1.496-4.08 2.449-.952.952-2.857 2.856 1.496 2.72 4.353-.136 7.481 1.632 6.393 2.584-1.088.952-7.617 2.584-5.44 3.4 2.176.817 8.705-1.088 9.249.681.544 1.768-2.449 3.537-1.633 5.305.817 1.768 3.401 1.496 5.033 1.36 1.633-.136 10.338-1.088 8.025-5.985-2.312-4.897-6.529-2.04-2.176-5.577 4.353-3.536 10.066-1.768 8.434-5.169-1.633-3.4-5.85-4.624-6.258-5.713-.408-1.088-1.36-.816-1.36-.816s-2.856-.272-2.176-2.176c.68-1.904 0-3.4-2.04-3.4s-4.761 0-6.257-.681c-1.497-.68-2.993.816-2.993.816" transform="translate(-191 -1152) translate(193 1153) translate(8.446 11.196)"/>
                    <path stroke="#44E7D9" stroke-linecap="round" stroke-linejoin="round" stroke-width="1.875" d="M60.443 195.146l2.313-.544s2.312-.68 2.72 0c.408.68-2.584 2.584-1.496 3.4 1.088.817 4.897.272 7.345 0 2.448-.272 1.36 2.449-.544 2.449-1.904 0-4.625 1.904-5.985 2.177-1.36.271-2.448-2.857-3.673-2.993-1.224-.136-4.08 1.904-3.944-.68 0 0-.136-.817.952-1.633M56.09 177.6s-2.176 1.496 0 2.312c2.177.816.136 4.08-2.176 3.808-2.312-.272-.68 3.673 2.177 3.265 2.856-.408-1.633 3.264-2.857 3.264-1.224 0 2.857 2.72-.408 3.401-3.264.68-6.257 1.088-7.073 2.448-.816 1.36-2.857 4.08 0 4.625 2.856.544 1.632 3.264-1.496 3.672-3.129.408-2.857 4.761.816 4.898 3.672.135 5.713 3.128 2.176 3.128s-10.065.952-7.617 2.448c2.448 1.497 2.176 2.993-.544 2.856-2.72-.135-8.706-2.176-4.353-7.345 4.353-5.168-3.672-2.72-6.257-3.944-2.584-1.224-3.809-5.85 1.224-5.713 5.033.136 7.073-1.224 4.489-2.993-2.584-1.768 2.856-1.904 1.768-3.4-1.088-1.496-4.08-2.584-6.393-2.857-2.312-.272-2.856-3.128.272-5.44 3.129-2.313-1.768-5.441-4.216-6.802-2.449-1.36-4.353-5.848 0-6.12 4.352-.272 5.44 2.04 3.808 3.264-1.632 1.224 2.585 1.904 4.625 1.904s4.76 3.537 2.04 5.986c-2.72 2.448-5.713 5.168-.952 5.304 4.76.136 6.257 3.129 4.353 5.169-1.904 2.04-1.632 3.536-.408 3.673 1.224.136.136 2.992-1.904 3.944-2.041.952 2.176 1.632 2.176 3.537 0 1.904 2.72 0 2.312-2.72-.408-2.721 1.965-.899 1.435-2.449-.24-.7-2.604-1.986-.346-4.897 1.301-1.679 5.712-1.088 4.896-3.4-.816-2.313-2.448-4.353.68-4.489 3.129-.136-1.632-2.856-.408-4.897 1.224-2.04 5.441-1.768 3.809-4.489-1.632-2.72-2.857-5.168-.952-6.256 1.904-1.089 4.353-.68 5.305-.817" transform="translate(-191 -1152) translate(193 1153) translate(8.446 11.196)"/>
                    <path stroke="#44E7D9" stroke-linecap="round" stroke-linejoin="round" stroke-width="1.875" d="M43.168 173.11s-.544 2.313 1.089 2.041c1.632-.272 3.944.272 4.216 1.36.272 1.088.952 3.673-1.224 3.945-2.176.272-3.264 1.224-2.176 3.809 1.088 2.584-4.08 1.087-5.033 1.224-.952.136-2.856-1.089-.952-3.265s5.577-3.536 3.945-4.489c-1.633-.952-6.258.272-5.441-2.448.816-2.72 4.488-4.217 5.576-2.177zM154.91 169.788s2.82 4.801-9.066 6.552c-11.886 1.75 3.593 8.016 3.04 10.595-.553 2.58-14.28 1.659-10.227 8.477 0 0 7.279 2.304 5.804 5.344-1.474 3.04-15.202 1.382-12.991 5.16 2.211 3.777 5.528 8.845-4.054 10.043-9.582 1.197-27.088 1.197-11.517-4.423 0 0 11.333-.276 8.016-3.685-3.317-3.41 3.778-.185 3.501-5.252-.276-5.068 5.252-1.935 2.027-6.45-3.225-4.515 0-5.16-2.027-6.91s-4.054-2.764-8.108-2.304c0 0-8.062.6-6.127 2.626 1.935 2.027 6.726-.276 9.306.461 2.58.737-1.29 2.027.184 3.686 1.474 1.658 4.791 2.487 2.672 3.132s-9.859 1.29-8.385 2.58c1.475 1.29 3.594 2.672 1.475 3.501-2.12.83-1.106 3.04 1.382 3.87 2.487.83-7.187 1.75-4.515 2.488 2.672.737 6.634.921 6.634-.83 0-1.75-2.58-3.317-1.474-4.053 1.106-.738 6.818-2.949 5.252-4.054" transform="translate(-191 -1152) translate(193 1153) translate(8.446 11.196)"/>
                    <path stroke="#44E7D9" stroke-linecap="round" stroke-linejoin="round" stroke-width="1.875" d="M147.917 205.962s-5.344-.922-4.054 4.054c1.29 4.975-6.358 2.487-7.464 5.712-1.105 3.225.553 4.976-3.04 4.976s-18.15-1.382-17.045 1.658c1.106 3.04 16.492 3.41 20.27 3.41 3.777 0 11.056-1.936 5.436-5.99-5.62-4.054 5.62-3.961 8.569-3.961 2.948 0 9.858-3.41 2.027-7.648l-4.7-2.211zM69.498 224.533c-9.125-1.673-8.783.353-12.163-.317-3.38-.67-2.029-1.01-3.385-4.386-1.358-3.376-5.41-2.018-3.715 1.358 1.695 3.375 7.106 6.744-1.338 7.772-8.444 1.028-22.297-.3-19.264-4.359 3.034-4.06 4.383-5.075-1.024-6.08 0 0-8.112-2.35-3.725-5.398 4.387-3.049 5.06-4.739-.684-4.73-5.743.01-9.114 4.746-3.36 10.142 5.751 5.395.684 5.404.013 8.108-.672 2.704 1.364 7.768 8.459 7.756M16.798 182.904s-2.587-.857-2.116 1.286c.47 2.143-3.057.857-4.703 1.5-1.647.643-3.057 2.572 0 3.215 3.057.643 4.938 1.285 3.057 2.357-1.881 1.072-3.293 2.143-.47 2.572 2.821.428 12.743-.005 12.72-.967-.022-.962-.258-1.82-3.08-3.534-2.821-1.714-.424-2.957 3.08-3.407 3.505-.45 4.21-3.022 1.389-4.093-2.822-1.072-9.877 1.071-9.877 1.071z" transform="translate(-191 -1152) translate(193 1153) translate(8.446 11.196)"/>
                    <path fill="#FFF" d="M58.702 106.004c0 .275-.224.5-.5.5s-.5-.225-.5-.5c0-.276.224-.5.5-.5s.5.224.5.5M69.554 96.008c0 .355-.288.642-.643.642-.355 0-.642-.287-.642-.642 0-.355.287-.642.642-.642.355 0 .643.287.643.642M63.556 98.721c0 .197-.16.357-.357.357-.197 0-.356-.16-.356-.357 0-.197.16-.357.356-.357.198 0 .357.16.357.357M127.208 161.183c0 .355-.287.643-.642.643-.355 0-.643-.288-.643-.643 0-.355.288-.642.643-.642.355 0 .642.287.642.642M106.925 42.553c0 .355-.288.643-.643.643-.355 0-.642-.288-.642-.643 0-.354.287-.642.642-.642.355 0 .643.288.643.642M94.543 150.698c0 .276-.224.5-.5.5s-.5-.224-.5-.5.224-.5.5-.5.5.224.5.5M109.536 155.339c0 .473-.383.857-.856.857-.474 0-.857-.384-.857-.857s.383-.857.857-.857c.473 0 .856.384.856.857M108.01 83.84c0 .275-.223.5-.5.5-.275 0-.499-.225-.499-.5 0-.277.224-.5.5-.5s.5.223.5.5M124.408 92.442c0 .197-.16.357-.357.357-.197 0-.357-.16-.357-.357 0-.198.16-.357.357-.357.197 0 .357.16.357.357M62.111 158.963c0 .197-.16.357-.357.357-.197 0-.357-.16-.357-.357 0-.197.16-.357.357-.357.197 0 .357.16.357.357M101.97 52.8c0 .474-.384.857-.857.857-.474 0-.857-.383-.857-.856 0-.474.383-.857.857-.857.473 0 .857.383.857.857M70.91 167.905c.276 0 .5.224.5.5s-.224.5-.5.5c-.275 0-.5-.224-.5-.5s.225-.5.5-.5M60.782 136.692c.355 0 .643.288.643.642 0 .356-.288.643-.643.643-.355 0-.642-.287-.642-.643 0-.354.287-.642.642-.642M62.485 128.78c.356 0 .643.287.643.642 0 .355-.287.643-.643.643-.354 0-.642-.288-.642-.643 0-.355.288-.643.642-.643M53.632 155.625c.355 0 .643.288.643.642 0 .355-.288.643-.643.643-.355 0-.642-.288-.642-.643 0-.354.287-.642.642-.642M60.63 123.068c.196 0 .356.16.356.357 0 .197-.16.356-.357.356-.197 0-.357-.159-.357-.356 0-.198.16-.357.357-.357M51.349 60.889c0 .355-.288.642-.643.642-.355 0-.643-.287-.643-.642 0-.355.288-.643.643-.643.355 0 .643.288.643.643M110.964 144.13c0 .276-.223.5-.5.5-.276 0-.5-.224-.5-.5s.224-.5.5-.5c.277 0 .5.224.5.5M98.879 164.988c0 .197-.16.357-.357.357-.197 0-.357-.16-.357-.357 0-.197.16-.357.357-.357.197 0 .357.16.357.357M106.68 93.152c0 .276-.223.5-.5.5-.275 0-.5-.224-.5-.5s.225-.5.5-.5c.277 0 .5.224.5.5M121.674 97.793c0 .473-.384.857-.857.857s-.857-.384-.857-.857.384-.857.857-.857.857.384.857.857M107.966 111.573c0 .355-.288.642-.643.642-.355 0-.643-.287-.643-.642 0-.355.288-.643.643-.643.355 0 .643.288.643.642M99.948 118.008c0 .157-.128.285-.285.285-.158 0-.286-.128-.286-.285 0-.159.128-.286.286-.286.157 0 .285.127.285.286M118.787 110.145c0 .197-.16.357-.357.357-.197 0-.357-.16-.357-.357 0-.197.16-.358.357-.358.197 0 .357.16.357.358M53.704 84.156c0 .355-.288.643-.643.643-.355 0-.642-.288-.642-.643 0-.355.287-.642.642-.642.355 0 .643.287.643.642M51.012 71.242c0 .197-.16.357-.358.357-.197 0-.356-.16-.356-.357 0-.198.16-.357.356-.357.197 0 .358.16.358.357M120.991 68.988c0 .276-.223.5-.5.5-.275 0-.499-.224-.499-.5 0-.275.224-.5.5-.5s.5.225.5.5M49.563 96.15c0 .356-.288.643-.643.643-.355 0-.643-.287-.643-.642 0-.355.288-.642.643-.642.355 0 .643.287.643.642M99.236 99.9c.355 0 .643.288.643.642 0 .356-.288.643-.643.643-.355 0-.642-.287-.642-.642 0-.355.287-.643.642-.643M70.597 118.641c.355 0 .642.288.642.643 0 .355-.287.642-.642.642-.355 0-.642-.287-.642-.642 0-.355.287-.643.642-.643M62.036 67.57c.276 0 .5.223.5.5 0 .275-.224.499-.5.499s-.5-.224-.5-.5.224-.5.5-.5M60.697 91.65c.473 0 .857.383.857.856 0 .474-.384.857-.857.857s-.857-.383-.857-.857c0-.473.384-.856.857-.856M119.753 104.894c.355 0 .643.288.643.643 0 .355-.288.643-.643.643-.355 0-.642-.288-.642-.643 0-.355.287-.643.642-.643M55.56 142.702c0 .355-.288.642-.642.642-.355 0-.643-.287-.643-.642 0-.355.288-.643.643-.643.354 0 .642.288.642.643M48.072 147.734c0 .355-.288.643-.642.643-.355 0-.643-.288-.643-.643 0-.355.288-.642.643-.642.354 0 .642.287.642.642M74.18 162.522c0 .276-.224.5-.5.5-.277 0-.5-.224-.5-.5s.223-.5.5-.5c.276 0 .5.224.5.5M61.996 175.844c0 .277-.224.5-.5.5s-.5-.223-.5-.5c0-.276.224-.5.5-.5s.5.224.5.5M54.23 164.776c0 .197-.16.357-.357.357-.197 0-.357-.16-.357-.357 0-.197.16-.357.357-.357.197 0 .357.16.357.357M72.618 151.96c0 .473-.383.857-.856.857-.474 0-.857-.384-.857-.857s.383-.856.857-.856c.473 0 .856.383.856.856M115.248 165.692c0 .355-.288.642-.642.642-.355 0-.643-.287-.643-.642 0-.356.288-.643.643-.643.354 0 .642.287.642.643M98.113 156.267c0 .355-.288.643-.643.643-.355 0-.643-.288-.643-.643 0-.355.288-.642.643-.642.355 0 .643.287.643.642M122.53 152.84c0 .276-.223.5-.5.5-.275 0-.5-.224-.5-.5s.225-.5.5-.5c.277 0 .5.224.5.5M118.975 161.56c0 .198-.16.358-.357.358-.198 0-.357-.16-.357-.357 0-.197.16-.357.357-.357.197 0 .357.16.357.357M122.53 168.69c0 .276-.223.5-.5.5-.275 0-.5-.224-.5-.5s.225-.5.5-.5c.277 0 .5.224.5.5M118.034 62.406c0 .276-.224.5-.5.5s-.5-.224-.5-.5.224-.5.5-.5.5.224.5.5M46.926 114.909c0 .355-.288.643-.642.643-.355 0-.643-.288-.643-.643 0-.355.288-.642.643-.642.354 0 .642.287.642.642M62.842 113.857c0 .197-.16.357-.357.357-.197 0-.356-.16-.356-.357 0-.197.16-.357.356-.357.198 0 .357.16.357.357M120.712 78.197c0 .355-.287.642-.642.642-.355 0-.643-.287-.643-.642 0-.355.288-.642.643-.642.355 0 .642.287.642.642M125.453 85.215c0 .197-.16.357-.357.357-.198 0-.357-.16-.357-.357 0-.197.16-.357.357-.357.197 0 .357.16.357.357M117.247 90.867c0 .355-.288.643-.642.643-.355 0-.643-.288-.643-.643 0-.354.288-.642.643-.642.354 0 .642.288.642.642M51.348 123.353c.354 0 .642.288.642.643 0 .355-.288.642-.642.642-.355 0-.643-.287-.643-.642 0-.355.288-.643.643-.643M52.062 107.663c.197 0 .357.16.357.357 0 .198-.16.357-.357.357-.198 0-.357-.16-.357-.357 0-.197.16-.357.357-.357M47.529 102.105c.473 0 .857.383.857.857 0 .473-.384.856-.857.856s-.857-.383-.857-.856c0-.474.384-.857.857-.857M109.456 148.39c0 .275-.224.499-.5.499s-.5-.224-.5-.5.224-.5.5-.5.5.224.5.5M122.673 136.704c0 .355-.287.643-.642.643-.355 0-.643-.288-.643-.643 0-.355.288-.642.643-.642.355 0 .642.287.642.642M116.676 139.417c0 .198-.16.357-.357.357-.197 0-.357-.16-.357-.357 0-.197.16-.357.357-.357.197 0 .357.16.357.357M100.54 133.42c0 .355-.288.643-.642.643-.355 0-.643-.288-.643-.643 0-.355.288-.642.643-.642.354 0 .642.287.642.642M109.536 123.425c0 .197-.16.357-.357.357-.197 0-.357-.16-.357-.357 0-.198.16-.358.357-.358.197 0 .357.16.357.358M98.116 139.038c0 .355-.288.642-.642.642-.355 0-.643-.287-.643-.642 0-.355.288-.643.643-.643.354 0 .642.288.642.643M125.743 145.486c.355 0 .643.288.643.643 0 .355-.288.642-.643.642-.355 0-.642-.287-.642-.642 0-.355.287-.643.642-.643M108.608 68.235c.197 0 .357.16.357.357 0 .197-.16.356-.357.356-.197 0-.357-.159-.357-.356 0-.197.16-.357.357-.357M117.533 122.21c.473 0 .856.385.856.858s-.383.856-.856.856-.857-.383-.857-.856.384-.857.857-.857M86.404 106.004c0 .355-.288.642-.643.642-.355 0-.643-.287-.643-.642 0-.355.288-.643.643-.643.355 0 .643.288.643.643M78.88 128.785L78.929 128.839M91.762 127.433L91.714 127.489M84.808 127.117L84.808 127.19" transform="translate(-191 -1152) translate(193 1153) translate(8.446 11.196)"/>
                    <path fill="#D1A448" d="M79.151 138.077l.143.164-.054.05-.15-.158.061-.056" transform="translate(-191 -1152) translate(193 1153) translate(8.446 11.196)"/>
                    <path fill="#FFF" d="M126.657 125.31c0 .354-.288.641-.643.641-.355 0-.643-.287-.643-.642 0-.355.288-.643.643-.643.355 0 .643.288.643.643M116.71 52.322c0 .276-.225.5-.5.5-.277 0-.5-.224-.5-.5 0-.275.223-.5.5-.5.275 0 .5.225.5.5M125.315 112.732c0 .197-.16.357-.357.357-.197 0-.356-.16-.356-.357 0-.197.16-.357.356-.357.198 0 .357.16.357.357M54.885 52.97c0 .276-.224.5-.5.5s-.5-.224-.5-.5.224-.5.5-.5.5.224.5.5M115.797 114.763c0 .276-.224.5-.5.5s-.5-.224-.5-.5.224-.5.5-.5.5.224.5.5M53.815 164.284c0 .356-.288.643-.643.643-.355 0-.643-.287-.643-.643 0-.355.288-.642.643-.642.355 0 .643.287.643.642M59.408 75.757c0 .276-.224.5-.5.5s-.5-.224-.5-.5.224-.5.5-.5.5.224.5.5M44.028 85.492c0 .197-.16.357-.357.357-.198 0-.357-.16-.357-.357 0-.198.16-.357.357-.357.197 0 .357.16.357.357M47.584 92.62c0 .277-.224.5-.5.5s-.5-.223-.5-.5c0-.275.224-.499.5-.499s.5.224.5.5M71.334 107.793c0 .276-.224.5-.5.5s-.5-.224-.5-.5.224-.5.5-.5.5.224.5.5" transform="translate(-191 -1152) translate(193 1153) translate(8.446 11.196)"/>
                    <path stroke="#D1A448" stroke-linecap="round" stroke-linejoin="round" stroke-width="1.875" d="M102.036 60.198c.94 18.114-6.144 31.724-17.51 32.058-11.233.33-18.551-13.465-17.51-32.058" transform="translate(-191 -1152) translate(193 1153) translate(8.446 11.196)"/>
                    <g>
                        <path fill="#000" d="M0.2 0.135L0.2 10.33" transform="translate(-191 -1152) translate(193 1153) translate(8.446 11.196) translate(80.743 91.554)"/>
                        <path stroke="#D1A448" stroke-linecap="round" stroke-linejoin="round" stroke-width="1.875" d="M0.2 0.135L0.2 10.33" transform="translate(-191 -1152) translate(193 1153) translate(8.446 11.196) translate(80.743 91.554)"/>
                    </g>
                    <g>
                        <path fill="#000" d="M0.4 0.135L0.4 10.33" transform="translate(-191 -1152) translate(193 1153) translate(8.446 11.196) translate(87.5 91.554)"/>
                        <path stroke="#D1A448" stroke-linecap="round" stroke-linejoin="round" stroke-width="1.875" d="M0.4 0.135L0.4 10.33" transform="translate(-191 -1152) translate(193 1153) translate(8.446 11.196) translate(87.5 91.554)"/>
                    </g>
                    <g>
                        <path fill="#000" d="M4.512 1.173c-2.116 0-3.174-.211-4.02-.846 0 0-1.059 1.058 0 2.116 0 0 1.269.635 3.597.635" transform="translate(-191 -1152) translate(193 1153) translate(8.446 11.196) translate(80.068 101.69)"/>
                        <path stroke="#D1A448" stroke-linecap="round" stroke-linejoin="round" stroke-width="1.875" d="M4.512 1.173c-2.116 0-3.174-.211-4.02-.846 0 0-1.059 1.058 0 2.116 0 0 1.269.635 3.597.635" transform="translate(-191 -1152) translate(193 1153) translate(8.446 11.196) translate(80.068 101.69)"/>
                    </g>
                    <g>
                        <path fill="#000" d="M.239.096v8.887s.846 1.058 3.597 1.058c2.75 0 3.386-1.058 3.386-1.058V.096" transform="translate(-191 -1152) translate(193 1153) translate(8.446 11.196) translate(80.743 105.068)"/>
                        <path stroke="#D1A448" stroke-linecap="round" stroke-linejoin="round" stroke-width="1.875" d="M.239.096v8.887s.846 1.058 3.597 1.058c2.75 0 3.386-1.058 3.386-1.058V.096" transform="translate(-191 -1152) translate(193 1153) translate(8.446 11.196) translate(80.743 105.068)"/>
                    </g>
                    <g>
                        <path fill="#000" d="M0.242 0.238L0.242 10.183" transform="translate(-191 -1152) translate(193 1153) translate(8.446 11.196) translate(82.095 92.23)"/>
                        <path stroke="#D1A448" stroke-linecap="round" stroke-linejoin="round" stroke-width="1.875" d="M0.242 0.238L0.242 10.183" transform="translate(-191 -1152) translate(193 1153) translate(8.446 11.196) translate(82.095 92.23)"/>
                    </g>
                    <g>
                        <path fill="#000" d="M0.242 0.096L0.242 9.406" transform="translate(-191 -1152) translate(193 1153) translate(8.446 11.196) translate(82.095 105.068)"/>
                        <path stroke="#D1A448" stroke-linecap="round" stroke-linejoin="round" stroke-width="1.875" d="M0.242 0.096L0.242 9.406" transform="translate(-191 -1152) translate(193 1153) translate(8.446 11.196) translate(82.095 105.068)"/>
                    </g>
                    <g>
                        <path fill="#000" d="M0.417 0.055L0.417 4.075" transform="translate(-191 -1152) translate(193 1153) translate(8.446 11.196) translate(83.784 105.405)"/>
                        <path stroke="#D1A448" stroke-linecap="round" stroke-linejoin="round" stroke-width="1.875" d="M0.417 0.055L0.417 4.075" transform="translate(-191 -1152) translate(193 1153) translate(8.446 11.196) translate(83.784 105.405)"/>
                    </g>
                    <g>
                        <path fill="#000" d="M0.417 0.066L0.417 3.663" transform="translate(-191 -1152) translate(193 1153) translate(8.446 11.196) translate(83.784 110.473)"/>
                        <path stroke="#D1A448" stroke-linecap="round" stroke-linejoin="round" stroke-width="1.875" d="M0.417 0.066L0.417 3.663" transform="translate(-191 -1152) translate(193 1153) translate(8.446 11.196) translate(83.784 110.473)"/>
                    </g>
                    <g>
                        <path fill="#000" d="M0.168 0.323L0.168 8.152" transform="translate(-191 -1152) translate(193 1153) translate(8.446 11.196) translate(84.122 93.581)"/>
                        <path stroke="#D1A448" stroke-linecap="round" stroke-linejoin="round" stroke-width="1.875" d="M0.168 0.323L0.168 8.152" transform="translate(-191 -1152) translate(193 1153) translate(8.446 11.196) translate(84.122 93.581)"/>
                    </g>
                    <g>
                        <path fill="#000" d="M0.168 0.055L0.168 8.308" transform="translate(-191 -1152) translate(193 1153) translate(8.446 11.196) translate(86.486 105.743)"/>
                        <path stroke="#D1A448" stroke-linecap="round" stroke-linejoin="round" stroke-width="1.875" d="M0.168 0.055L0.168 8.308" transform="translate(-191 -1152) translate(193 1153) translate(8.446 11.196) translate(86.486 105.743)"/>
                    </g>
                    <g>
                        <path fill="#000" d="M.05 1.173c2.117 0 3.175-.211 4.02-.846 0 0 1.059 1.058 0 2.116 0 0-1.269.635-3.596.635" transform="translate(-191 -1152) translate(193 1153) translate(8.446 11.196) translate(84.122 101.69)"/>
                        <path stroke="#D1A448" stroke-linecap="round" stroke-linejoin="round" stroke-width="1.875" d="M.05 1.173c2.117 0 3.175-.211 4.02-.846 0 0 1.059 1.058 0 2.116 0 0-1.269.635-3.596.635" transform="translate(-191 -1152) translate(193 1153) translate(8.446 11.196) translate(84.122 101.69)"/>
                    </g>
                    <path stroke="#D1A448" stroke-linecap="round" stroke-linejoin="round" stroke-width="1.875" d="M101.93 60.304c0 1.987-7.768 3.597-17.35 3.597-9.584 0-17.352-1.61-17.352-3.597 0-1.987 7.768-3.597 17.351-3.597 9.583 0 17.352 1.61 17.352 3.597z" transform="translate(-191 -1152) translate(193 1153) translate(8.446 11.196)"/>
                    <g>
                        <path fill="#000" d="M10.817.012C8.55.22 3.674.785.956 2.003c0 0-1.554.911-.178 1.94" transform="translate(-191 -1152) translate(193 1153) translate(8.446 11.196) translate(69.595 112.5)"/>
                        <path stroke="#D1A448" stroke-linecap="round" stroke-linejoin="round" stroke-width="1.875" d="M10.817.012C8.55.22 3.674.785.956 2.003c0 0-1.554.911-.178 1.94" transform="translate(-191 -1152) translate(193 1153) translate(8.446 11.196) translate(69.595 112.5)"/>
                    </g>
                    <g>
                        <path fill="#000" d="M.074.234c2.265.235 7.132.86 9.835 2.112 0 0 3.263 1.968-3.98 3.292" transform="translate(-191 -1152) translate(193 1153) translate(8.446 11.196) translate(88.176 112.162)"/>
                        <path stroke="#D1A448" stroke-linecap="round" stroke-linejoin="round" stroke-width="1.875" d="M.074.234c2.265.235 7.132.86 9.835 2.112 0 0 3.263 1.968-3.98 3.292" transform="translate(-191 -1152) translate(193 1153) translate(8.446 11.196) translate(88.176 112.162)"/>
                    </g>
                    <g>
                        <path fill="#000" d="M.277.875C2.45.824 4.812.665 7.22.33" transform="translate(-191 -1152) translate(193 1153) translate(8.446 11.196) translate(86.149 117.568)"/>
                        <path stroke="#D1A448" stroke-linecap="round" stroke-linejoin="round" stroke-width="1.875" d="M.277.875C2.45.824 4.812.665 7.22.33" transform="translate(-191 -1152) translate(193 1153) translate(8.446 11.196) translate(86.149 117.568)"/>
                    </g>
                    <path stroke="#D1A448" stroke-linecap="round" stroke-linejoin="round" stroke-width="1.875" d="M69.804 115.041s-1.39.74-.74 2.01M98.796 115.047s1.39.74.739 2.01c-.33.644-1.837 1.344-4.122 1.876M101.818 63.454c0 1.987-7.768 3.597-17.35 3.597-9.584 0-17.352-1.61-17.352-3.597" transform="translate(-191 -1152) translate(193 1153) translate(8.446 11.196)"/>
                    <path fill="#000" d="M84.452 85.98s-.322-2.731 1.291-4.61c0 0 1.246-1.671 3.297-2.34 0 0-.15 2.755-1.13 4.035 0 0-.692 1.36-3.458 2.916" transform="translate(-191 -1152) translate(193 1153) translate(8.446 11.196)"/>
                    <path stroke="#FFF" stroke-linecap="round" stroke-linejoin="round" stroke-width="1.875" d="M84.452 85.98s-.322-2.731 1.291-4.61c0 0 1.246-1.671 3.297-2.34 0 0-.15 2.755-1.13 4.035 0 0-.692 1.36-3.458 2.916z" transform="translate(-191 -1152) translate(193 1153) translate(8.446 11.196)"/>
                    <path fill="#000" d="M84.61 85.943s.323-2.732-1.291-4.61c0 0-1.245-1.672-3.297-2.34 0 0 .15 2.754 1.13 4.033 0 0 .692 1.361 3.458 2.917" transform="translate(-191 -1152) translate(193 1153) translate(8.446 11.196)"/>
                    <path stroke="#FFF" stroke-linecap="round" stroke-linejoin="round" stroke-width="1.875" d="M84.61 85.943s.323-2.732-1.291-4.61c0 0-1.245-1.672-3.297-2.34 0 0 .15 2.754 1.13 4.033 0 0 .692 1.361 3.458 2.917z" transform="translate(-191 -1152) translate(193 1153) translate(8.446 11.196)"/>
                    <path fill="#000" d="M84.58 86.067s1.057-2.54 3.385-3.385c0 0 1.904-.847 4.02-.423 0 0-1.48 2.327-2.962 2.962 0 0-1.27.846-4.444.846" transform="translate(-191 -1152) translate(193 1153) translate(8.446 11.196)"/>
                    <path stroke="#FFF" stroke-linecap="round" stroke-linejoin="round" stroke-width="1.875" d="M84.58 86.067s1.057-2.54 3.385-3.385c0 0 1.904-.847 4.02-.423 0 0-1.48 2.327-2.962 2.962 0 0-1.27.846-4.444.846z" transform="translate(-191 -1152) translate(193 1153) translate(8.446 11.196)"/>
                    <path fill="#000" d="M84.577 86.067s-1.058-2.54-3.386-3.385c0 0-1.904-.847-4.02-.423 0 0 1.481 2.327 2.962 2.962 0 0 1.27.846 4.444.846" transform="translate(-191 -1152) translate(193 1153) translate(8.446 11.196)"/>
                    <path stroke="#FFF" stroke-linecap="round" stroke-linejoin="round" stroke-width="1.875" d="M84.577 86.067s-1.058-2.54-3.386-3.385c0 0-1.904-.847-4.02-.423 0 0 1.481 2.327 2.962 2.962 0 0 1.27.846 4.444.846z" transform="translate(-191 -1152) translate(193 1153) translate(8.446 11.196)"/>
                    <path fill="#000" d="M84.598 85.915s-1.704-2.16-1.312-4.605c0 0 .186-2.076 1.585-3.719 0 0 1.313 2.426 1.148 4.029 0 0 .122 1.521-1.421 4.295" transform="translate(-191 -1152) translate(193 1153) translate(8.446 11.196)"/>
                    <path stroke="#FFF" stroke-linecap="round" stroke-linejoin="round" stroke-width="1.875" d="M84.598 85.915s-1.704-2.16-1.312-4.605c0 0 .186-2.076 1.585-3.719 0 0 1.313 2.426 1.148 4.029 0 0 .122 1.521-1.421 4.295z" transform="translate(-191 -1152) translate(193 1153) translate(8.446 11.196)"/>
                    <g>
                        <path fill="#000" d="M.051.245s1.652 9.81 6.461 14.71" transform="translate(-191 -1152) translate(193 1153) translate(8.446 11.196) translate(68.919 71.96)"/>
                        <path stroke="#D1A448" stroke-linecap="round" stroke-linejoin="round" stroke-width="1.875" d="M.051.245s1.652 9.81 6.461 14.71" transform="translate(-191 -1152) translate(193 1153) translate(8.446 11.196) translate(68.919 71.96)"/>
                    </g>
                    <g>
                        <path fill="#000" d="M.466 2.555S.254 1.285.254.228" transform="translate(-191 -1152) translate(193 1153) translate(8.446 11.196) translate(68.243 67.905)"/>
                        <path stroke="#D1A448" stroke-linecap="round" stroke-linejoin="round" stroke-width="1.875" d="M.466 2.555S.254 1.285.254.228" transform="translate(-191 -1152) translate(193 1153) translate(8.446 11.196) translate(68.243 67.905)"/>
                    </g>
                    <g>
                        <path fill="#000" d="M0.34 0.573L0.34 0.361" transform="translate(-191 -1152) translate(193 1153) translate(8.446 11.196) translate(68.581 70.946)"/>
                        <path stroke="#D1A448" stroke-linecap="round" stroke-linejoin="round" stroke-width="1.875" d="M0.34 0.573L0.34 0.361" transform="translate(-191 -1152) translate(193 1153) translate(8.446 11.196) translate(68.581 70.946)"/>
                    </g>
                    <g>
                        <path fill="#000" d="M0.471 0.194L0.471 8.928" transform="translate(-191 -1152) translate(193 1153) translate(8.446 11.196) translate(86.149 92.568)"/>
                        <path stroke="#D1A448" stroke-linecap="round" stroke-linejoin="round" stroke-width="1.875" d="M0.471 0.194L0.471 8.928" transform="translate(-191 -1152) translate(193 1153) translate(8.446 11.196) translate(86.149 92.568)"/>
                    </g>
                    <g>
                        <path fill="#000" d="M.2 1.157S1.85-1.246 5.66.93c3.808 2.177 3.944 14.826 3.944 14.826s-.656.612-1.654.273c0 0-.726-10.27-3.039-13.127 0 0-.816-1.525-2.72-.83" transform="translate(-191 -1152) translate(193 1153) translate(8.446 11.196) translate(67.23 44.932)"/>
                        <path stroke="#44E7D9" stroke-linecap="round" stroke-linejoin="round" stroke-width="1.875" d="M.2 1.157S1.85-1.246 5.66.93c3.808 2.177 3.944 14.826 3.944 14.826s-.656.612-1.654.273c0 0-.726-10.27-3.039-13.127 0 0-.816-1.525-2.72-.83" transform="translate(-191 -1152) translate(193 1153) translate(8.446 11.196) translate(67.23 44.932)"/>
                    </g>
                    <g>
                        <path fill="#000" d="M19.653 17.63s.68-6.834-1.088-11.595c-1.768-4.76-6.959-8.387-13.194-3.4-1.112.889-3.06 3.751-3.713 8.098C-2.66 39.483 2.99 133.17 4.202 150.354c.125 1.77.202 2.728.217 2.72 0 0-.534 1.022 1.365.58 0 0-6.226-111.236-2.284-140.976.54-4.077 2.152-6.761 3.072-7.595 5.16-4.676 9.455-1.276 10.918 3.19 1.464 4.464.901 9.224.901 9.224" transform="translate(-191 -1152) translate(193 1153) translate(8.446 11.196) translate(54.392 44.608)"/>
                        <path stroke="#44E7D9" stroke-linecap="round" stroke-linejoin="round" stroke-width="1.875" d="M19.653 17.63s.68-6.834-1.088-11.595c-1.768-4.76-6.959-8.387-13.194-3.4-1.112.889-3.06 3.751-3.713 8.098C-2.66 39.483 2.99 133.17 4.202 150.354c.125 1.77.202 2.728.217 2.72 0 0-.534 1.022 1.365.58 0 0-6.226-111.236-2.284-140.976.54-4.077 2.152-6.761 3.072-7.595 5.16-4.676 9.455-1.276 10.918 3.19 1.464 4.464.901 9.224.901 9.224" transform="translate(-191 -1152) translate(193 1153) translate(8.446 11.196) translate(54.392 44.608)"/>
                    </g>
                    <g>
                        <path fill="#000" d="M9.827.583S5.14-.7 2.829 2.428C.516 5.557.109 15.486.109 15.486s.68.273 1.223.137" transform="translate(-191 -1152) translate(193 1153) translate(8.446 11.196) translate(91.892 45.27)"/>
                        <path stroke="#44E7D9" stroke-linecap="round" stroke-linejoin="round" stroke-width="1.875" d="M9.827.583S5.14-.7 2.829 2.428C.516 5.557.109 15.486.109 15.486s.68.273 1.223.137" transform="translate(-191 -1152) translate(193 1153) translate(8.446 11.196) translate(91.892 45.27)"/>
                    </g>
                    <path stroke="#FFF" stroke-linecap="round" stroke-linejoin="round" stroke-width="1.875" d="M135.248 134.602s-19.81.737-22.666 1.198M102.759 134.525L109.234 135.462M101.894 134.602s-11.425-.553-18.427-2.488c-7.002-1.935-15.571-3.778-15.571-3.778s-7.837-2.635-9.695-2.466M54.444 124.65s-5.098-1.258-6.941-2.456-3.655-2.887-5.682-3.9M38.274 113.548s.184-1.842 3.04-1.382c2.857.461 10.197 3.532 11.579 4.638 0 0 1.43-.113 1.933 0M58.452 117.326s4.444.362 6.276 1.748M115.945 120.09L113.181 119.077" transform="translate(-191 -1152) translate(193 1153) translate(8.446 11.196)"/>
                    <g>
                        <path fill="#000" d="M9.875 4.975s1.955-1.347-.348-2.637C7.223 1.048 7.31.983 4.687.508c0 0-2.716-.842-4.558 1.093l9.213 3.41s2.08.186 3.594.645c2.28.69 5.802 2.647 9.305 3.408 3.321.722 7.371 3.778 7.371 3.778" transform="translate(-191 -1152) translate(193 1153) translate(8.446 11.196) translate(63.851 117.568)"/>
                        <path stroke="#FFF" stroke-linecap="round" stroke-linejoin="round" stroke-width="1.875" d="M9.875 4.975s1.955-1.347-.348-2.637C7.223 1.048 7.31.983 4.687.508c0 0-2.716-.842-4.558 1.093l9.213 3.41s2.08.186 3.594.645c2.28.69 5.802 2.647 9.305 3.408 3.321.722 7.371 3.778 7.371 3.778" transform="translate(-191 -1152) translate(193 1153) translate(8.446 11.196) translate(63.851 117.568)"/>
                    </g>
                    <path stroke="#FFF" stroke-linecap="round" stroke-linejoin="round" stroke-width="1.875" d="M96.228 112.811l5.989.738s2.14.409 3.132.368c0 0 3.133.184 4.792.83M55.135 125.803s-4.33-.46-5.252-.83c-.921-.368-8.2-3.777-8.568-3.962-.369-.184-4.884-3.132-4.884-3.132M35.97 117.695s.223-1.533-2.58-3.04c-2.795-1.505-4.192-2.395-5.251-2.028l7.831 5.068zM31.732 113.456s.83-2.21 3.594-1.842c2.763.368 3.557.93 3.557.93M41.59 117.879s1.199-.46.185-1.566c-1.013-1.106-3.87-3.317-6.08-3.225l5.896 4.79zM42.144 112.074s2.119-1.935 7.186-.46c5.068 1.474 5.528 1.842 5.528 1.842M57.53 113.733s5.068 1.105 6.45 1.474M52.773 112.667s.703-1.146 2.085-.87M68.963 114.295c-1.42-.328-2.649-.562-2.649-.562l-1.823-.277-6.96-1.197M68.589 115.952c-1.738-.248-3.442-.254-3.442-.254M112.92 115.438s5.697 2.257 6.71 2.349M120.644 117.787s9.03.184 10.872 0M132.714 117.787s7.832 2.856 5.528 11.886c0 0-1.198 3.316-2.58 4.514M81.762 118.524s-3.04-1.843-5.528-1.935c-2.488-.092-4.515-.83-7.463.737l-.921.46M82.223 118.155c1.474-.091 2.764.369 8.661.922 5.897.552 9.981-.614 9.981-.614s2.775-.87 3.789-.87" transform="translate(-191 -1152) translate(193 1153) translate(8.446 11.196)"/>
                    <g>
                        <path fill="#000" d="M.262 2.39S1.613.701 1.613.025" transform="translate(-191 -1152) translate(193 1153) translate(8.446 11.196) translate(80.743 122.635)"/>
                        <path stroke="#FFF" stroke-linecap="round" stroke-linejoin="round" stroke-width="1.875" d="M.262 2.39S1.613.701 1.613.025" transform="translate(-191 -1152) translate(193 1153) translate(8.446 11.196) translate(80.743 122.635)"/>
                    </g>
                    <g>
                        <path fill="#000" d="M.006 1.236S.6.7.937.026" transform="translate(-191 -1152) translate(193 1153) translate(8.446 11.196) translate(82.095 123.986)"/>
                        <path stroke="#FFF" stroke-linecap="round" stroke-linejoin="round" stroke-width="1.875" d="M.006 1.236S.6.7.937.026" transform="translate(-191 -1152) translate(193 1153) translate(8.446 11.196) translate(82.095 123.986)"/>
                    </g>
                    <g>
                        <path fill="#000" d="M.008 2.095s.93-1.056.93-2.07" transform="translate(-191 -1152) translate(193 1153) translate(8.446 11.196) translate(83.108 123.649)"/>
                        <path stroke="#FFF" stroke-linecap="round" stroke-linejoin="round" stroke-width="1.875" d="M.008 2.095s.93-1.056.93-2.07" transform="translate(-191 -1152) translate(193 1153) translate(8.446 11.196) translate(83.108 123.649)"/>
                    </g>
                    <g>
                        <path fill="#000" d="M1.636 17.616s-.563-4.794.9-9.29C4 3.83 8.295.405 13.454 5.114c.92.84 2.533 3.544 3.073 7.649 3.941 29.95-2.285 141.969-2.285 141.969s.805 1.332 1.365-.583c.16.083 7.525-111.41 2.762-143.345-.653-4.378-2.602-7.26-3.714-8.156C8.421-2.372 3.23 1.278 1.461 6.073-.307 10.867.373 17.75.373 17.75" transform="translate(-191 -1152) translate(193 1153) translate(8.446 11.196) translate(93.243 44.608)"/>
                        <path stroke="#44E7D9" stroke-linecap="round" stroke-linejoin="round" stroke-width="1.875" d="M1.636 17.616s-.563-4.794.9-9.29C4 3.83 8.295.405 13.454 5.114c.92.84 2.533 3.544 3.073 7.649 3.941 29.95-2.285 141.969-2.285 141.969s.805 1.332 1.365-.583c.16.083 7.525-111.41 2.762-143.345-.653-4.378-2.602-7.26-3.714-8.156C8.421-2.372 3.23 1.278 1.461 6.073-.307 10.867.373 17.75.373 17.75" transform="translate(-191 -1152) translate(193 1153) translate(8.446 11.196) translate(93.243 44.608)"/>
                    </g>
                </g>
            </g>
        </g>
    </g>
</svg>
