<svg xmlns="http://www.w3.org/2000/svg" width="191" height="269" viewBox="0 0 191 269"><title>Туз Пентаклей</title>
    <g fill="none" fill-rule="evenodd">
        <g>
            <g>
                <path fill="#182018" stroke="#FFF" stroke-linecap="round" stroke-linejoin="round" stroke-width="2.5" d="M177.475 265.764H9.605c-5.212 0-9.436-4.225-9.436-9.436V10C.169 4.789 4.393.564 9.604.564h167.871c5.211 0 9.435 4.225 9.435 9.436v246.328c0 5.211-4.224 9.436-9.435 9.436z" transform="translate(-188 -2705) translate(190 2706)"/>
                <path fill="#44E7D9" fill-rule="nonzero" d="M58.413 253.883l.73-3.16h3.08l.729 3.16h.842l-2.528-10.796h-1.167l-2.53 10.796h.844zm3.647-3.89h-2.756l1.378-5.982 1.378 5.982zm5.852 3.971c.702 0 1.324-.086 1.864-.26v-.761c-.616.184-1.259.275-1.929.275-.67 0-1.148-.121-1.435-.364-.286-.243-.43-.603-.43-1.078v-6.582c0-.475.144-.834.43-1.078.287-.243.76-.364 1.419-.364s1.297.092 1.913.275v-.762c-.606-.173-1.216-.259-1.832-.259-1.827 0-2.74.73-2.74 2.188v6.582c0 1.459.913 2.188 2.74 2.188zm8.202-.08v-.73h-3.663v-4.345h3.193v-.73h-3.193v-4.263h3.663v-.729H71.64v10.796h4.474zm7.36.161c.853 0 1.496-.23 1.929-.689.432-.46.648-1.056.648-1.791v-6.16c0-.735-.216-1.332-.648-1.791-.433-.46-1.076-.69-1.93-.69-.853 0-1.496.23-1.928.69-.433.46-.649 1.056-.649 1.791v6.16c0 .735.216 1.332.649 1.791.432.46 1.075.69 1.929.69zm0-.73c-1.178 0-1.767-.583-1.767-1.75v-6.16c0-1.167.589-1.75 1.767-1.75s1.767.583 1.767 1.75v6.16c0 1.167-.59 1.75-1.767 1.75zm5.657.568v-4.912h3.372v-.73H89.13v-4.425h3.518v-.729H88.32v10.796h.81zm12.612 0v-.73h-3.664v-4.344h3.194v-.73h-3.194v-4.263h3.664v-.729h-4.474v10.796h4.474zm1.815 0l.73-3.16h3.08l.73 3.16h.842l-2.529-10.796h-1.167l-2.529 10.796h.843zm3.647-3.89h-2.755l1.378-5.982 1.377 5.982zm4.085 3.89v-4.458l1.731-.002c.096-.002.173-.007.23-.014l1.606 4.474h.891l-1.702-4.652c.93-.346 1.394-1.092 1.394-2.237v-1.475c0-.735-.216-1.324-.648-1.767-.432-.443-1.075-.665-1.93-.665h-2.382v10.796h.81zm1.573-5.22h-1.573v-4.847h1.573c1.178 0 1.767.568 1.767 1.703v1.475c0 1.113-.59 1.67-1.767 1.67zm6.808 5.22v-10.067h2.14v-.729h-5.09v.73h2.14v10.066h.81zm4.328 0v-4.928h3.794v4.928h.826v-10.796h-.826v5.139h-3.794v-5.139h-.81v10.796h.81z" transform="translate(-188 -2705) translate(190 2706)"/>
                <g>
                    <path stroke="#FFF" stroke-linecap="round" stroke-linejoin="round" stroke-width="1.875" d="M153.937 239.564L132.099 239.564M5.776 14.799L5.776 239.564 37.17 239.564" transform="translate(-188 -2705) translate(190 2706) translate(8.43 11.356)"/>
                    <path stroke="#D1A448" stroke-linecap="round" stroke-linejoin="round" stroke-width="1.875" d="M5.503 9.093L2.886 4.559 0.268 0.025 5.503 0.025 10.739 0.025 8.121 4.559z" transform="translate(-188 -2705) translate(190 2706) translate(8.43 11.356)"/>
                    <g>
                        <path fill="#000" d="M10.731 0.496L0.276 0.496" transform="translate(-188 -2705) translate(190 2706) translate(8.43 11.356) translate(0 4.721)"/>
                        <path stroke="#D1A448" stroke-linecap="round" stroke-linejoin="round" stroke-width="1.875" d="M10.731 0.496L0.276 0.496" transform="translate(-188 -2705) translate(190 2706) translate(8.43 11.356) translate(0 4.721)"/>
                    </g>
                    <path stroke="#D1A448" stroke-linecap="round" stroke-linejoin="round" stroke-width="1.875" d="M164.152 234.015L166.77 238.549 169.387 243.083 164.152 243.083 158.917 243.083 161.535 238.549z" transform="translate(-188 -2705) translate(190 2706) translate(8.43 11.356)"/>
                    <g>
                        <path fill="#000" d="M0.09 0.482L10.544 0.482" transform="translate(-188 -2705) translate(190 2706) translate(8.43 11.356) translate(158.835 237.41)"/>
                        <path stroke="#D1A448" stroke-linecap="round" stroke-linejoin="round" stroke-width="1.875" d="M0.09 0.482L10.544 0.482" transform="translate(-188 -2705) translate(190 2706) translate(8.43 11.356) translate(158.835 237.41)"/>
                    </g>
                    <path stroke="#FFF" stroke-linecap="round" stroke-linejoin="round" stroke-width="1.875" d="M101.087 3.457L165.082 3.457 165.082 226.212M17.245 3.457L69.388 3.457" transform="translate(-188 -2705) translate(190 2706) translate(8.43 11.356)"/>
                </g>
                <path fill="#44E7D9" fill-rule="nonzero" d="M94.09 20.219L94.09 8.989 93.247 8.989 93.247 20.219z" transform="translate(-188 -2705) translate(190 2706)"/>
                <g>
                    <path stroke="#FFF" stroke-linecap="round" stroke-linejoin="round" stroke-width="1.875" d="M30.15 87.096s5.374-.895 9.554-3.881c4.18-2.986 3.135-4.33 8.808-5.524 5.672-1.194 10.15-3.881 14.032-3.881 3.882 0 12.54 2.389 17.914 4.777 5.375 2.389 9.256 3.881 9.256 3.881M90.61 82.469s9.853.298 14.63 3.582c0 0 .896.896.896 2.09M99.866 87.245s7.165 1.493 8.061 2.389c.896.896 1.194 1.195 1.194 2.687 0 1.493-1.194 1.493-1.194 1.493s-9.554-.597-10.748-2.09c0 0 .298-3.583 1.791-4.479" transform="translate(-188 -2705) translate(190 2706) translate(27.653 51.149)"/>
                    <path stroke="#FFF" stroke-linecap="round" stroke-linejoin="round" stroke-width="1.875" d="M97.776 92.023c-3.285-1.194-8.062-.3-8.062-.3s-3.284.3-8.36-.894c-5.075-1.195-9.255-.598-9.255-.598M70.606 89.933s6.867 3.881 8.061 4.478M79.563 93.814s9.256-1.194 11.047-1.791M106.136 86.35s4.18-3.882 6.27-5.972M113.003 79.781s5.075-8.957 9.255-8.957c0 0 2.09-.298 2.389.299" transform="translate(-188 -2705) translate(190 2706) translate(27.653 51.149)"/>
                    <path stroke="#FFF" stroke-linecap="round" stroke-linejoin="round" stroke-width="1.875" d="M123.453 78.288s-2.09-.895-1.493-2.388c.597-1.493 2.09-5.375 5.374-6.867 0 0 1.493-.299 2.09.597l-5.971 8.658zM122.856 79.184l-3.285 5.673s-5.374 6.867-7.165 8.957c-1.792 2.09-5.673 5.972-8.659 6.867-2.986.896-21.796 4.479-21.796 4.479s-3.582 1.493-5.075 0" transform="translate(-188 -2705) translate(190 2706) translate(27.653 51.149)"/>
                    <path stroke="#FFF" stroke-linecap="round" stroke-linejoin="round" stroke-width="1.875" d="M70.009 113.221s2.09.597 5.374 0 6.27-.895 6.27-.895 2.985-1.195 7.464-2.389c4.479-1.194 9.853-3.583 12.838-4.18 0 0 3.285-1.493 4.778-2.687 1.493-1.195 6.568-8.36 8.061-10.45 1.493-2.09 2.514-3.882 2.899-5.374" transform="translate(-188 -2705) translate(190 2706) translate(27.653 51.149)"/>
                    <path stroke="#FFF" stroke-linecap="round" stroke-linejoin="round" stroke-width="1.875" d="M101.956 105.757s-2.09 2.687-3.285 2.687c-1.194 0-11.345 2.687-13.137 3.284-1.791.598-8.658 2.986-9.853 3.285-1.194.298-3.582-.597-3.582-.597s-11.645-3.882-15.825-4.778c-4.18-.895-5.971-1.194-12.241-1.493-6.27-.298-11.943 2.986-11.943 2.986M86.131 86.947s-2.09 2.557-1.045 4.562M87.027 88.44s-.298 1.597-.896 3.187M88.52 88.141s.26 2.404-.915 3.59M104.937 100.197s-2.683-1.008-2.981-4.592M106.136 99.506s-1.493-.317-1.792-1.512M107.214 98.75s-1.676-1.652-1.676-2.846M107.628 97.397s-1.194-1.194-1.194-1.493M115.69 80.975s.896 2.09 2.388 2.986M118.078 85.753s-.895-.598-1.79-1.792M104.941 100.98c.896 1.194 1.493 2.09 1.493 2.09M107.628 102.16s-.597-.583-1.194-1.18M104.941 104.234s-.597-.866-.597-1.762" transform="translate(-188 -2705) translate(190 2706) translate(27.653 51.149)"/>
                    <path stroke="#44E7D9" stroke-linecap="round" stroke-linejoin="round" stroke-width="1.875" d="M9.399 64.554s-2.687-1.791-4.18.299v1.194s-2.389 0-2.687 1.791c0 0-7.166 8.36 3.284 16.123 0 0 8.656 4.355 9.554-2.687 0 0-.298-2.687-2.09-2.389-1.791.3-2.687 3.285 0 2.688" transform="translate(-188 -2705) translate(190 2706) translate(27.653 51.149)"/>
                    <path stroke="#44E7D9" stroke-linecap="round" stroke-linejoin="round" stroke-width="1.875" d="M3.129 69.63s-1.493 1.493-1.792 4.18c-.298 2.687 1.792 5.673 1.792 5.673M4.024 80.378s1.195 2.09 3.882 2.688M10.892 85.753s-1.493.597-.598 1.194c0 0-1.194 1.194.598 2.09 0 0-.598 3.881 3.881 4.777 4.479.896 5.673-2.389 4.777-3.881-.895-1.493-3.284.298-2.09 1.194M15.37 69.63s2.389-.299 2.687.895c.299 1.195-.298 2.39-.298 2.39s1.493-.3 1.493.895c0 0 2.388-2.09 5.374-.299 2.986 1.792 2.986 5.374 1.791 8.062-1.194 2.687-6.867 3.284-6.568-1.195 0 0 .298-2.09 2.09-.895" transform="translate(-188 -2705) translate(190 2706) translate(27.653 51.149)"/>
                    <path stroke="#44E7D9" stroke-linecap="round" stroke-linejoin="round" stroke-width="1.875" d="M18.057 70.526s4.18 2.09 5.673-1.493l.299-1.195s.597 2.986 5.374 2.09c0 0 2.986-1.492 2.389-4.18 0 0 3.582.3 3.88-2.388 0 0 0-.598-.298-.896 0 0 .598-1.194-.597-1.791 0 0-.298-.3-.896 0 0 0 .598-.597 0-1.493-.596-.896-1.492 0-1.492 0s2.985-6.568-1.195-10.45c-4.18-3.882-7.464-2.389-7.464-2.389s0-2.388-2.388-2.687c-2.39-.298-3.285 0-3.882.597 0 0-1.194-1.194-3.284-.597s-5.076 2.687-2.09 3.583c0 0 1.493 0 1.194-1.194M30.527 69.597s1.862.331 1.563 1.525c0 0 2.687-.596 1.493 1.792 0 0 5.076-1.194 5.673 3.583 0 0-.299 2.09-1.791 2.985 0 0 3.663-.52 3.175 3.025M33.882 73.81s3.583-.896 4.18 1.791M27.91 69.033c-2.687 0-3.284-2.687-3.284-2.687M10.295 46.939s-2.688.298-2.688 2.985c0 0-2.687-.298-2.985 2.09 0 0-1.194.896-.598 1.792 0 0-3.582 1.492-2.687 5.075 0 0 .896 2.986 5.076 3.583 0 0-1.322.666.832 1.378" transform="translate(-188 -2705) translate(190 2706) translate(27.653 51.149)"/>
                    <path stroke="#44E7D9" stroke-linecap="round" stroke-linejoin="round" stroke-width="1.875" d="M22.834 50.82s1.792-.597 1.493 1.493c0 0 2.687-1.792 5.076.597 2.389 2.388 0 7.763-3.284 5.374-3.285-2.388 0-3.583.895-2.986M26.716 82.469s2.388 0 2.09 2.09c0 0 1.194 1.194 0 1.79 0 0 2.687 3.285 0 5.674 0 0-2.09 1.493-3.881 0 0 0-1.493 3.881-5.375.597" transform="translate(-188 -2705) translate(190 2706) translate(27.653 51.149)"/>
                    <path stroke="#44E7D9" stroke-linecap="round" stroke-linejoin="round" stroke-width="1.875" d="M24.626 93.515s3.583-.597 3.583 2.688c0 3.284-1.792 2.985-1.792 2.985s3.583-.895 3.882 1.195c0 0 5.075-.896 5.673 3.284.597 4.18-2.09 7.166-5.375 5.971-3.284-1.194.299-4.777 1.493-3.582M6.413 85.156s-4.777 1.492-2.389 5.075c0 0-1.194.597-.597 1.792 0 0-2.388-.299-2.09 4.777.299 5.075 3.583 8.957 10.45 10.45 6.868 1.492 6.27-7.464 2.986-6.868-3.284.598-2.09 2.39-.597 2.39M3.129 93.515s-2.687 4.778 2.687 9.555M9.1 107.548s-.895.598-.895.896c0 0-4.48-.597-3.285 4.479 0 0-4.18 1.79-1.493 7.165 1.68 3.36 4.292 4.736 6.161 4.494 1.121-.146 1.975-.874 2.2-2.105.597-3.284-4.48-1.493-2.688 0M33.517 110.415s2.454.12 2.454 1.91c0 0 1.195-1.493 2.986 0 0 0 3.882-.597 3.285 3.285 0 0 1.791-.299 1.791 1.492 0 0 3.881-.596 3.583 4.18-.299 4.778-5.076 8.958-8.062 6.569-2.985-2.389-.298-5.673.896-4.777M45.824 119.491s1.792 4.479-2.388 6.867M43.436 129.643s2.986 2.687 1.493 5.672c-1.493 2.986-6.569 5.076-8.957 2.389 0 0-.896 1.493-3.285.299-2.388-1.195-1.493-2.986-.597-3.285M37.763 137.107s3.284 1.493 5.374-1.493M43.436 134.42s.895-2.389-1.195-3.882M9.996 125.462s.298 2.39 2.986 1.792c0 0 .597 2.986 4.777 1.194 0 0-1.493 4.479 4.478 3.881 0 0 .299 1.493 1.493.896 0 0 2.389 5.673 7.464.597 0 0 1.792-2.388.896-4.18-.896-1.79-3.881-1.194-3.583 1.195M25.82 133.524s2.389 2.687 4.479-1.194M22.834 113.818s-2.09.896-1.194 2.389c0 0-2.389 4.478 2.389 4.478 0 0 2.09-1.194 0-2.388M8.204 109.937s-2.985.298-1.79 2.986M4.92 115.013s-3.284 3.284 2.389 7.763M31.194 101.278s3.583.233 3.583 2.986M26.417 91.127s2.986.597 2.389-2.986M11.787 89.933s1.792 3.881 5.673 2.687M21.342 80.677s0 1.791 1.791 1.791M19.849 74.706s3.582-1.792 5.673 1.493M4.024 55.298s-2.985 2.09-.895 4.18M10.892 47.834s-2.986.896-2.09 2.986c0 0-3.285-.299-2.986 1.791M26.716 57.388s1.791.896 2.388-1.493M24.626 47.536s4.777-.299 5.971 3.583M14.176 125.462s.896 2.986 3.284.896M18.953 128.448s.298 2.986 3.284 2.389" transform="translate(-188 -2705) translate(190 2706) translate(27.653 51.149)"/>
                    <path stroke="#D1A448" stroke-linecap="round" stroke-linejoin="round" stroke-width="1.875" d="M101.058 84.144c9.749-5.506 16.33-15.964 16.33-27.958 0-17.721-14.365-32.087-32.085-32.087-17.721 0-32.087 14.366-32.087 32.087 0 6.645 2.02 12.818 5.48 17.94" transform="translate(-188 -2705) translate(190 2706) translate(27.653 51.149)"/>
                    <path stroke="#D1A448" stroke-linecap="round" stroke-linejoin="round" stroke-width="1.875" d="M67.767 74.528L85.52 25.53 105.174 79.957 56.171 47.053 114.599 47.053 72.187 75.65" transform="translate(-188 -2705) translate(190 2706) translate(27.653 51.149)"/>
                    <path stroke="#D1A448" stroke-linecap="round" stroke-linejoin="round" stroke-width="1.875" d="M105.539 85.81c9.46-6.466 15.67-17.34 15.67-29.665 0-19.83-16.076-35.906-35.907-35.906-19.83 0-35.906 16.076-35.906 35.906 0 7.201 2.12 13.907 5.77 19.528" transform="translate(-188 -2705) translate(190 2706) translate(27.653 51.149)"/>
                    <path fill="#FFF" d="M47.21 6.087c.175.168.18.445.011.62-.168.173-.445.177-.619.01-.174-.168-.178-.446-.01-.62.168-.173.445-.178.619-.01M41.892 14.275c.216-.224.572-.23.796-.014.223.217.23.572.013.796-.215.224-.572.23-.795.014-.224-.216-.23-.572-.014-.796M57.523 25.168c.223.216.23.572.014.796-.216.224-.573.23-.796.013-.224-.215-.23-.572-.014-.795.216-.224.572-.23.796-.014M58.167 12.132c.298.288.306.763.018 1.061-.288.298-.763.306-1.061.018-.298-.288-.306-.763-.018-1.06.288-.299.763-.307 1.06-.019M70.243.44c.174.169.178.446.01.62-.168.174-.445.178-.619.01-.174-.167-.178-.445-.01-.619.168-.173.445-.178.619-.01M28.323 14.99c.224.216.23.572.014.796-.216.223-.572.23-.796.013-.223-.216-.23-.572-.013-.796.216-.223.572-.23.795-.013M36.97 21.393c.125.12.128.318.008.442-.12.125-.317.128-.442.008-.124-.12-.127-.318-.007-.443.12-.124.318-.127.442-.007M84.075 12.88c.298.288.306.763.018 1.06-.288.299-.763.307-1.061.019-.299-.288-.306-.763-.018-1.06.288-.299.763-.307 1.06-.02M45.037 44.815c.124.12.128.318.008.442s-.318.127-.443.008c-.124-.12-.127-.318-.007-.443.12-.124.318-.127.442-.007M34.38 38.204c.174.168.179.445.01.619-.167.174-.444.178-.618.01-.174-.168-.179-.445-.01-.619.168-.173.444-.178.618-.01M41.981 31.905c.216-.223.572-.23.796-.014.224.216.23.573.014.796-.216.224-.573.23-.796.014-.224-.216-.23-.572-.014-.796M72.562 12.503c.174.168.178.445.01.619-.167.174-.445.178-.618.01-.174-.167-.179-.445-.011-.619.168-.173.445-.178.62-.01M30.694 28.814c.124.12.128.318.008.442-.12.125-.318.128-.443.008-.124-.12-.127-.318-.007-.443.12-.124.318-.127.442-.007M116.647 134.978c-.153-.187-.126-.463.061-.616.187-.153.463-.126.616.06.153.188.126.464-.06.617-.188.153-.463.126-.617-.061M122.875 127.458c-.24.197-.595.162-.792-.078-.197-.24-.163-.595.078-.792.24-.197.595-.162.792.078.197.24.162.595-.078.792M108.605 114.835c-.197-.24-.162-.595.078-.792.24-.198.595-.162.792.078.198.24.162.595-.078.792-.24.197-.595.162-.792-.078M106.462 127.71c-.263-.32-.217-.794.104-1.056.32-.263.793-.216 1.056.104s.216.793-.104 1.056-.794.216-1.056-.104M93.118 137.93c-.154-.187-.126-.463.06-.616.188-.153.464-.126.617.06.153.188.126.464-.061.617-.187.153-.463.126-.616-.061M133.404 93.362c-.197-.24-.162-.595.078-.792.24-.197.596-.162.793.078.197.24.162.595-.079.792-.24.198-.595.163-.792-.078M128.584 120.955c-.11-.133-.09-.33.044-.44.133-.11.33-.09.44.044.11.133.09.33-.044.44-.133.109-.33.09-.44-.044M80.813 123.979c-.263-.32-.216-.794.104-1.057.32-.262.794-.216 1.056.105.263.32.217.793-.104 1.056-.32.263-.793.216-1.056-.104M123.273 96.76c-.11-.134-.09-.33.044-.44.133-.11.33-.09.44.043.11.134.09.33-.044.44-.133.11-.33.09-.44-.044M133.096 104.555c-.153-.186-.126-.462.061-.615.187-.154.463-.126.617.06.153.187.125.463-.062.617-.186.153-.462.126-.616-.062M124.82 109.936c-.24.197-.595.162-.792-.079-.198-.24-.162-.595.078-.792.24-.197.595-.162.792.078.197.24.162.595-.078.793M92.205 125.68c-.153-.186-.126-.462.061-.615.187-.153.463-.126.616.06.153.188.126.463-.06.617-.188.153-.463.126-.617-.061" transform="translate(-188 -2705) translate(190 2706) translate(27.653 51.149)"/>
                </g>
            </g>
        </g>
    </g>
</svg>
