<svg xmlns="http://www.w3.org/2000/svg" width="191" height="269" viewBox="0 0 191 269"><title>Четвёрка Кубков</title>
    <g fill="none" fill-rule="evenodd">
        <g>
            <g>
                <path fill="#152230" stroke="#FFF" stroke-linecap="round" stroke-linejoin="round" stroke-width="2.5" d="M177.795 266.063H9.62c-5.22 0-9.452-4.233-9.452-9.453V9.838C.17 4.617 4.401.385 9.621.385h168.174c5.22 0 9.452 4.232 9.452 9.453V256.61c0 5.22-4.232 9.453-9.452 9.453z" transform="translate(-1081 -1152) translate(1083 1153)"/>
                <path fill="#D1A448" fill-rule="nonzero" d="M54.166 254.12v-4.92h3.377v-.732h-3.377v-4.433h3.523v-.73h-4.335v10.815h.812zm7.486.162c.855 0 1.5-.23 1.932-.69.433-.46.65-1.058.65-1.794v-6.171c0-.737-.217-1.335-.65-1.795-.433-.46-1.077-.69-1.932-.69s-1.5.23-1.933.69c-.433.46-.65 1.058-.65 1.795v6.17c0 .737.217 1.335.65 1.795.433.46 1.078.69 1.933.69zm0-.73c-1.18 0-1.77-.585-1.77-1.754v-6.171c0-1.17.59-1.754 1.77-1.754 1.18 0 1.77.584 1.77 1.754v6.17c0 1.17-.59 1.754-1.77 1.754zm7.356.73c.856 0 1.5-.23 1.933-.69.433-.46.65-1.058.65-1.794v-8.494h-.813v8.494c0 1.169-.59 1.753-1.77 1.753-1.18 0-1.77-.584-1.77-1.753v-8.494h-.812v8.494c0 .736.217 1.334.65 1.794.433.46 1.077.69 1.932.69zm5.75-.162v-4.466h1.574c.174 0 .304-.005.39-.016l1.608 4.482h.893l-1.705-4.66c.93-.347 1.396-1.094 1.396-2.242v-1.478c0-.736-.216-1.326-.65-1.77-.432-.444-1.076-.666-1.932-.666h-2.387v10.816h.812zm1.574-5.23h-1.575v-4.855h1.575c1.18 0 1.77.568 1.77 1.705v1.478c0 1.115-.59 1.673-1.77 1.673zm10.426 5.392c.855 0 1.5-.23 1.933-.69.433-.46.65-1.058.65-1.794v-6.171c0-.737-.217-1.335-.65-1.795-.433-.46-1.078-.69-1.933-.69s-1.5.23-1.932.69c-.433.46-.65 1.058-.65 1.795v6.17c0 .737.217 1.335.65 1.795.433.46 1.077.69 1.932.69zm0-.73c-1.18 0-1.77-.585-1.77-1.754v-6.171c0-1.17.59-1.754 1.77-1.754 1.18 0 1.77.584 1.77 1.754v6.17c0 1.17-.59 1.754-1.77 1.754zm5.668.568v-4.92h3.377v-.732h-3.377v-4.433h3.524v-.73h-4.336v10.815h.812zm10.393 0l.99-5.717c.239-1.364.412-2.636.52-3.816.12 1.18.628 4.358 1.527 9.533h1.169l1.884-10.816h-.845c-.898 5.446-1.44 8.808-1.624 10.085l-.422-2.842-1.202-7.243h-.958l-1.201 7.227c-.163.953-.304 1.905-.423 2.858l-.422-2.842-1.202-7.243h-.844l1.884 10.816h1.169zm7.665 0l.73-3.167h3.086l.731 3.167h.844l-2.533-10.816h-1.17l-2.532 10.816h.844zm3.654-3.898h-2.76l1.38-5.992 1.38 5.992zm5.18 3.898v-10.085h2.144v-.73h-5.1v.73h2.144v10.085h.812zm8.006 0v-.731h-3.67v-4.352h3.2v-.73h-3.2v-4.272h3.67v-.73h-4.482v10.815h4.482zm2.68 0v-4.466h1.575c.173 0 .303-.005.39-.016l1.607 4.482h.894l-1.706-4.66c.932-.347 1.397-1.094 1.397-2.242v-1.478c0-.736-.216-1.326-.65-1.77-.433-.444-1.077-.666-1.932-.666h-2.387v10.816h.812zm1.575-5.23h-1.575v-4.855h1.575c1.18 0 1.77.568 1.77 1.705v1.478c0 1.115-.59 1.673-1.77 1.673z" transform="translate(-1081 -1152) translate(1083 1153)"/>
                <g stroke="#FFF" stroke-linecap="round" stroke-linejoin="round" stroke-width="1.875">
                    <path d="M92.083.496L158.54.496 158.54 223.652M10.436.496L66.852.496M148.471 236.617L126.594 236.617M31.156 236.617L.043 236.617.043 11.447" transform="translate(-1081 -1152) translate(1083 1153) translate(14.19 14.574)"/>
                </g>
                <path fill="#D1A448" fill-rule="nonzero" d="M90.85 19.102V8.287h-.812v10.815h.812zm5.067 0l2.436-10.815h-.845c-1.267 5.716-1.992 9.034-2.176 9.954-.152-.736-.877-4.054-2.176-9.954h-.845l2.436 10.815h1.17z" transform="translate(-1081 -1152) translate(1083 1153)"/>
                <g>
                    <path fill="#000" d="M164.444 233.846L167.067 238.388 169.689 242.931 164.444 242.931 159.2 242.931 161.822 238.388z" transform="translate(-1081 -1152) translate(1083 1153) translate(8.446 11.196)"/>
                    <path stroke="#44E7D9" stroke-linecap="round" stroke-linejoin="round" stroke-width="1.875" d="M164.444 233.846L167.067 238.388 169.689 242.931 164.444 242.931 159.2 242.931 161.822 238.388z" transform="translate(-1081 -1152) translate(1083 1153) translate(8.446 11.196)"/>
                    <path fill="#000" d="M5.572 9.11L2.95 4.567 0.328 0.025 5.572 0.025 10.817 0.025 8.195 4.567z" transform="translate(-1081 -1152) translate(1083 1153) translate(8.446 11.196)"/>
                    <path stroke="#44E7D9" stroke-linecap="round" stroke-linejoin="round" stroke-width="1.875" d="M5.572 9.11L2.95 4.567 0.328 0.025 5.572 0.025 10.817 0.025 8.195 4.567z" transform="translate(-1081 -1152) translate(1083 1153) translate(8.446 11.196)"/>
                    <path stroke="#44E7D9" stroke-width="1.875" d="M77.612 48.578L76.381 48.578M26.102 61.21s-2.267-1.512-3.527.252v1.007s-2.015 0-2.267 1.512c0 0-6.045 7.053 2.771 13.602 0 0 7.303 3.674 8.06-2.267 0 0-.251-2.267-1.763-2.015-1.51.252-2.267 2.77 0 2.267" transform="translate(-1081 -1152) translate(1083 1153) translate(8.446 11.196)"/>
                    <path stroke="#44E7D9" stroke-width="1.875" d="M20.812 65.492s-1.26 1.26-1.511 3.527c-.252 2.267 1.511 4.785 1.511 4.785M21.568 74.56s1.007 1.764 3.274 2.267M27.361 79.095s-1.26.503-.503 1.007c0 0-1.008 1.008.503 1.763 0 0-.503 3.275 3.275 4.03 3.778.756 4.786-2.015 4.03-3.274-.755-1.26-2.77.252-1.763 1.008M31.14 65.492s2.015-.252 2.267.756c.251 1.008-.252 2.015-.252 2.015s1.26-.252 1.26.756c0 0 2.014-1.763 4.533-.252 2.52 1.511 2.52 4.534 1.512 6.801-1.008 2.267-5.794 2.77-5.542-1.007 0 0 .252-1.764 1.763-.757" transform="translate(-1081 -1152) translate(1083 1153) translate(8.446 11.196)"/>
                    <path stroke="#44E7D9" stroke-width="1.875" d="M33.407 66.248s3.526 1.763 4.786-1.26l.252-1.007s.503 2.519 4.534 1.763c0 0 2.519-1.26 2.015-3.527 0 0 3.023.252 3.275-2.015 0 0 0-.503-.252-.756 0 0 .503-1.007-.504-1.51 0 0-.252-.253-.756 0 0 0 .504-.505 0-1.26-.504-.756-1.26 0-1.26 0s2.52-5.542-1.007-8.817c-3.526-3.274-6.297-2.015-6.297-2.015s0-2.015-2.016-2.266c-2.015-.253-2.77 0-3.274.503 0 0-1.008-1.007-2.77-.503-1.764.503-4.283 2.266-1.764 3.022 0 0 1.26 0 1.007-1.008M43.927 65.464s1.57.28 1.319 1.288c0 0 2.267-.504 1.26 1.51 0 0 4.282-1.006 4.785 3.024 0 0-.252 1.763-1.511 2.518 0 0 3.09-.438 2.679 2.552M46.757 69.019s3.023-.756 3.527 1.511M41.72 64.988c-2.268 0-2.772-2.267-2.772-2.267M26.858 46.348s-2.268.252-2.268 2.519c0 0-2.267-.252-2.519 1.764 0 0-1.007.755-.503 1.51 0 0-3.023 1.26-2.267 4.283 0 0 .755 2.519 4.282 3.022 0 0-1.116.562.702 1.163" transform="translate(-1081 -1152) translate(1083 1153) translate(8.446 11.196)"/>
                    <path stroke="#44E7D9" stroke-width="1.875" d="M37.437 49.623s1.512-.504 1.26 1.26c0 0 2.266-1.512 4.282.503 2.015 2.015 0 6.549-2.771 4.534-2.77-2.015 0-3.023.755-2.519M23.583 78.59s-4.03 1.26-2.015 4.283c0 0-1.008.504-.504 1.511 0 0-2.015-.252-1.763 4.03.251 4.283 3.022 7.557 8.816 8.817 5.793 1.26 5.29-6.298 2.519-5.794-2.77.504-1.763 2.015-.504 2.015M20.812 85.644s-2.267 4.03 2.267 8.06M25.85 97.483s-.756.503-.756.755c0 0-3.778-.503-2.77 3.779 0 0-3.527 1.511-1.26 6.045 1.417 2.834 3.621 3.995 5.198 3.79.946-.121 1.666-.736 1.855-1.775.504-2.77-3.779-1.259-2.267 0M46.45 99.901s2.07.1 2.07 1.612c0 0 1.008-1.26 2.52 0 0 0 3.274-.504 2.77 2.771 0 0 1.512-.252 1.512 1.26 0 0 3.274-.505 3.022 3.526-.252 4.03-4.282 7.557-6.8 5.541-2.52-2.015-.253-4.785.755-4.03M54.818 116.123s2.519 2.267 1.26 4.786c-1.26 2.519-5.543 4.282-7.558 2.015 0 0-.755 1.26-2.77.252-2.016-1.008-1.26-2.52-.504-2.77M50.032 122.42s2.77 1.26 4.534-1.26M26.605 112.596s.253 2.015 2.52 1.512c0 0 .503 2.519 4.03 1.007 0 0-1.26 3.779 3.778 3.275 0 0 .252 1.26 1.26.756 0 0 2.015 4.786 6.297.503 0 0 1.511-2.015.756-3.526-.756-1.512-3.275-1.008-3.023 1.007M39.956 119.398s2.015 2.266 3.779-1.008M37.437 102.773s-1.763.755-1.007 2.015c0 0-2.016 3.778 2.015 3.778 0 0 1.763-1.008 0-2.015M25.094 99.498s-2.519.252-1.511 2.519M22.323 103.78s-2.77 2.77 2.016 6.55M44.49 92.193s3.023.197 3.023 2.519M40.46 83.629s2.519.503 2.015-2.52M28.117 82.621s1.511 3.274 4.786 2.267M36.177 74.812s0 1.512 1.512 1.512M34.918 69.774s3.023-1.511 4.786 1.26M21.568 53.401s-2.52 1.764-.756 3.526M27.361 47.104s-2.519.755-1.763 2.519c0 0-2.77-.252-2.52 1.511M40.712 55.165s1.511.755 2.015-1.26M38.948 46.852s4.03-.252 5.038 3.022M30.132 112.596s.756 2.52 2.77.756M34.162 115.115s.252 2.52 2.771 2.015" transform="translate(-1081 -1152) translate(1083 1153) translate(8.446 11.196)"/>
                    <path stroke="#D1A448" stroke-width="1.875" d="M74.608 168.596c.693 11.85-3.884 20.787-11.32 21.054-7.35.264-12.198-8.73-11.597-20.902M60.942 189.295L60.986 195.966M65.493 189.264L65.537 195.936M63.37 196.59c-1.386.01-2.079-.124-2.636-.536 0 0-.687.697.01 1.385 0 0 .833.41 2.356.4M61.025 198.112l.039 5.816s.558.689 2.358.676c1.8-.011 2.211-.707 2.211-.707l-.039-5.815M62.078 189.797L62.121 196.305M62.133 198.105L62.173 204.197M63.741 190.062L63.78 196.017M63.797 198.509L63.815 201.14M63.819 201.832L63.835 204.186M65.126 190.054L65.16 195.177M65.182 198.5L65.218 203.9" transform="translate(-1081 -1152) translate(1083 1153) translate(8.446 11.196)"/>
                    <path stroke="#D1A448" stroke-width="1.875" d="M63.103 196.593c1.384-.01 2.076-.152 2.627-.572 0 0 .697.688.009 1.385 0 0-.828.42-2.351.431M74.539 168.666c.008 1.3-5.068 2.388-11.339 2.429-6.27.041-11.361-.979-11.37-2.279-.008-1.3 5.068-2.387 11.339-2.429 6.27-.041 11.361.979 11.37 2.28zM60.684 202.923c-1.483.146-4.671.537-6.445 1.346 0 0-2.143 1.276 2.591 2.169M65.812 202.814c1.483.143 4.671.532 6.445 1.339 0 0 2.144 1.273-2.59 2.171M57.684 206.467s5.543.795 11.502-.076" transform="translate(-1081 -1152) translate(1083 1153) translate(8.446 11.196)"/>
                    <path stroke="#D1A448" stroke-width="1.875" d="M53.753 204.624s-.907.49-.475 1.319c.431.828 3.846 1.774 8.248 1.745M64.993 207.669c4.402-.03 7.804-1.021 8.225-1.855.42-.834-.493-1.312-.493-1.312M61.952 207.685s1.604.048 2.698-.017M74.48 170.727c.008 1.3-5.069 2.388-11.34 2.43-6.27.041-11.36-.979-11.37-2.28M63.213 185.544s-.223-1.786.825-3.022c0 0 .807-1.1 2.147-1.546 0 0-.086 1.803-.722 2.645 0 0-.447.893-2.25 1.923z" transform="translate(-1081 -1152) translate(1083 1153) translate(8.446 11.196)"/>
                    <path stroke="#D1A448" stroke-width="1.875" d="M63.316 185.518s.2-1.789-.865-3.011c0 0-.822-1.089-2.168-1.517 0 0 .11 1.802.757 2.635 0 0 .459.887 2.276 1.893zM63.296 185.6s.682-1.666 2.201-2.23c0 0 1.242-.562 2.63-.294 0 0-.96 1.53-1.926 1.951 0 0-.828.56-2.905.573z" transform="translate(-1081 -1152) translate(1083 1153) translate(8.446 11.196)"/>
                    <path stroke="#D1A448" stroke-width="1.875" d="M63.295 185.6s-.704-1.657-2.23-2.2c0 0-1.25-.546-2.633-.26 0 0 .98 1.517 1.951 1.925 0 0 .835.55 2.912.535z" transform="translate(-1081 -1152) translate(1083 1153) translate(8.446 11.196)"/>
                    <path stroke="#D1A448" stroke-width="1.875" d="M63.308 185.5s-1.125-1.405-.879-3.007c0 0 .113-1.36 1.022-2.441 0 0 .87 1.582.768 2.632 0 0 .087.994-.911 2.816zM53.022 176.596s1.123 6.412 4.291 9.598M52.843 175.457s-.144-.83-.148-1.523M52.987 176.148L52.986 176.01" transform="translate(-1081 -1152) translate(1083 1153) translate(8.446 11.196)"/>
                    <path stroke="#44E7D9" stroke-width="1.875" d="M66.14 170.796s-1.45-.09-1.112-.592c.337-.502-.004-.5-.685-.496-.682.005-1.788.212-.935.406 0 0 .725.233.517.731M53.113 169.734s4.315-2.16 7.979-2.083M61.774 167.646L63.35 167.636M63.872 167.632s6.362-.054 9.424 1.881" transform="translate(-1081 -1152) translate(1083 1153) translate(8.446 11.196)"/>
                    <path stroke="#44E7D9" stroke-width="1.875" d="M59.81 170.826s.319-.64-.787-.432c-1.106.207-1.156-.843.379-.653 1.535.19 3.238.079 2.978-.52-.26-.598-1.874.013-1.792-.487.082-.5 1.446-.41 2.212-.415.767-.005 1.871-.512 2.982-.02 1.11.493-1.19.408-.42.903.77.495 2.297-.415 2.725-.118.428.297-.591.704-.76 1.005-.168.3.873.438.873.438" transform="translate(-1081 -1152) translate(1083 1153) translate(8.446 11.196)"/>
                    <path stroke="#D1A448" stroke-width="1.875" d="M113.135 141.57c.693 11.848-3.884 20.786-11.32 21.053-7.35.264-12.198-8.73-11.597-20.902M99.469 162.268L99.513 168.939M104.02 162.237L104.064 168.909M101.896 169.564c-1.385.009-2.078-.125-2.635-.537 0 0-.687.697.01 1.385 0 0 .833.41 2.356.4M99.552 171.085l.039 5.816s.558.689 2.358.676c1.8-.011 2.211-.707 2.211-.707l-.039-5.815M100.605 162.769L100.648 169.278M100.66 171.078L100.7 177.17M102.268 163.035L102.307 168.99M102.324 171.482L102.342 174.113M102.346 174.805L102.362 177.159M103.653 163.027L103.687 168.149M103.709 171.473L103.745 176.873" transform="translate(-1081 -1152) translate(1083 1153) translate(8.446 11.196)"/>
                    <path stroke="#D1A448" stroke-width="1.875" d="M101.63 169.566c1.384-.01 2.076-.153 2.627-.572 0 0 .697.688.009 1.385 0 0-.828.42-2.351.431M113.066 141.64c.008 1.3-5.068 2.387-11.339 2.428-6.27.041-11.361-.979-11.37-2.279-.008-1.3 5.068-2.387 11.339-2.429 6.27-.041 11.361.979 11.37 2.28zM99.21 175.896c-1.482.146-4.67.537-6.444 1.346 0 0-2.143 1.276 2.591 2.169M104.34 175.786c1.482.144 4.67.533 6.444 1.34 0 0 2.144 1.273-2.59 2.171M96.21 179.44s5.544.795 11.503-.076" transform="translate(-1081 -1152) translate(1083 1153) translate(8.446 11.196)"/>
                    <path stroke="#D1A448" stroke-width="1.875" d="M92.28 177.597s-.907.49-.475 1.319c.431.828 3.846 1.774 8.248 1.745M103.52 180.642c4.402-.03 7.804-1.021 8.225-1.855.42-.834-.493-1.312-.493-1.312M100.48 180.658s1.603.048 2.697-.017M113.006 143.7c.009 1.3-5.068 2.388-11.339 2.43-6.27.041-11.36-.979-11.37-2.28M101.74 158.517s-.223-1.786.825-3.022c0 0 .807-1.1 2.147-1.546 0 0-.086 1.803-.722 2.645 0 0-.447.893-2.25 1.923z" transform="translate(-1081 -1152) translate(1083 1153) translate(8.446 11.196)"/>
                    <path stroke="#D1A448" stroke-width="1.875" d="M101.843 158.491s.2-1.789-.865-3.011c0 0-.822-1.089-2.168-1.517 0 0 .11 1.802.757 2.635 0 0 .459.887 2.276 1.893zM101.823 158.573s.682-1.666 2.201-2.23c0 0 1.242-.562 2.63-.294 0 0-.96 1.53-1.926 1.951 0 0-.828.56-2.905.573z" transform="translate(-1081 -1152) translate(1083 1153) translate(8.446 11.196)"/>
                    <path stroke="#D1A448" stroke-width="1.875" d="M101.822 158.573s-.703-1.657-2.23-2.2c0 0-1.25-.546-2.633-.26 0 0 .98 1.517 1.951 1.925 0 0 .835.55 2.912.535z" transform="translate(-1081 -1152) translate(1083 1153) translate(8.446 11.196)"/>
                    <path stroke="#D1A448" stroke-width="1.875" d="M101.835 158.473s-1.125-1.405-.879-3.007c0 0 .113-1.36 1.022-2.441 0 0 .87 1.582.768 2.632 0 0 .087.994-.911 2.816zM91.549 149.57s1.123 6.411 4.291 9.597M91.37 148.43s-.144-.83-.148-1.523M91.514 149.121L91.513 148.983" transform="translate(-1081 -1152) translate(1083 1153) translate(8.446 11.196)"/>
                    <path stroke="#44E7D9" stroke-width="1.875" d="M104.666 143.77s-1.448-.091-1.111-.593c.337-.502-.003-.5-.685-.496-.682.005-1.788.212-.934.406 0 0 .724.233.516.731M91.64 142.707s4.315-2.16 7.979-2.083M100.301 140.619L101.877 140.609M102.399 140.605s6.362-.054 9.424 1.881" transform="translate(-1081 -1152) translate(1083 1153) translate(8.446 11.196)"/>
                    <path stroke="#44E7D9" stroke-width="1.875" d="M98.336 143.8s.32-.64-.786-.433c-1.106.207-1.156-.843.379-.653 1.535.19 3.238.079 2.978-.52-.26-.598-1.874.013-1.792-.487.082-.5 1.446-.41 2.213-.415.766-.005 1.87-.512 2.981-.02 1.11.493-1.19.408-.42.903.77.495 2.297-.415 2.725-.118.428.297-.591.704-.76 1.005-.168.3.873.438.873.438" transform="translate(-1081 -1152) translate(1083 1153) translate(8.446 11.196)"/>
                    <path stroke="#D1A448" stroke-width="1.875" d="M150.31 114.542c.694 11.85-3.883 20.787-11.319 21.054-7.35.264-12.198-8.73-11.597-20.902M136.644 135.241L136.689 141.912M141.196 135.21L141.24 141.882M139.072 142.537c-1.385.009-2.078-.125-2.635-.537 0 0-.687.697.01 1.385 0 0 .833.41 2.356.4M136.728 144.058l.038 5.816s.559.689 2.359.676c1.8-.011 2.21-.707 2.21-.707l-.038-5.815M137.781 135.742L137.824 142.251M137.836 144.051L137.876 150.143M139.444 136.008L139.484 141.963M139.5 144.455L139.517 147.086M139.522 147.778L139.538 150.132M140.829 135.999L140.863 141.122M140.885 144.446L140.92 149.846" transform="translate(-1081 -1152) translate(1083 1153) translate(8.446 11.196)"/>
                    <path stroke="#D1A448" stroke-width="1.875" d="M138.805 142.538c1.385-.009 2.077-.152 2.627-.57 0 0 .698.687.01 1.384 0 0-.828.42-2.351.431M150.242 114.612c.008 1.3-5.068 2.388-11.34 2.429-6.27.041-11.36-.979-11.37-2.279-.008-1.3 5.069-2.387 11.34-2.429 6.27-.041 11.361.979 11.37 2.28zM136.387 148.87c-1.483.145-4.671.536-6.445 1.345 0 0-2.143 1.276 2.59 2.169M141.515 148.76c1.483.143 4.67.532 6.445 1.339 0 0 2.143 1.273-2.59 2.171M133.386 152.413s5.544.795 11.503-.076" transform="translate(-1081 -1152) translate(1083 1153) translate(8.446 11.196)"/>
                    <path stroke="#D1A448" stroke-width="1.875" d="M129.456 150.57s-.907.49-.475 1.319c.431.828 3.846 1.774 8.248 1.745M140.696 153.615c4.402-.03 7.804-1.021 8.224-1.855.42-.834-.492-1.312-.492-1.312M137.655 153.631s1.604.048 2.698-.018M150.182 116.673c.008 1.3-5.068 2.388-11.339 2.43-6.27.041-11.361-.979-11.37-2.28M138.915 131.49s-.223-1.786.825-3.023c0 0 .808-1.098 2.148-1.545 0 0-.086 1.803-.722 2.645 0 0-.447.893-2.25 1.923z" transform="translate(-1081 -1152) translate(1083 1153) translate(8.446 11.196)"/>
                    <path stroke="#D1A448" stroke-width="1.875" d="M139.019 131.464s.199-1.789-.865-3.011c0 0-.822-1.089-2.168-1.517 0 0 .11 1.802.757 2.635 0 0 .458.887 2.276 1.893zM138.999 131.546s.681-1.666 2.2-2.23c0 0 1.243-.562 2.63-.294 0 0-.96 1.53-1.926 1.951 0 0-.827.56-2.904.573z" transform="translate(-1081 -1152) translate(1083 1153) translate(8.446 11.196)"/>
                    <path stroke="#D1A448" stroke-width="1.875" d="M138.998 131.546s-.704-1.657-2.23-2.2c0 0-1.25-.546-2.634-.26 0 0 .98 1.517 1.952 1.925 0 0 .835.55 2.912.535z" transform="translate(-1081 -1152) translate(1083 1153) translate(8.446 11.196)"/>
                    <path stroke="#D1A448" stroke-width="1.875" d="M139.01 131.446s-1.124-1.405-.878-3.007c0 0 .113-1.36 1.021-2.441 0 0 .87 1.582.769 2.632 0 0 .086.994-.912 2.816zM128.725 122.542s1.123 6.412 4.291 9.598M128.546 121.403s-.144-.83-.148-1.523M128.689 122.094L128.688 121.956" transform="translate(-1081 -1152) translate(1083 1153) translate(8.446 11.196)"/>
                    <path stroke="#44E7D9" stroke-width="1.875" d="M141.842 116.742s-1.449-.09-1.111-.592c.337-.502-.004-.5-.685-.496-.682.005-1.788.212-.935.406 0 0 .725.233.516.731M128.815 115.68s4.316-2.16 7.98-2.083M137.477 113.592L139.053 113.582M139.574 113.578s6.363-.054 9.425 1.881" transform="translate(-1081 -1152) translate(1083 1153) translate(8.446 11.196)"/>
                    <path stroke="#44E7D9" stroke-width="1.875" d="M135.512 116.772s.32-.64-.786-.432c-1.107.207-1.156-.843.379-.653 1.534.19 3.238.079 2.978-.52-.26-.598-1.874.013-1.792-.487.082-.5 1.445-.41 2.212-.415.767-.005 1.871-.512 2.982-.02 1.11.493-1.19.408-.42.903.77.495 2.297-.415 2.725-.118.428.297-.592.704-.76 1.005-.168.3.873.438.873.438" transform="translate(-1081 -1152) translate(1083 1153) translate(8.446 11.196)"/>
                    <path stroke="#FFF" stroke-width="1.875" d="M145.663 67.75L24.435 171" transform="translate(-1081 -1152) translate(1083 1153) translate(8.446 11.196)"/>
                    <path fill="#FFF" d="M66.817 18.359c.069-.19.278-.288.468-.22.19.069.288.278.22.468-.069.19-.278.288-.468.22-.19-.069-.288-.278-.22-.468M79.89 17.97c.123-.341.5-.518.84-.395.342.123.52.5.396.842-.123.341-.5.518-.841.395-.342-.123-.518-.5-.396-.842M63.71 28c.068-.19.277-.288.467-.22.19.069.288.278.22.468-.07.19-.278.288-.468.22-.19-.07-.288-.278-.22-.468M66.19 42.74c.123-.342.5-.519.841-.396.342.123.519.5.395.842-.123.341-.5.518-.84.395-.342-.123-.52-.5-.396-.841M73.736 26.91c-.342-.124-.52-.5-.396-.842.123-.342.5-.519.841-.395.342.123.519.5.396.84-.124.342-.5.52-.841.396M72.93 37.546c.124-.341.5-.518.842-.395.341.123.518.5.395.841-.123.342-.5.519-.841.395-.342-.123-.518-.5-.395-.84M89.049 33.395c.201-.004.369.156.373.358.005.2-.155.368-.356.373-.202.004-.37-.156-.374-.357-.004-.202.155-.368.357-.374M87.102 43.652c.282-.007.516.217.523.5.006.281-.218.516-.5.522-.282.006-.516-.217-.523-.5-.006-.282.217-.516.5-.522M79.69 31.614c-.01-.485.373-.886.857-.897.484-.01.885.372.896.856.011.484-.372.885-.856.896-.484.011-.885-.372-.896-.855M75.95 47.85c-.011-.485.372-.886.856-.897.484-.011.885.372.896.856.011.484-.372.885-.856.896-.484.011-.885-.372-.896-.856" transform="translate(-1081 -1152) translate(1083 1153) translate(8.446 11.196)"/>
                    <path stroke="#44E7D9" stroke-linecap="round" stroke-linejoin="round" stroke-width="1.875" d="M73.335 52.637s1.634-.089 1.25-.53c-.384-.441 0-.441.769-.441.768 0 2.018.176 1.057.353 0 0-.816.21-.577.648M86.58 51.623s-3.442-2.164-7.574-2.075M78.429 49.548L77.18 49.548M76.41 49.548s-7.09-.01-11.09 1.716" transform="translate(-1081 -1152) translate(1083 1153) translate(8.446 11.196)"/>
                    <path stroke="#44E7D9" stroke-linecap="round" stroke-linejoin="round" stroke-width="1.875" d="M80.476 52.626s-.365-.563.884-.386c1.25.176 1.298-.75-.432-.574-1.73.177-3.653.088-3.364-.441.288-.53 2.114 0 2.018-.442-.096-.441-1.634-.353-2.498-.353-.866 0-2.115-.441-3.364 0-1.25.442 1.345.353.48.795-.865.441-2.594-.353-3.075-.088-.48.264.673.617.865.882.192.265-.981.392-.981.392" transform="translate(-1081 -1152) translate(1083 1153) translate(8.446 11.196)"/>
                    <path stroke="#FFF" stroke-linecap="round" stroke-linejoin="round" stroke-width="1.875" d="M86.447 68.74c.575.232 1.107.55 1.107.55 1.935 1.754 3.204 1.573 3.93 2.903s-.12 1.693-1.572 1.693c-1.451 0-3.87-1.753-3.87-1.753-.338.019-.9-.01-1.512-.057M43.293 83.681c2.117-1.27 4.959-3.99 4.959-3.99l4.474-2.66s3.386-.666 7.196-4.778c3.809-4.111 5.064-3.749 5.064-3.749.404.027.205-.03.982-.102M73.549 87c-.349.085-.567.128-.567.128C71.47 88.156 65.998 90 65.998 90c-.665.363-6.409 2.781-8.646 2.903-2.237.12-5.442.543-6.47.543-.587 0-1.587.513-2.337.952M91.242 83.016c1.753.968.363 1.814.363 1.814-1.451.847-6.651-.363-6.651-.363-1.21.242-2.903.302-2.903.302s-.967-.06-1.511 0c-.258.03-.898.126-1.498.22M57.986 87.188s5.745-.484 8.587-2.66M64.94 84.226s1.753.846 5.079-1.21c0 0 6.288-1.33 7.377-1.814 0 0 6.832-2.54 7.134-7.014" transform="translate(-1081 -1152) translate(1083 1153) translate(8.446 11.196)"/>
                    <path stroke="#FFF" stroke-linecap="round" stroke-linejoin="round" stroke-width="1.875" d="M82.838 74.974l-1.512.121s-1.21-.605-1.028-.907c.182-.302 2.419-1.33 3.205-1.511.786-.182 1.753-.424 1.995 0 .242.423-1.21 1.693-1.753 1.935-.545.242-.907.362-.907.362zM80.117 74.31l-3.991 1.209s-.786.181-1.33.362-2.721.545-3.507.545-3.386-.122-4.112-.242M66.573 76.002s-.666-.302-1.149-.604M66.875 76.002s-.907-.907-1.451-1.028c-.544-.12-.847-.18-1.21-.18M71.571 74.52s.262 1.29.262 1.664M76.912 76.788s-.363-1.088-.725-1.209M75.642 76.002s.544 1.028.544 1.39M75.158 76.002s-.12 1.27.242 1.935M85.075 84.165s-.121-.846 0-1.33M79.121 81.222c1.182.01 2.593.014 2.93-.02 0 0 5.2.968 6.53.847 0 0 5.987 1.572 7.015 1.149 1.028-.424.907-1.15.725-1.633-.181-.484-1.632-1.27-2.237-1.39-.604-.122-4.535-1.754-5.14-1.815-.604-.06-3.802-1.056-5.559-1.314M84.228 76.184s4.596 1.209 5.321 1.088c0 0 5.926 2.298 7.498 1.512 0 0 .726-.665.242-1.391-.484-.725-1.21-1.21-2.48-1.814-1.27-.605-2.625-1.593-3.489-1.915" transform="translate(-1081 -1152) translate(1083 1153) translate(8.446 11.196)"/>
                    <path stroke="#FFF" stroke-linecap="round" stroke-linejoin="round" stroke-width="1.875" d="M89.791 76.184s-.302.907-.242 1.209c0 0-.302-.665-.181-1.21M86.405 70.681s-.423.666-.242 1.149M88.582 82.049s.12-1.39.242-1.875M88.582 80.174s-.303.747.12.978M82.051 81.142s-.483-1.21 0-2.177M72.982 87.188s-.484-2.54-.242-3.688" transform="translate(-1081 -1152) translate(1083 1153) translate(8.446 11.196)"/>
                    <path stroke="#FFF" stroke-linecap="round" stroke-linejoin="round" stroke-width="1.875" d="M71.652 85.072s.18.605.484.484c.302-.121.061-1.611.544-.866M67.903 88.216s.786-2.116 0-3.688M64.94 85.572s-2.116 2.523-3.75 2.644" transform="translate(-1081 -1152) translate(1083 1153) translate(8.446 11.196)"/>
                    <path stroke="#D1A448" stroke-linecap="round" stroke-linejoin="round" stroke-width="1.875" d="M83.98 71.453c3.782-4.211 5.923-11.684 5.55-20.648M62.739 50.422c-.867 13.084 3.792 23.17 11.64 24.562M78.456 80.598L78.42 82.543M73.102 82.223L73.098 82.467M73.21 74.667L73.201 75.301M75.628 83.252c1.618.023 2.43-.127 3.084-.604 0 0 .798.821-.023 1.62 0 0-.978.47-2.759.445M78.354 85.051l-.097 6.8s-.659.8-2.763.77c-2.105-.03-2.579-.847-2.579-.847l.097-6.8M77.122 80.912L77.089 82.928M77.059 85.033L76.957 92.155M75.151 82.577L75.17 81.585M75.11 85.491L75.066 88.566M75.054 89.376L75.015 92.128M73.491 85.468L73.401 91.781" transform="translate(-1081 -1152) translate(1083 1153) translate(8.446 11.196)"/>
                    <path stroke="#D1A448" stroke-linecap="round" stroke-linejoin="round" stroke-width="1.875" d="M75.94 83.256c-1.62-.023-2.427-.196-3.067-.691 0 0-.821.798-.024 1.619 0 0 .965.5 2.745.525M62.818 50.504c-.021 1.52 5.904 2.837 13.235 2.942 7.331.105 13.292-1.043 13.314-2.563.021-1.52-5.905-2.836-13.235-2.941-7.331-.105-13.292 1.042-13.314 2.562zM78.71 90.68c1.733.182 5.456.669 7.523 1.63 0 0 2.494 1.51-3.049 2.513M72.715 90.505c-1.735.155-5.465.58-7.547 1.508 0 0-2.517 1.47 3.01 2.562M82.186 94.85s-6.488.879-13.447-.192" transform="translate(-1081 -1152) translate(1083 1153) translate(8.446 11.196)"/>
                    <path stroke="#D1A448" stroke-linecap="round" stroke-linejoin="round" stroke-width="1.875" d="M86.798 92.73s1.055.582.544 1.545c-.512.965-4.513 2.041-9.659 1.967M73.63 96.19c-5.147-.075-9.115-1.264-9.6-2.243-.484-.978.588-1.53.588-1.53M77.185 96.236s-1.876.041-3.154-.046M62.87 52.915c-.022 1.52 5.904 2.837 13.235 2.942 7.33.104 13.291-1.043 13.313-2.563M75.909 70.338s.277-2.086-.937-3.541c0 0-.935-1.292-2.497-1.826 0 0 .085 2.11.82 3.099 0 0 .515 1.048 2.614 2.268z" transform="translate(-1081 -1152) translate(1083 1153) translate(8.446 11.196)"/>
                    <path stroke="#D1A448" stroke-linecap="round" stroke-linejoin="round" stroke-width="1.875" d="M75.789 70.307s-.217-2.093 1.038-3.513c0 0 .97-1.265 2.547-1.754 0 0-.144 2.106-.908 3.074 0 0-.544 1.033-2.677 2.193z" transform="translate(-1081 -1152) translate(1083 1153) translate(8.446 11.196)"/>
                    <path fill="#000" d="M75.811 70.403s-.782-1.954-2.553-2.627c0 0-1.448-.668-3.07-.367 0 0 1.106 1.796 2.233 2.298 0 0 .962.661 3.39.696" transform="translate(-1081 -1152) translate(1083 1153) translate(8.446 11.196)"/>
                    <path stroke="#D1A448" stroke-linecap="round" stroke-linejoin="round" stroke-width="1.875" d="M75.811 70.403s-.782-1.954-2.553-2.627c0 0-1.448-.668-3.07-.367 0 0 1.106 1.796 2.233 2.298 0 0 .962.661 3.39.696z" transform="translate(-1081 -1152) translate(1083 1153) translate(8.446 11.196)"/>
                    <path fill="#000" d="M75.813 70.403s.837-1.93 2.627-2.553c0 0 1.466-.627 3.08-.28 0 0-1.158 1.765-2.299 2.234 0 0-.98.634-3.408.6" transform="translate(-1081 -1152) translate(1083 1153) translate(8.446 11.196)"/>
                    <path stroke="#D1A448" stroke-linecap="round" stroke-linejoin="round" stroke-width="1.875" d="M75.813 70.403s.837-1.93 2.627-2.553c0 0 1.466-.627 3.08-.28 0 0-1.158 1.765-2.299 2.234 0 0-.98.634-3.408.6z" transform="translate(-1081 -1152) translate(1083 1153) translate(8.446 11.196)"/>
                    <path fill="#000" d="M75.799 70.286s1.327-1.633 1.053-3.508c0 0-.12-1.59-1.172-2.863 0 0-1.031 1.842-.922 3.07 0 0-.11 1.163 1.04 3.301" transform="translate(-1081 -1152) translate(1083 1153) translate(8.446 11.196)"/>
                    <path stroke="#D1A448" stroke-linecap="round" stroke-linejoin="round" stroke-width="1.875" d="M75.799 70.286s1.327-1.633 1.053-3.508c0 0-.12-1.59-1.172-2.863 0 0-1.031 1.842-.922 3.07 0 0-.11 1.163 1.04 3.301zM87.904 59.968s-1.371 7.487-5.104 11.183M88.122 58.637s.176-.969.188-1.778M87.949 59.445L87.951 59.283" transform="translate(-1081 -1152) translate(1083 1153) translate(8.446 11.196)"/>
                    <path stroke="#44E7D9" stroke-width="1.875" d="M40.712 76.324s2.015 0 1.763 1.763c0 0 1.007 1.008 0 1.511 0 0 2.267 2.771 0 4.786 0 0-1.763 1.26-3.275 0 0 0-1.26 3.275-4.534.504" transform="translate(-1081 -1152) translate(1083 1153) translate(8.446 11.196)"/>
                    <path stroke="#44E7D9" stroke-width="1.875" d="M38.948 85.644s3.023-.504 3.023 2.267c0 2.77-1.511 2.519-1.511 2.519s3.023-.756 3.275 1.007c0 0 4.282-.755 4.785 2.771.504 3.527-1.763 6.046-4.534 5.038-2.77-1.008.252-4.03 1.26-3.023" transform="translate(-1081 -1152) translate(1083 1153) translate(8.446 11.196)"/>
                </g>
            </g>
        </g>
    </g>
</svg>
