<svg xmlns="http://www.w3.org/2000/svg" width="191" height="267" viewBox="0 0 191 267"><title>Шестёрка Жезлов</title>
    <g fill="none" fill-rule="evenodd">
        <g>
            <g>
                <g>
                    <path fill="#2a1612" stroke="#FFF" stroke-linecap="round" stroke-linejoin="round" stroke-width="2.5" d="M177.475 262.927H9.604c-5.211 0-9.435-4.185-9.435-9.348V9.53C.169 4.368 4.393.183 9.604.183h167.871c5.211 0 9.436 4.185 9.436 9.348v244.048c0 5.163-4.225 9.348-9.436 9.348z" transform="translate(-477 -4617) translate(479 4618) translate(0 .85)"/>
                    <path stroke="#FFF" stroke-linecap="round" stroke-linejoin="round" stroke-width="1.875" d="M92.658 72.493c-1.344-.012-1.204 2.92-1.204 2.92-1.823 85.185 1.186 156.892 1.186 156.892s3.486 4.315 6.553-.164" transform="translate(-477 -4617) translate(479 4618) translate(0 .85)"/>
                    <path stroke="#FFF" stroke-linecap="round" stroke-linejoin="round" stroke-width="1.875" d="M92.585 72.507c1.34-.135 1.323 2.804 1.323 2.804 5.394 84.856 5.399 156.7 5.399 156.7s-3.299 4.625-6.547.434M91.055 99s.617 5.668 4.635 7.42M90.931 113.025s1.775 9.616 5.68 12.755M90.888 121.275s1.484 8.8 6.028 11.607M90.873 137.27s1.664 6.951 6.568 9M90.888 142.663s1.405 6.57 6.741 8.821M91.02 161.576s1.805 8.168 7.285 10.086M91.17 173.956s1.41 6.636 7.442 10.797M91.252 179.32s2.178 6.37 7.44 8.88M91.455 190.558s.748 8.694 7.548 13.223M91.715 203.592s.32 4.684 7.467 12.368M91.644 199.304s2.195 7.738 7.473 11.746M92.08 215.893s-.293 6.266 7.269 11.744" transform="translate(-477 -4617) translate(479 4618) translate(0 .85)"/>
                    <path fill="#000" d="M98.692 119.19s-.117-1.047-1.465-1.988c-1.348-.94-5.648-.742-7.719-2.85 0 0 .884 2.997 2.755 3.966 1.872.97 3.753 1.766 6.429.872" transform="translate(-477 -4617) translate(479 4618) translate(0 .85)"/>
                    <path stroke="#D1A448" stroke-linecap="round" stroke-linejoin="round" stroke-width="1.875" d="M98.692 119.19s-.117-1.047-1.465-1.988c-1.348-.94-5.648-.742-7.719-2.85 0 0 .884 2.997 2.755 3.966 1.872.97 3.753 1.766 6.429.872z" transform="translate(-477 -4617) translate(479 4618) translate(0 .85)"/>
                    <path stroke="#D1A448" stroke-linecap="round" stroke-linejoin="round" stroke-width="1.875" d="M84.03 45.18c-16.953 3.981-29.565 19.075-29.565 37.088 0 21.05 17.224 38.114 38.47 38.114 21.247 0 38.47-17.064 38.47-38.114 0-17.92-12.483-32.951-29.303-37.025" transform="translate(-477 -4617) translate(479 4618) translate(0 .85)"/>
                    <path stroke="#D1A448" stroke-linecap="round" stroke-linejoin="round" stroke-width="1.875" d="M84.067 119.341s-5.562-2.816-6.427-8.94c-.21-1.477-.41-2.862-.597-4.1-.583-3.888-1.01-6.316-1.01-5.573 0 .98-.494 2.694-1.236 5.02-.741 2.327.742 7.47 4.326 8.94 0 0-.494-1.102-.124-3.062.371-1.958.99-3.55-.123-6-1.113-2.449-2.596-3.306-2.843-5.142M77.393 109.055L78.876 105.626M77.57 109.912L79.258 106.648M77.022 106.361L75.173 104.55M74.942 105.291L77.207 107.402M69.05 106.667c1.112 6.49 7.025 9.868 7.025 9.868" transform="translate(-477 -4617) translate(479 4618) translate(0 .85)"/>
                    <path stroke="#D1A448" stroke-linecap="round" stroke-linejoin="round" stroke-width="1.875" d="M72.572 113.586s.618-.857.247-2.45c-.37-1.591-3.707-4.285-3.831-7.224 0 0-1.36 2.817-.618 4.776.742 1.959 1.607 3.796 4.202 4.898zM69.921 109.569L69.914 106.667M70.274 110.316L70.543 107.651M64.666 108.118s-2.167-5.492.181-10.023c0 0 .31-.673.557-1.408" transform="translate(-477 -4617) translate(479 4618) translate(0 .85)"/>
                    <path stroke="#D1A448" stroke-linecap="round" stroke-linejoin="round" stroke-width="1.875" d="M63.797 105.014s-1.236-.245-.865-3.673c.37-3.43 2.595-4.409 2.348-6.368 0 0 1.854 4.776.865 7.347-.989 2.572-2.348 2.694-2.348 2.694zM66.17 98.095L64.168 99.993M63.907 101.001L66.368 99.345M63.754 101.923L63.198 99.993M63.754 102.888L62.808 101.34M58.035 98.325c.633-2.083 2.036-4.975 5.12-6.88 1.278-.79 2.474-1.536 3.54-2.207 3.348-2.11 5.413-3.482 4.728-3.18-.903.398-2.685.647-5.133.922-2.446.274-6.587 3.707-6.485 7.549 0 0 .815-.896 2.773-1.357 1.958-.46 3.677-.548 5.483-2.55 1.807-2.002 1.994-3.693 3.588-4.664M64.296 90.673L68.061 90.622M63.578 91.182L67.274 91.383M66.63 89.243L67.548 86.833M66.771 86.925L65.746 89.833M61.872 81.538c-5.534 3.645-6.246 10.37-6.246 10.37" transform="translate(-477 -4617) translate(479 4618) translate(0 .85)"/>
                    <path stroke="#D1A448" stroke-linecap="round" stroke-linejoin="round" stroke-width="1.875" d="M56.923 87.539s1.042.21 2.359-.772c1.317-.983 2.445-5.098 5.106-6.405 0 0-3.15-.086-4.656 1.382-1.505 1.468-2.848 2.997-2.809 5.795zM59.55 83.506L62.223 82.32M59.004 84.129L61.572 83.29M54.588 81.557s3.43-4.818 8.54-5.375c0 0 .738-.116 1.493-.317" transform="translate(-477 -4617) translate(479 4618) translate(0 .85)"/>
                    <path stroke="#D1A448" stroke-linecap="round" stroke-linejoin="round" stroke-width="1.875" d="M56.723 79.128s-.475-1.157 2.617-2.74c3.091-1.585 5.143-.286 6.656-1.57 0 0-3 4.165-5.71 4.765-2.71.6-3.563-.455-3.563-.455zM63.858 77.275L61.155 76.666M60.163 77.006L62.914 78.127M59.303 77.389L60.62 75.864M58.49 77.921L59.271 76.285M55.219 74.2s1.828-5.917 7.762-7.83c1.432-.461 2.774-.9 3.971-1.297 3.763-1.248 6.101-2.088 5.362-1.959-.973.171-2.763-.012-5.205-.329s-7.294 2.027-8.129 5.78c0 0 1.009-.674 3.02-.654 2.013.02 3.703.344 5.943-1.168 2.24-1.513 2.833-3.11 4.615-3.672M64.276 65.894L67.943 66.742M63.455 66.217L66.994 67.294M66.889 65.062L68.366 62.942M67.589 62.847L65.887 65.425M67.369 70.895c-3.927-1.705-7.858-1.044-10.153-.36" transform="translate(-477 -4617) translate(479 4618) translate(0 .85)"/>
                    <path stroke="#D1A448" stroke-linecap="round" stroke-linejoin="round" stroke-width="1.875" d="M59.598 70.013s.384.982 1.93 1.55c1.547.566 5.652-.718 8.199.794 0 0-1.63-2.672-3.69-3.134-2.06-.462-4.084-.754-6.439.79zM64.442 70.023L66.894 71.611M63.618 69.905L65.719 71.592M60.76 61.275s5.08-3.072 9.994-1.573c0 0 .723.184 1.496.297" transform="translate(-477 -4617) translate(479 4618) translate(0 .85)"/>
                    <path stroke="#D1A448" stroke-linecap="round" stroke-linejoin="round" stroke-width="1.875" d="M63.694 59.885s.028-1.248 3.5-1.485c3.472-.237 4.835 1.762 6.739 1.18 0 0-4.423 2.642-7.151 2.126-2.729-.516-3.088-1.82-3.088-1.82zM70.985 60.993L68.749 59.371M67.702 59.292L69.777 61.403M66.759 59.304L68.579 58.424M65.799 59.473L67.173 58.28M83.18 57.294c1.435-.095 2.514-.327 3.696.175M82.194 53.08c-2.131-1.461-6.487-2.27-9.216-.253 0 0 1.209.144 2.718 1.462 1.509 1.319 2.573 2.66 5.266 2.966l.14.015" transform="translate(-477 -4617) translate(479 4618) translate(0 .85)"/>
                    <path stroke="#D1A448" stroke-linecap="round" stroke-linejoin="round" stroke-width="1.875" d="M83.713 56.315c2.22.88 3.44 1.317 2.951 1.028-.654-.386-1.536-1.245-2.656-2.453M66.412 54.653s5.29-3.292 11.041-.894c1.39.579 2.694 1.116 3.861 1.591.145.06.288.117.429.174M78.748 54.238L80.962 57.255M77.914 53.95L79.88 57.057M81.274 55.301L81.832 55.158M81.974 54.445L80.276 54.926M84.595 49.094c-6.197-2.375-12.153.928-12.153.928M85.991 50.056c.358.094.702.223 1.024.396 0 0-.231-.344-.626-.8" transform="translate(-477 -4617) translate(479 4618) translate(0 .85)"/>
                    <path stroke="#D1A448" stroke-linecap="round" stroke-linejoin="round" stroke-width="1.875" d="M84.476 47.985c-.403-.24-.836-.424-1.285-.503-2.079-.372-4.114-.576-6.399 1.069 0 0 .427.965 1.998 1.464.896.285 2.599-.069 4.38-.165M81.633 48.35L84.152 49.83M80.804 48.268L82.977 49.862M90.318 46.346c1.564.808 3.228 2.02 4.355 3.804 0 0 .425.608.936 1.195" transform="translate(-477 -4617) translate(479 4618) translate(0 .85)"/>
                    <path stroke="#D1A448" stroke-linecap="round" stroke-linejoin="round" stroke-width="1.875" d="M91.062 45.863c.499.196 1.124.54 1.901 1.118 2.783 2.07 2.494 4.466 4.32 5.258 0 0-5.09-.866-6.814-3.024-.692-.867-1.011-1.582-1.145-2.127M93.995 51.276L93.375 48.6M92.635 47.862L92.811 50.805M91.913 47.261L93.872 47.774M91.076 46.767L92.903 46.753M102.693 55.48c1.342.935 2.469 1.381 3.155 2.593M99.21 50.333c.165.865.386 1.7.894 2.547" transform="translate(-477 -4617) translate(479 4618) translate(0 .85)"/>
                    <path stroke="#D1A448" stroke-linecap="round" stroke-linejoin="round" stroke-width="1.875" d="M102.564 52.74c.058.1.116.2.174.297 1.994 3.4 3.296 5.499 3.019 4.808-.366-.91-.546-2.684-.726-5.117-.14-1.901-2.182-4.901-4.918-6.148M102.736 52.974L105.13 53.979M105.068 53.206L102.175 52.075M110.923 56.95c-.328-6.574-5.795-10.623-5.795-10.623" transform="translate(-477 -4617) translate(479 4618) translate(0 .85)"/>
                    <path stroke="#D1A448" stroke-linecap="round" stroke-linejoin="round" stroke-width="1.875" d="M108.253 49.667s-.716.778-.538 2.403c.178 1.624 3.169 4.69 2.94 7.623 0 0 1.687-2.636 1.185-4.669-.502-2.032-1.141-3.958-3.587-5.357zM110.405 53.967L110.065 56.849M110.144 53.183L109.558 55.798M113.586 50.114s3.537 4.742 2.463 9.723c0 0-.121.73-.166 1.503" transform="translate(-477 -4617) translate(479 4618) translate(0 .85)"/>
                    <path stroke="#D1A448" stroke-linecap="round" stroke-linejoin="round" stroke-width="1.875" d="M115.242 52.886s1.257-.083 1.802 3.323c.545 3.406-1.345 4.927-.591 6.754 0 0-3.047-4.131-2.77-6.87.279-2.737 1.559-3.207 1.559-3.207zM114.771 60.179L116.205 57.829M116.192 56.789L114.252 59.023M116.096 55.86L117.142 57.578M115.842 54.927L117.164 56.177M119.578 54.799s4.196 4.585 2.817 10.615c-.333 1.455-.64 2.821-.908 4.044-.844 3.841-1.312 6.261-1.047 5.566.35-.916 1.425-2.346 2.95-4.261 1.525-1.917 1.976-7.247-.851-9.878 0 0 .068 1.204-.978 2.906-1.047 1.702-2.194 2.975-2.03 5.655.166 2.681 1.247 4.003.821 5.807M122.144 66.76L119.532 69.446M122.285 65.896L119.54 68.356M121.528 69.409L122.611 71.752M123.091 71.14L121.727 68.371M116.225 66.832c3.489-2.47 4.928-6.153 5.51-8.457" transform="translate(-477 -4617) translate(479 4618) translate(0 .85)"/>
                    <path stroke="#D1A448" stroke-linecap="round" stroke-linejoin="round" stroke-width="1.875" d="M120.968 60.67s-1.048-.176-2.332.85c-1.283 1.026-2.271 5.177-4.885 6.571 0 0 3.15-.02 4.606-1.536 1.455-1.517 2.744-3.09 2.61-5.885zM118.479 64.788L115.848 66.062M119.004 64.147L116.466 65.071M128.073 67.234s.064 5.897-3.752 9.31c0 0-.53.522-1.023 1.123" transform="translate(-477 -4617) translate(479 4618) translate(0 .85)"/>
                    <path stroke="#D1A448" stroke-linecap="round" stroke-linejoin="round" stroke-width="1.875" d="M127.776 70.442s1.069.663-.504 3.74c-1.571 3.076-4.002 3.212-4.471 5.131 0 0-.028-5.117 1.816-7.175s3.16-1.696 3.16-1.696zM123.084 76.081L125.635 75.008M126.239 74.157L123.346 74.842M126.711 73.348L126.543 75.348M127.056 72.445L127.388 74.225M130.324 73.126c-.157 2.17-.885 5.297-3.473 7.826-1.072 1.048-2.074 2.035-2.965 2.92-2.8 2.785-4.512 4.574-3.91 4.13.793-.585 2.476-1.215 4.803-2.014 2.327-.799 5.607-5.047 4.658-8.773 0 0-.597 1.05-2.405 1.925-1.809.874-3.466 1.333-4.786 3.679-1.32 2.346-1.129 4.037-2.469 5.33M125.908 81.952L122.246 82.819M126.496 81.299L122.846 81.905M123.947 83.854L123.584 86.405M124.322 86.146L124.68 83.086M122.18 92.717c6.328-2.01 8.867-8.286 8.867-8.286" transform="translate(-477 -4617) translate(479 4618) translate(0 .85)"/>
                    <path stroke="#D1A448" stroke-linecap="round" stroke-linejoin="round" stroke-width="1.875" d="M128.595 88.283s-.944-.485-2.482.105c-1.538.588-3.758 4.242-6.677 4.779 0 0 3.006.935 4.86-.07 1.852-1.004 3.565-2.112 4.299-4.814zM124.957 91.452L122.058 91.869M125.653 91L122.952 91.113M129.534 93.503s-3.713 4.61-8.847 4.865c0 0-.743.071-1.509.228" transform="translate(-477 -4617) translate(479 4618) translate(0 .85)"/>
                    <path stroke="#D1A448" stroke-linecap="round" stroke-linejoin="round" stroke-width="1.875" d="M127.257 95.803s.405 1.183-2.776 2.582c-3.181 1.4-5.151-.018-6.739 1.175 0 0 3.244-3.982 5.985-4.421 2.742-.44 3.53.664 3.53.664zM120.024 97.233L122.685 98M123.696 97.719L121.017 96.438M124.578 97.387L123.171 98.831M125.421 96.904L124.543 98.491M126.17 101.432s-3.425 5.175-9.663 5.368c-1.505.047-2.917.096-4.179.146-3.965.156-6.447.315-5.701.395.983.106 2.65.777 4.905 1.758 2.255.981 7.575.074 9.436-3.298 0 0-1.16.368-3.085-.208-1.927-.576-3.457-1.356-6.035-.524-2.577.831-3.597 2.2-5.467 2.246M115.129 106.899L111.848 105.068M116.008 106.816L112.915 104.802M112.386 106.974L110.37 108.6M111.088 108.907L113.45 106.903M113.571 101.24c3.29 2.725 7.25 3.18 9.646 3.159" transform="translate(-477 -4617) translate(479 4618) translate(0 .85)"/>
                    <path stroke="#D1A448" stroke-linecap="round" stroke-linejoin="round" stroke-width="1.875" d="M120.783 104.24s-.091-1.05-1.416-2.022c-1.325-.973-5.628-.878-7.647-3.034 0 0 .81 3.017 2.657 4.031 1.848 1.014 3.71 1.855 6.406 1.025zM116.135 102.889L114.229 100.685M116.893 103.23L115.352 101.029M116.155 112.703s-5.744 1.543-10.038-1.258c0 0-.643-.377-1.353-.7" transform="translate(-477 -4617) translate(479 4618) translate(0 .85)"/>
                    <path stroke="#D1A448" stroke-linecap="round" stroke-linejoin="round" stroke-width="1.875" d="M112.946 113.225s-.378 1.19-3.78.456c-3.4-.734-4.143-3.031-6.136-2.998 0 0 4.992-1.312 7.466-.061 2.474 1.25 2.45 2.603 2.45 2.603zM106.26 110.142L107.948 112.319M108.931 112.684L107.535 110.082M110.809 113.038L109.154 113.803M91.41 116.364c5.198 4.1 11.877 2.709 11.877 2.709M94.012 117.95L92.053 115.793M94.779 118.273L93.184 116.109M89.12 120.342s-5.312-2.66-6.613-7.587c0 0-.223-.706-.534-1.417" transform="translate(-477 -4617) translate(479 4618) translate(0 .85)"/>
                    <path stroke="#D1A448" stroke-linecap="round" stroke-linejoin="round" stroke-width="1.875" d="M86.383 118.604s-1.086.634-3.118-2.165c-2.032-2.8-1.035-5-2.538-6.296 0 0 4.596 2.332 5.592 4.902.994 2.569.064 3.559.064 3.559zM83.493 111.881L83.279 114.618M83.762 115.541L84.481 112.681M84.27 116.329L82.556 115.26M84.92 117.048L83.173 116.52M56.424 94.97s-5.25-2.778-6.437-7.734c0 0-.207-.71-.501-1.428" transform="translate(-477 -4617) translate(479 4618) translate(0 .85)"/>
                    <path stroke="#D1A448" stroke-linecap="round" stroke-linejoin="round" stroke-width="1.875" d="M53.727 93.17s-1.1.61-3.067-2.234c-1.968-2.845-.92-5.022-2.393-6.352 0 0 4.542 2.436 5.478 5.027.935 2.591-.018 3.56-.018 3.56zM50.993 86.384L50.715 89.116M51.178 90.05L51.962 87.207M51.667 90.849L49.978 89.741M54.333 83.841c-1.75-1.314-3.996-3.625-4.722-7.154-.301-1.462-.59-2.832-.852-4.056-.826-3.845-1.404-6.241-1.358-5.5.061.978-.324 2.72-.919 5.087-.594 2.368 1.208 7.41 4.878 8.656 0 0-.563-1.07-.316-3.048.248-1.978.765-3.605-.499-5.981-1.263-2.376-2.797-3.14-3.16-4.958M49.28 75.358L50.545 71.845M49.511 76.203L50.991 72.841M48.741 72.692L46.782 70.999M46.598 71.752L48.991 73.72M53.332 63.627c-2.118 6.24 1.478 11.987 1.478 11.987" transform="translate(-477 -4617) translate(479 4618) translate(0 .85)"/>
                    <path stroke="#D1A448" stroke-linecap="round" stroke-linejoin="round" stroke-width="1.875" d="M53.133 71.374s.953-.466 1.387-2.042c.433-1.577-1.221-5.514.073-8.161 0 0-2.542 1.844-2.824 3.917-.282 2.075-.397 4.098 1.364 6.286zM52.714 66.592L54.094 64.032M52.669 67.416L54.179 65.194M58.203 65.56s-1.942-5.575.588-10.008c0 0 .337-.66.613-1.385" transform="translate(-477 -4617) translate(479 4618) translate(0 .85)"/>
                    <path stroke="#D1A448" stroke-linecap="round" stroke-linejoin="round" stroke-width="1.875" d="M57.46 62.423s-1.224-.294-.715-3.705c.51-3.41 2.773-4.301 2.606-6.269 0 0 1.658 4.846.566 7.376-1.093 2.53-2.456 2.598-2.456 2.598zM60.113 55.605L58.035 57.421M57.733 58.417L60.26 56.861M57.544 59.333L57.066 57.383M57.505 60.298L56.622 58.713M63.689 47.167L65.186 44.673M64.445 44.234c-1.553 3.959-.72 7.822.067 10.065" transform="translate(-477 -4617) translate(479 4618) translate(0 .85)"/>
                    <path stroke="#D1A448" stroke-linecap="round" stroke-linejoin="round" stroke-width="1.875" d="M63.884 51.963s.975-.422 1.481-1.977c.506-1.554-.962-5.563.454-8.149 0 0-2.626 1.727-3.004 3.785-.379 2.059-.587 4.075 1.07 6.34zM63.605 47.988L65.217 45.837M63.91 57.2s.325-6.18 5.613-9.462c1.277-.792 2.472-1.54 3.536-2.212 3.345-2.115 5.408-3.492 4.723-3.188-.903.4-2.684.651-5.13.93-2.447.279-6.581 3.72-6.473 7.56 0 0 .814-.896 2.771-1.36 1.957-.464 3.676-.555 5.479-2.56 1.803-2.006 1.987-3.697 3.579-4.67M70.664 46.965L74.429 46.907M69.947 47.476L73.643 47.67M72.995 45.53L73.909 43.119M73.132 43.213L72.112 46.123M82.5 41.861c.883-.665 1.902-1.237 3.06-1.594M78.213 47.16s.856-1.889 2.575-3.743M81.568 41.439c.098-.083.203-.167.312-.253 1.048-.821 2.027-1.196 2.905-1.435" transform="translate(-477 -4617) translate(479 4618) translate(0 .85)"/>
                    <path stroke="#D1A448" stroke-linecap="round" stroke-linejoin="round" stroke-width="1.875" d="M82.45 44.497c-1.838.523-2.61-.126-2.61-.126s-.326-.494.357-1.498M86.546 41.116c-.331.488-.705.986-1.11 1.44M87.99 38.526c.042-.044.082-.091.122-.14 0 0-.06.132-.174.357M86.486 41.203L83.716 41.116M82.808 41.637L85.725 42.218M82.179 41.928L83.037 40.43M81.655 41.637L81.794 41.098M102.98 36.05c.175-.086.361-.161.563-.224M99.57 39.24c1.103-.793 2.13-2.244 2.13-2.244M90.174 41.106c.41-.193 1.34-.53 2.781-.506 1.127.018 1.905.13 2.984-.037" transform="translate(-477 -4617) translate(479 4618) translate(0 .85)"/>
                    <path stroke="#D1A448" stroke-linecap="round" stroke-linejoin="round" stroke-width="1.875" d="M103.124 36.018c.334-.134.41-.19.175-.15-.975.164-2.763-.03-5.203-.362-2.378-.324-7.06 1.866-8.092 5.446" transform="translate(-477 -4617) translate(479 4618) translate(0 .85)"/>
                    <path stroke="#D1A448" stroke-linecap="round" stroke-linejoin="round" stroke-width="1.875" d="M90.368 40.952c.982-.768 2.164-1.44 3.577-1.886 1.435-.453 2.78-.884 3.98-1.273l.795-.26M95.243 38.597L96.842 38.978M94.42 38.915L96.361 39.519M97.861 37.782L99.351 35.671M98.576 35.57L96.857 38.138M104.071 41.054c-2.779.129-5.148 1.091-6.672 1.895M107.45 41.335c-.318-.07-.633-.125-.945-.17" transform="translate(-477 -4617) translate(479 4618) translate(0 .85)"/>
                    <path stroke="#D1A448" stroke-linecap="round" stroke-linejoin="round" stroke-width="1.875" d="M101.604 42.992c-1.628-.258-1.95-1.025-1.95-1.025 2.007-1.968 4.05-2.072 6.161-2.016 2.112.056 4.234 2.364 4.234 2.364s-2.87-.242-4.476.492M106.243 41.704L107.125 42.129M103.239 41.087L104.07 41.521M106.645 46.275s5.386-2.51 10.106-.49c0 0 .699.26 1.455.455" transform="translate(-477 -4617) translate(479 4618) translate(0 .85)"/>
                    <path stroke="#D1A448" stroke-linecap="round" stroke-linejoin="round" stroke-width="1.875" d="M109.713 45.208s.164-1.238 3.642-1.1c3.478.137 4.613 2.27 6.57 1.895 0 0-4.686 2.152-7.342 1.347-2.656-.806-2.87-2.142-2.87-2.142zM116.839 47.092L114.794 45.239M113.762 45.049L115.594 47.371M112.824 44.96L114.73 44.28M111.851 45.024L113.347 43.985M125.075 49.779L127.738 50.987M128.1 50.209c-4.14-1.107-7.928.127-10.095 1.142" transform="translate(-477 -4617) translate(479 4618) translate(0 .85)"/>
                    <path stroke="#D1A448" stroke-linecap="round" stroke-linejoin="round" stroke-width="1.875" d="M120.283 50.483s.527.915 2.142 1.247c1.614.333 5.48-1.542 8.226-.423 0 0-2.013-2.403-4.12-2.555-2.106-.153-4.152-.143-6.248 1.731zM124.242 49.784L126.573 51.141M115.03 51.067s6.237-.34 10.095 4.52c.932 1.173 1.81 2.269 2.599 3.246 2.48 3.068 4.082 4.954 3.704 4.312-.498-.847-.941-2.575-1.482-4.955-.542-2.38-4.436-6.085-8.28-5.567 0 0 .987.706 1.662 2.584.675 1.877.95 3.56 3.155 5.122 2.206 1.562 3.923 1.563 5.07 3.027M126.023 56.627L126.484 60.329M125.434 55.975L125.634 59.637M127.712 58.77L130.23 59.413M130.053 58.658L127.023 57.963M126.634 64.085s5.66 1.826 7.703 6.5c0 0 .33.664.745 1.32" transform="translate(-477 -4617) translate(479 4618) translate(0 .85)"/>
                    <path stroke="#D1A448" stroke-linecap="round" stroke-linejoin="round" stroke-width="1.875" d="M129.607 65.39s.976-.791 3.415 1.668c2.439 2.46 1.791 4.785 3.476 5.84 0 0-4.902-1.612-6.28-4.001-1.378-2.389-.61-3.508-.61-3.508zM133.497 71.598L133.288 68.86M132.668 68.02L132.397 70.956M132.045 67.319L133.904 68.117M131.292 66.706L133.1 66.964M130.302 72.639c1.964.972 4.602 2.833 5.973 6.168.568 1.383 1.106 2.677 1.592 3.831 1.528 3.629 2.542 5.878 2.358 5.158-.242-.95-.187-2.732-.043-5.168.143-2.435-2.567-7.061-6.405-7.616 0 0 .752.949.877 2.938.125 1.99-.08 3.683 1.604 5.788 1.684 2.104 3.334 2.575 4.028 4.296M136.848 80.053L136.258 83.737M136.464 79.265L135.635 82.839M137.874 82.575L140.114 83.882M140.154 83.108L137.436 81.611M135.172 92.201c.92-6.52-3.684-11.51-3.684-11.51" transform="translate(-477 -4617) translate(479 4618) translate(0 .85)"/>
                    <path stroke="#D1A448" stroke-linecap="round" stroke-linejoin="round" stroke-width="1.875" d="M133.926 84.551s-.85.632-.983 2.26c-.133 1.629 2.226 5.197 1.447 8.035 0 0 2.155-2.277 2.047-4.367-.109-2.09-.373-4.1-2.51-5.928zM135.227 89.174L134.348 91.942M135.119 88.356L134.049 90.816M130.386 91.671s2.946 5.124 1.284 9.943c0 0-.207.711-.344 1.473" transform="translate(-477 -4617) translate(479 4618) translate(0 .85)"/>
                    <path stroke="#D1A448" stroke-linecap="round" stroke-linejoin="round" stroke-width="1.875" d="M131.7 94.618s1.258.065 1.392 3.51c.134 3.446-1.924 4.735-1.393 6.638 0 0-2.533-4.46-1.93-7.146s1.93-3.002 1.93-3.002zM130.361 101.804L132.066 99.639M132.177 98.605L129.984 100.596M132.193 97.67L133.026 99.5M132.052 96.715L133.214 98.111M128.427 110.638L127.42 113.363M128.23 113.66c.79-4.176-.748-7.82-1.939-9.88" transform="translate(-477 -4617) translate(479 4618) translate(0 .85)"/>
                    <path stroke="#D1A448" stroke-linecap="round" stroke-linejoin="round" stroke-width="1.875" d="M127.343 105.96s-.88.593-1.088 2.213c-.208 1.621 1.982 5.293 1.071 8.093 0 0 2.26-2.177 2.248-4.27-.011-2.092-.181-4.112-2.231-6.036zM128.356 109.816L127.173 112.225M126.344 100.818s.83 6.133-3.757 10.324c-1.108 1.012-2.142 1.966-3.063 2.822-2.894 2.69-4.666 4.419-4.049 3.996.813-.558 2.516-1.131 4.87-1.852 2.352-.721 5.775-4.858 4.953-8.614 0 0-.633 1.03-2.47 1.844-1.837.814-3.51 1.217-4.908 3.517-1.398 2.301-1.265 3.997-2.648 5.245M121.61 112.111L117.92 112.856M122.22 111.478L118.551 111.962M119.586 113.947L119.136 116.484M119.882 116.25L120.343 113.203M89.701 120.31s-2.995 5.095-8.037 6.09c0 0-.725.178-1.46.443" transform="translate(-477 -4617) translate(479 4618) translate(0 .85)"/>
                    <path stroke="#D1A448" stroke-linecap="round" stroke-linejoin="round" stroke-width="1.875" d="M87.787 122.914s.575 1.111-2.367 2.955c-2.941 1.843-5.099.726-6.494 2.135 0 0 2.623-4.407 5.271-5.238 2.648-.831 3.59.148 3.59.148zM80.841 125.372L83.587 125.747M84.546 125.323L81.707 124.442M85.369 124.868L84.19 126.5M83.602 119.294c-1.574 1.517-4.216 3.371-7.847 3.555-1.504.076-2.915.153-4.175.227-3.961.234-6.44.442-5.692.507.985.087 2.665.725 4.939 1.662 2.274.937 7.575-.074 9.368-3.482 0 0-1.151.39-3.089-.148-1.937-.538-3.483-1.288-6.044-.406-2.56.882-3.552 2.27-5.42 2.353M74.379 122.974L71.063 121.209M75.257 122.875L72.124 120.922M71.638 123.103L69.655 124.769M70.38 125.062L72.701 123.012M62.422 116.954c6.216 2.327 12.145-1.023 12.145-1.023" transform="translate(-477 -4617) translate(479 4618) translate(0 .85)"/>
                    <path stroke="#D1A448" stroke-linecap="round" stroke-linejoin="round" stroke-width="1.875" d="M70.229 117.436s-.435-.961-2.01-1.448c-1.573-.487-5.605 1.006-8.228-.373 0 0 1.767 2.585 3.848 2.94 2.082.356 4.119.544 6.39-1.119zM65.391 117.675L62.859 116.215M66.22 117.75L64.034 116.173M68.506 111.567s-5.693 1.719-10.072-.95c0 0-.654-.357-1.375-.657" transform="translate(-477 -4617) translate(479 4618) translate(0 .85)"/>
                    <path stroke="#D1A448" stroke-linecap="round" stroke-linejoin="round" stroke-width="1.875" d="M65.316 112.187s-.342 1.202-3.764.572c-3.422-.63-4.237-2.903-6.227-2.81 0 0 4.948-1.463 7.46-.289 2.512 1.175 2.53 2.527 2.53 2.527zM58.536 109.31L60.291 111.435M61.285 111.77L59.808 109.212M62.202 111.991L60.217 112.393M63.173 112.066L61.543 112.881M52.999 105.972L50.538 104.398M50.068 105.117c3.936 1.683 7.863 1 10.154.303" transform="translate(-477 -4617) translate(479 4618) translate(0 .85)"/>
                    <path stroke="#D1A448" stroke-linecap="round" stroke-linejoin="round" stroke-width="1.875" d="M57.843 105.955s-.39-.98-1.94-1.538c-1.549-.559-5.646.748-8.202-.75 0 0 1.645 2.664 3.707 3.114 2.063.45 4.089.731 6.435-.826zM53.824 106.086L51.713 104.411M63.126 106.123s-6.222-.55-9.337-5.906c-.752-1.293-1.462-2.503-2.102-3.582-2.01-3.39-3.323-5.482-3.042-4.793.37.908.56 2.681.75 5.114.192 2.432 3.51 6.652 7.388 6.685 0 0-.874-.838-1.27-2.792-.397-1.955-.425-3.66-2.382-5.519-1.956-1.859-3.656-2.104-4.579-3.715M53.051 99.06L53.131 95.33M53.54 99.788L53.871 96.136M51.69 96.699L49.291 95.705M49.357 96.478L52.255 97.595M108.748 117.273c-.46 2.127-1.622 5.122-4.54 7.27-1.21.889-2.34 1.728-3.348 2.482-3.165 2.37-5.111 3.905-4.453 3.55.868-.47 2.624-.862 5.04-1.332 2.417-.469 6.263-4.223 5.847-8.044 0 0-.739.958-2.653 1.574-1.913.616-3.62.841-5.256 2.982-1.637 2.14-1.686 3.842-3.195 4.936M103.133 125.403L99.385 125.755M103.807 124.837L100.107 124.933M100.924 127.016L100.205 129.491M100.972 129.337L101.757 126.356" transform="translate(-477 -4617) translate(479 4618) translate(0 .85)"/>
                    <path fill="#000" d="M98.25 122.904s-.9-.561-2.483-.102c-1.582.46-4.102 3.917-7.057 4.21 0 0 2.917 1.181 4.848.334 1.931-.848 3.732-1.81 4.691-4.442" transform="translate(-477 -4617) translate(479 4618) translate(0 .85)"/>
                    <path stroke="#D1A448" stroke-linecap="round" stroke-linejoin="round" stroke-width="1.875" d="M98.25 122.904s-.9-.561-2.483-.102c-1.582.46-4.102 3.917-7.057 4.21 0 0 2.917 1.181 4.848.334 1.931-.848 3.732-1.81 4.691-4.442zM91.483 126.791c6.475-1.478 9.534-7.523 9.534-7.523M94.357 125.76L91.433 125.937M95.089 125.368L92.387 125.257M112.937 114.576s.69 5.857-2.741 9.65c0 0-.471.573-.899 1.222" transform="translate(-477 -4617) translate(479 4618) translate(0 .85)"/>
                    <path stroke="#D1A448" stroke-linecap="round" stroke-linejoin="round" stroke-width="1.875" d="M112.983 117.797s1.133.547-.103 3.77c-1.237 3.224-3.64 3.613-3.902 5.57 0 0-.57-5.085 1.044-7.325 1.614-2.239 2.961-2.015 2.961-2.015zM108.916 123.893L111.339 122.56M111.85 121.651L109.045 122.634M112.233 120.797L112.278 122.804M112.48 119.864L112.999 121.599" transform="translate(-477 -4617) translate(479 4618) translate(0 .85)"/>
                    <path fill="#000" d="M94.779 108.28s1.836.13 3.185.798c1.349.669-1.593 1.117-1.593 1.117l-2.633-2.077" transform="translate(-477 -4617) translate(479 4618) translate(0 .85)"/>
                    <path fill="#000" d="M111.13 115.881s-6.04 1.578-10.806-2.412c-1.151-.963-2.234-1.862-3.206-2.661-3.053-2.51-5.005-4.038-4.505-3.484.66.73 1.445 2.334 2.46 4.557 1.014 2.224 5.581 5.075 9.241 3.8 0 0-1.11-.494-2.153-2.198-1.043-1.705-1.654-3.3-4.132-4.389-2.478-1.09-4.16-.748-5.58-1.953" transform="translate(-477 -4617) translate(479 4618) translate(0 .85)"/>
                    <path stroke="#D1A448" stroke-linecap="round" stroke-linejoin="round" stroke-width="1.875" d="M111.13 115.881s-6.04 1.578-10.806-2.412c-1.151-.963-2.234-1.862-3.206-2.661-3.053-2.51-5.005-4.038-4.505-3.484.66.73 1.445 2.334 2.46 4.557 1.014 2.224 5.581 5.075 9.241 3.8 0 0-1.11-.494-2.153-2.198-1.043-1.705-1.654-3.3-4.132-4.389-2.478-1.09-4.16-.748-5.58-1.953M97.142 110.867L94.546 110.74M94.873 111.444L97.981 111.52" transform="translate(-477 -4617) translate(479 4618) translate(0 .85)"/>
                    <path stroke="#44E7D9" stroke-linecap="round" stroke-linejoin="round" stroke-width="1.875" d="M94.264 44.216s3.213-.98 4.079-2.694c.865-1.715 1.236-3.429 2.1-4.286.866-.858 1.731-1.225 3.214-1.102 1.483.122 2.72 1.224 2.967 2.326.247 1.103.617 2.45-1.484 4.654-2.1 2.204-4.449 2.449-5.932 2.449-1.484 0-4.944-1.102-4.944-1.102" transform="translate(-477 -4617) translate(479 4618) translate(0 .85)"/>
                    <path stroke="#44E7D9" stroke-linecap="round" stroke-linejoin="round" stroke-width="1.875" d="M97.045 43.175s2.225.122 4.326-.122c2.1-.246 3.707-.98 4.82-1.715" transform="translate(-477 -4617) translate(479 4618) translate(0 .85)"/>
                    <path stroke="#44E7D9" stroke-linecap="round" stroke-linejoin="round" stroke-width="1.875" d="M100.131 36.803s1.588-.118 2.7.862c1.112.979 1.812 1.597 1.4 4.227" transform="translate(-477 -4617) translate(479 4618) translate(0 .85)"/>
                    <path stroke="#44E7D9" stroke-linecap="round" stroke-linejoin="round" stroke-width="1.875" d="M94.326 42.807s.865-.734 1.977-2.816c1.113-2.082 4.182-3.603 5.8-3.76M93.337 42.807s.989-.244.989.245c0 .49-.124 1.347 0 1.592.123.245-.618-.122-.99-.122-.37 0-.864.367-1.111.245-.248-.123 0-1.102 0-1.347 0-.245-.124-.613-.124-.613s.494-.122.989 0c.494.123.741.245.741.245M92.1 42.807s-2.224-1.959-2.965-2.938c-.742-.98-2.967-2.94-4.697-3.307s-3.708-.122-4.944 1.715c-1.236 1.837 2.966 3.918 4.202 4.04 1.236.123 6.427.368 7.169.49.741.123 1.236.185 1.236.185" transform="translate(-477 -4617) translate(479 4618) translate(0 .85)"/>
                    <path stroke="#44E7D9" stroke-linecap="round" stroke-linejoin="round" stroke-width="1.875" d="M87.775 42.563s-1.607-1.837-2.72-2.694c-1.112-.858-2.718-2.572-4.449-2.204 0 0-1.192.19-1.337 1.258-.146 1.068-.146 2.292.843 3.64.988 1.347 3.09 2.204 4.202 2.571 1.113.367 3.585.245 3.585.245" transform="translate(-477 -4617) translate(479 4618) translate(0 .85)"/>
                    <path fill="#000" d="M91.483 43.052s-2.966 1.837-4.573 3.307c0 0-4.203 2.326-4.82 6.857-.619 4.53-1.978 7.102-2.844 7.225-.865.122 1.236 0 1.236 0l.371 1.47 1.236-2.205s1.854-3.306 2.225-6c.37-2.694 2.225-5.143 4.079-6.123 1.854-.98 2.843-1.837 3.708-2.816" transform="translate(-477 -4617) translate(479 4618) translate(0 .85)"/>
                    <path stroke="#44E7D9" stroke-linecap="round" stroke-linejoin="round" stroke-width="1.875" d="M91.483 43.052s-2.966 1.837-4.573 3.307c0 0-4.203 2.326-4.82 6.857-.619 4.53-1.978 7.102-2.844 7.225-.865.122 1.236 0 1.236 0l.371 1.47 1.236-2.205s1.854-3.306 2.225-6c.37-2.694 2.225-5.143 4.079-6.123 1.854-.98 2.843-1.837 3.708-2.816" transform="translate(-477 -4617) translate(479 4618) translate(0 .85)"/>
                    <path fill="#000" d="M94.387 44.828s5.686 2.816 6.18 10.531c.495 7.715-.865 12.735-1.73 13.103l1.421-.306.248 1.714s2.472-3.674 2.472-9.797c0-6.122-1.236-10.775-1.855-11.755-.617-.98-2.044-2.732-2.044-2.732" transform="translate(-477 -4617) translate(479 4618) translate(0 .85)"/>
                    <path stroke="#44E7D9" stroke-linecap="round" stroke-linejoin="round" stroke-width="1.875" d="M94.387 44.828s5.686 2.816 6.18 10.531c.495 7.715-.865 12.735-1.73 13.103l1.421-.306.248 1.714s2.472-3.674 2.472-9.797c0-6.122-1.236-10.775-1.855-11.755-.617-.98-2.044-2.732-2.044-2.732" transform="translate(-477 -4617) translate(479 4618) translate(0 .85)"/>
                </g>
                <path fill="#44E7D9" fill-rule="nonzero" d="M66.05 252.285c.892 0 1.573-.197 2.043-.591.47-.395.705-.949.705-1.662v-.843c0-.95-.438-1.664-1.313-2.14l-1.897-1.053c-.659-.357-.988-.892-.988-1.605v-.924c0-.93.605-1.394 1.815-1.394.821 0 1.492.092 2.01.275v-.778c-.562-.162-1.25-.243-2.067-.243-.815 0-1.448.192-1.896.576-.449.383-.673.915-.673 1.596v.94c0 .984.454 1.724 1.362 2.221l1.896 1.038c.357.194.603.405.738.632.135.227.203.53.203.908v.794c0 1.005-.681 1.508-2.043 1.508-.756 0-1.453-.114-2.091-.34v.777c.573.206 1.305.308 2.196.308zm5.342-.08v-10.797h-.81v10.796h.81zm2.35 0l1.88-4.41 1.881 4.41h.892l-2.367-5.399 2.367-5.398h-.892l-1.88 4.426-1.88-4.426h-.892l2.35 5.398-2.35 5.398h.891zm11.607.161c.853 0 1.496-.23 1.929-.689.432-.459.648-1.056.648-1.79v-6.16c0-.736-.216-1.333-.648-1.792-.433-.46-1.076-.689-1.93-.689-.853 0-1.496.23-1.928.689-.433.46-.649 1.056-.649 1.791v6.16c0 .735.216 1.332.649 1.791.432.46 1.075.69 1.929.69zm0-.73c-1.178 0-1.767-.583-1.767-1.75v-6.16c0-1.167.589-1.75 1.767-1.75s1.767.583 1.767 1.75v6.16c0 1.167-.59 1.75-1.767 1.75zm5.657.568v-4.912h3.372v-.729h-3.372v-4.425h3.518v-.73h-4.328v10.796h.81zm8.948 0v-4.912h3.372v-.729h-3.372v-4.425h3.518v-.73h-4.328v10.796h.81zm5.868 0v-10.796h-.81v10.796h.81zm3.242 0v-4.458l1.731-.001c.096-.003.173-.008.23-.015l1.606 4.474h.891l-1.702-4.652c.93-.346 1.394-1.092 1.394-2.237v-1.475c0-.735-.216-1.324-.648-1.767-.433-.443-1.076-.665-1.93-.665h-2.382v10.796h.81zm1.573-5.22h-1.573v-4.846h1.573c1.178 0 1.767.567 1.767 1.702v1.475c0 1.113-.59 1.67-1.767 1.67zm9.385 5.22v-.73h-3.663v-4.344h3.193v-.73h-3.193v-4.262h3.663v-.73h-4.474v10.796h4.474z" transform="translate(-477 -4617) translate(479 4618)"/>
                <g>
                    <path stroke="#FFF" stroke-linecap="round" stroke-linejoin="round" stroke-width="1.875" d="M99.743 3.832L163.738 3.832 163.738 224.524M15.9 3.832L67.981 3.832M153.687 237.346L121.01 237.346M5.526 14.662L5.526 237.346 46.362 237.346" transform="translate(-477 -4617) translate(479 4618) translate(8.094 11.876)"/>
                    <path fill="#000" d="M5.253 0.025L7.871 4.517 10.489 9.009 5.253 9.009 0.018 9.009 2.636 4.517z" transform="translate(-477 -4617) translate(479 4618) translate(8.094 11.876)"/>
                    <path stroke="#D1A448" stroke-linecap="round" stroke-linejoin="round" stroke-width="1.875" d="M5.253 0.025L7.871 4.517 10.489 9.009 5.253 9.009 0.018 9.009 2.636 4.517z" transform="translate(-477 -4617) translate(479 4618) translate(8.094 11.876)"/>
                    <path fill="#000" d="M163.902 241.835L161.285 237.343 158.667 232.851 163.902 232.851 169.138 232.851 166.52 237.343z" transform="translate(-477 -4617) translate(479 4618) translate(8.094 11.876)"/>
                    <path stroke="#D1A448" stroke-linecap="round" stroke-linejoin="round" stroke-width="1.875" d="M163.902 241.835L161.285 237.343 158.667 232.851 163.902 232.851 169.138 232.851 166.52 237.343z" transform="translate(-477 -4617) translate(479 4618) translate(8.094 11.876)"/>
                </g>
                <path fill="#44E7D9" fill-rule="nonzero" d="M90.949 19.16l2.432-10.796h-.843c-1.265 5.706-1.989 9.019-2.173 9.937-.15-.735-.875-4.047-2.172-9.937h-.843l2.432 10.796h1.167zm4.701 0V8.364h-.81V19.16h.81z" transform="translate(-477 -4617) translate(479 4618)"/>
                <g>
                    <path stroke="#FFF" stroke-linecap="round" stroke-linejoin="round" stroke-width="1.875" d="M95.13 81.18c-.78-.007-.698 1.693-.698 1.693-1.058 49.406.688 90.995.688 90.995s2.022 2.503 3.8-.095" transform="translate(-477 -4617) translate(479 4618) translate(30.35 48.962)"/>
                    <path stroke="#FFF" stroke-linecap="round" stroke-linejoin="round" stroke-width="1.875" d="M95.087 81.188c.778-.078.768 1.626.768 1.626 3.128 49.216 3.131 90.884 3.131 90.884s-1.913 2.682-3.797.252M94.2 96.554s.358 3.287 2.688 4.303M94.128 104.688s1.03 5.577 3.295 7.397M94.103 109.473s.86 5.103 3.496 6.732M94.095 118.75s.965 4.031 3.81 5.22M94.103 121.877s.815 3.81 3.91 5.117M94.18 132.847s1.047 4.737 4.225 5.85M94.267 140.027s.818 3.849 4.317 6.262M94.315 143.138s1.262 3.694 4.315 5.15M94.432 149.656s.434 5.042 4.378 7.669M94.583 157.215s.186 2.717 4.33 7.173M94.542 154.728s1.273 4.488 4.334 6.813M94.795 164.35s-.17 3.634 4.215 6.811M128.857.258c-.738-.007-.66 1.603-.66 1.603-1.002 46.764.65 86.128.65 86.128s1.914 2.37 3.597-.09" transform="translate(-477 -4617) translate(479 4618) translate(30.35 48.962)"/>
                    <path stroke="#FFF" stroke-linecap="round" stroke-linejoin="round" stroke-width="1.875" d="M128.817.265c.736-.074.726 1.54.726 1.54 2.961 46.583 2.964 86.023 2.964 86.023s-1.811 2.54-3.594.238M127.977 14.81s.339 3.11 2.544 4.073M127.909 22.509s.975 5.279 3.118 7.002M127.885 27.038s.815 4.83 3.31 6.371M127.877 35.819s.913 3.815 3.606 4.94M127.885 38.78s.771 3.606 3.701 4.842M127.957 49.162s.991 4.484 4 5.536M128.04 55.958s.774 3.643 4.086 5.927M128.085 58.903s1.196 3.496 4.085 4.875M128.196 65.072s.411 4.772 4.144 7.26M128.34 72.227s.175 2.571 4.098 6.79M128.3 69.873s1.205 4.248 4.103 6.449M128.54 78.98s-.161 3.44 3.99 6.447M117.1 61.134c-.557-.006-.498 1.21-.498 1.21-.756 35.318.491 65.047.491 65.047s1.445 1.79 2.717-.068" transform="translate(-477 -4617) translate(479 4618) translate(30.35 48.962)"/>
                    <path stroke="#FFF" stroke-linecap="round" stroke-linejoin="round" stroke-width="1.875" d="M117.07 61.14c.556-.056.549 1.162.549 1.162 2.236 35.18 2.238 64.968 2.238 64.968s-1.367 1.917-2.714.18M116.436 72.123s.256 2.35 1.921 3.077M116.384 77.938s.737 3.987 2.355 5.288M116.367 81.359s.615 3.648 2.499 4.812M116.36 87.99s.69 2.882 2.724 3.732M116.367 90.226s.582 2.724 2.795 3.657M116.421 98.067s.749 3.387 3.02 4.182M116.484 103.2s.584 2.751 3.085 4.476M116.518 105.424s.902 2.64 3.085 3.682M116.602 110.083s.31 3.605 3.13 5.482M116.71 115.487s.132 1.942 3.095 5.127M116.68 113.71s.91 3.207 3.098 4.869M116.86 120.587s-.12 2.597 3.014 4.869M1.079 21.886c-.731-.007-.655 1.589-.655 1.589-.992 46.353.645 85.372.645 85.372s1.897 2.348 3.566-.09" transform="translate(-477 -4617) translate(479 4618) translate(30.35 48.962)"/>
                    <path stroke="#FFF" stroke-linecap="round" stroke-linejoin="round" stroke-width="1.875" d="M1.04 21.894c.729-.074.72 1.525.72 1.525 2.934 46.175 2.937 85.268 2.937 85.268s-1.795 2.517-3.562.236M.206 36.31s.337 3.083 2.523 4.038M.14 43.942s.965 5.232 3.09 6.94M.116 48.43s.807 4.789 3.28 6.316M.108 57.135s.905 3.781 3.574 4.897M.116 60.069s.764 3.575 3.668 4.8M.187 70.36s.983 4.445 3.964 5.488M.27 77.097s.766 3.61 4.05 5.875M.314 80.016s1.185 3.465 4.049 4.832M.424 86.13s.408 4.731 4.108 7.196M.566 93.223s.174 2.549 4.063 6.73M.527 90.89s1.194 4.21 4.067 6.391M.764 99.916s-.16 3.41 3.955 6.39M26.803 79.593c-.652-.006-.583 1.416-.583 1.416-.885 41.334.575 76.127.575 76.127s1.691 2.094 3.179-.08" transform="translate(-477 -4617) translate(479 4618) translate(30.35 48.962)"/>
                    <path stroke="#FFF" stroke-linecap="round" stroke-linejoin="round" stroke-width="1.875" d="M26.768 79.6c.65-.066.642 1.36.642 1.36 2.617 41.174 2.62 76.033 2.62 76.033s-1.601 2.244-3.177.21M26.025 92.454s.3 2.75 2.25 3.6M25.965 99.26s.862 4.665 2.757 6.188M25.944 103.263s.72 4.269 2.925 5.631M25.937 111.024s.807 3.372 3.187 4.367M25.945 113.64s.681 3.188 3.27 4.28M26.008 122.817s.876 3.963 3.535 4.893M26.082 128.824s.683 3.22 3.61 5.24M26.121 131.427s1.057 3.09 3.61 4.309M26.22 136.88s.363 4.218 3.662 6.415M26.346 143.204s.155 2.273 3.623 6M26.311 141.124s1.065 3.754 3.626 5.7M26.523 149.172s-.142 3.04 3.527 5.699" transform="translate(-477 -4617) translate(479 4618) translate(30.35 48.962)"/>
                    <path fill="#FFF" d="M68.12 24.406c0 .24-.197.434-.438.434-.242 0-.438-.194-.438-.434s.196-.433.438-.433c.241 0 .437.194.437.433M52.239 29.48c.31 0 .562.25.562.557 0 .308-.252.558-.562.558-.311 0-.563-.25-.563-.558 0-.308.252-.557.563-.557M44.518 51.537c0 .24-.196.434-.437.434-.242 0-.438-.194-.438-.434s.196-.434.438-.434c.241 0 .437.194.437.434M67.207 33.432c0 .308-.252.557-.563.557-.31 0-.563-.25-.563-.557 0-.308.252-.558.563-.558.31 0 .563.25.563.558M54.734 44.264c0 .308-.252.558-.563.558-.31 0-.562-.25-.562-.558 0-.308.252-.558.562-.558.311 0 .563.25.563.558M80.745 46.801c0 .171-.14.31-.312.31-.173 0-.313-.139-.313-.31 0-.171.14-.31.313-.31.172 0 .312.139.312.31M60.622 22.038c0 .41-.336.744-.75.744-.415 0-.75-.333-.75-.744 0-.41.335-.743.75-.743.414 0 .75.333.75.743M82.81 28.118c0 .24-.195.434-.437.434s-.438-.194-.438-.434.196-.433.438-.433.438.194.438.433M72.257 43.153c.31 0 .562.25.562.558 0 .308-.252.558-.562.558-.311 0-.563-.25-.563-.558 0-.308.252-.558.563-.558M75.603 14.695c0 .24-.196.433-.438.433s-.438-.194-.438-.433c0-.24.196-.434.438-.434s.438.194.438.434M82.566 36.11c0 .308-.252.558-.562.558-.311 0-.563-.25-.563-.558 0-.308.252-.558.563-.558.31 0 .562.25.562.558M86.718 42.2c0 .171-.14.31-.312.31-.173 0-.313-.139-.313-.31 0-.17.14-.31.313-.31.172 0 .312.14.312.31M71.775 53.454c0 .308-.252.557-.563.557-.311 0-.563-.25-.563-.557 0-.309.252-.558.563-.558.31 0 .563.25.563.558M78.857 23.297c0 .308-.253.557-.563.557-.311 0-.563-.25-.563-.557 0-.308.252-.558.563-.558.31 0 .563.25.563.558M49.997 25.31c0 .172-.14.31-.313.31-.172 0-.312-.138-.312-.31 0-.17.14-.31.312-.31.173 0 .313.14.313.31M74.235 29.368c0 .41-.336.743-.75.743-.415 0-.751-.333-.751-.743s.336-.744.75-.744c.415 0 .75.333.75.744M45.073 40.673c0 .171-.14.31-.313.31-.172 0-.312-.139-.312-.31 0-.171.14-.31.312-.31.173 0 .313.139.313.31M41.678 30.17c0 .24-.196.434-.438.434s-.438-.194-.438-.433c0-.24.196-.434.438-.434s.438.194.438.434M45.92 36.117c.31 0 .562.25.562.557 0 .308-.252.558-.562.558-.311 0-.563-.25-.563-.558 0-.308.252-.557.563-.557M75.782 36.186c0 .24-.196.433-.438.433s-.438-.194-.438-.433c0-.24.196-.434.438-.434s.438.194.438.434M58.3 13.535c0 .308-.251.557-.562.557-.31 0-.563-.25-.563-.557 0-.308.252-.558.563-.558.31 0 .563.25.563.558M50.912 19.039c0 .171-.14.31-.313.31-.172 0-.312-.139-.312-.31 0-.171.14-.31.312-.31.173 0 .313.139.313.31M39.575 47.262c0 .308-.252.558-.563.558-.311 0-.563-.25-.563-.558 0-.308.252-.557.563-.557.31 0 .563.25.563.557M51.966 53.833c0 .308-.252.558-.563.558-.31 0-.562-.25-.562-.558 0-.308.252-.558.562-.558.311 0 .563.25.563.558M50.792 42.919c0 .171-.14.31-.313.31s-.312-.139-.312-.31c0-.171.14-.31.312-.31.173 0 .313.139.313.31" transform="translate(-477 -4617) translate(479 4618) translate(30.35 48.962)"/>
                </g>
            </g>
        </g>
    </g>
</svg>
