<svg xmlns="http://www.w3.org/2000/svg" width="191" height="269" viewBox="0 0 191 269"><title>Паж Жезлов</title>
    <g fill="none" fill-rule="evenodd">
        <g>
            <g>
                <path fill="#2a1612" stroke="#FFF" stroke-linecap="round" stroke-linejoin="round" stroke-width="2.5" d="M177.475 265.368H9.604c-5.21 0-9.435-4.224-9.435-9.435V9.604C.169 4.393 4.393.169 9.604.169h167.871c5.211 0 9.435 4.224 9.435 9.435v246.329c0 5.21-4.224 9.435-9.435 9.435z" transform="translate(-775 -4980) translate(777 4982)"/>
                <path fill="#44E7D9" fill-rule="nonzero" d="M60.86 253.487v-3.874h1.573c.853 0 1.496-.221 1.929-.664.432-.444.648-1.033.648-1.767v-2.06c0-.734-.216-1.323-.648-1.766-.433-.443-1.076-.665-1.93-.665H60.05v10.796h.81zm1.573-4.603H60.86v-5.463h1.573c1.177 0 1.766.567 1.766 1.702v2.059c0 1.134-.589 1.702-1.766 1.702zm4.555 4.603l.729-3.16h3.08l.73 3.16h.842l-2.528-10.796h-1.168l-2.528 10.796h.843zm3.647-3.89h-2.756l1.378-5.982 1.378 5.982zm5.763 3.971c.848 0 1.629-.21 2.342-.632v-4.62h-.81v4.134c-.368.26-.935.389-1.703.389-1.113 0-1.67-.486-1.67-1.459v-6.484c0-1.027.644-1.54 1.93-1.54.67 0 1.324.103 1.961.308v-.794c-.605-.173-1.232-.26-1.88-.26-1.88 0-2.82.762-2.82 2.286v6.484c0 .767.229 1.324.688 1.67.46.346 1.113.518 1.962.518zm9.167-.08v-.73H81.9v-4.344h3.193v-.73h-3.193v-4.263h3.664v-.73H81.09v10.796h4.475zm7.359.161c.854 0 1.497-.23 1.929-.688.432-.46.648-1.057.648-1.792v-6.16c0-.734-.216-1.332-.648-1.79-.432-.46-1.075-.69-1.929-.69-.854 0-1.497.23-1.929.69-.432.458-.648 1.056-.648 1.79v6.16c0 .735.216 1.332.648 1.792.432.459 1.075.688 1.929.688zm0-.729c-1.178 0-1.767-.584-1.767-1.75v-6.16c0-1.168.589-1.751 1.767-1.751s1.767.583 1.767 1.75v6.16c0 1.167-.59 1.751-1.767 1.751zm5.657.567v-4.911h3.372v-.73h-3.372v-4.425h3.518v-.73h-4.328v10.796h.81zm8.948 0v-4.911h3.372v-.73h-3.372v-4.425h3.518v-.73h-4.328v10.796h.81zm5.869 0v-10.796h-.811v10.796h.81zm3.242 0v-4.457l1.73-.002c.097-.003.173-.007.231-.015l1.605 4.474h.891l-1.702-4.652c.93-.346 1.394-1.091 1.394-2.237v-1.475c0-.735-.216-1.324-.648-1.767-.432-.443-1.075-.665-1.929-.665h-2.383v10.796h.81zm1.572-5.22h-1.572v-4.846h1.572c1.178 0 1.767.567 1.767 1.702v1.475c0 1.113-.59 1.67-1.767 1.67zm9.386 5.22v-.73h-3.664v-4.343h3.194v-.73h-3.194v-4.263h3.664v-.73h-4.474v10.796h4.474z" transform="translate(-775 -4980) translate(777 4982)"/>
                <g>
                    <path stroke="#FFF" stroke-linecap="round" stroke-linejoin="round" stroke-width="1.875" d="M16.15 3.867L163.987 3.867 163.987 226.622M153.937 239.564L126.704 239.564M5.775 14.799L5.775 239.564 42.228 239.564" transform="translate(-775 -4980) translate(777 4982) translate(8.43 10.96)"/>
                    <path fill="#000" d="M164.149 242.494L161.531 237.96 158.913 233.426 164.149 233.426 169.384 233.426 166.766 237.96z" transform="translate(-775 -4980) translate(777 4982) translate(8.43 10.96)"/>
                    <path stroke="#D1A448" stroke-linecap="round" stroke-linejoin="round" stroke-width="1.875" d="M164.149 242.494L161.531 237.96 158.913 233.426 164.149 233.426 169.384 233.426 166.766 237.96z" transform="translate(-775 -4980) translate(777 4982) translate(8.43 10.96)"/>
                    <path fill="#000" d="M5.562 0.025L8.18 4.559 10.798 9.093 5.562 9.093 0.327 9.093 2.945 4.559z" transform="translate(-775 -4980) translate(777 4982) translate(8.43 10.96)"/>
                    <path stroke="#D1A448" stroke-linecap="round" stroke-linejoin="round" stroke-width="1.875" d="M5.562 0.025L8.18 4.559 10.798 9.093 5.562 9.093 0.327 9.093 2.945 4.559z" transform="translate(-775 -4980) translate(777 4982) translate(8.43 10.96)"/>
                    <path fill="#000" d="M60.77 144.229c.549-.456 1.484.809 1.484.809 29.605 34.792 52.654 65.604 52.654 65.604s.026 2.963-2.753 2.13" transform="translate(-775 -4980) translate(777 4982) translate(8.43 10.96)"/>
                    <path stroke="#FFF" stroke-linecap="round" stroke-linejoin="round" stroke-width="1.875" d="M60.77 144.229c.549-.456 1.484.809 1.484.809 29.605 34.792 52.654 65.604 52.654 65.604s.026 2.963-2.753 2.13" transform="translate(-775 -4980) translate(777 4982) translate(8.43 10.96)"/>
                    <path fill="#000" d="M60.805 144.21c-.598.394.404 1.609.404 1.609 26.522 37.077 50.855 66.937 50.855 66.937s2.924.816 2.843-2.016" transform="translate(-775 -4980) translate(777 4982) translate(8.43 10.96)"/>
                    <path stroke="#FFF" stroke-linecap="round" stroke-linejoin="round" stroke-width="1.875" d="M60.805 144.21c-.598.394.404 1.609.404 1.609 26.522 37.077 50.855 66.937 50.855 66.937s2.924.816 2.843-2.016" transform="translate(-775 -4980) translate(777 4982) translate(8.43 10.96)"/>
                    <path fill="#000" d="M70.409 154.707s1.665 2.563.604 4.64" transform="translate(-775 -4980) translate(777 4982) translate(8.43 10.96)"/>
                    <path stroke="#FFF" stroke-linecap="round" stroke-linejoin="round" stroke-width="1.875" d="M70.409 154.707s1.665 2.563.604 4.64" transform="translate(-775 -4980) translate(777 4982) translate(8.43 10.96)"/>
                    <path fill="#000" d="M75.21 160.495s2.526 4.591 1.981 7.206" transform="translate(-775 -4980) translate(777 4982) translate(8.43 10.96)"/>
                    <path stroke="#FFF" stroke-linecap="round" stroke-linejoin="round" stroke-width="1.875" d="M75.21 160.495s2.526 4.591 1.981 7.206" transform="translate(-775 -4980) translate(777 4982) translate(8.43 10.96)"/>
                    <path fill="#000" d="M78.022 163.909s2.37 4.155 1.45 6.846" transform="translate(-775 -4980) translate(777 4982) translate(8.43 10.96)"/>
                    <path stroke="#FFF" stroke-linecap="round" stroke-linejoin="round" stroke-width="1.875" d="M78.022 163.909s2.37 4.155 1.45 6.846" transform="translate(-775 -4980) translate(777 4982) translate(8.43 10.96)"/>
                    <path fill="#000" d="M83.446 170.552s1.67 3.447.344 5.944" transform="translate(-775 -4980) translate(777 4982) translate(8.43 10.96)"/>
                    <path stroke="#FFF" stroke-linecap="round" stroke-linejoin="round" stroke-width="1.875" d="M83.446 170.552s1.67 3.447.344 5.944" transform="translate(-775 -4980) translate(777 4982) translate(8.43 10.96)"/>
                    <path fill="#000" d="M85.267 172.798s1.646 3.202.211 5.928" transform="translate(-775 -4980) translate(777 4982) translate(8.43 10.96)"/>
                    <path stroke="#FFF" stroke-linecap="round" stroke-linejoin="round" stroke-width="1.875" d="M85.267 172.798s1.646 3.202.211 5.928" transform="translate(-775 -4980) translate(777 4982) translate(8.43 10.96)"/>
                    <path fill="#000" d="M91.619 180.702s2.023 4 .416 6.637" transform="translate(-775 -4980) translate(777 4982) translate(8.43 10.96)"/>
                    <path stroke="#FFF" stroke-linecap="round" stroke-linejoin="round" stroke-width="1.875" d="M91.619 180.702s2.023 4 .416 6.637" transform="translate(-775 -4980) translate(777 4982) translate(8.43 10.96)"/>
                    <path fill="#000" d="M95.75 185.898s1.667 3.231.593 6.985" transform="translate(-775 -4980) translate(777 4982) translate(8.43 10.96)"/>
                    <path stroke="#FFF" stroke-linecap="round" stroke-linejoin="round" stroke-width="1.875" d="M95.75 185.898s1.667 3.231.593 6.985" transform="translate(-775 -4980) translate(777 4982) translate(8.43 10.96)"/>
                    <path fill="#000" d="M97.533 188.155s1.26 3.378-.056 6.188" transform="translate(-775 -4980) translate(777 4982) translate(8.43 10.96)"/>
                    <path stroke="#FFF" stroke-linecap="round" stroke-linejoin="round" stroke-width="1.875" d="M97.533 188.155s1.26 3.378-.056 6.188" transform="translate(-775 -4980) translate(777 4982) translate(8.43 10.96)"/>
                    <path fill="#000" d="M101.256 192.893s2.636 3.865 1.37 8.03" transform="translate(-775 -4980) translate(777 4982) translate(8.43 10.96)"/>
                    <path stroke="#FFF" stroke-linecap="round" stroke-linejoin="round" stroke-width="1.875" d="M101.256 192.893s2.636 3.865 1.37 8.03" transform="translate(-775 -4980) translate(777 4982) translate(8.43 10.96)"/>
                    <path fill="#000" d="M105.564 198.398s1.454 2.054 1.114 7.645" transform="translate(-775 -4980) translate(777 4982) translate(8.43 10.96)"/>
                    <path stroke="#FFF" stroke-linecap="round" stroke-linejoin="round" stroke-width="1.875" d="M105.564 198.398s1.454 2.054 1.114 7.645" transform="translate(-775 -4980) translate(777 4982) translate(8.43 10.96)"/>
                    <path fill="#000" d="M104.14 196.592s1.718 3.952.902 7.39" transform="translate(-775 -4980) translate(777 4982) translate(8.43 10.96)"/>
                    <path stroke="#FFF" stroke-linecap="round" stroke-linejoin="round" stroke-width="1.875" d="M104.14 196.592s1.718 3.952.902 7.39" transform="translate(-775 -4980) translate(777 4982) translate(8.43 10.96)"/>
                    <path fill="#000" d="M109.58 203.633s2.243 2.505.985 7.32" transform="translate(-775 -4980) translate(777 4982) translate(8.43 10.96)"/>
                    <path stroke="#FFF" stroke-linecap="round" stroke-linejoin="round" stroke-width="1.875" d="M109.58 203.633s2.243 2.505.985 7.32" transform="translate(-775 -4980) translate(777 4982) translate(8.43 10.96)"/>
                    <path fill="#000" d="M110.369 144.229c-.549-.456-1.485.809-1.485.809C79.28 179.83 56.23 210.642 56.23 210.642s-.026 2.963 2.754 2.13" transform="translate(-775 -4980) translate(777 4982) translate(8.43 10.96)"/>
                    <path stroke="#FFF" stroke-linecap="round" stroke-linejoin="round" stroke-width="1.875" d="M110.369 144.229c-.549-.456-1.485.809-1.485.809C79.28 179.83 56.23 210.642 56.23 210.642s-.026 2.963 2.754 2.13" transform="translate(-775 -4980) translate(777 4982) translate(8.43 10.96)"/>
                    <path fill="#000" d="M110.334 144.21c.598.394-.404 1.609-.404 1.609-26.522 37.077-50.855 66.937-50.855 66.937s-2.925.816-2.843-2.016" transform="translate(-775 -4980) translate(777 4982) translate(8.43 10.96)"/>
                    <path stroke="#FFF" stroke-linecap="round" stroke-linejoin="round" stroke-width="1.875" d="M110.334 144.21c.598.394-.404 1.609-.404 1.609-26.522 37.077-50.855 66.937-50.855 66.937s-2.925.816-2.843-2.016" transform="translate(-775 -4980) translate(777 4982) translate(8.43 10.96)"/>
                    <path fill="#000" d="M100.73 154.707s-1.665 2.563-.604 4.64" transform="translate(-775 -4980) translate(777 4982) translate(8.43 10.96)"/>
                    <path stroke="#FFF" stroke-linecap="round" stroke-linejoin="round" stroke-width="1.875" d="M100.73 154.707s-1.665 2.563-.604 4.64" transform="translate(-775 -4980) translate(777 4982) translate(8.43 10.96)"/>
                    <path fill="#000" d="M95.929 160.495s-2.526 4.591-1.981 7.206" transform="translate(-775 -4980) translate(777 4982) translate(8.43 10.96)"/>
                    <path stroke="#FFF" stroke-linecap="round" stroke-linejoin="round" stroke-width="1.875" d="M95.929 160.495s-2.526 4.591-1.981 7.206" transform="translate(-775 -4980) translate(777 4982) translate(8.43 10.96)"/>
                    <path fill="#000" d="M93.117 163.909s-2.37 4.155-1.45 6.846" transform="translate(-775 -4980) translate(777 4982) translate(8.43 10.96)"/>
                    <path stroke="#FFF" stroke-linecap="round" stroke-linejoin="round" stroke-width="1.875" d="M93.117 163.909s-2.37 4.155-1.45 6.846" transform="translate(-775 -4980) translate(777 4982) translate(8.43 10.96)"/>
                    <path fill="#000" d="M87.693 170.552s-1.67 3.447-.344 5.944" transform="translate(-775 -4980) translate(777 4982) translate(8.43 10.96)"/>
                    <path stroke="#FFF" stroke-linecap="round" stroke-linejoin="round" stroke-width="1.875" d="M87.693 170.552s-1.67 3.447-.344 5.944" transform="translate(-775 -4980) translate(777 4982) translate(8.43 10.96)"/>
                    <path fill="#000" d="M85.872 172.798s-1.647 3.202-.212 5.928" transform="translate(-775 -4980) translate(777 4982) translate(8.43 10.96)"/>
                    <path stroke="#FFF" stroke-linecap="round" stroke-linejoin="round" stroke-width="1.875" d="M85.872 172.798s-1.647 3.202-.212 5.928" transform="translate(-775 -4980) translate(777 4982) translate(8.43 10.96)"/>
                    <path fill="#000" d="M79.52 180.702s-2.023 4-.416 6.637" transform="translate(-775 -4980) translate(777 4982) translate(8.43 10.96)"/>
                    <path stroke="#FFF" stroke-linecap="round" stroke-linejoin="round" stroke-width="1.875" d="M79.52 180.702s-2.023 4-.416 6.637" transform="translate(-775 -4980) translate(777 4982) translate(8.43 10.96)"/>
                    <path fill="#000" d="M75.39 185.898s-1.668 3.231-.594 6.985" transform="translate(-775 -4980) translate(777 4982) translate(8.43 10.96)"/>
                    <path stroke="#FFF" stroke-linecap="round" stroke-linejoin="round" stroke-width="1.875" d="M75.39 185.898s-1.668 3.231-.594 6.985" transform="translate(-775 -4980) translate(777 4982) translate(8.43 10.96)"/>
                    <path fill="#000" d="M73.606 188.155s-1.26 3.378.056 6.188" transform="translate(-775 -4980) translate(777 4982) translate(8.43 10.96)"/>
                    <path stroke="#FFF" stroke-linecap="round" stroke-linejoin="round" stroke-width="1.875" d="M73.606 188.155s-1.26 3.378.056 6.188" transform="translate(-775 -4980) translate(777 4982) translate(8.43 10.96)"/>
                    <path fill="#000" d="M69.883 192.893s-2.637 3.865-1.37 8.03" transform="translate(-775 -4980) translate(777 4982) translate(8.43 10.96)"/>
                    <path stroke="#FFF" stroke-linecap="round" stroke-linejoin="round" stroke-width="1.875" d="M69.883 192.893s-2.637 3.865-1.37 8.03" transform="translate(-775 -4980) translate(777 4982) translate(8.43 10.96)"/>
                    <path fill="#000" d="M65.575 198.398s-1.455 2.054-1.114 7.645" transform="translate(-775 -4980) translate(777 4982) translate(8.43 10.96)"/>
                    <path stroke="#FFF" stroke-linecap="round" stroke-linejoin="round" stroke-width="1.875" d="M65.575 198.398s-1.455 2.054-1.114 7.645" transform="translate(-775 -4980) translate(777 4982) translate(8.43 10.96)"/>
                    <path fill="#000" d="M66.998 196.592s-1.717 3.952-.901 7.39" transform="translate(-775 -4980) translate(777 4982) translate(8.43 10.96)"/>
                    <path stroke="#FFF" stroke-linecap="round" stroke-linejoin="round" stroke-width="1.875" d="M66.998 196.592s-1.717 3.952-.901 7.39" transform="translate(-775 -4980) translate(777 4982) translate(8.43 10.96)"/>
                    <path fill="#000" d="M61.559 203.633s-2.243 2.505-.985 7.32" transform="translate(-775 -4980) translate(777 4982) translate(8.43 10.96)"/>
                    <path stroke="#FFF" stroke-linecap="round" stroke-linejoin="round" stroke-width="1.875" d="M61.559 203.633s-2.243 2.505-.985 7.32" transform="translate(-775 -4980) translate(777 4982) translate(8.43 10.96)"/>
                    <path stroke="#D1A448" stroke-linecap="round" stroke-linejoin="round" stroke-width="1.875" d="M85.313 157.773s-4.548-.568-2.463-5.685c0 0 .379-.757 1.895-3.032 1.516-2.274 1.326-3.79 1.326-3.79s3.601 4.359 3.411 8.338c-.189 3.98-2.463 3.98-4.169 4.17z" transform="translate(-775 -4980) translate(777 4982) translate(8.43 10.96)"/>
                    <path stroke="#D1A448" stroke-linecap="round" stroke-linejoin="round" stroke-width="1.875" d="M84.94 157.666s-2.28-.654-.805-3.805c0 0 .254-.463 1.21-1.826s.98-2.348.98-2.348 1.493 3.026 1.078 5.569c-.415 2.542-1.577 2.397-2.463 2.41z" transform="translate(-775 -4980) translate(777 4982) translate(8.43 10.96)"/>
                    <path stroke="#D1A448" stroke-linecap="round" stroke-linejoin="round" stroke-width="1.875" d="M84.934 157.773s-5.874-.757-5.685-8.148c0 0 .38-3.6 3.032-6.633 0 0-.758 2.274-.758 3.6 0 0 1.895-2.842 2.843-5.874.947-3.032.19-5.306.19-5.306s6.821 5.495 7.2 13.834c-.017.034-.091 4.726-2.842 7.58 0 0-2.085 1.516-3.98.947zM86.193 196.29s4.548.57 2.463 5.685c0 0-.379.758-1.895 3.033-1.516 2.274-1.326 3.79-1.326 3.79s-3.6-4.359-3.411-8.338c.19-3.98 2.463-3.98 4.169-4.17z" transform="translate(-775 -4980) translate(777 4982) translate(8.43 10.96)"/>
                    <path stroke="#D1A448" stroke-linecap="round" stroke-linejoin="round" stroke-width="1.875" d="M86.566 196.397s2.28.654.805 3.806c0 0-.254.463-1.21 1.826-.957 1.363-.98 2.348-.98 2.348s-1.493-3.026-1.078-5.569c.414-2.542 1.577-2.397 2.463-2.41z" transform="translate(-775 -4980) translate(777 4982) translate(8.43 10.96)"/>
                    <path stroke="#D1A448" stroke-linecap="round" stroke-linejoin="round" stroke-width="1.875" d="M86.572 196.29s5.874.758 5.685 8.15c0 0-.38 3.6-3.032 6.632 0 0 .758-2.274.758-3.6 0 0-1.895 2.842-2.843 5.874-.947 3.032-.19 5.306-.19 5.306s-6.821-5.495-7.2-13.834c.017-.034.09-4.726 2.842-7.58 0 0 2.085-1.516 3.98-.948zM65.947 84.83c.622-1.547 2.277-5.907 3.139-10.509 1.075-5.738 6.09-8.928 12.58-10.32" transform="translate(-775 -4980) translate(777 4982) translate(8.43 10.96)"/>
                    <path stroke="#FFF" stroke-linecap="round" stroke-linejoin="round" stroke-width="1.875" d="M101.403 70.015s1.098 3.03-.458 5.926c-1.557 2.896-6.896 9.357-10.302 11.69-3.407 2.331-9.093 3.295-14.403 3.025-5.31-.27-10.537-5.233-10.537-5.233" transform="translate(-775 -4980) translate(777 4982) translate(8.43 10.96)"/>
                    <path stroke="#D1A448" stroke-linecap="round" stroke-linejoin="round" stroke-width="1.875" d="M78.125 68.988s2.55-3.942 7.806-5.71c5.257-1.768 6.678-2.009 10.567-1.498M67.64 78.823s-8.398 1.26-10.571 3.969c-2.173 2.708-4.159 4.799-3.865 8.258.294 3.46 5.093 7.618 7.613 10.408 2.52 2.79 2.332 3.407 6.22 3.917 3.888.511 8.153-.211 10.995-.693 2.843-.482 8.582.593 8.582.593M88.84 104.605s4.264-.722 8.851-4.716c4.588-3.995 4.963-5.228 8.182-6.943 3.219-1.716 6.414-12.2 6.414-12.2M113.038 78.279s2.685-6.597-1.122-11.8c0 0-2.091-1.986-5.362-2.308" transform="translate(-775 -4980) translate(777 4982) translate(8.43 10.96)"/>
                    <path stroke="#FFF" stroke-linecap="round" stroke-linejoin="round" stroke-width="1.875" d="M87.1 92.617c-5.256 1.769-10.378.882-13.65.559-3.271-.323-6.486-2.857-8.258-3.865-2.145-1.22-.347-5.497.458-5.926M88.71 91.76s9.28-3.913 12.394-9.704c3.112-5.792 2.683-6.596 2.818-9.251 0 0-.481-2.843-1.527-3.835" transform="translate(-775 -4980) translate(777 4982) translate(8.43 10.96)"/>
                    <path stroke="#44E7D9" stroke-linecap="round" stroke-linejoin="round" stroke-width="1.875" d="M96.974 80.124s-1.715-3.22-1.151-5.07c.564-1.85 3.3-6.408 5.796-12.387 2.497-5.98 3.624-9.68 3.142-12.523-.481-2.843-3.001-5.633-3.001-5.633s1.527 3.836-.217 7.348c-1.745 3.513-6.549 14.855-6.925 16.089-.375 1.233-1.88 6.167 1.017 7.723" transform="translate(-775 -4980) translate(777 4982) translate(8.43 10.96)"/>
                    <path stroke="#44E7D9" stroke-linecap="round" stroke-linejoin="round" stroke-width="1.875" d="M103.422 45.692s3.378 4.4 4.476 7.43c1.099 3.03-2.472 14.749-7.488 17.939-5.016 3.189-4.587 3.994-4.587 3.994" transform="translate(-775 -4980) translate(777 4982) translate(8.43 10.96)"/>
                    <path stroke="#D1A448" stroke-linecap="round" stroke-linejoin="round" stroke-width="1.875" d="M61.516 96.953s4.558 2.737 5.174 2.925M64.975 96.66s1.662 1.18 2.896 1.556M81.762 99.078s4.693.082 5.686-.963M84.364 97.175s2.843-.482 3.648-.91M82.625 85.187s2.655.135 4.264-.723M70.164 71.495s1.524.923 3.562.87M69.44 72.92s2.3 1.537 4.339 1.484M69.017 75.257s3.393 1.426 5.431 1.372M68.376 77.47s3.282 1.68 6.125 1.198M67.762 79.647s2.716 1.165 4.754 1.112M67.084 81.753s2.642 1.526 4.68 1.473M66.54 83.656s1.39 1.097 2.622 1.473M86.22 82.239s4.264-.723 5.444-2.385" transform="translate(-775 -4980) translate(777 4982) translate(8.43 10.96)"/>
                    <path stroke="#44E7D9" stroke-linecap="round" stroke-linejoin="round" stroke-width="1.875" d="M106.21 49.784l-1.358 2.275s-1.888-2.651-2.437-3.061M107.281 52.934l-3.064 2.625s-1.564-1.825-3.138-2.736M107.908 56.684l-4.874 2.434s-2.111-2.598-3.29-3.36M106.84 60.912l-5.473 2.352s-1.222-2.394-2.884-3.575M104.938 65.45c-1.428.663-5.03 1.445-5.03 1.445l-2.977-4.642M102.395 68.969L98.526 69.353 95.548 65.566M94.385 68.755L97.181 72.029 99.126 71.904" transform="translate(-775 -4980) translate(777 4982) translate(8.43 10.96)"/>
                    <path fill="#44E7D9" d="M131.307 147.601L130.729 144.97 128.177 143.995 130.807 143.664 131.536 140.865 132.114 143.742 134.666 144.223 132.036 144.802zM148.24 121.447L147.883 119.825 146.31 119.224 147.931 119.02 148.38 117.294 148.737 119.067 150.311 119.364 148.689 119.721zM123.075 118.652L122.304 115.146 118.903 113.847 122.408 113.405 123.38 109.674 124.15 113.509 127.552 114.15 124.047 114.921zM141.623 69.754L141.266 68.132 139.693 67.531 141.314 67.327 141.764 65.601 142.12 67.374 143.694 67.671 142.072 68.028zM124.415 79.616c-.132-.314.015-.676.33-.808.313-.132.675.016.807.33s-.015.675-.33.807c-.313.132-.675-.015-.807-.33M118.63 132.472c-.073-.175.009-.376.183-.449.175-.074.376.008.45.183.072.174-.01.375-.184.449-.174.073-.375-.01-.449-.183M134.084 207.404L133.505 204.774 130.953 203.799 133.583 203.467 134.312 200.668 134.89 203.545 137.442 204.026 134.812 204.605zM125.852 178.455L125.081 174.949 121.68 173.65 125.185 173.208 126.156 169.477 126.926 173.312 130.328 173.953 126.823 174.724zM142.367 87.823c-.133-.314.015-.676.33-.808.313-.132.674.016.806.33.133.314-.015.675-.329.807s-.675-.015-.807-.33M121.407 192.275c-.074-.175.008-.375.183-.449.174-.073.375.008.448.183.074.174-.008.375-.183.449-.174.073-.375-.009-.448-.183M122.342 35.805L121.711 32.939 118.931 31.877 121.796 31.515 122.591 28.466 123.22 31.6 126.002 32.125 123.135 32.755zM120.43 45.796c0 .34-.277.617-.617.617-.34 0-.617-.277-.617-.617 0-.34.277-.617.617-.617.34 0 .617.276.617.617M143.999 48.444L143.524 46.283 141.427 45.482 143.588 45.21 144.186 42.911 144.661 45.274 146.758 45.669 144.597 46.145zM33.403 92.99L33.981 95.621 36.533 96.596 33.903 96.927 33.175 99.726 32.597 96.849 30.044 96.368 32.674 95.79zM21.866 121.168L22.223 122.789 23.796 123.39 22.175 123.595 21.725 125.32 21.369 123.547 19.795 123.25 21.417 122.893zM60.183 121.939L60.953 125.445 64.354 126.744 60.85 127.186 59.878 130.917 59.108 127.082 55.706 126.441 59.211 125.67zM38.937 172.186L39.294 173.808 40.867 174.409 39.246 174.613 38.796 176.339 38.44 174.565 36.866 174.269 38.488 173.912zM62.215 166.37c.132.315-.015.676-.33.808-.313.132-.674-.015-.807-.33-.132-.313.016-.675.33-.807s.675.016.807.33M46.08 108.12c.073.174-.009.375-.183.448-.175.074-.376-.008-.449-.183-.073-.174.009-.375.183-.448.175-.074.375.008.449.182M41.081 23.07L41.659 25.701 44.211 26.675 41.581 27.007 40.853 29.806 40.274 26.929 37.722 26.448 40.352 25.869zM38.859 62.136L39.63 65.642 43.03 66.941 39.526 67.383 38.554 71.114 37.784 67.279 34.382 66.638 37.887 65.867zM22.344 152.768c.131.314-.016.676-.33.808s-.675-.016-.807-.33.015-.675.329-.807.675.015.808.33M43.303 48.316c.074.175-.008.375-.182.449-.175.073-.376-.008-.45-.183-.072-.174.01-.375.184-.449.174-.073.375.009.448.183M42.368 204.786L42.999 207.652 45.779 208.714 42.914 209.076 42.12 212.125 41.49 208.991 38.709 208.466 41.575 207.836zM44.28 194.795c0-.34.277-.617.617-.617.34 0 .617.277.617.617 0 .34-.276.617-.617.617-.34 0-.616-.276-.616-.617M20.711 192.147L21.187 194.308 23.283 195.109 21.123 195.381 20.524 197.68 20.049 195.317 17.952 194.922 20.113 194.446zM95.75 15.944L95.405 14.373 93.881 13.791 95.451 13.593 95.886 11.922 96.231 13.64 97.755 13.927 96.185 14.272zM60.065 40.427L60.453 42.191 62.164 42.845 60.401 43.068 59.912 44.945 59.525 43.015 57.813 42.693 59.577 42.304zM60.746 18.051c.073.175-.009.375-.183.449-.175.073-.375-.009-.449-.183-.073-.174.009-.375.183-.449.175-.073.376.009.449.183M86.55 42.77c-.2-.476.023-1.026.5-1.227.477-.2 1.027.024 1.228.501.2.477-.024 1.027-.5 1.227-.478.201-1.028-.023-1.228-.5M104.01 116.856L103.59 114.831 101.733 114.08 103.646 113.825 104.176 111.67 104.597 113.885 106.454 114.255 104.541 114.701zM46.338 145.768L46.853 148.245 49.124 149.163 46.783 149.476 46.135 152.112 45.621 149.402 43.349 148.949 45.69 148.404zM80.56 116.88c.049.123-.006.265-.122.317-.117.052-.251-.006-.3-.13-.05-.123.006-.264.122-.316.117-.052.25.006.3.129M97.79 126.722c-.134-.337.015-.726.334-.868.319-.142.685.017.82.354.134.337-.016.726-.335.868-.319.141-.685-.017-.82-.354" transform="translate(-775 -4980) translate(777 4982) translate(8.43 10.96)"/>
                </g>
            </g>
        </g>
    </g>
</svg>
