<svg xmlns="http://www.w3.org/2000/svg" xmlns:xlink="http://www.w3.org/1999/xlink" width="191" height="267" viewBox="0 0 191 267"><title>Пятёрка Пентаклей</title>
    <defs>
        <path id="hdcnopaewa" d="M0 264.947L187.079 264.947 187.079 0.167 0 0.167z"/>
    </defs>
    <g fill="none" fill-rule="evenodd">
        <g>
            <g>
                <path fill="#182018" stroke="#FFF" stroke-linecap="round" stroke-linejoin="round" stroke-width="2.5" d="M177.475 263.112H9.604c-5.21 0-9.435-4.185-9.435-9.348V9.716C.169 4.553 4.393.368 9.604.368h167.871c5.211 0 9.435 4.185 9.435 9.348v244.048c0 5.163-4.224 9.348-9.435 9.348z" transform="translate(-192 -3066) translate(194 3067)"/>
                <path fill="#44E7D9" fill-rule="nonzero" d="M58.048 251.387v-4.911h3.372v-.73h-3.372v-4.425h3.518v-.73h-4.329v10.796h.811zm5.868 0v-10.796h-.81v10.796h.81zm5.058 0l2.431-10.796h-.843c-1.264 5.706-1.988 9.018-2.172 9.937-.151-.735-.875-4.047-2.172-9.937h-.843l2.432 10.796h1.167zm8.364 0v-.73h-3.663v-4.344h3.193v-.729h-3.193v-4.263h3.663v-.73h-4.474v10.796h4.474zm7.36.162c.853 0 1.496-.23 1.929-.689.432-.459.648-1.056.648-1.79v-6.16c0-.736-.216-1.333-.648-1.792-.433-.46-1.076-.689-1.93-.689-.853 0-1.496.23-1.928.689-.433.46-.649 1.056-.649 1.791v6.16c0 .735.216 1.332.649 1.791.432.46 1.075.69 1.929.69zm0-.73c-1.178 0-1.767-.583-1.767-1.75v-6.16c0-1.167.589-1.75 1.767-1.75s1.767.583 1.767 1.75v6.16c0 1.167-.59 1.75-1.767 1.75zm5.657.568v-4.911h3.372v-.73h-3.372v-4.425h3.518v-.73h-4.329v10.796h.811zm12.612 0v-.73h-3.664v-4.344h3.193v-.729h-3.193v-4.263h3.664v-.73h-4.474v10.796h4.474zm1.815 0l.73-3.16h3.08l.729 3.16h.843l-2.529-10.796h-1.167l-2.529 10.796h.843zm3.647-3.89h-2.755l1.378-5.982 1.377 5.982zm4.085 3.89v-4.458l1.731-.001c.096-.003.173-.008.23-.015l1.606 4.474h.891l-1.702-4.652c.93-.346 1.394-1.092 1.394-2.237v-1.475c0-.735-.216-1.324-.648-1.767-.432-.443-1.075-.665-1.93-.665h-2.382v10.796h.81zm1.573-5.22h-1.573v-4.846h1.573c1.178 0 1.767.567 1.767 1.702v1.475c0 1.113-.59 1.67-1.767 1.67zm6.808 5.22v-10.066h2.14v-.73h-5.09v.73h2.14v10.066h.81zm4.328 0v-4.928h3.793v4.928h.827v-10.796h-.827v5.139h-3.793v-5.139h-.81v10.796h.81z" transform="translate(-192 -3066) translate(194 3067)"/>
                <g>
                    <path stroke="#FFF" stroke-linecap="round" stroke-linejoin="round" stroke-width="1.875" d="M153.937 237.346L132.1 237.346M5.776 14.662L5.776 237.346 37.17 237.346" transform="translate(-192 -3066) translate(194 3067) translate(8.43 11.06)"/>
                    <path stroke="#D1A448" stroke-linecap="round" stroke-linejoin="round" stroke-width="1.875" d="M5.503 9.009L2.886 4.517 0.268 0.025 5.503 0.025 10.739 0.025 8.121 4.517z" transform="translate(-192 -3066) translate(194 3067) translate(8.43 11.06)"/>
                    <g>
                        <path fill="#000" d="M10.73 0.495L0.276 0.495" transform="translate(-192 -3066) translate(194 3067) translate(8.43 11.06) translate(0 4.678)"/>
                        <path stroke="#D1A448" stroke-linecap="round" stroke-linejoin="round" stroke-width="1.875" d="M10.73 0.495L0.276 0.495" transform="translate(-192 -3066) translate(194 3067) translate(8.43 11.06) translate(0 4.678)"/>
                    </g>
                    <path stroke="#D1A448" stroke-linecap="round" stroke-linejoin="round" stroke-width="1.875" d="M164.152 231.848L166.77 236.34 169.387 240.833 164.152 240.833 158.917 240.833 161.535 236.34z" transform="translate(-192 -3066) translate(194 3067) translate(8.43 11.06)"/>
                    <g>
                        <path fill="#000" d="M0.09 0.482L10.544 0.482" transform="translate(-192 -3066) translate(194 3067) translate(8.43 11.06) translate(158.835 235.212)"/>
                        <path stroke="#D1A448" stroke-linecap="round" stroke-linejoin="round" stroke-width="1.875" d="M0.09 0.482L10.544 0.482" transform="translate(-192 -3066) translate(194 3067) translate(8.43 11.06) translate(158.835 235.212)"/>
                    </g>
                    <path stroke="#FFF" stroke-linecap="round" stroke-linejoin="round" stroke-width="1.875" d="M101.088 3.425L165.082 3.425 165.082 224.117M17.245 3.425L69.388 3.425" transform="translate(-192 -3066) translate(194 3067) translate(8.43 11.06)"/>
                </g>
                <path fill="#44E7D9" fill-rule="nonzero" d="M94.252 17.936L96.684 7.14h-.843c-1.265 5.706-1.989 9.019-2.173 9.937-.15-.735-.875-4.047-2.172-9.937h-.843l2.432 10.796h1.167z" transform="translate(-192 -3066) translate(194 3067)"/>
                <g transform="translate(-192 -3066) translate(194 3067) translate(0 .034)">
                    <path stroke="#D1A448" stroke-linecap="round" stroke-linejoin="round" stroke-width="1.875" d="M67.24 114.451c0 5.28 4.32 9.56 9.649 9.56 5.329 0 9.65-4.28 9.65-9.56s-4.321-9.56-9.65-9.56c-5.33 0-9.65 4.28-9.65 9.56z"/>
                    <path stroke="#D1A448" stroke-linecap="round" stroke-linejoin="round" stroke-width="1.875" d="M71.024 121.534L76.954 105.317 82.865 121.534 68.128 111.73 85.699 111.73z"/>
                    <path stroke="#D1A448" stroke-linecap="round" stroke-linejoin="round" stroke-width="1.875" d="M87.687 114.44c0-5.91-4.835-10.7-10.798-10.7-5.964 0-10.799 4.79-10.799 10.7 0 5.908 4.835 10.698 10.799 10.698 5.963 0 10.798-4.79 10.798-10.699zM98.278 114.451c0 5.28 4.32 9.56 9.65 9.56 5.329 0 9.649-4.28 9.649-9.56s-4.32-9.56-9.65-9.56c-5.329 0-9.65 4.28-9.65 9.56z"/>
                    <path stroke="#D1A448" stroke-linecap="round" stroke-linejoin="round" stroke-width="1.875" d="M102.062 121.534L107.993 105.317 113.903 121.534 99.167 111.73 116.738 111.73z"/>
                    <path stroke="#D1A448" stroke-linecap="round" stroke-linejoin="round" stroke-width="1.875" d="M118.726 114.44c0-5.91-4.835-10.7-10.799-10.7-5.963 0-10.798 4.79-10.798 10.7 0 5.908 4.835 10.698 10.798 10.698 5.964 0 10.799-4.79 10.799-10.699zM67.24 88.688c0 5.28 4.32 9.56 9.649 9.56 5.329 0 9.65-4.28 9.65-9.56s-4.321-9.56-9.65-9.56c-5.33 0-9.65 4.28-9.65 9.56z"/>
                    <path stroke="#D1A448" stroke-linecap="round" stroke-linejoin="round" stroke-width="1.875" d="M71.024 95.77L76.954 79.554 82.865 95.77 68.128 85.967 85.699 85.967z"/>
                    <path stroke="#D1A448" stroke-linecap="round" stroke-linejoin="round" stroke-width="1.875" d="M87.687 88.676c0-5.909-4.835-10.699-10.798-10.699-5.964 0-10.799 4.79-10.799 10.699 0 5.908 4.835 10.698 10.799 10.698 5.963 0 10.798-4.79 10.798-10.698zM98.278 88.688c0 5.28 4.32 9.56 9.65 9.56 5.329 0 9.649-4.28 9.649-9.56s-4.32-9.56-9.65-9.56c-5.329 0-9.65 4.28-9.65 9.56z"/>
                    <path stroke="#D1A448" stroke-linecap="round" stroke-linejoin="round" stroke-width="1.875" d="M102.062 95.77L107.993 79.554 113.903 95.77 99.167 85.967 116.738 85.967z"/>
                    <path stroke="#D1A448" stroke-linecap="round" stroke-linejoin="round" stroke-width="1.875" d="M118.726 88.676c0-5.909-4.835-10.699-10.799-10.699-5.963 0-10.798 4.79-10.798 10.699 0 5.908 4.835 10.698 10.798 10.698 5.964 0 10.799-4.79 10.799-10.698zM82.776 65.355c0 5.28 4.32 9.56 9.65 9.56 5.328 0 9.649-4.28 9.649-9.56s-4.32-9.56-9.65-9.56-9.65 4.28-9.65 9.56z"/>
                    <path stroke="#D1A448" stroke-linecap="round" stroke-linejoin="round" stroke-width="1.875" d="M86.56 72.438L92.491 56.221 98.401 72.438 83.664 62.634 101.235 62.634z"/>
                    <path stroke="#D1A448" stroke-linecap="round" stroke-linejoin="round" stroke-width="1.875" d="M103.223 65.343c0-5.909-4.834-10.699-10.798-10.699s-10.798 4.79-10.798 10.699c0 5.908 4.834 10.698 10.798 10.698s10.798-4.79 10.798-10.698z"/>
                    <path stroke="#FFF" stroke-linecap="round" stroke-linejoin="round" stroke-width="1.875" d="M92.383 76.159L92.383 130.834M98.278 93.476L92.45 96.281M86.061 94.128L92.184 96.227M98.369 119.695L92.541 122.5M86.152 120.346L92.275 122.446"/>
                    <mask id="ew4gwt1upb" fill="#fff">
                        <use xlink:href="#hdcnopaewa"/>
                    </mask>
                    <path stroke="#FFF" stroke-linecap="round" stroke-linejoin="round" stroke-width="1.875" d="M61.738 140.302L123.858 140.302 123.858 45.317 61.738 45.317z" mask="url(#ew4gwt1upb)"/>
                    <path stroke="#D1A448" stroke-linecap="round" stroke-linejoin="round" stroke-width="1.875" d="M58.351 143.654L127.245 143.654 127.245 41.965 58.351 41.965z" mask="url(#ew4gwt1upb)"/>
                    <path stroke="#44E7D9" stroke-linecap="round" stroke-linejoin="round" stroke-width="1.875" d="M87.485 178.551s2.36-.39 7.87-9.748c5.51-9.357 6.69-8.577 10.232-7.797 3.542.78 11.02 4.289 11.02 4.289" mask="url(#ew4gwt1upb)"/>
                    <path stroke="#44E7D9" stroke-linecap="round" stroke-linejoin="round" stroke-width="1.875" d="M111.49 171.923s4.723-8.578 6.297-6.628c1.574 1.949.393 2.339 0 3.119-.394.78-7.87 8.188-6.297 15.206" mask="url(#ew4gwt1upb)"/>
                    <path stroke="#FFF" stroke-linecap="round" stroke-linejoin="round" stroke-width="1.875" d="M114.639 173.482v3.9s-1.6 1.017-2.374-.467" mask="url(#ew4gwt1upb)"/>
                    <path stroke="#44E7D9" stroke-linecap="round" stroke-linejoin="round" stroke-width="1.875" d="M109.916 174.262s-2.361 4.289-2.361 7.408" mask="url(#ew4gwt1upb)"/>
                    <path stroke="#FFF" stroke-linecap="round" stroke-linejoin="round" stroke-width="1.875" d="M112.671 189.078s1.18-4.289 0-4.679c-1.18-.39-1.18 2.34-1.574 4.29-.394 1.949 0 6.238 0 6.238l-.394 2.729" mask="url(#ew4gwt1upb)"/>
                    <path stroke="#FFF" stroke-linecap="round" stroke-linejoin="round" stroke-width="1.875" d="M113.065 185.57s1.574-.39 1.18 2.339c-.393 2.729 0 1.56 0 1.56" mask="url(#ew4gwt1upb)"/>
                    <path stroke="#FFF" stroke-linecap="round" stroke-linejoin="round" stroke-width="1.875" d="M114.245 187.129s1.574.39 1.18 1.95v1.559" mask="url(#ew4gwt1upb)"/>
                    <path stroke="#FFF" stroke-linecap="round" stroke-linejoin="round" stroke-width="1.875" d="M115.426 188.299s1.18.39 1.18 1.949c0 1.56-1.18 6.238-1.18 6.238l-1.18 3.51" mask="url(#ew4gwt1upb)"/>
                    <path stroke="#44E7D9" stroke-linecap="round" stroke-linejoin="round" stroke-width="1.875" d="M107.949 198.436s2.754-1.95 4.722.39c1.968 2.339 4.329 5.068 4.329 7.798 0 2.729.393 2.729-.394 6.628 0 0 .787 2.73 0 4.679-.786 1.95-7.083 11.696-7.083 11.696M107.161 198.436s-1.967 2.729-1.967 6.238v5.459" mask="url(#ew4gwt1upb)"/>
                    <path stroke="#44E7D9" stroke-linecap="round" stroke-linejoin="round" stroke-width="1.875" d="M101.652 205.454s-2.755 6.238-3.148 7.798c0 0 3.148-3.51 3.542-4.679.393-1.17 1.791-5.837 4.634-9.352M98.897 184.79s3.148 3.119 3.148 5.458c0 0-.787-2.34-2.754-3.12M102.045 192.977s.394 7.798 1.181 7.798 2.361-1.56 2.361-1.56M97.323 194.147s1.968.78 2.361 1.56M86.697 178.94s-7.477 5.07-9.838 14.817c-2.362 9.748-8.264 22.614-8.264 22.614M117.787 168.414s0 2.729-.787 4.678c-.787 1.95-1.18 3.12-1.18 4.29s0 2.339-.394 3.119M115.032 181.28s-1.18 2.73-1.967 3.12M109.886 202.002s4.72 2.005 4.384 8.687M107.862 190.643s1.35 2.339-.337 5.011M77.511 205.344s-1.011 5.68-2.697 8.018" mask="url(#ew4gwt1upb)"/>
                    <path fill="#FFF" d="M47.577 165.313c-.193.144-.468.107-.614-.085-.145-.19-.107-.463.086-.607.192-.145.467-.107.613.084.146.191.108.463-.085.608M43.555 124.985c.187.246.138.595-.11.781-.248.186-.6.137-.788-.108-.187-.246-.139-.596.11-.781.247-.186.6-.137.788.108M62.018 164.175c-.248.186-.6.137-.788-.108-.188-.246-.139-.596.11-.781.247-.187.6-.138.788.108.187.245.138.595-.11.78M44.375 142.1c-.33.248-.801.183-1.051-.144-.25-.328-.185-.794.146-1.042.33-.247.8-.183 1.05.145.25.327.185.794-.145 1.041M52.152 130.968c-.248.186-.601.137-.789-.109-.187-.245-.138-.595.11-.78.248-.186.6-.138.788.108.187.245.139.595-.11.781M64.598 151.153c-.138.103-.334.076-.438-.06-.104-.137-.077-.331.06-.434.138-.104.335-.076.439.06.104.137.077.33-.061.434M35.114 152.764c-.138.103-.334.076-.438-.06-.104-.137-.077-.332.06-.434.139-.104.335-.077.439.06.104.136.077.33-.06.434M53.978 139.686c-.192.144-.467.106-.613-.085-.145-.19-.108-.463.085-.607.193-.145.468-.107.613.084.146.19.108.463-.085.608M51.273 153.517c.187.246.138.596-.11.782-.248.186-.6.137-.788-.109-.188-.246-.139-.595.11-.78.247-.187.6-.138.788.107M144.775 41.424c.233-.068.476.064.543.294.068.23-.065.47-.297.538-.232.067-.475-.065-.543-.295-.068-.23.065-.47.297-.537M143.985 65.669c-.088-.296.084-.606.382-.692.299-.087.61.083.698.379.088.295-.084.605-.382.691-.298.087-.61-.083-.698-.378M131.879 22.038c.298-.087.61.083.698.379.087.295-.084.605-.382.691-.299.087-.611-.083-.699-.379-.087-.295.084-.605.383-.691M148.949 53.667c.397-.115.814.111.93.505.117.394-.111.808-.51.922-.397.116-.814-.11-.93-.504-.116-.395.112-.807.51-.923M133.872 60.283c.298-.086.61.083.698.379.087.295-.084.605-.382.691-.299.087-.611-.083-.699-.378-.087-.296.084-.606.383-.692M124.126 32.97c.165-.049.339.046.388.21.048.164-.047.336-.213.384-.165.048-.34-.046-.388-.21-.048-.164.047-.336.213-.384M145.161 32.6c.166-.049.34.046.388.21.049.164-.046.336-.212.384-.166.048-.34-.046-.388-.21-.048-.164.047-.336.212-.385M138.228 48.399c.232-.067.475.065.543.294.068.23-.065.471-.297.538-.233.067-.476-.064-.544-.294-.067-.23.066-.471.298-.538M137.43 35.447c-.087-.296.084-.606.382-.692.299-.086.611.083.699.379.087.295-.084.605-.383.692-.298.086-.61-.083-.698-.38" mask="url(#ew4gwt1upb)"/>
                </g>
            </g>
        </g>
    </g>
</svg>
