<svg xmlns="http://www.w3.org/2000/svg" width="190" height="266" viewBox="0 0 190 266"><title>Четвёрка Мечей</title>
    <g fill="none" fill-rule="evenodd">
        <g>
            <g>
                <g>
                    <path fill="#1a1d24" stroke="#FFF" stroke-linecap="round" stroke-linejoin="round" stroke-width="1.875" d="M177.795 263.217H9.62c-5.22 0-9.452-4.193-9.452-9.365V9.365C.17 4.193 4.401 0 9.621 0h168.174c5.22 0 9.452 4.193 9.452 9.365v244.487c0 5.172-4.232 9.365-9.452 9.365z" transform="translate(-1067 -254) translate(1068 255) translate(0 .569)"/>
                    <path stroke="#FFF" stroke-linecap="round" stroke-linejoin="round" stroke-width="1.875" d="M162.66 248.484L135.378 248.484M52.777 248.484L14.232 248.484 14.232 25.399" transform="translate(-1067 -254) translate(1068 255) translate(0 .569)"/>
                    <path stroke="#44E7D9" stroke-linecap="round" stroke-linejoin="round" stroke-width="1.875" d="M13.959 10.736L16.582 15.236 19.204 19.736 13.959 19.736 8.715 19.736 11.337 15.236z" transform="translate(-1067 -254) translate(1068 255) translate(0 .569)"/>
                    <g>
                        <path fill="#000" d="M0.277 0.193L10.75 0.193" transform="translate(-1067 -254) translate(1068 255) translate(0 .569) translate(8.446 14.393)"/>
                        <path stroke="#44E7D9" stroke-linecap="round" stroke-linejoin="round" stroke-width="1.875" d="M0.277 0.193L10.75 0.193" transform="translate(-1067 -254) translate(1068 255) translate(0 .569) translate(8.446 14.393)"/>
                    </g>
                </g>
                <path fill="#D1A448" fill-rule="nonzero" d="M63.406 253.977v-4.92h3.377v-.73h-3.377v-4.434h3.524v-.731h-4.336v10.815h.812zm7.486.163c.855 0 1.5-.23 1.932-.69.434-.46.65-1.059.65-1.795v-6.17c0-.737-.216-1.335-.65-1.795-.433-.46-1.077-.69-1.932-.69s-1.5.23-1.933.69c-.433.46-.65 1.058-.65 1.794v6.171c0 .736.217 1.335.65 1.795.434.46 1.078.69 1.933.69zm0-.731c-1.18 0-1.77-.585-1.77-1.754v-6.17c0-1.17.59-1.755 1.77-1.755 1.18 0 1.77.585 1.77 1.754v6.171c0 1.17-.59 1.754-1.77 1.754zm7.356.73c.856 0 1.5-.23 1.933-.69.433-.46.65-1.058.65-1.794v-8.493h-.812v8.493c0 1.17-.59 1.754-1.77 1.754-1.18 0-1.77-.585-1.77-1.754v-8.493h-.813v8.493c0 .736.217 1.335.65 1.795.433.46 1.077.69 1.932.69zm5.75-.162v-4.465h1.574c.174 0 .304-.006.39-.017l1.608 4.482h.893l-1.705-4.66c.931-.347 1.397-1.094 1.397-2.241v-1.478c0-.736-.217-1.326-.65-1.77-.433-.444-1.077-.666-1.933-.666h-2.387v10.815h.812zm1.574-5.229h-1.575v-4.855h1.575c1.18 0 1.77.568 1.77 1.705v1.478c0 1.115-.59 1.672-1.77 1.672zm10.426 5.392c.855 0 1.5-.23 1.933-.69.433-.46.65-1.059.65-1.795v-6.17c0-.737-.217-1.335-.65-1.795-.433-.46-1.078-.69-1.933-.69s-1.5.23-1.932.69c-.433.46-.65 1.058-.65 1.794v6.171c0 .736.217 1.335.65 1.795.433.46 1.077.69 1.932.69zm0-.731c-1.18 0-1.77-.585-1.77-1.754v-6.17c0-1.17.59-1.755 1.77-1.755 1.18 0 1.77.585 1.77 1.754v6.171c0 1.17-.59 1.754-1.77 1.754zm5.668.568v-4.92h3.378v-.73h-3.378v-4.434h3.524v-.731h-4.336v10.815h.812zm8.103 0l.731-3.166h3.086l.73 3.166h.845l-2.534-10.815h-1.169l-2.533 10.815h.844zm3.654-3.897h-2.76l1.38-5.992 1.38 5.992zm4.092 3.897v-10.815h-.812v10.815h.812zm3.248 0v-4.465h1.576c.173 0 .303-.006.39-.017l1.607 4.482h.893l-1.705-4.66c.931-.347 1.397-1.094 1.397-2.241v-1.478c0-.736-.217-1.326-.65-1.77-.433-.444-1.077-.666-1.932-.666h-2.388v10.815h.812zm1.576-5.229h-1.576v-4.855h1.576c1.18 0 1.77.568 1.77 1.705v1.478c0 1.115-.59 1.672-1.77 1.672z" transform="translate(-1067 -254) translate(1068 255)"/>
                <g>
                    <path stroke="#44E7D9" stroke-linecap="round" stroke-linejoin="round" stroke-width="1.875" d="M147.218 239.258L144.596 234.758 141.974 230.258 147.218 230.258 152.463 230.258 149.841 234.758z" transform="translate(-1067 -254) translate(1068 255) translate(25.676 14.292)"/>
                    <path stroke="#FFF" stroke-linecap="round" stroke-linejoin="round" stroke-width="1.875" d="M84.957.419L148.15.419 148.15 221.508M.046.419L52.269.419" transform="translate(-1067 -254) translate(1068 255) translate(25.676 14.292)"/>
                    <g>
                        <path fill="#000" d="M10.563 0.448L0.09 0.448" transform="translate(-1067 -254) translate(1068 255) translate(25.676 14.292) translate(141.892 234.966)"/>
                        <path stroke="#44E7D9" stroke-linecap="round" stroke-linejoin="round" stroke-width="1.25" d="M10.563 0.448L0.09 0.448" transform="translate(-1067 -254) translate(1068 255) translate(25.676 14.292) translate(141.892 234.966)"/>
                    </g>
                </g>
                <path fill="#D1A448" fill-rule="nonzero" d="M90.864 20.578V9.328h-.844v11.25h.844zm5.27 0l2.534-11.25h-.878c-1.318 5.946-2.072 9.398-2.263 10.355-.158-.766-.913-4.217-2.264-10.355h-.878l2.533 11.25h1.217z" transform="translate(-1067 -254) translate(1068 255)"/>
                <g>
                    <path stroke="#FFF" stroke-linecap="round" stroke-linejoin="round" stroke-width="1.875" d="M117.635 193.694L102.735 193.722 102.727 189.527 117.627 189.498zM119.429 188.796L118.567 188.797 117.704 188.799 117.715 194.237 119.44 194.234zM118.499 194.236L118.488 188.797M119.432 189.946s1.333.168 1.493 1.566c0 0 .002 1.341-1.487 1.606M100.138 188.627L38.659 189.727 29.879 191.609 38.667 193.923 100.15 194.927M100.144 191.591L76.618 191.83M75.834 191.832L74.579 191.834M73.952 191.835L74.266 191.834M73.168 191.837L29.879 191.609M97.165 192.412L95.912 193.347M97.636 192.877L96.54 193.656M96.224 192.414L95.598 192.881" transform="translate(-1067 -254) translate(1068 255) translate(26.69 30.023)"/>
                    <path stroke="#FFF" stroke-linecap="round" stroke-linejoin="round" stroke-width="1.875" d="M102.794 183.544L102.826 199.704 100.159 199.709 100.128 183.549zM101.382 183.547L101.414 199.707M116.26 189.581L116.254 193.697M114.542 189.545L114.535 193.661M112.911 189.602L112.904 193.718M111.192 189.566L111.185 193.682M109.254 189.638L109.247 193.754M107.706 189.386L107.528 193.719M105.904 189.659L105.897 193.775M104.185 189.623L104.178 193.739" transform="translate(-1067 -254) translate(1068 255) translate(26.69 30.023)"/>
                    <path stroke="#D1A448" stroke-width="1.875" d="M90.233 173.511L138.272 173.511 138.272 179.574 90.233 179.574" transform="translate(-1067 -254) translate(1068 255) translate(26.69 30.023)"/>
                    <path stroke="#FFF" stroke-width="1.875" d="M124.35 150.623s-1.836-3.638-1.836-5.76c0-2.121-2.448-4.85-2.754-6.366-.306-1.515-1.836-3.638-3.671-3.031-1.837.606-5.814 1.516-7.65 1.516-1.836 0-9.792.302-11.321-.304-1.53-.606-3.978-.606-3.673 1.516 0 0 1.53 4.85 3.06 6.063s2.754 10.004 2.754 10.914c0 .91-1.224 3.94 0 5.153 1.224 1.213 9.486 3.941 12.852 3.941 3.365 0 11.32 0 13.157-.303 0 0 2.448-.91 3.366-1.516.917-.606 1.224-1.516.917-2.425-.305-.91-1.223-1.213-1.53-2.728-.305-1.516-1.835-4.244-2.753-6.063M100.483 159.111s7.956-1.212 9.792-1.212M112.11 157.899s5.509-.303 8.262 0M121.29 157.899s6.732.91 8.262 2.122M102.013 160.021s5.814.303 8.262.303" transform="translate(-1067 -254) translate(1068 255) translate(26.69 30.023)"/>
                    <path stroke="#FFF" stroke-width="1.875" d="M113.029 160.93s8.261.304 10.097 0l3.672-.606M119.76 153.655s1.224-1.213 2.448-1.516M122.208 154.261s.612-.606 1.836-1.213M102.013 140.316s-.612.91-1.53 3.032" transform="translate(-1067 -254) translate(1068 255) translate(26.69 30.023)"/>
                    <path stroke="#D1A448" stroke-width="1.875" d="M138.119 173.36L119.76 133.495 79.676 133.495" transform="translate(-1067 -254) translate(1068 255) translate(26.69 30.023)"/>
                    <path stroke="#FFF" stroke-width="1.875" d="M70.803 135.163c-.918-1.82-1.836-1.82-3.672-1.516-1.836.303 0 3.032 0 3.032s3.06 5.76 3.672 7.275M71.109 145.167s.306 2.122 0 4.85c-.306 2.728 1.53 8.488 1.53 8.488M72.945 159.718s1.836 8.185 3.366 10.004c1.53 1.819 2.447 4.85 2.447 6.67 0 1.818 0 5.76.613 5.76.611 0 1.53-1.214 3.06-.91" transform="translate(-1067 -254) translate(1068 255) translate(26.69 30.023)"/>
                    <path stroke="#FFF" stroke-width="1.875" d="M81.512 180.332s2.142 1.516 3.672 1.82c1.53.302 2.754-1.213 3.672-1.517.918-.303 1.836-1.516 1.224-5.76-.612-4.244-4.896-13.944-5.508-15.157 0 0-2.683-3.941-3.942-7.882" transform="translate(-1067 -254) translate(1068 255) translate(26.69 30.023)"/>
                    <path stroke="#FFF" stroke-width="1.875" d="M84.266 171.238s-.306-7.882-2.142-12.43c-1.836-4.547-2.142-15.46-2.142-15.46s0-6.973-.918-9.398c-.917-2.425-3.06-.606-4.283-.91" transform="translate(-1067 -254) translate(1068 255) translate(26.69 30.023)"/>
                    <path stroke="#FFF" stroke-width="1.875" d="M76.922 139.104s-1.53-6.063-3.06-6.367c-1.53-.303-1.223.91-2.753.91h-1.53M80.288 160.627s-1.53-4.547-1.53-8.185c0-3.638-1.223-6.063-1.53-5.153M76.617 166.084s1.835 6.063 3.671 7.276" transform="translate(-1067 -254) translate(1068 255) translate(26.69 30.023)"/>
                    <path stroke="#44E7D9" stroke-width="1.875" d="M66.254 151.44s-2.887 10.55-5.394 16.113M62.576 154.304s-3.298 11.378-4.816 13.83M78.758 180.317s-4.283 2.137-10.097.621c0 0-10.404-2.122-14.381-1.515-3.978.606-9.792 1.212-14.993.909-5.202-.303-7.65-.91-7.65-.91s-3.449-.396-5.138.273M76.922 173.36L52.75 173.36M49.69 173.36L37.45 173.36M35.615 173.36L31.637 173.36 12.817 173.36M64.989 134.253L25.823 134.253 12.816 134.253" transform="translate(-1067 -254) translate(1068 255) translate(26.69 30.023)"/>
                    <path stroke="#D1A448" stroke-width="1.875" d="M138.119 179.726L138.119 203.627 12.817 203.627" transform="translate(-1067 -254) translate(1068 255) translate(26.69 30.023)"/>
                    <path stroke="#44E7D9" stroke-width="1.875" d="M25.823 180.03s-3.04 1.004-4.392 1.004c-1.351 0-5.067-.67-5.067-.67M15.35 180.03s-1.05-.072-2.534-.133" transform="translate(-1067 -254) translate(1068 255) translate(26.69 30.023)"/>
                    <path stroke="#FFF" stroke-linecap="round" stroke-linejoin="round" stroke-width="1.875" d="M97.965 30.188L97.993 44.95 93.759 44.958 93.73 30.196zM93.021 28.411L93.023 29.265 93.024 30.12 98.513 30.109 98.51 28.4zM98.512 29.332L93.023 29.343M94.182 28.408s.17-1.32 1.58-1.479c0 0 1.354-.002 1.622 1.473M92.85 47.523L93.961 108.433 95.86 117.131 98.196 108.425 99.209 47.511M95.842 47.518L96.084 70.825M96.085 71.602L96.088 72.845M96.089 73.467L96.088 73.156M96.09 74.244L95.86 117.131M96.671 50.468L97.615 51.71M97.141 50.001L97.927 51.088M96.673 51.401L97.144 52.021" transform="translate(-1067 -254) translate(1068 255) translate(26.69 30.023)"/>
                    <path stroke="#FFF" stroke-linecap="round" stroke-linejoin="round" stroke-width="1.875" d="M87.72 44.892L104.032 44.86 104.037 47.502 87.726 47.533zM87.723 46.29L104.034 46.259M93.813 31.55L97.968 31.557M93.777 33.253L97.932 33.26M93.834 34.869L97.989 34.876M93.798 36.572L97.953 36.579M93.871 38.492L98.026 38.498M93.617 40.025L97.989 40.201M93.892 41.811L98.047 41.817M93.856 43.514L98.011 43.52M69.417 30.188L69.446 44.95 65.212 44.958 65.183 30.196zM64.473 28.411L64.475 29.265 64.477 30.12 69.966 30.109 69.963 28.4zM69.964 29.332L64.475 29.343M65.634 28.408s.17-1.32 1.581-1.479c0 0 1.354-.002 1.621 1.473M64.303 47.523L65.414 108.433 67.313 117.131 69.648 108.425 70.662 47.511M67.295 47.518L67.536 70.825M67.538 71.602L67.54 72.845M67.541 73.467L67.541 73.156M67.543 74.244L67.313 117.131M68.124 50.468L69.067 51.71M68.593 50.001L69.38 51.088M68.126 51.401L68.597 52.021" transform="translate(-1067 -254) translate(1068 255) translate(26.69 30.023)"/>
                    <path stroke="#FFF" stroke-linecap="round" stroke-linejoin="round" stroke-width="1.875" d="M59.173 44.892L75.484 44.86 75.489 47.502 59.179 47.533zM59.176 46.29L75.487 46.259M65.266 31.55L69.42 31.557M65.23 33.253L69.385 33.26M65.287 34.869L69.442 34.876M65.251 36.572L69.406 36.579M65.324 38.492L69.478 38.498M65.069 40.025L69.442 40.201M65.345 41.811L69.5 41.817M65.309 43.514L69.464 43.52M40.87 30.188L40.899 44.95 36.664 44.958 36.635 30.196zM35.926 28.411L35.928 29.265 35.93 30.12 41.419 30.109 41.416 28.4zM41.417 29.332L35.928 29.343M37.087 28.408s.17-1.32 1.581-1.479c0 0 1.354-.002 1.621 1.473M35.755 47.523L36.867 108.433 38.766 117.131 41.101 108.425 42.115 47.511M38.747 47.518L38.989 70.825M38.99 71.602L38.993 72.845M38.994 73.467L38.994 73.156M38.996 74.244L38.766 117.131M39.577 50.468L40.52 51.71M40.046 50.001L40.833 51.088M39.578 51.401L40.05 52.021" transform="translate(-1067 -254) translate(1068 255) translate(26.69 30.023)"/>
                    <path stroke="#FFF" stroke-linecap="round" stroke-linejoin="round" stroke-width="1.875" d="M30.626 44.892L46.937 44.86 46.942 47.502 30.631 47.533zM30.628 46.29L46.94 46.259M36.718 31.55L40.873 31.557M36.682 33.253L40.837 33.26M36.74 34.869L40.894 34.876M36.704 36.572L40.858 36.579M36.777 38.492L40.931 38.498M36.522 40.025L40.895 40.201M36.798 41.811L40.952 41.817M36.762 43.514L40.916 43.52" transform="translate(-1067 -254) translate(1068 255) translate(26.69 30.023)"/>
                    <path fill="#D1A448" d="M126.401 60.95L126.981 63.56 129.537 64.528 126.902 64.857 126.172 67.636 125.593 64.779 123.036 64.302 125.671 63.728zM113.154 80.549L113.512 82.158 115.088 82.755 113.463 82.958 113.013 84.67 112.656 82.91 111.08 82.616 112.704 82.262zM130.256 104.744L131.028 108.224 134.435 109.513 130.924 109.952 129.951 113.655 129.179 109.849 125.771 109.212 129.283 108.447zM134.709 91.028c.074.173-.009.372-.183.445-.175.073-.376-.008-.45-.181-.073-.173.009-.373.184-.446.175-.073.375.009.449.182M129.84 9.239L130.612 12.719 134.019 14.008 130.508 14.447 129.535 18.15 128.763 14.344 125.355 13.707 128.867 12.942zM121.117 38.366c.074.173-.009.372-.184.445-.174.073-.375-.008-.449-.181-.074-.173.009-.373.184-.446.174-.073.375.009.449.182M3.67 55.778L4.25 58.389 6.806 59.357 4.171 59.686 3.441 62.464 2.862 59.608.305 59.131 2.94 58.556zM15.423 79.394L15.781 81.003 17.357 81.6 15.732 81.803 15.282 83.516 14.925 81.755 13.348 81.461 14.973 81.107zM26.782 106.267L27.554 109.747 30.961 111.036 27.45 111.475 26.477 115.178 25.705 111.371 22.297 110.735 25.809 109.97zM31.235 92.55c.073.174-.009.373-.184.446-.175.073-.375-.009-.449-.182-.074-.173.009-.372.183-.445.175-.073.376.009.45.182M18.288 26.18L18.79 28.443 21.006 29.283 18.722 29.568 18.09 31.976 17.588 29.5 15.371 29.086 17.655 28.589zM28.453 33.194c.074.174-.008.373-.183.446-.175.072-.376-.009-.45-.182-.073-.173.01-.372.184-.445.175-.073.376.008.45.181M7.273 101.373c.074.173-.008.372-.183.445-.175.073-.376-.008-.45-.181-.073-.173.009-.373.184-.445.175-.073.376.008.45.181M19.548 65.182c.073.174-.008.373-.183.446-.175.072-.376-.009-.45-.182-.073-.173.009-.373.184-.445.174-.073.375.008.45.181M56.728 36.545c.074.173-.008.373-.183.445-.175.073-.376-.008-.45-.181-.073-.173.01-.373.184-.445.175-.073.376.008.45.181M51.37 65.064L51.95 67.675 54.506 68.643 51.872 68.972 51.141 71.75 50.562 68.894 48.005 68.417 50.64 67.842zM58.731 93.031L59.089 94.641 60.665 95.237 59.041 95.44 58.591 97.153 58.233 95.392 56.657 95.098 58.281 94.744zM75.556 86.105c.074.173-.008.373-.183.446-.175.072-.376-.01-.45-.182-.073-.173.01-.373.184-.445.175-.073.376.008.45.181M38.592.3L39.365 3.78 42.772 5.069 39.261 5.508 38.288 9.211 37.516 5.405 34.108 4.768 37.619 4.003zM84.565 96.887L85.145 99.498 87.701 100.466 85.066 100.795 84.336 103.573 83.757 100.717 81.2 100.24 83.835 99.665zM86.183 57.912L86.54 59.522 88.116 60.118 86.492 60.321 86.042 62.034 85.685 60.274 84.108 59.979 85.733 59.625zM106.724 97.51c.074.174-.008.373-.183.446-.175.073-.376-.008-.45-.181-.073-.173.01-.373.184-.446.175-.073.376.009.45.182M112.019 17.165L112.291 18.391 113.49 18.845 112.254 18.999 111.912 20.303 111.64 18.963 110.439 18.739 111.676 18.469zM76.425 19.237L76.918 21.458 79.093 22.281 76.851 22.562 76.23 24.925 75.737 22.495 73.561 22.089 75.803 21.6zM97.827 2.135c.078.185-.01.398-.196.475-.186.078-.4-.009-.48-.194-.078-.184.01-.397.196-.475.187-.077.401.01.48.194M7.063 16.567c.078.185-.01.398-.196.475-.186.078-.4-.009-.479-.194-.078-.184.01-.397.196-.474.186-.078.4.009.479.193M69.141 4.97c.074.174-.008.373-.183.446-.175.073-.376-.008-.45-.181-.073-.173.009-.373.184-.446.175-.073.376.009.45.182" transform="translate(-1067 -254) translate(1068 255) translate(26.69 30.023)"/>
                </g>
            </g>
        </g>
    </g>
</svg>
