<svg xmlns="http://www.w3.org/2000/svg" width="191" height="269" viewBox="0 0 191 269"><title>Двойка Кубков</title>
    <g fill="none" fill-rule="evenodd">
        <g>
            <g>
                <path fill="#152230" stroke="#FFF" stroke-linecap="round" stroke-linejoin="round" stroke-width="2.5" d="M177.795 266.063H9.621c-5.22 0-9.452-4.233-9.452-9.453V9.838c0-5.22 4.232-9.453 9.452-9.453h168.174c5.22 0 9.452 4.232 9.452 9.453V256.61c0 5.22-4.232 9.453-9.452 9.453z" transform="translate(-488 -1152) translate(490 1153)"/>
                <path fill="#D1A448" fill-rule="nonzero" d="M57.876 254.12v-10.085h2.144v-.73h-5.1v.73h2.144v10.085h.812zm5.765 0l.991-5.717c.238-1.364.411-2.636.52-3.816.119 1.18.628 4.358 1.526 9.533h1.17l1.883-10.816h-.844c-.899 5.446-1.44 8.808-1.624 10.085l-.422-2.842-1.202-7.243h-.958l-1.202 7.227c-.162.953-.303 1.905-.422 2.858l-.422-2.842-1.202-7.243h-.845l1.884 10.816h1.17zm10.134.162c.855 0 1.5-.23 1.932-.69.433-.46.65-1.058.65-1.794v-6.171c0-.737-.217-1.335-.65-1.795-.433-.46-1.077-.69-1.932-.69s-1.5.23-1.933.69c-.433.46-.65 1.058-.65 1.795v6.17c0 .737.217 1.335.65 1.795.433.46 1.078.69 1.933.69zm0-.73c-1.18 0-1.77-.585-1.77-1.754v-6.171c0-1.17.59-1.754 1.77-1.754 1.18 0 1.77.584 1.77 1.754v6.17c0 1.17-.59 1.754-1.77 1.754zm10.36.73c.856 0 1.5-.23 1.933-.69.433-.46.65-1.058.65-1.794v-6.171c0-.737-.217-1.335-.65-1.795-.433-.46-1.077-.69-1.932-.69-.856 0-1.5.23-1.933.69-.433.46-.65 1.058-.65 1.795v6.17c0 .737.217 1.335.65 1.795.433.46 1.077.69 1.933.69zm0-.73c-1.18 0-1.77-.585-1.77-1.754v-6.171c0-1.17.59-1.754 1.77-1.754 1.18 0 1.77.584 1.77 1.754v6.17c0 1.17-.59 1.754-1.77 1.754zm5.668.568v-4.92h3.378v-.732h-3.378v-4.433h3.524v-.73h-4.336v10.815h.812zm10.393 0l.991-5.717c.238-1.364.411-2.636.52-3.816.119 1.18.628 4.358 1.526 9.533h1.17l1.883-10.816h-.844c-.899 5.446-1.44 8.808-1.624 10.085l-.422-2.842-1.202-7.243h-.958l-1.202 7.227c-.162.953-.303 1.905-.422 2.858l-.422-2.842-1.202-7.243h-.845l1.884 10.816h1.17zm7.665 0l.731-3.167h3.086l.73 3.167h.845l-2.533-10.816h-1.17l-2.533 10.816h.844zm3.654-3.898h-2.76l1.38-5.992 1.38 5.992zm5.18 3.898v-10.085h2.144v-.73h-5.099v.73h2.144v10.085h.812zm8.007 0v-.731h-3.67v-4.352h3.199v-.73h-3.2v-4.272h3.67v-.73h-4.481v10.815h4.482zm2.68 0v-4.466h1.575c.173 0 .303-.005.39-.016l1.607 4.482h.893l-1.705-4.66c.931-.347 1.397-1.094 1.397-2.242v-1.478c0-.736-.217-1.326-.65-1.77-.433-.444-1.077-.666-1.932-.666h-2.388v10.816h.812zm1.575-5.23h-1.576v-4.855h1.576c1.18 0 1.77.568 1.77 1.705v1.478c0 1.115-.59 1.673-1.77 1.673z" transform="translate(-488 -1152) translate(490 1153)"/>
                <g stroke="#FFF" stroke-linecap="round" stroke-linejoin="round" stroke-width="1.875">
                    <path d="M92.082.496L158.54.496 158.54 223.652M10.436.496L66.955.496M148.471 236.617L125.243 236.617M33.183 236.617L.043 236.617.043 11.447" transform="translate(-488 -1152) translate(490 1153) translate(14.19 14.574)"/>
                </g>
                <path fill="#D1A448" fill-rule="nonzero" d="M92.49 19.102V8.287h-.812v10.815h.812zm3.248 0V8.287h-.812v10.815h.812z" transform="translate(-488 -1152) translate(490 1153)"/>
                <g>
                    <path fill="#000" d="M164.444 233.846L167.067 238.389 169.689 242.931 164.444 242.931 159.2 242.931 161.822 238.389z" transform="translate(-488 -1152) translate(490 1153) translate(8.446 11.196)"/>
                    <path stroke="#44E7D9" stroke-linecap="round" stroke-linejoin="round" stroke-width="1.875" d="M164.444 233.846L167.067 238.389 169.689 242.931 164.444 242.931 159.2 242.931 161.822 238.389z" transform="translate(-488 -1152) translate(490 1153) translate(8.446 11.196)"/>
                    <path fill="#000" d="M5.573 9.11L2.95 4.567 0.328 0.025 5.573 0.025 10.817 0.025 8.195 4.567z" transform="translate(-488 -1152) translate(490 1153) translate(8.446 11.196)"/>
                    <path stroke="#44E7D9" stroke-linecap="round" stroke-linejoin="round" stroke-width="1.875" d="M5.573 9.11L2.95 4.567 0.328 0.025 5.573 0.025 10.817 0.025 8.195 4.567z" transform="translate(-488 -1152) translate(490 1153) translate(8.446 11.196)"/>
                    <path stroke="#D1A448" stroke-linecap="round" stroke-linejoin="round" stroke-width="1.875" d="M75.223 131.015c1.39 16.32-4.596 28.815-14.843 29.456-10.127.634-17.146-11.596-16.762-28.407M57.13 160.067L57.435 169.267M63.408 159.859L63.713 169.059M60.746 170.042c-1.91.063-2.87-.096-3.654-.643 0 0-.923.986.064 1.91 0 0 1.164.534 3.265.465M57.568 172.226l.266 8.02s.796.93 3.279.848c2.482-.082 3.023-1.056 3.023-1.056l-.266-8.02M58.716 160.718L59.014 169.693M59.096 172.176L59.375 180.578M61.02 161.024L61.293 169.235M61.407 172.673L61.527 176.301M61.559 177.256L61.666 180.502M62.93 160.96L63.164 168.026M63.316 172.609L63.563 180.057" transform="translate(-488 -1152) translate(490 1153) translate(8.446 11.196)"/>
                    <path stroke="#D1A448" stroke-linecap="round" stroke-linejoin="round" stroke-width="1.875" d="M60.378 170.054c1.91-.063 2.859-.286 3.603-.884 0 0 .987.923.064 1.91 0 0-1.127.61-3.228.68M75.131 131.114c.06 1.793-6.903 3.479-15.551 3.766-8.65.287-15.708-.934-15.768-2.727-.06-1.793 6.903-3.48 15.552-3.766 8.649-.287 15.707.934 15.767 2.727zM57.274 178.876c-2.04.254-6.424.911-8.841 2.091 0 0-2.909 1.839 3.654 2.898M64.344 178.536c2.05.144 6.462.563 8.94 1.612 0 0 3.002 1.678-3.495 3.09M53.265 183.874s7.676.893 15.863-.526" transform="translate(-488 -1152) translate(490 1153) translate(8.446 11.196)"/>
                    <path stroke="#D1A448" stroke-linecap="round" stroke-linejoin="round" stroke-width="1.875" d="M47.776 181.476s-1.233.71-.607 1.836c.625 1.126 5.37 2.307 11.44 2.105M63.392 185.264c6.071-.202 10.727-1.695 11.276-2.86.55-1.165-.727-1.791-.727-1.791M59.197 185.398s2.215.007 3.721-.124M75.124 133.96c.06 1.793-6.903 3.479-15.551 3.766-8.649.287-15.708-.934-15.768-2.727M60.126 154.81s-.373-2.456 1.027-4.2c0 0 1.074-1.545 2.906-2.21 0 0-.054 2.49-.9 3.675 0 0-.583 1.248-3.033 2.735z" transform="translate(-488 -1152) translate(490 1153) translate(8.446 11.196)"/>
                    <path stroke="#D1A448" stroke-linecap="round" stroke-linejoin="round" stroke-width="1.875" d="M60.267 154.77s.21-2.474-1.303-4.121c0 0-1.174-1.471-3.046-2.013 0 0 .218 2.482 1.14 3.607 0 0 .666 1.207 3.209 2.528z" transform="translate(-488 -1152) translate(490 1153) translate(8.446 11.196)"/>
                    <path fill="#000" d="M60.243 154.884s.879-2.323 2.954-3.156c0 0 1.694-.821 3.616-.503 0 0-1.267 2.146-2.585 2.763 0 0-1.12.801-3.985.896" transform="translate(-488 -1152) translate(490 1153) translate(8.446 11.196)"/>
                    <path stroke="#D1A448" stroke-linecap="round" stroke-linejoin="round" stroke-width="1.875" d="M60.243 154.884s.879-2.323 2.954-3.156c0 0 1.694-.821 3.616-.503 0 0-1.267 2.146-2.585 2.763 0 0-1.12.801-3.985.896z" transform="translate(-488 -1152) translate(490 1153) translate(8.446 11.196)"/>
                    <path fill="#000" d="M60.241 154.885s-1.031-2.26-3.157-2.954c0 0-1.744-.707-3.641-.262 0 0 1.406 2.056 2.763 2.585 0 0 1.17.726 4.035.63" transform="translate(-488 -1152) translate(490 1153) translate(8.446 11.196)"/>
                    <path stroke="#D1A448" stroke-linecap="round" stroke-linejoin="round" stroke-width="1.875" d="M60.241 154.885s-1.031-2.26-3.157-2.954c0 0-1.744-.707-3.641-.262 0 0 1.406 2.056 2.763 2.585 0 0 1.17.726 4.035.63z" transform="translate(-488 -1152) translate(490 1153) translate(8.446 11.196)"/>
                    <path fill="#000" d="M60.255 154.746s-1.603-1.897-1.322-4.116c0 0 .106-1.88 1.32-3.404 0 0 1.258 2.15 1.156 3.602 0 0 .156 1.369-1.154 3.918" transform="translate(-488 -1152) translate(490 1153) translate(8.446 11.196)"/>
                    <path stroke="#D1A448" stroke-linecap="round" stroke-linejoin="round" stroke-width="1.875" d="M60.255 154.746s-1.603-1.897-1.322-4.116c0 0 .106-1.88 1.32-3.404 0 0 1.258 2.15 1.156 3.602 0 0 .156 1.369-1.154 3.918zM45.741 142.841s1.784 8.804 6.271 13.082M45.453 141.275s-.229-1.14-.26-2.094M45.676 142.224L45.669 142.033" transform="translate(-488 -1152) translate(490 1153) translate(8.446 11.196)"/>
                    <g>
                        <path fill="#F9FAF4" d="M.328.409s1.598.207 2.759 0" transform="translate(-488 -1152) translate(490 1153) translate(8.446 11.196) translate(49.662 152.703)"/>
                        <path stroke="#D1A448" stroke-linecap="round" stroke-linejoin="round" stroke-width="1.875" d="M.328.409s1.598.207 2.759 0" transform="translate(-488 -1152) translate(490 1153) translate(8.446 11.196) translate(49.662 152.703)"/>
                    </g>
                    <g>
                        <path fill="#F9FAF4" d="M.153.315s2.417.335 4.173 0" transform="translate(-488 -1152) translate(490 1153) translate(8.446 11.196) translate(49.324 152.027)"/>
                        <path stroke="#D1A448" stroke-linecap="round" stroke-linejoin="round" stroke-width="1.875" d="M.153.315s2.417.335 4.173 0" transform="translate(-488 -1152) translate(490 1153) translate(8.446 11.196) translate(49.324 152.027)"/>
                    </g>
                    <g>
                        <path fill="#F9FAF4" d="M.158.416s1.598.207 2.759 0" transform="translate(-488 -1152) translate(490 1153) translate(8.446 11.196) translate(51.351 154.054)"/>
                        <path stroke="#D1A448" stroke-linecap="round" stroke-linejoin="round" stroke-width="1.875" d="M.158.416s1.598.207 2.759 0" transform="translate(-488 -1152) translate(490 1153) translate(8.446 11.196) translate(51.351 154.054)"/>
                    </g>
                    <g>
                        <path fill="#F9FAF4" d="M.274.097s2.417.334 4.172 0" transform="translate(-488 -1152) translate(490 1153) translate(8.446 11.196) translate(52.027 155.405)"/>
                        <path stroke="#D1A448" stroke-linecap="round" stroke-linejoin="round" stroke-width="1.875" d="M.274.097s2.417.334 4.172 0" transform="translate(-488 -1152) translate(490 1153) translate(8.446 11.196) translate(52.027 155.405)"/>
                    </g>
                    <path fill="#000" d="M30.977 179.948s4.905-.457 10.38-.228c5.476.228 9.126-.685 11.293-.799 2.167-.114 8.099-2.395 8.555-2.51.457-.113 5.362-1.596 6.388-2.052 1.027-.457 1.255-2.054 1.255-2.054 0-1.026-1.027-2.28-1.597-2.28-.57 0-1.597.683-1.597.683l-2.396.342c-2.965.571-4.334.115-4.334.115 0-.913 3.08-1.712 3.422-1.825.342-.115 6.16-1.027 6.844-2.168.684-1.14-.342-3.422-.798-3.65-.456-.228-1.255 0-1.597 0-.343 0-7.3 1.14-7.187.456.114-.684 2.738-1.368 3.65-1.482.913-.114 7.871-1.483 8.327-2.396.457-.912.114-3.536.114-3.536s-2.053-.456-3.194-.342c-1.14.114-8.098.684-8.783.798-.684.115-3.194 0-2.623-.342.57-.342 4.106-1.711 4.563-1.939.456-.228 3.536-.798 4.334-.798.799 0 6.616-.571 7.528-1.027.913-.456.685-2.852.229-3.08-.456-.228-6.616-.684-8.67-.913-2.053-.228-9.924 1.255-9.924 1.255s-6.958 1.94-9.81 2.624c-2.85.684-6.957 3.194-7.528 3.536-.57.342-10.494 6.16-14.715 7.642-4.22 1.483-9.923 1.027-9.923 1.027-2.396 1.597-3.536 7.072-3.536 7.072-.57 7.414 4.277 11.122 4.277 11.122s10.38-1.94 11.521-1.94l5.532-1.311z" transform="translate(-488 -1152) translate(490 1153) translate(8.446 11.196)"/>
                    <path stroke="#FFF" stroke-linecap="round" stroke-linejoin="round" stroke-width="1.875" d="M30.977 179.948s4.905-.457 10.38-.228c5.476.228 9.126-.685 11.293-.799 2.167-.114 8.099-2.395 8.555-2.51.457-.113 5.362-1.596 6.388-2.052 1.027-.457 1.255-2.054 1.255-2.054 0-1.026-1.027-2.28-1.597-2.28-.57 0-1.597.683-1.597.683l-2.396.342c-2.965.571-4.334.115-4.334.115 0-.913 3.08-1.712 3.422-1.825.342-.115 6.16-1.027 6.844-2.168.684-1.14-.342-3.422-.798-3.65-.456-.228-1.255 0-1.597 0-.343 0-7.3 1.14-7.187.456.114-.684 2.738-1.368 3.65-1.482.913-.114 7.871-1.483 8.327-2.396.457-.912.114-3.536.114-3.536s-2.053-.456-3.194-.342c-1.14.114-8.098.684-8.783.798-.684.115-3.194 0-2.623-.342.57-.342 4.106-1.711 4.563-1.939.456-.228 3.536-.798 4.334-.798.799 0 6.616-.571 7.528-1.027.913-.456.685-2.852.229-3.08-.456-.228-6.616-.684-8.67-.913-2.053-.228-9.924 1.255-9.924 1.255s-6.958 1.94-9.81 2.624c-2.85.684-6.957 3.194-7.528 3.536-.57.342-10.494 6.16-14.715 7.642-4.22 1.483-9.923 1.027-9.923 1.027-2.396 1.597-3.536 7.072-3.536 7.072-.57 7.414 4.277 11.122 4.277 11.122s10.38-1.94 11.521-1.94l5.532-1.311z" transform="translate(-488 -1152) translate(490 1153) translate(8.446 11.196)"/>
                    <g>
                        <path fill="#000" d="M2.023.04S.54.154.198.724" transform="translate(-488 -1152) translate(490 1153) translate(8.446 11.196) translate(54.392 157.095)"/>
                        <path stroke="#FFF" stroke-linecap="round" stroke-linejoin="round" stroke-width="1.875" d="M2.023.04S.54.154.198.724" transform="translate(-488 -1152) translate(490 1153) translate(8.446 11.196) translate(54.392 157.095)"/>
                    </g>
                    <g>
                        <path fill="#000" d="M2.106.285S.51 1.425.281 1.882" transform="translate(-488 -1152) translate(490 1153) translate(8.446 11.196) translate(52.027 158.446)"/>
                        <path stroke="#FFF" stroke-linecap="round" stroke-linejoin="round" stroke-width="1.875" d="M2.106.285S.51 1.425.281 1.882" transform="translate(-488 -1152) translate(490 1153) translate(8.446 11.196) translate(52.027 158.446)"/>
                    </g>
                    <g>
                        <path fill="#000" d="M2.55.04S.723 1.637.153 1.637" transform="translate(-488 -1152) translate(490 1153) translate(8.446 11.196) translate(51.014 157.095)"/>
                        <path stroke="#FFF" stroke-linecap="round" stroke-linejoin="round" stroke-width="1.875" d="M2.55.04S.723 1.637.153 1.637" transform="translate(-488 -1152) translate(490 1153) translate(8.446 11.196) translate(51.014 157.095)"/>
                    </g>
                    <g>
                        <path fill="#000" d="M3.18.118S1.47.802.1.917" transform="translate(-488 -1152) translate(490 1153) translate(8.446 11.196) translate(55.743 163.176)"/>
                        <path stroke="#FFF" stroke-linecap="round" stroke-linejoin="round" stroke-width="1.875" d="M3.18.118S1.47.802.1.917" transform="translate(-488 -1152) translate(490 1153) translate(8.446 11.196) translate(55.743 163.176)"/>
                    </g>
                    <g>
                        <path fill="#000" d="M0.728 0.219L0.728 1.132 0.272 0.447" transform="translate(-488 -1152) translate(490 1153) translate(8.446 11.196) translate(51.351 162.162)"/>
                        <path stroke="#FFF" stroke-linecap="round" stroke-linejoin="round" stroke-width="1.875" d="M0.728 0.219L0.728 1.132 0.272 0.447" transform="translate(-488 -1152) translate(490 1153) translate(8.446 11.196) translate(51.351 162.162)"/>
                    </g>
                    <g>
                        <path fill="#000" d="M.482.04s-.57 1.483 0 2.737" transform="translate(-488 -1152) translate(490 1153) translate(8.446 11.196) translate(67.568 157.095)"/>
                        <path stroke="#FFF" stroke-linecap="round" stroke-linejoin="round" stroke-width="1.875" d="M.482.04s-.57 1.483 0 2.737" transform="translate(-488 -1152) translate(490 1153) translate(8.446 11.196) translate(67.568 157.095)"/>
                    </g>
                    <g>
                        <path fill="#000" d="M.262.044S.72.272.491 2.097" transform="translate(-488 -1152) translate(490 1153) translate(8.446 11.196) translate(68.243 157.432)"/>
                        <path stroke="#FFF" stroke-linecap="round" stroke-linejoin="round" stroke-width="1.875" d="M.262.044S.72.272.491 2.097" transform="translate(-488 -1152) translate(490 1153) translate(8.446 11.196) translate(68.243 157.432)"/>
                    </g>
                    <g>
                        <path fill="#000" d="M.271.04s.457 1.71 0 2.737" transform="translate(-488 -1152) translate(490 1153) translate(8.446 11.196) translate(68.919 157.095)"/>
                        <path stroke="#FFF" stroke-linecap="round" stroke-linejoin="round" stroke-width="1.875" d="M.271.04s.457 1.71 0 2.737" transform="translate(-488 -1152) translate(490 1153) translate(8.446 11.196) translate(68.919 157.095)"/>
                    </g>
                    <g>
                        <path fill="#000" d="M2.14.25S.43 1.162.089 1.505" transform="translate(-488 -1152) translate(490 1153) translate(8.446 11.196) translate(54.73 164.527)"/>
                        <path stroke="#FFF" stroke-linecap="round" stroke-linejoin="round" stroke-width="1.875" d="M2.14.25S.43 1.162.089 1.505" transform="translate(-488 -1152) translate(490 1153) translate(8.446 11.196) translate(54.73 164.527)"/>
                    </g>
                    <g>
                        <path fill="#000" d="M0.474 0.048L0.131 1.417" transform="translate(-488 -1152) translate(490 1153) translate(8.446 11.196) translate(58.108 166.554)"/>
                        <path stroke="#FFF" stroke-linecap="round" stroke-linejoin="round" stroke-width="1.875" d="M0.474 0.048L0.131 1.417" transform="translate(-488 -1152) translate(490 1153) translate(8.446 11.196) translate(58.108 166.554)"/>
                    </g>
                    <g>
                        <path fill="#000" d="M.6 2.413C-.084 1.843.144.13.144.13" transform="translate(-488 -1152) translate(490 1153) translate(8.446 11.196) translate(67.905 164.19)"/>
                        <path stroke="#FFF" stroke-linecap="round" stroke-linejoin="round" stroke-width="1.875" d="M.6 2.413C-.084 1.843.144.13.144.13" transform="translate(-488 -1152) translate(490 1153) translate(8.446 11.196) translate(67.905 164.19)"/>
                    </g>
                    <g>
                        <path fill="#000" d="M.039.25S.153.364.38 1.505" transform="translate(-488 -1152) translate(490 1153) translate(8.446 11.196) translate(68.581 164.527)"/>
                        <path stroke="#FFF" stroke-linecap="round" stroke-linejoin="round" stroke-width="1.875" d="M.039.25S.153.364.38 1.505" transform="translate(-488 -1152) translate(490 1153) translate(8.446 11.196) translate(68.581 164.527)"/>
                    </g>
                    <g>
                        <path fill="#000" d="M.346.228s-.228.912.57 1.71" transform="translate(-488 -1152) translate(490 1153) translate(8.446 11.196) translate(65.878 171.622)"/>
                        <path stroke="#FFF" stroke-linecap="round" stroke-linejoin="round" stroke-width="1.875" d="M.346.228s-.228.912.57 1.71" transform="translate(-488 -1152) translate(490 1153) translate(8.446 11.196) translate(65.878 171.622)"/>
                    </g>
                    <g>
                        <path fill="#000" d="M.24.333s.57.684.685 1.71" transform="translate(-488 -1152) translate(490 1153) translate(8.446 11.196) translate(66.554 170.946)"/>
                        <path stroke="#FFF" stroke-linecap="round" stroke-linejoin="round" stroke-width="1.875" d="M.24.333s.57.684.685 1.71" transform="translate(-488 -1152) translate(490 1153) translate(8.446 11.196) translate(66.554 170.946)"/>
                    </g>
                    <g>
                        <path fill="#000" d="M.24.008S.47 1.148.925 1.49" transform="translate(-488 -1152) translate(490 1153) translate(8.446 11.196) translate(66.554 172.297)"/>
                        <path stroke="#FFF" stroke-linecap="round" stroke-linejoin="round" stroke-width="1.875" d="M.24.008S.47 1.148.925 1.49" transform="translate(-488 -1152) translate(490 1153) translate(8.446 11.196) translate(66.554 172.297)"/>
                    </g>
                    <g>
                        <path fill="#000" d="M2.036.232S.78.346.096.574" transform="translate(-488 -1152) translate(490 1153) translate(8.446 11.196) translate(55.405 171.96)"/>
                        <path stroke="#FFF" stroke-linecap="round" stroke-linejoin="round" stroke-width="1.875" d="M2.036.232S.78.346.096.574" transform="translate(-488 -1152) translate(490 1153) translate(8.446 11.196) translate(55.405 171.96)"/>
                    </g>
                    <g>
                        <path fill="#000" d="M2.373.1S.663.785.092.67" transform="translate(-488 -1152) translate(490 1153) translate(8.446 11.196) translate(55.068 170.608)"/>
                        <path stroke="#FFF" stroke-linecap="round" stroke-linejoin="round" stroke-width="1.875" d="M2.373.1S.663.785.092.67" transform="translate(-488 -1152) translate(490 1153) translate(8.446 11.196) translate(55.068 170.608)"/>
                    </g>
                    <g>
                        <path fill="#000" d="M.311.281s-.456 1.37.342 2.054" transform="translate(-488 -1152) translate(490 1153) translate(8.446 11.196) translate(63.176 149.324)"/>
                        <path stroke="#FFF" stroke-linecap="round" stroke-linejoin="round" stroke-width="1.875" d="M.311.281s-.456 1.37.342 2.054" transform="translate(-488 -1152) translate(490 1153) translate(8.446 11.196) translate(63.176 149.324)"/>
                    </g>
                    <g>
                        <path fill="#000" d="M.21.281s-.228 1.711.342 2.282" transform="translate(-488 -1152) translate(490 1153) translate(8.446 11.196) translate(64.19 149.324)"/>
                        <path stroke="#FFF" stroke-linecap="round" stroke-linejoin="round" stroke-width="1.875" d="M.21.281s-.228 1.711.342 2.282" transform="translate(-488 -1152) translate(490 1153) translate(8.446 11.196) translate(64.19 149.324)"/>
                    </g>
                    <g>
                        <path fill="#000" d="M.333.277s.342 1.027 0 1.825" transform="translate(-488 -1152) translate(490 1153) translate(8.446 11.196) translate(64.865 148.986)"/>
                        <path stroke="#FFF" stroke-linecap="round" stroke-linejoin="round" stroke-width="1.875" d="M.333.277s.342 1.027 0 1.825" transform="translate(-488 -1152) translate(490 1153) translate(8.446 11.196) translate(64.865 148.986)"/>
                    </g>
                    <g>
                        <path fill="#000" d="M.306.29S-.15 2.23.534 2.686" transform="translate(-488 -1152) translate(490 1153) translate(8.446 11.196) translate(71.622 150)"/>
                        <path stroke="#FFF" stroke-linecap="round" stroke-linejoin="round" stroke-width="1.875" d="M.306.29S-.15 2.23.534 2.686" transform="translate(-488 -1152) translate(490 1153) translate(8.446 11.196) translate(71.622 150)"/>
                    </g>
                    <g>
                        <path fill="#000" d="M.425.062s.228.57 0 1.597" transform="translate(-488 -1152) translate(490 1153) translate(8.446 11.196) translate(71.96 150)"/>
                        <path stroke="#FFF" stroke-linecap="round" stroke-linejoin="round" stroke-width="1.875" d="M.425.062s.228.57 0 1.597" transform="translate(-488 -1152) translate(490 1153) translate(8.446 11.196) translate(71.96 150)"/>
                    </g>
                    <g>
                        <path fill="#000" d="M2.327.205s-1.255.913-2.053.913" transform="translate(-488 -1152) translate(490 1153) translate(8.446 11.196) translate(25 178.716)"/>
                        <path stroke="#FFF" stroke-linecap="round" stroke-linejoin="round" stroke-width="1.875" d="M2.327.205s-1.255.913-2.053.913" transform="translate(-488 -1152) translate(490 1153) translate(8.446 11.196) translate(25 178.716)"/>
                    </g>
                    <g>
                        <path fill="#000" d="M.24.491h.912S1.494.263.696.035" transform="translate(-488 -1152) translate(490 1153) translate(8.446 11.196) translate(22.297 165.54)"/>
                        <path stroke="#FFF" stroke-linecap="round" stroke-linejoin="round" stroke-width="1.875" d="M.24.491h.912S1.494.263.696.035" transform="translate(-488 -1152) translate(490 1153) translate(8.446 11.196) translate(22.297 165.54)"/>
                    </g>
                    <g>
                        <path fill="#000" d="M.346 2.645S-.11 1.048.575.477c0 0 .228.457.228 1.37 0 .912.342-1.598.342-1.598" transform="translate(-488 -1152) translate(490 1153) translate(8.446 11.196) translate(57.095 173.31)"/>
                        <path stroke="#FFF" stroke-linecap="round" stroke-linejoin="round" stroke-width="1.875" d="M.346 2.645S-.11 1.048.575.477c0 0 .228.457.228 1.37 0 .912.342-1.598.342-1.598" transform="translate(-488 -1152) translate(490 1153) translate(8.446 11.196) translate(57.095 173.31)"/>
                    </g>
                    <path stroke="#44E7D9" stroke-linecap="round" stroke-linejoin="round" stroke-width="1.875" d="M64.043 134.327s-2.115-.104-1.617-.62c.498-.516 0-.516-.996-.516-.995 0-2.613.206-1.368.413 0 0 1.056.245.746.758M46.895 133.14s4.456-2.53 9.807-2.427M57.449 130.713L59.066 130.713M60.061 130.713s7.893-.011 12.346 2.008" transform="translate(-488 -1152) translate(490 1153) translate(8.446 11.196)"/>
                    <path stroke="#44E7D9" stroke-linecap="round" stroke-linejoin="round" stroke-width="1.875" d="M54.798 134.314s.473-.658-1.145-.452c-1.618.206-1.68-.878.56-.67 2.24.205 4.729.102 4.355-.517-.373-.62-2.737 0-2.613-.517.125-.515 2.116-.412 3.236-.412s2.737-.517 4.355 0c1.617.516-1.743.412-.622.929 1.12.516 3.36-.413 3.981-.103.623.31-.87.722-1.12 1.032-.249.31 1.27.459 1.27.459" transform="translate(-488 -1152) translate(490 1153) translate(8.446 11.196)"/>
                    <path stroke="#FFF" stroke-linecap="round" stroke-linejoin="round" stroke-width="1.875" d="M114.589 157.818c-.212-.354-2.829-1.556-3.748-1.768-.72-.166-1.91-.376-2.38-.22M145.211 172.771s2.027 0 3.04-.338" transform="translate(-488 -1152) translate(490 1153) translate(8.446 11.196)"/>
                    <path stroke="#44E7D9" stroke-linecap="round" stroke-linejoin="round" stroke-width="1.875" d="M122.492 132.493s-1.91-.103-1.461-.62c.45-.516 0-.516-.9-.516-.899 0-2.36.207-1.236.413 0 0 .954.245.675.758M107.001 131.307s4.026-2.53 8.86-2.428M116.535 128.879L117.996 128.879M118.895 128.88s8.293-.012 12.972 2.007" transform="translate(-488 -1152) translate(490 1153) translate(8.446 11.196)"/>
                    <path stroke="#44E7D9" stroke-linecap="round" stroke-linejoin="round" stroke-width="1.875" d="M114.14 132.48s.428-.658-1.034-.452c-1.461.207-1.517-.877.506-.67 2.024.206 4.272.102 3.934-.517-.337-.62-2.473 0-2.36-.516.112-.516 1.91-.413 2.922-.413 1.012 0 2.473-.516 3.935 0 1.46.516-1.574.413-.562.929 1.011.516 3.034-.413 3.596-.103.562.31-.786.722-1.011 1.032-.225.31 1.147.46 1.147.46" transform="translate(-488 -1152) translate(490 1153) translate(8.446 11.196)"/>
                    <path fill="#000" d="M85.697 126.908s.903 1.355 1.58 1.129c.678-.226 1.58-.452.678-2.484-.904-2.031-2.032-3.16-2.71-4.515-.677-1.354-2.032-4.515-1.128-8.127.903-3.612 3.386-5.418 4.289-6.547.903-1.129 6.096-4.967 4.29-10.61-1.807-5.645-2.258-5.42-6.322-10.16s-5.418-6.998-5.87-8.127c-.451-1.129-2.257-4.741.452-9.256 2.709-4.515 3.838-5.418 5.87-7.902 2.031-2.483 10.61-13.094 10.61-16.706s-.903-5.644-3.16-5.644c-2.258 0-2.935 2.032-2.032 2.032 0 0 .226-.451 1.355-.451 1.128 0 1.58 1.805-.452 2.031-2.032.226-4.064-.226-3.387-3.16.678-2.935 7-2.484 8.128-.452 1.129 2.032 2.032 7.225 0 10.16-2.032 2.934-5.644 7.45-5.644 7.45s-6.773 8.127-7.224 9.03c-.452.902-3.613 5.644-2.258 11.965 1.355 6.32 8.579 12.19 8.579 12.19s3.612 3.161 4.063 7.676c.452 4.516-2.257 7-4.966 9.708-2.71 2.71-5.644 4.515-4.29 10.837 1.355 6.321 2.935 6.547 3.16 8.578.226 2.032.226 3.838-2.708 3.613 0 0-1.355-.452-.903-2.258" transform="translate(-488 -1152) translate(490 1153) translate(8.446 11.196)"/>
                    <path stroke="#FFF" stroke-linecap="round" stroke-linejoin="round" stroke-width="1.875" d="M85.697 126.908s.903 1.355 1.58 1.129c.678-.226 1.58-.452.678-2.484-.904-2.031-2.032-3.16-2.71-4.515-.677-1.354-2.032-4.515-1.128-8.127.903-3.612 3.386-5.418 4.289-6.547.903-1.129 6.096-4.967 4.29-10.61-1.807-5.645-2.258-5.42-6.322-10.16s-5.418-6.998-5.87-8.127c-.451-1.129-2.257-4.741.452-9.256 2.709-4.515 3.838-5.418 5.87-7.902 2.031-2.483 10.61-13.094 10.61-16.706s-.903-5.644-3.16-5.644c-2.258 0-2.935 2.032-2.032 2.032 0 0 .226-.451 1.355-.451 1.128 0 1.58 1.805-.452 2.031-2.032.226-4.064-.226-3.387-3.16.678-2.935 7-2.484 8.128-.452 1.129 2.032 2.032 7.225 0 10.16-2.032 2.934-5.644 7.45-5.644 7.45s-6.773 8.127-7.224 9.03c-.452.902-3.613 5.644-2.258 11.965 1.355 6.32 8.579 12.19 8.579 12.19s3.612 3.161 4.063 7.676c.452 4.516-2.257 7-4.966 9.708-2.71 2.71-5.644 4.515-4.29 10.837 1.355 6.321 2.935 6.547 3.16 8.578.226 2.032.226 3.838-2.708 3.613 0 0-1.355-.452-.903-2.258z" transform="translate(-488 -1152) translate(490 1153) translate(8.446 11.196)"/>
                    <path fill="#000" d="M91.84 126.842s-.903 1.355-1.58 1.129c-.677-.226-1.58-.452-.677-2.484.903-2.031 2.032-3.16 2.709-4.515.677-1.354 2.032-4.515 1.13-8.127-.904-3.612-3.388-5.418-4.29-6.547-.903-1.129-6.096-4.967-4.29-10.61 1.806-5.644 2.258-5.419 6.321-10.16 4.064-4.74 5.418-6.998 5.87-8.127.452-1.129 2.258-4.74-.452-9.256-2.709-4.515-3.837-5.418-5.87-7.902-2.03-2.483-10.61-13.094-10.61-16.706s.903-5.644 3.16-5.644c2.258 0 2.935 2.032 2.032 2.032 0 0-.225-.451-1.354-.451s-1.58 1.806.451 2.031c2.032.226 4.064-.225 3.387-3.16s-6.998-2.484-8.128-.452c-1.128 2.032-2.031 7.225 0 10.16 2.033 2.934 5.644 7.45 5.644 7.45s6.773 8.127 7.225 9.03c.451.903 3.612 5.644 2.257 11.965-1.354 6.321-8.579 12.19-8.579 12.19s-3.611 3.162-4.063 7.676c-.451 4.516 2.257 7 4.967 9.708 2.709 2.71 5.644 4.515 4.289 10.837-1.355 6.321-2.935 6.547-3.16 8.578-.226 2.032-.226 3.839 2.708 3.613 0 0 1.355-.452.904-2.258" transform="translate(-488 -1152) translate(490 1153) translate(8.446 11.196)"/>
                    <path stroke="#FFF" stroke-linecap="round" stroke-linejoin="round" stroke-width="1.875" d="M91.84 126.842s-.903 1.355-1.58 1.129c-.677-.226-1.58-.452-.677-2.484.903-2.031 2.032-3.16 2.709-4.515.677-1.354 2.032-4.515 1.13-8.127-.904-3.612-3.388-5.418-4.29-6.547-.903-1.129-6.096-4.967-4.29-10.61 1.806-5.644 2.258-5.419 6.321-10.16 4.064-4.74 5.418-6.998 5.87-8.127.452-1.129 2.258-4.74-.452-9.256-2.709-4.515-3.837-5.418-5.87-7.902-2.03-2.483-10.61-13.094-10.61-16.706s.903-5.644 3.16-5.644c2.258 0 2.935 2.032 2.032 2.032 0 0-.225-.451-1.354-.451s-1.58 1.806.451 2.031c2.032.226 4.064-.225 3.387-3.16s-6.998-2.484-8.128-.452c-1.128 2.032-2.031 7.225 0 10.16 2.033 2.934 5.644 7.45 5.644 7.45s6.773 8.127 7.225 9.03c.451.903 3.612 5.644 2.257 11.965-1.354 6.321-8.579 12.19-8.579 12.19s-3.611 3.162-4.063 7.676c-.451 4.516 2.257 7 4.967 9.708 2.709 2.71 5.644 4.515 4.289 10.837-1.355 6.321-2.935 6.547-3.16 8.578-.226 2.032-.226 3.839 2.708 3.613 0 0 1.355-.452.904-2.258zM107.156 151.328c-.672.27-1.294.643-1.294.643-2.263 2.05-3.748 1.839-4.597 3.394-.848 1.556.142 1.98 1.84 1.98 1.696 0 4.525-2.05 4.525-2.05.396.022 1.052-.011 1.768-.067M122.242 172.684c.408.099.664.149.664.149 1.767 1.202 8.168 3.359 8.168 3.359.777.424 7.495 3.253 10.112 3.395 2.617.14 6.365.636 7.567.636s3.89 1.839 3.89 1.839 7.77-2.828 7.602-11.634c0 0-.142-.141-2.617-1.626-2.475-1.485-5.799-4.668-5.799-4.668l-5.233-3.111s-3.96-.778-8.415-5.587c-4.456-4.809-4.739-4.385-4.739-4.385-.602.04-1.979-.079-3.057-.19M101.549 168.024c-2.051 1.132-.425 2.121-.425 2.121 1.698.99 7.78-.424 7.78-.424 1.413.283 3.394.353 3.394.353s1.131-.07 1.768 0c.302.034 1.05.147 1.752.257M140.444 172.904s-6.719-.566-10.042-3.112" transform="translate(-488 -1152) translate(490 1153) translate(8.446 11.196)"/>
                    <path stroke="#FFF" stroke-linecap="round" stroke-linejoin="round" stroke-width="1.875" d="M132.31 169.438s-2.05.99-5.94-1.414c0 0-7.354-1.556-8.627-2.122 0 0-7.991-2.97-8.345-8.203" transform="translate(-488 -1152) translate(490 1153) translate(8.446 11.196)"/>
                    <path stroke="#FFF" stroke-linecap="round" stroke-linejoin="round" stroke-width="1.875" d="M111.378 158.618l1.768.142s1.415-.707 1.202-1.061c-.212-.354-2.828-1.556-3.747-1.768-.92-.212-2.052-.495-2.334 0-.283.495 1.414 1.98 2.05 2.263.637.283 1.061.424 1.061.424zM114.56 157.84l4.668 1.415s.92.212 1.556.424 3.182.636 4.102.636c.919 0 3.96-.141 4.808-.282M130.402 159.82s.778-.353 1.344-.707M130.048 159.82s1.06-1.06 1.697-1.202c.637-.141.99-.212 1.415-.212M124.556 158.086s-.307 1.509-.307 1.947M118.309 160.74s.424-1.273.848-1.415M119.794 159.82s-.637 1.203-.637 1.627M120.36 159.82s.141 1.486-.283 2.263M108.762 169.368s.141-.99 0-1.556M115.725 165.925c-1.382.012-3.033.017-3.427-.023 0 0-6.082 1.132-7.638.99 0 0-7.001 1.84-8.203 1.344-1.203-.495-1.061-1.344-.849-1.91.212-.565 1.91-1.484 2.617-1.626.707-.141 5.303-2.05 6.01-2.121.708-.071 4.448-1.236 6.503-1.538M109.752 160.033s-5.375 1.414-6.224 1.273c0 0-6.93 2.687-8.769 1.768 0 0-.848-.778-.283-1.627.566-.849 1.415-1.414 2.9-2.122 1.485-.707 3.071-1.863 4.081-2.24" transform="translate(-488 -1152) translate(490 1153) translate(8.446 11.196)"/>
                    <path stroke="#FFF" stroke-linecap="round" stroke-linejoin="round" stroke-width="1.875" d="M103.246 160.033s.353 1.06.282 1.414c0 0 .354-.778.213-1.414M107.206 153.597s.495.778.283 1.344M104.66 166.892s-.142-1.626-.283-2.192M104.66 164.7s.354.873-.142 1.144M112.298 165.831s.566-1.414 0-2.545M122.906 172.904s.565-2.97.282-4.315" transform="translate(-488 -1152) translate(490 1153) translate(8.446 11.196)"/>
                    <path stroke="#FFF" stroke-linecap="round" stroke-linejoin="round" stroke-width="1.875" d="M124.461 170.428s-.212.708-.565.566c-.354-.141-.073-1.884-.638-1.013M128.846 174.106s-.92-2.475 0-4.314M132.31 171.013s2.476 2.951 4.386 3.092" transform="translate(-488 -1152) translate(490 1153) translate(8.446 11.196)"/>
                    <path stroke="#D1A448" stroke-linecap="round" stroke-linejoin="round" stroke-width="1.875" d="M110.043 154.5c-4.424-4.926-6.929-13.665-6.491-24.15M134.886 129.903c1.013 15.302-4.435 27.1-13.615 28.727M116.502 165.195L116.546 167.47M122.765 167.096L122.769 167.381M122.639 158.259L122.649 159M119.811 168.3c-1.893.027-2.842-.15-3.608-.706 0 0-.933.96.027 1.893 0 0 1.144.551 3.227.522M116.622 170.404l.113 7.952s.771.936 3.233.9c2.46-.034 3.015-.99 3.015-.99l-.113-7.951M118.063 165.564L118.102 167.921M118.137 170.382L118.256 178.713M120.368 167.51L120.346 166.35M120.417 170.918L120.468 174.515M120.482 175.462L120.528 178.68M122.31 170.891L122.416 178.275" transform="translate(-488 -1152) translate(490 1153) translate(8.446 11.196)"/>
                    <path stroke="#D1A448" stroke-linecap="round" stroke-linejoin="round" stroke-width="1.875" d="M119.447 168.305c1.893-.028 2.837-.23 3.586-.81 0 0 .96.934.027 1.894 0 0-1.128.584-3.21.614M134.793 129.999c.025 1.777-6.905 3.317-15.48 3.44-8.574.122-15.545-1.22-15.57-2.997-.026-1.778 6.904-3.318 15.478-3.44 8.575-.123 15.546 1.219 15.572 2.997zM116.206 176.987c-2.027.214-6.382.782-8.799 1.907 0 0-2.917 1.767 3.566 2.939M123.217 176.782c2.03.182 6.393.68 8.827 1.764 0 0 2.944 1.72-3.52 2.997M112.14 181.864s7.59 1.028 15.728-.224" transform="translate(-488 -1152) translate(490 1153) translate(8.446 11.196)"/>
                    <path stroke="#D1A448" stroke-linecap="round" stroke-linejoin="round" stroke-width="1.875" d="M106.746 179.385s-1.234.68-.636 1.808c.6 1.127 5.278 2.386 11.297 2.3M122.148 183.43c6.019-.085 10.66-1.477 11.226-2.622.567-1.144-.687-1.788-.687-1.788M117.99 183.485s2.193.048 3.689-.053M134.732 132.818c.026 1.778-6.904 3.318-15.478 3.44-8.575.123-15.546-1.219-15.572-2.996M119.482 153.196s-.324-2.44 1.096-4.142c0 0 1.093-1.51 2.92-2.135 0 0-.099 2.467-.96 3.623 0 0-.6 1.226-3.056 2.654z" transform="translate(-488 -1152) translate(490 1153) translate(8.446 11.196)"/>
                    <path stroke="#D1A448" stroke-linecap="round" stroke-linejoin="round" stroke-width="1.875" d="M119.623 153.16s.253-2.449-1.215-4.109c0 0-1.135-1.48-2.98-2.051 0 0 .17 2.463 1.063 3.595 0 0 .636 1.208 3.132 2.565z" transform="translate(-488 -1152) translate(490 1153) translate(8.446 11.196)"/>
                    <path fill="#000" d="M119.596 153.272s.915-2.286 2.987-3.073c0 0 1.693-.781 3.592-.43 0 0-1.296 2.102-2.613 2.689 0 0-1.126.773-3.966.814" transform="translate(-488 -1152) translate(490 1153) translate(8.446 11.196)"/>
                    <path stroke="#D1A448" stroke-linecap="round" stroke-linejoin="round" stroke-width="1.875" d="M119.596 153.272s.915-2.286 2.987-3.073c0 0 1.693-.781 3.592-.43 0 0-1.296 2.102-2.613 2.689 0 0-1.126.773-3.966.814z" transform="translate(-488 -1152) translate(490 1153) translate(8.446 11.196)"/>
                    <path fill="#000" d="M119.595 153.272s-.98-2.259-3.073-2.986c0 0-1.715-.733-3.603-.327 0 0 1.355 2.063 2.689 2.612 0 0 1.147.741 3.987.7" transform="translate(-488 -1152) translate(490 1153) translate(8.446 11.196)"/>
                    <path stroke="#D1A448" stroke-linecap="round" stroke-linejoin="round" stroke-width="1.875" d="M119.595 153.272s-.98-2.259-3.073-2.986c0 0-1.715-.733-3.603-.327 0 0 1.355 2.063 2.689 2.612 0 0 1.147.741 3.987.7z" transform="translate(-488 -1152) translate(490 1153) translate(8.446 11.196)"/>
                    <path fill="#000" d="M119.611 153.135s-1.552-1.91-1.232-4.104c0 0 .14-1.859 1.37-3.347 0 0 1.207 2.154 1.08 3.59 0 0 .128 1.36-1.218 3.86" transform="translate(-488 -1152) translate(490 1153) translate(8.446 11.196)"/>
                    <path stroke="#D1A448" stroke-linecap="round" stroke-linejoin="round" stroke-width="1.875" d="M119.611 153.135s-1.552-1.91-1.232-4.104c0 0 .14-1.859 1.37-3.347 0 0 1.207 2.154 1.08 3.59 0 0 .128 1.36-1.218 3.86zM105.453 141.068s1.603 8.756 5.97 13.079M105.198 139.51s-.206-1.132-.22-2.079" transform="translate(-488 -1152) translate(490 1153) translate(8.446 11.196)"/>
                    <path stroke="#D1A448" stroke-linecap="round" stroke-linejoin="round" stroke-width="1.25" d="M105.4 140.455L105.398 140.266" transform="translate(-488 -1152) translate(490 1153) translate(8.446 11.196)"/>
                    <path fill="#FFF" d="M119.752 80.391c.191-.063.398.04.461.232.064.191-.04.398-.23.461-.193.064-.399-.04-.463-.231-.063-.192.04-.399.232-.462M128.402 84.2c.345-.115.717.071.831.416.115.344-.072.716-.416.83-.345.115-.717-.072-.831-.416-.115-.345.072-.716.416-.83M113.697 95.388c.191-.064.399.04.462.231.064.192-.04.398-.231.462-.192.063-.399-.04-.462-.232-.064-.191.04-.398.231-.461M108.074 87.494c.344-.115.716.072.83.416.115.345-.072.717-.416.83-.345.115-.717-.071-.83-.416-.115-.344.07-.716.416-.83M122.97 96.12c-.115-.345.072-.717.416-.831.345-.115.717.072.831.417.115.344-.072.716-.416.83-.345.115-.717-.072-.831-.416M112.673 104.06c.344-.115.716.072.83.416.115.345-.072.716-.416.83-.345.115-.717-.071-.831-.416-.114-.345.072-.716.417-.83M125.128 118.637c.128.156.106.386-.05.514-.155.128-.385.106-.513-.049-.129-.156-.106-.386.05-.514.154-.128.385-.106.513.05M134.852 91.31c.18.218.148.54-.07.72-.217.18-.54.149-.719-.069-.18-.218-.149-.54.07-.72.217-.18.54-.148.719.07M125.215 104.94c.373-.307.926-.254 1.234.12.308.373.255.925-.118 1.233-.374.308-.926.255-1.234-.119-.308-.373-.255-.925.118-1.233M116.35 114.466c.373-.308.925-.255 1.233.118.308.373.255.926-.118 1.234-.374.308-.926.255-1.234-.119-.308-.373-.255-.925.118-1.233M58.462 79.697c-.19-.063-.398.04-.461.231-.064.192.04.398.231.462.192.063.398-.04.462-.232.064-.191-.04-.398-.232-.461M49.812 83.505c-.345-.115-.716.072-.83.416-.115.345.071.717.416.831.344.115.717-.072.83-.416.115-.345-.071-.717-.416-.831M64.517 94.694c-.191-.064-.398.04-.461.231-.064.191.04.398.231.462.192.063.398-.04.462-.232.063-.191-.04-.398-.232-.461M70.14 86.8c-.344-.115-.716.071-.83.416-.114.345.072.716.417.83.344.115.716-.071.83-.416.115-.345-.072-.716-.416-.83M55.245 95.426c.114-.345-.073-.717-.417-.832-.345-.114-.716.073-.831.417-.114.345.072.717.417.831.344.115.716-.072.83-.416M65.542 103.365c-.345-.114-.717.072-.831.417-.114.344.072.716.417.83.344.115.716-.072.83-.416.115-.345-.072-.717-.416-.83M53.086 117.943c-.128.155-.106.386.05.514.155.128.385.106.514-.05.128-.155.106-.385-.05-.513-.155-.129-.385-.107-.514.049M43.363 90.616c-.18.218-.149.54.069.72.218.18.54.148.72-.07.179-.217.148-.54-.07-.719-.218-.18-.54-.149-.72.069M53 104.247c-.374-.308-.926-.255-1.234.118-.308.373-.255.926.118 1.234.373.307.925.255 1.234-.119.308-.373.255-.926-.119-1.233M61.865 113.771c-.373-.308-.926-.255-1.234.119-.308.373-.255.926.119 1.233.373.309.925.256 1.233-.118.308-.373.255-.926-.118-1.234" transform="translate(-488 -1152) translate(490 1153) translate(8.446 11.196)"/>
                </g>
            </g>
        </g>
    </g>
</svg>
