<svg xmlns="http://www.w3.org/2000/svg" width="190" height="266" viewBox="0 0 190 266"><title>Девятка Кубков</title>
    <g fill="none" fill-rule="evenodd">
        <g>
            <g>
                <g stroke-width="1.875">
                    <path fill="#152230" stroke="#FFF" stroke-linecap="round" stroke-linejoin="round" d="M177.795 263.217H9.62c-5.22 0-9.452-4.192-9.452-9.364V9.365C.17 4.193 4.401 0 9.621 0h168.174c5.22 0 9.452 4.193 9.452 9.365v244.488c0 5.172-4.232 9.364-9.452 9.364z" transform="translate(-193 -1881) translate(194 1882) translate(0 .372)"/>
                    <path stroke="#D1A448" d="M153.517 110.924c.694 11.74-3.884 20.594-11.32 20.859-7.349.262-12.198-8.65-11.597-20.709M139.85 131.431L139.895 138.04M144.402 131.401L144.447 138.01M142.278 138.66c-1.385.008-2.078-.124-2.634-.532 0 0-.688.69.009 1.372 0 0 .833.406 2.356.396M139.934 140.166l.038 5.762s.56.683 2.36.67c1.8-.011 2.21-.7 2.21-.7l-.038-5.762M140.987 131.928L141.03 138.376M141.042 140.159L141.082 146.195M142.65 132.191L142.69 138.091M142.706 140.56L142.724 143.166M142.728 143.852L142.744 146.184M144.035 132.182L144.069 137.258M144.091 140.55L144.126 145.901" transform="translate(-193 -1881) translate(194 1882) translate(0 .372)"/>
                    <path stroke="#D1A448" d="M142.012 138.66c1.385-.008 2.076-.15 2.627-.565 0 0 .697.681.01 1.372 0 0-.829.417-2.352.427M153.448 110.993c.009 1.288-5.068 2.365-11.339 2.407-6.27.04-11.36-.97-11.37-2.258-.008-1.288 5.068-2.365 11.34-2.407 6.27-.04 11.36.97 11.37 2.258zM139.593 144.933c-1.483.144-4.67.532-6.445 1.333 0 0-2.143 1.264 2.591 2.15M144.721 144.824c1.483.143 4.671.527 6.445 1.327 0 0 2.144 1.262-2.59 2.152M136.593 148.444s5.543.787 11.502-.075" transform="translate(-193 -1881) translate(194 1882) translate(0 .372)"/>
                    <path stroke="#D1A448" d="M132.662 146.618s-.907.486-.475 1.306c.431.82 3.846 1.759 8.248 1.73M143.902 149.635c4.402-.03 7.804-1.012 8.225-1.838.42-.826-.493-1.3-.493-1.3M140.861 149.651s1.604.048 2.698-.018M153.388 113.035c.009 1.289-5.068 2.366-11.339 2.407-6.27.041-11.361-.97-11.37-2.258M142.122 127.715s-.223-1.77.825-2.995c0 0 .807-1.089 2.147-1.53 0 0-.086 1.786-.722 2.62 0 0-.447.884-2.25 1.905z" transform="translate(-193 -1881) translate(194 1882) translate(0 .372)"/>
                    <path stroke="#D1A448" d="M142.225 127.69s.2-1.773-.865-2.984c0 0-.822-1.079-2.168-1.503 0 0 .11 1.786.758 2.61 0 0 .458.88 2.275 1.876zM142.205 127.77s.682-1.65 2.201-2.21c0 0 1.243-.556 2.63-.29 0 0-.96 1.515-1.927 1.933 0 0-.827.554-2.904.567z" transform="translate(-193 -1881) translate(194 1882) translate(0 .372)"/>
                    <path stroke="#D1A448" d="M142.204 127.77s-.704-1.641-2.23-2.18c0 0-1.25-.54-2.633-.257 0 0 .98 1.503 1.951 1.908 0 0 .835.543 2.912.53z" transform="translate(-193 -1881) translate(194 1882) translate(0 .372)"/>
                    <path stroke="#D1A448" d="M142.217 127.671s-1.125-1.392-.879-2.98c0 0 .113-1.346 1.022-2.417 0 0 .87 1.567.768 2.607 0 0 .087.985-.911 2.79zM131.93 118.85s1.124 6.352 4.293 9.509M131.753 117.72s-.145-.822-.149-1.508M131.895 118.406L131.895 118.269" transform="translate(-193 -1881) translate(194 1882) translate(0 .372)"/>
                    <path stroke="#44E7D9" d="M145.048 113.104s-1.449-.09-1.111-.587c.337-.498-.004-.495-.685-.491-.681.004-1.787.21-.934.402 0 0 .724.23.516.724M132.022 112.051s4.315-2.14 7.979-2.064M140.684 109.982L142.259 109.972M142.78 109.969s6.363-.054 9.425 1.863" transform="translate(-193 -1881) translate(194 1882) translate(0 .372)"/>
                    <path stroke="#44E7D9" d="M138.719 113.133s.32-.634-.787-.428c-1.106.205-1.156-.834.38-.647 1.534.188 3.237.078 2.977-.514-.259-.593-1.874.012-1.792-.484.082-.496 1.445-.405 2.212-.41.767-.006 1.871-.508 2.982-.02 1.111.488-1.19.404-.42.894s2.298-.411 2.726-.117c.428.294-.592.697-.76.995-.17.299.872.435.872.435" transform="translate(-193 -1881) translate(194 1882) translate(0 .372)"/>
                </g>
                <path fill="#D1A448" fill-rule="nonzero" d="M55.327 251.804v-6.139l-.032-3.213v-.067c.4 1.04 1.634 4.179 3.702 9.419h1.072v-10.816h-.812v6.171l.032 3.28c-.13-.346-1.364-3.496-3.702-9.45H54.53v10.815h.796zm7.99 0v-10.816h-.812v10.816h.812zm3.231 0v-6.139l-.03-3.13-.002-.15c.4 1.04 1.634 4.179 3.702 9.419h1.072v-10.816h-.812v6.171l.033 3.28c-.13-.346-1.364-3.496-3.703-9.45h-1.056v10.815h.796zm11.66 0v-.73h-3.67v-4.353h3.2v-.73h-3.2v-4.272h3.67v-.73h-4.482v10.815h4.482zm7.373.162c.855 0 1.5-.23 1.932-.69.433-.46.65-1.058.65-1.794v-6.171c0-.737-.217-1.335-.65-1.795-.433-.46-1.077-.69-1.932-.69s-1.5.23-1.933.69c-.433.46-.65 1.058-.65 1.795v6.17c0 .737.217 1.335.65 1.795.433.46 1.078.69 1.933.69zm0-.73c-1.18 0-1.77-.585-1.77-1.754v-6.171c0-1.17.59-1.754 1.77-1.754 1.18 0 1.77.584 1.77 1.754v6.17c0 1.17-.59 1.754-1.77 1.754zm5.667.568v-4.92h3.378v-.731h-3.378v-4.434h3.524v-.73h-4.336v10.815h.812zm10.394 0l.99-5.716c.238-1.365.412-2.637.52-3.817.119 1.18.628 4.358 1.526 9.533h1.17l1.883-10.816h-.844c-.899 5.446-1.44 8.808-1.624 10.085l-.422-2.842-1.202-7.243h-.958l-1.202 7.227c-.162.953-.303 1.905-.422 2.858l-.422-2.842-1.202-7.243h-.844l1.883 10.816h1.17zm7.665 0l.73-3.167h3.086l.73 3.167h.845l-2.533-10.816h-1.17l-2.533 10.816h.845zm3.654-3.898H110.2l1.38-5.992 1.38 5.992zm5.18 3.898v-10.085h2.144v-.73h-5.1v.73h2.144v10.085h.812zm8.006 0v-.73h-3.67v-4.353h3.2v-.73h-3.2v-4.272h3.67v-.73h-4.482v10.815h4.482zm2.68 0v-4.466h1.575c.173 0 .303-.005.39-.016l1.607 4.482h.893l-1.705-4.66c.931-.347 1.397-1.094 1.397-2.242v-1.478c0-.736-.217-1.326-.65-1.77-.433-.444-1.077-.666-1.932-.666h-2.387v10.816h.812zm1.575-5.23h-1.575v-4.855h1.575c1.18 0 1.77.569 1.77 1.705v1.478c0 1.115-.59 1.673-1.77 1.673z" transform="translate(-193 -1881) translate(194 1882)"/>
                <g stroke="#FFF" stroke-width="1.875">
                    <path d="M92.083.491L158.54.491 158.54 221.581M10.436.491L66.955.491M148.471 234.426L125.919 234.426M.043 11.341L.043 234.426 32.845 234.426" transform="translate(-193 -1881) translate(194 1882) translate(14.19 14.43)"/>
                </g>
                <path fill="#D1A448" fill-rule="nonzero" d="M91.093 18.962V8.147h-.812v10.815h.812zm2.355 0l1.884-4.417 1.884 4.417h.893l-2.371-5.407 2.37-5.408h-.892l-1.884 4.433-1.884-4.433h-.893l2.355 5.408-2.355 5.407h.893z" transform="translate(-193 -1881) translate(194 1882)"/>
                <g>
                    <path fill="#000" d="M164.444 231.681L167.067 236.181 169.689 240.681 164.444 240.681 159.2 240.681 161.822 236.181z" transform="translate(-193 -1881) translate(194 1882) translate(8.446 11.083)"/>
                    <path stroke="#44E7D9" stroke-width="1.875" d="M164.444 231.681L167.067 236.181 169.689 240.681 164.444 240.681 159.2 240.681 161.822 236.181z" transform="translate(-193 -1881) translate(194 1882) translate(8.446 11.083)"/>
                    <path fill="#000" d="M5.572 9.025L2.95 4.525 0.328 0.025 5.572 0.025 10.817 0.025 8.195 4.525z" transform="translate(-193 -1881) translate(194 1882) translate(8.446 11.083)"/>
                    <path stroke="#44E7D9" stroke-width="1.875" d="M5.572 9.025L2.95 4.525 0.328 0.025 5.572 0.025 10.817 0.025 8.195 4.525z" transform="translate(-193 -1881) translate(194 1882) translate(8.446 11.083)"/>
                    <path stroke="#D1A448" stroke-width="1.875" d="M46.192 100.213c.694 11.74-3.883 20.594-11.32 20.859-7.349.262-12.197-8.65-11.596-20.708M32.526 120.72L32.57 127.329M37.077 120.69L37.122 127.299M34.953 127.949c-1.384.009-2.077-.124-2.634-.532 0 0-.688.69.01 1.372 0 0 .833.406 2.356.396M32.61 129.456l.038 5.761s.559.683 2.359.67c1.8-.01 2.21-.7 2.21-.7l-.038-5.761M33.662 121.217L33.705 127.665M33.717 129.448L33.757 135.484M35.326 121.481L35.365 127.38M35.382 129.849L35.399 132.456M35.403 133.141L35.419 135.474M36.71 121.472L36.744 126.548M36.766 129.84L36.802 135.19" transform="translate(-193 -1881) translate(194 1882) translate(8.446 11.083)"/>
                    <path stroke="#D1A448" stroke-width="1.875" d="M34.687 127.95c1.385-.009 2.076-.15 2.627-.565 0 0 .697.68.01 1.371 0 0-.829.417-2.352.427M46.123 100.282c.009 1.288-5.068 2.366-11.338 2.407-6.271.04-11.362-.97-11.37-2.258-.009-1.288 5.067-2.365 11.338-2.406 6.271-.041 11.362.97 11.37 2.257zM32.268 134.223c-1.483.144-4.67.531-6.445 1.332 0 0-2.143 1.265 2.592 2.15M37.396 134.114c1.484.142 4.671.527 6.446 1.326 0 0 2.143 1.262-2.59 2.152M29.268 137.734s5.544.786 11.502-.076" transform="translate(-193 -1881) translate(194 1882) translate(8.446 11.083)"/>
                    <path stroke="#D1A448" stroke-width="1.875" d="M25.337 135.908s-.906.485-.475 1.306c.432.82 3.847 1.758 8.249 1.73M36.578 138.924c4.402-.03 7.803-1.011 8.224-1.838.42-.825-.493-1.3-.493-1.3M33.536 138.94s1.605.048 2.698-.017M46.063 102.325c.009 1.288-5.067 2.365-11.338 2.406-6.271.041-11.362-.97-11.37-2.257M34.797 117.004s-.223-1.77.825-2.995c0 0 .807-1.088 2.147-1.53 0 0-.086 1.786-.722 2.62 0 0-.446.884-2.25 1.905z" transform="translate(-193 -1881) translate(194 1882) translate(8.446 11.083)"/>
                    <path stroke="#D1A448" stroke-width="1.875" d="M34.9 116.979s.2-1.773-.865-2.984c0 0-.821-1.078-2.167-1.502 0 0 .11 1.785.757 2.61 0 0 .458.879 2.275 1.876zM34.88 117.06s.682-1.651 2.202-2.21c0 0 1.242-.557 2.629-.292 0 0-.96 1.516-1.926 1.934 0 0-.827.554-2.904.568z" transform="translate(-193 -1881) translate(194 1882) translate(8.446 11.083)"/>
                    <path stroke="#D1A448" stroke-width="1.875" d="M34.88 117.06s-.704-1.642-2.231-2.18c0 0-1.25-.541-2.633-.258 0 0 .98 1.503 1.952 1.908 0 0 .834.543 2.911.53z" transform="translate(-193 -1881) translate(194 1882) translate(8.446 11.083)"/>
                    <path stroke="#D1A448" stroke-width="1.875" d="M34.892 116.96s-1.125-1.392-.879-2.98c0 0 .114-1.346 1.022-2.417 0 0 .87 1.567.769 2.607 0 0 .086.986-.912 2.79zM24.606 108.14s1.123 6.352 4.292 9.508M24.428 107.01s-.144-.822-.149-1.508M24.571 107.695L24.57 107.558" transform="translate(-193 -1881) translate(194 1882) translate(8.446 11.083)"/>
                    <path stroke="#44E7D9" stroke-width="1.875" d="M37.724 102.393s-1.45-.09-1.112-.587c.338-.498-.003-.495-.684-.49-.682.004-1.788.209-.935.401 0 0 .725.23.516.724M24.697 101.34s4.315-2.139 7.98-2.064M33.359 99.272L34.934 99.261M35.456 99.258s6.362-.053 9.424 1.864" transform="translate(-193 -1881) translate(194 1882) translate(8.446 11.083)"/>
                    <path stroke="#44E7D9" stroke-width="1.875" d="M31.394 102.422s.32-.634-.787-.428c-1.106.205-1.155-.834.38-.646 1.534.188 3.237.077 2.978-.515-.26-.593-1.874.012-1.793-.484.082-.496 1.446-.405 2.213-.41.766-.006 1.87-.508 2.981-.02 1.111.488-1.19.404-.42.894s2.298-.411 2.726-.117c.428.295-.592.697-.76.996-.169.298.872.434.872.434" transform="translate(-193 -1881) translate(194 1882) translate(8.446 11.083)"/>
                    <path stroke="#D1A448" stroke-width="1.875" d="M95.72 54.693c.693 11.739-3.884 20.594-11.32 20.858-7.35.262-12.198-8.649-11.597-20.708M82.053 75.199L82.097 81.809M86.605 75.169L86.649 81.779M84.48 82.428c-1.384.01-2.077-.123-2.634-.531 0 0-.688.69.01 1.371 0 0 .833.406 2.356.396M82.137 83.935l.038 5.762s.559.682 2.359.67c1.8-.011 2.21-.7 2.21-.7l-.038-5.762M83.189 75.697L83.233 82.144M83.244 83.928L83.285 89.964M84.853 75.96L84.892 81.859M84.909 84.328L84.926 86.935M84.931 87.621L84.947 89.953M86.237 75.951L86.272 81.027M86.294 84.319L86.329 89.67" transform="translate(-193 -1881) translate(194 1882) translate(8.446 11.083)"/>
                    <path stroke="#D1A448" stroke-width="1.875" d="M84.214 82.43c1.385-.01 2.076-.151 2.627-.566 0 0 .697.681.01 1.372 0 0-.828.416-2.351.427M95.65 54.762c.01 1.288-5.067 2.365-11.338 2.406-6.271.041-11.362-.97-11.37-2.257-.009-1.288 5.068-2.366 11.339-2.407 6.27-.04 11.361.97 11.37 2.258zM81.795 88.702c-1.483.144-4.67.532-6.444 1.333 0 0-2.143 1.264 2.59 2.149M86.924 88.593c1.483.142 4.67.527 6.445 1.327 0 0 2.143 1.262-2.59 2.151M78.795 92.213s5.544.787 11.503-.076" transform="translate(-193 -1881) translate(194 1882) translate(8.446 11.083)"/>
                    <path stroke="#D1A448" stroke-width="1.875" d="M74.864 90.387s-.906.486-.475 1.306c.432.82 3.847 1.758 8.249 1.73M86.105 93.403c4.402-.029 7.804-1.011 8.224-1.837.42-.826-.492-1.3-.492-1.3M83.064 93.42s1.604.047 2.698-.018M95.59 56.804c.01 1.288-5.067 2.365-11.338 2.407-6.27.04-11.361-.97-11.37-2.258M84.324 71.484s-.222-1.77.825-2.995c0 0 .808-1.089 2.148-1.531 0 0-.087 1.786-.722 2.62 0 0-.447.885-2.25 1.906z" transform="translate(-193 -1881) translate(194 1882) translate(8.446 11.083)"/>
                    <path stroke="#D1A448" stroke-width="1.875" d="M84.428 71.458s.199-1.773-.866-2.983c0 0-.821-1.079-2.167-1.503 0 0 .11 1.785.757 2.61 0 0 .458.879 2.276 1.876zM84.408 71.54s.682-1.652 2.2-2.21c0 0 1.243-.558 2.63-.292 0 0-.96 1.515-1.926 1.934 0 0-.827.553-2.904.567z" transform="translate(-193 -1881) translate(194 1882) translate(8.446 11.083)"/>
                    <path stroke="#D1A448" stroke-width="1.875" d="M84.406 71.54s-.703-1.643-2.23-2.181c0 0-1.25-.541-2.633-.257 0 0 .98 1.502 1.952 1.907 0 0 .834.544 2.911.53z" transform="translate(-193 -1881) translate(194 1882) translate(8.446 11.083)"/>
                    <path stroke="#D1A448" stroke-width="1.875" d="M84.42 71.44s-1.125-1.393-.88-2.98c0 0 .114-1.346 1.022-2.418 0 0 .87 1.568.769 2.608 0 0 .086.985-.912 2.79zM74.133 62.619s1.123 6.352 4.292 9.509M73.955 61.49s-.144-.823-.148-1.509M74.098 62.175L74.097 62.037" transform="translate(-193 -1881) translate(194 1882) translate(8.446 11.083)"/>
                    <path stroke="#44E7D9" stroke-width="1.875" d="M87.251 56.872s-1.449-.09-1.111-.587c.337-.497-.004-.495-.685-.49-.682.004-1.788.21-.935.402 0 0 .725.23.516.724M74.224 55.82s4.316-2.14 7.98-2.064M82.886 53.751L84.462 53.741M84.983 53.737s6.363-.053 9.424 1.864" transform="translate(-193 -1881) translate(194 1882) translate(8.446 11.083)"/>
                    <path stroke="#44E7D9" stroke-width="1.875" d="M80.921 56.902s.32-.634-.786-.429c-1.107.206-1.156-.834.379-.646 1.535.188 3.238.078 2.978-.515-.26-.592-1.874.013-1.792-.483.082-.496 1.445-.406 2.212-.411.767-.005 1.871-.507 2.982-.02 1.11.489-1.19.405-.42.895s2.297-.411 2.725-.117c.428.294-.592.697-.76.995-.168.298.873.435.873.435" transform="translate(-193 -1881) translate(194 1882) translate(8.446 11.083)"/>
                    <path stroke="#D1A448" stroke-width="1.875" d="M121.557 74.886c.694 11.739-3.883 20.594-11.32 20.858-7.349.263-12.198-8.649-11.596-20.708M107.891 95.392L107.935 102.002M112.443 95.362L112.487 101.972M110.318 102.621c-1.384.01-2.077-.123-2.634-.531 0 0-.688.69.009 1.372 0 0 .833.406 2.357.396M107.974 104.128l.039 5.762s.559.682 2.359.67c1.8-.011 2.21-.7 2.21-.7l-.038-5.762M109.027 95.89L109.07 102.337M109.082 104.121L109.122 110.157M110.691 96.153L110.73 102.052M110.747 104.521L110.764 107.128M110.769 107.814L110.784 110.146M112.075 96.144L112.109 101.22M112.131 104.512L112.167 109.863" transform="translate(-193 -1881) translate(194 1882) translate(8.446 11.083)"/>
                    <path stroke="#D1A448" stroke-width="1.875" d="M110.052 102.623c1.385-.01 2.076-.15 2.627-.566 0 0 .697.681.01 1.372 0 0-.828.416-2.352.427M121.488 74.955c.009 1.288-5.068 2.365-11.339 2.406-6.27.042-11.36-.97-11.37-2.257-.008-1.288 5.068-2.366 11.34-2.407 6.27-.04 11.36.97 11.37 2.258zM107.633 108.895c-1.483.144-4.67.532-6.445 1.333 0 0-2.142 1.264 2.591 2.149M112.761 108.786c1.484.142 4.671.527 6.446 1.327 0 0 2.143 1.262-2.59 2.151M104.633 112.406s5.543.787 11.502-.076" transform="translate(-193 -1881) translate(194 1882) translate(8.446 11.083)"/>
                    <path stroke="#D1A448" stroke-width="1.875" d="M100.702 110.58s-.907.486-.475 1.306c.432.82 3.846 1.759 8.248 1.73M111.943 113.597c4.402-.03 7.804-1.012 8.224-1.838.42-.826-.493-1.3-.493-1.3M108.901 113.613s1.604.047 2.698-.018M121.428 76.997c.009 1.288-5.068 2.366-11.338 2.407-6.271.04-11.362-.97-11.37-2.258M110.162 91.677s-.223-1.77.825-2.995c0 0 .807-1.089 2.147-1.531 0 0-.086 1.786-.722 2.62 0 0-.446.885-2.25 1.906z" transform="translate(-193 -1881) translate(194 1882) translate(8.446 11.083)"/>
                    <path stroke="#D1A448" stroke-width="1.875" d="M110.265 91.651s.2-1.772-.865-2.983c0 0-.822-1.079-2.168-1.503 0 0 .11 1.785.758 2.61 0 0 .458.88 2.275 1.876zM110.245 91.732s.682-1.65 2.201-2.21c0 0 1.243-.556 2.63-.291 0 0-.96 1.516-1.926 1.934 0 0-.828.554-2.905.567z" transform="translate(-193 -1881) translate(194 1882) translate(8.446 11.083)"/>
                    <path stroke="#D1A448" stroke-width="1.875" d="M110.244 91.732s-.703-1.642-2.23-2.18c0 0-1.25-.54-2.633-.257 0 0 .98 1.502 1.952 1.908 0 0 .834.543 2.911.53z" transform="translate(-193 -1881) translate(194 1882) translate(8.446 11.083)"/>
                    <path stroke="#D1A448" stroke-width="1.875" d="M110.257 91.633s-1.125-1.393-.879-2.98c0 0 .113-1.346 1.022-2.417 0 0 .87 1.567.768 2.607 0 0 .087.985-.911 2.79zM99.971 82.812s1.123 6.352 4.292 9.509M99.793 81.682s-.144-.822-.149-1.508M99.936 82.368L99.935 82.23" transform="translate(-193 -1881) translate(194 1882) translate(8.446 11.083)"/>
                    <path stroke="#44E7D9" stroke-width="1.875" d="M113.089 77.065s-1.45-.09-1.112-.587c.338-.497-.003-.495-.685-.49-.681.004-1.787.21-.934.402 0 0 .725.23.516.724M100.062 76.013s4.315-2.14 7.98-2.064M108.724 73.944L110.299 73.934M110.82 73.93s6.363-.052 9.425 1.864" transform="translate(-193 -1881) translate(194 1882) translate(8.446 11.083)"/>
                    <path stroke="#44E7D9" stroke-width="1.875" d="M106.759 77.095s.32-.634-.787-.429c-1.106.206-1.155-.834.38-.646 1.534.188 3.237.078 2.977-.515-.259-.592-1.874.013-1.791-.483.081-.496 1.445-.406 2.212-.411.766-.005 1.87-.507 2.981-.02 1.111.489-1.19.405-.42.895s2.298-.411 2.726-.117c.428.294-.592.697-.76.995-.169.298.872.435.872.435" transform="translate(-193 -1881) translate(194 1882) translate(8.446 11.083)"/>
                    <path fill="#000" d="M128.986 129.846c.693 11.74-3.884 20.594-11.32 20.86-7.35.261-12.198-8.65-11.597-20.71" transform="translate(-193 -1881) translate(194 1882) translate(8.446 11.083)"/>
                    <path stroke="#D1A448" stroke-width="1.875" d="M128.986 129.846c.693 11.74-3.884 20.594-11.32 20.86-7.35.261-12.198-8.65-11.597-20.71M115.319 150.353L115.364 156.962M119.871 150.323L119.915 156.933M117.747 157.581c-1.385.01-2.078-.123-2.635-.531 0 0-.687.69.01 1.372 0 0 .833.406 2.356.396" transform="translate(-193 -1881) translate(194 1882) translate(8.446 11.083)"/>
                    <path fill="#000" d="M115.403 159.089l.038 5.762s.559.682 2.359.67c1.8-.012 2.21-.7 2.21-.7l-.038-5.762" transform="translate(-193 -1881) translate(194 1882) translate(8.446 11.083)"/>
                    <path stroke="#D1A448" stroke-width="1.875" d="M115.403 159.089l.038 5.762s.559.682 2.359.67c1.8-.012 2.21-.7 2.21-.7l-.038-5.762M116.456 150.85L116.499 157.298M116.511 159.081L116.551 165.118M118.119 151.114L118.158 157.013M118.175 159.482L118.193 162.089M118.197 162.775L118.213 165.107M119.504 151.105L119.538 156.181M119.56 159.473L119.595 164.823M117.48 157.583c1.385-.009 2.077-.15 2.628-.566 0 0 .697.682.009 1.372 0 0-.828.417-2.351.427" transform="translate(-193 -1881) translate(194 1882) translate(8.446 11.083)"/>
                    <path fill="#000" d="M128.917 129.915c.008 1.289-5.068 2.366-11.34 2.407-6.27.041-11.36-.97-11.37-2.258-.008-1.287 5.069-2.365 11.34-2.406 6.27-.041 11.361.97 11.37 2.257" transform="translate(-193 -1881) translate(194 1882) translate(8.446 11.083)"/>
                    <path stroke="#D1A448" stroke-width="1.875" d="M128.917 129.915c.008 1.289-5.068 2.366-11.34 2.407-6.27.041-11.36-.97-11.37-2.258-.008-1.287 5.069-2.365 11.34-2.406 6.27-.041 11.361.97 11.37 2.257z" transform="translate(-193 -1881) translate(194 1882) translate(8.446 11.083)"/>
                    <path fill="#000" d="M115.062 163.856c-1.484.144-4.671.531-6.445 1.332 0 0-2.143 1.265 2.59 2.15" transform="translate(-193 -1881) translate(194 1882) translate(8.446 11.083)"/>
                    <path stroke="#D1A448" stroke-width="1.875" d="M115.062 163.856c-1.484.144-4.671.531-6.445 1.332 0 0-2.143 1.265 2.59 2.15" transform="translate(-193 -1881) translate(194 1882) translate(8.446 11.083)"/>
                    <path fill="#000" d="M120.19 163.746c1.483.143 4.67.528 6.445 1.327 0 0 2.143 1.262-2.59 2.152" transform="translate(-193 -1881) translate(194 1882) translate(8.446 11.083)"/>
                    <path stroke="#D1A448" stroke-width="1.875" d="M120.19 163.746c1.483.143 4.67.528 6.445 1.327 0 0 2.143 1.262-2.59 2.152" transform="translate(-193 -1881) translate(194 1882) translate(8.446 11.083)"/>
                    <path fill="#000" d="M112.061 167.367s5.544.787 11.503-.076" transform="translate(-193 -1881) translate(194 1882) translate(8.446 11.083)"/>
                    <path stroke="#D1A448" stroke-width="1.875" d="M112.061 167.367s5.544.787 11.503-.076M108.13 165.54s-.906.487-.474 1.307c.431.82 3.846 1.758 8.248 1.73" transform="translate(-193 -1881) translate(194 1882) translate(8.446 11.083)"/>
                    <path stroke="#D1A448" stroke-width="1.875" d="M119.371 168.557c4.402-.029 7.804-1.011 8.224-1.837.42-.826-.492-1.3-.492-1.3M116.33 168.573s1.604.048 2.698-.017M128.857 131.958c.008 1.288-5.068 2.365-11.339 2.406-6.27.042-11.361-.97-11.37-2.257M117.59 146.637s-.223-1.77.825-2.995c0 0 .808-1.088 2.148-1.53 0 0-.086 1.786-.722 2.62 0 0-.447.885-2.25 1.905z" transform="translate(-193 -1881) translate(194 1882) translate(8.446 11.083)"/>
                    <path stroke="#D1A448" stroke-width="1.875" d="M117.694 146.612s.199-1.773-.865-2.984c0 0-.822-1.078-2.168-1.503 0 0 .11 1.786.757 2.61 0 0 .458.88 2.276 1.877zM117.674 146.693s.681-1.651 2.2-2.21c0 0 1.243-.557 2.63-.292 0 0-.96 1.516-1.926 1.934 0 0-.827.554-2.904.568z" transform="translate(-193 -1881) translate(194 1882) translate(8.446 11.083)"/>
                    <path stroke="#D1A448" stroke-width="1.875" d="M117.673 146.693s-.704-1.642-2.23-2.18c0 0-1.25-.541-2.634-.258 0 0 .98 1.503 1.952 1.908 0 0 .835.543 2.912.53z" transform="translate(-193 -1881) translate(194 1882) translate(8.446 11.083)"/>
                    <path stroke="#D1A448" stroke-width="1.875" d="M117.685 146.594s-1.124-1.393-.878-2.98c0 0 .113-1.347 1.021-2.418 0 0 .87 1.567.769 2.607 0 0 .086.986-.912 2.79zM107.4 137.772s1.122 6.353 4.291 9.51M107.221 136.643s-.144-.822-.148-1.508M107.364 137.328L107.363 137.191" transform="translate(-193 -1881) translate(194 1882) translate(8.446 11.083)"/>
                    <path stroke="#44E7D9" stroke-width="1.875" d="M120.517 132.026s-1.449-.09-1.111-.587c.337-.498-.004-.495-.685-.49-.682.004-1.788.209-.935.401 0 0 .725.23.517.724M107.49 130.974s4.316-2.14 7.98-2.065M116.152 128.905L117.728 128.895M118.25 128.89s6.362-.052 9.424 1.865" transform="translate(-193 -1881) translate(194 1882) translate(8.446 11.083)"/>
                    <path stroke="#44E7D9" stroke-width="1.875" d="M114.187 132.056s.32-.635-.786-.43c-1.107.206-1.156-.833.379-.645 1.534.188 3.238.077 2.978-.515-.26-.593-1.874.012-1.792-.484.082-.495 1.445-.405 2.212-.41.767-.006 1.871-.508 2.982-.02 1.11.488-1.19.404-.42.894s2.297-.411 2.725-.116c.428.294-.592.697-.76.995-.168.298.873.434.873.434" transform="translate(-193 -1881) translate(194 1882) translate(8.446 11.083)"/>
                    <path fill="#000" d="M68.685 74.886c.694 11.739-3.883 20.594-11.319 20.858-7.35.263-12.198-8.649-11.597-20.708" transform="translate(-193 -1881) translate(194 1882) translate(8.446 11.083)"/>
                    <path stroke="#D1A448" stroke-width="1.875" d="M68.685 74.886c.694 11.739-3.883 20.594-11.319 20.858-7.35.263-12.198-8.649-11.597-20.708M55.019 95.392L55.063 102.002M59.571 95.362L59.615 101.972M57.447 102.621c-1.385.01-2.078-.123-2.635-.531 0 0-.687.69.01 1.372 0 0 .833.406 2.356.396" transform="translate(-193 -1881) translate(194 1882) translate(8.446 11.083)"/>
                    <path fill="#000" d="M55.103 104.128l.038 5.762s.559.682 2.359.67c1.8-.011 2.211-.7 2.211-.7l-.039-5.762" transform="translate(-193 -1881) translate(194 1882) translate(8.446 11.083)"/>
                    <path stroke="#D1A448" stroke-width="1.875" d="M55.103 104.128l.038 5.762s.559.682 2.359.67c1.8-.011 2.211-.7 2.211-.7l-.039-5.762M56.156 95.89L56.199 102.337M56.211 104.121L56.251 110.157M57.819 96.153L57.858 102.052M57.875 104.521L57.893 107.128M57.897 107.814L57.913 110.146M59.204 96.144L59.238 101.22M59.26 104.512L59.295 109.863M57.18 102.623c1.385-.01 2.077-.15 2.627-.566 0 0 .698.681.01 1.372 0 0-.828.416-2.351.427" transform="translate(-193 -1881) translate(194 1882) translate(8.446 11.083)"/>
                    <path fill="#000" d="M68.617 74.955c.008 1.288-5.068 2.365-11.339 2.406-6.271.042-11.361-.97-11.37-2.257-.008-1.288 5.068-2.366 11.339-2.407 6.27-.04 11.361.97 11.37 2.258" transform="translate(-193 -1881) translate(194 1882) translate(8.446 11.083)"/>
                    <path stroke="#D1A448" stroke-width="1.875" d="M68.617 74.955c.008 1.288-5.068 2.365-11.339 2.406-6.271.042-11.361-.97-11.37-2.257-.008-1.288 5.068-2.366 11.339-2.407 6.27-.04 11.361.97 11.37 2.258z" transform="translate(-193 -1881) translate(194 1882) translate(8.446 11.083)"/>
                    <path fill="#000" d="M54.761 108.895c-1.483.144-4.67.532-6.444 1.333 0 0-2.143 1.264 2.591 2.149" transform="translate(-193 -1881) translate(194 1882) translate(8.446 11.083)"/>
                    <path stroke="#D1A448" stroke-width="1.875" d="M54.761 108.895c-1.483.144-4.67.532-6.444 1.333 0 0-2.143 1.264 2.591 2.149" transform="translate(-193 -1881) translate(194 1882) translate(8.446 11.083)"/>
                    <path fill="#000" d="M59.89 108.786c1.483.142 4.671.527 6.445 1.327 0 0 2.144 1.262-2.59 2.151" transform="translate(-193 -1881) translate(194 1882) translate(8.446 11.083)"/>
                    <path stroke="#D1A448" stroke-width="1.875" d="M59.89 108.786c1.483.142 4.671.527 6.445 1.327 0 0 2.144 1.262-2.59 2.151" transform="translate(-193 -1881) translate(194 1882) translate(8.446 11.083)"/>
                    <path fill="#000" d="M51.762 112.406s5.543.787 11.502-.076" transform="translate(-193 -1881) translate(194 1882) translate(8.446 11.083)"/>
                    <path stroke="#D1A448" stroke-width="1.875" d="M51.762 112.406s5.543.787 11.502-.076M47.83 110.58s-.906.486-.474 1.306c.431.82 3.846 1.759 8.248 1.73" transform="translate(-193 -1881) translate(194 1882) translate(8.446 11.083)"/>
                    <path stroke="#D1A448" stroke-width="1.875" d="M59.07 113.597c4.403-.03 7.805-1.012 8.226-1.838.42-.826-.493-1.3-.493-1.3M56.03 113.613s1.604.047 2.698-.018M68.557 76.997c.009 1.288-5.068 2.366-11.339 2.407-6.27.04-11.36-.97-11.37-2.258M57.29 91.677s-.222-1.77.825-2.995c0 0 .808-1.089 2.148-1.531 0 0-.087 1.786-.722 2.62 0 0-.447.885-2.25 1.906z" transform="translate(-193 -1881) translate(194 1882) translate(8.446 11.083)"/>
                    <path stroke="#D1A448" stroke-width="1.875" d="M57.394 91.651s.199-1.772-.865-2.983c0 0-.822-1.079-2.168-1.503 0 0 .11 1.785.757 2.61 0 0 .459.88 2.276 1.876zM57.374 91.732s.682-1.65 2.201-2.21c0 0 1.242-.556 2.629-.291 0 0-.96 1.516-1.925 1.934 0 0-.828.554-2.905.567z" transform="translate(-193 -1881) translate(194 1882) translate(8.446 11.083)"/>
                    <path stroke="#D1A448" stroke-width="1.875" d="M57.373 91.732s-.704-1.642-2.23-2.18c0 0-1.25-.54-2.633-.257 0 0 .98 1.502 1.951 1.908 0 0 .835.543 2.912.53z" transform="translate(-193 -1881) translate(194 1882) translate(8.446 11.083)"/>
                    <path stroke="#D1A448" stroke-width="1.875" d="M57.386 91.633s-1.125-1.393-.879-2.98c0 0 .113-1.346 1.021-2.417 0 0 .87 1.567.769 2.607 0 0 .087.985-.911 2.79zM47.1 82.812s1.123 6.352 4.291 9.509M46.921 81.682s-.144-.822-.148-1.508M47.064 82.368L47.063 82.23" transform="translate(-193 -1881) translate(194 1882) translate(8.446 11.083)"/>
                    <path stroke="#44E7D9" stroke-width="1.875" d="M60.217 77.065s-1.449-.09-1.111-.587c.337-.497-.004-.495-.685-.49-.682.004-1.788.21-.935.402 0 0 .725.23.517.724M47.19 76.013s4.316-2.14 7.98-2.064M55.852 73.944L57.428 73.934M57.95 73.93s6.362-.052 9.424 1.864" transform="translate(-193 -1881) translate(194 1882) translate(8.446 11.083)"/>
                    <path stroke="#44E7D9" stroke-width="1.875" d="M53.887 77.095s.32-.634-.786-.429c-1.106.206-1.156-.834.379-.646 1.535.188 3.238.078 2.978-.515-.26-.592-1.874.013-1.792-.483.082-.496 1.446-.406 2.212-.411.767-.005 1.871-.507 2.982-.02 1.11.489-1.19.405-.42.895s2.297-.411 2.725-.117c.428.294-.591.697-.76.995-.168.298.873.435.873.435" transform="translate(-193 -1881) translate(194 1882) translate(8.446 11.083)"/>
                    <path fill="#000" d="M62.637 129.846c.694 11.74-3.883 20.594-11.32 20.86-7.349.261-12.198-8.65-11.597-20.71" transform="translate(-193 -1881) translate(194 1882) translate(8.446 11.083)"/>
                    <path stroke="#D1A448" stroke-width="1.875" d="M62.637 129.846c.694 11.74-3.883 20.594-11.32 20.86-7.349.261-12.198-8.65-11.597-20.71" transform="translate(-193 -1881) translate(194 1882) translate(8.446 11.083)"/>
                    <path fill="#000" d="M48.971 150.353L49.015 156.962" transform="translate(-193 -1881) translate(194 1882) translate(8.446 11.083)"/>
                    <path stroke="#D1A448" stroke-width="1.875" d="M48.971 150.353L49.015 156.962" transform="translate(-193 -1881) translate(194 1882) translate(8.446 11.083)"/>
                    <path fill="#000" d="M53.522 150.323L53.567 156.933" transform="translate(-193 -1881) translate(194 1882) translate(8.446 11.083)"/>
                    <path stroke="#D1A448" stroke-width="1.875" d="M53.522 150.323L53.567 156.933" transform="translate(-193 -1881) translate(194 1882) translate(8.446 11.083)"/>
                    <path fill="#000" d="M51.398 157.581c-1.384.01-2.078-.123-2.634-.531 0 0-.688.69.009 1.372 0 0 .833.406 2.356.396" transform="translate(-193 -1881) translate(194 1882) translate(8.446 11.083)"/>
                    <path stroke="#D1A448" stroke-width="1.875" d="M51.398 157.581c-1.384.01-2.078-.123-2.634-.531 0 0-.688.69.009 1.372 0 0 .833.406 2.356.396" transform="translate(-193 -1881) translate(194 1882) translate(8.446 11.083)"/>
                    <path fill="#000" d="M49.054 159.089l.039 5.762s.559.682 2.359.67c1.8-.012 2.21-.7 2.21-.7l-.039-5.762" transform="translate(-193 -1881) translate(194 1882) translate(8.446 11.083)"/>
                    <path stroke="#D1A448" stroke-width="1.875" d="M49.054 159.089l.039 5.762s.559.682 2.359.67c1.8-.012 2.21-.7 2.21-.7l-.039-5.762" transform="translate(-193 -1881) translate(194 1882) translate(8.446 11.083)"/>
                    <path fill="#000" d="M50.107 150.85L50.15 157.298" transform="translate(-193 -1881) translate(194 1882) translate(8.446 11.083)"/>
                    <path stroke="#D1A448" stroke-width="1.875" d="M50.107 150.85L50.15 157.298" transform="translate(-193 -1881) translate(194 1882) translate(8.446 11.083)"/>
                    <path fill="#000" d="M50.162 159.081L50.202 165.118" transform="translate(-193 -1881) translate(194 1882) translate(8.446 11.083)"/>
                    <path stroke="#D1A448" stroke-width="1.875" d="M50.162 159.081L50.202 165.118" transform="translate(-193 -1881) translate(194 1882) translate(8.446 11.083)"/>
                    <path fill="#000" d="M51.77 151.114L51.81 157.013" transform="translate(-193 -1881) translate(194 1882) translate(8.446 11.083)"/>
                    <path stroke="#D1A448" stroke-width="1.875" d="M51.77 151.114L51.81 157.013" transform="translate(-193 -1881) translate(194 1882) translate(8.446 11.083)"/>
                    <path fill="#000" d="M51.826 159.482L51.844 162.089" transform="translate(-193 -1881) translate(194 1882) translate(8.446 11.083)"/>
                    <path stroke="#D1A448" stroke-width="1.875" d="M51.826 159.482L51.844 162.089" transform="translate(-193 -1881) translate(194 1882) translate(8.446 11.083)"/>
                    <path fill="#000" d="M51.848 162.775L51.864 165.107" transform="translate(-193 -1881) translate(194 1882) translate(8.446 11.083)"/>
                    <path stroke="#D1A448" stroke-width="1.875" d="M51.848 162.775L51.864 165.107" transform="translate(-193 -1881) translate(194 1882) translate(8.446 11.083)"/>
                    <path fill="#000" d="M53.155 151.105L53.189 156.181" transform="translate(-193 -1881) translate(194 1882) translate(8.446 11.083)"/>
                    <path stroke="#D1A448" stroke-width="1.875" d="M53.155 151.105L53.189 156.181" transform="translate(-193 -1881) translate(194 1882) translate(8.446 11.083)"/>
                    <path fill="#000" d="M53.211 159.473L53.247 164.823" transform="translate(-193 -1881) translate(194 1882) translate(8.446 11.083)"/>
                    <path stroke="#D1A448" stroke-width="1.875" d="M53.211 159.473L53.247 164.823" transform="translate(-193 -1881) translate(194 1882) translate(8.446 11.083)"/>
                    <path fill="#000" d="M51.132 157.583c1.385-.009 2.076-.15 2.627-.566 0 0 .697.682.01 1.372 0 0-.829.417-2.352.427" transform="translate(-193 -1881) translate(194 1882) translate(8.446 11.083)"/>
                    <path stroke="#D1A448" stroke-width="1.875" d="M51.132 157.583c1.385-.009 2.076-.15 2.627-.566 0 0 .697.682.01 1.372 0 0-.829.417-2.352.427" transform="translate(-193 -1881) translate(194 1882) translate(8.446 11.083)"/>
                    <path fill="#000" d="M62.568 129.915c.009 1.289-5.068 2.366-11.339 2.407-6.27.041-11.36-.97-11.37-2.258-.008-1.287 5.068-2.365 11.34-2.406 6.27-.041 11.36.97 11.37 2.257" transform="translate(-193 -1881) translate(194 1882) translate(8.446 11.083)"/>
                    <path stroke="#D1A448" stroke-width="1.875" d="M62.568 129.915c.009 1.289-5.068 2.366-11.339 2.407-6.27.041-11.36-.97-11.37-2.258-.008-1.287 5.068-2.365 11.34-2.406 6.27-.041 11.36.97 11.37 2.257z" transform="translate(-193 -1881) translate(194 1882) translate(8.446 11.083)"/>
                    <path fill="#000" d="M48.713 163.856c-1.483.144-4.67.531-6.445 1.332 0 0-2.143 1.265 2.591 2.15" transform="translate(-193 -1881) translate(194 1882) translate(8.446 11.083)"/>
                    <path stroke="#D1A448" stroke-width="1.875" d="M48.713 163.856c-1.483.144-4.67.531-6.445 1.332 0 0-2.143 1.265 2.591 2.15" transform="translate(-193 -1881) translate(194 1882) translate(8.446 11.083)"/>
                    <path fill="#000" d="M53.841 163.746c1.483.143 4.671.528 6.446 1.327 0 0 2.143 1.262-2.59 2.152" transform="translate(-193 -1881) translate(194 1882) translate(8.446 11.083)"/>
                    <path stroke="#D1A448" stroke-width="1.875" d="M53.841 163.746c1.483.143 4.671.528 6.446 1.327 0 0 2.143 1.262-2.59 2.152" transform="translate(-193 -1881) translate(194 1882) translate(8.446 11.083)"/>
                    <path fill="#000" d="M45.713 167.367s5.543.787 11.502-.076" transform="translate(-193 -1881) translate(194 1882) translate(8.446 11.083)"/>
                    <path stroke="#D1A448" stroke-width="1.875" d="M45.713 167.367s5.543.787 11.502-.076" transform="translate(-193 -1881) translate(194 1882) translate(8.446 11.083)"/>
                    <path fill="#000" d="M41.782 165.54s-.907.487-.475 1.307c.432.82 3.846 1.758 8.248 1.73" transform="translate(-193 -1881) translate(194 1882) translate(8.446 11.083)"/>
                    <path stroke="#D1A448" stroke-width="1.875" d="M41.782 165.54s-.907.487-.475 1.307c.432.82 3.846 1.758 8.248 1.73" transform="translate(-193 -1881) translate(194 1882) translate(8.446 11.083)"/>
                    <path fill="#000" d="M53.023 168.557c4.402-.029 7.803-1.011 8.224-1.837.42-.826-.493-1.3-.493-1.3" transform="translate(-193 -1881) translate(194 1882) translate(8.446 11.083)"/>
                    <path stroke="#D1A448" stroke-width="1.875" d="M53.023 168.557c4.402-.029 7.803-1.011 8.224-1.837.42-.826-.493-1.3-.493-1.3" transform="translate(-193 -1881) translate(194 1882) translate(8.446 11.083)"/>
                    <path fill="#000" d="M49.981 168.573s1.604.048 2.698-.017" transform="translate(-193 -1881) translate(194 1882) translate(8.446 11.083)"/>
                    <path stroke="#D1A448" stroke-width="1.875" d="M49.981 168.573s1.604.048 2.698-.017" transform="translate(-193 -1881) translate(194 1882) translate(8.446 11.083)"/>
                    <path fill="#000" d="M62.508 131.958c.009 1.288-5.068 2.365-11.339 2.406-6.27.042-11.36-.97-11.37-2.257" transform="translate(-193 -1881) translate(194 1882) translate(8.446 11.083)"/>
                    <path stroke="#D1A448" stroke-width="1.875" d="M62.508 131.958c.009 1.288-5.068 2.365-11.339 2.406-6.27.042-11.36-.97-11.37-2.257" transform="translate(-193 -1881) translate(194 1882) translate(8.446 11.083)"/>
                    <path fill="#000" d="M51.242 146.637s-.223-1.77.825-2.995c0 0 .807-1.088 2.147-1.53 0 0-.086 1.786-.722 2.62 0 0-.446.885-2.25 1.905" transform="translate(-193 -1881) translate(194 1882) translate(8.446 11.083)"/>
                    <path stroke="#D1A448" stroke-width="1.875" d="M51.242 146.637s-.223-1.77.825-2.995c0 0 .807-1.088 2.147-1.53 0 0-.086 1.786-.722 2.62 0 0-.446.885-2.25 1.905z" transform="translate(-193 -1881) translate(194 1882) translate(8.446 11.083)"/>
                    <path fill="#000" d="M51.345 146.612s.2-1.773-.865-2.984c0 0-.822-1.078-2.168-1.503 0 0 .11 1.786.757 2.61 0 0 .459.88 2.276 1.877" transform="translate(-193 -1881) translate(194 1882) translate(8.446 11.083)"/>
                    <path stroke="#D1A448" stroke-width="1.875" d="M51.345 146.612s.2-1.773-.865-2.984c0 0-.822-1.078-2.168-1.503 0 0 .11 1.786.757 2.61 0 0 .459.88 2.276 1.877z" transform="translate(-193 -1881) translate(194 1882) translate(8.446 11.083)"/>
                    <path fill="#000" d="M51.325 146.693s.682-1.651 2.201-2.21c0 0 1.243-.557 2.63-.292 0 0-.96 1.516-1.926 1.934 0 0-.828.554-2.905.568" transform="translate(-193 -1881) translate(194 1882) translate(8.446 11.083)"/>
                    <path stroke="#D1A448" stroke-width="1.875" d="M51.325 146.693s.682-1.651 2.201-2.21c0 0 1.243-.557 2.63-.292 0 0-.96 1.516-1.926 1.934 0 0-.828.554-2.905.568z" transform="translate(-193 -1881) translate(194 1882) translate(8.446 11.083)"/>
                    <path fill="#000" d="M51.324 146.693s-.704-1.642-2.23-2.18c0 0-1.25-.541-2.633-.258 0 0 .98 1.503 1.951 1.908 0 0 .835.543 2.912.53" transform="translate(-193 -1881) translate(194 1882) translate(8.446 11.083)"/>
                    <path stroke="#D1A448" stroke-width="1.875" d="M51.324 146.693s-.704-1.642-2.23-2.18c0 0-1.25-.541-2.633-.258 0 0 .98 1.503 1.951 1.908 0 0 .835.543 2.912.53z" transform="translate(-193 -1881) translate(194 1882) translate(8.446 11.083)"/>
                    <path fill="#000" d="M51.337 146.594s-1.125-1.393-.879-2.98c0 0 .113-1.347 1.022-2.418 0 0 .87 1.567.768 2.607 0 0 .087.986-.911 2.79" transform="translate(-193 -1881) translate(194 1882) translate(8.446 11.083)"/>
                    <path stroke="#D1A448" stroke-width="1.875" d="M51.337 146.594s-1.125-1.393-.879-2.98c0 0 .113-1.347 1.022-2.418 0 0 .87 1.567.768 2.607 0 0 .087.986-.911 2.79z" transform="translate(-193 -1881) translate(194 1882) translate(8.446 11.083)"/>
                    <path fill="#000" d="M41.051 137.772s1.123 6.353 4.292 9.51" transform="translate(-193 -1881) translate(194 1882) translate(8.446 11.083)"/>
                    <path stroke="#D1A448" stroke-width="1.875" d="M41.051 137.772s1.123 6.353 4.292 9.51" transform="translate(-193 -1881) translate(194 1882) translate(8.446 11.083)"/>
                    <path fill="#000" d="M40.873 136.643s-.144-.822-.149-1.508" transform="translate(-193 -1881) translate(194 1882) translate(8.446 11.083)"/>
                    <path stroke="#D1A448" stroke-width="1.875" d="M40.873 136.643s-.144-.822-.149-1.508" transform="translate(-193 -1881) translate(194 1882) translate(8.446 11.083)"/>
                    <path fill="#000" d="M41.016 137.328L41.015 137.191" transform="translate(-193 -1881) translate(194 1882) translate(8.446 11.083)"/>
                    <path stroke="#D1A448" stroke-width="1.875" d="M41.016 137.328L41.015 137.191" transform="translate(-193 -1881) translate(194 1882) translate(8.446 11.083)"/>
                    <path fill="#000" d="M54.168 132.026s-1.448-.09-1.11-.587c.336-.498-.005-.495-.686-.49-.681.004-1.787.209-.934.401 0 0 .725.23.516.724" transform="translate(-193 -1881) translate(194 1882) translate(8.446 11.083)"/>
                    <path stroke="#44E7D9" stroke-width="1.875" d="M54.168 132.026s-1.448-.09-1.11-.587c.336-.498-.005-.495-.686-.49-.681.004-1.787.209-.934.401 0 0 .725.23.516.724" transform="translate(-193 -1881) translate(194 1882) translate(8.446 11.083)"/>
                    <path fill="#000" d="M41.142 130.974s4.315-2.14 7.98-2.065" transform="translate(-193 -1881) translate(194 1882) translate(8.446 11.083)"/>
                    <path stroke="#44E7D9" stroke-width="1.875" d="M41.142 130.974s4.315-2.14 7.98-2.065" transform="translate(-193 -1881) translate(194 1882) translate(8.446 11.083)"/>
                    <path fill="#000" d="M49.803 128.905L51.379 128.895" transform="translate(-193 -1881) translate(194 1882) translate(8.446 11.083)"/>
                    <path stroke="#44E7D9" stroke-width="1.875" d="M49.803 128.905L51.379 128.895" transform="translate(-193 -1881) translate(194 1882) translate(8.446 11.083)"/>
                    <path fill="#000" d="M51.9 128.89s6.363-.052 9.425 1.865" transform="translate(-193 -1881) translate(194 1882) translate(8.446 11.083)"/>
                    <path stroke="#44E7D9" stroke-width="1.875" d="M51.9 128.89s6.363-.052 9.425 1.865" transform="translate(-193 -1881) translate(194 1882) translate(8.446 11.083)"/>
                    <path fill="#000" d="M47.838 132.056s.32-.635-.786-.43c-1.106.206-1.156-.833.379-.645 1.535.188 3.238.077 2.978-.515-.259-.593-1.874.012-1.792-.484.082-.495 1.446-.405 2.213-.41.766-.006 1.87-.508 2.981-.02 1.11.488-1.19.404-.42.894s2.297-.411 2.726-.116c.428.294-.592.697-.76.995-.169.298.872.434.872.434" transform="translate(-193 -1881) translate(194 1882) translate(8.446 11.083)"/>
                    <path stroke="#44E7D9" stroke-width="1.875" d="M47.838 132.056s.32-.635-.786-.43c-1.106.206-1.156-.833.379-.645 1.535.188 3.238.077 2.978-.515-.259-.593-1.874.012-1.792-.484.082-.495 1.446-.405 2.213-.41.766-.006 1.87-.508 2.981-.02 1.11.488-1.19.404-.42.894s2.297-.411 2.726-.116c.428.294-.592.697-.76.995-.169.298.872.434.872.434" transform="translate(-193 -1881) translate(194 1882) translate(8.446 11.083)"/>
                    <path fill="#000" d="M109.596 155.112c.694 11.74-3.883 20.594-11.32 20.86-7.348.261-12.197-8.65-11.596-20.71" transform="translate(-193 -1881) translate(194 1882) translate(8.446 11.083)"/>
                    <path stroke="#D1A448" stroke-width="1.875" d="M109.596 155.112c.694 11.74-3.883 20.594-11.32 20.86-7.348.261-12.197-8.65-11.596-20.71M95.93 175.619L95.974 182.229M100.482 175.589L100.526 182.199M98.358 182.848c-1.385.008-2.078-.124-2.635-.532 0 0-.688.69.01 1.372 0 0 .833.406 2.356.396" transform="translate(-193 -1881) translate(194 1882) translate(8.446 11.083)"/>
                    <path fill="#000" d="M96.014 184.355l.038 5.762s.559.682 2.359.67c1.8-.012 2.21-.7 2.21-.7l-.038-5.762" transform="translate(-193 -1881) translate(194 1882) translate(8.446 11.083)"/>
                    <path stroke="#D1A448" stroke-width="1.875" d="M96.014 184.355l.038 5.762s.559.682 2.359.67c1.8-.012 2.21-.7 2.21-.7l-.038-5.762M97.066 176.116L97.11 182.564M97.122 184.347L97.162 190.384M98.73 176.38L98.769 182.279M98.786 184.748L98.803 187.355M98.808 188.041L98.823 190.373M100.115 176.371L100.149 181.447M100.17 184.739L100.206 190.089M98.091 182.85c1.385-.01 2.077-.151 2.627-.567 0 0 .698.682.01 1.372 0 0-.828.417-2.352.428" transform="translate(-193 -1881) translate(194 1882) translate(8.446 11.083)"/>
                    <path fill="#000" d="M109.528 155.181c.008 1.289-5.068 2.366-11.34 2.407-6.27.041-11.36-.97-11.37-2.258-.008-1.287 5.069-2.365 11.34-2.406 6.27-.041 11.361.97 11.37 2.257" transform="translate(-193 -1881) translate(194 1882) translate(8.446 11.083)"/>
                    <path stroke="#D1A448" stroke-width="1.875" d="M109.528 155.181c.008 1.289-5.068 2.366-11.34 2.407-6.27.041-11.36-.97-11.37-2.258-.008-1.287 5.069-2.365 11.34-2.406 6.27-.041 11.361.97 11.37 2.257z" transform="translate(-193 -1881) translate(194 1882) translate(8.446 11.083)"/>
                    <path fill="#000" d="M95.673 189.122c-1.484.144-4.671.532-6.445 1.332 0 0-2.143 1.265 2.59 2.15" transform="translate(-193 -1881) translate(194 1882) translate(8.446 11.083)"/>
                    <path stroke="#D1A448" stroke-width="1.875" d="M95.673 189.122c-1.484.144-4.671.532-6.445 1.332 0 0-2.143 1.265 2.59 2.15" transform="translate(-193 -1881) translate(194 1882) translate(8.446 11.083)"/>
                    <path fill="#000" d="M100.8 189.012c1.484.143 4.672.528 6.446 1.328 0 0 2.143 1.261-2.59 2.15" transform="translate(-193 -1881) translate(194 1882) translate(8.446 11.083)"/>
                    <path stroke="#D1A448" stroke-width="1.875" d="M100.8 189.012c1.484.143 4.672.528 6.446 1.328 0 0 2.143 1.261-2.59 2.15" transform="translate(-193 -1881) translate(194 1882) translate(8.446 11.083)"/>
                    <path fill="#000" d="M92.672 192.633s5.544.787 11.503-.076" transform="translate(-193 -1881) translate(194 1882) translate(8.446 11.083)"/>
                    <path stroke="#D1A448" stroke-width="1.875" d="M92.672 192.633s5.544.787 11.503-.076M88.742 190.807s-.907.486-.475 1.306c.431.82 3.846 1.758 8.248 1.73" transform="translate(-193 -1881) translate(194 1882) translate(8.446 11.083)"/>
                    <path stroke="#D1A448" stroke-width="1.875" d="M99.982 193.823c4.402-.029 7.804-1.011 8.224-1.837.42-.826-.492-1.3-.492-1.3M96.94 193.84s1.605.047 2.699-.018M109.468 157.224c.008 1.288-5.068 2.365-11.339 2.406-6.271.042-11.361-.969-11.37-2.257M98.201 171.903s-.223-1.77.825-2.994c0 0 .808-1.09 2.148-1.531 0 0-.087 1.786-.722 2.62 0 0-.447.885-2.25 1.905z" transform="translate(-193 -1881) translate(194 1882) translate(8.446 11.083)"/>
                    <path stroke="#D1A448" stroke-width="1.875" d="M98.305 171.878s.199-1.773-.866-2.984c0 0-.821-1.078-2.167-1.503 0 0 .11 1.786.757 2.611 0 0 .458.879 2.276 1.876zM98.285 171.959s.681-1.651 2.2-2.21c0 0 1.243-.557 2.63-.291 0 0-.96 1.515-1.926 1.933 0 0-.827.554-2.904.568z" transform="translate(-193 -1881) translate(194 1882) translate(8.446 11.083)"/>
                    <path stroke="#D1A448" stroke-width="1.875" d="M98.283 171.959s-.703-1.642-2.23-2.18c0 0-1.25-.541-2.633-.258 0 0 .98 1.503 1.952 1.908 0 0 .835.543 2.911.53z" transform="translate(-193 -1881) translate(194 1882) translate(8.446 11.083)"/>
                    <path stroke="#D1A448" stroke-width="1.875" d="M98.296 171.86s-1.124-1.393-.878-2.98c0 0 .113-1.347 1.021-2.418 0 0 .87 1.567.769 2.607 0 0 .086.986-.912 2.79zM88.01 163.038s1.123 6.353 4.292 9.51M87.832 161.91s-.144-.823-.148-1.509M87.975 162.594L87.974 162.457" transform="translate(-193 -1881) translate(194 1882) translate(8.446 11.083)"/>
                    <path stroke="#44E7D9" stroke-width="1.875" d="M101.128 157.292s-1.449-.09-1.111-.587c.337-.497-.004-.495-.685-.49-.682.004-1.788.209-.935.401 0 0 .725.23.516.724M88.101 156.24s4.316-2.14 7.98-2.065M96.763 154.171L98.339 154.161M98.86 154.157s6.363-.053 9.425 1.864" transform="translate(-193 -1881) translate(194 1882) translate(8.446 11.083)"/>
                    <path stroke="#44E7D9" stroke-width="1.875" d="M94.798 157.322s.32-.635-.787-.429c-1.106.205-1.155-.834.38-.646 1.534.188 3.237.077 2.978-.515-.26-.593-1.874.012-1.792-.483.081-.496 1.445-.406 2.212-.411.767-.005 1.87-.508 2.982-.02 1.11.488-1.19.404-.42.894s2.297-.41 2.725-.117c.428.295-.592.698-.76.996-.168.298.872.434.872.434" transform="translate(-193 -1881) translate(194 1882) translate(8.446 11.083)"/>
                    <path fill="#000" d="M81.894 155.112c.693 11.74-3.884 20.594-11.32 20.86-7.35.261-12.198-8.65-11.597-20.71" transform="translate(-193 -1881) translate(194 1882) translate(8.446 11.083)"/>
                    <path stroke="#D1A448" stroke-width="1.875" d="M81.894 155.112c.693 11.74-3.884 20.594-11.32 20.86-7.35.261-12.198-8.65-11.597-20.71M68.228 175.619L68.271 182.229M72.779 175.589L72.823 182.199M70.655 182.848c-1.385.008-2.078-.124-2.635-.532 0 0-.687.69.01 1.372 0 0 .833.406 2.356.396" transform="translate(-193 -1881) translate(194 1882) translate(8.446 11.083)"/>
                    <path fill="#000" d="M68.311 184.355l.038 5.762s.56.682 2.36.67c1.8-.012 2.21-.7 2.21-.7l-.039-5.762" transform="translate(-193 -1881) translate(194 1882) translate(8.446 11.083)"/>
                    <path stroke="#D1A448" stroke-width="1.875" d="M68.311 184.355l.038 5.762s.56.682 2.36.67c1.8-.012 2.21-.7 2.21-.7l-.039-5.762M69.364 176.116L69.407 182.564M69.419 184.347L69.459 190.384M71.027 176.38L71.066 182.279M71.083 184.748L71.101 187.355M71.105 188.041L71.121 190.373M72.412 176.371L72.446 181.447M72.468 184.739L72.503 190.089M70.388 182.85c1.385-.01 2.077-.151 2.628-.567 0 0 .697.682.009 1.372 0 0-.828.417-2.351.428" transform="translate(-193 -1881) translate(194 1882) translate(8.446 11.083)"/>
                    <path fill="#000" d="M81.825 155.181c.008 1.289-5.068 2.366-11.339 2.407-6.27.041-11.361-.97-11.37-2.258-.008-1.287 5.068-2.365 11.339-2.406 6.27-.041 11.361.97 11.37 2.257" transform="translate(-193 -1881) translate(194 1882) translate(8.446 11.083)"/>
                    <path stroke="#D1A448" stroke-width="1.875" d="M81.825 155.181c.008 1.289-5.068 2.366-11.339 2.407-6.27.041-11.361-.97-11.37-2.258-.008-1.287 5.068-2.365 11.339-2.406 6.27-.041 11.361.97 11.37 2.257z" transform="translate(-193 -1881) translate(194 1882) translate(8.446 11.083)"/>
                    <path fill="#000" d="M67.97 189.122c-1.483.144-4.671.532-6.445 1.332 0 0-2.143 1.265 2.591 2.15" transform="translate(-193 -1881) translate(194 1882) translate(8.446 11.083)"/>
                    <path stroke="#D1A448" stroke-width="1.875" d="M67.97 189.122c-1.483.144-4.671.532-6.445 1.332 0 0-2.143 1.265 2.591 2.15" transform="translate(-193 -1881) translate(194 1882) translate(8.446 11.083)"/>
                    <path fill="#000" d="M73.098 189.012c1.483.143 4.671.528 6.445 1.328 0 0 2.144 1.261-2.59 2.15" transform="translate(-193 -1881) translate(194 1882) translate(8.446 11.083)"/>
                    <path stroke="#D1A448" stroke-width="1.875" d="M73.098 189.012c1.483.143 4.671.528 6.445 1.328 0 0 2.144 1.261-2.59 2.15" transform="translate(-193 -1881) translate(194 1882) translate(8.446 11.083)"/>
                    <path fill="#000" d="M64.97 192.633s5.543.787 11.502-.076" transform="translate(-193 -1881) translate(194 1882) translate(8.446 11.083)"/>
                    <path stroke="#D1A448" stroke-width="1.875" d="M64.97 192.633s5.543.787 11.502-.076M61.039 190.807s-.907.486-.475 1.306c.431.82 3.846 1.758 8.248 1.73" transform="translate(-193 -1881) translate(194 1882) translate(8.446 11.083)"/>
                    <path stroke="#D1A448" stroke-width="1.875" d="M72.28 193.823c4.401-.029 7.803-1.011 8.224-1.837.42-.826-.493-1.3-.493-1.3M69.238 193.84s1.604.047 2.698-.018M81.765 157.224c.009 1.288-5.068 2.365-11.339 2.406-6.27.042-11.36-.969-11.37-2.257M70.499 171.903s-.223-1.77.825-2.994c0 0 .807-1.09 2.147-1.531 0 0-.087 1.786-.722 2.62 0 0-.447.885-2.25 1.905z" transform="translate(-193 -1881) translate(194 1882) translate(8.446 11.083)"/>
                    <path stroke="#D1A448" stroke-width="1.875" d="M70.602 171.878s.2-1.773-.865-2.984c0 0-.822-1.078-2.168-1.503 0 0 .11 1.786.757 2.611 0 0 .459.879 2.276 1.876zM70.582 171.959s.682-1.651 2.201-2.21c0 0 1.242-.557 2.63-.291 0 0-.96 1.515-1.926 1.933 0 0-.828.554-2.905.568z" transform="translate(-193 -1881) translate(194 1882) translate(8.446 11.083)"/>
                    <path stroke="#D1A448" stroke-width="1.875" d="M70.58 171.959s-.703-1.642-2.23-2.18c0 0-1.25-.541-2.632-.258 0 0 .98 1.503 1.951 1.908 0 0 .835.543 2.912.53z" transform="translate(-193 -1881) translate(194 1882) translate(8.446 11.083)"/>
                    <path stroke="#D1A448" stroke-width="1.875" d="M70.594 171.86s-1.125-1.393-.879-2.98c0 0 .113-1.347 1.022-2.418 0 0 .87 1.567.768 2.607 0 0 .087.986-.911 2.79zM60.308 163.038s1.123 6.353 4.291 9.51M60.13 161.91s-.145-.823-.149-1.509M60.272 162.594L60.271 162.457" transform="translate(-193 -1881) translate(194 1882) translate(8.446 11.083)"/>
                    <path stroke="#44E7D9" stroke-width="1.875" d="M73.425 157.292s-1.449-.09-1.111-.587c.337-.497-.004-.495-.685-.49-.682.004-1.788.209-.935.401 0 0 .725.23.517.724M60.399 156.24s4.315-2.14 7.979-2.065M69.06 154.171L70.636 154.161M71.158 154.157s6.362-.053 9.424 1.864" transform="translate(-193 -1881) translate(194 1882) translate(8.446 11.083)"/>
                    <path stroke="#44E7D9" stroke-width="1.875" d="M67.095 157.322s.32-.635-.786-.429c-1.106.205-1.156-.834.379-.646 1.535.188 3.238.077 2.978-.515-.26-.593-1.874.012-1.792-.483.082-.496 1.446-.406 2.212-.411.767-.005 1.871-.508 2.982-.02 1.11.488-1.19.404-.42.894s2.297-.41 2.725-.117c.428.295-.591.698-.76.996-.168.298.873.434.873.434" transform="translate(-193 -1881) translate(194 1882) translate(8.446 11.083)"/>
                    <path fill="#000" d="M99.943 137.795s.644.638-1.128 1.436c-1.77.798-7.085 1.596-8.212 1.596-1.128 0-3.543.638-3.865 1.436-.323.797 1.288 1.595 2.415 1.595s4.67.16 6.28 0c1.611-.16 6.281-.798 7.408-.957 0 0 .806 0 1.45.159" transform="translate(-193 -1881) translate(194 1882) translate(8.446 11.083)"/>
                    <path stroke="#FFF" stroke-width="1.875" d="M99.943 137.795s.644.638-1.128 1.436c-1.77.798-7.085 1.596-8.212 1.596-1.128 0-3.543.638-3.865 1.436-.323.797 1.288 1.595 2.415 1.595s4.67.16 6.28 0c1.611-.16 6.281-.798 7.408-.957 0 0 .806 0 1.45.159" transform="translate(-193 -1881) translate(194 1882) translate(8.446 11.083)"/>
                    <path fill="#000" d="M102.197 143.22s1.127.16.322 1.117c-.805.957-3.704 1.117-6.28 2.712-2.577 1.595-2.9 1.915-2.416 3.031.483 1.117 4.348-.478 4.348-.478s3.543-1.596 4.348-2.074c.805-.48 5.476-2.074 6.603-2.234 1.127-.16 4.67-.638 7.086-1.436 2.415-.798 4.992-.638 6.441 0 1.45.638 7.408 4.148 8.857 4.786 1.45.639 4.67 3.67 6.603 4.308 1.932.638 8.213 4.946 12.722 3.83 4.509-1.117 7.246-3.67 7.246-5.106s-1.53-6.302-1.53-6.302-3.381-6.701-7.407-8.935c-4.026-2.234-10.79-2.074-16.587-3.829-5.798-1.755-8.615-3.111-11.353-4.707 0 0-1.61-2.074-3.22-3.51-1.611-1.436-2.256-3.031-3.383-3.829-1.127-.797-2.899-1.755-4.67-3.35-1.771-1.596-3.865-3.35-4.509-3.989 0 0-1.127-.16-1.61 1.595-.484 1.755.483 2.872 1.45 4.149 0 0 .482.479.965.798 0 0 2.416 2.392 2.738 3.03.322.639 1.127 1.756 0 3.032s-3.704 1.436-5.314 1.276c-1.61-.159-4.348-.957-5.637-1.276-1.288-.319-4.992-1.276-5.958-1.436-.966-.16-4.348-.638-5.637.32 0 0-.805.957 0 1.914 0 0 3.704.957 4.832 1.117 1.127.16 3.542.957 4.992 1.595 1.449.639 3.06.798 3.704 2.553.644 1.755-3.543 1.436-3.543 1.436h-8.696c-.966 0-4.67.638-5.153 2.074-.484 1.436.805 1.755 2.415 1.755h6.764c.966 0 6.924-.16 9.18.638" transform="translate(-193 -1881) translate(194 1882) translate(8.446 11.083)"/>
                    <path stroke="#FFF" stroke-width="1.875" d="M102.197 143.22s1.127.16.322 1.117c-.805.957-3.704 1.117-6.28 2.712-2.577 1.595-2.9 1.915-2.416 3.031.483 1.117 4.348-.478 4.348-.478s3.543-1.596 4.348-2.074c.805-.48 5.476-2.074 6.603-2.234 1.127-.16 4.67-.638 7.086-1.436 2.415-.798 4.992-.638 6.441 0 1.45.638 7.408 4.148 8.857 4.786 1.45.639 4.67 3.67 6.603 4.308 1.932.638 8.213 4.946 12.722 3.83 4.509-1.117 7.246-3.67 7.246-5.106s-1.53-6.302-1.53-6.302-3.381-6.701-7.407-8.935c-4.026-2.234-10.79-2.074-16.587-3.829-5.798-1.755-8.615-3.111-11.353-4.707 0 0-1.61-2.074-3.22-3.51-1.611-1.436-2.256-3.031-3.383-3.829-1.127-.797-2.899-1.755-4.67-3.35-1.771-1.596-3.865-3.35-4.509-3.989 0 0-1.127-.16-1.61 1.595-.484 1.755.483 2.872 1.45 4.149 0 0 .482.479.965.798 0 0 2.416 2.392 2.738 3.03.322.639 1.127 1.756 0 3.032s-3.704 1.436-5.314 1.276c-1.61-.159-4.348-.957-5.637-1.276-1.288-.319-4.992-1.276-5.958-1.436-.966-.16-4.348-.638-5.637.32 0 0-.805.957 0 1.914 0 0 3.704.957 4.832 1.117 1.127.16 3.542.957 4.992 1.595 1.449.639 3.06.798 3.704 2.553.644 1.755-3.543 1.436-3.543 1.436h-8.696c-.966 0-4.67.638-5.153 2.074-.484 1.436.805 1.755 2.415 1.755h6.764c.966 0 6.924-.16 9.18.638" transform="translate(-193 -1881) translate(194 1882) translate(8.446 11.083)"/>
                    <path fill="#000" d="M110.008 117.293s-.484.16-.805.798" transform="translate(-193 -1881) translate(194 1882) translate(8.446 11.083)"/>
                    <path stroke="#FFF" stroke-width="1.875" d="M110.008 117.293s-.484.16-.805.798" transform="translate(-193 -1881) translate(194 1882) translate(8.446 11.083)"/>
                    <path fill="#000" d="M110.481 117.692s-.554.957-1.359 1.276" transform="translate(-193 -1881) translate(194 1882) translate(8.446 11.083)"/>
                    <path stroke="#FFF" stroke-width="1.875" d="M110.481 117.692s-.554.957-1.359 1.276" transform="translate(-193 -1881) translate(194 1882) translate(8.446 11.083)"/>
                    <path fill="#000" d="M107.748 115.294s-.075.324-1.203.165c0 0-2.415-1.117-2.254-2.394.16-1.276.322-.797.322-.797l3.135 3.026z" transform="translate(-193 -1881) translate(194 1882) translate(8.446 11.083)"/>
                    <path stroke="#FFF" stroke-width="1.875" d="M107.748 115.294s-.075.324-1.203.165c0 0-2.415-1.117-2.254-2.394.16-1.276.322-.797.322-.797l3.135 3.026z" transform="translate(-193 -1881) translate(194 1882) translate(8.446 11.083)"/>
                    <path fill="#000" d="M85.046 124.633c2.171-.442 3.34.105 3.383 0 0 0 1.288 1.116-.322 1.914 0 0-2.014.08-3.14-.558-1.128-.638.08-1.356.08-1.356" transform="translate(-193 -1881) translate(194 1882) translate(8.446 11.083)"/>
                    <path stroke="#FFF" stroke-width="1.875" d="M85.046 124.633c2.171-.442 3.34.105 3.383 0 0 0 1.288 1.116-.322 1.914 0 0-2.014.08-3.14-.558-1.128-.638.08-1.356.08-1.356z" transform="translate(-193 -1881) translate(194 1882) translate(8.446 11.083)"/>
                    <path fill="#000" d="M81.648 135.096c2.061-.807 3.307-.47 3.33-.58 0 0 1.465.879.018 1.94 0 0-1.969.424-3.19-.011-1.222-.435-.158-1.35-.158-1.35" transform="translate(-193 -1881) translate(194 1882) translate(8.446 11.083)"/>
                    <path stroke="#FFF" stroke-width="1.875" d="M81.648 135.096c2.061-.807 3.307-.47 3.33-.58 0 0 1.465.879.018 1.94 0 0-1.969.424-3.19-.011-1.222-.435-.158-1.35-.158-1.35z" transform="translate(-193 -1881) translate(194 1882) translate(8.446 11.083)"/>
                    <path fill="#000" d="M86.27 141.85c1.89-.633 2.997-.305 3.022-.4 0 0 1.28.802-.067 1.673 0 0-1.79.306-2.87-.106s-.084-1.168-.084-1.168" transform="translate(-193 -1881) translate(194 1882) translate(8.446 11.083)"/>
                    <path stroke="#FFF" stroke-width="1.875" d="M86.27 141.85c1.89-.633 2.997-.305 3.022-.4 0 0 1.28.802-.067 1.673 0 0-1.79.306-2.87-.106s-.084-1.168-.084-1.168z" transform="translate(-193 -1881) translate(194 1882) translate(8.446 11.083)"/>
                    <path fill="#000" d="M92.936 149.886c1.448-1.18 2.519-1.297 2.511-1.384 0 0 1.371.21.472 1.397 0 0-1.465.877-2.54.917-1.073.04-.443-.93-.443-.93" transform="translate(-193 -1881) translate(194 1882) translate(8.446 11.083)"/>
                    <path stroke="#FFF" stroke-width="1.875" d="M92.936 149.886c1.448-1.18 2.519-1.297 2.511-1.384 0 0 1.371.21.472 1.397 0 0-1.465.877-2.54.917-1.073.04-.443-.93-.443-.93z" transform="translate(-193 -1881) translate(194 1882) translate(8.446 11.083)"/>
                    <path fill="#000" d="M91.73 125.191s-.322.479-.483 1.755" transform="translate(-193 -1881) translate(194 1882) translate(8.446 11.083)"/>
                    <path stroke="#FFF" stroke-width="1.875" d="M91.73 125.191s-.322.479-.483 1.755" transform="translate(-193 -1881) translate(194 1882) translate(8.446 11.083)"/>
                    <path fill="#000" d="M92.052 125.67s0 .957-.322 1.755" transform="translate(-193 -1881) translate(194 1882) translate(8.446 11.083)"/>
                    <path stroke="#FFF" stroke-width="1.875" d="M92.052 125.67s0 .957-.322 1.755" transform="translate(-193 -1881) translate(194 1882) translate(8.446 11.083)"/>
                    <path fill="#000" d="M95.756 125.989s-.483.798-.322 2.074" transform="translate(-193 -1881) translate(194 1882) translate(8.446 11.083)"/>
                    <path stroke="#FFF" stroke-width="1.875" d="M95.756 125.989s-.483.798-.322 2.074" transform="translate(-193 -1881) translate(194 1882) translate(8.446 11.083)"/>
                    <path fill="#000" d="M96.883 126.627s.322.957-.483 1.755" transform="translate(-193 -1881) translate(194 1882) translate(8.446 11.083)"/>
                    <path stroke="#FFF" stroke-width="1.875" d="M96.883 126.627s.322.957-.483 1.755" transform="translate(-193 -1881) translate(194 1882) translate(8.446 11.083)"/>
                    <path fill="#000" d="M96.4 127.106s-.322 1.595-.644 1.276" transform="translate(-193 -1881) translate(194 1882) translate(8.446 11.083)"/>
                    <path stroke="#FFF" stroke-width="1.875" d="M96.4 127.106s-.322 1.595-.644 1.276" transform="translate(-193 -1881) translate(194 1882) translate(8.446 11.083)"/>
                    <path fill="#000" d="M88.267 134.524s-.16.798 0 1.596" transform="translate(-193 -1881) translate(194 1882) translate(8.446 11.083)"/>
                    <path stroke="#FFF" stroke-width="1.875" d="M88.267 134.524s-.16.798 0 1.596" transform="translate(-193 -1881) translate(194 1882) translate(8.446 11.083)"/>
                    <path fill="#000" d="M88.992 134.445s.644.957 0 2.074" transform="translate(-193 -1881) translate(194 1882) translate(8.446 11.083)"/>
                    <path stroke="#FFF" stroke-width="1.875" d="M88.992 134.445s.644.957 0 2.074" transform="translate(-193 -1881) translate(194 1882) translate(8.446 11.083)"/>
                    <path fill="#000" d="M94.145 134.285s.322.957 0 2.074" transform="translate(-193 -1881) translate(194 1882) translate(8.446 11.083)"/>
                    <path stroke="#FFF" stroke-width="1.875" d="M94.145 134.285s.322.957 0 2.074" transform="translate(-193 -1881) translate(194 1882) translate(8.446 11.083)"/>
                    <path fill="#000" d="M93.501 133.966s-.644 1.436 0 2.553" transform="translate(-193 -1881) translate(194 1882) translate(8.446 11.083)"/>
                    <path stroke="#FFF" stroke-width="1.875" d="M93.501 133.966s-.644 1.436 0 2.553" transform="translate(-193 -1881) translate(194 1882) translate(8.446 11.083)"/>
                    <path fill="#000" d="M92.857 136.678c-.322-.957-.161-1.595-.161-1.595" transform="translate(-193 -1881) translate(194 1882) translate(8.446 11.083)"/>
                    <path stroke="#FFF" stroke-width="1.875" d="M92.857 136.678c-.322-.957-.161-1.595-.161-1.595" transform="translate(-193 -1881) translate(194 1882) translate(8.446 11.083)"/>
                    <path fill="#000" d="M92.696 141.465s.322 1.117 0 1.755" transform="translate(-193 -1881) translate(194 1882) translate(8.446 11.083)"/>
                    <path stroke="#FFF" stroke-width="1.875" d="M92.696 141.465s.322 1.117 0 1.755" transform="translate(-193 -1881) translate(194 1882) translate(8.446 11.083)"/>
                    <path fill="#000" d="M92.374 141.944s-.322.638 0 1.435" transform="translate(-193 -1881) translate(194 1882) translate(8.446 11.083)"/>
                    <path stroke="#FFF" stroke-width="1.875" d="M92.374 141.944s-.322.638 0 1.435" transform="translate(-193 -1881) translate(194 1882) translate(8.446 11.083)"/>
                    <path fill="#000" d="M96.4 141.465s.322.16 0 1.117" transform="translate(-193 -1881) translate(194 1882) translate(8.446 11.083)"/>
                    <path stroke="#FFF" stroke-width="1.875" d="M96.4 141.465s.322.16 0 1.117" transform="translate(-193 -1881) translate(194 1882) translate(8.446 11.083)"/>
                    <path fill="#000" d="M96.883 140.827s.644.797 0 2.074" transform="translate(-193 -1881) translate(194 1882) translate(8.446 11.083)"/>
                    <path stroke="#FFF" stroke-width="1.875" d="M96.883 140.827s.644.797 0 2.074" transform="translate(-193 -1881) translate(194 1882) translate(8.446 11.083)"/>
                    <path fill="#000" d="M95.756 141.146s-.161 1.276.322 2.074" transform="translate(-193 -1881) translate(194 1882) translate(8.446 11.083)"/>
                    <path stroke="#FFF" stroke-width="1.875" d="M95.756 141.146s-.161 1.276.322 2.074" transform="translate(-193 -1881) translate(194 1882) translate(8.446 11.083)"/>
                    <path fill="#000" d="M98.01 147.368s.644.638.483 1.117" transform="translate(-193 -1881) translate(194 1882) translate(8.446 11.083)"/>
                    <path stroke="#FFF" stroke-width="1.875" d="M98.01 147.368s.644.638.483 1.117" transform="translate(-193 -1881) translate(194 1882) translate(8.446 11.083)"/>
                    <path fill="#000" d="M97.688 148.166s.162.478.644.798" transform="translate(-193 -1881) translate(194 1882) translate(8.446 11.083)"/>
                    <path stroke="#FFF" stroke-width="1.875" d="M97.688 148.166s.162.478.644.798" transform="translate(-193 -1881) translate(194 1882) translate(8.446 11.083)"/>
                    <path fill="#000" d="M101.553 145.613s.483.16.483 1.436" transform="translate(-193 -1881) translate(194 1882) translate(8.446 11.083)"/>
                    <path stroke="#FFF" stroke-width="1.875" d="M101.553 145.613s.483.16.483 1.436" transform="translate(-193 -1881) translate(194 1882) translate(8.446 11.083)"/>
                    <path fill="#000" d="M100.909 145.932s0 1.117.644 1.436" transform="translate(-193 -1881) translate(194 1882) translate(8.446 11.083)"/>
                    <path stroke="#FFF" stroke-width="1.875" d="M100.909 145.932s0 1.117.644 1.436" transform="translate(-193 -1881) translate(194 1882) translate(8.446 11.083)"/>
                    <path fill="#000" d="M101.553 146.41s0 .366.322.821" transform="translate(-193 -1881) translate(194 1882) translate(8.446 11.083)"/>
                    <path stroke="#FFF" stroke-width="1.875" d="M101.553 146.41s0 .366.322.821" transform="translate(-193 -1881) translate(194 1882) translate(8.446 11.083)"/>
                    <path fill="#000" d="M104.774 140.827s-1.288.957-2.255 1.117" transform="translate(-193 -1881) translate(194 1882) translate(8.446 11.083)"/>
                    <path stroke="#FFF" stroke-width="1.875" d="M104.774 140.827s-1.288.957-2.255 1.117" transform="translate(-193 -1881) translate(194 1882) translate(8.446 11.083)"/>
                    <path fill="#000" d="M103.324 136.519s-2.093.479-3.22.479" transform="translate(-193 -1881) translate(194 1882) translate(8.446 11.083)"/>
                    <path stroke="#FFF" stroke-width="1.875" d="M103.324 136.519s-2.093.479-3.22.479" transform="translate(-193 -1881) translate(194 1882) translate(8.446 11.083)"/>
                    <path fill="#000" d="M102.52 131.254s-2.738-.798-3.221-.798" transform="translate(-193 -1881) translate(194 1882) translate(8.446 11.083)"/>
                    <path stroke="#FFF" stroke-width="1.875" d="M102.52 131.254s-2.738-.798-3.221-.798" transform="translate(-193 -1881) translate(194 1882) translate(8.446 11.083)"/>
                    <path fill="#000" d="M108.8 144.656s-1.45.638-2.255.957" transform="translate(-193 -1881) translate(194 1882) translate(8.446 11.083)"/>
                    <path stroke="#FFF" stroke-width="1.875" d="M108.8 144.656s-1.45.638-2.255.957" transform="translate(-193 -1881) translate(194 1882) translate(8.446 11.083)"/>
                    <path fill="#000" d="M101.231 138.433s.483-1.436 1.288-1.675" transform="translate(-193 -1881) translate(194 1882) translate(8.446 11.083)"/>
                    <path stroke="#FFF" stroke-width="1.875" d="M101.231 138.433s.483-1.436 1.288-1.675" transform="translate(-193 -1881) translate(194 1882) translate(8.446 11.083)"/>
                    <path fill="#000" d="M122.166 142.582s4.51-1.436 6.28-1.436c1.772 0 5.476.16 5.96.16" transform="translate(-193 -1881) translate(194 1882) translate(8.446 11.083)"/>
                    <path stroke="#FFF" stroke-width="1.875" d="M122.166 142.582s4.51-1.436 6.28-1.436c1.772 0 5.476.16 5.96.16" transform="translate(-193 -1881) translate(194 1882) translate(8.446 11.083)"/>
                    <path fill="#000" d="M69.345 110.618s-.644.638 1.127 1.436c1.772.798 7.086 1.596 8.213 1.596 1.127 0 3.543.638 3.865 1.436.322.797-1.288 1.595-2.415 1.595-1.128 0-4.67.16-6.28 0-1.611-.16-6.281-.798-7.409-.957 0 0-.805 0-1.449.16" transform="translate(-193 -1881) translate(194 1882) translate(8.446 11.083)"/>
                    <path stroke="#FFF" stroke-width="1.875" d="M69.345 110.618s-.644.638 1.127 1.436c1.772.798 7.086 1.596 8.213 1.596 1.127 0 3.543.638 3.865 1.436.322.797-1.288 1.595-2.415 1.595-1.128 0-4.67.16-6.28 0-1.611-.16-6.281-.798-7.409-.957 0 0-.805 0-1.449.16" transform="translate(-193 -1881) translate(194 1882) translate(8.446 11.083)"/>
                    <path fill="#000" d="M67.09 116.043s-1.127.16-.322 1.117c.806.957 3.704 1.117 6.281 2.712 2.577 1.595 2.899 1.914 2.416 3.031-.484 1.117-4.348-.478-4.348-.478s-3.543-1.595-4.349-2.074c-.805-.48-5.475-2.074-6.602-2.234-1.127-.16-4.67-.638-7.086-1.436-2.415-.798-4.992-.638-6.441 0-1.45.638-7.408 4.149-8.858 4.786-1.449.638-4.67 3.67-6.602 4.308-1.933.638-8.213 4.946-12.722 3.83-4.51-1.117-7.247-3.67-7.247-5.106s1.53-6.302 1.53-6.302 3.382-6.701 7.408-8.935c4.026-2.234 10.79-2.074 16.587-3.829 5.797-1.755 8.615-3.111 11.353-4.707 0 0 1.61-2.074 3.22-3.51 1.611-1.436 2.255-3.031 3.383-3.829 1.127-.798 2.898-1.755 4.67-3.35 1.77-1.596 3.865-3.35 4.509-3.989 0 0 1.127-.16 1.61 1.595.483 1.756-.483 2.872-1.45 4.149 0 0-.482.478-.965.797 0 0-2.416 2.394-2.738 3.032-.322.638-1.127 1.755 0 3.031 1.127 1.277 3.703 1.436 5.314 1.277 1.61-.16 4.348-.958 5.637-1.277 1.288-.319 4.992-1.276 5.958-1.436.966-.16 4.348-.638 5.636.32 0 0 .805.957 0 1.914 0 0-3.704.957-4.831 1.117-1.127.16-3.543.957-4.992 1.595-1.45.639-3.06.798-3.704 2.553-.644 1.755 3.543 1.436 3.543 1.436h8.696c.966 0 4.67.638 5.153 2.074.483 1.436-.805 1.755-2.415 1.755h-6.764c-.966 0-6.925-.16-9.18.638" transform="translate(-193 -1881) translate(194 1882) translate(8.446 11.083)"/>
                    <path stroke="#FFF" stroke-width="1.875" d="M67.09 116.043s-1.127.16-.322 1.117c.806.957 3.704 1.117 6.281 2.712 2.577 1.595 2.899 1.914 2.416 3.031-.484 1.117-4.348-.478-4.348-.478s-3.543-1.595-4.349-2.074c-.805-.48-5.475-2.074-6.602-2.234-1.127-.16-4.67-.638-7.086-1.436-2.415-.798-4.992-.638-6.441 0-1.45.638-7.408 4.149-8.858 4.786-1.449.638-4.67 3.67-6.602 4.308-1.933.638-8.213 4.946-12.722 3.83-4.51-1.117-7.247-3.67-7.247-5.106s1.53-6.302 1.53-6.302 3.382-6.701 7.408-8.935c4.026-2.234 10.79-2.074 16.587-3.829 5.797-1.755 8.615-3.111 11.353-4.707 0 0 1.61-2.074 3.22-3.51 1.611-1.436 2.255-3.031 3.383-3.829 1.127-.798 2.898-1.755 4.67-3.35 1.77-1.596 3.865-3.35 4.509-3.989 0 0 1.127-.16 1.61 1.595.483 1.756-.483 2.872-1.45 4.149 0 0-.482.478-.965.797 0 0-2.416 2.394-2.738 3.032-.322.638-1.127 1.755 0 3.031 1.127 1.277 3.703 1.436 5.314 1.277 1.61-.16 4.348-.958 5.637-1.277 1.288-.319 4.992-1.276 5.958-1.436.966-.16 4.348-.638 5.636.32 0 0 .805.957 0 1.914 0 0-3.704.957-4.831 1.117-1.127.16-3.543.957-4.992 1.595-1.45.639-3.06.798-3.704 2.553-.644 1.755 3.543 1.436 3.543 1.436h8.696c.966 0 4.67.638 5.153 2.074.483 1.436-.805 1.755-2.415 1.755h-6.764c-.966 0-6.925-.16-9.18.638" transform="translate(-193 -1881) translate(194 1882) translate(8.446 11.083)"/>
                    <path fill="#000" d="M59.28 90.117s.483.16.805.797" transform="translate(-193 -1881) translate(194 1882) translate(8.446 11.083)"/>
                    <path stroke="#FFF" stroke-width="1.875" d="M59.28 90.117s.483.16.805.797" transform="translate(-193 -1881) translate(194 1882) translate(8.446 11.083)"/>
                    <path fill="#000" d="M58.807 90.515s.554.958 1.359 1.277" transform="translate(-193 -1881) translate(194 1882) translate(8.446 11.083)"/>
                    <path stroke="#FFF" stroke-width="1.875" d="M58.807 90.515s.554.958 1.359 1.277" transform="translate(-193 -1881) translate(194 1882) translate(8.446 11.083)"/>
                    <path fill="#000" d="M61.54 88.117s.075.324 1.203.164c0 0 2.415-1.116 2.254-2.392-.161-1.277-.322-.798-.322-.798l-3.136 3.026z" transform="translate(-193 -1881) translate(194 1882) translate(8.446 11.083)"/>
                    <path stroke="#FFF" stroke-width="1.875" d="M61.54 88.117s.075.324 1.203.164c0 0 2.415-1.116 2.254-2.392-.161-1.277-.322-.798-.322-.798l-3.136 3.026z" transform="translate(-193 -1881) translate(194 1882) translate(8.446 11.083)"/>
                    <path fill="#000" d="M84.241 97.456c-2.17-.441-3.34.104-3.382 0 0 0-1.288 1.117.322 1.914 0 0 2.013.08 3.14-.558 1.128-.638-.08-1.356-.08-1.356" transform="translate(-193 -1881) translate(194 1882) translate(8.446 11.083)"/>
                    <path stroke="#FFF" stroke-width="1.875" d="M84.241 97.456c-2.17-.441-3.34.104-3.382 0 0 0-1.288 1.117.322 1.914 0 0 2.013.08 3.14-.558 1.128-.638-.08-1.356-.08-1.356z" transform="translate(-193 -1881) translate(194 1882) translate(8.446 11.083)"/>
                    <path fill="#000" d="M87.64 107.919c-2.061-.807-3.308-.47-3.33-.58 0 0-1.465.88-.018 1.94 0 0 1.969.424 3.19-.01 1.222-.436.158-1.35.158-1.35" transform="translate(-193 -1881) translate(194 1882) translate(8.446 11.083)"/>
                    <path stroke="#FFF" stroke-width="1.875" d="M87.64 107.919c-2.061-.807-3.308-.47-3.33-.58 0 0-1.465.88-.018 1.94 0 0 1.969.424 3.19-.01 1.222-.436.158-1.35.158-1.35z" transform="translate(-193 -1881) translate(194 1882) translate(8.446 11.083)"/>
                    <path fill="#000" d="M83.017 114.673c-1.89-.634-2.996-.305-3.022-.4 0 0-1.28.802.068 1.673 0 0 1.79.306 2.87-.106s.084-1.167.084-1.167" transform="translate(-193 -1881) translate(194 1882) translate(8.446 11.083)"/>
                    <path stroke="#FFF" stroke-width="1.875" d="M83.017 114.673c-1.89-.634-2.996-.305-3.022-.4 0 0-1.28.802.068 1.673 0 0 1.79.306 2.87-.106s.084-1.167.084-1.167z" transform="translate(-193 -1881) translate(194 1882) translate(8.446 11.083)"/>
                    <path fill="#000" d="M76.351 122.71c-1.448-1.181-2.518-1.298-2.51-1.385 0 0-1.372.21-.472 1.397 0 0 1.465.877 2.539.917 1.074.04.443-.93.443-.93" transform="translate(-193 -1881) translate(194 1882) translate(8.446 11.083)"/>
                    <path stroke="#FFF" stroke-width="1.875" d="M76.351 122.71c-1.448-1.181-2.518-1.298-2.51-1.385 0 0-1.372.21-.472 1.397 0 0 1.465.877 2.539.917 1.074.04.443-.93.443-.93z" transform="translate(-193 -1881) translate(194 1882) translate(8.446 11.083)"/>
                    <path fill="#000" d="M77.558 98.014s.322.479.483 1.755" transform="translate(-193 -1881) translate(194 1882) translate(8.446 11.083)"/>
                    <path stroke="#FFF" stroke-width="1.875" d="M77.558 98.014s.322.479.483 1.755" transform="translate(-193 -1881) translate(194 1882) translate(8.446 11.083)"/>
                    <path fill="#000" d="M77.236 98.493s0 .957.322 1.755" transform="translate(-193 -1881) translate(194 1882) translate(8.446 11.083)"/>
                    <path stroke="#FFF" stroke-width="1.875" d="M77.236 98.493s0 .957.322 1.755" transform="translate(-193 -1881) translate(194 1882) translate(8.446 11.083)"/>
                    <path fill="#000" d="M73.532 98.812s.483.797.322 2.074" transform="translate(-193 -1881) translate(194 1882) translate(8.446 11.083)"/>
                    <path stroke="#FFF" stroke-width="1.875" d="M73.532 98.812s.483.797.322 2.074" transform="translate(-193 -1881) translate(194 1882) translate(8.446 11.083)"/>
                    <path fill="#000" d="M72.405 99.45s-.322.957.483 1.755" transform="translate(-193 -1881) translate(194 1882) translate(8.446 11.083)"/>
                    <path stroke="#FFF" stroke-width="1.875" d="M72.405 99.45s-.322.957.483 1.755" transform="translate(-193 -1881) translate(194 1882) translate(8.446 11.083)"/>
                    <path fill="#000" d="M72.888 99.929s.322 1.595.644 1.276" transform="translate(-193 -1881) translate(194 1882) translate(8.446 11.083)"/>
                    <path stroke="#FFF" stroke-width="1.875" d="M72.888 99.929s.322 1.595.644 1.276" transform="translate(-193 -1881) translate(194 1882) translate(8.446 11.083)"/>
                    <path fill="#000" d="M81.02 107.348s.162.797 0 1.595" transform="translate(-193 -1881) translate(194 1882) translate(8.446 11.083)"/>
                    <path stroke="#FFF" stroke-width="1.875" d="M81.02 107.348s.162.797 0 1.595" transform="translate(-193 -1881) translate(194 1882) translate(8.446 11.083)"/>
                    <path fill="#000" d="M80.296 107.268s-.644.957 0 2.074" transform="translate(-193 -1881) translate(194 1882) translate(8.446 11.083)"/>
                    <path stroke="#FFF" stroke-width="1.875" d="M80.296 107.268s-.644.957 0 2.074" transform="translate(-193 -1881) translate(194 1882) translate(8.446 11.083)"/>
                    <path fill="#000" d="M75.142 107.108s-.322.957 0 2.074" transform="translate(-193 -1881) translate(194 1882) translate(8.446 11.083)"/>
                    <path stroke="#FFF" stroke-width="1.875" d="M75.142 107.108s-.322.957 0 2.074" transform="translate(-193 -1881) translate(194 1882) translate(8.446 11.083)"/>
                    <path fill="#000" d="M75.787 106.789s.644 1.436 0 2.553" transform="translate(-193 -1881) translate(194 1882) translate(8.446 11.083)"/>
                    <path stroke="#FFF" stroke-width="1.875" d="M75.787 106.789s.644 1.436 0 2.553" transform="translate(-193 -1881) translate(194 1882) translate(8.446 11.083)"/>
                    <path fill="#000" d="M76.43 109.501c.323-.957.162-1.595.162-1.595" transform="translate(-193 -1881) translate(194 1882) translate(8.446 11.083)"/>
                    <path stroke="#FFF" stroke-width="1.875" d="M76.43 109.501c.323-.957.162-1.595.162-1.595" transform="translate(-193 -1881) translate(194 1882) translate(8.446 11.083)"/>
                    <path fill="#000" d="M76.592 114.288s-.322 1.117 0 1.755" transform="translate(-193 -1881) translate(194 1882) translate(8.446 11.083)"/>
                    <path stroke="#FFF" stroke-width="1.875" d="M76.592 114.288s-.322 1.117 0 1.755" transform="translate(-193 -1881) translate(194 1882) translate(8.446 11.083)"/>
                    <path fill="#000" d="M76.914 114.766s.322.639 0 1.436" transform="translate(-193 -1881) translate(194 1882) translate(8.446 11.083)"/>
                    <path stroke="#FFF" stroke-width="1.875" d="M76.914 114.766s.322.639 0 1.436" transform="translate(-193 -1881) translate(194 1882) translate(8.446 11.083)"/>
                    <path fill="#000" d="M72.888 114.288s-.322.16 0 1.117" transform="translate(-193 -1881) translate(194 1882) translate(8.446 11.083)"/>
                    <path stroke="#FFF" stroke-width="1.875" d="M72.888 114.288s-.322.16 0 1.117" transform="translate(-193 -1881) translate(194 1882) translate(8.446 11.083)"/>
                    <path fill="#000" d="M72.405 113.65s-.644.797 0 2.074" transform="translate(-193 -1881) translate(194 1882) translate(8.446 11.083)"/>
                    <path stroke="#FFF" stroke-width="1.875" d="M72.405 113.65s-.644.797 0 2.074" transform="translate(-193 -1881) translate(194 1882) translate(8.446 11.083)"/>
                    <path fill="#000" d="M73.532 113.969s.161 1.276-.322 2.074" transform="translate(-193 -1881) translate(194 1882) translate(8.446 11.083)"/>
                    <path stroke="#FFF" stroke-width="1.875" d="M73.532 113.969s.161 1.276-.322 2.074" transform="translate(-193 -1881) translate(194 1882) translate(8.446 11.083)"/>
                    <path fill="#000" d="M71.278 120.191s-.645.638-.484 1.117" transform="translate(-193 -1881) translate(194 1882) translate(8.446 11.083)"/>
                    <path stroke="#FFF" stroke-width="1.875" d="M71.278 120.191s-.645.638-.484 1.117" transform="translate(-193 -1881) translate(194 1882) translate(8.446 11.083)"/>
                    <path fill="#000" d="M71.6 120.989s-.162.479-.645.798" transform="translate(-193 -1881) translate(194 1882) translate(8.446 11.083)"/>
                    <path stroke="#FFF" stroke-width="1.875" d="M71.6 120.989s-.162.479-.645.798" transform="translate(-193 -1881) translate(194 1882) translate(8.446 11.083)"/>
                    <path fill="#000" d="M67.735 118.436s-.484.16-.484 1.436" transform="translate(-193 -1881) translate(194 1882) translate(8.446 11.083)"/>
                    <path stroke="#FFF" stroke-width="1.875" d="M67.735 118.436s-.484.16-.484 1.436" transform="translate(-193 -1881) translate(194 1882) translate(8.446 11.083)"/>
                    <path fill="#000" d="M68.379 118.755s0 1.117-.644 1.436" transform="translate(-193 -1881) translate(194 1882) translate(8.446 11.083)"/>
                    <path stroke="#FFF" stroke-width="1.875" d="M68.379 118.755s0 1.117-.644 1.436" transform="translate(-193 -1881) translate(194 1882) translate(8.446 11.083)"/>
                    <path fill="#000" d="M67.735 119.234s0 .365-.322.82" transform="translate(-193 -1881) translate(194 1882) translate(8.446 11.083)"/>
                    <path stroke="#FFF" stroke-width="1.875" d="M67.735 119.234s0 .365-.322.82" transform="translate(-193 -1881) translate(194 1882) translate(8.446 11.083)"/>
                    <path fill="#000" d="M64.514 113.65s1.288.957 2.254 1.116" transform="translate(-193 -1881) translate(194 1882) translate(8.446 11.083)"/>
                    <path stroke="#FFF" stroke-width="1.875" d="M64.514 113.65s1.288.957 2.254 1.116" transform="translate(-193 -1881) translate(194 1882) translate(8.446 11.083)"/>
                    <path fill="#000" d="M65.963 109.342s2.094.479 3.22.479" transform="translate(-193 -1881) translate(194 1882) translate(8.446 11.083)"/>
                    <path stroke="#FFF" stroke-width="1.875" d="M65.963 109.342s2.094.479 3.22.479" transform="translate(-193 -1881) translate(194 1882) translate(8.446 11.083)"/>
                    <path fill="#000" d="M66.768 104.077s2.738-.798 3.221-.798" transform="translate(-193 -1881) translate(194 1882) translate(8.446 11.083)"/>
                    <path stroke="#FFF" stroke-width="1.875" d="M66.768 104.077s2.738-.798 3.221-.798" transform="translate(-193 -1881) translate(194 1882) translate(8.446 11.083)"/>
                    <path fill="#000" d="M60.488 117.479s1.45.638 2.255.957" transform="translate(-193 -1881) translate(194 1882) translate(8.446 11.083)"/>
                    <path stroke="#FFF" stroke-width="1.875" d="M60.488 117.479s1.45.638 2.255.957" transform="translate(-193 -1881) translate(194 1882) translate(8.446 11.083)"/>
                    <path fill="#000" d="M68.057 111.257s-.483-1.436-1.289-1.676" transform="translate(-193 -1881) translate(194 1882) translate(8.446 11.083)"/>
                    <path stroke="#FFF" stroke-width="1.875" d="M68.057 111.257s-.483-1.436-1.289-1.676" transform="translate(-193 -1881) translate(194 1882) translate(8.446 11.083)"/>
                    <path fill="#000" d="M47.122 115.405s-4.51-1.436-6.28-1.436c-1.772 0-5.476.16-5.96.16" transform="translate(-193 -1881) translate(194 1882) translate(8.446 11.083)"/>
                    <path stroke="#FFF" stroke-width="1.875" d="M47.122 115.405s-4.51-1.436-6.28-1.436c-1.772 0-5.476.16-5.96.16" transform="translate(-193 -1881) translate(194 1882) translate(8.446 11.083)"/>
                    <path fill="#FFF" d="M119.238 46.224c.068-.188.277-.285.467-.217.19.068.288.275.22.462-.069.189-.278.286-.468.218-.19-.068-.288-.275-.22-.463M137.04 46.173c.123-.338.5-.513.84-.39.342.121.52.495.396.833-.123.338-.5.513-.841.391-.342-.122-.518-.495-.395-.834M120.86 56.11c.068-.188.277-.285.467-.217.19.068.288.275.22.463-.07.188-.278.285-.468.217-.19-.068-.288-.275-.22-.463M111.178 55.652c.123-.339.5-.514.841-.392.342.122.519.495.395.833-.123.339-.5.514-.841.392-.342-.122-.518-.495-.395-.833M127.17 49.34c-.342-.123-.52-.496-.396-.834.123-.338.5-.513.841-.392.342.122.519.495.396.834-.124.338-.5.513-.842.391M130.08 65.568c.124-.338.5-.513.842-.391.341.122.518.495.395.833-.123.339-.5.514-.841.391-.342-.121-.518-.495-.395-.833M146.199 61.456c.201-.005.369.154.373.354.005.199-.155.365-.357.37-.201.004-.368-.154-.373-.354-.004-.2.155-.365.357-.37M145.265 71.617c.283-.006.516.215.523.495.006.28-.217.511-.5.517-.282.007-.516-.214-.522-.494-.007-.28.217-.511.5-.518M136.84 59.69c-.01-.48.373-.877.857-.888.484-.01.885.369.896.848.011.48-.372.877-.856.888-.484.011-.885-.368-.896-.848M133.1 75.776c-.011-.48.372-.877.856-.888.483-.011.885.369.896.848.011.48-.372.877-.856.888-.484.01-.885-.369-.896-.848M21.703 166.063c.063-.19.27-.293.46-.23.193.061.297.266.234.456-.063.19-.27.293-.461.23-.192-.062-.296-.266-.233-.456M31.602 161.089c.113-.342.485-.528.83-.416.345.112.532.48.42.822-.114.342-.485.528-.83.416-.345-.113-.533-.48-.42-.822M25.755 184.75c.063-.19.27-.294.46-.231.193.062.297.266.234.456-.063.19-.27.293-.461.23-.191-.061-.296-.266-.233-.455M17.078 181.891c.113-.341.485-.527.83-.415.344.112.532.48.419.822-.114.341-.485.528-.83.415-.345-.112-.532-.48-.42-.822M31.864 177.8c-.345-.112-.533-.48-.42-.821.114-.342.485-.528.83-.416.345.112.533.48.42.822-.114.341-.485.528-.83.415M37.855 192.688c.114-.341.485-.527.83-.415.345.112.532.48.42.822-.114.341-.485.528-.83.415-.345-.112-.533-.48-.42-.822M51.24 189.365c.202-.01.373.143.384.342.01.2-.145.37-.346.38-.201.01-.373-.142-.383-.342-.011-.2.144-.37.345-.38M41.156 177.22c.281-.014.522.2.537.48.014.28-.203.517-.484.532-.282.014-.523-.2-.538-.48-.014-.279.203-.517.485-.532M24.41 198.621c-.025-.479.346-.887.83-.912.483-.025.895.343.92.822.025.479-.346.888-.83.912-.483.025-.895-.343-.92-.822M46.378 203.264c-.025-.48.347-.887.83-.912.483-.025.895.343.92.821.026.48-.346.888-.83.913-.483.025-.895-.343-.92-.822" transform="translate(-193 -1881) translate(194 1882) translate(8.446 11.083)"/>
                </g>
            </g>
        </g>
    </g>
</svg>
