<svg xmlns="http://www.w3.org/2000/svg" width="191" height="269" viewBox="0 0 191 269"><title>Семёрка Мечей</title>
    <g fill="none" fill-rule="evenodd">
        <g>
            <g>
                <path fill="#1a1d24" stroke="#FFF" stroke-linecap="round" stroke-linejoin="round" stroke-width="2.5" d="M177.795 266.252H9.62c-5.22 0-9.452-4.232-9.452-9.453V10.027C.17 4.807 4.401.574 9.621.574h168.174c5.22 0 9.452 4.232 9.452 9.453v246.772c0 5.22-4.232 9.453-9.452 9.453z" transform="translate(-769 -621) translate(771 622)"/>
                <path fill="#D1A448" fill-rule="nonzero" d="M61.44 256.39c.894 0 1.576-.197 2.047-.593.47-.395.706-.95.706-1.664v-.845c0-.952-.438-1.667-1.315-2.143l-1.9-1.056c-.66-.357-.99-.893-.99-1.607v-.926c0-.931.606-1.397 1.818-1.397.823 0 1.494.092 2.014.276v-.78c-.563-.162-1.253-.243-2.07-.243-.818 0-1.451.192-1.9.577-.45.384-.675.917-.675 1.6v.941c0 .985.455 1.727 1.364 2.225l1.9 1.04c.358.194.604.405.74.633.135.227.202.53.202.91v.795c0 1.007-.682 1.51-2.046 1.51-.758 0-1.456-.114-2.095-.34v.779c.574.205 1.308.308 2.2.308zm9.022-.081v-.73h-3.67v-4.353h3.199v-.73h-3.2v-4.272h3.67v-.73H65.98v10.815h4.482zm4.498 0l2.436-10.816h-.844c-1.267 5.717-1.993 9.035-2.177 9.955-.151-.736-.877-4.054-2.176-9.955h-.844l2.436 10.816h1.169zm8.38 0v-.73h-3.67v-4.353h3.199v-.73h-3.2v-4.272h3.67v-.73h-4.481v10.815h4.482zm2.663 0v-6.139c-.02-1.913-.03-2.99-.032-3.229v-.05c.4 1.038 1.634 4.178 3.702 9.418h1.072v-10.816h-.812v6.171l.032 3.28c-.13-.346-1.364-3.496-3.702-9.45h-1.056v10.815h.796zm12.683.162c.855 0 1.5-.23 1.932-.69.433-.46.65-1.058.65-1.794v-6.171c0-.736-.217-1.335-.65-1.795-.433-.46-1.077-.69-1.932-.69s-1.5.23-1.933.69c-.433.46-.65 1.059-.65 1.795v6.17c0 .737.217 1.335.65 1.795.433.46 1.078.69 1.933.69zm0-.73c-1.18 0-1.77-.585-1.77-1.754v-6.171c0-1.17.59-1.754 1.77-1.754 1.18 0 1.77.584 1.77 1.754v6.17c0 1.17-.59 1.755-1.77 1.755zm5.667.568v-4.92h3.378v-.731h-3.378v-4.434h3.524v-.73h-4.336v10.815h.812zm8.104 0l.73-3.167h3.086l.731 3.167h.844l-2.533-10.816h-1.17l-2.532 10.816h.844zm3.654-3.897h-2.76l1.38-5.993 1.38 5.993zm4.092 3.897v-10.816h-.812v10.816h.812zm3.248 0v-4.466h1.575c.174 0 .303-.005.39-.016l1.608 4.482h.893l-1.705-4.66c.93-.347 1.396-1.094 1.396-2.242v-1.478c0-.736-.216-1.326-.65-1.77-.432-.444-1.076-.666-1.932-.666h-2.387v10.816h.812zm1.575-5.23h-1.575v-4.855h1.575c1.18 0 1.77.569 1.77 1.705v1.478c0 1.115-.59 1.673-1.77 1.673z" transform="translate(-769 -621) translate(771 622)"/>
                <g>
                    <path stroke="#FFF" stroke-linecap="round" stroke-linejoin="round" stroke-width="1.875" d="M154.214 239.996L126.932 239.996M44.331 239.996L5.786 239.996 5.786 14.826" transform="translate(-769 -621) translate(771 622) translate(8.446 11.385)"/>
                    <path stroke="#44E7D9" stroke-linecap="round" stroke-linejoin="round" stroke-width="1.875" d="M5.513 0.025L8.136 4.567 10.758 9.109 5.513 9.109 0.269 9.109 2.891 4.567z" transform="translate(-769 -621) translate(771 622) translate(8.446 11.385)"/>
                    <g>
                        <path fill="#000" d="M0.277 0.193L10.75 0.193" transform="translate(-769 -621) translate(771 622) translate(8.446 11.385) translate(0 3.716)"/>
                        <path stroke="#44E7D9" stroke-linecap="round" stroke-linejoin="round" stroke-width="1.875" d="M0.277 0.193L10.75 0.193" transform="translate(-769 -621) translate(771 622) translate(8.446 11.385) translate(0 3.716)"/>
                    </g>
                    <path stroke="#44E7D9" stroke-linecap="round" stroke-linejoin="round" stroke-width="1.875" d="M164.448 244.535L161.825 239.992 159.203 235.45 164.448 235.45 169.693 235.45 167.071 239.992z" transform="translate(-769 -621) translate(771 622) translate(8.446 11.385)"/>
                    <g>
                        <path fill="#000" d="M10.563 0.448L0.09 0.448" transform="translate(-769 -621) translate(771 622) translate(8.446 11.385) translate(159.122 240.203)"/>
                        <path stroke="#44E7D9" stroke-linecap="round" stroke-linejoin="round" stroke-width="1.875" d="M10.563 0.448L0.09 0.448" transform="translate(-769 -621) translate(771 622) translate(8.446 11.385) translate(159.122 240.203)"/>
                    </g>
                    <path stroke="#FFF" stroke-linecap="round" stroke-linejoin="round" stroke-width="1.875" d="M101.004 3.463L165.38 3.463 165.38 226.619M17.276 3.463L69.405 3.463" transform="translate(-769 -621) translate(771 622) translate(8.446 11.385)"/>
                </g>
                <path fill="#D1A448" fill-rule="nonzero" d="M91.067 20.72L93.6 9.47h-.879c-1.317 5.945-2.072 9.397-2.263 10.354-.158-.766-.912-4.217-2.264-10.355h-.878l2.534 11.25h1.216zm4.899 0V9.47h-.845v11.25h.845zm3.378 0V9.47h-.845v11.25h.845z" transform="translate(-769 -621) translate(771 622)"/>
                <g>
                    <path stroke="#FFF" stroke-linecap="round" stroke-linejoin="round" stroke-width="1.875" d="M50.33 3.698L52.62 14.066 49.673 14.717 47.383 4.349zM46.615 3.202L46.748 3.803 46.88 4.403 50.7 3.559 50.435 2.359zM50.579 3.013L46.759 3.857" transform="translate(-769 -621) translate(771 622) translate(25.676 30.304)"/>
                    <path stroke="#FFF" stroke-linecap="round" stroke-linejoin="round" stroke-width="1.875" d="M47.423 3.024s-.085-.954.873-1.28c0 0 .942-.208 1.355.787M49.435 16.659L59.574 59.29 62.233 65.112 62.52 58.639 53.86 15.681M51.517 16.199L55.268 32.54M55.389 33.086L55.582 33.959M55.678 34.395L55.63 34.177M55.799 34.941L62.233 65.113M52.548 18.146L53.395 18.874M52.803 17.746L53.517 18.39M52.692 18.801L53.116 19.165" transform="translate(-769 -621) translate(771 622) translate(25.676 30.304)"/>
                    <path stroke="#FFF" stroke-linecap="round" stroke-linejoin="round" stroke-width="1.875" d="M45.459 15.591L56.81 13.084 57.22 14.939 45.869 17.446zM45.676 16.573L57.027 14.066M47.649 5.287L50.542 4.659M47.886 6.49L50.779 5.861M48.174 7.616L51.067 6.988M48.411 8.819L51.304 8.191M48.757 10.157L51.65 9.528M48.816 11.273L51.887 10.73M49.282 12.485L52.175 11.857M49.519 13.688L52.412 13.06M85.25 3.698L82.96 14.066 85.907 14.717 88.197 4.349zM88.965 3.202L88.832 3.803 88.7 4.403 84.88 3.559 85.145 2.359zM85 3.013L88.821 3.857" transform="translate(-769 -621) translate(771 622) translate(25.676 30.304)"/>
                    <path stroke="#FFF" stroke-linecap="round" stroke-linejoin="round" stroke-width="1.875" d="M88.157 3.024s.085-.954-.873-1.28c0 0-.942-.208-1.355.787M86.145 16.659L76.006 59.29 73.346 65.112 73.059 58.639 81.72 15.681M84.063 16.199L80.311 32.54M80.19 33.086L79.998 33.959M79.901 34.395L79.95 34.177M79.781 34.941L73.347 65.113M83.032 18.146L82.184 18.874M82.777 17.746L82.062 18.39M82.888 18.801L82.464 19.165" transform="translate(-769 -621) translate(771 622) translate(25.676 30.304)"/>
                    <path stroke="#FFF" stroke-linecap="round" stroke-linejoin="round" stroke-width="1.875" d="M90.121 15.591L78.77 13.084 78.36 14.939 89.711 17.446zM89.904 16.573L78.553 14.066M87.931 5.287L85.037 4.659M87.694 6.49L84.801 5.861M87.406 7.616L84.513 6.988M87.169 8.819L84.276 8.191M86.823 10.157L83.93 9.528M86.764 11.273L83.693 10.73M86.298 12.485L83.405 11.857M86.061 13.688L83.168 13.06M66.387 2.566L66.377 13.184 69.395 13.187 69.405 2.569zM69.909 1.284L69.908 1.899 69.908 2.513 65.996 2.51 65.997 1.28zM65.996 1.951L69.908 1.954" transform="translate(-769 -621) translate(771 622) translate(25.676 30.304)"/>
                    <path stroke="#FFF" stroke-linecap="round" stroke-linejoin="round" stroke-width="1.875" d="M69.081 1.283S68.96.333 67.954.22c0 0-.965 0-1.154 1.061M70.045 15.032L69.298 58.845 67.951 65.104 66.28 58.843 65.513 15.028M67.912 15.03L67.757 31.795M67.757 32.354L67.756 33.249M67.756 33.696L67.756 33.472M67.755 34.255L67.951 65.104M67.324 17.153L66.652 18.047M66.989 16.817L66.429 17.599M67.323 17.824L66.987 18.27M73.698 13.135L62.074 13.125 62.072 15.025 73.697 15.035zM73.697 14.141L62.073 14.131M69.347 3.543L66.385 3.55M69.373 4.768L66.412 4.775M69.334 5.93L66.373 5.938M69.361 7.155L66.4 7.163M69.31 8.536L66.349 8.544M69.493 9.639L66.376 9.769M69.298 10.923L66.337 10.931M69.324 12.148L66.364 12.156M104.35 10.085L99.728 19.645 102.445 20.958 107.067 11.399zM108.079 10.46L107.812 11.014 107.544 11.567 104.022 9.864 104.557 8.758zM104.266 9.361L107.788 11.064M107.335 10.1s.302-.908-.555-1.447c0 0-.868-.42-1.5.454M102.229 22.902L82.522 62.041 78.59 67.092 79.805 60.727 98.149 20.93M100.309 21.974L92.886 37.008M92.643 37.511L92.254 38.316M92.059 38.718L92.156 38.517M91.816 39.221L78.59 67.092M98.857 23.631L97.864 24.144M98.701 23.183L97.857 23.644M98.565 24.235L98.068 24.491" transform="translate(-769 -621) translate(771 622) translate(25.676 30.304)"/>
                    <path stroke="#FFF" stroke-linecap="round" stroke-linejoin="round" stroke-width="1.875" d="M106.344 22.781L95.878 17.722 95.051 19.432 105.517 24.492zM105.906 23.687L95.44 18.627M106.592 12.251L103.922 10.971M106.083 13.366L103.414 12.086M105.543 14.395L102.873 13.116M105.035 15.51L102.365 14.231M104.39 16.732L101.72 15.453M104.075 17.805L101.211 16.568M103.341 18.877L100.671 17.598M102.833 19.992L100.163 18.713M31.744 8.871L36.366 18.431 33.648 19.744 29.027 10.184zM28.014 9.246L28.282 9.799 28.549 10.353 32.072 8.65 31.537 7.543zM31.828 8.147L28.306 9.85" transform="translate(-769 -621) translate(771 622) translate(25.676 30.304)"/>
                    <path stroke="#FFF" stroke-linecap="round" stroke-linejoin="round" stroke-width="1.875" d="M28.76 8.886s-.304-.909.553-1.447c0 0 .869-.42 1.5.454M33.865 21.688L53.572 60.827 57.504 65.878 56.289 59.513 37.945 19.716M35.784 20.76L43.208 35.793M43.451 36.297L43.84 37.102M44.035 37.504L43.938 37.303M44.278 38.007L57.504 65.878M37.237 22.417L38.23 22.93M37.393 21.969L38.237 22.43M37.529 23.02L38.025 23.277" transform="translate(-769 -621) translate(771 622) translate(25.676 30.304)"/>
                    <path stroke="#FFF" stroke-linecap="round" stroke-linejoin="round" stroke-width="1.875" d="M29.75 21.567L40.215 16.507 41.042 18.218 30.577 23.278zM30.188 22.472L40.653 17.413M29.502 11.036L32.172 9.757M30.01 12.151L32.68 10.872M30.551 13.181L33.221 11.902M31.059 14.296L33.729 13.017M31.704 15.518L34.374 14.239M32.019 16.59L34.882 15.354M32.753 17.663L35.423 16.383M33.261 18.778L35.931 17.499" transform="translate(-769 -621) translate(771 622) translate(25.676 30.304)"/>
                    <path stroke="#D1A448" stroke-linecap="round" stroke-linejoin="round" stroke-width="1.875" d="M78.012 180.313c-.586.154-.594.555-.594.555-.05.24.383.81.694 1.127.311.317 1.953 1.366 2.287 1.336.334-.03 1.421-.658 1.657-1.062.236-.403.105-1.337.105-1.337l-1.42-1.572" transform="translate(-769 -621) translate(771 622) translate(25.676 30.304)"/>
                    <path stroke="#D1A448" stroke-linecap="round" stroke-linejoin="round" stroke-width="1.875" d="M80.804 181.403s-.712-.326-1.278-.747c-.566-.42-1.261-.466-1.354-.385M79.206 181.822s-.278.244-.614.047c0 0-.673-.392-.972-.884 0 0 .129-.375.58-.607l.455.202s.847.404.693 1.138M80.623 183.101s.757-.37.82-.784M79.85 183.19s.17.867-.214 1.138c-.385.272-1.116.52-1.545.406-.429-.115-1.412-.825-1.48-.865M76.41 183.752s-.729-.606-.972-.884c-.244-.278-1.701-1.49-1.682-2.064 0 0 .116-.43.595-.555M77.804 181.905s-.673-.393-.835-.578c-.163-.185-1.564-1.184-1.964-1.192-.401-.009-.44.058-.44.058" transform="translate(-769 -621) translate(771 622) translate(25.676 30.304)"/>
                    <path stroke="#D1A448" stroke-linecap="round" stroke-linejoin="round" stroke-width="1.875" d="M77.205 184.397s.098.373-.286.644c-.384.272-.634.622-1.074.68-.44.06-.913-.443-1.25-.639-.336-.197-1.376-1.12-1.485-1.318-.109-.2-.652-.968-.857-1.313-.204-.345-.72-1.006-.725-1.46 0 0-.005-.455.286-.645.292-.191.626-.221.746-.196.275.058.917.67 1.04.923.123.252.835.928.835.928" transform="translate(-769 -621) translate(771 622) translate(25.676 30.304)"/>
                    <path stroke="#D1A448" stroke-linecap="round" stroke-linejoin="round" stroke-width="1.875" d="M74.3 185.046s.124.252-.115.429c-.238.176-.69.408-.916.41-.227.003-1.152-.266-1.424-.65-.272-.385-.594-.528-.868-1.14-.275-.61-.78-2.303-.71-2.489.101-.276.249-.492.475-.544.29-.067.654.077.654.077.202.118.602 1.209.82 1.607.22.398.395.636.395.636s.067.103.39.328M76.807 184.615s-.09.308-.342.432c-.253.123-.345.204-.505.246M73.902 185.264s-.263.297-.476.353M74.22 182.789s-.114.429-.527.594M74.226 183.243s-.129.376-.623.448M74.31 182.48s-.639.168-.874.572M77.165 182.073s-.155.496-.606.728M76.792 182.17s-.292.191-.66.743M77.557 182.482s-.315.539-.847.678M79.445 184.037s-.238.176-.796.436M78.13 181.193c.285.438.714.553.714.553M72.241 183.707s-.426.112-.704.356M72.297 183.92s-.316.311-.81.384M72.552 184.024s-.104.255-.423.339M74.35 177.858s.081.092.863.684c.782.592 2.27 1.056 2.926 1.168.656.113 1.318-.402 1.318-.402s.224-.23.235-.404M74.608 178.189s-1.666.38-2.616.231M69.24 178.346c.484.328 1.796.553 1.796.553s1.245.186 2.458.038M69.55 178.504c.499.45 1.141.6 1.141.6M71.63 185.12s-.955-.27-1.789-1.01M62.879 179.533c.86.056 2.357.52 2.357.52.367.53.65.74.65.74s1.304.91 1.247.918" transform="translate(-769 -621) translate(771 622) translate(25.676 30.304)"/>
                    <path stroke="#D1A448" stroke-linecap="round" stroke-linejoin="round" stroke-width="1.875" d="M77.733 177.369s-.196.395-.02.742c.178.347 1.205 1.159 1.81.853 0 0 .107-.078.151-.237l-1.94-1.358zM75.831 175.476c.449.623 1.81 1.689 1.81 1.689M75.683 175.344s-.176-.238-.978-.256c-.802-.017-1.87.036-2.755-.3-.886-.338-1.733-.742-2.708-.77-.976-.03-2.924.14-2.924.14s-2.573-.247-2.984-.573M75.753 175.61s.005.455-.194.564M75.523 175.386s-.275.471-.365.78M75.375 175.254s-.171.216-.25.35M71.344 181.814s-.101-.425-.2-.552c-.1-.03-.46-.246-.693.182 0 0 .16 1.04.628 1.088.468.048.3-.591.3-.591M72.926 180.844s-.274-.465-.444-.574c-.14.007-.68-.093-.84.523 0 0 .555 1.176 1.178 1.028.624-.149.193-.841.193-.841M65.06 178.475s-.008-.682.438-1.368c0 0 .21-.283.233-.63M65.88 175.526s.02-.574.34-.658c.32-.084.502-.474.608-.502M75.325 180.915s.537.614-.055.861c-.592.246-1.327-.826-1.327-.826.06-.633.608-.621.744-.65.186.08.53.495.53.495l.108.12zM79.17 178.87s-.414-.062-.764-.312M74.981 181.564s-.227.003-.457-.221M70.793 182.094s-.18-.465-.154-.585M67.72 79.24s-3.662-.304-7.324 3.357c0 0-4.273 3.968-4.578 12.512-.305 8.545 2.442 9.46 1.831 14.648-.61 5.188-4.272 6.409-3.662 12.512.61 6.104 2.747 6.104 1.831 13.427-.915 7.325-1.83 6.41.305 11.597 2.137 5.188-3.661 6.408-2.136 11.901 1.526 5.494 4.578 4.578 4.578 4.578M90.912 164.688c-1.83-2.747 1.221-2.442 3.052-10.071 1.831-7.63-2.746-10.07-4.272-12.817-1.526-2.747 2.441-9.765 1.83-16.48-.61-6.713-6.713-6.407-5.797-14.342.915-7.934.305-13.428-3.662-23.498S68.94 79.24 68.94 79.24" transform="translate(-769 -621) translate(771 622) translate(25.676 30.304)"/>
                    <path stroke="#44E7D9" stroke-linecap="round" stroke-linejoin="round" stroke-width="1.875" d="M53.682 121.964s-4.882-.916-8.24 5.798c-3.356 6.714-12.206 29.602-13.121 33.263-.916 3.663 0 3.968 4.577 6.714 4.577 2.747 14.953 8.85 19.836 10.07 0 0 1.22.306 2.136-2.746.915-3.051 1.83-2.441 1.83-4.272 0-1.831-3.05-3.357-6.102-4.577-3.052-1.221-7.63-5.494-10.681-5.494 0 0-2.137 2.136-3.967 2.136M44.527 161.33s0 1.221-.61 1.832M44.222 159.805s-1.831 1.22-3.052 1.526" transform="translate(-769 -621) translate(771 622) translate(25.676 30.304)"/>
                    <path stroke="#44E7D9" stroke-linecap="round" stroke-linejoin="round" stroke-width="1.875" d="M43.917 160.72s2.441-3.662 3.357-6.713c.915-3.052 6.753-10.612 7.801-13.546M52.767 126.847s-4.883 6.408-5.188 7.934c0 0 2.746-2.746 3.357-4.577.61-1.831 2.44-3.662 3.356-4.273M54.292 131.12s-4.577 4.577-4.577 6.102c0 1.526 2.442-3.051 3.967-4.272M52.156 124.71s-5.493 2.747-5.493 4.273c0 0 3.357-1.831 4.883-3.357M60.724 171.59l4.25 2.252s-1.832 3.357-2.137 5.799l-5.12-2.288" transform="translate(-769 -621) translate(771 622) translate(25.676 30.304)"/>
                    <path stroke="#44E7D9" stroke-linecap="round" stroke-linejoin="round" stroke-width="1.875" d="M58.87 175.063s-2.136-.915-3.052-1.22c0 0 1.163 1.408 2.87 1.772M59.458 173.53l-3.03-1.824s2.629.85 3.298 1.34" transform="translate(-769 -621) translate(771 622) translate(25.676 30.304)"/>
                    <path stroke="#D1A448" stroke-linecap="round" stroke-linejoin="round" stroke-width="1.875" d="M65.889 81.987s-4.578 3.357-5.188 10.68c-.61 7.325.305 9.461 1.526 11.903 1.22 2.44 3.662 5.493 2.136 9.46-1.526 3.967-2.136 5.798.61 9.154 2.747 3.358 4.578 6.104 2.747 11.292 0 0-.61 1.22-1.22 1.83-.611.611-3.053 3.358-2.137 7.02.916 3.662 4.883 3.662 4.883 7.324s-3.357 3.967-3.052 8.544c.305 4.578 5.188 7.02 3.052 11.291M60.396 113.724s-3.052 3.052 0 9.156c3.052 6.103 2.136 10.375.915 13.121-1.22 2.747-2.136 5.494 1.221 8.85 3.357 3.357-3.052 9.156-1.22 12.817 1.83 3.663 5.492 5.494 3.662 10.376M63.753 124.71s2.746 4.883 1.22 8.85M60.396 87.175s-4.578 6.409-1.22 15.869" transform="translate(-769 -621) translate(771 622) translate(25.676 30.304)"/>
                    <path stroke="#D1A448" stroke-linecap="round" stroke-linejoin="round" stroke-width="1.875" d="M57.65 123.49s3.356 7.63.304 14.038c-3.051 6.408 2.137 7.324 1.831 10.68-.305 3.357-4.577 6.714-2.136 11.597 2.442 4.882 5.799 3.051 4.578 8.24M66.804 102.128s4.578 3.967 2.442 12.817c-2.137 8.85 3.051 11.291 3.051 11.291M73.213 127.762s2.747 3.662-.916 9.765c-3.662 6.104 1.221 10.681 1.831 11.597M67.72 82.597s-6.103 7.325-2.136 15.87M69.856 136.612s-3.662 2.747-.305 9.155M70.466 148.208s2.747 3.357 0 9.156c-2.746 5.798 3.663 6.408 3.663 10.68M65.889 104.57s2.746 3.05 1.83 9.46M69.856 84.123s4.578 2.442 4.272 9.766M74.128 97.55s-2.136 6.41.916 11.902M75.96 111.893s4.882 5.494 5.492 10.681M81.452 124.71s.916 6.104-1.526 11.902c-2.44 5.798-.915 9.46.916 11.596M75.044 151.26s1.22 1.831 0 4.578c-1.22 2.746-1.831 6.713.916 9.46" transform="translate(-769 -621) translate(771 622) translate(25.676 30.304)"/>
                    <path stroke="#D1A448" stroke-linecap="round" stroke-linejoin="round" stroke-width="1.875" d="M74.128 114.335s-2.136 3.662 1.832 10.375c3.966 6.714 1.22 10.376 0 12.817-1.221 2.442-2.747 5.799 0 9.46M82.063 149.734s4.882 4.273 2.746 10.681c-2.136 6.409-6.103 10.07-2.746 14.343" transform="translate(-769 -621) translate(771 622) translate(25.676 30.304)"/>
                    <path stroke="#D1A448" stroke-linecap="round" stroke-linejoin="round" stroke-width="1.875" d="M76.875 149.124s7.63 6.714 3.967 15.563c0 0-2.441 2.442-2.136 5.798M77.485 155.533s1.526 3.966 0 8.24M69.55 80.766s6.715-.61 9.766 5.493c3.052 6.104 2.747 13.428 2.747 13.428M82.063 103.044s-2.442 8.24.915 13.427c3.357 5.188 4.578 5.188 5.188 10.68M88.166 129.288s-.61 3.662-1.83 6.103c-1.221 2.442-2.747 7.63 1.83 12.817 4.578 5.188-.915 11.902 0 15.564M83.894 122.574s3.357 8.545-.916 14.038M82.063 139.664s-1.22 6.408 3.967 10.07M71.077 82.597s6.408.916 7.629 10.376M78.706 95.11s.305 3.356-.61 7.018c-.916 3.662.61 8.545.61 8.545M69.856 87.785s-2.442 4.272 0 12.512M76.875 117.081s3.051 5.493 2.441 10.681M60.396 152.176s-2.747 4.577 0 7.629M59.175 168.41l.61-3.112s0-1.95-.305-2.959" transform="translate(-769 -621) translate(771 622) translate(25.676 30.304)"/>
                    <path stroke="#44E7D9" stroke-linecap="round" stroke-linejoin="round" stroke-width="1.875" d="M56.429 178.725L55.208 183.608M107.26 163.513c-1.83 0-3.966-2.136-3.966-2.136-3.052 0-7.63 4.272-10.681 5.493-3.052 1.22-6.104 2.746-6.104 4.577s.916 1.221 1.831 4.273c.916 3.051 2.137 2.746 2.137 2.746 4.882-1.22 15.258-7.324 19.835-10.07 4.578-2.747 5.494-3.052 4.578-6.714-.916-3.662-9.765-26.55-13.122-33.263-3.357-6.714-8.24-5.799-8.24-5.799s-2.92 12.16-2.31 17.044M102.683 161.987s0 1.22.61 1.831M102.989 160.461s1.83 1.22 3.05 1.526" transform="translate(-769 -621) translate(771 622) translate(25.676 30.304)"/>
                    <path stroke="#44E7D9" stroke-linecap="round" stroke-linejoin="round" stroke-width="1.875" d="M103.294 161.377s-2.442-3.662-3.357-6.714c-.916-3.051-6.753-10.612-7.802-13.545M94.444 127.503s4.882 6.409 5.187 7.934c2.116 1.465-3.54-4.21-3.661-4.577-.61-1.83-2.137-3.662-3.052-4.272M92.918 131.776s4.577 4.577 4.577 6.103c0 1.526-2.441-3.052-3.967-4.273M95.054 125.367s5.493 2.747 5.493 4.272c0 0-3.357-1.83-4.883-3.356M88.34 175.72s2.137-.916 3.052-1.22c0 0-1.162 1.408-2.87 1.772M87.753 174.187l3.029-1.824s-2.629.85-3.298 1.34" transform="translate(-769 -621) translate(771 622) translate(25.676 30.304)"/>
                    <path stroke="#D1A448" stroke-linecap="round" stroke-linejoin="round" stroke-width="1.875" d="M88.035 169.067l-.61-3.113s0-1.95.305-2.958" transform="translate(-769 -621) translate(771 622) translate(25.676 30.304)"/>
                    <path stroke="#44E7D9" stroke-linecap="round" stroke-linejoin="round" stroke-width="1.875" d="M90.782 179.382L92.002 184.264M89.189 177.887l-4.315 2.125s-1.65-3.45-3.45-5.127l4.853-2.81" transform="translate(-769 -621) translate(771 622) translate(25.676 30.304)"/>
                    <path fill="#000" d="M63.357 186.988L72.859 176.851 75.74 179.552 66.238 189.688z" transform="translate(-769 -621) translate(771 622) translate(25.676 30.304)"/>
                    <path stroke="#FFF" stroke-linecap="round" stroke-linejoin="round" stroke-width="1.875" d="M63.357 186.988L72.859 176.851 75.74 179.552 66.238 189.688z" transform="translate(-769 -621) translate(771 622) translate(25.676 30.304)"/>
                    <path fill="#000" d="M65.568 191.365L66.118 190.779 66.668 190.191 62.934 186.691 61.834 187.865z" transform="translate(-769 -621) translate(771 622) translate(25.676 30.304)"/>
                    <path stroke="#FFF" stroke-linecap="round" stroke-linejoin="round" stroke-width="1.875" d="M65.568 191.365L66.118 190.779 66.668 190.191 62.934 186.691 61.834 187.865z" transform="translate(-769 -621) translate(771 622) translate(25.676 30.304)"/>
                    <g>
                        <path fill="#000" d="M0.272 0.063L4.006 3.563" transform="translate(-769 -621) translate(771 622) translate(25.676 30.304) translate(62.162 187.162)"/>
                        <path stroke="#FFF" stroke-linecap="round" stroke-linejoin="round" stroke-width="1.875" d="M0.272 0.063L4.006 3.563" transform="translate(-769 -621) translate(771 622) translate(25.676 30.304) translate(62.162 187.162)"/>
                    </g>
                    <g>
                        <path fill="#000" d="M2.616 2.111S1.65 2.91.59 2.115c0 0-.921-.863-.15-2.045" transform="translate(-769 -621) translate(771 622) translate(25.676 30.304) translate(62.162 188.514)"/>
                        <path stroke="#FFF" stroke-linecap="round" stroke-linejoin="round" stroke-width="1.875" d="M2.616 2.111S1.65 2.91.59 2.115c0 0-.921-.863-.15-2.045" transform="translate(-769 -621) translate(771 622) translate(25.676 30.304) translate(62.162 188.514)"/>
                    </g>
                    <g>
                        <path fill="#000" d="M4.363 49.658L42.894 7.198 47.215 0.023 40.013 4.498 0.037 45.602" transform="translate(-769 -621) translate(771 622) translate(25.676 30.304) translate(73.649 128.716)"/>
                        <path stroke="#FFF" stroke-linecap="round" stroke-linejoin="round" stroke-width="1.875" d="M4.363 49.658L42.894 7.198 47.215 0.023 40.013 4.498 0.037 45.602" transform="translate(-769 -621) translate(771 622) translate(25.676 30.304) translate(73.649 128.716)"/>
                    </g>
                    <g>
                        <path fill="#000" d="M0.301 16.331L15.17 0.201" transform="translate(-769 -621) translate(771 622) translate(25.676 30.304) translate(75.676 160.135)"/>
                        <path stroke="#FFF" stroke-linecap="round" stroke-linejoin="round" stroke-width="1.875" d="M0.301 16.331L15.17 0.201" transform="translate(-769 -621) translate(771 622) translate(25.676 30.304) translate(75.676 160.135)"/>
                    </g>
                    <g>
                        <path fill="#000" d="M0.129 1.019L0.929 0.165" transform="translate(-769 -621) translate(771 622) translate(25.676 30.304) translate(91.216 158.784)"/>
                        <path stroke="#FFF" stroke-linecap="round" stroke-linejoin="round" stroke-width="1.875" d="M0.129 1.019L0.929 0.165" transform="translate(-769 -621) translate(771 622) translate(25.676 30.304) translate(91.216 158.784)"/>
                    </g>
                    <g>
                        <path fill="#000" d="M0.316 0.076L0.116 0.29" transform="translate(-769 -621) translate(771 622) translate(25.676 30.304) translate(92.23 158.446)"/>
                        <path stroke="#FFF" stroke-linecap="round" stroke-linejoin="round" stroke-width="1.875" d="M0.316 0.076L0.116 0.29" transform="translate(-769 -621) translate(771 622) translate(25.676 30.304) translate(92.23 158.446)"/>
                    </g>
                    <g>
                        <path fill="#000" d="M0.14 29.272L27.958 0.023" transform="translate(-769 -621) translate(771 622) translate(25.676 30.304) translate(92.905 128.716)"/>
                        <path stroke="#FFF" stroke-linecap="round" stroke-linejoin="round" stroke-width="1.875" d="M0.14 29.272L27.958 0.023" transform="translate(-769 -621) translate(771 622) translate(25.676 30.304) translate(92.905 128.716)"/>
                    </g>
                    <g>
                        <path fill="#000" d="M0.289 1.616L0.45 0.162" transform="translate(-769 -621) translate(771 622) translate(25.676 30.304) translate(77.027 172.297)"/>
                        <path stroke="#FFF" stroke-linecap="round" stroke-linejoin="round" stroke-width="1.875" d="M0.289 1.616L0.45 0.162" transform="translate(-769 -621) translate(771 622) translate(25.676 30.304) translate(77.027 172.297)"/>
                    </g>
                    <g>
                        <path fill="#000" d="M0.345 1.298L0.511 0.051" transform="translate(-769 -621) translate(771 622) translate(25.676 30.304) translate(76.351 172.635)"/>
                        <path stroke="#FFF" stroke-linecap="round" stroke-linejoin="round" stroke-width="1.875" d="M0.345 1.298L0.511 0.051" transform="translate(-769 -621) translate(771 622) translate(25.676 30.304) translate(76.351 172.635)"/>
                    </g>
                    <g>
                        <path fill="#000" d="M0.214 0.976L0.294 0.249" transform="translate(-769 -621) translate(771 622) translate(25.676 30.304) translate(77.703 172.297)"/>
                        <path stroke="#FFF" stroke-linecap="round" stroke-linejoin="round" stroke-width="1.875" d="M0.214 0.976L0.294 0.249" transform="translate(-769 -621) translate(771 622) translate(25.676 30.304) translate(77.703 172.297)"/>
                    </g>
                    <path fill="#000" d="M79.798 183.456L68.701 173.054 70.401 171.24 81.498 181.642z" transform="translate(-769 -621) translate(771 622) translate(25.676 30.304)"/>
                    <path stroke="#FFF" stroke-linecap="round" stroke-linejoin="round" stroke-width="1.875" d="M79.798 183.456L68.701 173.054 70.401 171.24 81.498 181.642z" transform="translate(-769 -621) translate(771 622) translate(25.676 30.304)"/>
                    <g>
                        <path fill="#000" d="M11.103 10.536L0.006 0.134" transform="translate(-769 -621) translate(771 622) translate(25.676 30.304) translate(69.595 171.96)"/>
                        <path stroke="#FFF" stroke-linecap="round" stroke-linejoin="round" stroke-width="1.875" d="M11.103 10.536L0.006 0.134" transform="translate(-769 -621) translate(771 622) translate(25.676 30.304) translate(69.595 171.96)"/>
                    </g>
                    <g>
                        <path fill="#000" d="M2.866 2.896L0.049 0.237" transform="translate(-769 -621) translate(771 622) translate(25.676 30.304) translate(64.19 185.81)"/>
                        <path stroke="#FFF" stroke-linecap="round" stroke-linejoin="round" stroke-width="1.875" d="M2.866 2.896L0.049 0.237" transform="translate(-769 -621) translate(771 622) translate(25.676 30.304) translate(64.19 185.81)"/>
                    </g>
                    <g>
                        <path fill="#000" d="M2.975 2.766L0.158 0.106" transform="translate(-769 -621) translate(771 622) translate(25.676 30.304) translate(65.203 184.797)"/>
                        <path stroke="#FFF" stroke-linecap="round" stroke-linejoin="round" stroke-width="1.875" d="M2.975 2.766L0.158 0.106" transform="translate(-769 -621) translate(771 622) translate(25.676 30.304) translate(65.203 184.797)"/>
                    </g>
                    <g>
                        <path fill="#000" d="M2.965 2.973L0.148 0.314" transform="translate(-769 -621) translate(771 622) translate(25.676 30.304) translate(66.216 183.446)"/>
                        <path stroke="#FFF" stroke-linecap="round" stroke-linejoin="round" stroke-width="1.875" d="M2.965 2.973L0.148 0.314" transform="translate(-769 -621) translate(771 622) translate(25.676 30.304) translate(66.216 183.446)"/>
                    </g>
                    <g>
                        <path fill="#000" d="M3.075 2.842L0.257 0.183" transform="translate(-769 -621) translate(771 622) translate(25.676 30.304) translate(67.23 182.432)"/>
                        <path stroke="#FFF" stroke-linecap="round" stroke-linejoin="round" stroke-width="1.875" d="M3.075 2.842L0.257 0.183" transform="translate(-769 -621) translate(771 622) translate(25.676 30.304) translate(67.23 182.432)"/>
                    </g>
                    <g>
                        <path fill="#000" d="M2.912 2.831L0.095 0.172" transform="translate(-769 -621) translate(771 622) translate(25.676 30.304) translate(68.581 181.081)"/>
                        <path stroke="#FFF" stroke-linecap="round" stroke-linejoin="round" stroke-width="1.875" d="M2.912 2.831L0.095 0.172" transform="translate(-769 -621) translate(771 622) translate(25.676 30.304) translate(68.581 181.081)"/>
                    </g>
                    <g>
                        <path fill="#000" d="M3.06 2.956L0.204 0.041" transform="translate(-769 -621) translate(771 622) translate(25.676 30.304) translate(69.595 180.068)"/>
                        <path stroke="#FFF" stroke-linecap="round" stroke-linejoin="round" stroke-width="1.875" d="M3.06 2.956L0.204 0.041" transform="translate(-769 -621) translate(771 622) translate(25.676 30.304) translate(69.595 180.068)"/>
                    </g>
                    <g>
                        <path fill="#000" d="M3.011 2.907L0.194 0.248" transform="translate(-769 -621) translate(771 622) translate(25.676 30.304) translate(70.608 178.716)"/>
                        <path stroke="#FFF" stroke-linecap="round" stroke-linejoin="round" stroke-width="1.875" d="M3.011 2.907L0.194 0.248" transform="translate(-769 -621) translate(771 622) translate(25.676 30.304) translate(70.608 178.716)"/>
                    </g>
                    <g>
                        <path fill="#000" d="M3.12 2.776L0.304 0.117" transform="translate(-769 -621) translate(771 622) translate(25.676 30.304) translate(71.622 177.703)"/>
                        <path stroke="#FFF" stroke-linecap="round" stroke-linejoin="round" stroke-width="1.875" d="M3.12 2.776L0.304 0.117" transform="translate(-769 -621) translate(771 622) translate(25.676 30.304) translate(71.622 177.703)"/>
                    </g>
                    <path fill="#000" d="M77.669 189.209L67.533 179.708 70.233 176.827 80.37 186.328z" transform="translate(-769 -621) translate(771 622) translate(25.676 30.304)"/>
                    <path stroke="#FFF" stroke-linecap="round" stroke-linejoin="round" stroke-width="1.875" d="M77.669 189.209L67.533 179.708 70.233 176.827 80.37 186.328z" transform="translate(-769 -621) translate(771 622) translate(25.676 30.304)"/>
                    <path fill="#000" d="M82.047 186.998L81.46 186.448 80.873 185.898 77.373 189.633 78.547 190.733z" transform="translate(-769 -621) translate(771 622) translate(25.676 30.304)"/>
                    <path stroke="#FFF" stroke-linecap="round" stroke-linejoin="round" stroke-width="1.875" d="M82.047 186.998L81.46 186.448 80.873 185.898 77.373 189.633 78.547 190.733z" transform="translate(-769 -621) translate(771 622) translate(25.676 30.304)"/>
                    <g>
                        <path fill="#000" d="M0.203 3.984L3.704 0.249" transform="translate(-769 -621) translate(771 622) translate(25.676 30.304) translate(77.703 186.149)"/>
                        <path stroke="#FFF" stroke-linecap="round" stroke-linejoin="round" stroke-width="1.875" d="M0.203 3.984L3.704 0.249" transform="translate(-769 -621) translate(771 622) translate(25.676 30.304) translate(77.703 186.149)"/>
                    </g>
                    <g>
                        <path fill="#000" d="M2.252.288s.797.967.004 2.028c0 0-.863.92-2.045.15" transform="translate(-769 -621) translate(771 622) translate(25.676 30.304) translate(79.054 187.5)"/>
                        <path stroke="#FFF" stroke-linecap="round" stroke-linejoin="round" stroke-width="1.875" d="M2.252.288s.797.967.004 2.028c0 0-.863.92-2.045.15" transform="translate(-769 -621) translate(771 622) translate(25.676 30.304) translate(79.054 187.5)"/>
                    </g>
                    <g>
                        <path fill="#000" d="M49.799 43.136L7.339 4.604 0.164 0.284 4.639 7.486 45.743 47.462" transform="translate(-769 -621) translate(771 622) translate(25.676 30.304) translate(19.257 131.419)"/>
                        <path stroke="#FFF" stroke-linecap="round" stroke-linejoin="round" stroke-width="1.875" d="M49.799 43.136L7.339 4.604 0.164 0.284 4.639 7.486 45.743 47.462" transform="translate(-769 -621) translate(771 622) translate(25.676 30.304) translate(19.257 131.419)"/>
                    </g>
                    <g>
                        <path fill="#000" d="M16.134 15.104L0.004 0.235" transform="translate(-769 -621) translate(771 622) translate(25.676 30.304) translate(51.014 161.486)"/>
                        <path stroke="#FFF" stroke-linecap="round" stroke-linejoin="round" stroke-width="1.875" d="M16.134 15.104L0.004 0.235" transform="translate(-769 -621) translate(771 622) translate(25.676 30.304) translate(51.014 161.486)"/>
                    </g>
                    <g>
                        <path fill="#000" d="M1.159 1.086L0.306 0.286" transform="translate(-769 -621) translate(771 622) translate(25.676 30.304) translate(49.324 160.135)"/>
                        <path stroke="#FFF" stroke-linecap="round" stroke-linejoin="round" stroke-width="1.875" d="M1.159 1.086L0.306 0.286" transform="translate(-769 -621) translate(771 622) translate(25.676 30.304) translate(49.324 160.135)"/>
                    </g>
                    <g>
                        <path fill="#000" d="M0.217 0.224L0.43 0.424" transform="translate(-769 -621) translate(771 622) translate(25.676 30.304) translate(48.986 159.797)"/>
                        <path stroke="#FFF" stroke-linecap="round" stroke-linejoin="round" stroke-width="1.875" d="M0.217 0.224L0.43 0.424" transform="translate(-769 -621) translate(771 622) translate(25.676 30.304) translate(48.986 159.797)"/>
                    </g>
                    <g>
                        <path fill="#000" d="M29.413 28.102L0.164 0.284" transform="translate(-769 -621) translate(771 622) translate(25.676 30.304) translate(19.257 131.419)"/>
                        <path stroke="#FFF" stroke-linecap="round" stroke-linejoin="round" stroke-width="1.875" d="M29.413 28.102L0.164 0.284" transform="translate(-769 -621) translate(771 622) translate(25.676 30.304) translate(19.257 131.419)"/>
                    </g>
                    <g>
                        <path fill="#000" d="M1.757 0.25L0.304 0.09" transform="translate(-769 -621) translate(771 622) translate(25.676 30.304) translate(62.838 175)"/>
                        <path stroke="#FFF" stroke-linecap="round" stroke-linejoin="round" stroke-width="1.875" d="M1.757 0.25L0.304 0.09" transform="translate(-769 -621) translate(771 622) translate(25.676 30.304) translate(62.838 175)"/>
                    </g>
                    <g>
                        <path fill="#000" d="M1.44 0.533L0.193 0.366" transform="translate(-769 -621) translate(771 622) translate(25.676 30.304) translate(63.176 175.338)"/>
                        <path stroke="#FFF" stroke-linecap="round" stroke-linejoin="round" stroke-width="1.875" d="M1.44 0.533L0.193 0.366" transform="translate(-769 -621) translate(771 622) translate(25.676 30.304) translate(63.176 175.338)"/>
                    </g>
                    <g>
                        <path fill="#000" d="M0.779 0.326L0.052 0.246" transform="translate(-769 -621) translate(771 622) translate(25.676 30.304) translate(63.176 174.324)"/>
                        <path stroke="#FFF" stroke-linecap="round" stroke-linejoin="round" stroke-width="1.875" d="M0.779 0.326L0.052 0.246" transform="translate(-769 -621) translate(771 622) translate(25.676 30.304) translate(63.176 174.324)"/>
                    </g>
                    <path fill="#000" d="M74.137 172.769L63.736 183.866 61.922 182.165 72.324 171.069z" transform="translate(-769 -621) translate(771 622) translate(25.676 30.304)"/>
                    <path stroke="#FFF" stroke-linecap="round" stroke-linejoin="round" stroke-width="1.875" d="M74.137 172.769L63.736 183.866 61.922 182.165 72.324 171.069z" transform="translate(-769 -621) translate(771 622) translate(25.676 30.304)"/>
                    <g>
                        <path fill="#000" d="M10.677 0.247L0.275 11.344" transform="translate(-769 -621) translate(771 622) translate(25.676 30.304) translate(62.5 171.622)"/>
                        <path stroke="#FFF" stroke-linecap="round" stroke-linejoin="round" stroke-width="1.875" d="M10.677 0.247L0.275 11.344" transform="translate(-769 -621) translate(771 622) translate(25.676 30.304) translate(62.5 171.622)"/>
                    </g>
                    <g>
                        <path fill="#000" d="M2.699 0.039L0.04 2.856" transform="translate(-769 -621) translate(771 622) translate(25.676 30.304) translate(76.69 185.473)"/>
                        <path stroke="#FFF" stroke-linecap="round" stroke-linejoin="round" stroke-width="1.875" d="M2.699 0.039L0.04 2.856" transform="translate(-769 -621) translate(771 622) translate(25.676 30.304) translate(76.69 185.473)"/>
                    </g>
                    <g>
                        <path fill="#000" d="M2.907 0.267L0.247 3.084" transform="translate(-769 -621) translate(771 622) translate(25.676 30.304) translate(75.338 184.122)"/>
                        <path stroke="#FFF" stroke-linecap="round" stroke-linejoin="round" stroke-width="1.875" d="M2.907 0.267L0.247 3.084" transform="translate(-769 -621) translate(771 622) translate(25.676 30.304) translate(75.338 184.122)"/>
                    </g>
                    <g>
                        <path fill="#000" d="M2.776 0.277L0.117 3.094" transform="translate(-769 -621) translate(771 622) translate(25.676 30.304) translate(74.324 183.108)"/>
                        <path stroke="#FFF" stroke-linecap="round" stroke-linejoin="round" stroke-width="1.875" d="M2.776 0.277L0.117 3.094" transform="translate(-769 -621) translate(771 622) translate(25.676 30.304) translate(74.324 183.108)"/>
                    </g>
                    <g>
                        <path fill="#000" d="M2.983 0.168L0.324 2.985" transform="translate(-769 -621) translate(771 622) translate(25.676 30.304) translate(72.973 182.095)"/>
                        <path stroke="#FFF" stroke-linecap="round" stroke-linejoin="round" stroke-width="1.875" d="M2.983 0.168L0.324 2.985" transform="translate(-769 -621) translate(771 622) translate(25.676 30.304) translate(72.973 182.095)"/>
                    </g>
                    <g>
                        <path fill="#000" d="M2.972 0.33L0.313 3.148" transform="translate(-769 -621) translate(771 622) translate(25.676 30.304) translate(71.622 180.743)"/>
                        <path stroke="#FFF" stroke-linecap="round" stroke-linejoin="round" stroke-width="1.875" d="M2.972 0.33L0.313 3.148" transform="translate(-769 -621) translate(771 622) translate(25.676 30.304) translate(71.622 180.743)"/>
                    </g>
                    <g>
                        <path fill="#000" d="M3.097 0.182L0.182 3.038" transform="translate(-769 -621) translate(771 622) translate(25.676 30.304) translate(70.608 179.73)"/>
                        <path stroke="#FFF" stroke-linecap="round" stroke-linejoin="round" stroke-width="1.875" d="M3.097 0.182L0.182 3.038" transform="translate(-769 -621) translate(771 622) translate(25.676 30.304) translate(70.608 179.73)"/>
                    </g>
                    <g>
                        <path fill="#000" d="M2.711 0.231L0.051 3.048" transform="translate(-769 -621) translate(771 622) translate(25.676 30.304) translate(69.595 178.716)"/>
                        <path stroke="#FFF" stroke-linecap="round" stroke-linejoin="round" stroke-width="1.875" d="M2.711 0.231L0.051 3.048" transform="translate(-769 -621) translate(771 622) translate(25.676 30.304) translate(69.595 178.716)"/>
                    </g>
                    <g>
                        <path fill="#000" d="M2.918 0.122L0.258 2.939" transform="translate(-769 -621) translate(771 622) translate(25.676 30.304) translate(68.243 177.703)"/>
                        <path stroke="#FFF" stroke-linecap="round" stroke-linejoin="round" stroke-width="1.875" d="M2.918 0.122L0.258 2.939" transform="translate(-769 -621) translate(771 622) translate(25.676 30.304) translate(68.243 177.703)"/>
                    </g>
                    <path fill="#000" d="M70.934 185.365s1.897-2.474 3.024-.955c0 0 1.934-2.701 2.07-.014 0 0 .972-1.309 1.52.284s-.463 3.765-1.762 3.751c-1.3-.014-5.072-1.925-4.852-3.066" transform="translate(-769 -621) translate(771 622) translate(25.676 30.304)"/>
                    <path fill="#000" d="M69.944 180.677s-.698-1.341 4.185-2.867c0 0 3.326-1.643 6.088-2.195l2.761-.552 2.136 4.883-2.798 1.44c-1.494 1.9-2.952 3.688-3.667 3.087-.387.24-3.48-3.944-6.046-4.222" transform="translate(-769 -621) translate(771 622) translate(25.676 30.304)"/>
                    <path fill="#000" d="M75.6 181.413l.665-1.467-3.968-.305s-1.83.61-2.136 1.22c-.305.61.305.916.305.916" transform="translate(-769 -621) translate(771 622) translate(25.676 30.304)"/>
                    <path fill="#000" d="M69.944 180.677l-2.213 2.887s1.08 1.9 3.91-.885c0 0 .063-1.307 3.96-1.266" transform="translate(-769 -621) translate(771 622) translate(25.676 30.304)"/>
                    <path fill="#000" d="M69.944 180.677s-4.665 4.456-4.36 5.677c.305 1.221 1.377 2.313 2.977 1.157 0 0-.23 1.59 1.905 1.59 0 0-.305-.915 1.526-.305 1.831.61.916.915 1.831-.305 0 0 1.235 1.812 2.907-.163 1.67-1.974-4.127-5.636-4.433-4.415" transform="translate(-769 -621) translate(771 622) translate(25.676 30.304)"/>
                    <path stroke="#D1A448" stroke-linecap="round" stroke-linejoin="round" stroke-width="1.875" d="M69.509 184.656c.605.015.706.403.706.403.104.223-.188.877-.417 1.257-.23.38-1.587 1.778-1.919 1.825-.332.047-1.535-.314-1.857-.652-.322-.339-.409-1.278-.409-1.278l1.02-1.855" transform="translate(-769 -621) translate(771 622) translate(25.676 30.304)"/>
                    <path stroke="#D1A448" stroke-linecap="round" stroke-linejoin="round" stroke-width="1.875" d="M67.042 186.357s.618-.48 1.072-1.02c.455-.54 1.12-.743 1.23-.685M68.694 186.399s.326.173.608-.095c0 0 .565-.537.743-1.084 0 0-.211-.336-.704-.458l-.397.301s-.73.589-.412 1.267M67.608 187.969s-.822-.186-.977-.575M68.382 187.878s.033.882.47 1.059c.435.176 1.205.25 1.595.04.391-.211 1.186-1.128 1.242-1.182M71.858 187.634s.57-.757.744-1.083c.173-.326 1.313-1.84 1.161-2.395 0 0-.21-.39-.706-.403M70.077 186.158s.565-.537.68-.755c.116-.217 1.25-1.511 1.638-1.612.388-.1.442-.044.442-.044" transform="translate(-769 -621) translate(771 622) translate(25.676 30.304)"/>
                    <path stroke="#D1A448" stroke-linecap="round" stroke-linejoin="round" stroke-width="1.875" d="M71.232 188.445s-.01.386.427.562c.436.176.76.46 1.201.415.442-.044.788-.641 1.07-.91.282-.268 1.082-1.405 1.142-1.624.06-.219.413-1.092.533-1.474.12-.382.47-1.145.37-1.589 0 0-.099-.443-.427-.561-.327-.119-.66-.072-.77-.02-.255.12-.738.864-.8 1.138-.062.274-.6 1.095-.6 1.095" transform="translate(-769 -621) translate(771 622) translate(25.676 30.304)"/>
                    <path stroke="#D1A448" stroke-linecap="round" stroke-linejoin="round" stroke-width="1.875" d="M74.208 188.41s-.062.273.21.39c.273.117.766.24.988.19.221-.05 1.06-.525 1.235-.961.177-.436.457-.65.584-1.307.127-.659.23-2.421.12-2.587-.163-.245-.357-.422-.588-.42-.297 0-.62.225-.62.225-.169.16-.308 1.314-.43 1.752-.12.438-.237.71-.237.71s-.041.116-.305.41M71.67 188.566s.158.28.432.342c.274.061.383.12.548.123M74.646 188.53s.325.229.545.234M73.767 186.194s.211.391.65.457M73.866 186.638s.213.336.71.293M73.61 185.915s.66.016.982.355M70.738 186.174s.264.447.757.57M71.123 186.184s.328.118.812.57M70.45 186.663s.43.451.98.465M68.97 188.609s.272.117.875.242M69.597 185.54c-.178.491-.569.701-.569.701M75.905 186.633s.44.011.767.185M75.9 186.853s.38.23.876.188M75.675 187.013s.16.225.49.233M72.509 181.425s-.058.109-.683.865c-.625.755-1.966 1.549-2.579 1.808-.612.26-1.375-.09-1.375-.09s-.271-.17-.322-.338M72.334 181.806s1.708-.012 2.599-.375M77.595 180.726c-.396.43-1.621.95-1.621.95s-1.169.467-2.384.603M77.33 180.95c-.383.553-.974.847-.974.847M76.825 187.867s.866-.481 1.508-1.394M84.059 180.42c-.825.252-2.175 1.048-2.175 1.048-.235.6-.463.87-.463.87s-1.06 1.185-1.003 1.179" transform="translate(-769 -621) translate(771 622) translate(25.676 30.304)"/>
                    <path stroke="#D1A448" stroke-linecap="round" stroke-linejoin="round" stroke-width="1.875" d="M69.104 181.726s.282.34.19.718c-.093.378-.906 1.404-1.565 1.245 0 0-.123-.05-.202-.195l1.577-1.768zM70.52 179.447c-.293.71-1.374 2.06-1.374 2.06M70.634 179.285s.117-.273.894-.474c.776-.2 1.828-.395 2.612-.926.784-.532 1.515-1.12 2.458-1.371.943-.252 2.878-.535 2.878-.535s2.447-.831 2.773-1.243M70.627 179.56s.1.444.318.504M70.8 179.29s.375.394.533.673M70.914 179.127s.216.17.323.283M76.344 184.585s0-.437.067-.583c.09-.053.39-.346.716.017 0 0 .084 1.05-.36 1.203-.445.155-.429-.506-.429-.506M74.581 184.004s.16-.515.3-.66c.137-.026.64-.247.937.315 0 0-.269 1.273-.91 1.272-.642-.002-.38-.775-.38-.775M81.692 179.891s-.148-.665-.74-1.23c0 0-.27-.227-.372-.56M80.217 177.21s-.152-.555-.482-.563c-.33-.008-.597-.345-.708-.348M72.262 184.625s-.381.72.251.825c.634.104 1.103-1.11 1.103-1.11-.204-.602-.735-.464-.874-.461-.163.12-.403.604-.403.604l-.077.142zM68.05 183.518s.389-.156.672-.48M72.746 185.177s.222-.05.394-.32M76.944 184.731s.068-.494.015-.606" transform="translate(-769 -621) translate(771 622) translate(25.676 30.304)"/>
                    <path stroke="#44E7D9" stroke-linecap="round" stroke-linejoin="round" stroke-width="1.875" d="M93.659 122.574L90.012 121.027M55.208 145.767L55.208 153.255" transform="translate(-769 -621) translate(771 622) translate(25.676 30.304)"/>
                    <path fill="#D1A448" d="M12.784 134.472L12.204 131.837 9.648 130.86 12.283 130.528 13.013 127.723 13.592 130.606 16.149 131.088 13.514 131.667zM29.747 108.271L29.39 106.646 27.814 106.044 29.438 105.839 29.888 104.11 30.245 105.887 31.822 106.184 30.197 106.542zM4.537 105.471L3.765 101.959.358 100.657 3.869 100.214 4.842 96.477 5.614 100.318 9.022 100.961 5.51 101.733zM13.659 81.147L13.301 79.522 11.726 78.919 13.35 78.715 13.8 76.986 14.157 78.763 15.733 79.06 14.109 79.418zM106.893 47.445c-.133-.314.015-.676.33-.809.314-.132.676.016.809.33.132.315-.016.677-.33.81-.315.131-.677-.016-.81-.33M.084 119.315c-.073-.175.009-.376.184-.45.175-.073.375.01.449.184.074.175-.008.376-.183.45-.175.073-.376-.01-.45-.184M25.363 191.004L24.783 188.369 22.227 187.393 24.861 187.06 25.591 184.256 26.17 187.139 28.728 187.62 26.092 188.2zM7.319 165.382L6.546 161.869 3.139 160.568 6.65 160.125 7.623 156.388 8.395 160.229 11.804 160.872 8.291 161.644zM40.417 83.032c-.132-.314.016-.677.33-.81.315-.131.677.016.81.331.132.315-.016.677-.33.81-.315.131-.677-.016-.81-.331M2.866 179.226c-.074-.175.008-.376.183-.45.175-.073.376.01.45.184.073.175-.01.376-.184.45-.175.073-.376-.009-.45-.184M9.545 10.988L8.914 8.117 6.129 7.053 8.999 6.691 9.795 3.636 10.425 6.776 13.212 7.301 10.341 7.933zM1.887 32.483c0 .342-.277.618-.618.618-.341 0-.618-.276-.618-.618 0-.34.277-.618.618-.618.341 0 .618.277.618.618M23.471 52.704L22.995 50.539 20.896 49.737 23.059 49.464 23.659 47.161 24.135 49.528 26.236 49.924 24.071 50.4zM103.892 68.614L104.472 71.249 107.028 72.226 104.394 72.558 103.664 75.362 103.085 72.48 100.527 71.998 103.162 71.418zM111.254 96.167L111.611 97.791 113.187 98.393 111.563 98.598 111.113 100.327 110.756 98.55 109.179 98.253 110.804 97.896zM136.463 98.966L137.236 102.479 140.643 103.78 137.132 104.223 136.159 107.96 135.387 104.119 131.979 103.477 135.491 102.704zM126.666 153.696L127.024 155.321 128.6 155.923 126.975 156.128 126.525 157.856 126.168 156.08 124.592 155.782 126.216 155.425zM135.121 138.073c.133.314-.015.677-.33.809-.314.132-.676-.016-.808-.33-.133-.315.015-.677.33-.81.314-.131.676.016.808.33M140.916 85.122c.074.175-.008.376-.183.45-.175.073-.376-.01-.45-.184-.073-.174.01-.376.184-.45.175-.073.376.01.45.184M125.436 10.055L126.015 12.69 128.571 13.666 125.937 13.999 125.207 16.803 124.627 13.92 122.07 13.438 124.706 12.859zM133.682 39.056L134.455 42.568 137.862 43.869 134.351 44.312 133.378 48.05 132.606 44.208 129.197 43.566 132.709 42.793zM117.137 129.851c.133.315-.015.677-.33.81-.314.131-.676-.016-.808-.331-.133-.315.015-.677.33-.809.314-.132.676.015.808.33M138.135 25.211c.074.175-.008.376-.183.45-.175.073-.376-.009-.45-.184-.073-.174.009-.376.184-.449.175-.074.376.008.45.183M137.199 181.963L137.83 184.834 140.615 185.898 137.744 186.26 136.95 189.315 136.319 186.175 133.532 185.65 136.403 185.018zM139.114 171.954c0-.342.276-.618.618-.618.341 0 .618.276.618.618 0 .341-.277.618-.618.618-.342 0-.618-.277-.618-.618M115.502 169.301L115.978 171.466 118.078 172.268 115.914 172.541 115.315 174.844 114.839 172.476 112.738 172.081 114.903 171.604zM128.928 69.646c.073.175-.008.376-.183.45-.175.073-.376-.01-.45-.184-.073-.175.009-.376.184-.45.174-.073.375.01.45.184M34.828 64.574c.074.175-.008.376-.183.45-.175.073-.376-.01-.45-.184-.073-.174.009-.376.184-.45.174-.073.375.01.45.184M1.559 65.6c.074.175-.008.376-.183.45-.175.073-.376-.008-.45-.183-.073-.175.009-.376.184-.45.174-.073.375.009.449.184" transform="translate(-769 -621) translate(771 622) translate(25.676 30.304)"/>
                </g>
            </g>
        </g>
    </g>
</svg>
