<svg xmlns="http://www.w3.org/2000/svg" width="191" height="266" viewBox="0 0 191 266"><title>Паж Пентаклей</title>
    <g fill="none" fill-rule="evenodd">
        <g>
            <g>
                <g>
                    <path fill="#182018" stroke="#FFF" stroke-linecap="round" stroke-linejoin="round" stroke-width="2.5" d="M177.475 262.969H9.604c-5.21 0-9.435-4.186-9.435-9.348V9.573C.169 4.41 4.393.225 9.604.225h167.871c5.211 0 9.435 4.185 9.435 9.348V253.62c0 5.162-4.224 9.348-9.435 9.348z" transform="translate(-781 -3429) translate(783 3430) translate(0 .277)"/>
                    <path stroke="#FFF" stroke-linecap="round" stroke-linejoin="round" stroke-width="1.875" d="M162.33 248.262L140.492 248.262M14.168 25.578L14.168 248.262 45.562 248.262" transform="translate(-781 -3429) translate(783 3430) translate(0 .277)"/>
                    <path stroke="#D1A448" stroke-linecap="round" stroke-linejoin="round" stroke-width="1.875" d="M13.896 19.925L11.278 15.433 8.661 10.941 13.896 10.941 19.131 10.941 16.513 15.433z" transform="translate(-781 -3429) translate(783 3430) translate(0 .277)"/>
                    <g>
                        <path fill="#000" d="M10.692 0.385L0.238 0.385" transform="translate(-781 -3429) translate(783 3430) translate(0 .277) translate(8.43 15.703)"/>
                        <path stroke="#D1A448" stroke-linecap="round" stroke-linejoin="round" stroke-width="1.875" d="M10.692 0.385L0.238 0.385" transform="translate(-781 -3429) translate(783 3430) translate(0 .277) translate(8.43 15.703)"/>
                    </g>
                    <path stroke="#D1A448" stroke-linecap="round" stroke-linejoin="round" stroke-width="1.875" d="M172.545 242.765L175.162 247.256 177.78 251.748 172.545 251.748 167.309 251.748 169.927 247.256z" transform="translate(-781 -3429) translate(783 3430) translate(0 .277)"/>
                    <g>
                        <path fill="#000" d="M0.052 0.371L10.506 0.371" transform="translate(-781 -3429) translate(783 3430) translate(0 .277) translate(167.266 246.237)"/>
                        <path stroke="#D1A448" stroke-linecap="round" stroke-linejoin="round" stroke-width="1.875" d="M0.052 0.371L10.506 0.371" transform="translate(-781 -3429) translate(783 3430) translate(0 .277) translate(167.266 246.237)"/>
                    </g>
                    <path stroke="#FFF" stroke-linecap="round" stroke-linejoin="round" stroke-width="1.875" d="M25.637 14.341L173.475 14.341 173.475 235.033" transform="translate(-781 -3429) translate(783 3430) translate(0 .277)"/>
                    <path stroke="#D1A448" stroke-linecap="round" stroke-linejoin="round" stroke-width="1.875" d="M41.684 100.372L65.552 100.372 93.809 100.372 65.552 95.075 53.206 92.761M45.459 79.996L93.714 99.525 59.031 77.267" transform="translate(-781 -3429) translate(783 3430) translate(0 .277)"/>
                    <path stroke="#D1A448" stroke-linecap="round" stroke-linejoin="round" stroke-width="1.875" d="M57.516 63.674L93.927 100.63 71.061 66.527" transform="translate(-781 -3429) translate(783 3430) translate(0 .277)"/>
                    <path stroke="#D1A448" stroke-linecap="round" stroke-linejoin="round" stroke-width="1.875" d="M76.246 51.956L93.744 100.603 87.35 60.155M95.256 49.09L93.792 100.713 102.611 60.715" transform="translate(-781 -3429) translate(783 3430) translate(0 .277)"/>
                    <path stroke="#D1A448" stroke-linecap="round" stroke-linejoin="round" stroke-width="1.875" d="M116.234 53.724L93.135 100.02 118.015 67.331M131.837 65.256L93.529 100.278 128.578 78.591M142.359 81.614L93.885 100.604 134.469 92.889M145.459 98.986L93.345 100.098" transform="translate(-781 -3429) translate(783 3430) translate(0 .277)"/>
                    <path stroke="#D1A448" stroke-linecap="round" stroke-linejoin="round" stroke-width="1.875" d="M93.261 99.284L121.518 104.581 133.864 106.895M141.612 119.661L93.357 100.131 128.04 122.389" transform="translate(-781 -3429) translate(783 3430) translate(0 .277)"/>
                    <path stroke="#D1A448" stroke-linecap="round" stroke-linejoin="round" stroke-width="1.875" d="M129.555 135.982L93.144 99.027 116.009 133.129" transform="translate(-781 -3429) translate(783 3430) translate(0 .277)"/>
                    <path stroke="#D1A448" stroke-linecap="round" stroke-linejoin="round" stroke-width="1.875" d="M110.825 147.7L93.327 99.053 99.721 139.501M91.814 150.566L93.278 98.943 84.459 138.941" transform="translate(-781 -3429) translate(783 3430) translate(0 .277)"/>
                    <path stroke="#D1A448" stroke-linecap="round" stroke-linejoin="round" stroke-width="1.875" d="M70.836 145.932L93.935 99.636 69.056 132.325M55.233 134.4L93.542 99.379 58.492 121.065M44.711 118.042L93.185 99.052 52.602 106.767" transform="translate(-781 -3429) translate(783 3430) translate(0 .277)"/>
                    <path fill="#000" d="M59.551 99.828c0-18.615 15.232-33.705 34.02-33.705 18.79 0 34.02 15.09 34.02 33.705s-15.23 33.705-34.02 33.705c-18.788 0-34.02-15.09-34.02-33.705" transform="translate(-781 -3429) translate(783 3430) translate(0 .277)"/>
                    <path stroke="#D1A448" stroke-linecap="round" stroke-linejoin="round" stroke-width="1.875" d="M59.551 99.828c0-18.615 15.232-33.705 34.02-33.705 18.79 0 34.02 15.09 34.02 33.705s-15.23 33.705-34.02 33.705c-18.788 0-34.02-15.09-34.02-33.705z" transform="translate(-781 -3429) translate(783 3430) translate(0 .277)"/>
                    <path fill="#000" d="M123.972 99.866c0 16.634-13.61 30.12-30.4 30.12S63.17 116.5 63.17 99.865s13.61-30.119 30.4-30.119 30.4 13.485 30.4 30.12" transform="translate(-781 -3429) translate(783 3430) translate(0 .277)"/>
                    <path stroke="#D1A448" stroke-linecap="round" stroke-linejoin="round" stroke-width="1.875" d="M123.972 99.866c0 16.634-13.61 30.12-30.4 30.12S63.17 116.5 63.17 99.865s13.61-30.119 30.4-30.119 30.4 13.485 30.4 30.12z" transform="translate(-781 -3429) translate(783 3430) translate(0 .277)"/>
                    <path fill="#000" d="M112.049 122.18L93.365 71.09 74.744 122.18 121.172 91.294 65.814 91.294z" transform="translate(-781 -3429) translate(783 3430) translate(0 .277)"/>
                    <path stroke="#D1A448" stroke-linecap="round" stroke-linejoin="round" stroke-width="1.875" d="M112.049 122.18L93.365 71.09 74.744 122.18 121.172 91.294 65.814 91.294z" transform="translate(-781 -3429) translate(783 3430) translate(0 .277)"/>
                    <path stroke="#FFF" stroke-linecap="round" stroke-linejoin="round" stroke-width="1.875" d="M70.499 172.321s-.111 3.314.537 6.436M66.392 177.695s-1.313-5.997-2.295-7.911c0 0-.015-5.045-.715-7.432M62.923 161.828s1.065-2.756-.014-5.045c-1.08-2.29-1.609-1.835-1.609-1.835s-.438 2.676-1.186 4.47c-.748 1.793-.365 5.142-.567 6.235-.202 1.094-.403 2.186-.323 2.808.08.62 1.382 5.017 1.508 6.748.126 1.731.453 2.37.383 3.349M58.544 183.3s-.672-1.031-.418-2.86c.253-1.827.156-2.203.156-2.203" transform="translate(-781 -3429) translate(783 3430) translate(0 .277)"/>
                    <path stroke="#FFF" stroke-linecap="round" stroke-linejoin="round" stroke-width="1.875" d="M58.369 177.013s-1.021-4.87-1.658-6.39c-.637-1.52-.735-1.897-.596-3.856.139-1.958.877-5.352.98-6.821.105-1.469 1.486-5.187 1.775-7.504.289-2.318 1.65-.5 1.747-.125.098.376.885 1.538.683 2.631M55.912 181.886s.052-.734.024-2.09" transform="translate(-781 -3429) translate(783 3430) translate(0 .277)"/>
                    <path stroke="#FFF" stroke-linecap="round" stroke-linejoin="round" stroke-width="1.875" d="M56.092 177.593s-1.152-4.755-2.364-6.931c0 0-.54-1.145-.418-2.86.121-1.714.392-3.786.612-5.124.219-1.338.086-1.224.236-1.583s1.1-3.245 1.434-4.453c.333-1.206.633-1.924.633-1.924s1.89.567 1.38 2.898M62.763 183.348s-1.741-1.72-1.786-2.831M57.054 185.042s-.672-1.031-.637-1.521M64.097 169.784s-.529.455-1.667.745M79.588 207.247s-1.858-5.467-1.43-8.329c.427-2.862.408-5.754.087-7.556-.321-1.802-.662-6.496-.266-8.915.397-2.42-.881-3.398-2.115-8.155l-.882-3.398c-.176-.68-2.014-3.254-3.468-4.912-1.453-1.658-1.838-2.574-2.46-3.285-.624-.711-1.882 1.203-1.353 3.242.529 2.039 1.026 4.52 2.512 5.736" transform="translate(-781 -3429) translate(783 3430) translate(0 .277)"/>
                    <path stroke="#FFF" stroke-linecap="round" stroke-linejoin="round" stroke-width="1.875" d="M71.565 178.301s-.8 2.528-3.185 1.132c0 0-1.069-.69-1.413-1.083 0 0-.707-.542-.92-1.048M54.106 161.83s-.62-1.766-1.379-1.573c0 0-.49 3.41-.956 4.732-.467 1.32-.473 3.166-.842 4.862-.369 1.697 1.807 6.032 1.996 8.629.188 2.596.457 5.814 1.111 7.09.655 1.276 1.763 4.92 2.911 6.231 1.15 1.31 3.945 7.41 4.91 9.57.964 2.158.056 2.71 1.32 4.151 1.263 1.442 1.688 2.455 2.635 4.859.947 2.404 1.153 4.756 1.153 4.756M134.487 169.178s-1.464 2.793-1.469 6.116M112.564 214.906s2.34-8.226 2.087-11.53c0 0 .223-3.85.126-5.12-.097-1.271-.325-7.643.626-10.398.95-2.755 1.822-4.865 2.632-6.075.81-1.211 2.096-2.968 4.109-3.63" transform="translate(-781 -3429) translate(783 3430) translate(0 .277)"/>
                    <path stroke="#FFF" stroke-linecap="round" stroke-linejoin="round" stroke-width="1.875" d="M126.035 175.05s-1.164-.04-1.757.643-1.912 1.65-2.774 3.198M129.311 174.038s-2.386-.843-3.75 1.559M132.706 172.89s-2.604-.316-4.264 1.596M129.746 172.983s.162-2.95 1.43-6.624c0 0 .1-.39.968-.839M133.594 159.172c.471 1.115.764 3.266.764 3.266M131.176 166.36s-.905-1.722-.624-4.81M127.288 167.8c-1.602 2.676-.956 6.078-.956 6.078M127.11 167.175c-.507-3.285-.01-6.9-.01-6.9M127.081 160.02s-1.04-5.067-.939-7.12" transform="translate(-781 -3429) translate(783 3430) translate(0 .277)"/>
                    <path stroke="#FFF" stroke-linecap="round" stroke-linejoin="round" stroke-width="1.875" d="M121.928 177.019s.246-6.92 1.986-9.477c0 0-1.493-4.361-1.096-5.924 0 0-1.712-3.834-1.235-6.042.477-2.208 1.817-1.542 1.817-1.542s1.888 4.46 2.774 5.927c0 0 .758 1.359.731 2.761M132.583 176.35s-1.067 1.23-.755 3.634M130.94 180.178s-2.804 2.127-3.736 5.135M128.677 175.875s.394.098-.06.899M124.827 177.824s-.493.293-.83.957M127.92 181.17s-1.48.878-3.119 1.384c-1.638.506-1.224.858-1.224.858M117.416 187.196s1.145-.214 2.25-.935c1.106-.722 1.996-2.578 2.49-2.87M122.93 180.01s-.416 1.31-.595 2.345M122.544 188.474s.411 2.013-1.091 4.298M126.514 184.726s-.97 2.5-1.03 3.4M119.584 188.567s-.455.8-.653 1.583M126.237 199.698s-2.686 1.99-5.074 2.808M115.348 198.98s1.46.53 2.722.18M121.515 176.666c-.354-1.25.258-1.68-.214-2.795-.471-1.115-1.021-3.246-2.36-5.574-1.338-2.328-1.691-3.58-3.051-4.5-1.36-.92-1.367 4.064.385 6.744 0 0 .233 3.05 1.237 4.38 0 0-.617 3.752.523 6.862" transform="translate(-781 -3429) translate(783 3430) translate(0 .277)"/>
                    <path stroke="#FFF" stroke-linecap="round" stroke-linejoin="round" stroke-width="1.875" d="M134.98 168.886l-.314-.743c-1.552-5.124 1.51-7.27 1.51-7.27 1.24 1.058 2.42 4.676 2.42 4.676s.254 1.642.902 3.382c.649 1.74-1.05 3.146-.876 5.433.175 2.287.134 3.44-.5 5.276-.634 1.837-1.563 3.184-1.764 5.627-.2 2.443-3.897 8.087-5.678 11.799-1.78 3.71-2.913 9.163-3.172 10.843-.259 1.68-1.372 7.387-1.372 7.387M129.327 154.823c.477-2.208 1.817-1.541 1.817-1.541M131.566 153.208s1.386 4.636 2.105 6.19M126.133 152.227c.476-2.208 1.817-1.542 1.817-1.542s.962 1.593 1.28 4.545c.242 2.245 1.235 6.041 1.235 6.041" transform="translate(-781 -3429) translate(783 3430) translate(0 .277)"/>
                    <path fill="#44E7D9" d="M145.43 191.87L144.838 189.206 142.23 188.218 144.918 187.882 145.663 185.047 146.254 187.961 148.864 188.449 146.175 189.035zM104.691 164.948L105.415 168.207 108.606 169.415 105.317 169.826 104.405 173.294 103.683 169.73 100.49 169.133 103.78 168.416zM112.027 151.786c.069.162-.008.349-.172.417-.164.068-.352-.008-.42-.17-.07-.162.007-.35.17-.418.165-.068.353.009.422.17M140.672 143.102c-.188-.444.022-.955.47-1.142.448-.187.964.022 1.152.466.188.443-.022.954-.47 1.141-.448.186-.963-.022-1.152-.465M41.632 151.055L41.161 148.934 39.085 148.148 41.225 147.881 41.817 145.625 42.288 147.944 44.365 148.332 42.224 148.798zM87.109 189.668L87.482 191.348 89.128 191.972 87.431 192.183 86.961 193.972 86.589 192.134 84.942 191.826 86.639 191.457zM47.144 211.192L47.868 214.452 51.059 215.66 47.77 216.071 46.859 219.539 46.136 215.974 42.943 215.378 46.233 214.661zM43.078 180.405L42.744 178.897 41.268 178.338 42.789 178.149 43.211 176.544 43.545 178.193 45.022 178.469 43.5 178.801zM29.778 171.076c-.124-.292.015-.628.31-.75.294-.123.633.014.757.306.124.291-.014.627-.31.75-.293.123-.633-.014-.757-.306M47.574 196.578c-.124-.292.014-.628.309-.751.294-.123.634.014.758.306s-.015.628-.31.751c-.294.123-.633-.014-.757-.306M85.59 160.38l.001-.003h.002v.003h-.002M103.432 185.53c-.125-.291.014-.627.309-.75.294-.123.633.014.758.306.123.292-.015.628-.31.751-.294.123-.634-.014-.757-.306M92.199 172.12c.068.163-.008.35-.172.418-.164.068-.352-.008-.42-.17-.07-.163.007-.35.17-.418.164-.068.353.009.422.17M78.75 157.846c-.189-.444.021-.955.47-1.141.447-.187.963.021 1.151.465.188.444-.022.955-.47 1.141-.448.187-.963-.022-1.152-.465M142.476 218.103c-.188-.444.022-.955.47-1.142.448-.186.963.022 1.152.466.188.444-.022.955-.47 1.141-.448.186-.963-.022-1.152-.465M152.444 156.502c.07.162-.008.349-.171.417-.164.068-.353-.008-.422-.17-.068-.162.009-.35.172-.417.164-.068.353.008.421.17M156.829 178.936L156.494 177.428 155.018 176.869 156.539 176.679 156.961 175.074 157.295 176.724 158.772 176.999 157.25 177.331zM101.987 212.247L101.653 210.739 100.176 210.18 101.698 209.99 102.119 208.386 102.454 210.035 103.931 210.311 102.409 210.642zM28.531 201.153c-.124-.292.014-.628.31-.751.294-.123.633.014.757.306s-.015.628-.31.75c-.294.123-.633-.014-.757-.305" transform="translate(-781 -3429) translate(783 3430) translate(0 .277)"/>
                </g>
                <path fill="#44E7D9" fill-rule="nonzero" d="M55.34 252.298v-3.874h1.573c.854 0 1.497-.221 1.93-.664.432-.443.648-1.032.648-1.767v-2.059c0-.735-.216-1.324-.649-1.767-.432-.443-1.075-.665-1.929-.665H54.53v10.796h.81zm1.573-4.603h-1.572v-5.463h1.572c1.178 0 1.767.567 1.767 1.702v2.059c0 1.134-.589 1.702-1.767 1.702zm4.555 4.603l.73-3.16h3.08l.73 3.16h.842l-2.529-10.796h-1.167l-2.529 10.796h.843zm3.648-3.89H62.36l1.378-5.982 1.378 5.982zm5.762 3.972c.849 0 1.63-.211 2.343-.633v-4.62h-.81v4.134c-.368.26-.935.39-1.703.39-1.113 0-1.67-.487-1.67-1.46v-6.484c0-1.027.644-1.54 1.93-1.54.67 0 1.323.103 1.961.308v-.794c-.605-.173-1.232-.26-1.88-.26-1.88 0-2.82.762-2.82 2.286v6.484c0 .767.229 1.324.688 1.67.46.346 1.113.519 1.961.519zm9.167-.082v-.729h-3.663v-4.344h3.193v-.73h-3.193v-4.263h3.663v-.73h-4.474v10.796h4.474zm7.36.163c.854 0 1.497-.23 1.929-.69.432-.459.648-1.056.648-1.79v-6.16c0-.735-.216-1.332-.648-1.792-.432-.459-1.075-.689-1.93-.689-.853 0-1.496.23-1.928.69-.432.459-.649 1.056-.649 1.79v6.16c0 .735.217 1.332.649 1.792.432.459 1.075.689 1.929.689zm0-.73c-1.178 0-1.767-.583-1.767-1.75v-6.16c0-1.168.589-1.751 1.767-1.751s1.767.583 1.767 1.75v6.16c0 1.168-.59 1.751-1.767 1.751zm5.657.567v-4.911h3.372v-.73h-3.372v-4.425h3.518v-.73h-4.328v10.796h.81zm12.612 0v-.729h-3.664v-4.344h3.194v-.73h-3.194v-4.263h3.664v-.73H101.2v10.796h4.474zm1.815 0l.73-3.16h3.08l.73 3.16h.842l-2.529-10.796h-1.167l-2.529 10.796h.843zm3.648-3.89h-2.756l1.378-5.982 1.378 5.982zm4.085 3.89v-4.457l1.73-.002c.097-.003.173-.007.231-.015l1.605 4.474h.891l-1.702-4.652c.93-.346 1.394-1.091 1.394-2.237v-1.475c0-.735-.216-1.324-.648-1.767-.432-.443-1.075-.665-1.929-.665h-2.383v10.796h.81zm1.572-5.22h-1.572v-4.846h1.572c1.178 0 1.767.567 1.767 1.702v1.475c0 1.113-.59 1.67-1.767 1.67zm6.808 5.22v-10.066h2.14v-.73h-5.09v.73h2.14v10.066h.81zm4.328 0v-4.927h3.794v4.927h.826v-10.796h-.826v5.14h-3.794v-5.14h-.81v10.796h.81z" transform="translate(-781 -3429) translate(783 3430)"/>
            </g>
        </g>
    </g>
</svg>
