<svg xmlns="http://www.w3.org/2000/svg" width="191" height="266" viewBox="0 0 191 266"><title>Восьмёрка Пентаклей</title>
    <g fill="none" fill-rule="evenodd">
        <g>
            <g>
                <path fill="#182018" stroke="#FFF" stroke-linecap="round" stroke-linejoin="round" stroke-width="2.5" d="M177.475 263.112H9.604c-5.21 0-9.435-4.186-9.435-9.348V9.716C.169 4.553 4.393.368 9.604.368h167.871c5.211 0 9.436 4.185 9.436 9.348v244.048c0 5.162-4.225 9.348-9.436 9.348z" transform="translate(-1084 -3066) translate(1086 3067)"/>
                <path fill="#44E7D9" fill-rule="nonzero" d="M57.675 251.387v-.73H54.01v-4.344h3.194v-.729H54.01v-4.263h3.664v-.73H53.2v10.796h4.474zm2.675 0v-10.796h-.81v10.796h.81zm4.92.081c.848 0 1.629-.21 2.342-.632v-4.62h-.81v4.134c-.368.26-.935.389-1.703.389-1.113 0-1.67-.486-1.67-1.46v-6.483c0-1.027.644-1.54 1.93-1.54.67 0 1.323.102 1.961.308v-.794c-.605-.173-1.232-.26-1.88-.26-1.88 0-2.82.762-2.82 2.286v6.484c0 .767.229 1.324.688 1.67.46.345 1.113.518 1.961.518zm5.503-.08v-4.929h3.793v4.928h.827v-10.796h-.827v5.139h-3.793v-5.139h-.81v10.796h.81zm8.948 0V241.32h2.14v-.73h-5.09v.73h2.14v10.066h.81zm9.013.161c.854 0 1.497-.23 1.929-.689.432-.459.648-1.056.648-1.79v-6.16c0-.736-.216-1.333-.648-1.792-.432-.46-1.075-.689-1.93-.689-.853 0-1.496.23-1.928.689-.433.46-.649 1.056-.649 1.791v6.16c0 .735.216 1.332.649 1.791.432.46 1.075.69 1.929.69zm0-.73c-1.178 0-1.767-.583-1.767-1.75v-6.16c0-1.167.589-1.75 1.767-1.75s1.767.583 1.767 1.75v6.16c0 1.167-.59 1.75-1.767 1.75zm5.657.568v-4.911h3.372v-.73H94.39v-4.425h3.518v-.73H93.58v10.796h.81zm12.612 0v-.73h-3.664v-4.344h3.194v-.729h-3.194v-4.263h3.664v-.73h-4.474v10.796h4.474zm1.815 0l.73-3.16h3.08l.73 3.16h.842l-2.529-10.796h-1.167l-2.529 10.796h.843zm3.648-3.89h-2.756l1.378-5.982 1.378 5.982zm4.085 3.89v-4.458l1.73-.001c.097-.003.173-.008.231-.015l1.605 4.474h.891l-1.702-4.652c.93-.346 1.394-1.092 1.394-2.237v-1.475c0-.735-.216-1.324-.648-1.767-.432-.443-1.075-.665-1.929-.665h-2.383v10.796h.81zm1.572-5.22h-1.572v-4.846h1.572c1.178 0 1.767.567 1.767 1.702v1.475c0 1.113-.59 1.67-1.767 1.67zm6.808 5.22v-10.066h2.14v-.73h-5.09v.73h2.14v10.066h.81zm4.328 0v-4.928h3.794v4.928h.826v-10.796h-.826v5.139h-3.794v-5.139h-.81v10.796h.81z" transform="translate(-1084 -3066) translate(1086 3067)"/>
                <g>
                    <path stroke="#FFF" stroke-linecap="round" stroke-linejoin="round" stroke-width="1.875" d="M153.937 237.346L132.1 237.346M5.776 14.662L5.776 237.346 37.17 237.346" transform="translate(-1084 -3066) translate(1086 3067) translate(8.43 11.06)"/>
                    <path stroke="#D1A448" stroke-linecap="round" stroke-linejoin="round" stroke-width="1.875" d="M5.503 9.009L2.886 4.517 0.268 0.025 5.503 0.025 10.739 0.025 8.121 4.517z" transform="translate(-1084 -3066) translate(1086 3067) translate(8.43 11.06)"/>
                    <g>
                        <path fill="#000" d="M10.73 0.495L0.276 0.495" transform="translate(-1084 -3066) translate(1086 3067) translate(8.43 11.06) translate(0 4.678)"/>
                        <path stroke="#D1A448" stroke-linecap="round" stroke-linejoin="round" stroke-width="1.875" d="M10.73 0.495L0.276 0.495" transform="translate(-1084 -3066) translate(1086 3067) translate(8.43 11.06) translate(0 4.678)"/>
                    </g>
                    <path stroke="#D1A448" stroke-width="1.875" d="M164.152 231.848L166.77 236.34 169.387 240.832 164.152 240.832 158.917 240.832 161.534 236.34z" transform="translate(-1084 -3066) translate(1086 3067) translate(8.43 11.06)"/>
                    <g>
                        <path fill="#000" d="M0.09 0.481L10.544 0.481" transform="translate(-1084 -3066) translate(1086 3067) translate(8.43 11.06) translate(158.835 235.212)"/>
                        <path stroke="#D1A448" stroke-width="1.875" d="M0.09 0.481L10.544 0.481" transform="translate(-1084 -3066) translate(1086 3067) translate(8.43 11.06) translate(158.835 235.212)"/>
                    </g>
                    <path stroke="#FFF" stroke-linecap="round" stroke-linejoin="round" stroke-width="1.875" d="M101.088 3.425L165.082 3.425 165.082 224.117M17.245 3.425L69.388 3.425" transform="translate(-1084 -3066) translate(1086 3067) translate(8.43 11.06)"/>
                </g>
                <path fill="#44E7D9" fill-rule="nonzero" d="M89.39 17.936L91.82 7.14h-.842c-1.265 5.706-1.989 9.018-2.172 9.937-.152-.735-.876-4.047-2.173-9.937h-.843l2.432 10.796h1.167zm4.7 0V7.14h-.81v10.796h.81zm3.242 0V7.14h-.81v10.796h.81zm3.242 0V7.14h-.81v10.796h.81z" transform="translate(-1084 -3066) translate(1086 3067)"/>
                <g>
                    <path stroke="#D1A448" stroke-linecap="round" stroke-linejoin="round" stroke-width="1.875" d="M102.464 164.619L30.634 164.619 30.634 93.025 66.549 67.143 102.464 93.025z" transform="translate(-1084 -3066) translate(1086 3067) translate(24.955 39.458)"/>
                    <path stroke="#D1A448" stroke-linecap="round" stroke-linejoin="round" stroke-width="1.875" d="M104.818 167.208L28.281 167.208 28.281 91.381 66.549 63.969 104.818 91.381z" transform="translate(-1084 -3066) translate(1086 3067) translate(24.955 39.458)"/>
                    <path stroke="#D1A448" stroke-linecap="round" stroke-linejoin="round" stroke-width="1.875" d="M51.332 122.893c0 4.085-3.343 7.396-7.465 7.396-4.123 0-7.466-3.311-7.466-7.396 0-4.086 3.343-7.397 7.466-7.397 4.122 0 7.465 3.311 7.465 7.397z" transform="translate(-1084 -3066) translate(1086 3067) translate(24.955 39.458)"/>
                    <path stroke="#D1A448" stroke-linecap="round" stroke-linejoin="round" stroke-width="1.875" d="M48.404 128.372L43.816 115.826 39.243 128.372 50.645 120.788 37.05 120.788z" transform="translate(-1084 -3066) translate(1086 3067) translate(24.955 39.458)"/>
                    <path stroke="#D1A448" stroke-linecap="round" stroke-linejoin="round" stroke-width="1.875" d="M35.512 122.883c0-4.571 3.74-8.277 8.355-8.277 4.614 0 8.354 3.706 8.354 8.277 0 4.572-3.74 8.277-8.354 8.277-4.614 0-8.355-3.705-8.355-8.277zM73.794 122.094c0 4.085-3.342 7.396-7.465 7.396-4.123 0-7.466-3.311-7.466-7.396 0-4.086 3.343-7.397 7.466-7.397s7.465 3.311 7.465 7.397z" transform="translate(-1084 -3066) translate(1086 3067) translate(24.955 39.458)"/>
                    <path stroke="#D1A448" stroke-linecap="round" stroke-linejoin="round" stroke-width="1.875" d="M70.866 127.573L66.278 115.027 61.705 127.573 73.107 119.988 59.513 119.988z" transform="translate(-1084 -3066) translate(1086 3067) translate(24.955 39.458)"/>
                    <path stroke="#D1A448" stroke-linecap="round" stroke-linejoin="round" stroke-width="1.875" d="M57.974 122.084c0-4.571 3.74-8.277 8.355-8.277 4.614 0 8.354 3.706 8.354 8.277 0 4.572-3.74 8.277-8.354 8.277-4.614 0-8.355-3.705-8.355-8.277zM96.726 122.762c0 4.085-3.343 7.396-7.465 7.396-4.124 0-7.466-3.311-7.466-7.396s3.342-7.397 7.466-7.397c4.122 0 7.465 3.312 7.465 7.397z" transform="translate(-1084 -3066) translate(1086 3067) translate(24.955 39.458)"/>
                    <path stroke="#D1A448" stroke-linecap="round" stroke-linejoin="round" stroke-width="1.875" d="M93.798 128.241L89.21 115.695 84.637 128.241 96.039 120.657 82.444 120.657z" transform="translate(-1084 -3066) translate(1086 3067) translate(24.955 39.458)"/>
                    <path stroke="#D1A448" stroke-linecap="round" stroke-linejoin="round" stroke-width="1.875" d="M80.906 122.752c0-4.571 3.74-8.277 8.354-8.277 4.615 0 8.355 3.706 8.355 8.277 0 4.572-3.74 8.277-8.355 8.277-4.614 0-8.354-3.705-8.354-8.277zM73.794 147.486c0 4.085-3.342 7.396-7.465 7.396-4.123 0-7.466-3.311-7.466-7.396s3.343-7.397 7.466-7.397 7.465 3.312 7.465 7.397z" transform="translate(-1084 -3066) translate(1086 3067) translate(24.955 39.458)"/>
                    <path stroke="#D1A448" stroke-linecap="round" stroke-linejoin="round" stroke-width="1.875" d="M70.866 152.965L66.278 140.419 61.705 152.965 73.107 145.381 59.513 145.381z" transform="translate(-1084 -3066) translate(1086 3067) translate(24.955 39.458)"/>
                    <path stroke="#D1A448" stroke-linecap="round" stroke-linejoin="round" stroke-width="1.875" d="M57.974 147.476c0-4.571 3.74-8.277 8.355-8.277 4.614 0 8.354 3.706 8.354 8.277 0 4.572-3.74 8.277-8.354 8.277-4.614 0-8.355-3.705-8.355-8.277zM96.726 147.486c0 4.085-3.343 7.396-7.465 7.396-4.124 0-7.466-3.311-7.466-7.396s3.342-7.397 7.466-7.397c4.122 0 7.465 3.312 7.465 7.397z" transform="translate(-1084 -3066) translate(1086 3067) translate(24.955 39.458)"/>
                    <path stroke="#D1A448" stroke-linecap="round" stroke-linejoin="round" stroke-width="1.875" d="M93.798 152.965L89.21 140.419 84.637 152.965 96.039 145.381 82.444 145.381z" transform="translate(-1084 -3066) translate(1086 3067) translate(24.955 39.458)"/>
                    <path stroke="#D1A448" stroke-linecap="round" stroke-linejoin="round" stroke-width="1.875" d="M80.906 147.476c0-4.571 3.74-8.277 8.354-8.277 4.615 0 8.355 3.706 8.355 8.277 0 4.572-3.74 8.277-8.355 8.277-4.614 0-8.354-3.705-8.354-8.277zM51.2 147.486c0 4.085-3.343 7.396-7.466 7.396s-7.465-3.311-7.465-7.396 3.342-7.397 7.465-7.397c4.123 0 7.466 3.312 7.466 7.397z" transform="translate(-1084 -3066) translate(1086 3067) translate(24.955 39.458)"/>
                    <path stroke="#D1A448" stroke-linecap="round" stroke-linejoin="round" stroke-width="1.875" d="M48.272 152.965L43.684 140.419 39.111 152.965 50.513 145.381 36.918 145.381z" transform="translate(-1084 -3066) translate(1086 3067) translate(24.955 39.458)"/>
                    <path stroke="#D1A448" stroke-linecap="round" stroke-linejoin="round" stroke-width="1.875" d="M35.38 147.476c0-4.571 3.74-8.277 8.354-8.277 4.615 0 8.355 3.706 8.355 8.277 0 4.572-3.74 8.277-8.355 8.277-4.614 0-8.354-3.705-8.354-8.277zM61.991 98.372c0 4.085-3.342 7.396-7.465 7.396-4.124 0-7.466-3.311-7.466-7.396s3.342-7.397 7.466-7.397c4.123 0 7.465 3.312 7.465 7.397z" transform="translate(-1084 -3066) translate(1086 3067) translate(24.955 39.458)"/>
                    <path stroke="#D1A448" stroke-linecap="round" stroke-linejoin="round" stroke-width="1.875" d="M59.063 103.851L54.475 91.305 49.902 103.851 61.304 96.267 47.71 96.267z" transform="translate(-1084 -3066) translate(1086 3067) translate(24.955 39.458)"/>
                    <path stroke="#D1A448" stroke-linecap="round" stroke-linejoin="round" stroke-width="1.875" d="M46.171 98.362c0-4.57 3.74-8.276 8.355-8.276 4.614 0 8.354 3.705 8.354 8.276 0 4.572-3.74 8.277-8.354 8.277-4.614 0-8.355-3.705-8.355-8.277zM85.26 98.372c0 4.085-3.342 7.396-7.465 7.396-4.124 0-7.466-3.311-7.466-7.396s3.342-7.397 7.466-7.397c4.123 0 7.465 3.312 7.465 7.397z" transform="translate(-1084 -3066) translate(1086 3067) translate(24.955 39.458)"/>
                    <path stroke="#D1A448" stroke-linecap="round" stroke-linejoin="round" stroke-width="1.875" d="M82.332 103.851L77.744 91.305 73.171 103.851 84.573 96.267 70.978 96.267z" transform="translate(-1084 -3066) translate(1086 3067) translate(24.955 39.458)"/>
                    <path stroke="#D1A448" stroke-linecap="round" stroke-linejoin="round" stroke-width="1.875" d="M69.44 98.362c0-4.57 3.74-8.276 8.354-8.276 4.615 0 8.355 3.705 8.355 8.276 0 4.572-3.74 8.277-8.355 8.277-4.613 0-8.354-3.705-8.354-8.277z" transform="translate(-1084 -3066) translate(1086 3067) translate(24.955 39.458)"/>
                    <path stroke="#FFF" stroke-linecap="round" stroke-linejoin="round" stroke-width="1.875" d="M30.079 67.755c3.457-1.633 6.164-3.64 7.869-5.523 1.705-1.883 3.67-1.869 5.199-2.537 1.528-.668 3.155-.17 6.763-2.225 3.609-2.055 3.81-2.824 3.81-2.824s.666-2.12-2.088-2.868c0 0-2.93-.152-6.21.886 0 0-2.054-.027-3.683.716-1.628.742-5.333-.23-5.333-.23M29.227 68.077s-3.032 1.783-4.484 1.93c-1.453.147-5.01 1.855-8.594 4.357-3.584 2.501-7.62 6.268-7.62 6.268" transform="translate(-1084 -3066) translate(1086 3067) translate(24.955 39.458)"/>
                    <path stroke="#FFF" stroke-linecap="round" stroke-linejoin="round" stroke-width="1.875" d="M38.045 53.483l-.66-2.143c-.925-1.638-1.973-4.89-1.973-4.89M42.872 48.047s2.954 1.219 3.304 1.889c.35.67-.755 2.728-.755 2.728" transform="translate(-1084 -3066) translate(1086 3067) translate(24.955 39.458)"/>
                    <path stroke="#FFF" stroke-linecap="round" stroke-linejoin="round" stroke-width="1.875" d="M37.617 44.816s.826.472.8 1.886c0 0 2.902 2.187 5.809.652 0 0 .948 2.085 4.053 2.882 0 0 .243.53 1.221 1.618" transform="translate(-1084 -3066) translate(1086 3067) translate(24.955 39.458)"/>
                    <path stroke="#FFF" stroke-linecap="round" stroke-linejoin="round" stroke-width="1.875" d="M49.36 45.871s-2.577-1.963-4.128-2.982c-1.551-1.019-4.832-.6-7.762-.753-2.93-.152-5.233.317-6.785-.082-1.553-.398-2.282 2.776-3.36 4.04-1.079 1.264-5.67 9.47-8.302 11.576-2.632 2.106-4.062 3.94-9.249 7.01C4.587 67.752.278 69.708.278 69.708M39.392 47.993s.274 1.191-.88 3.597M38.797 53.314s.414-.384.74-.78l1.027-.297c2.505-1.238 3.357-1.56 3.357-1.56M38.41 52.284c-.4-.199.952.307 1.127.25M46.176 49.936s-.35-.05-.752.247M46.236 50.437s-.738.466-1.163.317M46.34 58.644s-1.073-2.457-.67-3.995M44.864 58.345s-1.425-2.508-.972-3.772M47.644 57.678s-.074-1.34-.374-1.737M49.924 56.763s.728-1.934-.071-3.2c0 0-.376-.497 1.127-.992 1.503-.494 3.281-.418 3.506-.12.225.298 1.076.597.098 1.787-.978 1.19-4.66 2.525-4.66 2.525zM48.279 50.236s.176-1.215.954-2.256M44.225 47.354l.38-2.605M36.245 62.875s-2.554-.276-3.355-.922M51.687 47.71s1.1 1.663 1.275 2.308c.174.646.953 1.884.953 1.884" transform="translate(-1084 -3066) translate(1086 3067) translate(24.955 39.458)"/>
                    <path stroke="#44E7D9" stroke-linecap="round" stroke-linejoin="round" stroke-width="1.875" d="M51.289 45.526s.225.298-.902.669c-1.127.37-1.353.073-1.353.073s.427-.47 1.454-.768c0 0 .55-.098.801.026z" transform="translate(-1084 -3066) translate(1086 3067) translate(24.955 39.458)"/>
                    <path stroke="#FFF" stroke-linecap="round" stroke-linejoin="round" stroke-width="1.875" d="M45.245 42.803s.074.719-.227.942M44.762 42.643s-.08.345-.031.618M35.49 44.69s-.853.321-.903.668c-.05.348.3 1.018.3 1.018M36.396 61.833s-.626 0-1.127-.25M24.342 69.684s.803-1.215-.396-3.424M29.528 67.854s-1.553.222-3.305-.649" transform="translate(-1084 -3066) translate(1086 3067) translate(24.955 39.458)"/>
                    <path stroke="#44E7D9" stroke-linecap="round" stroke-linejoin="round" stroke-width="1.875" d="M51.289 45.526s.25.124.2.472c-.05.347-1.68 1.09-2.255.741 0 0-.325-.223-.2-.471M51.063 46.468L53.14 52.215M54.133 54.882L56.878 63.072 56.826 64.66 55.851 63.369 53.156 55.452M51.632 51.778L50.01 46.939" transform="translate(-1084 -3066) translate(1086 3067) translate(24.955 39.458)"/>
                    <path stroke="#D1A448" stroke-linecap="round" stroke-linejoin="round" stroke-width="1.875" d="M110.213 76.315L97.84 54.027M125.566 88.379l7.157 12.62s-1.566 3.245-6.692 3.81l-5.43-9.654M104.247 50.783L116.76 72.85" transform="translate(-1084 -3066) translate(1086 3067) translate(24.955 39.458)"/>
                    <path stroke="#44E7D9" stroke-linecap="round" stroke-linejoin="round" stroke-width="1.875" d="M85.596 48.95l5.125 8.745 21.072-11.285s-2.278-6.77-5.126-8.745L85.596 48.949z" transform="translate(-1084 -3066) translate(1086 3067) translate(24.955 39.458)"/>
                    <path stroke="#44E7D9" stroke-linecap="round" stroke-linejoin="round" stroke-width="1.875" d="M85.596 48.949L85.596 50.36 90.152 58.541 90.721 57.695 90.152 58.541 97.84 54.591" transform="translate(-1084 -3066) translate(1086 3067) translate(24.955 39.458)"/>
                    <path stroke="#D1A448" stroke-linecap="round" stroke-linejoin="round" stroke-width="1.875" d="M104.66 50.947L111.793 46.974 111.793 46.41" transform="translate(-1084 -3066) translate(1086 3067) translate(24.955 39.458)"/>
                    <path stroke="#44E7D9" stroke-linecap="round" stroke-linejoin="round" stroke-width="1.875" d="M90.337 46.41L88.202 53.396M92.141 45.444L89.269 55.217" transform="translate(-1084 -3066) translate(1086 3067) translate(24.955 39.458)"/>
                    <path stroke="#D1A448" stroke-linecap="round" stroke-linejoin="round" stroke-width="1.875" d="M103.139 51.705L115.036 72.149" transform="translate(-1084 -3066) translate(1086 3067) translate(24.955 39.458)"/>
                    <path stroke="#FFF" stroke-linecap="round" stroke-linejoin="round" stroke-width="1.875" d="M124.322 73.211s-1.138-.564-2.278-.282c0 0-3.986.565-7.688.846-3.702.283-3.132 3.668-4.556 4.796-1.424 1.13-3.702 3.95-2.848 4.232.855.283 4.841 1.693 8.543-3.103 0 0 .285-.846 0-1.693M116.35 79.418s3.416 0 4.555-.564" transform="translate(-1084 -3066) translate(1086 3067) translate(24.955 39.458)"/>
                    <path stroke="#FFF" stroke-linecap="round" stroke-linejoin="round" stroke-width="1.875" d="M110.085 75.75s-5.126 3.668-5.126 5.079c0 1.41.854 3.103 1.424 3.385.57.282 7.688.564 8.827 0 1.14-.564 3.132-1.41 4.272-1.975 0 0 .854-.987.57-1.693-.57-1.41-2.461-1.128-2.461-1.128" transform="translate(-1084 -3066) translate(1086 3067) translate(24.955 39.458)"/>
                    <path stroke="#FFF" stroke-linecap="round" stroke-linejoin="round" stroke-width="1.875" d="M120.62 81.675s2.848 0 2.848 1.216-2.278 2.189-2.563 2.919c-.284.73-1.993 1.945-4.84 2.431-2.848.487-6.55.973-7.404-.486 0 0-.855-1.384 0-3.61" transform="translate(-1084 -3066) translate(1086 3067) translate(24.955 39.458)"/>
                    <path stroke="#FFF" stroke-linecap="round" stroke-linejoin="round" stroke-width="1.875" d="M110.654 89.292s-.57 3.386 2.563 3.668c3.132.282 6.264-1.41 8.543-2.54 2.278-1.128 3.986-3.949 3.416-4.796-.57-.846-.63-1.41-3.447-.423" transform="translate(-1084 -3066) translate(1086 3067) translate(24.955 39.458)"/>
                    <path stroke="#FFF" stroke-linecap="round" stroke-linejoin="round" stroke-width="1.875" d="M113.102 93.27s.265 2.31 1.676 2.497c1.411.185 5.23-.45 7.64-1.272 2.408-.821 3.347-3.544 1.69-4.046l-2.05.299M131.157 95.729s5.41-1.129 6.549-2.54c0 0 2.563-.563 7.403-.563M126.01 89.161s4.577 1.542 9.133.131M133.435 90.985s-1.446-1.067-2.859-1.098M125.177 73.494s5.98 3.385 8.257 4.795c2.279 1.411 11.675-.282 11.675-.282M134.574 81.675s1.138 3.103.854 5.36M112.534 74.315s.683.307 1.252 1.153M111.85 74.891s.228.013.798.577M109.8 78.854s1.424 1.692 0 2.82l-3.132 2.258s-.96.54-.622-.718c.337-1.257 2.615-4.078 3.754-4.36zM116.35 81.675s-.285-1.129 1.708-1.693c1.993-.564 2.847-.564 3.417 0 .57.564-.57 1.975-3.417 2.257 0 0-1.14.282-1.709-.564zM120.051 83.368s1.708-2.258 3.133-2.54c1.423-.281 1.423 1.411.284 2.54-1.139 1.128-2.847 2.82-3.132 1.41 0 0-.285-.564-.285-1.128M121.475 88.164s-.57-1.129 1.424-2.822c1.993-1.692 3.132-1.692 3.416-1.128.285.564-1.423 3.667-3.416 4.514 0 0-.855.282-1.424-.564z" transform="translate(-1084 -3066) translate(1086 3067) translate(24.955 39.458)"/>
                    <path stroke="#FFF" stroke-linecap="round" stroke-linejoin="round" stroke-width="1.875" d="M124.345 90.195c-2.078.58-2.832 2.473-2.832 2.473s-.15 1.12.87.969c1.02-.15 2.966-1.602 3.287-2.13.32-.526.433-1.365-.059-1.43-.491-.065-1.266.118-1.266.118zM116.776 85.484s-.284 1.658 1.14 2.133M115.637 85.484s-.285 1.895.855 2.37M114.64 86.787s-.284.948.855 1.659M114.356 81.957s-.285 1.692.285 1.975M112.932 83.086s-.08 1.215.53 1.454M116.634 89.292s.57 1.41 1.424 1.975M117.773 89.574s.285.846 1.424 1.411M118.296 93.099s.377 1.472.621 1.79M111.508 90.985s.26 1.215.7 1.736M120.905 95.922s-1.517-.005-2.61-.426" transform="translate(-1084 -3066) translate(1086 3067) translate(24.955 39.458)"/>
                    <path fill="#FFF" d="M72.292 50.472c-.12.209-.386.283-.597.165-.21-.118-.285-.382-.166-.59.12-.21.386-.283.597-.166.21.118.285.383.166.591M92.03 21.018c.272.152.367.492.214.76s-.496.363-.767.212c-.27-.152-.366-.492-.213-.76s.496-.363.767-.212M58.104 11.325c-.152.268-.496.363-.766.211-.271-.151-.367-.491-.214-.76.153-.267.496-.362.767-.21.27.15.366.49.213.759M52.673 28.071c-.204.358-.662.484-1.023.282-.36-.202-.488-.655-.284-1.013.204-.357.662-.484 1.022-.282.362.202.489.656.285 1.013M73.296 10.14c-.153.269-.497.363-.767.212s-.366-.492-.213-.76c.152-.268.496-.363.766-.211.27.151.367.491.214.76M83.903 18.074c-.084.149-.275.202-.425.117-.15-.083-.204-.273-.12-.422.086-.149.277-.201.427-.117.15.084.203.273.118.422M62.253 40.667c-.085.149-.276.202-.426.117-.15-.084-.204-.273-.12-.422.086-.149.277-.202.427-.117.15.084.203.273.119.422M84.18 30.805c-.118.209-.386.282-.596.165-.21-.118-.285-.382-.166-.591.119-.209.386-.283.597-.165.21.118.285.383.166.591M77.35 39.865c.271.15.367.491.214.76-.153.268-.496.362-.767.21-.27-.15-.366-.49-.213-.759.153-.268.496-.363.767-.211M49.295 20.341c-.12.209-.386.283-.597.165-.21-.118-.284-.382-.166-.59.12-.21.386-.283.597-.166.21.118.285.383.166.591M67.348 3.584c.27.151.366.492.213.76-.152.268-.496.362-.766.21-.271-.15-.367-.49-.214-.759.153-.268.496-.363.767-.211M69.505 22.623c-.153.269-.496.363-.767.212-.27-.151-.366-.492-.213-.76s.496-.363.767-.211c.27.151.366.491.213.76M91.052 9.634c-.204.358-.661.484-1.022.282s-.489-.655-.285-1.013c.204-.358.662-.484 1.023-.282.36.202.488.656.284 1.013M91.778 37.142c-.152.268-.496.363-.767.211-.27-.151-.366-.491-.213-.76.153-.267.496-.362.767-.21.27.15.366.49.213.759M59.22.64c-.084.148-.275.201-.425.117-.15-.084-.204-.274-.119-.423.085-.148.276-.201.426-.117.15.084.204.273.119.422M38.244 33.255c-.085.15-.275.202-.426.118-.15-.084-.203-.274-.118-.422.085-.15.275-.202.425-.118.15.084.204.273.12.422M103.338 33.083c-.12.208-.386.282-.597.164-.21-.117-.285-.382-.166-.59.12-.21.386-.283.597-.165.21.118.285.382.166.59M47.946 8.063c.271.152.367.492.214.76s-.496.363-.767.211c-.27-.151-.366-.49-.213-.76.152-.267.496-.362.766-.21" transform="translate(-1084 -3066) translate(1086 3067) translate(24.955 39.458)"/>
                </g>
            </g>
        </g>
    </g>
</svg>
