<svg xmlns="http://www.w3.org/2000/svg" xmlns:xlink="http://www.w3.org/1999/xlink" width="191" height="269" viewBox="0 0 191 269"><title>Тройка Пентаклей</title>
    <defs>
        <path id="zt2phofbda" d="M0.102 77.168L86.975 77.168 43.71 0.329"/>
        <path id="mhxhrasblc" d="M0.102 77.168L86.975 77.168 43.71 0.329"/>
        <path id="g1yxuwt9qe" d="M0.102 77.168L86.975 77.168 43.71 0.329"/>
        <path id="lf0uxy7sxg" d="M0.102 77.168L86.975 77.168 43.71 0.329"/>
        <path id="2ddnqcppli" d="M0.102 77.168L86.975 77.168 43.71 0.329"/>
        <path id="iz6qhrrjzk" d="M0.102 77.168L86.975 77.168 43.71 0.329"/>
        <path id="no20brhtrm" d="M0.102 77.168L86.975 77.168 43.71 0.329"/>
        <path id="7zbi2u85ko" d="M0.102 77.168L86.975 77.168 43.71 0.329"/>
        <path id="yclvwqt42q" d="M0.102 77.168L86.975 77.168 43.71 0.329"/>
        <path id="2f8gi09jcs" d="M0.102 77.168L86.975 77.168 43.71 0.329"/>
        <path id="0hqlbvnazu" d="M0.102 77.168L86.975 77.168 43.71 0.329"/>
        <path id="z6k35pf3cw" d="M0.102 77.168L86.975 77.168 43.71 0.329"/>
        <path id="rdsw820s6y" d="M0.102 77.168L86.975 77.168 43.71 0.329"/>
        <path id="tmawohsfjA" d="M0.102 77.168L86.975 77.168 43.71 0.329"/>
        <path id="etddqr0hnC" d="M0.102 77.168L86.975 77.168 43.71 0.329"/>
        <path id="6k1ux9ahiE" d="M0.102 77.168L86.975 77.168 43.71 0.329"/>
        <path id="k6jsnbeakG" d="M0.102 77.168L86.975 77.168 43.71 0.329"/>
        <path id="a8wm4vkkcI" d="M0.102 77.168L86.975 77.168 43.71 0.329"/>
        <path id="4zd9imqjgK" d="M0.102 77.168L86.975 77.168 43.71 0.329"/>
        <path id="92frwphamM" d="M0.102 77.168L86.975 77.168 43.71 0.329"/>
        <path id="4on64hom8O" d="M0.102 77.168L86.975 77.168 43.71 0.329"/>
        <path id="hvjrrokwzQ" d="M0.102 77.168L86.975 77.168 43.71 0.329"/>
        <path id="gf0vezjcaS" d="M0.102 77.168L86.975 77.168 43.71 0.329"/>
        <path id="pgkrrnuxwU" d="M0.102 77.168L86.975 77.168 43.71 0.329"/>
        <path id="q5fg6y6ekW" d="M0.102 77.168L86.975 77.168 43.71 0.329"/>
        <path id="x2if6dfkqY" d="M0.102 77.168L86.975 77.168 43.71 0.329"/>
        <path id="yd45inx7qaa" d="M0.102 77.168L86.975 77.168 43.71 0.329"/>
    </defs>
    <g fill="none" fill-rule="evenodd">
        <g>
            <g>
                <path fill="#182018" stroke="#FFF" stroke-linecap="round" stroke-linejoin="round" stroke-width="2.5" d="M177.475 265.764H9.604c-5.21 0-9.435-4.224-9.435-9.436V10C.169 4.789 4.393.565 9.604.565h167.871c5.211 0 9.436 4.224 9.436 9.435v246.328c0 5.212-4.225 9.436-9.436 9.436z" transform="translate(-780 -2705) translate(782 2706)"/>
                <path fill="#44E7D9" fill-rule="nonzero" d="M53.493 253.883v-10.067h2.14v-.729h-5.09v.73h2.14v10.066h.81zm4.328 0v-4.928h3.793v4.928h.827v-10.796h-.827v5.139h-3.793v-5.139h-.81v10.796h.81zm7.862 0v-4.458l1.731-.002c.096-.002.173-.007.23-.014l1.605 4.474h.892l-1.702-4.652c.93-.346 1.394-1.092 1.394-2.237v-1.475c0-.735-.216-1.324-.648-1.767-.433-.443-1.076-.665-1.93-.665h-2.382v10.796h.81zm1.573-5.22h-1.573v-4.847h1.573c1.177 0 1.766.568 1.766 1.703v1.475c0 1.113-.589 1.67-1.766 1.67zm9.385 5.22v-.73h-3.663v-4.344h3.193v-.73h-3.193v-4.263h3.663v-.729h-4.474v10.796h4.474zm6.338 0v-.73h-3.663v-4.344h3.193v-.73h-3.193v-4.263h3.663v-.729h-4.474v10.796h4.474zm7.36.162c.854 0 1.497-.23 1.929-.689.432-.46.648-1.056.648-1.791v-6.16c0-.735-.216-1.332-.648-1.791-.432-.46-1.075-.69-1.93-.69-.853 0-1.496.23-1.928.69-.432.46-.648 1.056-.648 1.791v6.16c0 .735.216 1.332.648 1.791.432.46 1.075.69 1.929.69zm0-.73c-1.178 0-1.767-.583-1.767-1.75v-6.16c0-1.167.589-1.75 1.767-1.75s1.767.583 1.767 1.75v6.16c0 1.167-.59 1.75-1.767 1.75zm5.657.568v-4.912h3.372v-.73h-3.372v-4.425h3.518v-.729h-4.328v10.796h.81zm12.612 0v-.73h-3.664v-4.344h3.194v-.73h-3.194v-4.263h3.664v-.729h-4.474v10.796h4.474zm1.815 0l.73-3.16h3.08l.73 3.16h.842l-2.529-10.796h-1.167l-2.528 10.796h.842zm3.648-3.89h-2.756l1.378-5.982 1.378 5.982zm4.085 3.89v-4.458l1.73-.002c.097-.002.174-.007.231-.014l1.605 4.474h.892l-1.703-4.652c.93-.346 1.395-1.092 1.395-2.237v-1.475c0-.735-.217-1.324-.649-1.767-.432-.443-1.075-.665-1.929-.665h-2.383v10.796h.81zm1.572-5.22h-1.572v-4.847h1.572c1.178 0 1.767.568 1.767 1.703v1.475c0 1.113-.589 1.67-1.767 1.67zm6.808 5.22v-10.067h2.14v-.729h-5.09v.73h2.14v10.066h.81zm4.329 0v-4.928h3.793v4.928h.826v-10.796h-.826v5.139h-3.793v-5.139h-.81v10.796h.81z" transform="translate(-780 -2705) translate(782 2706)"/>
                <g>
                    <path stroke="#FFF" stroke-linecap="round" stroke-linejoin="round" stroke-width="1.875" d="M153.937 239.564L132.1 239.564M5.776 14.799L5.776 239.564 37.17 239.564" transform="translate(-780 -2705) translate(782 2706) translate(8.43 11.356)"/>
                    <path stroke="#D1A448" stroke-linecap="round" stroke-linejoin="round" stroke-width="1.875" d="M5.503 9.093L2.886 4.559 0.268 0.025 5.503 0.025 10.739 0.025 8.121 4.559z" transform="translate(-780 -2705) translate(782 2706) translate(8.43 11.356)"/>
                    <g>
                        <path fill="#000" d="M10.73 0.495L0.276 0.495" transform="translate(-780 -2705) translate(782 2706) translate(8.43 11.356) translate(0 4.721)"/>
                        <path stroke="#D1A448" stroke-linecap="round" stroke-linejoin="round" stroke-width="1.875" d="M10.73 0.495L0.276 0.495" transform="translate(-780 -2705) translate(782 2706) translate(8.43 11.356) translate(0 4.721)"/>
                    </g>
                    <path stroke="#D1A448" stroke-linecap="round" stroke-linejoin="round" stroke-width="1.875" d="M164.152 234.015L166.77 238.549 169.387 243.083 164.152 243.083 158.917 243.083 161.534 238.549z" transform="translate(-780 -2705) translate(782 2706) translate(8.43 11.356)"/>
                    <g>
                        <path fill="#000" d="M0.09 0.482L10.544 0.482" transform="translate(-780 -2705) translate(782 2706) translate(8.43 11.356) translate(158.835 237.41)"/>
                        <path stroke="#D1A448" stroke-linecap="round" stroke-linejoin="round" stroke-width="1.875" d="M0.09 0.482L10.544 0.482" transform="translate(-780 -2705) translate(782 2706) translate(8.43 11.356) translate(158.835 237.41)"/>
                    </g>
                    <path stroke="#FFF" stroke-linecap="round" stroke-linejoin="round" stroke-width="1.875" d="M100.917 3.457L165.082 3.457 165.082 226.211M17.245 3.457L69.388 3.457" transform="translate(-780 -2705) translate(782 2706) translate(8.43 11.356)"/>
                </g>
                <path fill="#44E7D9" fill-rule="nonzero" d="M90.718 20.219V8.989h-.843v11.23h.843zm3.372 0V8.989h-.843v11.23h.843zm3.372 0V8.989h-.843v11.23h.843z" transform="translate(-780 -2705) translate(782 2706)"/>
                <g stroke-linecap="round" stroke-linejoin="round" stroke-width="1.875">
                    <path stroke="#D1A448" d="M34.823 37.737c0 6.676 5.412 12.087 12.087 12.087 6.676 0 12.087-5.411 12.087-12.087 0-6.675-5.411-12.087-12.087-12.087-6.675 0-12.087 5.412-12.087 12.087z" transform="translate(-780 -2705) translate(782 2706) translate(46.538 97.687)"/>
                    <path stroke="#D1A448" d="M39.564 46.692L46.992 26.189 54.396 46.692 35.937 34.297 57.946 34.297z" transform="translate(-780 -2705) translate(782 2706) translate(46.538 97.687)"/>
                    <path stroke="#D1A448" d="M60.436 37.722c0-7.47-6.056-13.526-13.526-13.526s-13.526 6.056-13.526 13.526S39.44 51.248 46.91 51.248s13.526-6.056 13.526-13.526zM49.937 64.111c0 6.676 5.411 12.087 12.086 12.087 6.676 0 12.087-5.411 12.087-12.087 0-6.675-5.411-12.087-12.087-12.087-6.675 0-12.086 5.412-12.086 12.087z" transform="translate(-780 -2705) translate(782 2706) translate(46.538 97.687)"/>
                    <path stroke="#D1A448" d="M54.677 73.066L62.105 52.563 69.509 73.066 51.05 60.671 73.059 60.671z" transform="translate(-780 -2705) translate(782 2706) translate(46.538 97.687)"/>
                    <path stroke="#D1A448" d="M75.55 64.096c0-7.47-6.056-13.526-13.527-13.526-7.47 0-13.525 6.056-13.525 13.526s6.055 13.526 13.525 13.526c7.47 0 13.526-6.056 13.526-13.526zM19.468 64.111c0 6.676 5.411 12.087 12.087 12.087 6.675 0 12.086-5.411 12.086-12.087 0-6.675-5.411-12.087-12.086-12.087-6.676 0-12.087 5.412-12.087 12.087z" transform="translate(-780 -2705) translate(782 2706) translate(46.538 97.687)"/>
                    <path stroke="#D1A448" d="M24.208 73.066L31.637 52.563 39.04 73.066 20.581 60.671 42.59 60.671z" transform="translate(-780 -2705) translate(782 2706) translate(46.538 97.687)"/>
                    <path stroke="#D1A448" d="M45.08 64.096c0-7.47-6.055-13.526-13.525-13.526-7.47 0-13.526 6.056-13.526 13.526s6.056 13.526 13.526 13.526S45.08 71.566 45.08 64.096z" transform="translate(-780 -2705) translate(782 2706) translate(46.538 97.687)"/>
                    <path stroke="#FFF" d="M0.068 82.871L93.753 82.871 47.095 0.008z" transform="translate(-780 -2705) translate(782 2706) translate(46.538 97.687)"/>
                </g>
                <g>
                    <g transform="translate(-780 -2705) translate(782 2706) translate(49.91 101.396)">
                        <mask id="6fckblznmb" fill="#fff">
                            <use xlink:href="#zt2phofbda"/>
                        </mask>
                        <path stroke="#D1A448" stroke-linecap="round" stroke-linejoin="round" stroke-width="1.25" d="M55.701 15.656c-.673-.656-1.409-1.265-2.207-1.82-6.664-4.62-15.464-3.848-21.22 1.383" mask="url(#6fckblznmb)"/>
                    </g>
                    <g transform="translate(-780 -2705) translate(782 2706) translate(49.91 101.396)">
                        <mask id="xv8i1l6kkd" fill="#fff">
                            <use xlink:href="#mhxhrasblc"/>
                        </mask>
                        <path stroke="#D1A448" stroke-linecap="round" stroke-linejoin="round" stroke-width="1.25" d="M55.701 10.815c-.673-.656-1.409-1.265-2.207-1.819-6.664-4.622-15.464-3.849-21.22 1.382" mask="url(#xv8i1l6kkd)"/>
                    </g>
                    <g transform="translate(-780 -2705) translate(782 2706) translate(49.91 101.396)">
                        <mask id="h3964qrf0f" fill="#fff">
                            <use xlink:href="#g1yxuwt9qe"/>
                        </mask>
                        <path stroke="#D1A448" stroke-linecap="round" stroke-linejoin="round" stroke-width="1.25" d="M55.701 18.219c-.673-.656-1.409-1.266-2.207-1.82-6.664-4.621-15.464-3.848-21.22 1.383" mask="url(#h3964qrf0f)"/>
                    </g>
                    <g transform="translate(-780 -2705) translate(782 2706) translate(49.91 101.396)">
                        <mask id="6p0to5wdxh" fill="#fff">
                            <use xlink:href="#lf0uxy7sxg"/>
                        </mask>
                        <path stroke="#D1A448" stroke-linecap="round" stroke-linejoin="round" stroke-width="1.25" d="M55.701 13.152c-.673-.656-1.409-1.266-2.207-1.819-6.664-4.622-15.464-3.85-21.22 1.382" mask="url(#6p0to5wdxh)"/>
                    </g>
                    <g transform="translate(-780 -2705) translate(782 2706) translate(49.91 101.396)">
                        <mask id="upzo1c6xzj" fill="#fff">
                            <use xlink:href="#2ddnqcppli"/>
                        </mask>
                        <path stroke="#D1A448" stroke-linecap="round" stroke-linejoin="round" stroke-width="1.25" d="M55.701 8.311c-.673-.656-1.409-1.265-2.207-1.819C46.83 1.87 38.03 2.643 32.274 7.874" mask="url(#upzo1c6xzj)"/>
                    </g>
                    <g transform="translate(-780 -2705) translate(782 2706) translate(49.91 101.396)">
                        <mask id="fgfd6lulgl" fill="#fff">
                            <use xlink:href="#iz6qhrrjzk"/>
                        </mask>
                        <path stroke="#D1A448" stroke-linecap="round" stroke-linejoin="round" stroke-width="1.25" d="M9.06 59.176c-.155.927-.236 1.88-.236 2.85 0 8.11 5.65 14.9 13.23 16.649" mask="url(#fgfd6lulgl)"/>
                    </g>
                    <g transform="translate(-780 -2705) translate(782 2706) translate(49.91 101.396)">
                        <mask id="wwyi4hk7cn" fill="#fff">
                            <use xlink:href="#no20brhtrm"/>
                        </mask>
                        <path stroke="#D1A448" stroke-linecap="round" stroke-linejoin="round" stroke-width="1.25" d="M7.068 61.17c-.156.926-.237 1.879-.237 2.85 0 8.11 5.65 14.9 13.229 16.648" mask="url(#wwyi4hk7cn)"/>
                    </g>
                    <g transform="translate(-780 -2705) translate(782 2706) translate(49.91 101.396)">
                        <mask id="boaa8tgchp" fill="#fff">
                            <use xlink:href="#7zbi2u85ko"/>
                        </mask>
                        <path stroke="#D1A448" stroke-linecap="round" stroke-linejoin="round" stroke-width="1.25" d="M4.79 62.878c-.156.927-.237 1.88-.237 2.85 0 8.11 5.65 14.9 13.229 16.648" mask="url(#boaa8tgchp)"/>
                    </g>
                    <g transform="translate(-780 -2705) translate(782 2706) translate(49.91 101.396)">
                        <mask id="1ob1vy0v3r" fill="#fff">
                            <use xlink:href="#yclvwqt42q"/>
                        </mask>
                        <path stroke="#D1A448" stroke-linecap="round" stroke-linejoin="round" stroke-width="1.25" d="M2.511 64.587c-.155.926-.236 1.879-.236 2.85 0 8.11 5.65 14.9 13.229 16.648" mask="url(#1ob1vy0v3r)"/>
                    </g>
                    <g transform="translate(-780 -2705) translate(782 2706) translate(49.91 101.396)">
                        <mask id="2rjhwrlo8t" fill="#fff">
                            <use xlink:href="#2f8gi09jcs"/>
                        </mask>
                        <path stroke="#D1A448" stroke-linecap="round" stroke-linejoin="round" stroke-width="1.25" d="M.291 66.182c-.155.927-.236 1.879-.236 2.85 0 8.11 5.65 14.9 13.229 16.648" mask="url(#2rjhwrlo8t)"/>
                    </g>
                    <g transform="translate(-780 -2705) translate(782 2706) translate(49.91 101.396)">
                        <mask id="02uls1tywv" fill="#fff">
                            <use xlink:href="#0hqlbvnazu"/>
                        </mask>
                        <path stroke="#D1A448" stroke-linecap="round" stroke-linejoin="round" stroke-width="1.25" d="M63.567 78.977c.936-.087 1.877-.252 2.816-.501 7.838-2.08 12.953-9.283 12.7-17.056" mask="url(#02uls1tywv)"/>
                    </g>
                    <g transform="translate(-780 -2705) translate(782 2706) translate(49.91 101.396)">
                        <mask id="0pnpperk2x" fill="#fff">
                            <use xlink:href="#z6k35pf3cw"/>
                        </mask>
                        <path stroke="#D1A448" stroke-linecap="round" stroke-linejoin="round" stroke-width="1.25" d="M66.005 80.393c.936-.087 1.877-.253 2.815-.502 7.839-2.08 12.953-9.282 12.7-17.055" mask="url(#0pnpperk2x)"/>
                    </g>
                    <g transform="translate(-780 -2705) translate(782 2706) translate(49.91 101.396)">
                        <mask id="8junlawc2z" fill="#fff">
                            <use xlink:href="#rdsw820s6y"/>
                        </mask>
                        <path stroke="#D1A448" stroke-linecap="round" stroke-linejoin="round" stroke-width="1.25" d="M68.24 82.157c.936-.087 1.877-.253 2.816-.502 7.839-2.08 12.953-9.282 12.7-17.055" mask="url(#8junlawc2z)"/>
                    </g>
                    <g transform="translate(-780 -2705) translate(782 2706) translate(49.91 101.396)">
                        <mask id="ru5g3ut0tB" fill="#fff">
                            <use xlink:href="#tmawohsfjA"/>
                        </mask>
                        <path stroke="#D1A448" stroke-linecap="round" stroke-linejoin="round" stroke-width="1.25" d="M70.476 83.92c.936-.087 1.877-.252 2.816-.501 7.838-2.08 12.953-9.282 12.7-17.056" mask="url(#ru5g3ut0tB)"/>
                    </g>
                    <g transform="translate(-780 -2705) translate(782 2706) translate(49.91 101.396)">
                        <mask id="e5tc89bciD" fill="#fff">
                            <use xlink:href="#etddqr0hnC"/>
                        </mask>
                        <path stroke="#D1A448" stroke-linecap="round" stroke-linejoin="round" stroke-width="1.25" d="M72.587 85.657c.936-.087 1.877-.253 2.816-.502 7.838-2.079 12.953-9.282 12.7-17.055" mask="url(#e5tc89bciD)"/>
                    </g>
                    <g transform="translate(-780 -2705) translate(782 2706) translate(49.91 101.396)">
                        <mask id="ikv4nqpz7F" fill="#fff">
                            <use xlink:href="#6k1ux9ahiE"/>
                        </mask>
                        <path stroke="#D1A448" stroke-linecap="round" stroke-linejoin="round" stroke-width="1.25" d="M26.474 41.664c-.575-.058-1.157-.088-1.747-.088-4.233 0-8.107 1.54-11.092 4.09" mask="url(#ikv4nqpz7F)"/>
                    </g>
                    <g transform="translate(-780 -2705) translate(782 2706) translate(49.91 101.396)">
                        <mask id="qss3dz9yhH" fill="#fff">
                            <use xlink:href="#k6jsnbeakG"/>
                        </mask>
                        <path stroke="#D1A448" stroke-linecap="round" stroke-linejoin="round" stroke-width="1.25" d="M26.461 41.682c-.344-.463-.668-.949-.97-1.455-2.168-3.636-2.83-7.752-2.168-11.62" mask="url(#qss3dz9yhH)"/>
                    </g>
                    <g transform="translate(-780 -2705) translate(782 2706) translate(49.91 101.396)">
                        <mask id="t10i64zlfJ" fill="#fff">
                            <use xlink:href="#a8wm4vkkcI"/>
                        </mask>
                        <path stroke="#D1A448" stroke-linecap="round" stroke-linejoin="round" stroke-width="1.25" d="M23.341 39.956c-.574-.059-1.157-.089-1.746-.089-4.234 0-8.108 1.54-11.092 4.09" mask="url(#t10i64zlfJ)"/>
                    </g>
                    <g transform="translate(-780 -2705) translate(782 2706) translate(49.91 101.396)">
                        <mask id="uo8v5fwzsL" fill="#fff">
                            <use xlink:href="#4zd9imqjgK"/>
                        </mask>
                        <path stroke="#D1A448" stroke-linecap="round" stroke-linejoin="round" stroke-width="1.25" d="M23.329 39.973c-.344-.463-.669-.948-.97-1.454-2.169-3.637-2.83-7.752-2.169-11.621" mask="url(#uo8v5fwzsL)"/>
                    </g>
                    <g transform="translate(-780 -2705) translate(782 2706) translate(49.91 101.396)">
                        <mask id="fsnjef0jhN" fill="#fff">
                            <use xlink:href="#92frwphamM"/>
                        </mask>
                        <path stroke="#D1A448" stroke-linecap="round" stroke-linejoin="round" stroke-width="1.25" d="M60.708 41.953c.347-.46.675-.944.98-1.448 2.193-3.622 2.882-7.733 2.246-11.607" mask="url(#fsnjef0jhN)"/>
                    </g>
                    <g transform="translate(-780 -2705) translate(782 2706) translate(49.91 101.396)">
                        <mask id="07zujtkmlP" fill="#fff">
                            <use xlink:href="#4on64hom8O"/>
                        </mask>
                        <path stroke="#D1A448" stroke-linecap="round" stroke-linejoin="round" stroke-width="1.25" d="M60.7 41.933c.574-.054 1.157-.08 1.747-.076 4.233.028 8.096 1.594 11.064 4.163" mask="url(#07zujtkmlP)"/>
                    </g>
                    <g transform="translate(-780 -2705) translate(782 2706) translate(49.91 101.396)">
                        <mask id="geag92kuqR" fill="#fff">
                            <use xlink:href="#hvjrrokwzQ"/>
                        </mask>
                        <path stroke="#D1A448" stroke-linecap="round" stroke-linejoin="round" stroke-width="1.25" d="M63.792 40.158c.347-.46.674-.944.98-1.448 2.192-3.621 2.881-7.733 2.246-11.606" mask="url(#geag92kuqR)"/>
                    </g>
                    <g transform="translate(-780 -2705) translate(782 2706) translate(49.91 101.396)">
                        <mask id="5rnrrwkb0T" fill="#fff">
                            <use xlink:href="#gf0vezjcaS"/>
                        </mask>
                        <path stroke="#D1A448" stroke-linecap="round" stroke-linejoin="round" stroke-width="1.25" d="M63.783 40.139c.575-.055 1.158-.08 1.747-.077 4.233.028 8.097 1.594 11.064 4.164" mask="url(#5rnrrwkb0T)"/>
                    </g>
                    <g transform="translate(-780 -2705) translate(782 2706) translate(49.91 101.396)">
                        <mask id="etzl4ysldV" fill="#fff">
                            <use xlink:href="#pgkrrnuxwU"/>
                        </mask>
                        <path stroke="#D1A448" stroke-linecap="round" stroke-linejoin="round" stroke-width="1.25" d="M31.822 81.045c5.38-1.186 9.81-4.908 11.97-9.849" mask="url(#etzl4ysldV)"/>
                    </g>
                    <g transform="translate(-780 -2705) translate(782 2706) translate(49.91 101.396)">
                        <mask id="k230ypu31X" fill="#fff">
                            <use xlink:href="#q5fg6y6ekW"/>
                        </mask>
                        <path stroke="#D1A448" stroke-linecap="round" stroke-linejoin="round" stroke-width="1.25" d="M55.863 81.296c-5.38-1.186-9.81-4.908-11.969-9.85" mask="url(#k230ypu31X)"/>
                    </g>
                    <g transform="translate(-780 -2705) translate(782 2706) translate(49.91 101.396)">
                        <mask id="wwsgr5mcsZ" fill="#fff">
                            <use xlink:href="#x2if6dfkqY"/>
                        </mask>
                        <path stroke="#D1A448" stroke-linecap="round" stroke-linejoin="round" stroke-width="1.25" d="M31.822 85.032c5.38-1.186 9.81-4.908 11.97-9.85" mask="url(#wwsgr5mcsZ)"/>
                    </g>
                    <g transform="translate(-780 -2705) translate(782 2706) translate(49.91 101.396)">
                        <mask id="6l2ps01fxab" fill="#fff">
                            <use xlink:href="#yd45inx7qaa"/>
                        </mask>
                        <path stroke="#D1A448" stroke-linecap="round" stroke-linejoin="round" stroke-width="1.25" d="M55.863 85.282c-5.38-1.185-9.81-4.908-11.969-9.848" mask="url(#6l2ps01fxab)"/>
                    </g>
                </g>
                <g>
                    <path stroke="#D1A448" stroke-linecap="round" stroke-linejoin="round" stroke-width="1.25" d="M26.406 128.765L113.278 128.765 70.013 51.925zM58.1 128.65c5.38-1.187 9.81-4.909 11.97-9.85" transform="translate(-780 -2705) translate(782 2706) translate(23.606 49.8)"/>
                    <path stroke="#D1A448" stroke-linecap="round" stroke-linejoin="round" stroke-width="1.25" d="M37.558 109.114c-.156.927-.237 1.88-.237 2.85 0 8.11 5.65 14.9 13.23 16.648M56.153 94.967c-.574-.058-1.157-.088-1.747-.088-4.233 0-8.107 1.54-11.091 4.09M82.142 128.9c-5.381-1.186-9.81-4.908-11.97-9.849M102.684 109.365c.155.927.237 1.879.237 2.85 0 8.11-5.65 14.9-13.23 16.648M84.088 95.218c.575-.058 1.157-.088 1.747-.088 4.233 0 8.107 1.54 11.092 4.089" transform="translate(-780 -2705) translate(782 2706) translate(23.606 49.8)"/>
                    <path stroke="#D1A448" stroke-linecap="round" stroke-linejoin="round" stroke-width="1.25" d="M56.14 94.985c-.344-.463-.668-.949-.97-1.455-2.168-3.636-2.83-7.752-2.168-11.621M83.848 95.268c.344-.463.668-.949.97-1.455 2.168-3.636 2.83-7.752 2.168-11.621M81.81 72.704c-.673-.656-1.409-1.265-2.207-1.82-6.664-4.621-15.463-3.848-21.22 1.383M111.628 82.35L99.255 59.854M126.981 94.527l7.157 12.739s-1.566 3.274-6.692 3.844l-5.43-9.744M105.662 56.579L118.176 78.853" transform="translate(-780 -2705) translate(782 2706) translate(23.606 49.8)"/>
                    <path stroke="#44E7D9" stroke-linecap="round" stroke-linejoin="round" stroke-width="1.25" d="M87.011 54.728l5.126 8.828 21.071-11.39s-2.278-6.834-5.125-8.828L87.01 54.728z" transform="translate(-780 -2705) translate(782 2706) translate(23.606 49.8)"/>
                    <path stroke="#44E7D9" stroke-linecap="round" stroke-linejoin="round" stroke-width="1.25" d="M87.011 54.728L87.011 56.152 91.567 64.41 92.137 63.556 91.567 64.41 99.255 60.424" transform="translate(-780 -2705) translate(782 2706) translate(23.606 49.8)"/>
                    <path stroke="#D1A448" stroke-linecap="round" stroke-linejoin="round" stroke-width="1.25" d="M106.075 56.745L113.208 52.735 113.208 52.166" transform="translate(-780 -2705) translate(782 2706) translate(23.606 49.8)"/>
                    <path stroke="#44E7D9" stroke-linecap="round" stroke-linejoin="round" stroke-width="1.25" d="M91.752 52.166L89.617 59.217M93.557 51.19L90.685 61.055" transform="translate(-780 -2705) translate(782 2706) translate(23.606 49.8)"/>
                    <path stroke="#D1A448" stroke-linecap="round" stroke-linejoin="round" stroke-width="1.25" d="M104.555 57.509L116.452 78.145" transform="translate(-780 -2705) translate(782 2706) translate(23.606 49.8)"/>
                    <path stroke="#FFF" stroke-linecap="round" stroke-linejoin="round" stroke-width="1.25" d="M125.738 79.217s-1.14-.569-2.278-.284c0 0-3.987.57-7.689.854-3.702.284-3.132 3.702-4.556 4.84-1.424 1.14-3.702 3.987-2.847 4.272.854.285 4.84 1.709 8.542-3.132 0 0 .285-.854 0-1.709M117.765 85.482s3.417 0 4.556-.57" transform="translate(-780 -2705) translate(782 2706) translate(23.606 49.8)"/>
                    <path stroke="#FFF" stroke-linecap="round" stroke-linejoin="round" stroke-width="1.25" d="M111.5 81.78s-5.126 3.702-5.126 5.126c0 1.424.855 3.132 1.424 3.417.57.285 7.689.57 8.827 0 1.14-.57 3.133-1.424 4.272-1.993 0 0 .854-.997.57-1.709-.57-1.424-2.46-1.139-2.46-1.139" transform="translate(-780 -2705) translate(782 2706) translate(23.606 49.8)"/>
                    <path stroke="#FFF" stroke-linecap="round" stroke-linejoin="round" stroke-width="1.25" d="M122.036 87.76s2.847 0 2.847 1.227c0 1.228-2.278 2.21-2.562 2.946-.285.737-1.994 1.964-4.841 2.455-2.848.49-6.55.982-7.404-.491 0 0-.854-1.397 0-3.644" transform="translate(-780 -2705) translate(782 2706) translate(23.606 49.8)"/>
                    <path stroke="#FFF" stroke-linecap="round" stroke-linejoin="round" stroke-width="1.25" d="M112.07 95.448s-.57 3.418 2.562 3.703c3.133.284 6.265-1.425 8.543-2.563 2.278-1.14 3.987-3.987 3.417-4.842-.57-.854-.63-1.423-3.448-.427" transform="translate(-780 -2705) translate(782 2706) translate(23.606 49.8)"/>
                    <path stroke="#FFF" stroke-linecap="round" stroke-linejoin="round" stroke-width="1.25" d="M114.518 99.463s.264 2.333 1.676 2.52c1.41.188 5.23-.454 7.639-1.283 2.408-.83 3.347-3.577 1.691-4.084l-2.05.302M132.572 101.945s5.41-1.139 6.55-2.563c0 0 2.562-.569 7.403-.569M127.425 95.316s4.577 1.556 9.133.133M134.85 97.157s-1.445-1.077-2.858-1.108M126.592 79.502s5.98 3.417 8.258 4.84c2.278 1.425 11.675-.284 11.675-.284M135.989 87.76s1.139 3.132.854 5.41M113.95 80.331s.682.31 1.252 1.164M113.265 80.913s.228.013.798.583M111.215 84.913s1.424 1.708 0 2.847l-3.132 2.278s-.96.544-.622-.724c.337-1.27 2.615-4.117 3.754-4.401zM117.765 87.76s-.285-1.139 1.708-1.708c1.994-.57 2.848-.57 3.417 0 .57.57-.57 1.993-3.417 2.278 0 0-1.139.284-1.708-.57zM121.466 89.469s1.709-2.278 3.133-2.563c1.423-.285 1.423 1.424.284 2.563-1.139 1.139-2.847 2.847-3.132 1.423 0 0-.285-.57-.285-1.139M122.89 94.31s-.57-1.14 1.424-2.848c1.993-1.709 3.132-1.709 3.417-1.14.285.57-1.424 3.703-3.417 4.557 0 0-.854.285-1.424-.57z" transform="translate(-780 -2705) translate(782 2706) translate(23.606 49.8)"/>
                    <path stroke="#FFF" stroke-linecap="round" stroke-linejoin="round" stroke-width="1.25" d="M125.76 96.36c-2.078.585-2.832 2.496-2.832 2.496s-.15 1.13.87.978c1.021-.152 2.966-1.617 3.287-2.149.32-.532.433-1.379-.059-1.444-.49-.065-1.265.119-1.265.119zM118.192 91.604s-.285 1.675 1.139 2.153M117.053 91.604s-.285 1.914.854 2.392M116.056 92.92s-.285.957.854 1.674M115.771 88.045s-.284 1.708.285 1.993M114.348 89.184s-.08 1.227.53 1.468M118.05 95.448s.569 1.424 1.423 1.994M119.188 95.733s.285.855 1.424 1.424M119.711 99.29s.377 1.487.622 1.807M112.924 97.157s.26 1.227.699 1.752M122.32 102.14s-1.517-.005-2.61-.43M20.504 80.796c3.457-1.649 6.164-3.674 7.868-5.575 1.706-1.901 3.671-1.887 5.2-2.56 1.528-.675 3.155-.172 6.763-2.247 3.608-2.074 3.81-2.85 3.81-2.85s.666-2.14-2.088-2.894c0 0-2.93-.154-6.211.894 0 0-2.054-.028-3.682.722-1.628.749-5.333-.232-5.333-.232M19.652 81.12s-3.032 1.8-4.485 1.949c-1.452.148-5.01 1.872-8.594 4.397" transform="translate(-780 -2705) translate(782 2706) translate(23.606 49.8)"/>
                    <path stroke="#FFF" stroke-linecap="round" stroke-linejoin="round" stroke-width="1.25" d="M28.47 66.39l-.66-2.162c-.925-1.654-1.973-4.936-1.973-4.936M33.297 60.903s2.953 1.23 3.303 1.907c.35.677-.754 2.754-.754 2.754" transform="translate(-780 -2705) translate(782 2706) translate(23.606 49.8)"/>
                    <path stroke="#FFF" stroke-linecap="round" stroke-linejoin="round" stroke-width="1.25" d="M28.042 57.642s.826.477.8 1.904c0 0 2.902 2.207 5.808.658 0 0 .95 2.104 4.053 2.91 0 0 .244.534 1.222 1.632" transform="translate(-780 -2705) translate(782 2706) translate(23.606 49.8)"/>
                    <path stroke="#FFF" stroke-linecap="round" stroke-linejoin="round" stroke-width="1.25" d="M39.785 58.707s-2.577-1.981-4.128-3.01c-1.552-1.028-4.832-.606-7.762-.76-2.93-.153-5.234.32-6.786-.082-1.552-.403-2.282 2.802-3.36 4.077-1.078 1.276-5.67 9.56-8.302 11.685C6.815 72.742 5.386 74.594.2 77.693M29.816 60.85s.275 1.201-.88 3.63M29.222 66.22s.414-.388.74-.788l1.027-.3c2.505-1.249 3.357-1.573 3.357-1.573M28.835 65.18c-.4-.2.951.31 1.126.252M36.6 62.81s-.35-.05-.751.25M36.66 63.316s-.737.47-1.163.32M36.766 71.6s-1.075-2.48-.672-4.033M35.288 71.298s-1.424-2.531-.972-3.808M38.069 70.624s-.074-1.352-.374-1.752M40.348 69.7s.729-1.951-.07-3.23c0 0-.376-.5 1.127-1 1.503-.499 3.28-.422 3.506-.12.225.3 1.076.601.098 1.802-.978 1.2-4.66 2.549-4.66 2.549zM38.703 63.113s.177-1.227.955-2.277M34.65 60.204l.379-2.63M26.67 75.87s-2.555-.278-3.355-.93M42.112 60.563s1.1 1.679 1.274 2.33c.175.651.953 1.901.953 1.901" transform="translate(-780 -2705) translate(782 2706) translate(23.606 49.8)"/>
                    <path stroke="#44E7D9" stroke-linecap="round" stroke-linejoin="round" stroke-width="1.25" d="M41.714 58.359s.225.3-.902.675c-1.128.374-1.353.074-1.353.074s.427-.476 1.453-.775c0 0 .551-.1.802.026z" transform="translate(-780 -2705) translate(782 2706) translate(23.606 49.8)"/>
                    <path stroke="#FFF" stroke-linecap="round" stroke-linejoin="round" stroke-width="1.25" d="M35.67 55.61s.074.726-.227.951M35.187 55.45s-.081.347-.031.623M25.914 57.514s-.852.325-.902.675c-.05.351.299 1.028.299 1.028M26.82 74.818s-.625 0-1.126-.251M14.767 82.743s.803-1.226-.397-3.456M19.953 80.895s-1.553.224-3.305-.654" transform="translate(-780 -2705) translate(782 2706) translate(23.606 49.8)"/>
                    <path stroke="#44E7D9" stroke-linecap="round" stroke-linejoin="round" stroke-width="1.25" d="M41.714 58.359s.25.125.2.476c-.05.35-1.68 1.1-2.255.749 0 0-.326-.226-.2-.476M41.487 59.31L43.564 65.111M44.558 67.802L47.303 76.069 47.251 77.672 46.275 76.368 43.58 68.377M42.057 64.67L40.435 59.785" transform="translate(-780 -2705) translate(782 2706) translate(23.606 49.8)"/>
                    <path fill="#FFF" d="M59.114 42.924c.293.104.446.425.343.718-.104.293-.426.446-.72.342-.292-.103-.445-.425-.341-.718.103-.293.425-.446.718-.342M79.983 48.22c-.104.292-.426.446-.719.342-.293-.104-.446-.426-.342-.719.104-.293.426-.446.719-.342.293.104.446.426.342.719M92.114 37.332c-.139.39-.568.595-.958.457-.391-.14-.595-.568-.457-.959.139-.39.567-.595.958-.456.39.138.595.567.457.958M54.256 53.654c-.104.292-.425.446-.718.342-.293-.104-.446-.426-.343-.719.105-.293.426-.446.72-.342.292.104.445.426.341.719M81.402 31.35c-.058.162-.237.248-.4.19-.163-.058-.248-.237-.19-.4.058-.162.237-.247.4-.19.162.058.247.237.19.4M44.788 41.628c-.058.162-.236.248-.4.19-.162-.058-.247-.237-.19-.4.058-.162.237-.247.4-.19.163.058.248.237.19.4M55.526 28.697c-.081.228-.331.347-.559.266-.228-.08-.347-.33-.266-.558.08-.228.33-.347.558-.267.228.081.348.331.267.56M68.67 25.705c.292.104.446.426.342.719-.104.293-.426.446-.719.342-.293-.104-.446-.425-.342-.718.104-.293.425-.447.718-.343M70.47 10.516c.293.105.446.426.342.72-.104.292-.426.445-.719.341-.293-.103-.446-.425-.342-.718.104-.293.425-.446.718-.343M84.93 16.487c-.103.293-.425.446-.718.342-.293-.104-.446-.425-.342-.718.104-.293.425-.446.719-.343.293.104.446.426.342.719M97.736 24.484c-.139.39-.568.595-.958.457-.391-.14-.595-.568-.456-.959.138-.39.567-.594.958-.456.39.138.594.568.456.958M43.692 26.98c-.104.292-.426.446-.719.342-.293-.104-.446-.426-.342-.719.104-.293.425-.446.718-.342.294.104.447.425.343.718M86.35 5.687c-.058.163-.237.248-.4.19-.163-.057-.248-.236-.19-.399.058-.163.237-.248.4-.19.162.058.247.236.19.4M61.876 13.268c-.058.162-.236.248-.4.19-.162-.058-.247-.237-.19-.4.058-.162.237-.247.4-.19.162.058.248.237.19.4M51.706 13.151c-.081.228-.331.347-.56.267-.227-.081-.346-.331-.265-.559.08-.228.33-.347.558-.266.228.08.348.33.267.558M73.617.043c.293.104.446.426.343.719-.104.292-.426.446-.72.342C72.949 1 72.796.678 72.9.385c.104-.293.425-.446.718-.342M65.943 37.88c-.058.162-.237.247-.4.19-.162-.058-.247-.237-.19-.4.058-.162.237-.247.4-.19.162.058.247.237.19.4" transform="translate(-780 -2705) translate(782 2706) translate(23.606 49.8)"/>
                </g>
            </g>
        </g>
    </g>
</svg>
