<svg xmlns="http://www.w3.org/2000/svg" width="191" height="269" viewBox="0 0 191 269"><title>Тройка Жезлов</title>
    <g fill="none" fill-rule="evenodd">
        <g>
            <g>
                <path fill="#2a1612" stroke="#FFF" stroke-linecap="round" stroke-linejoin="round" stroke-width="2.5" d="M177.475 265.252H9.604c-5.21 0-9.435-4.224-9.435-9.435V9.488C.169 4.277 4.393.052 9.604.052h167.871c5.211 0 9.435 4.225 9.435 9.436v246.329c0 5.21-4.224 9.435-9.435 9.435z" transform="translate(-777 -4253) translate(779 4255)"/>
                <path fill="#44E7D9" fill-rule="nonzero" d="M57.46 253.524v-10.067h2.14v-.73h-5.09v.73h2.139v10.067h.81zm4.328 0v-4.928h3.793v4.928h.827v-10.796h-.827v5.138h-3.793v-5.138h-.81v10.796h.81zm7.862 0v-4.458l1.73-.002c.097-.002.173-.007.231-.014l1.605 4.474h.891l-1.702-4.653c.93-.345 1.394-1.091 1.394-2.237v-1.475c0-.735-.216-1.323-.648-1.767-.432-.443-1.075-.664-1.93-.664H68.84v10.796h.81zm1.572-5.22H69.65v-4.847h1.572c1.178 0 1.767.568 1.767 1.702v1.475c0 1.114-.59 1.67-1.767 1.67zm9.386 5.22v-.73h-3.664v-4.344h3.194v-.73h-3.194v-4.263h3.664v-.73h-4.474v10.797h4.474zm6.338 0v-.73h-3.664v-4.344h3.194v-.73h-3.194v-4.263h3.664v-.73h-4.474v10.797h4.474zm7.36.162c.853 0 1.496-.23 1.928-.689.433-.46.649-1.056.649-1.791v-6.16c0-.735-.216-1.332-.649-1.791-.432-.46-1.075-.69-1.929-.69-.853 0-1.496.23-1.929.69-.432.459-.648 1.056-.648 1.79v6.16c0 .736.216 1.333.648 1.792.433.46 1.076.689 1.93.689zm0-.73c-1.179 0-1.768-.583-1.768-1.75v-6.16c0-1.167.59-1.75 1.767-1.75 1.178 0 1.767.583 1.767 1.75v6.16c0 1.167-.589 1.75-1.767 1.75zm5.657.568v-4.912h3.371v-.73h-3.371v-4.425h3.517v-.73h-4.328v10.797h.81zm8.948 0v-4.912h3.372v-.73h-3.372v-4.425h3.517v-.73H108.1v10.797h.81zm5.868 0v-10.796h-.81v10.796h.81zm3.242 0v-4.458l1.73-.002c.097-.002.174-.007.231-.014l1.605 4.474h.892l-1.702-4.653c.93-.345 1.394-1.091 1.394-2.237v-1.475c0-.735-.216-1.323-.649-1.767-.432-.443-1.075-.664-1.929-.664h-2.383v10.796h.81zm1.572-5.22h-1.572v-4.847h1.572c1.178 0 1.767.568 1.767 1.702v1.475c0 1.114-.589 1.67-1.767 1.67zm9.386 5.22v-.73h-3.663v-4.344h3.193v-.73h-3.193v-4.263h3.663v-.73h-4.474v10.797h4.474z" transform="translate(-777 -4253) translate(779 4255)"/>
                <g>
                    <path stroke="#FFF" stroke-linecap="round" stroke-linejoin="round" stroke-width="1.875" d="M99.441 3.867L163.737 3.867 163.737 226.622M15.9 3.867L68.215 3.867M153.687 239.564L126.405 239.564M5.526 14.799L5.526 239.564 40.967 239.564" transform="translate(-777 -4253) translate(779 4255) translate(8.094 10.997)"/>
                    <path fill="#000" d="M5.253 0.025L7.871 4.559 10.489 9.093 5.253 9.093 0.018 9.093 2.636 4.559z" transform="translate(-777 -4253) translate(779 4255) translate(8.094 10.997)"/>
                    <path stroke="#D1A448" stroke-linecap="round" stroke-linejoin="round" stroke-width="1.875" d="M5.253 0.025L7.871 4.559 10.489 9.093 5.253 9.093 0.018 9.093 2.636 4.559z" transform="translate(-777 -4253) translate(779 4255) translate(8.094 10.997)"/>
                    <path fill="#000" d="M163.902 244.095L161.285 239.561 158.667 235.027 163.902 235.027 169.137 235.027 166.52 239.561z" transform="translate(-777 -4253) translate(779 4255) translate(8.094 10.997)"/>
                    <path stroke="#D1A448" stroke-linecap="round" stroke-linejoin="round" stroke-width="1.875" d="M163.902 244.095L161.285 239.561 158.667 235.027 163.902 235.027 169.137 235.027 166.52 239.561z" transform="translate(-777 -4253) translate(779 4255) translate(8.094 10.997)"/>
                </g>
                <path fill="#44E7D9" fill-rule="nonzero" d="M89.15 20.802V10.006h-.81v10.796h.81zm3.242 0V10.006h-.81v10.796h.81zm3.242 0V10.006h-.81v10.796h.81z" transform="translate(-777 -4253) translate(779 4255)"/>
                <g>
                    <path fill="#000" d="M75.887 70.638c-.626-.343-1.302 1.078-1.302 1.078-22.396 39.817-39.12 74.471-39.12 74.471s.54 2.913 3.11 1.564" transform="translate(-777 -4253) translate(779 4255) translate(30.688 65.29)"/>
                    <path stroke="#FFF" stroke-linecap="round" stroke-linejoin="round" stroke-width="1.875" d="M75.887 70.638c-.626-.343-1.302 1.078-1.302 1.078-22.396 39.817-39.12 74.471-39.12 74.471s.54 2.913 3.11 1.564" transform="translate(-777 -4253) translate(779 4255) translate(30.688 65.29)"/>
                    <path fill="#000" d="M75.85 70.626c.661.272-.09 1.657-.09 1.657-18.933 41.469-37.099 75.435-37.099 75.435s-2.715 1.36-3.176-1.435" transform="translate(-777 -4253) translate(779 4255) translate(30.688 65.29)"/>
                    <path stroke="#FFF" stroke-linecap="round" stroke-linejoin="round" stroke-width="1.875" d="M75.85 70.626c.661.272-.09 1.657-.09 1.657-18.933 41.469-37.099 75.435-37.099 75.435s-2.715 1.36-3.176-1.435" transform="translate(-777 -4253) translate(779 4255) translate(30.688 65.29)"/>
                    <path fill="#000" d="M68.433 82.768s-1.144 2.834.294 4.67" transform="translate(-777 -4253) translate(779 4255) translate(30.688 65.29)"/>
                    <path stroke="#FFF" stroke-linecap="round" stroke-linejoin="round" stroke-width="1.875" d="M68.433 82.768s-1.144 2.834.294 4.67" transform="translate(-777 -4253) translate(779 4255) translate(30.688 65.29)"/>
                    <path fill="#000" d="M64.828 89.367s-1.6 4.991-.565 7.453" transform="translate(-777 -4253) translate(779 4255) translate(30.688 65.29)"/>
                    <path stroke="#FFF" stroke-linecap="round" stroke-linejoin="round" stroke-width="1.875" d="M64.828 89.367s-1.6 4.991-.565 7.453" transform="translate(-777 -4253) translate(779 4255) translate(30.688 65.29)"/>
                    <path fill="#000" d="M62.721 93.257s-1.53 4.532-.111 6.997" transform="translate(-777 -4253) translate(779 4255) translate(30.688 65.29)"/>
                    <path stroke="#FFF" stroke-linecap="round" stroke-linejoin="round" stroke-width="1.875" d="M62.721 93.257s-1.53 4.532-.111 6.997" transform="translate(-777 -4253) translate(779 4255) translate(30.688 65.29)"/>
                    <path fill="#000" d="M58.67 100.815s-.979 3.703.8 5.901" transform="translate(-777 -4253) translate(779 4255) translate(30.688 65.29)"/>
                    <path stroke="#FFF" stroke-linecap="round" stroke-linejoin="round" stroke-width="1.875" d="M58.67 100.815s-.979 3.703.8 5.901" transform="translate(-777 -4253) translate(779 4255) translate(30.688 65.29)"/>
                    <path fill="#000" d="M57.313 103.368s-1.004 3.458.927 5.86" transform="translate(-777 -4253) translate(779 4255) translate(30.688 65.29)"/>
                    <path stroke="#FFF" stroke-linecap="round" stroke-linejoin="round" stroke-width="1.875" d="M57.313 103.368s-1.004 3.458.927 5.86" transform="translate(-777 -4253) translate(779 4255) translate(30.688 65.29)"/>
                    <path fill="#000" d="M52.591 112.343s-1.22 4.313.862 6.593" transform="translate(-777 -4253) translate(779 4255) translate(30.688 65.29)"/>
                    <path stroke="#FFF" stroke-linecap="round" stroke-linejoin="round" stroke-width="1.875" d="M52.591 112.343s-1.22 4.313.862 6.593" transform="translate(-777 -4253) translate(779 4255) translate(30.688 65.29)"/>
                    <path fill="#000" d="M49.532 118.233s-1.018 3.49.755 6.97" transform="translate(-777 -4253) translate(779 4255) translate(30.688 65.29)"/>
                    <path stroke="#FFF" stroke-linecap="round" stroke-linejoin="round" stroke-width="1.875" d="M49.532 118.233s-1.018 3.49.755 6.97" transform="translate(-777 -4253) translate(779 4255) translate(30.688 65.29)"/>
                    <path fill="#000" d="M48.213 120.79s-.59 3.556 1.24 6.062" transform="translate(-777 -4253) translate(779 4255) translate(30.688 65.29)"/>
                    <path stroke="#FFF" stroke-linecap="round" stroke-linejoin="round" stroke-width="1.875" d="M48.213 120.79s-.59 3.556 1.24 6.062" transform="translate(-777 -4253) translate(779 4255) translate(30.688 65.29)"/>
                    <path fill="#000" d="M45.466 126.153s-1.848 4.298.192 8.143" transform="translate(-777 -4253) translate(779 4255) translate(30.688 65.29)"/>
                    <path stroke="#FFF" stroke-linecap="round" stroke-linejoin="round" stroke-width="1.875" d="M45.466 126.153s-1.848 4.298.192 8.143" transform="translate(-777 -4253) translate(779 4255) translate(30.688 65.29)"/>
                    <path fill="#000" d="M42.292 132.38s-1.034 2.295.37 7.718" transform="translate(-777 -4253) translate(779 4255) translate(30.688 65.29)"/>
                    <path stroke="#FFF" stroke-linecap="round" stroke-linejoin="round" stroke-width="1.875" d="M42.292 132.38s-1.034 2.295.37 7.718" transform="translate(-777 -4253) translate(779 4255) translate(30.688 65.29)"/>
                    <path fill="#000" d="M43.343 130.335s-.928 4.209.53 7.426" transform="translate(-777 -4253) translate(779 4255) translate(30.688 65.29)"/>
                    <path stroke="#FFF" stroke-linecap="round" stroke-linejoin="round" stroke-width="1.875" d="M43.343 130.335s-.928 4.209.53 7.426" transform="translate(-777 -4253) translate(779 4255) translate(30.688 65.29)"/>
                    <path fill="#000" d="M39.352 138.287s-1.722 2.89.435 7.374" transform="translate(-777 -4253) translate(779 4255) translate(30.688 65.29)"/>
                    <path stroke="#FFF" stroke-linecap="round" stroke-linejoin="round" stroke-width="1.875" d="M39.352 138.287s-1.722 2.89.435 7.374" transform="translate(-777 -4253) translate(779 4255) translate(30.688 65.29)"/>
                    <path fill="#000" d="M47.86 70.638c.626-.343 1.302 1.078 1.302 1.078 22.396 39.817 39.12 74.471 39.12 74.471s-.54 2.913-3.11 1.564" transform="translate(-777 -4253) translate(779 4255) translate(30.688 65.29)"/>
                    <path stroke="#FFF" stroke-linecap="round" stroke-linejoin="round" stroke-width="1.875" d="M47.86 70.638c.626-.343 1.302 1.078 1.302 1.078 22.396 39.817 39.12 74.471 39.12 74.471s-.54 2.913-3.11 1.564" transform="translate(-777 -4253) translate(779 4255) translate(30.688 65.29)"/>
                    <path fill="#000" d="M47.898 70.626c-.662.272.09 1.657.09 1.657 18.932 41.469 37.098 75.435 37.098 75.435s2.715 1.36 3.176-1.435" transform="translate(-777 -4253) translate(779 4255) translate(30.688 65.29)"/>
                    <path stroke="#FFF" stroke-linecap="round" stroke-linejoin="round" stroke-width="1.875" d="M47.898 70.626c-.662.272.09 1.657.09 1.657 18.932 41.469 37.098 75.435 37.098 75.435s2.715 1.36 3.176-1.435" transform="translate(-777 -4253) translate(779 4255) translate(30.688 65.29)"/>
                    <path fill="#000" d="M55.315 82.768s1.144 2.834-.295 4.67" transform="translate(-777 -4253) translate(779 4255) translate(30.688 65.29)"/>
                    <path stroke="#FFF" stroke-linecap="round" stroke-linejoin="round" stroke-width="1.875" d="M55.315 82.768s1.144 2.834-.295 4.67" transform="translate(-777 -4253) translate(779 4255) translate(30.688 65.29)"/>
                    <path fill="#000" d="M58.92 89.367s1.6 4.991.564 7.453" transform="translate(-777 -4253) translate(779 4255) translate(30.688 65.29)"/>
                    <path stroke="#FFF" stroke-linecap="round" stroke-linejoin="round" stroke-width="1.875" d="M58.92 89.367s1.6 4.991.564 7.453" transform="translate(-777 -4253) translate(779 4255) translate(30.688 65.29)"/>
                    <path fill="#000" d="M61.026 93.257s1.53 4.532.112 6.997" transform="translate(-777 -4253) translate(779 4255) translate(30.688 65.29)"/>
                    <path stroke="#FFF" stroke-linecap="round" stroke-linejoin="round" stroke-width="1.875" d="M61.026 93.257s1.53 4.532.112 6.997" transform="translate(-777 -4253) translate(779 4255) translate(30.688 65.29)"/>
                    <path fill="#000" d="M65.078 100.815s.978 3.703-.801 5.901" transform="translate(-777 -4253) translate(779 4255) translate(30.688 65.29)"/>
                    <path stroke="#FFF" stroke-linecap="round" stroke-linejoin="round" stroke-width="1.875" d="M65.078 100.815s.978 3.703-.801 5.901" transform="translate(-777 -4253) translate(779 4255) translate(30.688 65.29)"/>
                    <path fill="#000" d="M66.434 103.368s1.004 3.458-.927 5.86" transform="translate(-777 -4253) translate(779 4255) translate(30.688 65.29)"/>
                    <path stroke="#FFF" stroke-linecap="round" stroke-linejoin="round" stroke-width="1.875" d="M66.434 103.368s1.004 3.458-.927 5.86" transform="translate(-777 -4253) translate(779 4255) translate(30.688 65.29)"/>
                    <path fill="#000" d="M71.156 112.343s1.22 4.313-.862 6.593" transform="translate(-777 -4253) translate(779 4255) translate(30.688 65.29)"/>
                    <path stroke="#FFF" stroke-linecap="round" stroke-linejoin="round" stroke-width="1.875" d="M71.156 112.343s1.22 4.313-.862 6.593" transform="translate(-777 -4253) translate(779 4255) translate(30.688 65.29)"/>
                    <path fill="#000" d="M74.216 118.233s1.018 3.49-.756 6.97" transform="translate(-777 -4253) translate(779 4255) translate(30.688 65.29)"/>
                    <path stroke="#FFF" stroke-linecap="round" stroke-linejoin="round" stroke-width="1.875" d="M74.216 118.233s1.018 3.49-.756 6.97" transform="translate(-777 -4253) translate(779 4255) translate(30.688 65.29)"/>
                    <path fill="#000" d="M75.534 120.79s.59 3.556-1.24 6.062" transform="translate(-777 -4253) translate(779 4255) translate(30.688 65.29)"/>
                    <path stroke="#FFF" stroke-linecap="round" stroke-linejoin="round" stroke-width="1.875" d="M75.534 120.79s.59 3.556-1.24 6.062" transform="translate(-777 -4253) translate(779 4255) translate(30.688 65.29)"/>
                    <path fill="#000" d="M78.28 126.153s1.849 4.298-.19 8.143" transform="translate(-777 -4253) translate(779 4255) translate(30.688 65.29)"/>
                    <path stroke="#FFF" stroke-linecap="round" stroke-linejoin="round" stroke-width="1.875" d="M78.28 126.153s1.849 4.298-.19 8.143" transform="translate(-777 -4253) translate(779 4255) translate(30.688 65.29)"/>
                    <path fill="#000" d="M81.455 132.38s1.035 2.295-.37 7.718" transform="translate(-777 -4253) translate(779 4255) translate(30.688 65.29)"/>
                    <path stroke="#FFF" stroke-linecap="round" stroke-linejoin="round" stroke-width="1.875" d="M81.455 132.38s1.035 2.295-.37 7.718" transform="translate(-777 -4253) translate(779 4255) translate(30.688 65.29)"/>
                    <path fill="#000" d="M80.404 130.335s.928 4.209-.53 7.426" transform="translate(-777 -4253) translate(779 4255) translate(30.688 65.29)"/>
                    <path stroke="#FFF" stroke-linecap="round" stroke-linejoin="round" stroke-width="1.875" d="M80.404 130.335s.928 4.209-.53 7.426" transform="translate(-777 -4253) translate(779 4255) translate(30.688 65.29)"/>
                    <path fill="#000" d="M84.395 138.287s1.722 2.89-.435 7.374" transform="translate(-777 -4253) translate(779 4255) translate(30.688 65.29)"/>
                    <path stroke="#FFF" stroke-linecap="round" stroke-linejoin="round" stroke-width="1.875" d="M84.395 138.287s1.722 2.89-.435 7.374" transform="translate(-777 -4253) translate(779 4255) translate(30.688 65.29)"/>
                    <path fill="#000" d="M61.587 62.956c-.783-.007-.701 1.716-.701 1.716-1.062 50.077.69 92.23.69 92.23s2.03 2.537 3.817-.097" transform="translate(-777 -4253) translate(779 4255) translate(30.688 65.29)"/>
                    <path stroke="#FFF" stroke-linecap="round" stroke-linejoin="round" stroke-width="1.875" d="M61.587 62.956c-.783-.007-.701 1.716-.701 1.716-1.062 50.077.69 92.23.69 92.23s2.03 2.537 3.817-.097" transform="translate(-777 -4253) translate(779 4255) translate(30.688 65.29)"/>
                    <path fill="#000" d="M61.544 62.964c.78-.08.77 1.648.77 1.648 3.142 49.883 3.145 92.117 3.145 92.117s-1.92 2.719-3.813.255" transform="translate(-777 -4253) translate(779 4255) translate(30.688 65.29)"/>
                    <path stroke="#FFF" stroke-linecap="round" stroke-linejoin="round" stroke-width="1.875" d="M61.544 62.964c.78-.08.77 1.648.77 1.648 3.142 49.883 3.145 92.117 3.145 92.117s-1.92 2.719-3.813.255" transform="translate(-777 -4253) translate(779 4255) translate(30.688 65.29)"/>
                    <path fill="#000" d="M60.653 78.538s.36 3.332 2.7 4.362" transform="translate(-777 -4253) translate(779 4255) translate(30.688 65.29)"/>
                    <path stroke="#FFF" stroke-linecap="round" stroke-linejoin="round" stroke-width="1.875" d="M60.653 78.538s.36 3.332 2.7 4.362" transform="translate(-777 -4253) translate(779 4255) translate(30.688 65.29)"/>
                    <path fill="#000" d="M60.58 86.783s1.035 5.652 3.31 7.497" transform="translate(-777 -4253) translate(779 4255) translate(30.688 65.29)"/>
                    <path stroke="#FFF" stroke-linecap="round" stroke-linejoin="round" stroke-width="1.875" d="M60.58 86.783s1.035 5.652 3.31 7.497" transform="translate(-777 -4253) translate(779 4255) translate(30.688 65.29)"/>
                    <path fill="#000" d="M60.556 91.633s.864 5.172 3.51 6.823" transform="translate(-777 -4253) translate(779 4255) translate(30.688 65.29)"/>
                    <path stroke="#FFF" stroke-linecap="round" stroke-linejoin="round" stroke-width="1.875" d="M60.556 91.633s.864 5.172 3.51 6.823" transform="translate(-777 -4253) translate(779 4255) translate(30.688 65.29)"/>
                    <path fill="#000" d="M60.547 101.036s.97 4.086 3.825 5.29" transform="translate(-777 -4253) translate(779 4255) translate(30.688 65.29)"/>
                    <path stroke="#FFF" stroke-linecap="round" stroke-linejoin="round" stroke-width="1.875" d="M60.547 101.036s.97 4.086 3.825 5.29" transform="translate(-777 -4253) translate(779 4255) translate(30.688 65.29)"/>
                    <path fill="#000" d="M60.556 104.206s.818 3.862 3.926 5.185" transform="translate(-777 -4253) translate(779 4255) translate(30.688 65.29)"/>
                    <path stroke="#FFF" stroke-linecap="round" stroke-linejoin="round" stroke-width="1.875" d="M60.556 104.206s.818 3.862 3.926 5.185" transform="translate(-777 -4253) translate(779 4255) translate(30.688 65.29)"/>
                    <path fill="#000" d="M60.632 115.324s1.052 4.801 4.243 5.928" transform="translate(-777 -4253) translate(779 4255) translate(30.688 65.29)"/>
                    <path stroke="#FFF" stroke-linecap="round" stroke-linejoin="round" stroke-width="1.875" d="M60.632 115.324s1.052 4.801 4.243 5.928" transform="translate(-777 -4253) translate(779 4255) translate(30.688 65.29)"/>
                    <path fill="#000" d="M60.72 122.601s.821 3.901 4.335 6.347" transform="translate(-777 -4253) translate(779 4255) translate(30.688 65.29)"/>
                    <path stroke="#FFF" stroke-linecap="round" stroke-linejoin="round" stroke-width="1.875" d="M60.72 122.601s.821 3.901 4.335 6.347" transform="translate(-777 -4253) translate(779 4255) translate(30.688 65.29)"/>
                    <path fill="#000" d="M60.768 125.755s1.268 3.744 4.334 5.22" transform="translate(-777 -4253) translate(779 4255) translate(30.688 65.29)"/>
                    <path stroke="#FFF" stroke-linecap="round" stroke-linejoin="round" stroke-width="1.875" d="M60.768 125.755s1.268 3.744 4.334 5.22" transform="translate(-777 -4253) translate(779 4255) translate(30.688 65.29)"/>
                    <path fill="#000" d="M60.886 132.36s.436 5.111 4.396 7.774" transform="translate(-777 -4253) translate(779 4255) translate(30.688 65.29)"/>
                    <path stroke="#FFF" stroke-linecap="round" stroke-linejoin="round" stroke-width="1.875" d="M60.886 132.36s.436 5.111 4.396 7.774" transform="translate(-777 -4253) translate(779 4255) translate(30.688 65.29)"/>
                    <path fill="#000" d="M61.038 140.023s.186 2.753 4.348 7.27" transform="translate(-777 -4253) translate(779 4255) translate(30.688 65.29)"/>
                    <path stroke="#FFF" stroke-linecap="round" stroke-linejoin="round" stroke-width="1.875" d="M61.038 140.023s.186 2.753 4.348 7.27" transform="translate(-777 -4253) translate(779 4255) translate(30.688 65.29)"/>
                    <path fill="#000" d="M60.996 137.502s1.279 4.549 4.352 6.905" transform="translate(-777 -4253) translate(779 4255) translate(30.688 65.29)"/>
                    <path stroke="#FFF" stroke-linecap="round" stroke-linejoin="round" stroke-width="1.875" d="M60.996 137.502s1.279 4.549 4.352 6.905" transform="translate(-777 -4253) translate(779 4255) translate(30.688 65.29)"/>
                    <path fill="#000" d="M61.25 147.254s-.17 3.683 4.233 6.904" transform="translate(-777 -4253) translate(779 4255) translate(30.688 65.29)"/>
                    <path stroke="#FFF" stroke-linecap="round" stroke-linejoin="round" stroke-width="1.875" d="M61.25 147.254s-.17 3.683 4.233 6.904" transform="translate(-777 -4253) translate(779 4255) translate(30.688 65.29)"/>
                    <path stroke="#D1A448" stroke-linecap="round" stroke-linejoin="round" stroke-width="1.875" d="M60.814 72.387s-5.265-.658-2.852-6.58c0 0 .439-.878 2.193-3.51 1.755-2.632 1.536-4.387 1.536-4.387s4.168 5.045 3.948 9.652c-.22 4.606-2.851 4.606-4.825 4.825z" transform="translate(-777 -4253) translate(779 4255) translate(30.688 65.29)"/>
                    <path stroke="#D1A448" stroke-linecap="round" stroke-linejoin="round" stroke-width="1.875" d="M60.381 72.264s-2.638-.758-.932-4.406c0 0 .294-.535 1.401-2.113 1.107-1.578 1.135-2.718 1.135-2.718s1.727 3.503 1.248 6.446c-.48 2.943-1.826 2.775-2.852 2.79z" transform="translate(-777 -4253) translate(779 4255) translate(30.688 65.29)"/>
                    <path stroke="#D1A448" stroke-linecap="round" stroke-linejoin="round" stroke-width="1.875" d="M60.375 72.387s-6.8-.877-6.58-9.432c0 0 .438-4.167 3.51-7.677 0 0-.878 2.632-.878 4.168 0 0 2.193-3.29 3.29-6.8s.22-6.142.22-6.142 7.896 6.361 8.334 16.013c-.02.04-.105 5.47-3.29 8.774 0 0-2.413 1.755-4.606 1.096z" transform="translate(-777 -4253) translate(779 4255) translate(30.688 65.29)"/>
                    <path stroke="#44E7D9" stroke-linecap="round" stroke-linejoin="round" stroke-width="1.875" d="M117.688 17.573c-58.375-11.225-117.47 0-117.47 0M10.488 18.653s7.567-1.727 21.26-2.59M76.25 14.983s10.809 0 23.42 1.727" transform="translate(-777 -4253) translate(779 4255) translate(30.688 65.29)"/>
                    <path stroke="#44E7D9" stroke-linecap="round" stroke-linejoin="round" stroke-width="1.875" d="M.038 16.27s2.162-1.09 3.964-2.904c1.801-1.814 3.243-.725 3.243-.725l2.162.725 2.162 1.089s2.162-1.452 3.603-3.629c1.441-2.177 5.045-5.443 5.045-5.443l2.522-2.176s2.523.725 3.603 1.814c1.082 1.088 2.883 1.814 2.883 1.814l2.523 2.177 3.603 2.903 1.441.726M32.829 8.286s1.441-1.451 2.162-1.451c.72 0 2.882.726 2.882.726s2.883-2.903 5.045-4.354C45.08 1.755 47.242.304 48.684.304c1.44 0 4.684 4.717 4.684 4.717l2.162 2.177 2.882 3.628 1.442 1.35M58.412 9.738l4.324-1.452s2.883 1.452 3.964 2.54c1.081 1.089 2.162 1.815 2.162 1.815M67.06 9.738s2.163-.726 2.883-1.452c.72-.725 5.405-2.903 6.486-3.265 1.081-.363 2.523 1.088 3.603 2.54 1.082 1.451 4.325 3.991 4.325 3.991s3.603 1.452 3.603 1.089M87.6 11.915s2.162-1.089 3.242-1.452c1.082-.362 3.964 2.54 5.766 3.266M97.329 12.64s2.882-3.265 4.324-3.628c1.44-.363 4.324-1.451 6.125-1.451 1.802 0 3.244-.726 4.324 1.451 1.081 2.177 2.162 2.903 2.162 2.903l4.685 5.442M119.309 16.062L121.111 16.062 122.912 17.358 123.633 18.221M13.731 13.904L15.533 13.904M15.533 10.881L19.496 10.881M14.115 12.184L16.253 12.184M16.578 9.047L18.055 9.047M18.055 7.471L20.577 7.471M19.316 6.228L21.658 6.228M20.854 4.834L21.658 4.834M19.496 9.154L21.658 9.154M20.577 10.881L21.298 10.881M16.614 13.904L20.217 13.904M4.002 13.472L6.164 13.472M2.701 14.659L4.723 14.659M.819 15.801L3.641 15.801M45.891 1.305L47.963 1.305M44.043 2.457L46.161 2.457M42.298 3.647L48.323 3.647M40.854 4.934L44.36 4.934M45.08 4.837L46.161 4.837M39.53 5.979L42.198 5.979M38.569 6.88L45.801 6.88M47.242 2.246L48.323 2.246M33.549 8.291L36.071 8.291M32.468 9.154L34.991 9.154M33.729 10.609L36.432 10.609M59.148 9.491L62.376 9.491M59.133 10.45L61.655 10.45M71.247 7.445L74.627 7.445M69.943 8.291L72.105 8.291M68.046 9.491L73.546 9.491M73.628 6.24L75.708 6.24M72.826 8.291L74.267 8.291M66.7 10.881L69.222 10.881M70.303 10.881L71.745 10.881M88.789 11.338L90.482 11.338M88.32 12.177L90.482 12.177M98.896 11.014L102.373 11.014M97.783 12.198L100.572 12.198M100.864 9.387L104.896 9.387M103.635 10.881L104.715 10.881M97.689 13.472L102.373 13.472M104.446 8.189L107.058 8.189" transform="translate(-777 -4253) translate(779 4255) translate(30.688 65.29)"/>
                    <path fill="#D1A448" d="M73.402 47.818c0 .242-.197.438-.438.438-.242 0-.438-.196-.438-.438 0-.241.196-.437.438-.437.241 0 .438.196.438.437M51.788 55.637c.31 0 .563.252.563.563 0 .31-.252.563-.563.563-.311 0-.563-.252-.563-.563 0-.31.252-.563.563-.563M74.513 63.336c0 .31-.252.562-.563.562-.311 0-.563-.252-.563-.562 0-.311.252-.563.563-.563.31 0 .563.252.563.563M68.602 43.405c0 .414-.335.75-.75.75s-.75-.336-.75-.75c0-.415.335-.751.75-.751s.75.336.75.75M84.384 53.926c0 .241-.197.437-.438.437-.242 0-.438-.196-.438-.437 0-.242.196-.438.438-.438.241 0 .438.196.438.438M73.803 38.69c0 .242-.196.438-.438.438-.241 0-.437-.196-.437-.438 0-.241.196-.437.437-.437.242 0 .438.196.438.437M46.848 51.429c0 .172-.14.312-.312.312-.173 0-.313-.14-.313-.312 0-.173.14-.313.313-.313s.312.14.312.313M75.807 55.187c0 .414-.335.75-.75.75-.414 0-.75-.336-.75-.75 0-.415.336-.75.75-.75.415 0 .75.335.75.75M46.623 63.753c0 .242-.196.438-.438.438s-.438-.196-.438-.438c0-.241.196-.437.438-.437s.438.196.438.437M77.41 29.426c0 .311-.252.563-.563.563-.311 0-.563-.252-.563-.563 0-.31.252-.563.563-.563.31 0 .562.252.562.563M52.485 44.761c0 .173-.14.313-.313.313s-.313-.14-.313-.313c0-.172.14-.312.313-.312s.313.14.313.312M60.755 35.999c0 .241-.197.437-.438.437-.242 0-.438-.196-.438-.437 0-.242.196-.438.438-.438.241 0 .438.196.438.438M44.874 43.48c.31 0 .563.252.563.563 0 .31-.252.563-.563.563-.311 0-.563-.252-.563-.563 0-.311.252-.563.563-.563M57.482 41.399c0 .31-.252.563-.563.563-.311 0-.563-.253-.563-.563 0-.311.252-.563.563-.563.31 0 .563.252.563.563M55.618 31.922c0 .414-.336.75-.75.75-.415 0-.75-.336-.75-.75s.335-.75.75-.75c.414 0 .75.336.75.75M81.516 41.431c0 .242-.196.438-.437.438-.242 0-.438-.196-.438-.438 0-.241.196-.437.438-.437.241 0 .437.196.437.437M64.866 26.87c0 .242-.196.438-.438.438s-.438-.196-.438-.437c0-.242.196-.438.438-.438s.438.196.438.438M37.237 38.26c0 .172-.14.312-.313.312s-.312-.14-.312-.312c0-.173.14-.313.312-.313s.313.14.313.313M81.37 65.961c0 .415-.335.75-.75.75-.414 0-.75-.335-.75-.75 0-.414.336-.75.75-.75.415 0 .75.336.75.75M39.709 56.318c0 .242-.196.437-.438.437s-.438-.195-.438-.437.196-.438.438-.438.438.196.438.438M55.995 21.653c0 .31-.252.563-.563.563-.311 0-.563-.252-.563-.563 0-.31.252-.563.563-.563.31 0 .563.252.563.563M44.896 27.883c0 .173-.14.313-.313.313-.172 0-.312-.14-.312-.313s.14-.313.312-.313c.173 0 .313.14.313.313" transform="translate(-777 -4253) translate(779 4255) translate(30.688 65.29)"/>
                </g>
            </g>
        </g>
    </g>
</svg>
