<svg xmlns="http://www.w3.org/2000/svg" width="191" height="267" viewBox="0 0 191 267"><title>Рыцарь Кубков</title>
    <g fill="none" fill-rule="evenodd">
        <g>
            <g>
                <g>
                    <path fill="#152230" stroke="#FFF" stroke-linecap="round" stroke-linejoin="round" stroke-width="2.5" d="M177.795 263.217H9.621c-5.22 0-9.452-4.192-9.452-9.364V9.365C.169 4.193 4.401 0 9.621 0h168.174c5.22 0 9.452 4.193 9.452 9.365v244.488c0 5.172-4.232 9.364-9.452 9.364z" transform="translate(-1081 -1880) translate(1083 1882) translate(0 .167)"/>
                    <path stroke="#FFF" stroke-linecap="round" stroke-linejoin="round" stroke-width="1.875" d="M93.558 126.151s-14.972-9.727-16.567-11.307c-1.596-1.58-3.068-17.994-3.068-17.994l2.7 3.647 16.935-3.161M93.616 126.122s14.972-9.727 16.567-11.307c1.595-1.58 3.068-17.994 3.068-17.994l-2.7 3.647-16.935-3.161" transform="translate(-1081 -1880) translate(1083 1882) translate(0 .167)"/>
                    <path stroke="#FFF" stroke-linecap="round" stroke-linejoin="round" stroke-width="1.875" d="M81.163 102.595L85.213 101.713 85.213 116.911 81.163 114.483zM87.667 101.19L91.656 100.499 91.656 121.044 87.667 118.585zM77.175 103.782L78.831 103.176 78.831 113.142 77.666 111.958zM105.98 102.648L101.931 101.766 101.931 116.964 105.98 114.535zM99.476 101.243L95.488 100.551 95.488 121.097 99.476 118.638zM109.968 103.835L108.312 103.229 108.312 113.195 109.478 112.011zM81.662 99.556L81.662 96.363 93.558 94.053M105.523 99.524L105.523 96.331 93.627 94.021M74.684 97.878s2.035-13.47 11.02-17.685c8.34-3.913 7.677-7.144 7.854-7.538" transform="translate(-1081 -1880) translate(1083 1882) translate(0 .167)"/>
                    <path stroke="#FFF" stroke-linecap="round" stroke-linejoin="round" stroke-width="1.875" d="M112.46 97.93s-2.035-13.47-11.02-17.684c-8.34-3.913-7.677-7.144-7.854-7.538v9.612s1.015 4.013 5.801 2.554c0 0 3.681 3.769 9.081 2.675M93.522 82.298s-1.015 4.012-5.8 2.553c0 0-3.682 3.77-9.082 2.675" transform="translate(-1081 -1880) translate(1083 1882) translate(0 .167)"/>
                    <path fill="#FFF" d="M92.944 88.278c0 .302.247.547.552.547.305 0 .553-.245.553-.547 0-.302-.248-.547-.553-.547-.305 0-.552.245-.552.547M87.176 89.372c0 .303.247.548.553.548.304 0 .552-.245.552-.548 0-.302-.248-.547-.552-.547-.306 0-.553.245-.553.547M81.409 90.467c0 .302.247.547.552.547.305 0 .552-.245.552-.547 0-.303-.247-.548-.552-.548-.305 0-.552.245-.552.548M100.062 89.372c0 .303-.247.548-.553.548-.304 0-.552-.245-.552-.548 0-.302.248-.547.552-.547.306 0 .553.245.553.547M105.83 90.467c0 .302-.248.547-.553.547-.305 0-.552-.245-.552-.547 0-.303.247-.548.552-.548.305 0 .553.245.553.548" transform="translate(-1081 -1880) translate(1083 1882) translate(0 .167)"/>
                    <path stroke="#FFF" stroke-linecap="round" stroke-linejoin="round" stroke-width="1.875" d="M79.389 116.671s-.19 6.927-6.448 8.507c0 0 8.284 8.329 20.555 8.329M107.93 116.593s.19 6.927 6.449 8.508c0 0-8.284 8.328-20.556 8.328" transform="translate(-1081 -1880) translate(1083 1882) translate(0 .167)"/>
                    <path stroke="#44E7D9" stroke-linecap="round" stroke-linejoin="round" stroke-width="1.875" d="M89.792 77.77s-11.202-7.148-7.784-16.365c0 0 .854-1.787 1.803-2.54 0 0-.95 2.634 1.33 7.149 0 0-2.659-10.723 8.543-14.86 0 0 3.987-1.13 8.354 1.128 4.367 2.257 8.544 7.712 16.329 9.405 0 0-2.848 1.128-5.886 0 0 0 4.177 11.663 8.164 12.415 3.987.752 4.177-3.762 2.658-6.396 0 0 3.228 3.95 1.33 9.97-1.9 6.02-9.114 3.01-10.633 2.069l-3.038-1.881s.76 1.881 1.898 2.445c0 0-2.088.377-4.936-2.821-2.848-3.198-3.987-6.772-7.025-5.455-3.038 1.317-2.658 3.197-2.658 3.197s2.468-1.128 4.177-1.128c0 0-3.228 2.446-3.797 4.138" transform="translate(-1081 -1880) translate(1083 1882) translate(0 .167)"/>
                </g>
                <path fill="#D1A448" fill-rule="nonzero" d="M48.855 251.599v-10.816h-.812V251.6h.812zm4.45 0l-2.468-5.392 2.354-5.424h-.893l-2.355 5.457 2.453 5.359h.91zm2.339 0v-6.139l-.031-3.13-.002-.15c.4 1.04 1.635 4.179 3.703 9.419h1.071v-10.816h-.812v6.171l.033 3.28c-.13-.346-1.364-3.496-3.703-9.45h-1.055v10.815h.796zm7.99 0v-10.816h-.813V251.6h.812zm4.928.081c.85 0 1.632-.211 2.347-.633v-4.628h-.812v4.14c-.368.26-.937.39-1.705.39-1.116 0-1.673-.487-1.673-1.461v-6.496c0-1.029.644-1.543 1.932-1.543.672 0 1.327.103 1.965.309v-.796c-.606-.173-1.234-.26-1.883-.26-1.884 0-2.826.763-2.826 2.29v6.496c0 .768.23 1.326.69 1.672.46.347 1.115.52 1.965.52zm5.513-.081v-4.937h3.8v4.937h.829v-10.816h-.829v5.148h-3.8v-5.148h-.812V251.6h.812zm8.965 0v-10.085h2.143v-.73h-5.1v.73h2.145V251.6h.812zm9.029.162c.855 0 1.5-.23 1.932-.69.433-.46.65-1.058.65-1.794v-6.171c0-.737-.217-1.335-.65-1.795-.433-.46-1.077-.69-1.932-.69-.856 0-1.5.23-1.933.69-.433.46-.65 1.058-.65 1.795v6.17c0 .737.217 1.335.65 1.795.433.46 1.077.69 1.933.69zm0-.73c-1.18 0-1.77-.585-1.77-1.754v-6.171c0-1.17.59-1.754 1.77-1.754 1.18 0 1.77.584 1.77 1.754v6.17c0 1.17-.59 1.755-1.77 1.755zm5.667.568v-4.92h3.378v-.731h-3.378v-4.434h3.524v-.73h-4.336v10.815h.812zm10.393 0l.991-5.716c.238-1.364.411-2.637.52-3.817.119 1.18.628 4.358 1.526 9.533h1.17l1.883-10.816h-.844c-.899 5.446-1.44 8.808-1.624 10.085l-.422-2.842-1.202-7.243h-.958l-1.202 7.227c-.162.953-.303 1.905-.422 2.858l-.422-2.842-1.202-7.243h-.845l1.884 10.816h1.17zm7.665 0l.731-3.167h3.086l.73 3.167h.845l-2.533-10.816h-1.17L114.95 251.6h.844zm3.654-3.898h-2.76l1.38-5.992 1.38 5.992zm5.18 3.898v-10.085h2.144v-.73h-5.099v.73h2.144V251.6h.812zm8.007 0v-.73h-3.67v-4.353h3.199v-.73h-3.2v-4.272h3.67v-.73h-4.481v10.815h4.482zm2.68 0v-4.466h1.575c.173 0 .303-.005.39-.016l1.607 4.482h.893l-1.705-4.66c.931-.347 1.397-1.094 1.397-2.242v-1.478c0-.736-.217-1.326-.65-1.77-.433-.444-1.077-.666-1.932-.666h-2.388V251.6h.812zm1.575-5.23h-1.576v-4.855h1.576c1.18 0 1.77.569 1.77 1.705v1.478c0 1.115-.59 1.673-1.77 1.673z" transform="translate(-1081 -1880) translate(1083 1882)"/>
                <g>
                    <path stroke="#FFF" stroke-linecap="round" stroke-linejoin="round" stroke-width="1.875" d="M16.179 3.838L164.283 3.838 164.283 224.928M154.214 237.774L138.757 237.774M5.786 14.689L5.786 237.774 31.494 237.774" transform="translate(-1081 -1880) translate(1083 1882) translate(8.446 10.878)"/>
                    <path fill="#000" d="M164.444 231.681L167.067 236.181 169.689 240.681 164.444 240.681 159.2 240.681 161.822 236.181z" transform="translate(-1081 -1880) translate(1083 1882) translate(8.446 10.878)"/>
                    <path stroke="#44E7D9" stroke-linecap="round" stroke-linejoin="round" stroke-width="1.875" d="M164.444 231.681L167.067 236.181 169.689 240.681 164.444 240.681 159.2 240.681 161.822 236.181z" transform="translate(-1081 -1880) translate(1083 1882) translate(8.446 10.878)"/>
                    <path fill="#000" d="M5.573 9.025L2.95 4.525 0.328 0.025 5.573 0.025 10.817 0.025 8.195 4.525z" transform="translate(-1081 -1880) translate(1083 1882) translate(8.446 10.878)"/>
                    <path stroke="#44E7D9" stroke-linecap="round" stroke-linejoin="round" stroke-width="1.875" d="M5.573 9.025L2.95 4.525 0.328 0.025 5.573 0.025 10.817 0.025 8.195 4.525z" transform="translate(-1081 -1880) translate(1083 1882) translate(8.446 10.878)"/>
                    <path stroke="#D1A448" stroke-linecap="round" stroke-linejoin="round" stroke-width="1.875" d="M102.208 138.464c1.02 17.271-5.713 30.298-16.653 30.689-10.813.385-17.947-12.726-17.062-30.468M82.102 168.634L82.167 178.359M88.799 168.59L88.863 178.315M85.674 179.27c-2.038.013-3.058-.182-3.877-.783 0 0-1.012 1.016.014 2.019 0 0 1.226.597 3.467.583M82.225 181.487l.057 8.477s.821 1.003 3.47.986c2.648-.017 3.252-1.03 3.252-1.03l-.056-8.477M83.774 169.366L83.837 178.852M83.855 181.476L83.914 190.356M86.221 169.754L86.279 178.433M86.303 182.065L86.329 185.9M86.336 186.909L86.359 190.341M88.258 169.74L88.308 177.208M88.341 182.052L88.393 189.924" transform="translate(-1081 -1880) translate(1083 1882) translate(8.446 10.878)"/>
                    <path stroke="#D1A448" stroke-linecap="round" stroke-linejoin="round" stroke-width="1.875" d="M85.281 179.272c2.037-.013 3.055-.222 3.865-.833 0 0 1.026 1.003.014 2.018 0 0-1.218.614-3.46.629M102.107 138.565c.013 1.896-7.456 3.48-16.682 3.541-9.226.06-16.715-1.426-16.728-3.321-.013-1.895 7.456-3.48 16.682-3.54 9.226-.061 16.715 1.426 16.728 3.32zM81.723 188.5c-2.182.212-6.872.782-9.482 1.96 0 0-3.153 1.86 3.812 3.163M89.268 188.34c2.182.209 6.872.775 9.482 1.952 0 0 3.153 1.856-3.81 3.165M77.309 193.666s8.156 1.157 16.922-.111" transform="translate(-1081 -1880) translate(1083 1882) translate(8.446 10.878)"/>
                    <path stroke="#D1A448" stroke-linecap="round" stroke-linejoin="round" stroke-width="1.875" d="M71.526 190.98s-1.334.714-.7 1.92c.636 1.208 5.66 2.588 12.136 2.545M88.063 195.417c6.476-.043 11.48-1.488 12.1-2.703.618-1.216-.725-1.913-.725-1.913M83.588 195.44s2.36.07 3.97-.025M102.02 141.57c.012 1.895-7.457 3.48-16.683 3.541-9.226.061-16.715-1.426-16.728-3.321M85.443 163.167s-.328-2.603 1.214-4.406c0 0 1.188-1.601 3.16-2.252 0 0-.128 2.629-1.063 3.855 0 0-.657 1.302-3.31 2.803z" transform="translate(-1081 -1880) translate(1083 1882) translate(8.446 10.878)"/>
                    <path stroke="#D1A448" stroke-linecap="round" stroke-linejoin="round" stroke-width="1.875" d="M85.595 163.13s.293-2.608-1.273-4.39c0 0-1.209-1.586-3.188-2.21 0 0 .162 2.626 1.113 3.84 0 0 .675 1.293 3.348 2.76zM85.566 163.25s1.003-2.43 3.238-3.252c0 0 1.828-.819 3.868-.428 0 0-1.411 2.229-2.833 2.844 0 0-1.217.815-4.273.835z" transform="translate(-1081 -1880) translate(1083 1882) translate(8.446 10.878)"/>
                    <path stroke="#D1A448" stroke-linecap="round" stroke-linejoin="round" stroke-width="1.875" d="M85.564 163.25s-1.035-2.416-3.281-3.209c0 0-1.839-.795-3.874-.378 0 0 1.441 2.211 2.872 2.807 0 0 1.227.8 4.283.78z" transform="translate(-1081 -1880) translate(1083 1882) translate(8.446 10.878)"/>
                    <path stroke="#D1A448" stroke-linecap="round" stroke-linejoin="round" stroke-width="1.875" d="M85.583 163.103s-1.654-2.049-1.292-4.384c0 0 .166-1.98 1.502-3.557 0 0 1.28 2.306 1.131 3.836 0 0 .128 1.45-1.34 4.105zM70.45 150.125s1.652 9.346 6.314 13.99M70.188 148.464s-.212-1.21-.219-2.22M70.398 149.471L70.397 149.269" transform="translate(-1081 -1880) translate(1083 1882) translate(8.446 10.878)"/>
                    <path stroke="#44E7D9" stroke-linecap="round" stroke-linejoin="round" stroke-width="1.875" d="M89.749 141.67s-2.132-.131-1.635-.863c.496-.732-.005-.729-1.008-.722-1.002.007-2.63.31-1.375.592 0 0 1.067.339.76 1.065M70.584 140.123s6.349-3.148 11.74-3.038M83.327 137.079L85.645 137.063M86.413 137.059s9.36-.078 13.865 2.742" transform="translate(-1081 -1880) translate(1083 1882) translate(8.446 10.878)"/>
                    <path stroke="#44E7D9" stroke-linecap="round" stroke-linejoin="round" stroke-width="1.875" d="M80.436 141.714s.47-.932-1.157-.63c-1.627.302-1.7-1.228.558-.951s4.764.114 4.381-.757c-.381-.872-2.757.018-2.636-.712.12-.73 2.127-.597 3.254-.604 1.128-.007 2.753-.746 4.388-.029 1.634.718-1.752.594-.618 1.316 1.132.721 3.38-.605 4.01-.172.629.433-.871 1.026-1.12 1.464-.247.44 1.285.64 1.285.64" transform="translate(-1081 -1880) translate(1083 1882) translate(8.446 10.878)"/>
                    <path fill="#FFF" d="M128.82 124.892c.192-.062.4.04.462.23.064.19-.04.394-.23.457-.192.063-.4-.04-.463-.23-.063-.189.04-.394.232-.457M112.471 160.128c.345-.113.717.071.831.413.115.341-.072.71-.416.823-.345.113-.717-.071-.831-.413-.114-.341.072-.71.416-.823M127.158 147.449c.191-.063.398.04.462.23.063.189-.04.393-.232.456-.191.063-.398-.04-.461-.23-.064-.189.04-.394.23-.456M133.02 97.12c.346-.114.718.07.832.412.114.342-.073.71-.417.823-.344.114-.717-.071-.83-.412-.115-.342.071-.71.416-.824M102.44 170.148c.129.154.106.382-.049.51-.155.126-.386.105-.514-.05-.129-.154-.106-.382.05-.509.155-.127.385-.105.513.05M111.311 203.773c.373-.306.926-.253 1.234.117.308.37.255.917-.119 1.222-.373.305-.925.253-1.233-.117-.308-.37-.255-.917.118-1.222M131.5 136.896c.373-.306.925-.253 1.233.117.308.37.255.917-.118 1.222-.374.305-.926.253-1.234-.117-.308-.37-.255-.918.119-1.222M105.486 181.412c.373-.305.926-.253 1.234.117.307.37.255.917-.119 1.222-.373.306-.925.253-1.233-.117-.309-.37-.255-.917.118-1.222M117.178 87.238c.128.154.106.382-.05.509-.155.126-.385.105-.514-.05-.128-.154-.106-.381.05-.508.155-.128.385-.106.514.049M138.388 112.044c.18.216.148.535-.07.713-.217.178-.54.147-.72-.069-.178-.216-.147-.535.07-.713.218-.178.54-.147.72.069M95.643 129.564c.373-.305.926-.252 1.234.118.308.37.255.917-.118 1.222-.374.305-.926.252-1.235-.117-.307-.37-.254-.917.119-1.223M126.812 75.376c.345-.113.717.072.831.413.114.341-.072.71-.416.823-.345.113-.717-.071-.831-.413-.115-.341.072-.71.416-.823M112.655 109.695c-.115-.341.072-.71.416-.823.345-.113.717.072.831.413.115.341-.072.71-.417.823-.344.113-.716-.071-.83-.413M114.137 143.05c.128.154.106.382-.05.509-.155.127-.385.105-.513-.05-.129-.153-.106-.382.05-.508.155-.128.385-.106.513.048M128.928 59.745c.18.215.149.534-.069.713-.218.177-.54.147-.72-.07-.179-.215-.148-.534.07-.712.218-.178.54-.148.72.069M121.575 191.131c.373-.305.925-.252 1.234.118.307.37.254.917-.119 1.222-.373.305-.925.252-1.234-.118-.308-.37-.254-.917.119-1.222M48.078 119.202c.19-.062.398.04.461.23.064.19-.04.394-.231.457-.192.063-.398-.04-.462-.23-.063-.189.04-.394.232-.457M69.904 125.653c.345-.113.716.071.83.413.115.341-.072.71-.416.823-.345.113-.717-.072-.83-.413-.115-.341.071-.71.416-.823M46.415 141.759c.191-.063.398.04.462.23.063.189-.04.393-.232.456-.191.063-.398-.04-.462-.23-.063-.189.04-.394.232-.456M52.278 91.43c.344-.114.716.07.83.412.115.342-.072.71-.416.823-.345.113-.717-.071-.83-.412-.115-.342.071-.71.416-.824M57.846 164.793c.128.154.106.382-.05.509-.155.127-.385.105-.514-.049-.128-.154-.106-.382.05-.51.155-.126.385-.105.514.05M59.622 144.864c.373-.305.926-.253 1.234.117.308.37.255.917-.119 1.222-.373.305-.925.253-1.234-.117-.308-.37-.254-.917.12-1.222M44.338 166.685c.373-.306.925-.253 1.233.117.308.37.255.917-.118 1.222-.374.305-.926.253-1.234-.117-.308-.37-.255-.917.119-1.222M60.216 177.73c.373-.305.926-.253 1.233.118.308.37.255.917-.118 1.222-.374.305-.926.252-1.234-.118-.308-.37-.254-.917.119-1.222M41.502 90.25c.128.154.106.382-.05.509-.155.127-.385.105-.513-.049-.129-.154-.106-.382.049-.509s.386-.105.514.049M62.374 81.92c.18.216.149.535-.069.713-.218.178-.54.147-.72-.069-.179-.215-.148-.535.07-.713.218-.178.54-.147.72.069M58.143 110.82c.373-.304.926-.252 1.234.118.308.37.255.917-.118 1.222-.374.305-.926.253-1.235-.117-.307-.37-.254-.917.119-1.222M46.069 69.686c.345-.113.717.071.831.413.114.341-.072.71-.417.823-.344.113-.716-.071-.83-.413-.115-.341.071-.71.416-.823M34.952 107.352c-.115-.341.072-.71.417-.823.344-.113.716.072.83.413.115.341-.072.71-.416.823-.345.113-.717-.071-.831-.413M35.42 127.653c.13.154.107.382-.049.509-.155.127-.385.105-.513-.049-.129-.154-.106-.382.049-.51.155-.126.385-.105.514.05M60.347 72.129c.18.216.149.535-.069.713-.218.178-.54.147-.72-.069-.179-.216-.148-.535.07-.713.218-.178.54-.147.72.069M46.237 190.127c.373-.305.926-.253 1.234.118.307.37.254.917-.119 1.222-.373.305-.925.252-1.234-.118-.307-.37-.254-.917.119-1.222M58.783 36.557c.191-.062.398.04.462.23.063.19-.04.394-.232.457-.191.063-.398-.04-.462-.23-.063-.19.04-.394.232-.457M66.082 48.028c.345-.113.717.072.831.413.115.342-.072.71-.417.823-.344.114-.716-.071-.83-.413-.115-.34.072-.71.416-.823M57.12 59.113c.191-.063.399.04.462.23.064.19-.04.394-.232.457-.191.063-.398-.04-.461-.23-.064-.189.04-.394.231-.457M122.78 39.577c.345-.113.717.072.831.413.115.342-.072.71-.416.823-.345.114-.717-.071-.831-.412-.115-.342.072-.71.416-.824M57.626 204.402c-.128.154-.358.176-.514.05-.155-.128-.178-.356-.05-.51.13-.154.36-.176.515-.049.155.127.177.355.049.51M92.24 214.054c.372.306.426.853.118 1.223-.309.37-.86.422-1.234.117s-.426-.852-.119-1.222c.309-.37.86-.423 1.234-.118M85.991 29.36c.129.155.106.383-.05.51-.155.127-.385.105-.513-.049-.129-.154-.106-.382.05-.509.154-.127.385-.105.513.049M107.201 39.774c.18.216.149.536-.069.713-.218.178-.54.148-.72-.068-.179-.216-.148-.535.07-.713.218-.178.54-.147.72.068M68.849 28.175c.373-.305.925-.252 1.233.118.308.37.255.917-.118 1.222-.373.305-.926.253-1.234-.117-.308-.37-.255-.917.119-1.223M96.333 27.385c-.114-.342.072-.71.416-.823.345-.114.717.071.832.412.114.342-.073.71-.417.823-.345.114-.717-.071-.831-.412M45.45 45.008c.13.154.107.382-.049.509-.155.127-.385.105-.514-.05-.128-.153-.106-.381.05-.508.155-.128.385-.106.514.049M72.035 204.499c.373.305.426.852.118 1.222s-.86.422-1.234.118c-.373-.306-.426-.853-.118-1.223.308-.37.86-.422 1.234-.117M122.969 174.365c.19-.063.398.04.461.23.064.19-.04.394-.231.457-.192.062-.398-.04-.462-.23s.04-.394.232-.457" transform="translate(-1081 -1880) translate(1083 1882) translate(8.446 10.878)"/>
                </g>
            </g>
        </g>
    </g>
</svg>
