<svg xmlns="http://www.w3.org/2000/svg" width="191" height="269" viewBox="0 0 191 269"><title>Пятёрка Кубков</title>
    <g fill="none" fill-rule="evenodd">
        <g>
            <g>
                <path fill="#152230" stroke="#FFF" stroke-linecap="round" stroke-linejoin="round" stroke-width="2.5" d="M177.795 266.063H9.62c-5.22 0-9.452-4.233-9.452-9.453V9.838C.17 4.617 4.401.385 9.621.385h168.174c5.22 0 9.452 4.232 9.452 9.453V256.61c0 5.22-4.232 9.453-9.452 9.453z" transform="translate(-191 -1515) translate(193 1516)"/>
                <path fill="#D1A448" fill-rule="nonzero" d="M57.113 254.12v-4.92h3.378v-.732h-3.378v-4.433h3.524v-.73h-4.336v10.815h.812zm5.879 0v-10.816h-.812v10.816h.812zm5.066 0l2.436-10.816h-.844c-1.267 5.717-1.992 9.035-2.176 9.955-.152-.736-.877-4.054-2.176-9.955h-.845l2.436 10.816h1.17zm8.38 0v-.731h-3.67v-4.352h3.199v-.73h-3.2v-4.272h3.671v-.73h-4.482v10.815h4.482zm7.373.162c.855 0 1.5-.23 1.932-.69.433-.46.65-1.058.65-1.794v-6.171c0-.737-.217-1.335-.65-1.795-.433-.46-1.077-.69-1.932-.69-.856 0-1.5.23-1.933.69-.433.46-.65 1.058-.65 1.795v6.17c0 .737.217 1.335.65 1.795.433.46 1.077.69 1.933.69zm0-.73c-1.18 0-1.77-.585-1.77-1.754v-6.171c0-1.17.59-1.754 1.77-1.754 1.18 0 1.77.584 1.77 1.754v6.17c0 1.17-.59 1.754-1.77 1.754zm5.667.568v-4.92h3.378v-.732h-3.378v-4.433h3.524v-.73h-4.336v10.815h.812zm10.394 0l.99-5.717c.238-1.364.412-2.636.52-3.816.119 1.18.628 4.358 1.526 9.533h1.17l1.883-10.816h-.844c-.899 5.446-1.44 8.808-1.624 10.085l-.422-2.842-1.202-7.243h-.958l-1.202 7.227c-.162.953-.303 1.905-.422 2.858l-.422-2.842-1.202-7.243h-.845l1.884 10.816h1.17zm7.665 0l.73-3.167h3.086l.73 3.167h.845l-2.533-10.816h-1.17l-2.533 10.816h.845zm3.653-3.898h-2.76l1.38-5.992 1.38 5.992zm5.18 3.898v-10.085h2.144v-.73h-5.099v.73h2.144v10.085h.812zm8.007 0v-.731h-3.67v-4.352h3.199v-.73h-3.2v-4.272h3.67v-.73h-4.481v10.815h4.482zm2.68 0v-4.466h1.575c.173 0 .303-.005.39-.016l1.607 4.482h.893l-1.705-4.66c.931-.347 1.397-1.094 1.397-2.242v-1.478c0-.736-.217-1.326-.65-1.77-.433-.444-1.077-.666-1.932-.666h-2.388v10.816h.812zm1.575-5.23h-1.576v-4.855h1.576c1.18 0 1.77.568 1.77 1.705v1.478c0 1.115-.59 1.673-1.77 1.673z" transform="translate(-191 -1515) translate(193 1516)"/>
                <g stroke="#FFF" stroke-linecap="round" stroke-linejoin="round" stroke-width="1.875">
                    <path d="M81.947.496L148.405.496 148.405 223.652M.301.496L56.82.496M138.336 236.617L114.432 236.617" transform="translate(-191 -1515) translate(193 1516) translate(24.324 14.574)"/>
                </g>
                <path fill="#D1A448" fill-rule="nonzero" d="M94.293 19.102l2.436-10.815h-.845c-1.266 5.716-1.992 9.034-2.176 9.954-.151-.736-.877-4.054-2.176-9.954h-.844l2.436 10.815h1.169z" transform="translate(-191 -1515) translate(193 1516)"/>
                <g>
                    <path fill="#000" d="M164.444 233.846L167.067 238.389 169.689 242.931 164.444 242.931 159.2 242.931 161.822 238.389z" transform="translate(-191 -1515) translate(193 1516) translate(8.446 11.196)"/>
                    <path stroke="#44E7D9" stroke-linecap="round" stroke-linejoin="round" stroke-width="1.875" d="M164.444 233.846L167.067 238.389 169.689 242.931 164.444 242.931 159.2 242.931 161.822 238.389z" transform="translate(-191 -1515) translate(193 1516) translate(8.446 11.196)"/>
                    <path fill="#000" d="M5.572 9.11L2.95 4.567 0.328 0.025 5.572 0.025 10.817 0.025 8.195 4.567z" transform="translate(-191 -1515) translate(193 1516) translate(8.446 11.196)"/>
                    <path stroke="#44E7D9" stroke-linecap="round" stroke-linejoin="round" stroke-width="1.875" d="M5.572 9.11L2.95 4.567 0.328 0.025 5.572 0.025 10.817 0.025 8.195 4.567z" transform="translate(-191 -1515) translate(193 1516) translate(8.446 11.196)"/>
                    <path stroke="#D1A448" stroke-width="1.875" d="M135.832 152.454c.453 10.152-3.572 17.749-9.941 17.89-6.295.138-10.34-7.62-9.68-18.033M123.886 170.011L123.845 175.723M127.784 170.04L127.742 175.751M125.878 176.287c-1.186-.009-1.778-.132-2.25-.49 0 0-.597.588-.008 1.185 0 0 .709.36 2.013.37M123.853 177.561l-.036 4.98s.47.596 2.011.607c1.541.011 1.901-.58 1.901-.58l.036-4.979M124.853 170.455L124.813 176.027M124.801 177.568L124.764 182.784M126.274 170.702L126.237 175.8M126.221 177.934L126.205 180.187M126.201 180.779L126.186 182.795M127.46 170.711L127.427 175.097M127.407 177.942L127.373 182.566" transform="translate(-191 -1515) translate(193 1516) translate(8.446 11.196)"/>
                    <path stroke="#D1A448" stroke-width="1.875" d="M125.65 176.285c1.185.008 1.779-.105 2.256-.458 0 0 .588.597-.01 1.185 0 0-.713.351-2.017.342M135.773 152.512c-.009 1.113-4.368 1.984-9.737 1.945-5.369-.039-9.715-.973-9.707-2.086.008-1.113 4.367-1.984 9.736-1.945 5.37.039 9.715.973 9.708 2.086zM123.503 181.676c-1.27.107-4.005.404-5.533 1.076 0 0-1.85 1.066 2.193 1.887M127.895 181.643c1.268.14 3.993.511 5.502 1.223 0 0 1.82 1.116-2.243 1.828M120.893 184.675s4.737.745 9.848.071" transform="translate(-191 -1515) translate(193 1516) translate(8.446 11.196)"/>
                    <path stroke="#D1A448" stroke-width="1.875" d="M117.55 183.05s-.782.41-.423 1.123c.36.714 3.272 1.565 7.041 1.593M127.137 185.79c3.768.027 6.693-.781 7.062-1.49.37-.709-.406-1.129-.406-1.129M124.533 185.768s1.372.06 2.31.017M135.697 154.277c-.008 1.113-4.368 1.983-9.736 1.945-5.37-.04-9.716-.973-9.708-2.087M125.875 166.827s-.17-1.532.742-2.578c0 0 .705-.931 1.857-1.297 0 0-.095 1.543-.65 2.256 0 0-.393.759-1.949 1.62z" transform="translate(-191 -1515) translate(193 1516) translate(8.446 11.196)"/>
                    <path stroke="#D1A448" stroke-width="1.875" d="M125.964 166.807s.192-1.53-.705-2.589c0 0-.69-.941-1.838-1.324 0 0 .073 1.544.617 2.265 0 0 .382.765 1.926 1.648zM125.946 166.876s.603-1.418 1.91-1.883c0 0 1.071-.466 2.255-.22 0 0-.84 1.298-1.672 1.647 0 0-.714.47-2.493.456z" transform="translate(-191 -1515) translate(193 1516) translate(8.446 11.196)"/>
                    <path stroke="#D1A448" stroke-width="1.875" d="M125.945 166.876s-.583-1.427-1.883-1.91c0 0-1.064-.482-2.251-.254 0 0 .82 1.31 1.648 1.672 0 0 .707.48 2.486.492z" transform="translate(-191 -1515) translate(193 1516) translate(8.446 11.196)"/>
                    <path stroke="#D1A448" stroke-width="1.875" d="M125.957 166.79s-.946-1.216-.716-2.584c0 0 .113-1.163.903-2.078 0 0 .726 1.365.627 2.263 0 0 .062.852-.814 2.4zM117.257 159.046s.885 5.503 3.56 8.268M117.118 158.068s-.114-.712-.11-1.305M117.232 158.662L117.233 158.543" transform="translate(-191 -1515) translate(193 1516) translate(8.446 11.196)"/>
                    <path stroke="#44E7D9" stroke-width="1.875" d="M128.556 154.236s-1.24-.094-.945-.52c.295-.426.004-.428-.58-.432-.584-.005-1.533.16-.805.336 0 0 .618.208.434.632M117.416 153.172s3.72-1.797 6.856-1.689M124.856 151.487L126.205 151.497M126.652 151.5s5.448.03 8.046 1.723" transform="translate(-191 -1515) translate(193 1516) translate(8.446 11.196)"/>
                    <path stroke="#44E7D9" stroke-width="1.875" d="M123.137 154.187s.28-.544-.669-.38c-.95.164-.979-.735.332-.554 1.312.18 2.772.106 2.557-.41-.215-.514-1.605-.011-1.53-.438.077-.428 1.243-.334 1.9-.33.656.006 1.608-.415 2.553.02.945.434-1.024.335-.37.767.653.433 1.971-.328 2.334-.069.363.26-.515.596-.663.852-.147.255.742.385.742.385" transform="translate(-191 -1515) translate(193 1516) translate(8.446 11.196)"/>
                    <path fill="#D1A448" d="M97.481 67.87s3.912-5.215 11.082-5.866c7.171-.653 18.253 1.955 18.253 1.955s-9.778-1.304-14.993-1.304S97.48 67.87 97.48 67.87" transform="translate(-191 -1515) translate(193 1516) translate(8.446 11.196)"/>
                    <path stroke="#D1A448" stroke-linecap="round" stroke-linejoin="round" stroke-width="1.875" d="M97.481 67.87s3.912-5.215 11.082-5.866c7.171-.653 18.253 1.955 18.253 1.955s-9.778-1.304-14.993-1.304S97.48 67.87 97.48 67.87z" transform="translate(-191 -1515) translate(193 1516) translate(8.446 11.196)"/>
                    <path fill="#D1A448" d="M81.368 67.516s-3.911-5.215-11.082-5.867c-7.17-.652-18.252 1.956-18.252 1.956S61.812 62.3 67.027 62.3s14.341 5.215 14.341 5.215" transform="translate(-191 -1515) translate(193 1516) translate(8.446 11.196)"/>
                    <path stroke="#D1A448" stroke-linecap="round" stroke-linejoin="round" stroke-width="1.875" d="M81.368 67.516s-3.911-5.215-11.082-5.867c-7.17-.652-18.252 1.956-18.252 1.956S61.812 62.3 67.027 62.3s14.341 5.215 14.341 5.215z" transform="translate(-191 -1515) translate(193 1516) translate(8.446 11.196)"/>
                    <path stroke="#D1A448" stroke-width="1.875" d="M36.118 91.81L135.787 91.81" transform="translate(-191 -1515) translate(193 1516) translate(8.446 11.196)"/>
                    <path stroke="#FFF" stroke-width="1.875" d="M85.143 76.012s.765 5.863 0 8.667" transform="translate(-191 -1515) translate(193 1516) translate(8.446 11.196)"/>
                    <path stroke="#44E7D9" stroke-width="1.875" d="M71.246 112.7c6.398 1.917 7.04 5.059 3.873 8.17-3.75 3.683-23.962 9.941-31.354 12.236-4.633 1.437-28.358 7.306-27.791 16.664.51 8.412 18.614 10.866 24.987 10.866 5.056 0 29.669 1.533 18.098 8.157-9.1 5.21-27.773 4.516-43.59 15.04 0 0-3.982 2.788-7.53 6.497M96.759 91.81s2.83 1.53.027 2.804c-2.804 1.275-50.472 3.824-51.747 9.177-1.274 5.353 5.863 5.098 18.863 7.138 1.626.254 3.084.55 4.383.876" transform="translate(-191 -1515) translate(193 1516) translate(8.446 11.196)"/>
                    <path stroke="#44E7D9" stroke-width="1.875" d="M74.695 133.838c-9.967 3.928-19.389 7.609-21.498 9.72-4.334 4.333 4.63 6.806 14.02 8.156 9.448 1.359 37.61 5.069 20.647 18.608-17.142 13.682-47.968 9.346-55.612 24.614M106.424 91.81s3.617 3.06.813 5.863c-2.804 2.804-32.498 4.286-33.393 6.883-.586 1.702 3.782 3.464 16.569 4.078 15.286.734 17.552 7.623 9.687 13.51-4.071 3.048-13.576 7.041-23.146 10.802M72.57 99.967s-17.334 2.04-16.824 4.589c.51 2.549 9.941 1.784 14.02 3.569" transform="translate(-191 -1515) translate(193 1516) translate(8.446 11.196)"/>
                    <path stroke="#44E7D9" stroke-width="1.875" d="M83.02 111.948s6.373.51 10.707 1.784c4.334 1.275 5.098 5.864-8.922 10.962s-13.255 3.313-17.843 5.607M63.393 131.066s-36.198 8.922-36.198 17.334c0 8.412 13.256 5.098 16.06 6.118M47.008 155.194c-2.011-.024 22.268 1.18 25.746 4.078 4.588 3.824 5.608 8.922-9.687 14.785 0 0-13.765 4.078-17.079 4.588M42.235 178.99s-17.275 5.08-26.01 12.895M28.215 189.696s-1.656.828-3.218 2.453c-.284.295-.564.617-.83.964M81.746 157.067s9.687 6.628-.765 13.255" transform="translate(-191 -1515) translate(193 1516) translate(8.446 11.196)"/>
                    <path stroke="#44E7D9" stroke-width="1.875" d="M48.353 140.753s-9.177 2.549-9.942 6.882c-.764 4.334 9.687 2.55 18.864 4.844M85.825 116.537s5.098 1.529 0 4.588M68.325 160.203s4.843 1.02 4.334 4.843M26.686 154.518s2.294 3.059 12.49 2.55M106.005 95.328s1.163 2.311-7.447 2.6M98.836 80.452L98.836 91.81M101.665 79.787L101.665 83.166M101.665 83.841L101.665 84.517M101.665 85.531L101.665 91.95" transform="translate(-191 -1515) translate(193 1516) translate(8.446 11.196)"/>
                    <path stroke="#D1A448" stroke-width="1.875" d="M132.715 96.482c.316 5.392-1.767 9.46-5.15 9.581-3.345.12-5.552-3.973-5.278-9.512M126.496 105.901L126.516 108.937M128.567 105.888L128.588 108.924M127.6 109.222c-.63.004-.945-.057-1.198-.245 0 0-.313.317.004.63 0 0 .38.187 1.072.182M126.534 109.914l.018 2.646s.254.314 1.073.308c.819-.005 1.006-.322 1.006-.322l-.017-2.646M127.013 106.13L127.033 109.091M127.038 109.91L127.057 112.683M127.77 106.251L127.788 108.96M127.796 110.094L127.804 111.292M127.806 111.607L127.813 112.678M128.4 106.247L128.416 108.578M128.426 110.09L128.442 112.548" transform="translate(-191 -1515) translate(193 1516) translate(8.446 11.196)"/>
                    <path stroke="#D1A448" stroke-width="1.875" d="M127.48 109.222c.63-.004.944-.069 1.195-.26 0 0 .318.313.004.63 0 0-.376.192-1.07.197M132.684 96.514c.004.592-2.306 1.087-5.16 1.105-2.854.02-5.17-.445-5.174-1.036-.004-.592 2.306-1.087 5.16-1.106 2.853-.019 5.17.445 5.174 1.037zM126.379 112.103c-.675.066-2.126.245-2.933.613 0 0-.975.58 1.18.986M128.713 112.053c.675.065 2.125.242 2.933.61 0 0 .975.58-1.18.988M125.014 113.716s2.522.361 5.234-.035" transform="translate(-191 -1515) translate(193 1516) translate(8.446 11.196)"/>
                    <path stroke="#D1A448" stroke-width="1.875" d="M123.225 112.877s-.413.223-.217.6c.197.377 1.75.808 3.754.795M128.34 114.263c2.003-.013 3.551-.465 3.742-.844.192-.38-.224-.598-.224-.598M126.956 114.27s.73.022 1.228-.008M132.656 97.452c.005.592-2.306 1.087-5.159 1.105-2.854.02-5.17-.445-5.174-1.036M127.53 104.195s-.102-.813.375-1.376c0 0 .367-.5.977-.703 0 0-.039.82-.329 1.204 0 0-.203.406-1.024.875z" transform="translate(-191 -1515) translate(193 1516) translate(8.446 11.196)"/>
                    <path stroke="#D1A448" stroke-width="1.875" d="M127.577 104.183s.09-.814-.394-1.37c0 0-.374-.496-.986-.69 0 0 .05.82.344 1.199 0 0 .209.403 1.036.861zM127.568 104.22s.31-.758 1.001-1.015c0 0 .566-.256 1.196-.133 0 0-.436.695-.876.887 0 0-.376.255-1.321.261z" transform="translate(-191 -1515) translate(193 1516) translate(8.446 11.196)"/>
                    <path stroke="#D1A448" stroke-width="1.875" d="M127.567 104.22s-.32-.754-1.015-1.001c0 0-.569-.249-1.198-.118 0 0 .446.69.888.876 0 0 .38.25 1.325.243z" transform="translate(-191 -1515) translate(193 1516) translate(8.446 11.196)"/>
                    <path stroke="#D1A448" stroke-width="1.875" d="M127.573 104.175s-.512-.64-.4-1.37c0 0 .052-.617.465-1.11 0 0 .396.72.35 1.198 0 0 .04.453-.415 1.282zM122.892 100.123s.511 2.918 1.953 4.368M122.811 99.604s-.066-.377-.068-.693M122.876 99.919L122.876 99.856" transform="translate(-191 -1515) translate(193 1516) translate(8.446 11.196)"/>
                    <path stroke="#44E7D9" stroke-width="1.875" d="M128.861 97.483s-.659-.04-.505-.27c.153-.228-.002-.227-.312-.225-.31.002-.813.097-.425.185 0 0 .33.106.235.333M122.933 97s1.964-.982 3.631-.948M126.875 96.05L127.592 96.045M127.83 96.044s2.895-.025 4.288.856" transform="translate(-191 -1515) translate(193 1516) translate(8.446 11.196)"/>
                    <path stroke="#44E7D9" stroke-width="1.875" d="M125.98 97.497s.146-.291-.357-.197c-.503.094-.526-.383.172-.297.699.087 1.474.036 1.356-.236-.118-.272-.853.005-.816-.222.037-.228.658-.186 1.007-.189.349-.002.851-.233 1.357-.008.505.223-.542.185-.191.41.35.225 1.045-.189 1.24-.054.195.135-.27.32-.346.457-.077.138.397.2.397.2" transform="translate(-191 -1515) translate(193 1516) translate(8.446 11.196)"/>
                    <g>
                        <path fill="#000" d="M16.818.092c.5 8.526-2.794 14.957-8.145 15.15C3.385 15.432-.105 8.959.328.2" transform="translate(-191 -1515) translate(193 1516) translate(8.446 11.196) translate(90.878 120.27)"/>
                        <path stroke="#D1A448" stroke-width="1.875" d="M16.818.092c.5 8.526-2.794 14.957-8.145 15.15C3.385 15.432-.105 8.959.328.2" transform="translate(-191 -1515) translate(193 1516) translate(8.446 11.196) translate(90.878 120.27)"/>
                    </g>
                    <path stroke="#D1A448" stroke-width="1.875" d="M97.863 135.256L97.895 140.057M101.138 135.234L101.17 140.035M99.61 140.507c-.997.006-1.496-.09-1.896-.387 0 0-.495.502.006.997 0 0 .6.295 1.696.287M97.923 141.6l.028 4.186s.401.495 1.697.487c1.295-.009 1.59-.509 1.59-.509l-.027-4.185M98.68 135.617L98.711 140.3M98.72 141.596L98.749 145.98M99.877 135.809L99.906 140.093M99.918 141.887L99.93 143.78M99.933 144.278L99.944 145.972M100.874 135.802L100.898 139.489M100.914 141.88L100.94 145.766" transform="translate(-191 -1515) translate(193 1516) translate(8.446 11.196)"/>
                    <path stroke="#D1A448" stroke-width="1.875" d="M99.418 140.507c.996-.006 1.494-.109 1.89-.41 0 0 .502.494.007.996 0 0-.596.303-1.692.31" transform="translate(-191 -1515) translate(193 1516) translate(8.446 11.196)"/>
                    <path fill="#000" d="M107.647 120.412c.007.936-3.647 1.718-8.159 1.748-4.512.03-8.176-.704-8.182-1.64-.006-.935 3.647-1.718 8.16-1.748 4.512-.03 8.175.704 8.181 1.64" transform="translate(-191 -1515) translate(193 1516) translate(8.446 11.196)"/>
                    <path stroke="#D1A448" stroke-width="1.875" d="M107.647 120.412c.007.936-3.647 1.718-8.159 1.748-4.512.03-8.176-.704-8.182-1.64-.006-.935 3.647-1.718 8.16-1.748 4.512-.03 8.175.704 8.181 1.64zM97.677 145.063c-1.067.105-3.36.386-4.637.968 0 0-1.542.918 1.864 1.561M101.368 144.984c1.067.104 3.36.383 4.638.964 0 0 1.542.916-1.864 1.563M95.518 147.613s3.99.572 8.277-.054" transform="translate(-191 -1515) translate(193 1516) translate(8.446 11.196)"/>
                    <path stroke="#D1A448" stroke-width="1.875" d="M92.69 146.287s-.653.353-.342.949c.31.596 2.768 1.277 5.936 1.256M100.778 148.478c3.168-.02 5.616-.735 5.919-1.334.302-.6-.355-.945-.355-.945M98.59 148.49s1.154.034 1.941-.013M107.604 121.895c.007.936-3.647 1.719-8.159 1.749-4.513.03-8.176-.705-8.182-1.64M99.497 132.557s-.16-1.285.594-2.175c0 0 .58-.79 1.545-1.112 0 0-.062 1.298-.52 1.903 0 0-.321.643-1.62 1.384z" transform="translate(-191 -1515) translate(193 1516) translate(8.446 11.196)"/>
                    <path stroke="#D1A448" stroke-width="1.875" d="M99.571 132.539s.144-1.288-.622-2.167c0 0-.592-.783-1.56-1.092 0 0 .08 1.297.545 1.896 0 0 .33.639 1.637 1.363zM99.557 132.598s.49-1.2 1.584-1.605c0 0 .894-.404 1.892-.212 0 0-.69 1.1-1.386 1.404 0 0-.595.403-2.09.413z" transform="translate(-191 -1515) translate(193 1516) translate(8.446 11.196)"/>
                    <path stroke="#D1A448" stroke-width="1.875" d="M99.556 132.598s-.506-1.193-1.605-1.584c0 0-.9-.393-1.894-.187 0 0 .705 1.092 1.404 1.386 0 0 .6.394 2.095.385z" transform="translate(-191 -1515) translate(193 1516) translate(8.446 11.196)"/>
                    <path stroke="#D1A448" stroke-width="1.875" d="M99.566 132.526s-.81-1.012-.633-2.164c0 0 .081-.978.735-1.757 0 0 .626 1.139.553 1.894 0 0 .062.716-.655 2.027zM92.164 126.119s.808 4.614 3.088 6.906M92.035 125.298s-.103-.597-.106-1.095M92.138 125.796L92.138 125.696" transform="translate(-191 -1515) translate(193 1516) translate(8.446 11.196)"/>
                    <path stroke="#44E7D9" stroke-width="1.875" d="M101.603 121.945s-1.043-.065-.8-.426c.243-.362-.002-.36-.492-.357-.491.003-1.287.153-.673.292 0 0 .521.168.371.526M92.23 121.18s3.104-1.553 5.74-1.499M98.462 119.678L99.596 119.671M99.971 119.668s4.579-.038 6.781 1.354" transform="translate(-191 -1515) translate(193 1516) translate(8.446 11.196)"/>
                    <path stroke="#44E7D9" stroke-width="1.875" d="M97.048 121.966s.23-.46-.566-.31c-.796.149-.832-.607.273-.47 1.104.136 2.33.056 2.143-.374-.187-.43-1.349.009-1.29-.351.06-.36 1.04-.295 1.592-.299.552-.003 1.347-.368 2.146-.014.8.355-.856.294-.303.65.555.356 1.654-.3 1.962-.085.308.213-.426.506-.547.723-.122.216.628.315.628.315" transform="translate(-191 -1515) translate(193 1516) translate(8.446 11.196)"/>
                    <path stroke="#D1A448" stroke-width="1.875" d="M87.07 183.569c.694 11.849-3.883 20.786-11.32 21.054-7.349.264-12.197-8.73-11.596-20.902M73.404 204.267L73.448 210.938M77.955 204.237L78 210.908M75.831 211.563c-1.384.01-2.077-.124-2.634-.536 0 0-.688.697.009 1.385 0 0 .833.41 2.356.4M73.487 213.085l.039 5.815s.559.689 2.359.677c1.8-.012 2.21-.707 2.21-.707l-.038-5.816M74.54 204.769L74.583 211.277M74.595 213.077L74.635 219.17M76.204 205.035L76.243 210.989M76.26 213.481L76.277 216.113M76.281 216.805L76.297 219.159M77.588 205.026L77.622 210.149M77.644 213.473L77.68 218.873" transform="translate(-191 -1515) translate(193 1516) translate(8.446 11.196)"/>
                    <path stroke="#D1A448" stroke-width="1.875" d="M75.565 211.565c1.385-.009 2.076-.152 2.627-.571 0 0 .697.688.01 1.384 0 0-.829.421-2.352.432M87.001 183.639c.009 1.3-5.068 2.387-11.339 2.429-6.27.041-11.36-.98-11.37-2.28-.008-1.3 5.068-2.387 11.34-2.428 6.27-.042 11.36.978 11.37 2.279zM73.146 217.896c-1.483.145-4.67.537-6.445 1.345 0 0-2.143 1.276 2.591 2.17M78.274 217.786c1.484.144 4.671.532 6.446 1.34 0 0 2.143 1.273-2.59 2.17M70.146 221.44s5.543.794 11.502-.077" transform="translate(-191 -1515) translate(193 1516) translate(8.446 11.196)"/>
                    <path stroke="#D1A448" stroke-width="1.875" d="M66.215 219.597s-.907.49-.475 1.318c.432.828 3.846 1.775 8.248 1.746M77.456 222.641c4.402-.029 7.803-1.02 8.224-1.854.42-.834-.493-1.312-.493-1.312M74.414 222.658s1.604.048 2.698-.018M86.941 185.7c.009 1.3-5.067 2.388-11.338 2.429-6.271.042-11.362-.978-11.37-2.278M75.675 200.517s-.223-1.787.825-3.023c0 0 .807-1.099 2.147-1.545 0 0-.086 1.803-.722 2.645 0 0-.446.893-2.25 1.923z" transform="translate(-191 -1515) translate(193 1516) translate(8.446 11.196)"/>
                    <path stroke="#D1A448" stroke-width="1.875" d="M75.778 200.49s.2-1.788-.865-3.01c0 0-.822-1.089-2.167-1.517 0 0 .11 1.802.757 2.635 0 0 .458.886 2.275 1.893zM75.758 200.573s.682-1.667 2.201-2.23c0 0 1.243-.563 2.63-.295 0 0-.96 1.53-1.926 1.952 0 0-.827.559-2.905.573z" transform="translate(-191 -1515) translate(193 1516) translate(8.446 11.196)"/>
                    <path stroke="#D1A448" stroke-width="1.875" d="M75.757 200.573s-.703-1.657-2.23-2.201c0 0-1.25-.546-2.633-.26 0 0 .98 1.517 1.952 1.926 0 0 .834.549 2.91.535z" transform="translate(-191 -1515) translate(193 1516) translate(8.446 11.196)"/>
                    <path stroke="#D1A448" stroke-width="1.875" d="M75.77 200.473s-1.125-1.406-.879-3.008c0 0 .113-1.36 1.022-2.44 0 0 .87 1.582.769 2.631 0 0 .086.995-.912 2.817zM65.484 191.569s1.123 6.412 4.292 9.598M65.306 190.429s-.144-.83-.149-1.522M65.449 191.121L65.448 190.982" transform="translate(-191 -1515) translate(193 1516) translate(8.446 11.196)"/>
                    <path stroke="#44E7D9" stroke-width="1.875" d="M78.601 185.769s-1.448-.09-1.11-.593c.336-.502-.004-.5-.686-.495-.681.004-1.787.212-.934.406 0 0 .725.233.516.73M65.575 184.707s4.315-2.16 7.98-2.084M74.237 182.618L75.812 182.608M76.334 182.605s6.362-.054 9.424 1.88" transform="translate(-191 -1515) translate(193 1516) translate(8.446 11.196)"/>
                    <path stroke="#44E7D9" stroke-width="1.875" d="M72.272 185.799s.32-.64-.787-.433c-1.106.207-1.155-.842.38-.652 1.534.19 3.237.078 2.978-.52-.26-.598-1.874.013-1.793-.488.082-.5 1.446-.41 2.213-.414.766-.006 1.87-.513 2.981-.02 1.111.492-1.19.408-.42.902.77.495 2.298-.415 2.726-.118.428.298-.592.704-.76 1.005-.169.301.872.439.872.439" transform="translate(-191 -1515) translate(193 1516) translate(8.446 11.196)"/>
                    <path fill="#FFF" d="M95.043 80.8s1.078-1.29 3.365-1.752c0 0 2.037.165 7.3 1.02 5.264.856 12.86-2.705 12.86-2.705s-1.079 1.29-4.193 2.416c-3.114 1.125-9.725 1.882-14.469.08 0 0-2.055-.468-4.863.94" transform="translate(-191 -1515) translate(193 1516) translate(8.446 11.196)"/>
                    <path stroke="#FFF" stroke-width="1.875" d="M97.067 76.1s2.35-4.113 5.753-5.259c3.402-1.145 10.703-.125 14.099 3.29" transform="translate(-191 -1515) translate(193 1516) translate(8.446 11.196)"/>
                    <path fill="#FFF" d="M117.94 77.927s.875 1.091 2.335 1.295c0 0-2.334-.293-3.088-.775 0 0 2.086 1.452 3.547 1.656 0 0-3.767.042-4.62-1.16 0 0 .489 1.747 1.968 2.254 0 0-1.59-.086-2.926-1.721 0 0 .445 1.89 2.25 2.983 0 0-2.439-.137-3.185-2.822 0 0-.193 1.534.765 2.988 0 0-1.498-.81-2.187-2.587 0 0-.175 1.837 1.053 2.969 0 0-1.48-.507-2.206-2.89 0 0 .094 1.514.727 2.383 0 0-.362.585-1.33-1.909 0 0-.4 2.028.522 2.877 0 0-1.677-.67-1.854-2.698 0 0-.527 1.644.124 2.816 0 0-.914-1.59-1.011-2.733 0 0-.236 1.298.109 2.187 0 0-.706-1.016-1.177-2.123 0 0-.59 1.636.024 2.202 0 0-.945-1.238-.874-2.416 0 0-.373.981-.01 2.172 0 0-.793-.322-.942-1.947 0 0-.593.532-.248 1.421 0 0-.921-.849-.978-1.757 0 0 5.727-.214 7.101-.625 0 0 3.502-.732 6.11-2.04M82.24 80.734s-1.056-1.31-3.335-1.814c0 0-2.04.127-7.317.884s-12.81-2.945-12.81-2.945 1.055 1.31 4.15 2.494c3.095 1.183 9.692 2.063 14.465.349 0 0 2.063-.429 4.846 1.032" transform="translate(-191 -1515) translate(193 1516) translate(8.446 11.196)"/>
                    <path stroke="#FFF" stroke-width="1.875" d="M80.295 75.997s-2.28-4.156-5.662-5.365c-3.383-1.208-10.7-.325-14.153 3.027" transform="translate(-191 -1515) translate(193 1516) translate(8.446 11.196)"/>
                    <path fill="#FFF" d="M59.395 77.435s-2.272.954-3.735 1.131c0 0 3.717-.129 4.479-.597 0 0-1.42 1.473-2.884 1.65 0 0 3.075.051 3.948-1.134 0 0-.518 1.738-2.005 2.217 0 0 1.591-.056 2.954-1.667 0 0 .213 1.943-1.61 3.001 0 0 1.75-.15 2.542-2.822 0 0 .168 1.537-.815 2.973 0 0 1.511-.781 2.23-2.545 0 0 .145 1.84-1.103 2.948 0 0 1.488-.479 2.255-2.847 0 0-.12 1.511-.767 2.368 0 0 .352.592 1.363-1.884 0 0 .364 2.035-.571 2.867 0 0 1.687-.639 1.898-2.663 0 0 .5 1.654-.171 2.813 0 0 .94-1.572 1.058-2.714 0 0 .213 1.303-.147 2.185 0 0 .723-1.002 1.213-2.102 0 0 .562 1.648-.061 2.203 0 0 .966-1.22.914-2.4 0 0 .357.988-.026 2.172 0 0 .798-.307.974-1.93 0 0 .584.544.225 1.426 0 0 .935-.831 1.007-1.738 0 0-5.723-.32-7.09-.758 0 0-3.49-.796-6.075-2.153" transform="translate(-191 -1515) translate(193 1516) translate(8.446 11.196)"/>
                    <path stroke="#44E7D9" stroke-width="1.875" d="M70.247 102.423s-5.068.337-8.109 1.35M62.476 133.841L52.679 136.544" transform="translate(-191 -1515) translate(193 1516) translate(8.446 11.196)"/>
                    <g>
                        <path fill="#000" d="M14.46.071c.43 7.317-2.398 12.836-6.99 13.001C2.933 13.236-.061 7.681.31.165" transform="translate(-191 -1515) translate(193 1516) translate(8.446 11.196) translate(31.757 101.014)"/>
                        <path stroke="#D1A448" stroke-width="1.875" d="M14.46.071c.43 7.317-2.398 12.836-6.99 13.001C2.933 13.236-.061 7.681.31.165" transform="translate(-191 -1515) translate(193 1516) translate(8.446 11.196) translate(31.757 101.014)"/>
                    </g>
                    <path stroke="#D1A448" stroke-width="1.875" d="M37.778 113.866L37.805 117.986M40.589 113.848L40.616 117.967M39.277 118.372c-.855.006-1.283-.078-1.626-.331 0 0-.425.43.005.855 0 0 .515.253 1.455.246M37.83 119.311l.024 3.591s.345.426 1.456.418c1.112-.007 1.365-.436 1.365-.436l-.023-3.591M38.48 114.176L38.507 118.195M38.514 119.307L38.539 123.069M39.507 114.341L39.531 118.017M39.542 119.556L39.552 121.181M39.555 121.609L39.565 123.062M40.362 114.335L40.383 117.498M40.397 119.551L40.419 122.885" transform="translate(-191 -1515) translate(193 1516) translate(8.446 11.196)"/>
                    <path stroke="#D1A448" stroke-width="1.875" d="M39.113 118.373c.855-.006 1.282-.094 1.622-.353 0 0 .43.425.006.855 0 0-.511.26-1.452.266" transform="translate(-191 -1515) translate(193 1516) translate(8.446 11.196)"/>
                    <path fill="#000" d="M46.175 101.128c.005.803-3.13 1.474-7.002 1.5-3.872.026-7.016-.605-7.021-1.407-.005-.803 3.13-1.475 7.002-1.5 3.872-.026 7.015.604 7.02 1.407" transform="translate(-191 -1515) translate(193 1516) translate(8.446 11.196)"/>
                    <path stroke="#D1A448" stroke-width="1.875" d="M46.175 101.128c.005.803-3.13 1.474-7.002 1.5-3.872.026-7.016-.605-7.021-1.407-.005-.803 3.13-1.475 7.002-1.5 3.872-.026 7.015.604 7.02 1.407zM37.62 122.282c-.917.09-2.885.331-3.98.831 0 0-1.324.788 1.6 1.34M40.786 122.214c.916.09 2.884.33 3.98.827 0 0 1.323.787-1.6 1.341M35.766 124.47s3.424.49 7.103-.047" transform="translate(-191 -1515) translate(193 1516) translate(8.446 11.196)"/>
                    <path stroke="#D1A448" stroke-width="1.875" d="M33.34 123.333s-.56.302-.294.814c.266.511 2.375 1.096 5.093 1.078M40.28 125.213c2.718-.019 4.82-.63 5.079-1.146.26-.514-.304-.81-.304-.81M38.402 125.223s.99.03 1.667-.011M46.138 102.4c.005.804-3.13 1.475-7.002 1.5-3.872.027-7.016-.604-7.021-1.406M39.18 111.55s-.137-1.103.51-1.866c0 0 .499-.679 1.326-.955 0 0-.053 1.114-.446 1.634 0 0-.276.551-1.39 1.187z" transform="translate(-191 -1515) translate(193 1516) translate(8.446 11.196)"/>
                    <path stroke="#D1A448" stroke-width="1.875" d="M39.244 111.534s.123-1.104-.534-1.86c0 0-.507-.671-1.338-.936 0 0 .068 1.113.467 1.627 0 0 .283.548 1.405 1.17zM39.232 111.585s.421-1.029 1.36-1.377c0 0 .767-.347 1.623-.182 0 0-.593.945-1.19 1.205 0 0-.51.346-1.793.354z" transform="translate(-191 -1515) translate(193 1516) translate(8.446 11.196)"/>
                    <path stroke="#D1A448" stroke-width="1.875" d="M39.231 111.585s-.434-1.023-1.377-1.36c0 0-.772-.336-1.626-.16 0 0 .605.937 1.205 1.19 0 0 .516.338 1.798.33z" transform="translate(-191 -1515) translate(193 1516) translate(8.446 11.196)"/>
                    <path stroke="#D1A448" stroke-width="1.875" d="M39.24 111.523s-.695-.868-.543-1.857c0 0 .07-.84.63-1.507 0 0 .538.977.475 1.625 0 0 .054.614-.563 1.739zM32.888 106.025s.693 3.96 2.65 5.927M32.778 105.32s-.09-.512-.092-.939M32.866 105.748L32.865 105.662" transform="translate(-191 -1515) translate(193 1516) translate(8.446 11.196)"/>
                    <path stroke="#44E7D9" stroke-width="1.875" d="M40.988 102.443s-.895-.055-.686-.366c.208-.31-.003-.308-.423-.305-.421.002-1.104.13-.577.25 0 0 .447.144.318.451M32.944 101.787s2.665-1.333 4.927-1.286M38.292 100.498L39.265 100.491M39.588 100.49s3.928-.034 5.82 1.16" transform="translate(-191 -1515) translate(193 1516) translate(8.446 11.196)"/>
                    <path stroke="#44E7D9" stroke-width="1.875" d="M37.079 102.462s.198-.395-.485-.267c-.684.128-.714-.52.234-.403.947.117 1.999.048 1.839-.321-.16-.37-1.158.008-1.107-.301.05-.31.892-.253 1.366-.256.473-.004 1.155-.317 1.841-.013.686.304-.735.252-.26.558.476.306 1.42-.257 1.684-.073.264.183-.365.435-.47.62-.103.186.54.271.54.271" transform="translate(-191 -1515) translate(193 1516) translate(8.446 11.196)"/>
                    <path stroke="#FFF" stroke-linecap="round" stroke-linejoin="round" stroke-width="1.875" d="M39.602 239.996L5.786 239.996 5.786 14.826" transform="translate(-191 -1515) translate(193 1516) translate(8.446 11.196)"/>
                    <path fill="#FFF" d="M78.469 30.112L78.28 29.252 77.445 28.934 78.305 28.825 78.543 27.91 78.732 28.851 79.567 29.008 78.707 29.197zM52.144 25.762L51.998 25.098 51.353 24.852 52.017 24.768 52.202 24.061 52.348 24.788 52.992 24.909 52.328 25.055zM109.492 46.226L109.122 44.542 107.488 43.918 109.172 43.706 109.638 41.914 110.008 43.756 111.642 44.064 109.958 44.434zM68.899 50.339L68.754 49.675 68.109 49.429 68.773 49.345 68.957 48.638 69.104 49.364 69.748 49.486 69.084 49.632zM91.464 39.739L91.317 39.074 90.673 38.828 91.337 38.745 91.521 38.037 91.668 38.764 92.312 38.886 91.648 39.032zM47.605 46.912L47.241 45.255 45.634 44.641 47.29 44.432 47.749 42.669 48.113 44.482 49.721 44.785 48.064 45.149zM65.559 37.238L64.989 34.65 62.479 33.691 65.066 33.364 65.783 30.611 66.352 33.442 68.863 33.915 66.276 34.484zM35.542 35.569L35.369 34.779 34.602 34.487 35.392 34.387 35.611 33.546 35.784 34.41 36.551 34.555 35.761 34.728zM112.759 51.877L112.608 51.189 111.941 50.935 112.628 50.848 112.819 50.116 112.97 50.868 113.637 50.994 112.95 51.145zM132.163 47.133L131.78 45.39 130.09 44.745 131.832 44.525 132.314 42.67 132.697 44.577 134.388 44.895 132.646 45.279zM140.407 29.81L140.255 29.122 139.588 28.867 140.276 28.78 140.466 28.049 140.617 28.801 141.285 28.927 140.597 29.078zM80.193 57.578L79.839 55.972 78.281 55.377 79.887 55.174 80.332 53.465 80.685 55.221 82.244 55.516 80.638 55.869zM107.073 28.505L106.503 25.917 103.993 24.958 106.58 24.632 107.297 21.878 107.866 24.709 110.378 25.182 107.79 25.751z" transform="translate(-191 -1515) translate(193 1516) translate(8.446 11.196)"/>
                </g>
            </g>
        </g>
    </g>
</svg>
