<svg xmlns="http://www.w3.org/2000/svg" width="191" height="269" viewBox="0 0 191 269"><title>Девятка Мечей</title>
    <g fill="none" fill-rule="evenodd">
        <g>
            <g>
                <path fill="#1a1d24" stroke="#FFF" stroke-linecap="round" stroke-linejoin="round" stroke-width="2.5" d="M177.795 266.252H9.621c-5.22 0-9.452-4.232-9.452-9.453V10.027c0-5.22 4.232-9.453 9.452-9.453h168.174c5.22 0 9.452 4.232 9.452 9.453v246.772c0 5.22-4.232 9.453-9.452 9.453z" transform="translate(-180 -988) translate(182 989)"/>
                <path fill="#D1A448" fill-rule="nonzero" d="M64.567 253.809v-6.139c-.02-1.913-.03-2.99-.032-3.229v-.05c.4 1.038 1.634 4.178 3.702 9.418h1.072v-10.816h-.812v6.171l.032 3.28c-.13-.346-1.364-3.496-3.702-9.45H63.77v10.815h.796zm7.99 0v-10.816h-.812v10.816h.812zm3.231 0v-6.139l-.032-3.257v-.023c.4 1.04 1.635 4.179 3.702 9.419h1.072v-10.816h-.812v6.171l.033 3.28c-.13-.346-1.364-3.496-3.703-9.45h-1.055v10.815h.795zm11.66 0v-.73h-3.67v-4.353h3.2v-.73h-3.2v-4.272h3.67v-.73h-4.482v10.815h4.482zm7.373.162c.855 0 1.5-.23 1.932-.69.433-.46.65-1.058.65-1.794v-6.171c0-.736-.217-1.335-.65-1.795-.433-.46-1.077-.69-1.932-.69s-1.5.23-1.933.69c-.433.46-.65 1.059-.65 1.795v6.17c0 .737.217 1.335.65 1.795.433.46 1.078.69 1.933.69zm0-.73c-1.18 0-1.77-.585-1.77-1.754v-6.171c0-1.17.59-1.754 1.77-1.754 1.18 0 1.77.584 1.77 1.754v6.17c0 1.17-.59 1.755-1.77 1.755zm5.667.568v-4.92h3.378v-.731h-3.378v-4.434h3.524v-.73h-4.335v10.815h.811zm8.104 0l.73-3.167h3.086l.731 3.167h.844l-2.533-10.816h-1.17l-2.532 10.816h.844zm3.654-3.897h-2.76l1.38-5.993 1.38 5.993zm4.092 3.897v-10.816h-.812v10.816h.812zm3.248 0v-4.466h1.575c.174 0 .303-.005.39-.016l1.608 4.482h.893l-1.705-4.66c.93-.347 1.396-1.094 1.396-2.242v-1.478c0-.736-.216-1.326-.65-1.77-.432-.444-1.076-.666-1.932-.666h-2.387v10.816h.812zm1.575-5.23h-1.575v-4.855h1.575c1.18 0 1.77.569 1.77 1.705v1.478c0 1.115-.59 1.673-1.77 1.673z" transform="translate(-180 -988) translate(182 989)"/>
                <g>
                    <path stroke="#FFF" stroke-linecap="round" stroke-linejoin="round" stroke-width="1.875" d="M154.214 239.996L126.932 239.996M44.331 239.996L5.786 239.996 5.786 14.826" transform="translate(-180 -988) translate(182 989) translate(8.446 11.385)"/>
                    <path stroke="#44E7D9" stroke-linecap="round" stroke-linejoin="round" stroke-width="1.875" d="M5.513 0.025L8.136 4.567 10.758 9.109 5.513 9.109 0.269 9.109 2.891 4.567z" transform="translate(-180 -988) translate(182 989) translate(8.446 11.385)"/>
                    <g>
                        <path fill="#000" d="M0.277 0.193L10.75 0.193" transform="translate(-180 -988) translate(182 989) translate(8.446 11.385) translate(0 3.716)"/>
                        <path stroke="#44E7D9" stroke-linecap="round" stroke-linejoin="round" stroke-width="1.875" d="M0.277 0.193L10.75 0.193" transform="translate(-180 -988) translate(182 989) translate(8.446 11.385) translate(0 3.716)"/>
                    </g>
                    <path stroke="#44E7D9" stroke-linecap="round" stroke-linejoin="round" stroke-width="1.875" d="M164.448 244.535L161.825 239.993 159.203 235.45 164.448 235.45 169.693 235.45 167.07 239.993z" transform="translate(-180 -988) translate(182 989) translate(8.446 11.385)"/>
                    <g>
                        <path fill="#000" d="M10.563 0.448L0.09 0.448" transform="translate(-180 -988) translate(182 989) translate(8.446 11.385) translate(159.122 240.203)"/>
                        <path stroke="#44E7D9" stroke-linecap="round" stroke-linejoin="round" stroke-width="1.875" d="M10.563 0.448L0.09 0.448" transform="translate(-180 -988) translate(182 989) translate(8.446 11.385) translate(159.122 240.203)"/>
                    </g>
                    <path stroke="#FFF" stroke-linecap="round" stroke-linejoin="round" stroke-width="1.875" d="M101.27 3.463L165.38 3.463 165.38 226.619M17.276 3.463L69.513 3.463" transform="translate(-180 -988) translate(182 989) translate(8.446 11.385)"/>
                </g>
                <path fill="#D1A448" fill-rule="nonzero" d="M91.118 20.72V9.47h-.845v11.25h.845zm2.45 0l1.959-4.595 1.96 4.594h.928l-2.466-5.625 2.466-5.625h-.929l-1.96 4.612-1.959-4.612h-.929l2.45 5.625-2.45 5.625h.93z" transform="translate(-180 -988) translate(182 989)"/>
                <g stroke-linecap="round" stroke-linejoin="round" stroke-width="1.875">
                    <path stroke="#FBAE17" d="M76.169.873c4.531 0 8.205 3.673 8.205 8.205s-3.674 8.205-8.205 8.205c1.017.472 2.324.71 3.875.752 4.954 0 8.97-4.016 8.97-8.97 0-4.954-4.016-8.97-8.97-8.97-1.627.04-2.978.26-3.875.778z" transform="translate(-180 -988) translate(182 989) translate(40.203 29.966)"/>
                    <path stroke="#FFF" d="M4.391 68.43L22.931 68.394 22.941 73.663 4.402 73.699zM2.159 74.581L3.233 74.579 4.306 74.577 4.292 67.747 2.146 67.751zM3.317 67.749L3.33 74.579" transform="translate(-180 -988) translate(182 989) translate(40.203 29.966)"/>
                    <path stroke="#FFF" d="M2.156 73.137S.497 72.926.3 71.17c0 0-.004-1.685 1.85-2.017M26.163 74.793L102.66 73.411 113.584 71.048 102.65 68.142 26.148 66.881M26.156 71.071L55.428 70.77M56.404 70.768L57.965 70.765M58.746 70.764L58.356 70.765M59.722 70.762L113.584 71.048M29.862 70.039L31.421 68.865M29.275 69.455L30.64 68.477M31.033 70.037L31.813 69.45" transform="translate(-180 -988) translate(182 989) translate(40.203 29.966)"/>
                    <path stroke="#FFF" d="M22.858 81.176L22.819 60.881 26.136 60.874 26.176 81.17zM24.614 81.173L24.575 60.877M6.102 73.596L6.11 68.426M8.241 73.64L8.249 68.471M10.27 73.569L10.278 68.399M12.409 73.614L12.417 68.444M14.82 73.523L14.828 68.354M16.746 73.84L16.967 68.399M18.988 73.497L18.997 68.327M21.127 73.542L21.135 68.372M109.491 54.406L90.952 54.442 90.942 49.173 109.481 49.137zM111.724 48.255L110.65 48.257 109.577 48.259 109.59 55.089 111.737 55.085zM110.566 55.087L110.552 48.257" transform="translate(-180 -988) translate(182 989) translate(40.203 29.966)"/>
                    <path stroke="#FFF" d="M111.726 49.7s1.66.21 1.858 1.966c0 0 .003 1.685-1.85 2.017M87.719 48.042L11.222 49.425.298 51.788 11.233 54.694 87.735 55.955M87.727 51.765L58.454 52.066M57.479 52.068L55.917 52.071M55.137 52.072L55.527 52.071M54.161 52.074L.298 51.788M84.021 52.797L82.462 53.971M84.607 53.381L83.243 54.359M82.85 52.799L82.07 53.386" transform="translate(-180 -988) translate(182 989) translate(40.203 29.966)"/>
                    <path stroke="#FFF" d="M91.024 41.66L91.064 61.955 87.746 61.962 87.707 41.666zM89.268 41.663L89.307 61.958M107.781 49.24L107.773 54.41M105.642 49.196L105.634 54.365M103.613 49.267L103.604 54.436M101.473 49.222L101.465 54.392M99.063 49.313L99.054 54.482M97.137 48.996L96.915 54.437M94.894 49.339L94.886 54.509M92.755 49.294L92.747 54.464M4.391 30.452L22.931 30.416 22.941 35.685 4.402 35.721zM2.159 36.603L3.233 36.601 4.306 36.599 4.292 29.769 2.146 29.773zM3.317 29.771L3.33 36.601" transform="translate(-180 -988) translate(182 989) translate(40.203 29.966)"/>
                    <path stroke="#FFF" d="M2.156 35.159S.497 34.948.3 33.192c0 0-.004-1.684 1.85-2.017M26.163 36.816L102.66 35.433 113.584 33.07 102.65 30.164 26.148 28.904M26.156 33.093L55.428 32.792M56.404 32.791L57.965 32.787M58.746 32.786L58.356 32.787M59.722 32.784L113.584 33.07M29.862 32.061L31.421 30.887M29.275 31.477L30.64 30.499M31.033 32.059L31.813 31.472" transform="translate(-180 -988) translate(182 989) translate(40.203 29.966)"/>
                    <path stroke="#FFF" d="M22.858 43.199L22.819 22.903 26.136 22.896 26.176 43.192zM24.614 43.195L24.575 22.899M6.102 35.617L6.11 30.448M8.241 35.662L8.249 30.493M10.27 35.591L10.278 30.422M12.409 35.636L12.417 30.467M14.82 35.545L14.828 30.376M16.746 35.862L16.967 30.421M18.988 35.519L18.997 30.35M21.127 35.564L21.135 30.394M109.663 92.516L91.123 92.552 91.114 87.283 109.653 87.247zM111.895 86.365L110.822 86.367 109.749 86.369 109.762 93.199 111.908 93.195zM110.737 93.197L110.724 86.367M111.898 87.81s1.66.21 1.858 1.966c0 0 .003 1.685-1.85 2.017M87.891 86.153L11.394 87.535.47 89.898 11.405 92.804 87.906 94.065M87.898 89.875L58.626 90.176M57.65 90.178L56.089 90.181M55.309 90.182L55.699 90.182M54.333 90.184L.47 89.898M84.192 90.907L82.634 92.081M84.779 91.491L83.415 92.47M83.022 90.909L82.242 91.496" transform="translate(-180 -988) translate(182 989) translate(40.203 29.966)"/>
                    <path stroke="#FFF" d="M91.196 79.77L91.236 100.065 87.918 100.072 87.879 79.776zM89.44 79.773L89.479 100.069M107.953 87.351L107.945 92.52M105.813 87.306L105.805 92.476M103.784 87.377L103.776 92.546M101.645 87.332L101.637 92.502M99.234 87.423L99.226 92.592M97.309 87.106L97.087 92.547M95.066 87.449L95.058 92.619M92.927 87.404L92.919 92.574M4.563 106.54L23.103 106.504 23.113 111.773 4.574 111.809zM2.331 112.691L3.404 112.689 4.478 112.687 4.464 105.857 2.318 105.861zM3.489 105.859L3.502 112.689M2.328 111.247S.67 111.036.47 109.28c0 0-.003-1.685 1.85-2.017M26.335 112.904L102.832 111.521 113.756 109.158 102.822 106.252 26.32 104.991M26.328 109.181L55.6 108.88M56.576 108.878L58.137 108.875M58.918 108.874L58.527 108.875M59.893 108.872L113.756 109.158M30.034 108.149L31.593 106.975M29.447 107.565L30.811 106.587M31.205 108.147L31.984 107.56" transform="translate(-180 -988) translate(182 989) translate(40.203 29.966)"/>
                    <path stroke="#FFF" d="M23.03 119.286L22.991 98.991 26.308 98.984 26.347 119.28zM24.786 119.283L24.747 98.987M6.274 111.706L6.282 106.536M8.413 111.75L8.421 106.581M10.442 111.679L10.45 106.51M12.581 111.724L12.589 106.554M14.992 111.633L15 106.464M16.918 111.95L17.139 106.509M19.16 111.607L19.168 106.438M21.299 111.652L21.307 106.482M109.663 130.832L91.123 130.868 91.114 125.599 109.653 125.563zM111.895 124.681L110.822 124.683 109.749 124.685 109.762 131.515 111.908 131.511zM110.737 131.513L110.724 124.683M111.898 126.125s1.66.211 1.858 1.967c0 0 .003 1.685-1.85 2.017M87.891 124.468L11.394 125.851.47 128.214 11.405 131.119 87.906 132.381M87.898 128.191L58.626 128.492M57.65 128.493L56.089 128.497M55.309 128.498L55.699 128.497M54.333 128.5L.47 128.214M84.192 129.223L82.634 130.397M84.779 129.807L83.415 130.785M83.022 129.225L82.242 129.812" transform="translate(-180 -988) translate(182 989) translate(40.203 29.966)"/>
                    <path stroke="#FFF" d="M91.196 118.086L91.236 138.381 87.918 138.388 87.879 118.092zM89.44 118.089L89.479 138.384M107.953 125.666L107.945 130.836M105.813 125.622L105.805 130.791M103.784 125.693L103.776 130.862M101.645 125.648L101.637 130.817M99.234 125.739L99.226 130.908M97.309 125.422L97.087 130.863M95.066 125.765L95.058 130.934M92.927 125.72L92.919 130.89M4.901 183.242L23.44 183.207 23.451 188.475 4.911 188.511zM2.669 189.394L3.742 189.392 4.816 189.39 4.802 182.56 2.656 182.563zM3.827 182.561L3.84 189.391M2.666 187.95s-1.66-.212-1.858-1.968c0 0-.003-1.684 1.85-2.016M26.673 189.606L103.17 188.223 114.094 185.861 103.159 182.955 26.658 181.694M26.666 185.883L55.938 185.583M56.914 185.581L58.475 185.578M59.255 185.577L58.865 185.577M60.231 185.575L114.094 185.861M30.372 184.852L31.93 183.678M29.785 184.267L31.149 183.289M31.543 184.849L32.322 184.263" transform="translate(-180 -988) translate(182 989) translate(40.203 29.966)"/>
                    <path stroke="#FFF" d="M23.368 195.989L23.329 175.693 26.646 175.687 26.685 195.982zM25.124 195.986L25.085 175.69M6.612 188.408L6.62 183.238M8.75 188.453L8.759 183.283M10.78 188.382L10.788 183.212M12.919 188.426L12.927 183.257M15.33 188.336L15.338 183.166M17.255 188.652L17.477 183.211M19.498 188.309L19.506 183.14M21.637 188.354L21.645 183.185M110.001 169.219L91.461 169.255 91.451 163.986 109.991 163.95zM112.233 163.067L111.16 163.069 110.086 163.071 110.1 169.902 112.246 169.898zM111.075 169.9L111.062 163.069M112.236 164.512s1.66.21 1.858 1.967c0 0 .003 1.684-1.85 2.016M88.229 162.855L11.732 164.237.808 166.6 11.743 169.506 88.244 170.767M88.236 166.577L58.964 166.878M57.988 166.88L56.427 166.883M55.646 166.885L56.037 166.884M54.671 166.887L.808 166.6M84.53 167.609L82.972 168.783M85.117 168.194L83.753 169.172M83.359 167.611L82.58 168.198" transform="translate(-180 -988) translate(182 989) translate(40.203 29.966)"/>
                    <path stroke="#FFF" d="M91.534 156.472L91.573 176.768 88.256 176.774 88.217 156.479zM89.778 156.475L89.817 176.771M108.29 164.053L108.282 169.222M106.151 164.008L106.143 169.178M104.122 164.079L104.114 169.249M101.983 164.035L101.975 169.204M99.572 164.125L99.564 169.295M97.647 163.809L97.425 169.25M95.404 164.152L95.396 169.321M93.265 164.107L93.257 169.276M4.901 144.926L23.44 144.891 23.451 150.16 4.911 150.196zM2.669 151.078L3.742 151.076 4.816 151.074 4.802 144.244 2.656 144.248zM3.827 144.246L3.84 151.076M2.666 149.633s-1.66-.21-1.858-1.966c0 0-.003-1.685 1.85-2.017M26.673 151.29L103.17 149.908 114.094 147.545 103.159 144.639 26.658 143.378M26.666 147.568L55.938 147.267M56.914 147.265L58.475 147.262M59.255 147.261L58.865 147.261M60.231 147.259L114.094 147.545M30.372 146.536L31.93 145.362M29.785 145.952L31.149 144.973M31.543 146.534L32.322 145.947" transform="translate(-180 -988) translate(182 989) translate(40.203 29.966)"/>
                    <path stroke="#FFF" d="M23.368 157.673L23.329 137.378 26.646 137.371 26.685 157.666zM25.124 157.67L25.085 137.374M6.612 150.092L6.62 144.923M8.75 150.137L8.759 144.967M10.78 150.066L10.788 144.896M12.919 150.11L12.927 144.941M15.33 150.02L15.338 144.85M17.255 150.336L17.477 144.896M19.498 149.994L19.506 144.824M21.637 150.039L21.645 144.869" transform="translate(-180 -988) translate(182 989) translate(40.203 29.966)"/>
                </g>
            </g>
        </g>
    </g>
</svg>
