<svg xmlns="http://www.w3.org/2000/svg" width="191" height="266" viewBox="0 0 191 266"><title>Семёрка Пентаклей</title>
    <g fill="none" fill-rule="evenodd">
        <g>
            <g>
                <path fill="#182018" stroke="#FFF" stroke-linecap="round" stroke-linejoin="round" stroke-width="2.5" d="M177.475 263.112H9.604c-5.211 0-9.435-4.185-9.435-9.348V9.716C.169 4.553 4.393.368 9.604.368h167.871c5.211 0 9.436 4.185 9.436 9.348v244.048c0 5.163-4.225 9.348-9.436 9.348z" transform="translate(-787 -3066) translate(789 3067)"/>
                <path fill="#44E7D9" fill-rule="nonzero" d="M53.144 251.468c.892 0 1.573-.197 2.043-.591.47-.395.705-.949.705-1.662v-.843c0-.95-.438-1.664-1.313-2.14l-1.897-1.053c-.66-.357-.989-.892-.989-1.605v-.924c0-.93.605-1.394 1.816-1.394.821 0 1.491.092 2.01.275v-.778c-.562-.162-1.251-.243-2.067-.243-.816 0-1.448.192-1.896.576-.449.383-.673.915-.673 1.596v.94c0 .984.454 1.724 1.361 2.221l1.897 1.038c.357.194.603.405.738.632.135.227.202.53.202.908v.794c0 1.005-.68 1.508-2.042 1.508-.757 0-1.454-.114-2.091-.34v.777c.572.206 1.305.308 2.196.308zm9.005-.08v-.73h-3.664v-4.345h3.194v-.729h-3.194v-4.263h3.664v-.73h-4.474v10.796h4.474zm4.49 0l2.432-10.797h-.843c-1.265 5.706-1.989 9.018-2.172 9.937-.152-.735-.876-4.047-2.173-9.937h-.843l2.432 10.796h1.167zm8.365 0v-.73H71.34v-4.345h3.194v-.729H71.34v-4.263h3.664v-.73H70.53v10.796h4.474zm2.658 0v-6.128l-.03-3.124-.002-.15c.4 1.037 1.632 4.17 3.696 9.401h1.07v-10.796h-.811v6.16l.032 3.275c-.13-.346-1.361-3.491-3.695-9.435h-1.054v10.796h.794zm12.66.161c.854 0 1.497-.23 1.93-.689.432-.459.648-1.056.648-1.79v-6.16c0-.736-.216-1.333-.649-1.792-.432-.46-1.075-.689-1.929-.689-.853 0-1.496.23-1.929.689-.432.46-.648 1.056-.648 1.791v6.16c0 .735.216 1.332.648 1.791.433.46 1.076.69 1.93.69zm0-.73c-1.178 0-1.767-.583-1.767-1.75v-6.16c0-1.167.59-1.75 1.767-1.75 1.178 0 1.767.583 1.767 1.75v6.16c0 1.167-.589 1.75-1.767 1.75zm5.658.568v-4.911h3.371v-.73H95.98v-4.425h3.517v-.73H95.17v10.796h.81zm12.611 0v-.73h-3.663v-4.344h3.193v-.729h-3.193v-4.263h3.663v-.73h-4.474v10.796h4.474zm1.816 0l.73-3.16h3.08l.729 3.16h.843l-2.53-10.796h-1.166l-2.53 10.796h.844zm3.647-3.89h-2.756l1.378-5.982 1.378 5.982zm4.085 3.89v-4.458l1.731-.001c.096-.003.173-.008.23-.015l1.605 4.474h.892l-1.702-4.652c.93-.346 1.394-1.092 1.394-2.237v-1.475c0-.735-.216-1.324-.648-1.767-.433-.443-1.076-.665-1.93-.665h-2.382v10.796h.81zm1.573-5.22h-1.573v-4.846h1.573c1.177 0 1.766.567 1.766 1.702v1.475c0 1.113-.589 1.67-1.766 1.67zm6.808 5.22v-10.066h2.14v-.73h-5.09v.73h2.14v10.066h.81zm4.328 0v-4.928h3.793v4.928h.827v-10.796h-.827v5.139h-3.793v-5.139h-.81v10.796h.81z" transform="translate(-787 -3066) translate(789 3067)"/>
                <g>
                    <path stroke="#FFF" stroke-linecap="round" stroke-linejoin="round" stroke-width="1.875" d="M153.937 237.346L132.1 237.346M5.775 14.662L5.775 237.346 37.17 237.346" transform="translate(-787 -3066) translate(789 3067) translate(8.43 11.06)"/>
                    <path stroke="#D1A448" stroke-linecap="round" stroke-linejoin="round" stroke-width="1.875" d="M5.503 9.009L2.886 4.517 0.268 0.025 5.503 0.025 10.739 0.025 8.121 4.517z" transform="translate(-787 -3066) translate(789 3067) translate(8.43 11.06)"/>
                    <g>
                        <path fill="#000" d="M10.73 0.495L0.276 0.495" transform="translate(-787 -3066) translate(789 3067) translate(8.43 11.06) translate(0 4.678)"/>
                        <path stroke="#D1A448" stroke-linecap="round" stroke-linejoin="round" stroke-width="1.875" d="M10.73 0.495L0.276 0.495" transform="translate(-787 -3066) translate(789 3067) translate(8.43 11.06) translate(0 4.678)"/>
                    </g>
                    <path stroke="#D1A448" stroke-width="1.875" d="M164.152 231.848L166.77 236.34 169.388 240.833 164.152 240.833 158.917 240.833 161.535 236.34z" transform="translate(-787 -3066) translate(789 3067) translate(8.43 11.06)"/>
                    <g>
                        <path fill="#000" d="M0.09 0.482L10.544 0.482" transform="translate(-787 -3066) translate(789 3067) translate(8.43 11.06) translate(158.835 235.212)"/>
                        <path stroke="#D1A448" stroke-width="1.875" d="M0.09 0.482L10.544 0.482" transform="translate(-787 -3066) translate(789 3067) translate(8.43 11.06) translate(158.835 235.212)"/>
                    </g>
                    <path stroke="#FFF" stroke-linecap="round" stroke-linejoin="round" stroke-width="1.875" d="M101.088 3.425L165.082 3.425 165.082 224.117M17.245 3.425L69.388 3.425" transform="translate(-787 -3066) translate(789 3067) translate(8.43 11.06)"/>
                </g>
                <path fill="#44E7D9" fill-rule="nonzero" d="M91.01 17.936L93.44 7.14H92.6c-1.265 5.706-1.989 9.019-2.173 9.937-.151-.735-.875-4.047-2.172-9.937h-.843l2.432 10.796h1.167zm4.7 0V7.14h-.81v10.796h.81zm3.243 0V7.14h-.81v10.796h.81z" transform="translate(-787 -3066) translate(789 3067)"/>
                <g stroke-linecap="round" stroke-linejoin="round" stroke-width="1.875">
                    <path stroke="#FFF" d="M56.414 135.857L56.414 33.86" transform="translate(-787 -3066) translate(789 3067) translate(37.095 57.5)"/>
                    <path stroke="#D1A448" d="M61.75 102.344c0 6.11 5 11.062 11.166 11.062s11.165-4.953 11.165-11.062c0-6.109-4.999-11.061-11.165-11.061-6.166 0-11.165 4.952-11.165 11.061z" transform="translate(-787 -3066) translate(789 3067) translate(37.095 57.5)"/>
                    <path stroke="#D1A448" d="M66.13 110.539L72.992 91.776 79.831 110.539 62.779 99.196 83.11 99.196z" transform="translate(-787 -3066) translate(789 3067) translate(37.095 57.5)"/>
                    <path stroke="#D1A448" d="M85.41 102.33c0-6.836-5.594-12.379-12.494-12.379-6.9 0-12.494 5.543-12.494 12.38 0 6.836 5.594 12.378 12.494 12.378 6.9 0 12.494-5.542 12.494-12.379zM61.75 74.83c0 6.11 5 11.062 11.166 11.062S84.08 80.94 84.08 74.831c0-6.11-4.999-11.062-11.165-11.062-6.166 0-11.165 4.952-11.165 11.062z" transform="translate(-787 -3066) translate(789 3067) translate(37.095 57.5)"/>
                    <path stroke="#D1A448" d="M66.13 83.026L72.992 64.262 79.831 83.026 62.779 71.682 83.11 71.682z" transform="translate(-787 -3066) translate(789 3067) translate(37.095 57.5)"/>
                    <path stroke="#D1A448" d="M85.41 74.816c0-6.836-5.594-12.378-12.494-12.378-6.9 0-12.494 5.542-12.494 12.378 0 6.837 5.594 12.38 12.494 12.38 6.9 0 12.494-5.543 12.494-12.38zM61.75 48.037c0 6.11 5 11.062 11.166 11.062S84.08 54.146 84.08 48.037c0-6.11-4.999-11.062-11.165-11.062-6.166 0-11.165 4.953-11.165 11.062z" transform="translate(-787 -3066) translate(789 3067) translate(37.095 57.5)"/>
                    <path stroke="#D1A448" d="M66.13 56.232L72.992 37.469 79.831 56.232 62.779 44.889 83.11 44.889z" transform="translate(-787 -3066) translate(789 3067) translate(37.095 57.5)"/>
                    <path stroke="#D1A448" d="M85.41 48.023c0-6.837-5.594-12.379-12.494-12.379-6.9 0-12.494 5.542-12.494 12.379s5.594 12.379 12.494 12.379c6.9 0 12.494-5.542 12.494-12.38zM45.501 21.247c0 6.11 4.999 11.062 11.165 11.062 6.167 0 11.165-4.952 11.165-11.062 0-6.109-4.998-11.061-11.165-11.061-6.166 0-11.165 4.952-11.165 11.061z" transform="translate(-787 -3066) translate(789 3067) translate(37.095 57.5)"/>
                    <path stroke="#D1A448" d="M49.88 29.442L56.742 10.679 63.581 29.442 46.529 18.099 66.861 18.099z" transform="translate(-787 -3066) translate(789 3067) translate(37.095 57.5)"/>
                    <path stroke="#D1A448" d="M69.16 21.233c0-6.836-5.593-12.378-12.494-12.378-6.9 0-12.494 5.542-12.494 12.378 0 6.837 5.594 12.379 12.494 12.379 6.9 0 12.495-5.542 12.495-12.379z" transform="translate(-787 -3066) translate(789 3067) translate(37.095 57.5)"/>
                    <path stroke="#FFF" d="M56.451 120.26c-.923-.657 5.045-7.543 11.132-3.432 3.934 2.659 11.558 2.112 16.563-2.171 5.359-4.586 10.718 1.207 15.102 1.207 4.385 0 6.577-1.931 8.77-5.069" transform="translate(-787 -3066) translate(789 3067) translate(37.095 57.5)"/>
                    <path stroke="#FFF" d="M78.057 117.794s4.628 1.448 5.115 3.861c.487 2.414 2.436 3.137 2.436 5.55" transform="translate(-787 -3066) translate(789 3067) translate(37.095 57.5)"/>
                    <path stroke="#FFF" d="M82.441 120.449s-2.68.965-.974 3.378c1.705 2.413 4.14 1.93 4.14 4.585 0 0 1.462-3.62.244-6.757-1.218-3.137-3.41-1.206-3.41-1.206zM85.44 113.744s2.847-4.638 5.04-5.12c2.192-.483 5.358.965 6.82-3.138 0 0-2.436-.482-1.218-3.86 1.217-3.38 3.166-3.62 2.923-5.31 0 0 2.436 4.826.73 7.722 0 0-1.218 1.207-2.192 1.448M94.61 114.546s2.446-4.957 5.37-5.923c2.922-.965 5.602-1.206 8.524-4.344 2.923-3.136 3.898-6.998 3.898-6.998-1.218 2.172-5.115 1.69-7.064 4.586-1.949 2.895 1.341 4.047 1.341 4.047s4.261.779 4.992-2.359c.73-3.136 0-4.102.487-5.791M97.3 105.486s2.752-4.31 1.985-8.55M98.274 103.314L96.357 100.941M98.029 104.119L96.082 101.867M109.949 102.469L109.221 99.274M109.328 103.314L108.261 99.515M108.504 104.038L111.154 104.687M101.151 115.725s-1.172-2.516 1.02-3.24c2.192-.724 5.603-1.207 6.09-2.896 0 0-.974 6.998-3.898 7.24 0 0-1.938.435-2.796-.748M105.474 113.744L105.474 111.528M104.726 114.325L104.549 111.806M103.506 115.025L105.474 116.371M56.451 91.78c-.557-.37 5.507-6.987 11.618-3.91 5.052 2.541 14.128-.483 17.538-5.793 3.41-5.309 9.744 1.93 14.616-3.137 0 0 1.948-1.207 4.384-11.584" transform="translate(-787 -3066) translate(789 3067) translate(37.095 57.5)"/>
                    <path stroke="#FFF" d="M85.608 82.077s1.217-4.585 2.922-5.068c1.706-.482 6.09-3.86 6.82-7.963M86.825 78.699s1.462-4.585 0-8.447c-1.46-3.861-.73-7.722.731-8.688" transform="translate(-787 -3066) translate(789 3067) translate(37.095 57.5)"/>
                    <path stroke="#FFF" d="M91.21 76.286s2.192.965 3.41-1.69c.813-1.771 1.218-7.24 1.218-7.24-.487 2.414-1.705 1.448-4.384 3.862-2.68 2.413-.975 4.735-.975 4.735M93.344 73.212L95.048 73.212M94.88 74.106L92.795 74.106M86.438 69.046s2.093-.724 1.606-3.138c0 0-1.462-3.62.487-5.068 0 0-3.898 1.448-3.654 4.827.243 3.379 1.561 3.379 1.561 3.379zM86.151 64.425L87.53 63.603M86.151 65.582L87.632 64.666M102.157 75.562s-3.152-1.931.014-5.55c3.167-3.62 2.436-4.345 2.436-4.345s2.68 7.24-1.461 9.895M103.553 71.417L105.46 70.132M103.174 72.678L105.412 71.417M102.702 74.106L101.195 71.417M97.152 80.704s5.75 5.476 1.853 11.75" transform="translate(-787 -3066) translate(789 3067) translate(37.095 57.5)"/>
                    <path stroke="#FFF" d="M99.492 83.525s-1.949.242-1.705 2.655c.243 2.413 1.461 5.792.487 6.998 0 0 4.384-2.654 3.166-7.722 0 0-.243-.965-1.217-1.69M100.341 87.385L98.36 89.42M100.186 86.23L98.101 88.114M81.4 86.052s6.4 2.541 8.836 8.816" transform="translate(-787 -3066) translate(789 3067) translate(37.095 57.5)"/>
                    <path stroke="#FFF" d="M84.146 87.387s-.73 4.102 1.949 5.55c2.68 1.448 4.384 4.103 4.384 4.103s1.705-5.55-.974-8.93c-2.68-3.378-5.359-.723-5.359-.723zM87.632 90.448L87.632 93.885M86.582 89.8L86.455 93.052M88.74 92.167L91.014 93.178M101.197 44.671c.243 1.448-.487 3.379-2.923 6.758-2.436 3.378-1.218 6.516-1.218 6.516s4.141.482 4.872-4.344c.73-4.827-.488-7.723-.488-7.723.488 7.482-3.653 13.273-7.307 12.79-3.654-.482-6.333 0-6.333 0s2.68-2.654 2.923-8.687l.243-6.033s-1.461 3.137-2.192 4.343c-.73 1.207-2.68 5.069 0 7.964" transform="translate(-787 -3066) translate(789 3067) translate(37.095 57.5)"/>
                    <path stroke="#FFF" d="M93.646 58.669s.974-.483.487-6.275c-.487-5.792 5.603-10.86 5.359-14.238" transform="translate(-787 -3066) translate(789 3067) translate(37.095 57.5)"/>
                    <path stroke="#FFF" d="M99.248 37.19s-.487 1.931-2.435 2.896c-1.949.966-3.368 4.587-1.319 6.517 0 0 3.024.482 3.754-3.62.731-4.103 0-5.792 0-5.792zM97.056 43.465L96.813 40.086M97.759 42.645L97.515 39.462M89.261 56.497s2.68-1.207 2.436-4.827c-.243-3.62-.73-6.516-.73-7.722M90.267 53.461L91.709 52.341M90.039 54.334L91.447 53.382M101.997 53.102L99.979 54.077 98.744 50.764M100.67 52.342L102.138 51.518" transform="translate(-787 -3066) translate(789 3067) translate(37.095 57.5)"/>
                    <path stroke="#FFF" d="M101.781 54.334L99.573 54.958 98.141 51.93M87.556 58.669s-5.602 2.654-12.422 2.895c-6.82.242-16.978-1.326-18.72 6.577M77.758 31.842s.588-2.134 2.742-3.105c2.155-.97 6.084-.076 7.254-1.978" transform="translate(-787 -3066) translate(789 3067) translate(37.095 57.5)"/>
                    <path stroke="#FFF" d="M78.346 32.036s2.742 2.135 5.876.776c3.133-1.358 3.822-6.309 3.822-6.309s.095.1-1.276 1.458c-1.371 1.358-11.538 7.097-16.06 5.24-7.034-2.889-14.286 5.68-14.286 5.68" transform="translate(-787 -3066) translate(789 3067) translate(37.095 57.5)"/>
                    <path stroke="#FFF" d="M82.246 28.546L81.48 30.678 84.836 32.539M82.501 30.164L83.343 28.262M80.086 31.081L83.634 33.006M84.742 8.072c.636 3.152 0 5.043 0 5.043-1.273 3.992-9.543 5.043-9.331 9.455.212 4.412-4.476 10.42-4.476 10.42" transform="translate(-787 -3066) translate(789 3067) translate(37.095 57.5)"/>
                    <path stroke="#FFF" d="M79.228 17.737s-.848-2.31 1.909-4.622c0 0 3.605-2.311 3.18-5.253 0 0 2.758 2.942 1.273 6.934M80.288 18.158s2.333 1.05 4.878-2.312M83.257 15.211L82.841 11.969M82.225 15.706l-.452-2.801.452 2.801zM76.188 20.262s1.555-3.575-3.746-7.147C67.14 9.543 65.232 1.979 65.656.509" transform="translate(-787 -3066) translate(789 3067) translate(37.095 57.5)"/>
                    <path stroke="#FFF" d="M69.473 10.384s-4.878 0-5.302-5.043c0 0-.212-1.26 1.485-4.833 0 0 .424 3.152 2.756 5.253 2.333 2.101 1.06 4.623 1.06 4.623zM66.689 5.512L64.275 3.756M67.064 6.812L64.274 5.264M67.927 8.072L68.412 5.761M68.412 8.872L69 6.392" transform="translate(-787 -3066) translate(789 3067) translate(37.095 57.5)"/>
                    <path stroke="#D1A448" d="M50.742 102.06c0 6.11-4.998 11.062-11.165 11.062-6.166 0-11.165-4.953-11.165-11.062 0-6.109 5-11.061 11.165-11.061 6.167 0 11.165 4.952 11.165 11.061z" transform="translate(-787 -3066) translate(789 3067) translate(37.095 57.5)"/>
                    <path stroke="#D1A448" d="M46.364 110.255L39.502 91.492 32.663 110.255 49.714 98.912 29.383 98.912z" transform="translate(-787 -3066) translate(789 3067) translate(37.095 57.5)"/>
                    <path stroke="#D1A448" d="M27.083 102.046c0-6.836 5.594-12.378 12.494-12.378 6.9 0 12.495 5.542 12.495 12.378 0 6.837-5.594 12.379-12.495 12.379-6.9 0-12.494-5.542-12.494-12.379zM50.742 74.546c0 6.11-4.998 11.062-11.165 11.062-6.166 0-11.165-4.953-11.165-11.062 0-6.109 5-11.061 11.165-11.061 6.167 0 11.165 4.952 11.165 11.061z" transform="translate(-787 -3066) translate(789 3067) translate(37.095 57.5)"/>
                    <path stroke="#D1A448" d="M46.364 82.741L39.502 63.978 32.663 82.741 49.714 71.398 29.383 71.398z" transform="translate(-787 -3066) translate(789 3067) translate(37.095 57.5)"/>
                    <path stroke="#D1A448" d="M27.083 74.533c0-6.837 5.594-12.38 12.494-12.38 6.9 0 12.495 5.543 12.495 12.38 0 6.836-5.594 12.378-12.495 12.378-6.9 0-12.494-5.542-12.494-12.378zM50.742 47.753c0 6.11-4.998 11.062-11.165 11.062-6.166 0-11.165-4.953-11.165-11.062 0-6.109 5-11.062 11.165-11.062 6.167 0 11.165 4.953 11.165 11.062z" transform="translate(-787 -3066) translate(789 3067) translate(37.095 57.5)"/>
                    <path stroke="#D1A448" d="M46.364 55.948L39.502 37.185 32.663 55.948 49.714 44.605 29.383 44.605z" transform="translate(-787 -3066) translate(789 3067) translate(37.095 57.5)"/>
                    <path stroke="#D1A448" d="M27.083 47.74c0-6.837 5.594-12.38 12.494-12.38 6.9 0 12.495 5.543 12.495 12.38 0 6.836-5.594 12.378-12.495 12.378-6.9 0-12.494-5.542-12.494-12.379z" transform="translate(-787 -3066) translate(789 3067) translate(37.095 57.5)"/>
                    <path stroke="#FFF" d="M56.042 119.976c.924-.657-5.044-7.543-11.131-3.431-3.935 2.658-11.558 2.11-16.564-2.172-5.358-4.585-10.717 1.206-15.102 1.206-4.384 0-6.577-1.93-8.769-5.067" transform="translate(-787 -3066) translate(789 3067) translate(37.095 57.5)"/>
                    <path stroke="#FFF" d="M34.437 117.51s-4.628 1.448-5.115 3.861c-.488 2.413-2.436 3.137-2.436 5.55" transform="translate(-787 -3066) translate(789 3067) translate(37.095 57.5)"/>
                    <path stroke="#FFF" d="M30.052 120.165s2.68.965.975 3.378c-1.705 2.414-4.141 1.931-4.141 4.586 0 0-1.462-3.62-.244-6.758 1.218-3.137 3.41-1.206 3.41-1.206zM27.054 113.46s-2.848-4.638-5.04-5.12c-2.192-.483-5.359.965-6.82-3.138 0 0 2.435-.482 1.218-3.86-1.218-3.38-3.167-3.62-2.923-5.31 0 0-2.436 4.826-.731 7.722 0 0 1.218 1.207 2.192 1.448M17.883 114.262s-2.446-4.957-5.369-5.923c-2.922-.965-5.602-1.206-8.525-4.343-2.923-3.138-3.897-6.999-3.897-6.999 1.217 2.172 5.115 1.69 7.063 4.585 1.95 2.896-1.34 4.048-1.34 4.048s-4.262.779-4.992-2.358c-.731-3.138 0-4.103-.488-5.792M15.194 105.202s-2.753-4.31-1.985-8.55M14.219 103.03L16.137 100.657M14.465 103.835L16.412 101.582M2.544 102.185L3.273 98.99M3.165 103.03L4.233 99.231M3.989 103.754L1.34 104.403M11.342 115.44s1.172-2.515-1.02-3.24c-2.192-.723-5.602-1.206-6.09-2.895 0 0 .975 6.998 3.898 7.24 0 0 1.938.435 2.796-.748M7.019 113.46L7.019 111.244M7.768 114.041L7.944 111.522M8.987 114.74L7.019 116.087M56.042 91.496c.557-.37-5.507-6.987-11.618-3.91-5.051 2.542-14.128-.483-17.538-5.792-3.41-5.31-9.744 1.93-14.615-3.138 0 0-1.949-1.206-4.385-11.584" transform="translate(-787 -3066) translate(789 3067) translate(37.095 57.5)"/>
                    <path stroke="#FFF" d="M26.886 81.794s-1.218-4.586-2.923-5.069c-1.705-.482-6.09-3.86-6.82-7.963M25.668 78.415s-1.462-4.586 0-8.447c1.461-3.86.73-7.722-.73-8.687" transform="translate(-787 -3066) translate(789 3067) translate(37.095 57.5)"/>
                    <path stroke="#FFF" d="M21.283 76.002s-2.192.965-3.41-1.69c-.812-1.77-1.218-7.24-1.218-7.24.488 2.414 1.705 1.448 4.385 3.862 2.68 2.413.974 4.735.974 4.735M19.15 72.928L17.446 72.928M17.613 73.822L19.699 73.822M26.055 68.762s-2.092-.724-1.605-3.137c0 0 1.461-3.62-.487-5.069 0 0 3.897 1.448 3.653 4.827-.243 3.379-1.56 3.379-1.56 3.379zM26.342 64.141L24.964 63.319M26.342 65.298L24.861 64.382M10.336 75.278s3.153-1.931-.014-5.551c-3.166-3.62-2.436-4.344-2.436-4.344s-2.679 7.24 1.462 9.895M8.94 71.133L7.034 69.847M9.319 72.395L7.081 71.133M9.791 73.822L11.299 71.133M15.341 80.42s-5.75 5.476-1.852 11.75" transform="translate(-787 -3066) translate(789 3067) translate(37.095 57.5)"/>
                    <path stroke="#FFF" d="M13.002 83.241s1.948.242 1.705 2.655c-.244 2.413-1.462 5.792-.488 6.999 0 0-4.384-2.655-3.166-7.723 0 0 .244-.965 1.218-1.69M12.152 87.101L14.134 89.137M12.307 85.946L14.392 87.83M31.094 85.767s-6.4 2.542-8.836 8.817" transform="translate(-787 -3066) translate(789 3067) translate(37.095 57.5)"/>
                    <path stroke="#FFF" d="M28.347 87.103s.731 4.102-1.948 5.55c-2.68 1.448-4.385 4.103-4.385 4.103s-1.705-5.55.974-8.93c2.68-3.378 5.36-.723 5.36-.723zM24.861 90.164L24.861 93.602M25.911 89.516L26.039 92.768M23.753 91.883L21.48 92.894M11.296 44.388c-.243 1.448.488 3.378 2.923 6.757 2.436 3.378 1.218 6.516 1.218 6.516s-4.14.482-4.871-4.344c-.731-4.827.487-7.723.487-7.723-.487 7.481 3.654 13.273 7.307 12.79 3.654-.482 6.334 0 6.334 0s-2.68-2.654-2.924-8.687l-.243-6.033s1.462 3.137 2.192 4.344c.73 1.206 2.68 5.067 0 7.963" transform="translate(-787 -3066) translate(789 3067) translate(37.095 57.5)"/>
                    <path stroke="#FFF" d="M18.848 58.385s-.975-.483-.488-6.275c.488-5.792-5.602-10.86-5.358-14.238" transform="translate(-787 -3066) translate(789 3067) translate(37.095 57.5)"/>
                    <path stroke="#FFF" d="M13.245 36.906s.487 1.93 2.436 2.896c1.948.966 3.367 4.587 1.318 6.517 0 0-3.023.482-3.754-3.62-.73-4.103 0-5.793 0-5.793zM15.437 43.181L15.681 39.802M14.734 42.361L14.978 39.178M23.232 56.213s-2.68-1.207-2.436-4.827c.244-3.62.731-6.516.731-7.723M22.226 53.176L20.785 52.058M22.455 54.05L21.046 53.098M10.496 52.818L12.514 53.793 13.75 50.48M11.823 52.058L10.355 51.234" transform="translate(-787 -3066) translate(789 3067) translate(37.095 57.5)"/>
                    <path stroke="#FFF" d="M10.712 54.05L12.92 54.673 14.352 51.646M24.937 58.385s5.603 2.654 12.423 2.896c6.82.241 16.978-1.327 18.72 6.576M34.735 31.558s-.588-2.135-2.742-3.104c-2.154-.97-6.084-.077-7.253-1.98" transform="translate(-787 -3066) translate(789 3067) translate(37.095 57.5)"/>
                    <path stroke="#FFF" d="M34.148 31.752s-2.742 2.135-5.876.776c-3.134-1.358-3.822-6.309-3.822-6.309s-.096.1 1.276 1.458c1.37 1.359 11.537 7.097 16.06 5.24 7.034-2.889 14.285 5.68 14.285 5.68" transform="translate(-787 -3066) translate(789 3067) translate(37.095 57.5)"/>
                    <path stroke="#FFF" d="M30.248 28.263L31.014 30.394 27.658 32.255M29.992 29.88L29.15 27.978M32.407 30.797L28.859 32.723M27.752 7.788c-.637 3.152 0 5.043 0 5.043 1.272 3.992 9.543 5.043 9.33 9.455-.211 4.412 4.476 10.42 4.476 10.42" transform="translate(-787 -3066) translate(789 3067) translate(37.095 57.5)"/>
                    <path stroke="#FFF" d="M33.265 17.453s.849-2.311-1.908-4.622c0 0-3.605-2.311-3.181-5.253 0 0-2.757 2.942-1.273 6.934M32.205 17.874s-2.333 1.05-4.878-2.312M29.236 14.927L29.652 11.685M30.268 15.422l.453-2.801-.453 2.801zM36.305 19.978s-1.555-3.575 3.747-7.147S47.262 1.695 46.838.225" transform="translate(-787 -3066) translate(789 3067) translate(37.095 57.5)"/>
                    <path stroke="#FFF" d="M43.02 10.1s4.878 0 5.303-5.043c0 0 .212-1.26-1.485-4.832 0 0-.424 3.151-2.757 5.252s-1.06 4.622-1.06 4.622zM45.804 5.228L48.219 3.472M45.429 6.528L48.219 4.98M44.566 7.788L44.081 5.477M44.081 8.588L43.493 6.107" transform="translate(-787 -3066) translate(789 3067) translate(37.095 57.5)"/>
                </g>
            </g>
        </g>
    </g>
</svg>
