<svg xmlns="http://www.w3.org/2000/svg" width="191" height="267" viewBox="0 0 191 267"><title>Девятка Жезлов</title>
    <g fill="none" fill-rule="evenodd">
        <g>
            <g>
                <g>
                    <path fill="#2a1612" stroke="#FFF" stroke-linecap="round" stroke-linejoin="round" stroke-width="2.5" d="M177.475 262.926H9.605c-5.212 0-9.436-4.185-9.436-9.347V9.53C.169 4.368 4.393.183 9.604.183h167.871c5.211 0 9.435 4.185 9.435 9.348v244.048c0 5.162-4.224 9.347-9.435 9.347z" transform="translate(-182 -4978) translate(184 4979) translate(0 .85)"/>
                    <path stroke="#D1A448" stroke-linecap="round" stroke-linejoin="round" stroke-width="1.875" d="M64.164 153.498s-4.515-.56-2.446-5.593c0 0 .377-.746 1.882-2.982 1.505-2.237 1.317-3.728 1.317-3.728s3.575 4.287 3.387 8.202c-.188 3.914-2.446 3.914-4.14 4.1z" transform="translate(-182 -4978) translate(184 4979) translate(0 .85)"/>
                    <path stroke="#D1A448" stroke-linecap="round" stroke-linejoin="round" stroke-width="1.875" d="M63.793 153.392s-2.262-.643-.799-3.743c0 0 .252-.455 1.202-1.796s.974-2.31.974-2.31 1.481 2.977 1.07 5.478c-.413 2.5-1.566 2.358-2.447 2.371z" transform="translate(-182 -4978) translate(184 4979) translate(0 .85)"/>
                    <path stroke="#D1A448" stroke-linecap="round" stroke-linejoin="round" stroke-width="1.875" d="M63.788 153.498s-5.833-.746-5.645-8.016c0 0 .377-3.542 3.01-6.525 0 0-.752 2.238-.752 3.542 0 0 1.882-2.796 2.822-5.778.941-2.983.189-5.22.189-5.22s6.773 5.406 7.15 13.608c-.018.034-.091 4.65-2.823 7.457 0 0-2.07 1.491-3.951.932z" transform="translate(-182 -4978) translate(184 4979) translate(0 .85)"/>
                    <path fill="#000" d="M65.569 154.523L65.081 146.905 64.41 146.905 64.557 156.193z" transform="translate(-182 -4978) translate(184 4979) translate(0 .85)"/>
                </g>
                <path fill="#44E7D9" fill-rule="nonzero" d="M60.231 252.204v-6.127l-.03-3.124-.002-.15c.4 1.037 1.632 4.17 3.696 9.401h1.07v-10.796h-.81v6.16l.032 3.275c-.13-.346-1.362-3.491-3.696-9.435h-1.054v10.796h.794zm7.976 0v-10.796h-.81v10.796h.81zm3.226 0v-6.127l-.032-3.208v-.067c.4 1.038 1.631 4.172 3.695 9.402h1.07v-10.796h-.81v6.16l.032 3.275c-.13-.346-1.362-3.491-3.696-9.435h-1.054v10.796h.795zm11.639 0v-.73h-3.664v-4.344h3.193v-.73h-3.193v-4.262h3.664v-.73h-4.474v10.796h4.474zm7.359.162c.854 0 1.497-.23 1.93-.689.431-.459.647-1.056.647-1.79v-6.16c0-.736-.216-1.333-.648-1.792-.432-.46-1.075-.689-1.929-.689-.854 0-1.497.23-1.929.689-.432.46-.648 1.056-.648 1.791v6.16c0 .735.216 1.332.648 1.791.432.46 1.075.69 1.929.69zm0-.73c-1.178 0-1.767-.583-1.767-1.75v-6.16c0-1.167.59-1.75 1.767-1.75 1.178 0 1.767.583 1.767 1.75v6.16c0 1.167-.589 1.75-1.767 1.75zm5.657.568v-4.912h3.372v-.729h-3.372v-4.425h3.518v-.73h-4.328v10.796h.81zm8.948 0v-4.912h3.372v-.729h-3.372v-4.425h3.518v-.73h-4.328v10.796h.81zm5.869 0v-10.796h-.81v10.796h.81zm3.242 0v-4.458l1.73-.001c.097-.003.173-.008.231-.015l1.605 4.474h.891l-1.702-4.652c.93-.346 1.394-1.092 1.394-2.237v-1.475c0-.735-.216-1.324-.648-1.767-.432-.443-1.075-.665-1.929-.665h-2.383v10.796h.81zm1.572-5.22h-1.572v-4.846h1.572c1.178 0 1.767.567 1.767 1.702v1.475c0 1.113-.589 1.67-1.767 1.67zm9.386 5.22v-.73h-3.664v-4.344h3.194v-.73h-3.194v-4.262h3.664v-.73h-4.474v10.796h4.474z" transform="translate(-182 -4978) translate(184 4979)"/>
                <g>
                    <path stroke="#FFF" stroke-linecap="round" stroke-linejoin="round" stroke-width="1.875" d="M99.514 3.832L163.737 3.832 163.737 224.524M15.9 3.832L68.146 3.832M153.687 237.346L122.359 237.346M5.526 14.662L5.526 237.346 45.014 237.346" transform="translate(-182 -4978) translate(184 4979) translate(8.094 11.876)"/>
                    <path fill="#000" d="M5.253 0.025L7.871 4.517 10.489 9.009 5.253 9.009 0.018 9.009 2.636 4.517z" transform="translate(-182 -4978) translate(184 4979) translate(8.094 11.876)"/>
                    <path stroke="#D1A448" stroke-linecap="round" stroke-linejoin="round" stroke-width="1.875" d="M5.253 0.025L7.871 4.517 10.489 9.009 5.253 9.009 0.018 9.009 2.636 4.517z" transform="translate(-182 -4978) translate(184 4979) translate(8.094 11.876)"/>
                    <path fill="#000" d="M163.902 241.835L161.285 237.343 158.667 232.85 163.902 232.85 169.137 232.85 166.52 237.343z" transform="translate(-182 -4978) translate(184 4979) translate(8.094 11.876)"/>
                    <path stroke="#D1A448" stroke-linecap="round" stroke-linejoin="round" stroke-width="1.875" d="M163.902 241.835L161.285 237.343 158.667 232.85 163.902 232.85 169.137 232.85 166.52 237.343z" transform="translate(-182 -4978) translate(184 4979) translate(8.094 11.876)"/>
                </g>
                <path fill="#44E7D9" fill-rule="nonzero" d="M89.377 19.16V8.364h-.81V19.16h.81zm2.35 0l1.88-4.409 1.88 4.41h.892l-2.366-5.399 2.366-5.398h-.891l-1.88 4.426-1.88-4.426h-.892l2.35 5.398-2.35 5.398h.891z" transform="translate(-182 -4978) translate(184 4979)"/>
                <g>
                    <path stroke="#FFF" stroke-linecap="round" stroke-linejoin="round" stroke-width="1.875" d="M4.658 18.29c.545-.014.507 1.176.507 1.176C6.457 54.02 5.7 83.133 5.7 83.133s-1.387 1.773-2.66-.025" transform="translate(-182 -4978) translate(184 4979) translate(44.514 35.932)"/>
                    <path stroke="#FFF" stroke-linecap="round" stroke-linejoin="round" stroke-width="1.875" d="M4.688 18.295c-.545-.047-.519 1.146-.519 1.146C2.53 53.905 2.993 83.056 2.993 83.056s1.368 1.855 2.66.134M5.48 29.035s-.213 2.303-1.832 3.04M5.621 34.724s-.658 3.913-2.222 5.212M5.692 38.072s-.545 3.58-2.37 4.747M5.802 44.562s-.63 2.83-2.607 3.693M5.83 46.75s-.527 2.675-2.678 3.622M5.9 54.424s-.68 3.326-2.89 4.139M5.919 59.448s-.53 2.702-2.95 4.429M5.92 61.626s-.842 2.597-2.961 3.65M5.91 66.187s-.247 3.531-2.977 5.413M5.89 71.477s-.1 1.902-2.95 5.065M5.89 69.737s-.84 3.153-2.956 4.813M5.821 76.47s.16 2.54-2.873 4.811M17.817 11.47c.545-.013.507 1.177.507 1.177 1.292 34.552.535 63.667.535 63.667s-1.386 1.773-2.66-.025" transform="translate(-182 -4978) translate(184 4979) translate(44.514 35.932)"/>
                    <path stroke="#FFF" stroke-linecap="round" stroke-linejoin="round" stroke-width="1.875" d="M17.847 11.476c-.545-.047-.519 1.146-.519 1.146-1.639 34.464-1.176 63.615-1.176 63.615s1.368 1.856 2.66.134M18.64 22.216s-.214 2.303-1.833 3.04M18.78 27.906s-.658 3.912-2.222 5.21M18.851 31.253s-.545 3.58-2.37 4.747M18.96 37.742s-.63 2.831-2.606 3.694M18.99 39.93s-.528 2.675-2.679 3.623M19.059 47.606s-.68 3.325-2.891 4.138M19.078 52.63s-.53 2.701-2.95 4.428M19.08 54.806s-.843 2.598-2.962 3.65M19.07 59.367s-.248 3.533-2.977 5.414M19.048 64.658s-.099 1.902-2.95 5.065M19.05 62.917s-.841 3.154-2.957 4.814M18.98 69.651s.16 2.54-2.873 4.811M30.463 5.726c.545-.013.507 1.177.507 1.177 1.292 34.552.535 63.666.535 63.666s-1.386 1.774-2.66-.024" transform="translate(-182 -4978) translate(184 4979) translate(44.514 35.932)"/>
                    <path stroke="#FFF" stroke-linecap="round" stroke-linejoin="round" stroke-width="1.875" d="M30.493 5.732c-.545-.047-.52 1.146-.52 1.146-1.638 34.464-1.175 63.615-1.175 63.615s1.368 1.855 2.66.134M31.285 16.471s-.214 2.304-1.832 3.04M31.426 22.161s-.658 3.913-2.222 5.212M31.497 25.509s-.545 3.58-2.37 4.747M31.607 31.999s-.63 2.83-2.607 3.693M31.636 34.187s-.528 2.674-2.679 3.622M31.705 41.861s-.68 3.326-2.891 4.139M31.723 46.885s-.528 2.702-2.95 4.429M31.725 49.062s-.842 2.598-2.961 3.65M31.716 53.623s-.248 3.533-2.978 5.414M31.694 58.914s-.099 1.902-2.95 5.065M31.696 57.173s-.841 3.154-2.957 4.814M31.626 63.907s.16 2.54-2.873 4.811M42.13.332c.545-.013.508 1.177.508 1.177 1.291 34.552.534 63.666.534 63.666s-1.386 1.774-2.66-.025" transform="translate(-182 -4978) translate(184 4979) translate(44.514 35.932)"/>
                    <path stroke="#FFF" stroke-linecap="round" stroke-linejoin="round" stroke-width="1.875" d="M42.16.337c-.545-.046-.519 1.146-.519 1.146C40.002 35.948 40.465 65.1 40.465 65.1s1.369 1.855 2.66.134M42.953 11.077s-.214 2.304-1.833 3.04M43.093 16.767s-.657 3.913-2.222 5.211M43.164 20.114s-.545 3.58-2.37 4.748M43.274 26.604s-.63 2.83-2.607 3.694M43.303 28.792s-.528 2.675-2.678 3.622M43.372 36.467s-.68 3.325-2.89 4.138M43.39 41.491s-.528 2.702-2.949 4.428M43.392 43.668s-.842 2.598-2.961 3.65M43.383 48.229s-.247 3.532-2.977 5.413M43.362 53.52s-.1 1.902-2.95 5.065M43.363 51.779s-.841 3.153-2.956 4.813M43.293 58.513s.16 2.54-2.873 4.81M19.931 174.869c.194 7.412.376 11.752.376 11.752s1.632 2.02 3.067-.077M20.315 111.147c-.629-.006-.563 1.367-.563 1.367-.363 16.953-.317 32.765-.144 45.343" transform="translate(-182 -4978) translate(184 4979) translate(44.514 35.932)"/>
                    <path stroke="#FFF" stroke-linecap="round" stroke-linejoin="round" stroke-width="1.875" d="M23.315 175.115c.112 7.175.112 11.368.112 11.368s-1.544 2.165-3.064.204M20.28 111.154c.628-.063.62 1.312.62 1.312 1.116 17.563 1.74 33.934 2.088 46.735M19.564 123.555s.29 2.652 2.17 3.473M19.507 130.12s.83 4.5 2.659 5.97M19.487 133.981s.694 4.12 2.821 5.433M19.48 141.469s.778 3.253 3.074 4.212M19.487 143.993s.657 3.075 3.155 4.129M19.548 152.846s.845 3.823 3.41 4.72" transform="translate(-182 -4978) translate(184 4979) translate(44.514 35.932)"/>
                    <g>
                        <path fill="#000" d="M.32.042c.495.971 1.348 2.278 2.815 3.855" transform="translate(-182 -4978) translate(184 4979) translate(44.514 35.932) translate(20.234 175.072)"/>
                        <path stroke="#FFF" stroke-linecap="round" stroke-linejoin="round" stroke-width="1.875" d="M.32.042c.495.971 1.348 2.278 2.815 3.855" transform="translate(-182 -4978) translate(184 4979) translate(44.514 35.932) translate(20.234 175.072)"/>
                    </g>
                    <g>
                        <path fill="#000" d="M.153.031c.37.455.792.883 1.265 1.246" transform="translate(-182 -4978) translate(184 4979) translate(44.514 35.932) translate(21.92 175.072)"/>
                        <path stroke="#FFF" stroke-linecap="round" stroke-linejoin="round" stroke-width="1.875" d="M.153.031c.37.455.792.883 1.265 1.246" transform="translate(-182 -4978) translate(184 4979) translate(44.514 35.932) translate(21.92 175.072)"/>
                    </g>
                    <path stroke="#FFF" stroke-linecap="round" stroke-linejoin="round" stroke-width="1.875" d="M20.045 178.27s-.138 2.933 3.402 5.498" transform="translate(-182 -4978) translate(184 4979) translate(44.514 35.932)"/>
                    <path stroke="#44E7D9" stroke-linecap="round" stroke-linejoin="round" stroke-width="1.875" d="M58.41 116.268s-1.562 10.828-3.123 20.882c-1.561 10.055-11.71 22.43-14.832 30.937-3.123 8.508-3.903 6.961-4.684 10.055 0 0 0 3.093 11.71 2.32 11.71-.773 24.98.773 30.445 0s9.368-10.054 9.368-10.054.78-11.602-6.245-25.524c-7.026-13.921-11.71-24.75-19.516-28.616H58.41z" transform="translate(-182 -4978) translate(184 4979) translate(44.514 35.932)"/>
                    <path fill="#000" d="M59.971 112.4s-2.342 2.32-1.561 3.867c.78 1.547 4.684 0 4.684-1.546 0-1.547-.78-3.094-3.123-2.32" transform="translate(-182 -4978) translate(184 4979) translate(44.514 35.932)"/>
                    <path stroke="#44E7D9" stroke-linecap="round" stroke-linejoin="round" stroke-width="1.875" d="M59.971 112.4s-2.342 2.32-1.561 3.867c.78 1.547 4.684 0 4.684-1.546 0-1.547-.78-3.094-3.123-2.32zM63.094 112.4s.78-2.32 3.122-2.32c2.342 0 7.026 3.094 7.026 4.64 0 1.547-7.806 1.547-10.148 0M63.094 113.338s2.342-.938 5.464-.164" transform="translate(-182 -4978) translate(184 4979) translate(44.514 35.932)"/>
                    <path stroke="#44E7D9" stroke-linecap="round" stroke-linejoin="round" stroke-width="1.875" d="M59.971 112.4s-1.561-2.32-6.245-1.546c0 0-2.342 0-4.684 3.093 0 0 5.346 2.732 9.308.98M59.182 113.338s-2.334-.938-5.456-.164M61.532 117.814l4.684 13.922M63.094 135.603s0-3.867-.78-6.187l3.122 4.64M59.971 129.416s1.562 8.508 0 14.695M66.216 125.549s3.904 6.96 4.684 12.375M42.871 180.57s5.39-10.936 5.39-15.577M44.638 180.57s4.404-3.202 5.184-7.842M52.164 177.368s4.685-8.507 5.465-11.601c.78-3.094.78 6.96-1.561 10.055M58.41 179.689s.78-3.867.78-6.188M59.971 179.689s1.562-1.547 1.562-3.867M64.655 179.689s4.684-6.961 4.684-13.922M71.681 146.431s3.122 11.602 3.122 22.43M72.462 139.47s3.903 9.282 5.464 20.883M65.436 154.166s0 6.187-1.562 8.507M73.981 180.683s3.165-1.768 3.165-9.502M78.992 180.199s3.618-9.791 2.838-15.979M58.41 116.268c.78 9.28-12.49 26.296-16.394 31.71-3.903 5.414-6.245 15.469-6.245 15.469l-.407 1.736M37.017 159.01L39.096 165.041M38.292 155.713L41.901 164.993M39.687 151.845L43.153 161.9M41.526 148.752L45.166 158.111M43.449 146.003L46.798 155.719M45.503 143.426L48.876 152.096M47.527 140.323L50.562 149.127M49.396 137.985L52.417 145.753M51.732 134.673L53.986 141.21M53.571 130.806L55.501 135.768" transform="translate(-182 -4978) translate(184 4979) translate(44.514 35.932)"/>
                    <path stroke="#D1A448" stroke-linecap="round" stroke-linejoin="round" stroke-width="1.875" d="M22.957 155.726s.778.513 1.965.513 1.78 1.176 1.78 1.176 1.483 2.406 2.077 3.876c.593 1.47 2.67 2.608 2.67 2.608s2.186 1.058 5.636 1.627l4.294.345" transform="translate(-182 -4978) translate(184 4979) translate(44.514 35.932)"/>
                    <g>
                        <path fill="#000" d="M.16.199s-.297 1.763.89 2.35c1.186.589 2.67.295 2.966.589.297.294 3.857 1.176 5.044 1.763 1.186.588 1.483.588 2.373 1.176.89.588 1.483 1.764 1.483 1.764" transform="translate(-182 -4978) translate(184 4979) translate(44.514 35.932) translate(13.49 153.69)"/>
                        <path stroke="#D1A448" stroke-linecap="round" stroke-linejoin="round" stroke-width="1.875" d="M.16.199s-.297 1.763.89 2.35c1.186.589 2.67.295 2.966.589.297.294 3.857 1.176 5.044 1.763 1.186.588 1.483.588 2.373 1.176.89.588 1.483 1.764 1.483 1.764" transform="translate(-182 -4978) translate(184 4979) translate(44.514 35.932) translate(13.49 153.69)"/>
                    </g>
                    <path stroke="#D1A448" stroke-linecap="round" stroke-linejoin="round" stroke-width="1.875" d="M24.329 159.767s1.483.882 1.483 2.351M14.539 156.24s-2.077 0-2.374.587c-.296.589-.593 1.176-.593 1.764 0 .588.89 1.47 1.483 1.763.594.294 2.967 1.176 2.967 1.176M11.869 159.767s-.89 0-1.187 1.176c-.297 1.175 0 1.763.89 2.351.89.587 2.076 1.175 2.67 1.763M10.978 166.233s-.89.294-1.186 1.47c0 0-.297.587.89 1.763s1.483 1.764 2.967 2.646c1.483.881 5.933 2.939 8.603 2.939s8.307 1.175 10.977 1.47c.843.092 1.894.243 2.937.408M16.022 165.939s1.483.882 2.67 1.176M15.725 164.175s.594-.588.594-1.175M16.022 164.763s1.187-.588 1.187-1.763M14.835 168.29s.594-.588.594-1.176M15.132 169.172s1.187-.294 1.187-1.763M13.649 170.936s.296 0 .89-.882M12.759 170.642s.89-.588 1.186-1.47M17.209 160.354s.593-.587 1.186-1.763M18.099 160.942s.89-.588 1.186-1.469M11.572 160.648s0 .882-.297 1.47M12.462 158.59s.593-.587.593-1.468M11.572 165.351s.297-.588.297-1.176M10.385 167.997s.89-.589.89-1.176" transform="translate(-182 -4978) translate(184 4979) translate(44.514 35.932)"/>
                    <path stroke="#D1A448" stroke-linecap="round" stroke-linejoin="round" stroke-width="1.875" d="M11.275 163.588s-.89.882-.297 2.057c.594 1.176 2.374 2.645 2.374 2.645M16.615 154.77c-.593.882-2.077-.294-2.373-.588-.297-.294-.593-1.176 0-.882.593.294 2.077 1.176 2.077 1.176s.993.176 1.483.257c.49.081 1.502.083 1.502.083" transform="translate(-182 -4978) translate(184 4979) translate(44.514 35.932)"/>
                    <path stroke="#FFF" stroke-linecap="round" stroke-linejoin="round" stroke-width="1.875" d="M91.327 18.638c-.545-.013-.507 1.177-.507 1.177-1.291 34.552-.534 63.666-.534 63.666s1.386 1.773 2.66-.024" transform="translate(-182 -4978) translate(184 4979) translate(44.514 35.932)"/>
                    <path stroke="#FFF" stroke-linecap="round" stroke-linejoin="round" stroke-width="1.875" d="M91.297 18.643c.545-.046.52 1.147.52 1.147 1.638 34.464 1.175 63.614 1.175 63.614s-1.368 1.856-2.659.135M90.505 29.383s.214 2.304 1.833 3.04M90.364 35.073s.658 3.913 2.222 5.211M90.293 38.42s.546 3.58 2.371 4.748M90.184 44.91s.63 2.831 2.606 3.694M90.155 47.098s.527 2.675 2.678 3.622M90.086 54.773s.68 3.326 2.89 4.138M90.067 59.797s.53 2.701 2.95 4.428M90.065 61.974s.843 2.598 2.962 3.65M90.075 66.535s.247 3.532 2.977 5.413M90.096 71.825s.1 1.903 2.95 5.066M90.095 70.085s.84 3.153 2.956 4.813M90.165 76.818s-.16 2.54 2.873 4.812M78.168 11.819c-.545-.014-.507 1.177-.507 1.177-1.291 34.552-.534 63.666-.534 63.666s1.386 1.773 2.66-.025" transform="translate(-182 -4978) translate(184 4979) translate(44.514 35.932)"/>
                    <path stroke="#FFF" stroke-linecap="round" stroke-linejoin="round" stroke-width="1.875" d="M78.139 11.824c.545-.046.519 1.146.519 1.146 1.639 34.465 1.175 63.615 1.175 63.615s-1.368 1.856-2.659.135M77.346 22.564s.214 2.304 1.833 3.04M77.205 28.254s.658 3.913 2.222 5.211M77.134 31.601s.546 3.58 2.371 4.748M77.025 38.091s.63 2.83 2.607 3.694M76.996 40.28s.527 2.674 2.678 3.621M76.927 47.954s.68 3.325 2.89 4.138M76.908 52.978s.53 2.702 2.95 4.428M76.906 55.155s.843 2.598 2.962 3.65M76.916 59.716s.247 3.532 2.977 5.413M76.937 65.006s.1 1.903 2.95 5.066M76.936 63.266s.84 3.153 2.956 4.813M77.006 70s-.16 2.54 2.873 4.81M65.522 6.075c-.545-.013-.507 1.177-.507 1.177-1.291 34.552-.534 63.666-.534 63.666s1.386 1.773 2.66-.025" transform="translate(-182 -4978) translate(184 4979) translate(44.514 35.932)"/>
                    <path stroke="#FFF" stroke-linecap="round" stroke-linejoin="round" stroke-width="1.875" d="M65.493 6.08c.544-.046.519 1.146.519 1.146 1.639 34.465 1.176 63.615 1.176 63.615s-1.369 1.856-2.66.135M64.7 16.82s.214 2.304 1.833 3.04M64.56 22.51s.657 3.913 2.221 5.211M64.489 25.857s.545 3.58 2.37 4.748M64.379 32.347s.63 2.83 2.607 3.694M64.35 34.535s.527 2.675 2.678 3.622M64.28 42.21s.68 3.325 2.892 4.138M64.262 47.234s.53 2.701 2.95 4.428M64.26 49.411s.843 2.598 2.962 3.65M64.27 53.972s.247 3.532 2.977 5.413M64.291 59.262s.1 1.902 2.95 5.065M64.29 57.522s.841 3.153 2.956 4.813M64.36 64.255s-.16 2.541 2.873 4.812M53.855.68c-.545-.013-.507 1.177-.507 1.177-1.291 34.553-.535 63.667-.535 63.667s1.387 1.773 2.66-.025" transform="translate(-182 -4978) translate(184 4979) translate(44.514 35.932)"/>
                    <path stroke="#FFF" stroke-linecap="round" stroke-linejoin="round" stroke-width="1.875" d="M53.825.686c.545-.047.52 1.146.52 1.146 1.638 34.464 1.175 63.615 1.175 63.615s-1.368 1.856-2.659.134M53.033 11.426s.214 2.303 1.833 3.04M52.892 17.116s.658 3.912 2.222 5.21M52.821 20.463s.545 3.58 2.37 4.747M52.711 26.953s.63 2.83 2.607 3.693M52.683 29.14s.527 2.675 2.678 3.623M52.613 36.816s.68 3.325 2.891 4.138M52.595 41.84s.529 2.701 2.95 4.428M52.593 44.017s.843 2.597 2.962 3.65M52.603 48.577s.247 3.533 2.977 5.414M52.624 53.868s.1 1.902 2.95 5.065M52.623 52.127s.84 3.154 2.956 4.814M52.692 58.861s-.16 2.54 2.874 4.811" transform="translate(-182 -4978) translate(184 4979) translate(44.514 35.932)"/>
                    <path fill="#D1A448" d="M22.549 80.581L23.127 83.187 25.679 84.153 23.049 84.481 22.32 87.255 21.742 84.404 19.19 83.927 21.82 83.354zM4.477 115.944L5.248 119.417 8.649 120.705 5.144 121.143 4.172 124.839 3.402 121.039 0 120.404 3.505 119.64zM36.11 101.14L36.881 104.613 40.282 105.901 36.777 106.339 35.806 110.035 35.036 106.236 31.633 105.6 35.139 104.836z" transform="translate(-182 -4978) translate(184 4979) translate(44.514 35.932)"/>
                </g>
            </g>
        </g>
    </g>
</svg>
