<svg xmlns="http://www.w3.org/2000/svg" width="191" height="269" viewBox="0 0 191 269"><title>Десятка Жезлов</title>
    <g fill="none" fill-rule="evenodd">
        <g>
            <g>
                <path fill="#2a1612" stroke="#FFF" stroke-linecap="round" stroke-linejoin="round" stroke-width="2.5" d="M177.475 265.252H9.604c-5.21 0-9.435-4.224-9.435-9.435V9.487c0-5.21 4.224-9.434 9.435-9.434h167.871c5.211 0 9.435 4.224 9.435 9.435v246.329c0 5.21-4.224 9.435-9.435 9.435z" transform="translate(-480 -4980) translate(482 4982)"/>
                <path fill="#44E7D9" fill-rule="nonzero" d="M64.227 253.524v-10.067h2.14v-.73h-5.09v.73h2.14v10.067h.81zm7.992 0v-.73h-3.664v-4.344h3.194v-.73h-3.194v-4.263h3.664v-.73h-4.474v10.797h4.474zm2.658 0v-6.128l-.03-3.124-.002-.15c.4 1.037 1.632 4.171 3.696 9.402h1.07v-10.796h-.81v6.16l.032 3.274c-.13-.346-1.362-3.49-3.696-9.434h-1.054v10.796h.794zm12.66.162c.854 0 1.497-.23 1.93-.689.432-.46.648-1.056.648-1.791v-6.16c0-.735-.216-1.332-.649-1.791-.432-.46-1.075-.69-1.929-.69-.853 0-1.496.23-1.929.69-.432.459-.648 1.056-.648 1.79v6.16c0 .736.216 1.333.648 1.792.433.46 1.076.689 1.93.689zm0-.73c-1.177 0-1.766-.583-1.766-1.75v-6.16c0-1.167.589-1.75 1.766-1.75 1.178 0 1.767.583 1.767 1.75v6.16c0 1.167-.589 1.75-1.767 1.75zm5.658.568v-4.912h3.372v-.73h-3.372v-4.425h3.517v-.73h-4.328v10.797h.81zm8.948 0v-4.912h3.372v-.73h-3.372v-4.425h3.518v-.73h-4.329v10.797h.81zm5.868 0v-10.796h-.81v10.796h.81zm3.242 0v-4.458l1.731-.002c.096-.002.173-.007.23-.014l1.605 4.474h.892l-1.702-4.653c.93-.345 1.394-1.091 1.394-2.237v-1.475c0-.735-.216-1.323-.649-1.767-.432-.443-1.075-.664-1.929-.664h-2.382v10.796h.81zm1.572-5.22h-1.572v-4.847h1.572c1.178 0 1.767.568 1.767 1.702v1.475c0 1.114-.589 1.67-1.767 1.67zm9.386 5.22v-.73h-3.663v-4.344h3.193v-.73h-3.193v-4.263h3.663v-.73h-4.474v10.797h4.474z" transform="translate(-480 -4980) translate(482 4982)"/>
                <g>
                    <path stroke="#FFF" stroke-linecap="round" stroke-linejoin="round" stroke-width="1.875" d="M99.515 3.867L163.737 3.867 163.737 226.622M15.9 3.867L68.146 3.867M153.687 239.564L122.359 239.564M5.526 14.799L5.526 239.564 45.013 239.564" transform="translate(-480 -4980) translate(482 4982) translate(8.094 10.997)"/>
                    <path fill="#000" d="M5.253 0.025L7.871 4.559 10.489 9.093 5.253 9.093 0.018 9.093 2.636 4.559z" transform="translate(-480 -4980) translate(482 4982) translate(8.094 10.997)"/>
                    <path stroke="#D1A448" stroke-linecap="round" stroke-linejoin="round" stroke-width="1.875" d="M5.253 0.025L7.871 4.559 10.489 9.093 5.253 9.093 0.018 9.093 2.636 4.559z" transform="translate(-480 -4980) translate(482 4982) translate(8.094 10.997)"/>
                    <path fill="#000" d="M163.902 244.095L161.285 239.561 158.667 235.027 163.902 235.027 169.137 235.027 166.52 239.561z" transform="translate(-480 -4980) translate(482 4982) translate(8.094 10.997)"/>
                    <path stroke="#D1A448" stroke-linecap="round" stroke-linejoin="round" stroke-width="1.875" d="M163.902 244.095L161.285 239.561 158.667 235.027 163.902 235.027 169.137 235.027 166.52 239.561z" transform="translate(-480 -4980) translate(482 4982) translate(8.094 10.997)"/>
                </g>
                <path fill="#44E7D9" fill-rule="nonzero" d="M90.106 20.802L91.987 16.393 93.867 20.802 94.759 20.802 92.392 15.404 94.759 10.006 93.867 10.006 91.987 14.431 90.106 10.006 89.215 10.006 91.565 15.404 89.215 20.802z" transform="translate(-480 -4980) translate(482 4982)"/>
                <g>
                    <g>
                        <path fill="#000" d="M.245.275c.925-.37 1.62 1.714 1.62 1.714C26.159 60.924 43.467 111.75 43.467 111.75s-1.242 3.945-4.573 1.641" transform="translate(-480 -4980) translate(482 4982) translate(25.292 32.242) translate(47.887 30.013)"/>
                        <path stroke="#FFF" stroke-linecap="round" stroke-linejoin="round" stroke-width="1.875" d="M.245.275c.925-.37 1.62 1.714 1.62 1.714C26.159 60.924 43.467 111.75 43.467 111.75s-1.242 3.945-4.573 1.641" transform="translate(-480 -4980) translate(482 4982) translate(25.292 32.242) translate(47.887 30.013)"/>
                    </g>
                    <g>
                        <path fill="#000" d="M.636.265C-.327.529.48 2.575.48 2.575c19.216 60.639 38.638 110.757 38.638 110.757s3.53 2.343 4.642-1.451" transform="translate(-480 -4980) translate(482 4982) translate(25.292 32.242) translate(47.55 30.013)"/>
                        <path stroke="#FFF" stroke-linecap="round" stroke-linejoin="round" stroke-width="1.875" d="M.636.265C-.327.529.48 2.575.48 2.575c19.216 60.639 38.638 110.757 38.638 110.757s3.53 2.343 4.642-1.451" transform="translate(-480 -4980) translate(482 4982) translate(25.292 32.242) translate(47.55 30.013)"/>
                    </g>
                    <path stroke="#FFF" stroke-linecap="round" stroke-linejoin="round" stroke-width="1.875" d="M56.406 48.35s1.106 4.118-1.197 6.417M60.284 58.1s1.373 7.183-.478 10.419M62.544 63.843s1.354 6.536-1.028 9.712M66.88 74.997s.729 5.294-2.107 8.038M68.327 78.763s.805 4.96-2.274 7.96M73.35 91.992s.96 6.181-2.308 8.986M76.593 100.668s.82 5.007-2.224 9.526M77.987 104.432s.216 5.026-2.742 8.187M80.885 112.325s1.833 6.265-1.642 11.247M84.229 121.488s1.045 3.352-1.816 10.627M83.12 118.477s.574 5.986-1.99 10.196M87.303 130.166s1.897 4.293-1.848 10.14" transform="translate(-480 -4980) translate(482 4982) translate(25.292 32.242)"/>
                    <g>
                        <path fill="#000" d="M.235.18c.744-.664 2.11 1.055 2.11 1.055C45.335 48.302 78.99 90.14 78.99 90.14s.182 4.131-3.736 3.106" transform="translate(-480 -4980) translate(482 4982) translate(25.292 32.242) translate(30.013 40.468)"/>
                        <path stroke="#FFF" stroke-linecap="round" stroke-linejoin="round" stroke-width="1.875" d="M.235.18c.744-.664 2.11 1.055 2.11 1.055C45.335 48.302 78.99 90.14 78.99 90.14s.182 4.131-3.736 3.106" transform="translate(-480 -4980) translate(482 4982) translate(25.292 32.242) translate(30.013 40.468)"/>
                    </g>
                    <g>
                        <path fill="#000" d="M.283.151C-.53.73.926 2.376.926 2.376c38.804 50.404 74.2 90.853 74.2 90.853s4.12.993 3.866-2.952" transform="translate(-480 -4980) translate(482 4982) translate(25.292 32.242) translate(30.013 40.468)"/>
                        <path stroke="#FFF" stroke-linecap="round" stroke-linejoin="round" stroke-width="1.875" d="M.283.151C-.53.73.926 2.376.926 2.376c38.804 50.404 74.2 90.853 74.2 90.853s4.12.993 3.866-2.952" transform="translate(-480 -4980) translate(482 4982) translate(25.292 32.242) translate(30.013 40.468)"/>
                    </g>
                    <path stroke="#FFF" stroke-linecap="round" stroke-linejoin="round" stroke-width="1.875" d="M44.204 54.787s2.448 3.492 1.071 6.44M51.184 62.622s3.747 6.28 3.116 9.954M55.273 67.246s3.507 5.678 2.356 9.476M63.163 76.243s2.496 4.725.77 8.273M65.811 79.286s2.454 4.385.587 8.258M75.057 89.998s3.017 5.48.906 9.234M81.072 97.041s2.484 4.424 1.17 9.712M83.67 100.101s1.924 4.648.225 8.632M89.094 106.527s3.866 5.26 2.305 11.129M95.371 113.992s2.13 2.792 1.93 10.607M93.298 111.543s2.588 5.427 1.62 10.26M101.229 121.094s3.25 3.385 1.732 10.16" transform="translate(-480 -4980) translate(482 4982) translate(25.292 32.242)"/>
                    <g>
                        <path fill="#000" d="M78.803.18c-.743-.664-2.11 1.055-2.11 1.055C33.704 48.302.05 90.14.05 90.14s-.182 4.131 3.735 3.106" transform="translate(-480 -4980) translate(482 4982) translate(25.292 32.242) translate(30.013 40.468)"/>
                        <path stroke="#FFF" stroke-linecap="round" stroke-linejoin="round" stroke-width="1.875" d="M78.803.18c-.743-.664-2.11 1.055-2.11 1.055C33.704 48.302.05 90.14.05 90.14s-.182 4.131 3.735 3.106" transform="translate(-480 -4980) translate(482 4982) translate(25.292 32.242) translate(30.013 40.468)"/>
                    </g>
                    <g>
                        <path fill="#000" d="M78.756.151c.814.579-.643 2.225-.643 2.225-38.804 50.404-74.2 90.853-74.2 90.853s-4.12.993-3.866-2.952" transform="translate(-480 -4980) translate(482 4982) translate(25.292 32.242) translate(30.013 40.468)"/>
                        <path stroke="#FFF" stroke-linecap="round" stroke-linejoin="round" stroke-width="1.875" d="M78.756.151c.814.579-.643 2.225-.643 2.225-38.804 50.404-74.2 90.853-74.2 90.853s-4.12.993-3.866-2.952" transform="translate(-480 -4980) translate(482 4982) translate(25.292 32.242) translate(30.013 40.468)"/>
                    </g>
                    <path stroke="#FFF" stroke-linecap="round" stroke-linejoin="round" stroke-width="1.875" d="M94.861 54.787s-2.447 3.492-1.07 6.44M87.882 62.622s-3.748 6.28-3.116 9.954M83.793 67.246s-3.508 5.678-2.357 9.476M75.903 76.243s-2.496 4.725-.77 8.273M73.255 79.286s-2.454 4.385-.587 8.258M64.009 89.998s-3.018 5.48-.906 9.234M57.993 97.041s-2.483 4.424-1.17 9.712M55.395 100.101s-1.923 4.648-.224 8.632M49.971 106.527s-3.866 5.26-2.304 11.129M43.694 113.992s-2.129 2.792-1.929 10.607M45.767 111.543s-2.587 5.427-1.619 10.26M37.837 121.094s-3.25 3.385-1.733 10.16" transform="translate(-480 -4980) translate(482 4982) translate(25.292 32.242)"/>
                    <g>
                        <path fill="#000" d="M.301.387c.467-.88 2.345.258 2.345.258C59.293 29.88 105.369 57.447 105.369 57.447s1.603 3.812-2.426 4.21" transform="translate(-480 -4980) translate(482 4982) translate(25.292 32.242) translate(16.524 56.317)"/>
                        <path stroke="#FFF" stroke-linecap="round" stroke-linejoin="round" stroke-width="1.875" d="M.301.387c.467-.88 2.345.258 2.345.258C59.293 29.88 105.369 57.447 105.369 57.447s1.603 3.812-2.426 4.21" transform="translate(-480 -4980) translate(482 4982) translate(25.292 32.242) translate(16.524 56.317)"/>
                    </g>
                    <g>
                        <path fill="#000" d="M.336.007C-.227.83 1.71 1.87 1.71 1.87c53.877 33.817 101.106 59.477 101.106 59.477s4.207-.497 2.601-4.109" transform="translate(-480 -4980) translate(482 4982) translate(25.292 32.242) translate(16.524 56.655)"/>
                        <path stroke="#FFF" stroke-linecap="round" stroke-linejoin="round" stroke-width="1.875" d="M.336.007C-.227.83 1.71 1.87 1.71 1.87c53.877 33.817 101.106 59.477 101.106 59.477s4.207-.497 2.601-4.109" transform="translate(-480 -4980) translate(482 4982) translate(25.292 32.242) translate(16.524 56.655)"/>
                    </g>
                    <path stroke="#FFF" stroke-linecap="round" stroke-linejoin="round" stroke-width="1.875" d="M34.819 65.126s3.507 2.426 3.238 5.669M44.082 70.054s5.694 4.59 6.375 8.255M49.521 72.972s5.26 4.11 5.498 8.072M60.042 78.675s3.98 3.565 3.593 7.492M63.582 80.61s3.822 3.262 3.414 7.541M75.969 87.45s4.73 4.093 4.052 8.347M84.054 91.97s3.864 3.288 4.465 8.703M87.552 93.939s3.416 3.692 3.205 8.017M94.868 98.084s5.45 3.592 6.022 9.638M103.344 102.908s2.966 1.881 5.489 9.28M100.55 101.33s4.31 4.194 5.078 9.063M111.302 107.539s4.223 2.046 5.149 8.928" transform="translate(-480 -4980) translate(482 4982) translate(25.292 32.242)"/>
                    <g>
                        <path fill="#000" d="M105.716.387c-.467-.88-2.345.258-2.345.258C46.724 29.88.648 57.447.648 57.447s-1.603 3.812 2.426 4.21" transform="translate(-480 -4980) translate(482 4982) translate(25.292 32.242) translate(16.524 56.317)"/>
                        <path stroke="#FFF" stroke-linecap="round" stroke-linejoin="round" stroke-width="1.875" d="M105.716.387c-.467-.88-2.345.258-2.345.258C46.724 29.88.648 57.447.648 57.447s-1.603 3.812 2.426 4.21" transform="translate(-480 -4980) translate(482 4982) translate(25.292 32.242) translate(16.524 56.317)"/>
                    </g>
                    <g>
                        <path fill="#000" d="M105.681.007c.563.824-1.374 1.863-1.374 1.863C50.429 35.687 3.2 61.347 3.2 61.347S-1.007 60.85.6 57.238" transform="translate(-480 -4980) translate(482 4982) translate(25.292 32.242) translate(16.524 56.655)"/>
                        <path stroke="#FFF" stroke-linecap="round" stroke-linejoin="round" stroke-width="1.875" d="M105.681.007c.563.824-1.374 1.863-1.374 1.863C50.429 35.687 3.2 61.347 3.2 61.347S-1.007 60.85.6 57.238" transform="translate(-480 -4980) translate(482 4982) translate(25.292 32.242) translate(16.524 56.655)"/>
                    </g>
                    <path stroke="#FFF" stroke-linecap="round" stroke-linejoin="round" stroke-width="1.875" d="M104.247 65.126s-3.507 2.426-3.238 5.669M94.983 70.054s-5.693 4.59-6.375 8.255M89.544 72.972s-5.26 4.11-5.497 8.072M79.024 78.675s-3.981 3.565-3.593 7.492M75.484 80.61s-3.822 3.262-3.414 7.541M63.097 87.45s-4.73 4.093-4.053 8.347M55.012 91.97s-3.864 3.288-4.465 8.703M51.514 93.939s-3.416 3.692-3.205 8.017M44.198 98.084s-5.45 3.592-6.022 9.638M35.721 102.908s-2.966 1.881-5.488 9.28M38.515 101.33s-4.31 4.194-5.078 9.063M27.764 107.539s-4.223 2.046-5.15 8.928" transform="translate(-480 -4980) translate(482 4982) translate(25.292 32.242)"/>
                    <g>
                        <path fill="#000" d="M.216.967c.15-.984 2.299-.53 2.299-.53C65.637 9.33 118.23 20.142 118.23 20.142s2.772 3.07-.9 4.774" transform="translate(-480 -4980) translate(482 4982) translate(25.292 32.242) translate(9.78 74.528)"/>
                        <path stroke="#FFF" stroke-linecap="round" stroke-linejoin="round" stroke-width="1.875" d="M.216.967c.15-.984 2.299-.53 2.299-.53C65.637 9.33 118.23 20.142 118.23 20.142s2.772 3.07-.9 4.774" transform="translate(-480 -4980) translate(482 4982) translate(25.292 32.242) translate(9.78 74.528)"/>
                    </g>
                    <g>
                        <path fill="#000" d="M.235.24c-.26.965 1.913 1.306 1.913 1.306C64.168 15.68 117.22 24.31 117.22 24.31s3.808-1.858 1.099-4.738" transform="translate(-480 -4980) translate(482 4982) translate(25.292 32.242) translate(9.78 75.202)"/>
                        <path stroke="#FFF" stroke-linecap="round" stroke-linejoin="round" stroke-width="1.875" d="M.235.24c-.26.965 1.913 1.306 1.913 1.306C64.168 15.68 117.22 24.31 117.22 24.31s3.808-1.858 1.099-4.738" transform="translate(-480 -4980) translate(482 4982) translate(25.292 32.242) translate(9.78 75.202)"/>
                    </g>
                    <path stroke="#FFF" stroke-linecap="round" stroke-linejoin="round" stroke-width="1.875" d="M29.76 77.504s4.112 1.133 4.929 4.282M40.132 79.098s6.89 2.453 8.743 5.687M46.23 80.057s6.32 2.142 7.853 5.803M58.043 81.967s4.935 2.051 5.865 5.886M62.023 82.625s4.685 1.817 5.712 5.992M75.974 84.992s5.817 2.302 6.58 6.54M85.098 86.589s4.733 1.828 7.088 6.741M89.05 87.293s4.443 2.358 5.672 6.51M97.324 88.79s6.33 1.592 8.866 7.11M106.918 90.546s3.42.796 8.244 6.948M103.76 89.979s5.452 2.535 7.785 6.878M115.958 92.29s4.661.538 7.808 6.727" transform="translate(-480 -4980) translate(482 4982) translate(25.292 32.242)"/>
                    <g>
                        <path fill="#000" d="M119.29.967c-.15-.984-2.299-.53-2.299-.53C53.87 9.33 1.276 20.142 1.276 20.142s-2.772 3.07.9 4.774" transform="translate(-480 -4980) translate(482 4982) translate(25.292 32.242) translate(9.78 74.528)"/>
                        <path stroke="#FFF" stroke-linecap="round" stroke-linejoin="round" stroke-width="1.875" d="M119.29.967c-.15-.984-2.299-.53-2.299-.53C53.87 9.33 1.276 20.142 1.276 20.142s-2.772 3.07.9 4.774" transform="translate(-480 -4980) translate(482 4982) translate(25.292 32.242) translate(9.78 74.528)"/>
                    </g>
                    <g>
                        <path fill="#000" d="M119.271.24c.26.965-1.913 1.306-1.913 1.306C55.338 15.68 2.286 24.31 2.286 24.31s-3.808-1.858-1.1-4.738" transform="translate(-480 -4980) translate(482 4982) translate(25.292 32.242) translate(9.78 75.202)"/>
                        <path stroke="#FFF" stroke-linecap="round" stroke-linejoin="round" stroke-width="1.875" d="M119.271.24c.26.965-1.913 1.306-1.913 1.306C55.338 15.68 2.286 24.31 2.286 24.31s-3.808-1.858-1.1-4.738" transform="translate(-480 -4980) translate(482 4982) translate(25.292 32.242) translate(9.78 75.202)"/>
                    </g>
                    <path stroke="#FFF" stroke-linecap="round" stroke-linejoin="round" stroke-width="1.875" d="M109.305 77.504s-4.112 1.133-4.928 4.282M98.933 79.098s-6.889 2.453-8.742 5.687M92.836 80.057s-6.321 2.142-7.854 5.803M81.023 81.967s-4.935 2.051-5.865 5.886M77.042 82.625s-4.684 1.817-5.712 5.992M63.092 84.992s-5.817 2.302-6.581 6.54M53.968 86.589s-4.733 1.828-7.088 6.741M50.016 87.293s-4.443 2.358-5.672 6.51M41.742 88.79s-6.33 1.592-8.867 7.11M32.148 90.546s-3.421.796-8.244 6.948M35.306 89.979s-5.453 2.535-7.785 6.878M23.108 92.29s-4.662.538-7.808 6.727" transform="translate(-480 -4980) translate(482 4982) translate(25.292 32.242)"/>
                    <g>
                        <path fill="#000" d="M1.91.045c.996-.035.95 2.16.95 2.16 3.02 63.674 2.195 117.361 2.195 117.361s-2.498 3.295-4.858.005" transform="translate(-480 -4980) translate(482 4982) translate(25.292 32.242) translate(67.109 26.641)"/>
                        <path stroke="#FFF" stroke-linecap="round" stroke-linejoin="round" stroke-width="1.875" d="M1.91.045c.996-.035.95 2.16.95 2.16 3.02 63.674 2.195 117.361 2.195 117.361s-2.498 3.295-4.858.005" transform="translate(-480 -4980) translate(482 4982) translate(25.292 32.242) translate(67.109 26.641)"/>
                    </g>
                    <g>
                        <path fill="#000" d="M2.302.054c-.996-.075-.926 2.123-.926 2.123C-.957 65.745.447 119.476.447 119.476s2.535 3.395 4.86.197" transform="translate(-480 -4980) translate(482 4982) translate(25.292 32.242) translate(66.772 26.641)"/>
                        <path stroke="#FFF" stroke-linecap="round" stroke-linejoin="round" stroke-width="1.875" d="M2.302.054c-.996-.075-.926 2.123-.926 2.123C-.957 65.745.447 119.476.447 119.476s2.535 3.395 4.86.197" transform="translate(-480 -4980) translate(482 4982) translate(25.292 32.242) translate(66.772 26.641)"/>
                    </g>
                    <path stroke="#FFF" stroke-linecap="round" stroke-linejoin="round" stroke-width="1.875" d="M70.727 46.48s-.347 4.25-3.29 5.64M71.093 56.966s-1.127 7.226-3.959 9.65M71.287 63.136s-.928 6.61-4.24 8.797M71.611 75.098s-1.096 5.23-4.69 6.859M71.706 79.131s-.912 4.941-4.823 6.728M71.98 93.279s-1.179 6.143-5.201 7.684M72.11 102.54s-.915 4.99-5.303 8.22M72.155 106.554s-1.49 4.805-5.34 6.785M72.224 114.962s-.384 6.517-5.334 10.036M72.287 124.715s-.145 3.51-5.29 9.395M72.256 121.507s-1.475 5.83-5.307 8.93M72.258 133.922s.34 4.68-5.156 8.924" transform="translate(-480 -4980) translate(482 4982) translate(25.292 32.242)"/>
                    <g>
                        <path fill="#000" d="M43.385.275c-.925-.37-1.621 1.714-1.621 1.714C17.472 60.924.164 111.75.164 111.75s1.242 3.945 4.572 1.641" transform="translate(-480 -4980) translate(482 4982) translate(25.292 32.242) translate(47.55 30.013)"/>
                        <path stroke="#FFF" stroke-linecap="round" stroke-linejoin="round" stroke-width="1.875" d="M43.385.275c-.925-.37-1.621 1.714-1.621 1.714C17.472 60.924.164 111.75.164 111.75s1.242 3.945 4.572 1.641" transform="translate(-480 -4980) translate(482 4982) translate(25.292 32.242) translate(47.55 30.013)"/>
                    </g>
                    <g>
                        <path fill="#000" d="M43.33.265c.963.264.157 2.31.157 2.31C24.271 63.214 4.85 113.332 4.85 113.332s-3.53 2.343-4.642-1.451" transform="translate(-480 -4980) translate(482 4982) translate(25.292 32.242) translate(47.55 30.013)"/>
                        <path stroke="#FFF" stroke-linecap="round" stroke-linejoin="round" stroke-width="1.875" d="M43.33.265c.963.264.157 2.31.157 2.31C24.271 63.214 4.85 113.332 4.85 113.332s-3.53 2.343-4.642-1.451" transform="translate(-480 -4980) translate(482 4982) translate(25.292 32.242) translate(47.55 30.013)"/>
                    </g>
                    <path stroke="#FFF" stroke-linecap="round" stroke-linejoin="round" stroke-width="1.875" d="M82.66 48.35s-1.106 4.118 1.196 6.417M78.782 58.1s-1.373 7.183.477 10.419M76.521 63.843s-1.353 6.536 1.028 9.712M72.186 74.997s-.73 5.294 2.107 8.038M70.739 78.763s-.806 4.96 2.274 7.96M65.716 91.992s-.96 6.181 2.308 8.986M62.473 100.668s-.82 5.007 2.224 9.526M61.08 104.432s-.218 5.026 2.74 8.187M58.18 112.325s-1.833 6.265 1.643 11.247M54.837 121.488s-1.046 3.352 1.816 10.627M55.946 118.477s-.574 5.986 1.99 10.196M51.763 130.166s-1.897 4.293 1.848 10.14" transform="translate(-480 -4980) translate(482 4982) translate(25.292 32.242)"/>
                    <g>
                        <path fill="#000" d="M121.293 1.805c.035.996-2.16.95-2.16.95C55.459 5.774 1.772 4.95 1.772 4.95S-1.524 2.452 1.767.093" transform="translate(-480 -4980) translate(482 4982) translate(25.292 32.242) translate(11.466 174.348)"/>
                        <path stroke="#FFF" stroke-linecap="round" stroke-linejoin="round" stroke-width="1.875" d="M121.293 1.805c.035.996-2.16.95-2.16.95C55.459 5.774 1.772 4.95 1.772 4.95S-1.524 2.452 1.767.093" transform="translate(-480 -4980) translate(482 4982) translate(25.292 32.242) translate(11.466 174.348)"/>
                    </g>
                    <g>
                        <path fill="#000" d="M121.284 2.535c.075-.996-2.123-.926-2.123-.926C55.594-.724 1.862.68 1.862.68s-3.395 2.535-.197 4.86" transform="translate(-480 -4980) translate(482 4982) translate(25.292 32.242) translate(11.466 173.674)"/>
                        <path stroke="#FFF" stroke-linecap="round" stroke-linejoin="round" stroke-width="1.875" d="M121.284 2.535c.075-.996-2.123-.926-2.123-.926C55.594-.724 1.862.68 1.862.68s-3.395 2.535-.197 4.86" transform="translate(-480 -4980) translate(482 4982) translate(25.292 32.242) translate(11.466 173.674)"/>
                    </g>
                    <path stroke="#FFF" stroke-linecap="round" stroke-linejoin="round" stroke-width="1.875" d="M112.965 177.861s-4.25-.346-5.64-3.289M102.478 178.228s-7.225-1.127-9.649-3.96M96.31 178.421s-6.61-.927-8.798-4.238M84.347 178.746s-5.23-1.097-6.859-4.69M80.313 178.84s-4.94-.912-6.728-4.822M66.166 179.114s-6.144-1.178-7.684-5.2M56.905 179.245s-4.991-.915-8.22-5.303M52.891 179.29s-4.806-1.49-6.786-5.34M44.482 179.359s-6.516-.384-10.035-5.334M34.73 179.421s-3.51-.145-9.395-5.29M37.938 179.39s-5.83-1.475-8.93-5.307M25.523 179.392s-4.68.34-8.925-5.155" transform="translate(-480 -4980) translate(482 4982) translate(25.292 32.242)"/>
                    <path fill="#000" d="M67.924 100.614s-8.526-1.1-8.25-11.825c0 0 .55-5.226 4.4-9.626 0 0-1.1 3.3-1.1 5.225 0 0 2.75-4.125 4.125-8.525s.275-7.7.275-7.7 9.9 7.975 10.45 20.076c-.025.05-.132 6.859-4.125 11 0 0-3.025 2.2-5.775 1.375" transform="translate(-480 -4980) translate(482 4982) translate(25.292 32.242)"/>
                    <path stroke="#D1A448" stroke-linecap="round" stroke-linejoin="round" stroke-width="1.875" d="M67.924 100.614s-8.526-1.1-8.25-11.825c0 0 .55-5.226 4.4-9.626 0 0-1.1 3.3-1.1 5.225 0 0 2.75-4.125 4.125-8.525s.275-7.7.275-7.7 9.9 7.975 10.45 20.076c-.025.05-.132 6.859-4.125 11 0 0-3.025 2.2-5.775 1.375z" transform="translate(-480 -4980) translate(482 4982) translate(25.292 32.242)"/>
                    <path stroke="#D1A448" stroke-linecap="round" stroke-linejoin="round" stroke-width="1.875" d="M68.474 100.614s-6.6-.825-3.575-8.25c0 0 .55-1.1 2.75-4.4 2.2-3.3 1.925-5.5 1.925-5.5s5.225 6.325 4.95 12.1c-.275 5.775-3.575 5.775-6.05 6.05z" transform="translate(-480 -4980) translate(482 4982) translate(25.292 32.242)"/>
                    <path stroke="#D1A448" stroke-linecap="round" stroke-linejoin="round" stroke-width="1.875" d="M67.932 100.459s-3.308-.95-1.169-5.523c0 0 .369-.671 1.757-2.65 1.388-1.978 1.423-3.408 1.423-3.408s2.165 4.393 1.564 8.082c-.602 3.69-2.289 3.48-3.575 3.499z" transform="translate(-480 -4980) translate(482 4982) translate(25.292 32.242)"/>
                    <path fill="#44E7D9" d="M100.972 23.901c0 .34-.276.617-.617.617-.34 0-.616-.276-.616-.617 0-.34.276-.616.616-.616.341 0 .617.275.617.616M129.937 44.422L129.462 42.262 127.366 41.461 129.526 41.188 130.125 38.889 130.6 41.253 132.696 41.648 130.536 42.123zM4.526 46.986L5.297 50.492 8.698 51.791 5.193 52.233 4.222 55.964 3.451 52.129.049 51.487 3.555 50.717zM12.006 17.99c.073.175-.008.376-.183.45-.175.073-.375-.009-.449-.184-.073-.174.009-.375.183-.448.175-.074.375.008.449.183M111.946 7.381L111.315 4.516 108.535 3.453 111.4 3.092 112.194.042 112.824 3.177 115.605 3.701 112.739 4.331zM39.532 18.892L40.303 22.397 43.704 23.697 40.199 24.139 39.228 27.869 38.457 24.035 35.055 23.394 38.561 22.622zM47.35 4.735c.073.175-.01.375-.184.448-.174.074-.375-.008-.449-.182-.073-.175.01-.376.184-.45.174-.072.375.01.448.184M73.153 18.663c-.2-.477.023-1.026.5-1.227.478-.2 1.027.023 1.228.5.2.478-.023 1.027-.5 1.228-.478.2-1.027-.024-1.228-.5M108.729 159.13c0 .34-.276.617-.617.617-.34 0-.617-.276-.617-.617 0-.34.277-.616.617-.616.34 0 .617.276.617.616M132.972 158.406L132.497 156.246 130.401 155.445 132.561 155.172 133.16 152.873 133.635 155.237 135.731 155.631 133.571 156.107zM4.526 106.001L5.297 109.507 8.698 110.806 5.193 111.248 4.222 114.979 3.451 111.144.049 110.503 3.555 109.732zM11.373 136.947c.19.453-.022.976-.476 1.166-.453.19-.975-.022-1.166-.475-.19-.454.022-.976.476-1.167.453-.19.976.022 1.166.476M128.807 126.761L128.177 123.895 125.397 122.833 128.262 122.471 129.056 119.422 129.685 122.557 132.467 123.081 129.601 123.711zM33.124 156.144L33.896 159.65 37.296 160.949 33.792 161.392 32.82 165.122 32.05 161.287 28.648 160.646 32.154 159.875zM55.105 139.964c.074.175-.008.376-.182.449-.175.073-.376-.009-.45-.183-.072-.174.01-.375.184-.449.174-.073.375.008.448.183M79.223 151.195c-.2-.477.023-1.027.5-1.228.478-.2 1.027.024 1.228.501.2.477-.023 1.027-.5 1.227-.478.201-1.027-.023-1.228-.5M131.906 83.983c0 .34-.276.617-.617.617-.34 0-.616-.276-.616-.617 0-.34.276-.616.616-.616.341 0 .617.275.617.616M5.508 82.76c0 .341-.276.617-.617.617-.34 0-.616-.276-.616-.616 0-.341.276-.617.616-.617.341 0 .617.276.617.617" transform="translate(-480 -4980) translate(482 4982) translate(25.292 32.242)"/>
                </g>
            </g>
        </g>
    </g>
</svg>
