<svg xmlns="http://www.w3.org/2000/svg" width="191" height="270" viewBox="0 0 191 270"><title>Король Мечей</title>
    <g fill="none" fill-rule="evenodd">
        <g>
            <g>
                <path fill="#1a1d24" stroke="#FFF" stroke-linecap="round" stroke-linejoin="round" stroke-width="2.5" d="M177.795 265.846H9.621c-5.22 0-9.452-4.231-9.452-9.452V9.62C.169 4.401 4.401.17 9.621.17h168.174c5.22 0 9.452 4.232 9.452 9.452v246.773c0 5.22-4.232 9.452-9.452 9.452z" transform="translate(-477 -1354) translate(479 1356)"/>
                <path fill="#D1A448" fill-rule="nonzero" d="M64.746 253.404v-10.816h-.812v10.816h.812zm4.45 0l-2.47-5.392 2.356-5.424h-.894l-2.354 5.457 2.452 5.359h.91zm2.354 0v-10.816h-.812v10.816h.812zm3.232 0v-6.139c-.02-1.913-.03-2.99-.032-3.23v-.05c.4 1.039 1.634 4.179 3.702 9.419h1.072v-10.816h-.812v6.171l.032 3.28c-.13-.346-1.364-3.496-3.702-9.45h-1.056v10.815h.796zm9.67.08c.85 0 1.632-.21 2.347-.633v-4.628h-.812v4.141c-.368.26-.937.39-1.705.39-1.115 0-1.673-.487-1.673-1.462v-6.495c0-1.029.644-1.543 1.933-1.543.67 0 1.326.103 1.965.308v-.795c-.607-.173-1.235-.26-1.884-.26-1.884 0-2.826.763-2.826 2.29v6.495c0 .77.23 1.327.69 1.673.46.347 1.115.52 1.965.52zm10.207.082c.855 0 1.5-.23 1.932-.69.433-.46.65-1.058.65-1.795v-6.17c0-.737-.217-1.335-.65-1.795-.433-.46-1.077-.69-1.932-.69s-1.5.23-1.933.69c-.433.46-.65 1.058-.65 1.794v6.171c0 .737.217 1.335.65 1.795.433.46 1.078.69 1.933.69zm0-.73c-1.18 0-1.77-.585-1.77-1.755v-6.17c0-1.17.59-1.755 1.77-1.755 1.18 0 1.77.585 1.77 1.754v6.171c0 1.17-.59 1.754-1.77 1.754zm5.667.568v-4.921h3.378v-.73h-3.378v-4.434h3.524v-.73h-4.336v10.815h.812zm8.104 0l.73-3.167h3.086l.73 3.167h.845l-2.533-10.816h-1.17l-2.533 10.816h.845zm3.654-3.898h-2.761l1.38-5.992 1.38 5.992zm4.092 3.898v-10.816h-.812v10.816h.812zm3.248 0v-4.466h1.575c.173 0 .303-.006.39-.017l1.608 4.483h.893l-1.705-4.661c.93-.347 1.396-1.094 1.396-2.241v-1.478c0-.736-.216-1.326-.65-1.77-.432-.444-1.077-.666-1.932-.666h-2.387v10.816h.812zm1.575-5.23h-1.575v-4.855h1.575c1.18 0 1.77.568 1.77 1.705v1.478c0 1.115-.59 1.672-1.77 1.672z" transform="translate(-477 -1354) translate(479 1356)"/>
                <g>
                    <path stroke="#FFF" stroke-linecap="round" stroke-linejoin="round" stroke-width="1.875" d="M16.179 3.874L164.283 3.874 164.283 227.03M154.214 239.996L126.932 239.996M44.331 239.996L5.786 239.996 5.786 14.826" transform="translate(-477 -1354) translate(479 1356) translate(8.446 10.98)"/>
                    <path stroke="#44E7D9" stroke-linecap="round" stroke-linejoin="round" stroke-width="1.875" d="M5.513 0.025L8.136 4.567 10.758 9.11 5.513 9.11 0.269 9.11 2.891 4.567z" transform="translate(-477 -1354) translate(479 1356) translate(8.446 10.98)"/>
                    <path fill="#FFF" d="M77.305 194.806l-.008-.01.008.01z" transform="translate(-477 -1354) translate(479 1356) translate(8.446 10.98)"/>
                    <path stroke="#44E7D9" stroke-linecap="round" stroke-linejoin="round" stroke-width="1.875" d="M81.95 123.24S71.809 87.053 42.305 78.985c0 0-12.448-1.613-13.6 3.457 0 0-.576 1.499.115 2.882 0 0-1.613 2.996.23 6.224 0 0-1.382 3.457 1.153 5.993 0 0-1.383 5.762 1.153 7.837 0 0-2.997 4.38 0 7.607 0 0-2.075 4.61-.23 6.223 1.843 1.614 1.613 4.38 4.148 5.993 2.536 1.614 17.98 2.766 22.36 2.536 4.379-.23 17.979.23 20.975.46M52.1 128.197s-9.912 3.227-13.83 6.223c-3.919 2.997-2.305 5.302-2.305 5.302s-1.614 1.153-1.614 3.227c0 0-1.613 2.997.922 5.071 0 0-1.152 6.224 2.075 7.607 0 0 0 5.993 1.613 7.146 1.614 1.152 2.075 1.383 2.075 2.305 0 .922.23 5.762 1.614 6.223 1.383.461 2.996.461 3.227 1.844.23 1.384.23 5.302 2.766 5.072 2.535-.231 2.766-1.153 4.149-.692 1.383.461 2.766 2.536 3.688 2.766.922.23 3.457 0 5.762-2.997l2.306-2.074s.691.691 1.613.23c.922-.46 2.535-2.305 2.535-2.305s.922-.46 1.614-.922c.692-.46 4.15-4.38 4.84-6.223.692-1.844 2.075-5.533 3.92-7.838 1.843-2.305 3.918-4.84 3.918-8.99v-3.457" transform="translate(-477 -1354) translate(479 1356) translate(8.446 10.98)"/>
                    <path stroke="#44E7D9" stroke-linecap="round" stroke-linejoin="round" stroke-width="1.875" d="M79.07 130.732s-9.912 2.305-11.987 2.536c-2.074.23-9.911.23-12.217.692-2.305.46-18.901 5.762-18.901 5.762M66.853 133.96s-3.919 2.304-6.685 3.227c-2.766.922-10.603 3.918-12.448 4.61-1.843.691-12.447 6.223-12.447 6.223M64.778 135.803s-.23 2.997-2.305 3.92c-2.075.921-14.752 9.45-15.674 10.372-.922.922-8.53 5.071-8.53 5.071M80.453 132.115s-7.608 7.837-8.53 8.99c-.922 1.153-5.992 17.519-5.992 17.519l-5.763 14.521M71.232 141.105s-5.532 3.458-5.763 3.919c-.23.46-1.613 2.996-1.613 2.996L48.412 174.53M64.547 145.485s-9.45 3.688-10.833 5.07c-1.383 1.384-12.217 12.91-12.217 12.91M48.182 149.634s-8.99 8.068-9.682 10.603M57.402 152.63s-10.834 15.905-14.06 17.75M36.133 78.798s7.093 3.413 11.703 5.027c4.61 1.613 8.99 6.684 19.132 15.904 10.142 9.22 13.6 25.587 13.6 25.587M42.304 82.211s-10.451-1.121-13.755.823" transform="translate(-477 -1354) translate(479 1356) translate(8.446 10.98)"/>
                    <path stroke="#44E7D9" stroke-linecap="round" stroke-linejoin="round" stroke-width="1.875" d="M28.55 87.105s14.1-.86 19.862 2.367C54.175 92.699 65.239 98 70.31 103.994" transform="translate(-477 -1354) translate(479 1356) translate(8.446 10.98)"/>
                    <path stroke="#44E7D9" stroke-linecap="round" stroke-linejoin="round" stroke-width="1.875" d="M64.778 99.614s-.23 1.153-2.997.461c-2.766-.691-8.99-4.149-11.755-4.61-2.766-.46-10.604-3.919-20.285-3.458M30.894 97.078s14.028-2.126 20.498-.947M30.433 100.306s19.132-1.383 23.511.922c0 0 4.15 3.918 6.454 8.99" transform="translate(-477 -1354) translate(479 1356) translate(8.446 10.98)"/>
                    <path stroke="#44E7D9" stroke-linecap="round" stroke-linejoin="round" stroke-width="1.875" d="M79.53 125.43s-11.064-8.067-11.986-8.528c-.922-.46-4.61-5.302-8.759-7.146-4.15-1.843-8.299-2.074-11.525-1.843-3.227.23-9.912.23-16.136 3.918" transform="translate(-477 -1354) translate(479 1356) translate(8.446 10.98)"/>
                    <path stroke="#44E7D9" stroke-linecap="round" stroke-linejoin="round" stroke-width="1.875" d="M31.355 117.133s17.288-3.228 26.277-1.383c8.99 1.843 10.703 1.658 10.703 1.658M34.812 124.278s16.366-1.383 26.278.23c9.912 1.614 15.213.231 18.44 2.075M39.192 152.4c0 .382.31.691.692.691.381 0 .691-.31.691-.691 0-.382-.31-.692-.691-.692-.382 0-.692.31-.692.692zM36.426 153.898c0 .318.258.576.576.576.318 0 .576-.258.576-.576 0-.318-.258-.576-.576-.576-.318 0-.576.258-.576.576zM37.578 144.447c0 .446.362.807.807.807.446 0 .807-.361.807-.807 0-.445-.361-.806-.807-.806-.445 0-.807.361-.807.806zM38.5 136.956c0 .382.31.691.692.691.382 0 .692-.309.692-.691 0-.382-.31-.692-.692-.692-.382 0-.692.31-.692.692zM34.812 146.061c0 .318.259.576.576.576.319 0 .577-.258.577-.576 0-.318-.258-.576-.577-.576-.317 0-.576.258-.576.576zM42.419 160.698c0 .255.206.461.46.461.256 0 .462-.206.462-.46 0-.256-.206-.462-.461-.462s-.461.206-.461.461zM40.114 162.542c0 .255.206.461.461.461.254 0 .46-.206.46-.46 0-.256-.206-.462-.46-.462-.255 0-.461.206-.461.461zM46.337 168.996c0 .382.31.692.692.692.382 0 .692-.31.692-.692 0-.382-.31-.691-.692-.691-.382 0-.692.31-.692.691zM53.944 174.874c0 .191.155.346.346.346.19 0 .346-.155.346-.346 0-.19-.155-.345-.346-.345-.19 0-.346.154-.346.345zM65.009 171.993c0 .382.31.691.691.691.382 0 .692-.31.692-.691 0-.382-.31-.692-.692-.692-.382 0-.691.31-.691.692zM65.239 174.413c0 .318.258.576.576.576.319 0 .577-.258.577-.576 0-.318-.258-.576-.577-.576-.318 0-.576.258-.576.576zM69.158 168.88c0 .574.464 1.038 1.037 1.038s1.037-.464 1.037-1.037-.464-1.037-1.037-1.037-1.037.464-1.037 1.037zM34.812 104.34c0 .445.362.806.807.806.446 0 .807-.361.807-.807 0-.445-.361-.806-.807-.806-.445 0-.807.361-.807.806zM35.043 112.407c0 .318.258.577.576.577.318 0 .576-.259.576-.577 0-.318-.258-.576-.576-.576-.318 0-.576.258-.576.576zM34.582 119.783c0 .318.258.577.576.577.318 0 .576-.259.576-.577 0-.318-.258-.576-.576-.576-.318 0-.576.258-.576.576zM44.494 111.14c0 .254.206.46.46.46.255 0 .462-.206.462-.46 0-.255-.207-.461-.462-.461-.254 0-.46.206-.46.46zM45.646 103.418c0 .317.258.576.576.576.319 0 .577-.259.577-.576 0-.319-.258-.577-.577-.577-.318 0-.576.258-.576.577zM33.43 96.618c0 .636.515 1.152 1.152 1.152.636 0 1.152-.516 1.152-1.152 0-.637-.516-1.153-1.152-1.153-.637 0-1.153.516-1.153 1.153zM34.12 89.587c0 .573.465 1.037 1.038 1.037s1.038-.464 1.038-1.037-.465-1.037-1.038-1.037-1.037.464-1.037 1.037zM36.656 84.4c0 .765.62 1.384 1.383 1.384.764 0 1.384-.62 1.384-1.383 0-.764-.62-1.383-1.384-1.383-.763 0-1.383.619-1.383 1.383zM87.211 122.955s10.142-36.19 39.647-44.257c0 0 12.447-1.614 13.6 3.457 0 0 .576 1.499-.115 2.882 0 0 1.613 2.996-.23 6.223 0 0 1.382 3.458-1.153 5.994 0 0 1.383 5.762-1.153 7.837 0 0 2.997 4.38 0 7.607 0 0 2.075 4.61.23 6.223-1.844 1.613-1.613 4.38-4.149 5.993-2.535 1.614-17.98 2.766-22.359 2.536-4.379-.23-17.979.23-20.976.46M117.061 127.91s9.912 3.228 13.83 6.224c3.92 2.997 2.306 5.302 2.306 5.302s1.613 1.153 1.613 3.227c0 0 1.614 2.997-.922 5.071 0 0 1.153 6.224-2.074 7.607 0 0 0 5.993-1.613 7.146-1.614 1.152-2.075 1.383-2.075 2.305 0 .922-.23 5.762-1.614 6.223-1.383.461-2.997.461-3.227 1.844-.23 1.384-.23 5.302-2.766 5.072-2.536-.231-2.766-1.153-4.15-.692-1.382.461-2.765 2.536-3.687 2.766-.922.23-3.457 0-5.763-2.997l-2.305-2.074s-.691.691-1.613.23c-.922-.46-2.536-2.305-2.536-2.305s-.922-.46-1.613-.922c-.692-.46-4.15-4.38-4.841-6.223-.692-1.844-2.075-5.533-3.919-7.838-1.843-2.305-3.918-4.84-3.918-8.99v-3.457" transform="translate(-477 -1354) translate(479 1356) translate(8.446 10.98)"/>
                    <path stroke="#44E7D9" stroke-linecap="round" stroke-linejoin="round" stroke-width="1.875" d="M90.092 130.446s9.912 2.305 11.987 2.536c2.074.23 9.911.23 12.216.692 2.306.46 18.902 5.762 18.902 5.762M102.31 133.674s3.918 2.304 6.684 3.227c2.766.921 10.603 3.918 12.447 4.61 1.844.691 12.447 6.223 12.447 6.223M104.384 135.517s.23 2.997 2.305 3.92c2.074.921 14.752 9.45 15.674 10.372.922.922 8.529 5.07 8.529 5.07M88.71 131.83s7.606 7.836 8.528 8.99c.922 1.151 5.993 17.518 5.993 17.518l5.763 14.521M97.93 140.82s5.532 3.457 5.763 3.918c.23.46 1.613 2.996 1.613 2.996l15.444 26.509M104.614 145.199s9.451 3.688 10.834 5.07c1.383 1.384 12.217 12.91 12.217 12.91M120.98 149.348s8.99 8.068 9.681 10.603M111.76 152.344s10.834 15.905 14.06 17.75M133.029 78.512s-7.093 3.413-11.703 5.027c-4.61 1.613-8.99 6.684-19.132 15.904-10.142 9.22-13.6 25.586-13.6 25.586M126.858 81.925s10.451-1.121 13.754.823" transform="translate(-477 -1354) translate(479 1356) translate(8.446 10.98)"/>
                    <path stroke="#44E7D9" stroke-linecap="round" stroke-linejoin="round" stroke-width="1.875" d="M140.612 86.82s-14.1-.861-19.862 2.366c-5.763 3.227-16.827 8.529-21.898 14.521" transform="translate(-477 -1354) translate(479 1356) translate(8.446 10.98)"/>
                    <path stroke="#44E7D9" stroke-linecap="round" stroke-linejoin="round" stroke-width="1.875" d="M104.384 99.328s.23 1.153 2.996.461 8.99-4.149 11.756-4.61c2.766-.46 10.603-3.919 20.285-3.458M138.268 96.792s-14.028-2.126-20.499-.948M138.73 100.02s-19.133-1.383-23.513.922c0 0-4.149 3.918-6.454 8.99" transform="translate(-477 -1354) translate(479 1356) translate(8.446 10.98)"/>
                    <path stroke="#44E7D9" stroke-linecap="round" stroke-linejoin="round" stroke-width="1.875" d="M89.632 125.145s11.064-8.068 11.986-8.529c.922-.46 4.61-5.302 8.759-7.146 4.15-1.843 8.298-2.074 11.525-1.843 3.227.23 9.912.23 16.136 3.918" transform="translate(-477 -1354) translate(479 1356) translate(8.446 10.98)"/>
                    <path stroke="#44E7D9" stroke-linecap="round" stroke-linejoin="round" stroke-width="1.875" d="M137.807 116.847s-17.288-3.228-26.278-1.383c-8.99 1.843-10.702 1.658-10.702 1.658M134.35 123.992s-16.366-1.383-26.278.23c-9.912 1.614-15.213.231-18.44 2.075M129.97 152.114c0 .382-.31.691-.692.691-.382 0-.691-.31-.691-.691 0-.382.31-.692.691-.692.382 0 .692.31.692.692zM132.736 153.612c0 .318-.258.576-.576.576-.318 0-.576-.258-.576-.576 0-.318.258-.576.576-.576.318 0 .576.258.576.576zM131.583 144.161c0 .446-.36.807-.807.807-.445 0-.806-.361-.806-.807 0-.445.361-.806.806-.806.446 0 .807.361.807.806zM130.661 136.67c0 .382-.31.691-.691.691-.382 0-.692-.31-.692-.691 0-.382.31-.692.692-.692.382 0 .691.31.691.692zM134.35 145.775c0 .318-.259.576-.577.576-.318 0-.576-.258-.576-.576 0-.318.258-.576.576-.576.318 0 .577.258.577.576zM126.743 160.412c0 .255-.207.461-.461.461-.255 0-.461-.206-.461-.46 0-.256.206-.462.46-.462.255 0 .462.206.462.461zM129.048 162.256c0 .255-.206.46-.461.46s-.461-.205-.461-.46.206-.46.46-.46c.256 0 .462.205.462.46zM122.824 168.71c0 .382-.31.692-.691.692-.382 0-.692-.31-.692-.692 0-.382.31-.691.692-.691.382 0 .691.31.691.691zM115.217 174.588c0 .191-.154.346-.345.346-.191 0-.346-.155-.346-.346 0-.19.155-.345.346-.345.19 0 .345.154.345.345zM104.153 171.707c0 .382-.31.691-.691.691-.382 0-.692-.31-.692-.691 0-.382.31-.692.692-.692.381 0 .691.31.691.692zM103.923 174.127c0 .318-.258.576-.576.576-.319 0-.577-.258-.577-.576 0-.318.258-.576.577-.576.318 0 .576.258.576.576zM100.004 168.595c0 .573-.464 1.037-1.037 1.037s-1.037-.464-1.037-1.037.464-1.037 1.037-1.037 1.037.464 1.037 1.037zM134.35 104.053c0 .446-.362.807-.808.807-.445 0-.806-.361-.806-.807 0-.445.361-.806.806-.806.446 0 .808.361.808.806zM134.119 112.121c0 .318-.258.577-.576.577-.318 0-.576-.259-.576-.577 0-.318.258-.576.576-.576.318 0 .576.258.576.576zM134.58 119.497c0 .318-.258.577-.576.577-.318 0-.577-.259-.577-.577 0-.318.259-.576.577-.576.318 0 .576.258.576.576zM124.668 110.853c0 .255-.206.461-.46.461-.255 0-.462-.206-.462-.46 0-.255.207-.462.461-.462.255 0 .461.207.461.461zM123.516 103.132c0 .317-.259.576-.576.576-.319 0-.577-.259-.577-.576 0-.319.258-.577.577-.577.317 0 .576.258.576.577zM135.733 96.332c0 .636-.516 1.152-1.153 1.152s-1.153-.516-1.153-1.152c0-.637.516-1.153 1.153-1.153s1.153.516 1.153 1.153zM135.041 89.301c0 .573-.464 1.037-1.037 1.037s-1.038-.464-1.038-1.037.465-1.037 1.038-1.037 1.037.464 1.037 1.037zM132.505 84.115c0 .764-.619 1.383-1.383 1.383-.763 0-1.383-.62-1.383-1.383 0-.764.62-1.384 1.383-1.384.764 0 1.383.62 1.383 1.384z" transform="translate(-477 -1354) translate(479 1356) translate(8.446 10.98)"/>
                    <g>
                        <path fill="#000" d="M0.277 0.193L10.75 0.193" transform="translate(-477 -1354) translate(479 1356) translate(8.446 10.98) translate(0 3.716)"/>
                        <path stroke="#44E7D9" stroke-linecap="round" stroke-linejoin="round" stroke-width="1.875" d="M0.277 0.193L10.75 0.193" transform="translate(-477 -1354) translate(479 1356) translate(8.446 10.98) translate(0 3.716)"/>
                    </g>
                    <path stroke="#44E7D9" stroke-linecap="round" stroke-linejoin="round" stroke-width="1.875" d="M164.448 244.534L161.825 239.993 159.203 235.45 164.448 235.45 169.693 235.45 167.07 239.993z" transform="translate(-477 -1354) translate(479 1356) translate(8.446 10.98)"/>
                    <g>
                        <path fill="#000" d="M10.563 0.448L0.09 0.448" transform="translate(-477 -1354) translate(479 1356) translate(8.446 10.98) translate(159.122 240.203)"/>
                        <path stroke="#44E7D9" stroke-linecap="round" stroke-linejoin="round" stroke-width="1.875" d="M10.563 0.448L0.09 0.448" transform="translate(-477 -1354) translate(479 1356) translate(8.446 10.98) translate(159.122 240.203)"/>
                    </g>
                    <path fill="#000" d="M82.029 196.463L81.994 178.327 87.148 178.318 87.183 196.453z" transform="translate(-477 -1354) translate(479 1356) translate(8.446 10.98)"/>
                    <path stroke="#FFF" stroke-linecap="round" stroke-linejoin="round" stroke-width="1.875" d="M82.029 196.463L81.994 178.327 87.148 178.318 87.183 196.453z" transform="translate(-477 -1354) translate(479 1356) translate(8.446 10.98)"/>
                    <path fill="#000" d="M88.047 198.646L88.045 197.596 88.042 196.546 81.361 196.559 81.366 198.659z" transform="translate(-477 -1354) translate(479 1356) translate(8.446 10.98)"/>
                    <path stroke="#FFF" stroke-linecap="round" stroke-linejoin="round" stroke-width="1.875" d="M88.047 198.646L88.045 197.596 88.042 196.546 81.361 196.559 81.366 198.659z" transform="translate(-477 -1354) translate(479 1356) translate(8.446 10.98)"/>
                    <g>
                        <path fill="#000" d="M0.282 0.216L6.963 0.204" transform="translate(-477 -1354) translate(479 1356) translate(8.446 10.98) translate(81.081 197.297)"/>
                        <path stroke="#FFF" stroke-linecap="round" stroke-linejoin="round" stroke-width="1.875" d="M0.282 0.216L6.963 0.204" transform="translate(-477 -1354) translate(479 1356) translate(8.446 10.98) translate(81.081 197.297)"/>
                    </g>
                    <g>
                        <path fill="#000" d="M4.201 0s-.206 1.623-1.924 1.817c0 0-1.648.004-1.973-1.81" transform="translate(-477 -1354) translate(479 1356) translate(8.446 10.98) translate(82.432 198.649)"/>
                        <path stroke="#FFF" stroke-linecap="round" stroke-linejoin="round" stroke-width="1.875" d="M4.201 0s-.206 1.623-1.924 1.817c0 0-1.648.004-1.973-1.81" transform="translate(-477 -1354) translate(479 1356) translate(8.446 10.98) translate(82.432 198.649)"/>
                    </g>
                    <g>
                        <path fill="#000" d="M7.849 85.639L6.496 10.811 4.185 0.125 1.342 10.821 0.109 85.654" transform="translate(-477 -1354) translate(479 1356) translate(8.446 10.98) translate(80.405 89.527)"/>
                        <path stroke="#FFF" stroke-linecap="round" stroke-linejoin="round" stroke-width="1.875" d="M7.849 85.639L6.496 10.811 4.185 0.125 1.342 10.821 0.109 85.654" transform="translate(-477 -1354) translate(479 1356) translate(8.446 10.98) translate(80.405 89.527)"/>
                    </g>
                    <g>
                        <path fill="#000" d="M0.491 28.889L0.197 0.256" transform="translate(-477 -1354) translate(479 1356) translate(8.446 10.98) translate(84.122 146.284)"/>
                        <path stroke="#FFF" stroke-linecap="round" stroke-linejoin="round" stroke-width="1.875" d="M0.491 28.889L0.197 0.256" transform="translate(-477 -1354) translate(479 1356) translate(8.446 10.98) translate(84.122 146.284)"/>
                    </g>
                    <g>
                        <path fill="#000" d="M0.195 1.666L0.192 0.139" transform="translate(-477 -1354) translate(479 1356) translate(8.446 10.98) translate(84.122 143.919)"/>
                        <path stroke="#FFF" stroke-linecap="round" stroke-linejoin="round" stroke-width="1.875" d="M0.195 1.666L0.192 0.139" transform="translate(-477 -1354) translate(479 1356) translate(8.446 10.98) translate(84.122 143.919)"/>
                    </g>
                    <g>
                        <path fill="#000" d="M0.191 0.051L0.192 0.433" transform="translate(-477 -1354) translate(479 1356) translate(8.446 10.98) translate(84.122 143.243)"/>
                        <path stroke="#FFF" stroke-linecap="round" stroke-linejoin="round" stroke-width="1.875" d="M0.191 0.051L0.192 0.433" transform="translate(-477 -1354) translate(479 1356) translate(8.446 10.98) translate(84.122 143.243)"/>
                    </g>
                    <g>
                        <path fill="#000" d="M0.189 52.813L0.469 0.125" transform="translate(-477 -1354) translate(479 1356) translate(8.446 10.98) translate(84.122 89.527)"/>
                        <path stroke="#FFF" stroke-linecap="round" stroke-linejoin="round" stroke-width="1.875" d="M0.189 52.813L0.469 0.125" transform="translate(-477 -1354) translate(479 1356) translate(8.446 10.98) translate(84.122 89.527)"/>
                    </g>
                    <g>
                        <path fill="#000" d="M1.171 1.615L0.023 0.09" transform="translate(-477 -1354) translate(479 1356) translate(8.446 10.98) translate(82.432 169.932)"/>
                        <path stroke="#FFF" stroke-linecap="round" stroke-linejoin="round" stroke-width="1.875" d="M1.171 1.615L0.023 0.09" transform="translate(-477 -1354) translate(479 1356) translate(8.446 10.98) translate(82.432 169.932)"/>
                    </g>
                    <g>
                        <path fill="#000" d="M1.275 1.514L0.318 0.179" transform="translate(-477 -1354) translate(479 1356) translate(8.446 10.98) translate(81.757 170.608)"/>
                        <path stroke="#FFF" stroke-linecap="round" stroke-linejoin="round" stroke-width="1.875" d="M1.275 1.514L0.318 0.179" transform="translate(-477 -1354) translate(479 1356) translate(8.446 10.98) translate(81.757 170.608)"/>
                    </g>
                    <g>
                        <path fill="#000" d="M0.831 0.808L0.257 0.045" transform="translate(-477 -1354) translate(479 1356) translate(8.446 10.98) translate(82.77 169.595)"/>
                        <path stroke="#FFF" stroke-linecap="round" stroke-linejoin="round" stroke-width="1.875" d="M0.831 0.808L0.257 0.045" transform="translate(-477 -1354) translate(479 1356) translate(8.446 10.98) translate(82.77 169.595)"/>
                    </g>
                    <path fill="#000" d="M94.498 178.399L74.645 178.437 74.639 175.192 94.491 175.154z" transform="translate(-477 -1354) translate(479 1356) translate(8.446 10.98)"/>
                    <path stroke="#FFF" stroke-linecap="round" stroke-linejoin="round" stroke-width="1.875" d="M94.498 178.399L74.645 178.437 74.639 175.192 94.491 175.154z" transform="translate(-477 -1354) translate(479 1356) translate(8.446 10.98)"/>
                    <g>
                        <path fill="#000" d="M20.17 0.329L0.317 0.368" transform="translate(-477 -1354) translate(479 1356) translate(8.446 10.98) translate(74.324 176.351)"/>
                        <path stroke="#FFF" stroke-linecap="round" stroke-linejoin="round" stroke-width="1.875" d="M20.17 0.329L0.317 0.368" transform="translate(-477 -1354) translate(479 1356) translate(8.446 10.98) translate(74.324 176.351)"/>
                    </g>
                    <g>
                        <path fill="#000" d="M5.326 0.195L0.269 0.187" transform="translate(-477 -1354) translate(479 1356) translate(8.446 10.98) translate(81.757 194.595)"/>
                        <path stroke="#FFF" stroke-linecap="round" stroke-linejoin="round" stroke-width="1.875" d="M5.326 0.195L0.269 0.187" transform="translate(-477 -1354) translate(479 1356) translate(8.446 10.98) translate(81.757 194.595)"/>
                    </g>
                    <g>
                        <path fill="#000" d="M5.369 0.467L0.312 0.459" transform="translate(-477 -1354) translate(479 1356) translate(8.446 10.98) translate(81.757 192.23)"/>
                        <path stroke="#FFF" stroke-linecap="round" stroke-linejoin="round" stroke-width="1.875" d="M5.369 0.467L0.312 0.459" transform="translate(-477 -1354) translate(479 1356) translate(8.446 10.98) translate(81.757 192.23)"/>
                    </g>
                    <g>
                        <path fill="#000" d="M5.3 0.171L0.243 0.164" transform="translate(-477 -1354) translate(479 1356) translate(8.446 10.98) translate(81.757 190.54)"/>
                        <path stroke="#FFF" stroke-linecap="round" stroke-linejoin="round" stroke-width="1.875" d="M5.3 0.171L0.243 0.164" transform="translate(-477 -1354) translate(479 1356) translate(8.446 10.98) translate(81.757 190.54)"/>
                    </g>
                    <g>
                        <path fill="#000" d="M5.343 0.444L0.287 0.436" transform="translate(-477 -1354) translate(479 1356) translate(8.446 10.98) translate(81.757 188.176)"/>
                        <path stroke="#FFF" stroke-linecap="round" stroke-linejoin="round" stroke-width="1.875" d="M5.343 0.444L0.287 0.436" transform="translate(-477 -1354) translate(479 1356) translate(8.446 10.98) translate(81.757 188.176)"/>
                    </g>
                    <g>
                        <path fill="#000" d="M5.255 0.451L0.198 0.442" transform="translate(-477 -1354) translate(479 1356) translate(8.446 10.98) translate(81.757 185.81)"/>
                        <path stroke="#FFF" stroke-linecap="round" stroke-linejoin="round" stroke-width="1.875" d="M5.255 0.451L0.198 0.442" transform="translate(-477 -1354) translate(479 1356) translate(8.446 10.98) translate(81.757 185.81)"/>
                    </g>
                    <g>
                        <path fill="#000" d="M5.564 0.594L0.242 0.377" transform="translate(-477 -1354) translate(479 1356) translate(8.446 10.98) translate(81.757 183.784)"/>
                        <path stroke="#FFF" stroke-linecap="round" stroke-linejoin="round" stroke-width="1.875" d="M5.564 0.594L0.242 0.377" transform="translate(-477 -1354) translate(479 1356) translate(8.446 10.98) translate(81.757 183.784)"/>
                    </g>
                    <g>
                        <path fill="#000" d="M5.229 0.427L0.172 0.419" transform="translate(-477 -1354) translate(479 1356) translate(8.446 10.98) translate(81.757 181.757)"/>
                        <path stroke="#FFF" stroke-linecap="round" stroke-linejoin="round" stroke-width="1.875" d="M5.229 0.427L0.172 0.419" transform="translate(-477 -1354) translate(479 1356) translate(8.446 10.98) translate(81.757 181.757)"/>
                    </g>
                    <g>
                        <path fill="#000" d="M5.273 0.362L0.216 0.354" transform="translate(-477 -1354) translate(479 1356) translate(8.446 10.98) translate(81.757 179.73)"/>
                        <path stroke="#FFF" stroke-linecap="round" stroke-linejoin="round" stroke-width="1.875" d="M5.273 0.362L0.216 0.354" transform="translate(-477 -1354) translate(479 1356) translate(8.446 10.98) translate(81.757 179.73)"/>
                    </g>
                    <g>
                        <path fill="#000" d="M8.182 24.384L0.25 0.294" transform="translate(-477 -1354) translate(479 1356) translate(8.446 10.98) translate(67.23 45.27)"/>
                        <path stroke="#FFF" stroke-linecap="round" stroke-linejoin="round" stroke-width="1.875" d="M8.182 24.384L0.25 0.294" transform="translate(-477 -1354) translate(479 1356) translate(8.446 10.98) translate(67.23 45.27)"/>
                    </g>
                    <g>
                        <path fill="#000" d="M0.601 31.827L0.219 0.002" transform="translate(-477 -1354) translate(479 1356) translate(8.446 10.98) translate(83.784 37.162)"/>
                        <path stroke="#FFF" stroke-linecap="round" stroke-linejoin="round" stroke-width="1.875" d="M0.601 31.827L0.219 0.002" transform="translate(-477 -1354) translate(479 1356) translate(8.446 10.98) translate(83.784 37.162)"/>
                    </g>
                    <g>
                        <path fill="#000" d="M8.217 0.014L0.284 24.104" transform="translate(-477 -1354) translate(479 1356) translate(8.446 10.98) translate(92.905 45.27)"/>
                        <path stroke="#FFF" stroke-linecap="round" stroke-linejoin="round" stroke-width="1.875" d="M8.217 0.014L0.284 24.104" transform="translate(-477 -1354) translate(479 1356) translate(8.446 10.98) translate(92.905 45.27)"/>
                    </g>
                    <path stroke="#D1A448" stroke-linecap="round" stroke-linejoin="round" stroke-width="1.875" d="M101.83 78.603s-3.032-3.033-15.77-3.64c-12.737-.606-19.408 3.64-19.408 3.64l-7.886-19.41s7.583 10.615 10.615 7.582c3.033-3.033-2.426-22.442-2.426-22.442s8.491 20.622 12.13 16.377c3.64-4.246 4.853-25.475 4.853-25.475" transform="translate(-477 -1354) translate(479 1356) translate(8.446 10.98)"/>
                    <path stroke="#D1A448" stroke-linecap="round" stroke-linejoin="round" stroke-width="1.875" d="M101.83 78.223s-3.01-3.033-15.65-3.639c-12.64-.606-19.26 3.64-19.26 3.64M103.65 73.23s-3.346-3.477-17.401-4.173c-14.055-.696-21.417 4.173-21.417 4.173" transform="translate(-477 -1354) translate(479 1356) translate(8.446 10.98)"/>
                    <path stroke="#D1A448" stroke-linecap="round" stroke-linejoin="round" stroke-width="1.875" d="M83.635 71.696c0 .503.407.91.91.91.502 0 .91-.407.91-.91 0-.502-.408-.909-.91-.909-.503 0-.91.407-.91.91zM75.412 72.303c0 .503.407.91.91.91.502 0 .91-.407.91-.91 0-.502-.408-.91-.91-.91-.503 0-.91.408-.91.91zM67.795 74.46c0 .503.408.91.91.91.503 0 .91-.407.91-.91 0-.502-.407-.91-.91-.91-.502 0-.91.408-.91.91zM93.608 72.303c0 .503-.408.91-.91.91-.503 0-.91-.407-.91-.91 0-.502.407-.91.91-.91.502 0 .91.408.91.91zM100.886 74.46c0 .503-.407.91-.91.91-.502 0-.91-.407-.91-.91 0-.502.408-.91.91-.91.503 0 .91.408.91.91z" transform="translate(-477 -1354) translate(479 1356) translate(8.446 10.98)"/>
                    <path stroke="#D1A448" stroke-linecap="round" stroke-linejoin="round" stroke-width="1.875" d="M101.895 78.621l7.885-19.409s-7.582 10.615-10.614 7.582c-3.033-3.033 2.426-22.442 2.426-22.442s-8.491 20.622-12.13 16.377c-3.64-4.246-5.46-25.475-5.46-25.475" transform="translate(-477 -1354) translate(479 1356) translate(8.446 10.98)"/>
                    <path fill="#D1A448" d="M83.068 34.584c0 .502.408.91.91.91.503 0 .91-.408.91-.91s-.407-.91-.91-.91c-.502 0-.91.408-.91.91" transform="translate(-477 -1354) translate(479 1356) translate(8.446 10.98)"/>
                    <path stroke="#D1A448" stroke-width="1.875" d="M83.068 34.584c0 .502.408.91.91.91.503 0 .91-.408.91-.91s-.407-.91-.91-.91c-.502 0-.91.408-.91.91z" transform="translate(-477 -1354) translate(479 1356) translate(8.446 10.98)"/>
                    <path fill="#D1A448" d="M100.974 43.706c0 .502.407.91.91.91.502 0 .91-.408.91-.91 0-.503-.408-.91-.91-.91-.503 0-.91.407-.91.91" transform="translate(-477 -1354) translate(479 1356) translate(8.446 10.98)"/>
                    <path stroke="#D1A448" stroke-width="1.875" d="M100.974 43.706c0 .502.407.91.91.91.502 0 .91-.408.91-.91 0-.503-.408-.91-.91-.91-.503 0-.91.407-.91.91z" transform="translate(-477 -1354) translate(479 1356) translate(8.446 10.98)"/>
                    <path fill="#D1A448" d="M109.695 57.77c.11.49.597.798 1.087.688.49-.11.799-.597.689-1.087-.11-.49-.598-.798-1.088-.688-.49.11-.798.597-.688 1.087" transform="translate(-477 -1354) translate(479 1356) translate(8.446 10.98)"/>
                    <path stroke="#D1A448" stroke-width="1.875" d="M109.695 57.77c.11.49.597.798 1.087.688.49-.11.799-.597.689-1.087-.11-.49-.598-.798-1.088-.688-.49.11-.798.597-.688 1.087z" transform="translate(-477 -1354) translate(479 1356) translate(8.446 10.98)"/>
                    <path fill="#D1A448" d="M65.66 43.592c0 .502.407.91.91.91.502 0 .91-.408.91-.91 0-.503-.408-.91-.91-.91-.503 0-.91.407-.91.91" transform="translate(-477 -1354) translate(479 1356) translate(8.446 10.98)"/>
                    <path stroke="#D1A448" stroke-width="1.875" d="M65.66 43.592c0 .502.407.91.91.91.502 0 .91-.408.91-.91 0-.503-.408-.91-.91-.91-.503 0-.91.407-.91.91z" transform="translate(-477 -1354) translate(479 1356) translate(8.446 10.98)"/>
                    <path fill="#D1A448" d="M56.963 57.57c0 .503.407.91.91.91.502 0 .91-.407.91-.91 0-.502-.408-.91-.91-.91-.503 0-.91.408-.91.91" transform="translate(-477 -1354) translate(479 1356) translate(8.446 10.98)"/>
                    <path stroke="#D1A448" stroke-width="1.875" d="M56.963 57.57c0 .503.407.91.91.91.502 0 .91-.407.91-.91 0-.502-.408-.91-.91-.91-.503 0-.91.408-.91.91z" transform="translate(-477 -1354) translate(479 1356) translate(8.446 10.98)"/>
                    <path fill="#FFF" d="M148.38 183.711L147.608 180.199 144.201 178.897 147.712 178.454 148.685 174.717 149.457 178.558 152.865 179.201 149.353 179.973zM119.385 199.361L118.909 197.197 116.809 196.394 118.973 196.121 119.573 193.818 120.048 196.186 122.149 196.581 119.984 197.058zM116.24 211.54c-.132-.315.016-.677.33-.81.315-.131.677.016.81.33.132.315-.016.678-.33.81-.315.132-.677-.016-.81-.33M144.059 200.822L143.701 199.198 142.126 198.595 143.75 198.391 144.2 196.662 144.557 198.439 146.133 198.736 144.509 199.094zM133.722 199.588c-.073-.175.009-.376.184-.45.174-.073.375.009.45.184.073.174-.01.375-.184.449-.175.074-.376-.008-.45-.183M137.405 184.1c-.133-.315.015-.677.33-.81.314-.132.676.016.809.33.132.315-.016.677-.33.81-.315.132-.677-.016-.81-.33M16.447 64.893L17.219 68.405 20.626 69.707 17.115 70.15 16.142 73.887 15.37 70.046 11.962 69.403 15.474 68.631zM45.442 49.243L45.918 51.407 48.018 52.21 45.854 52.483 45.254 54.786 44.779 52.418 42.678 52.022 44.843 51.546zM48.586 37.064c.132.315-.015.677-.33.81-.314.131-.677-.016-.809-.33-.132-.315.016-.678.33-.81.315-.132.676.016.809.33M20.768 47.782L21.125 49.406 22.701 50.009 21.077 50.213 20.627 51.942 20.27 50.165 18.693 49.868 20.318 49.51zM31.105 49.016c.073.175-.009.376-.184.45-.175.073-.376-.009-.449-.184-.074-.174.008-.375.183-.449.175-.074.376.008.45.183M27.422 64.504c.133.315-.015.677-.33.81-.314.132-.676-.016-.809-.33-.132-.315.016-.677.33-.81.315-.132.677.016.81.33" transform="translate(-477 -1354) translate(479 1356) translate(8.446 10.98)"/>
                </g>
            </g>
        </g>
    </g>
</svg>
