<svg xmlns="http://www.w3.org/2000/svg" width="191" height="266" viewBox="0 0 191 266"><title>Шестёрка Пентаклей</title>
    <g fill="none" fill-rule="evenodd">
        <g>
            <g>
                <path fill="#182018" stroke="#FFF" stroke-linecap="round" stroke-linejoin="round" stroke-width="2.5" d="M177.363 263.112H9.604c-5.211 0-9.435-4.185-9.435-9.348V9.716C.169 4.553 4.393.368 9.604.368h167.76c5.21 0 9.435 4.185 9.435 9.348v244.048c0 5.163-4.225 9.348-9.436 9.348z" transform="translate(-487 -3066) translate(489 3067)"/>
                <path fill="#44E7D9" fill-rule="nonzero" d="M62.084 251.468c.892 0 1.573-.197 2.043-.591.47-.395.705-.949.705-1.662v-.843c0-.95-.438-1.664-1.313-2.14l-1.897-1.053c-.659-.357-.988-.892-.988-1.605v-.924c0-.93.605-1.394 1.815-1.394.821 0 1.491.092 2.01.275v-.778c-.562-.162-1.25-.243-2.067-.243-.816 0-1.448.192-1.896.576-.449.383-.673.915-.673 1.596v.94c0 .984.454 1.724 1.362 2.221l1.896 1.038c.357.194.603.405.738.632.135.227.202.53.202.908v.794c0 1.005-.68 1.508-2.042 1.508-.757 0-1.454-.114-2.091-.34v.777c.573.206 1.305.308 2.196.308zm5.342-.08V240.59h-.81v10.796h.81zm2.35 0l1.88-4.41 1.88 4.41h.892l-2.366-5.399 2.366-5.398h-.891l-1.88 4.426-1.88-4.426h-.892l2.35 5.398-2.35 5.398h.891zm11.607.161c.853 0 1.496-.23 1.929-.689.432-.459.648-1.056.648-1.79v-6.16c0-.736-.216-1.333-.648-1.792-.433-.46-1.076-.689-1.93-.689-.853 0-1.496.23-1.928.689-.433.46-.649 1.056-.649 1.791v6.16c0 .735.216 1.332.649 1.791.432.46 1.075.69 1.929.69zm0-.73c-1.178 0-1.767-.583-1.767-1.75v-6.16c0-1.167.589-1.75 1.767-1.75s1.767.583 1.767 1.75v6.16c0 1.167-.59 1.75-1.767 1.75zm5.657.568v-4.911h3.372v-.73H87.04v-4.425h3.518v-.73H86.23v10.796h.81zm12.612 0v-.73h-3.664v-4.344h3.194v-.729h-3.194v-4.263h3.664v-.73h-4.474v10.796h4.474zm1.815 0l.73-3.16h3.08l.729 3.16h.843l-2.529-10.796h-1.167l-2.529 10.796h.843zm3.647-3.89h-2.755l1.378-5.982 1.377 5.982zm4.085 3.89v-4.458l1.731-.001c.096-.003.173-.008.23-.015l1.606 4.474h.891l-1.702-4.652c.93-.346 1.394-1.092 1.394-2.237v-1.475c0-.735-.216-1.324-.648-1.767-.432-.443-1.075-.665-1.93-.665h-2.382v10.796h.81zm1.573-5.22h-1.573v-4.846h1.573c1.178 0 1.767.567 1.767 1.702v1.475c0 1.113-.59 1.67-1.767 1.67zm6.808 5.22v-10.066h2.14v-.73h-5.09v.73h2.14v10.066h.81zm4.328 0v-4.928h3.793v4.928h.827v-10.796h-.827v5.139h-3.793v-5.139h-.81v10.796h.81z" transform="translate(-487 -3066) translate(489 3067)"/>
                <g>
                    <path stroke="#FFF" stroke-linecap="round" stroke-linejoin="round" stroke-width="1.875" d="M153.937 237.346L132.1 237.346M5.776 14.662L5.776 237.346 37.17 237.346" transform="translate(-487 -3066) translate(489 3067) translate(8.43 11.06)"/>
                    <path stroke="#D1A448" stroke-linecap="round" stroke-linejoin="round" stroke-width="1.875" d="M5.503 9.009L2.886 4.517 0.268 0.025 5.503 0.025 10.739 0.025 8.121 4.517z" transform="translate(-487 -3066) translate(489 3067) translate(8.43 11.06)"/>
                    <g>
                        <path fill="#000" d="M10.73 0.496L0.276 0.496" transform="translate(-487 -3066) translate(489 3067) translate(8.43 11.06) translate(0 4.678)"/>
                        <path stroke="#D1A448" stroke-linecap="round" stroke-linejoin="round" stroke-width="1.875" d="M10.73 0.496L0.276 0.496" transform="translate(-487 -3066) translate(489 3067) translate(8.43 11.06) translate(0 4.678)"/>
                    </g>
                    <path stroke="#D1A448" stroke-linecap="round" stroke-linejoin="round" stroke-width="1.875" d="M164.152 231.848L166.77 236.34 169.387 240.832 164.152 240.832 158.917 240.832 161.535 236.34z" transform="translate(-487 -3066) translate(489 3067) translate(8.43 11.06)"/>
                    <g>
                        <path fill="#000" d="M0.09 0.482L10.544 0.482" transform="translate(-487 -3066) translate(489 3067) translate(8.43 11.06) translate(158.835 235.212)"/>
                        <path stroke="#D1A448" stroke-linecap="round" stroke-linejoin="round" stroke-width="1.875" d="M0.09 0.482L10.544 0.482" transform="translate(-487 -3066) translate(489 3067) translate(8.43 11.06) translate(158.835 235.212)"/>
                    </g>
                    <path stroke="#FFF" stroke-linecap="round" stroke-linejoin="round" stroke-width="1.875" d="M101.088 3.425L165.082 3.425 165.082 224.117M17.245 3.425L69.388 3.425" transform="translate(-487 -3066) translate(489 3067) translate(8.43 11.06)"/>
                </g>
                <path fill="#44E7D9" fill-rule="nonzero" d="M92.631 17.937L95.063 7.14h-.843c-1.265 5.706-1.989 9.018-2.173 9.936-.15-.734-.875-4.047-2.172-9.936h-.843l2.432 10.796h1.167zm4.701 0V7.14h-.81v10.796h.81z" transform="translate(-487 -3066) translate(489 3067)"/>
                <g>
                    <path stroke="#D1A448" stroke-linecap="round" stroke-linejoin="round" stroke-width="1.875" d="M43.738 65.316v1.044s.65 0 .65.522c0 .523-.263.783-1.054.523M95.353 65.772v1.043s-.65 0-.65.522c0 .523.263.784 1.054.523" transform="translate(-487 -3066) translate(489 3067) translate(24.28 55.495)"/>
                    <path stroke="#FFF" stroke-linecap="round" stroke-linejoin="round" stroke-width="1.875" d="M34.634 91.695L43.861 67.405 52.298 91.695" transform="translate(-487 -3066) translate(489 3067) translate(24.28 55.495)"/>
                    <path stroke="#D1A448" stroke-linecap="round" stroke-linejoin="round" stroke-width="1.875" d="M34.435 91.826c.428.232 2.941 1.828 9.095 1.828 6.43 0 9.095-1.828 9.095-1.828" transform="translate(-487 -3066) translate(489 3067) translate(24.28 55.495)"/>
                    <path stroke="#D1A448" stroke-linecap="round" stroke-linejoin="round" stroke-width="1.875" d="M52.623 91.891c-.428-.232-2.942-1.828-9.096-1.828-6.429 0-9.095 1.828-9.095 1.828" transform="translate(-487 -3066) translate(489 3067) translate(24.28 55.495)"/>
                    <path stroke="#FFF" stroke-linecap="round" stroke-linejoin="round" stroke-width="1.875" d="M43.598 90.069L43.793 67.535 45.852 93.654" transform="translate(-487 -3066) translate(489 3067) translate(24.28 55.495)"/>
                    <path stroke="#D1A448" stroke-linecap="round" stroke-linejoin="round" stroke-width="1.875" d="M69.17 90.911L69.17 49.643M70.752 49.644L70.752 90.912M60.47 102.926s-.79-3.918 2.636-5.224h13.446s3.163 1.568 2.636 5.485c0 0-1.582 3.135-9.754 2.612 0 0-6.591.261-8.964-2.873z" transform="translate(-487 -3066) translate(489 3067) translate(24.28 55.495)"/>
                    <path stroke="#D1A448" stroke-linecap="round" stroke-linejoin="round" stroke-width="1.875" d="M60.47 102.926l-1.054.522s1.581 2.874 7.909 3.657c6.326.784 9.754-.783 11.335-1.567 1.582-.783 1.846-1.828 1.846-1.828l-1.318-.523" transform="translate(-487 -3066) translate(489 3067) translate(24.28 55.495)"/>
                    <path stroke="#D1A448" stroke-linecap="round" stroke-linejoin="round" stroke-width="1.875" d="M59.416 103.448v1.567s2.9 3.396 10.808 3.396c7.91 0 10.282-3.134 10.282-3.134v-1.567M61.964 98.337s-.176.671 1.933 1.194M61.118 99.259s.934 1.316 3.306 1.578M60.629 100.314s.896 1.567 4.323 1.829M60.413 101.44s1.111 1.225 2.43 1.225M60.413 102.48s.848 1.23 3.22 1.23M74.442 102.143s1.319 0 2.11-.784M74.442 103.187s.791 0 1.582-.522M70.752 55.134s5.536-.267 10.545 3.39 8.7 6.791 13.445 6.791c4.745 0 8.172-2.35 7.645-6.007-.527-3.657-5.009-3.918-6.59-1.567-1.582 2.35 1.054 3.917 2.372 2.873 1.318-1.045-.264-2.351-.79-1.567 0 0-.264.522.263.522 0 0 0 .522-.527.261-.528-.261-.791-1.045 0-1.567.79-.522 1.845-.261 2.372.522 0 0 .791 1.045.527 2.09-.263 1.045-1.318 2.612-3.69 2.612-2.373 0-6.064-.523-8.173-2.612 0 0-1.845-1.306-3.427-3.134-1.582-1.829-5.272-3.918-8.963-4.44-3.691-.523-3.428-.566-5.01-.544M69.165 55.136s-5.536-.267-10.545 3.39c-5.009 3.656-8.7 6.79-13.445 6.79-4.745 0-8.172-2.35-7.645-6.007.527-3.657 5.009-3.918 6.59-1.567 1.582 2.35-1.054 3.918-2.372 2.873-1.318-1.045.264-2.35.79-1.567 0 0 .264.522-.263.522 0 0 0 .523.527.261.528-.26.791-1.044 0-1.567-.79-.522-1.845-.26-2.372.523 0 0-.791 1.044-.527 2.09.263 1.044 1.318 2.611 3.69 2.611 2.373 0 6.064-.522 8.173-2.612 0 0 1.845-1.306 3.427-3.134 1.582-1.828 5.273-3.918 8.964-4.44 3.69-.523 3.427-.565 5.008-.544" transform="translate(-487 -3066) translate(489 3067) translate(24.28 55.495)"/>
                    <path stroke="#FFF" stroke-linecap="round" stroke-linejoin="round" stroke-width="1.875" d="M104.457 92.15L95.23 67.86 86.794 92.15" transform="translate(-487 -3066) translate(489 3067) translate(24.28 55.495)"/>
                    <path stroke="#D1A448" stroke-linecap="round" stroke-linejoin="round" stroke-width="1.875" d="M104.656 92.28c-.428.233-2.941 1.83-9.095 1.83-6.43 0-9.095-1.83-9.095-1.83" transform="translate(-487 -3066) translate(489 3067) translate(24.28 55.495)"/>
                    <path stroke="#D1A448" stroke-linecap="round" stroke-linejoin="round" stroke-width="1.875" d="M86.469 92.346c.428-.231 2.941-1.828 9.095-1.828 6.43 0 9.095 1.828 9.095 1.828" transform="translate(-487 -3066) translate(489 3067) translate(24.28 55.495)"/>
                    <path stroke="#FFF" stroke-linecap="round" stroke-linejoin="round" stroke-width="1.875" d="M95.493 90.524L95.298 67.99 93.239 94.109" transform="translate(-487 -3066) translate(489 3067) translate(24.28 55.495)"/>
                    <path fill="#000" d="M63.24 98.09s6.42 3.28 12.841 0c0 0 1.713-1.23-2.568-4.102-4.28-2.87-8.462.41-8.462.41s-3.524 2.871-1.812 3.692" transform="translate(-487 -3066) translate(489 3067) translate(24.28 55.495)"/>
                    <path stroke="#D1A448" stroke-linecap="round" stroke-linejoin="round" stroke-width="1.875" d="M63.24 98.09s6.42 3.28 12.841 0c0 0 1.713-1.23-2.568-4.102-4.28-2.87-8.462.41-8.462.41s-3.524 2.871-1.812 3.692z" transform="translate(-487 -3066) translate(489 3067) translate(24.28 55.495)"/>
                    <path fill="#000" d="M66.006 94.307s3.955 2.09 7.91 0c0 0 1.054-.784-1.583-2.612-2.636-1.828-5.536.261-5.536.261s-1.845 1.829-.79 2.35" transform="translate(-487 -3066) translate(489 3067) translate(24.28 55.495)"/>
                    <path stroke="#D1A448" stroke-linecap="round" stroke-linejoin="round" stroke-width="1.875" d="M66.006 94.307s3.955 2.09 7.91 0c0 0 1.054-.784-1.583-2.612-2.636-1.828-5.536.261-5.536.261s-1.845 1.829-.79 2.35z" transform="translate(-487 -3066) translate(489 3067) translate(24.28 55.495)"/>
                    <path stroke="#FFF" stroke-linecap="round" stroke-linejoin="round" stroke-width="1.875" d="M66.01 99.06s.524-1.358-.531-2.402c0 0-.527-.523-.527-1.045 0 0-.791.783-1.318.783-.528 0-.791.623-.791.623" transform="translate(-487 -3066) translate(489 3067) translate(24.28 55.495)"/>
                    <path stroke="#44E7D9" stroke-linecap="round" stroke-linejoin="round" stroke-width="1.875" d="M69.96 99.53s.264-1.566-.526-2.35c-.791-.784-1.055-.784-1.055-1.306 0 0 0 .522-.791.783-.79.262-1.452 1.478-1.452 1.478M73.845 99.096s-.426-1.357.431-2.402c0 0 .429-.523.429-1.045 0 0 .643.784 1.072.784.428 0 .643.623.643.623" transform="translate(-487 -3066) translate(489 3067) translate(24.28 55.495)"/>
                    <path stroke="#FFF" stroke-linecap="round" stroke-linejoin="round" stroke-width="1.875" d="M69.918 99.567s-.264-1.567.527-2.35c.791-.784 1.055-.784 1.055-1.307 0 0 0 .523.79.784.791.261 1.453 1.478 1.453 1.478" transform="translate(-487 -3066) translate(489 3067) translate(24.28 55.495)"/>
                    <path stroke="#D1A448" stroke-linecap="round" stroke-linejoin="round" stroke-width="1.875" d="M66.797 91.956s-.263.261 1.582.522M66.27 92.479s.264.783 2.636.783M65.826 93.262s.971.784 2.553.784M34.37 91.956c.429.697 2.942 5.485 9.096 5.485 6.43 0 9.095-5.485 9.095-5.485M104.72 92.411c-.428.697-2.941 5.485-9.095 5.485-6.43 0-9.095-5.485-9.095-5.485" transform="translate(-487 -3066) translate(489 3067) translate(24.28 55.495)"/>
                    <path fill="#000" d="M68.094 48.105c0 1.014.83 1.837 1.855 1.837 1.024 0 1.854-.823 1.854-1.837 0-1.015-.83-1.838-1.854-1.838-1.025 0-1.855.823-1.855 1.838" transform="translate(-487 -3066) translate(489 3067) translate(24.28 55.495)"/>
                    <path stroke="#D1A448" stroke-linecap="round" stroke-linejoin="round" stroke-width="1.875" d="M68.094 48.105c0 1.014.83 1.837 1.855 1.837 1.024 0 1.854-.823 1.854-1.837 0-1.015-.83-1.838-1.854-1.838-1.025 0-1.855.823-1.855 1.838zM112.749 60.025c0 6.613 5.411 11.975 12.086 11.975 6.676 0 12.087-5.362 12.087-11.975 0-6.614-5.411-11.975-12.087-11.975-6.675 0-12.086 5.361-12.086 11.975z" transform="translate(-487 -3066) translate(489 3067) translate(24.28 55.495)"/>
                    <path stroke="#D1A448" stroke-linecap="round" stroke-linejoin="round" stroke-width="1.875" d="M117.489 68.896L124.918 48.584 132.321 68.896 113.862 56.616 135.872 56.616z" transform="translate(-487 -3066) translate(489 3067) translate(24.28 55.495)"/>
                    <path stroke="#D1A448" stroke-linecap="round" stroke-linejoin="round" stroke-width="1.875" d="M138.362 60.01c0-7.401-6.056-13.4-13.526-13.4s-13.526 5.999-13.526 13.4c0 7.4 6.056 13.4 13.526 13.4s13.526-6 13.526-13.4zM1.682 60.025C1.682 66.638 7.093 72 13.769 72c6.675 0 12.087-5.362 12.087-11.975 0-6.614-5.412-11.975-12.087-11.975-6.676 0-12.087 5.361-12.087 11.975z" transform="translate(-487 -3066) translate(489 3067) translate(24.28 55.495)"/>
                    <path stroke="#D1A448" stroke-linecap="round" stroke-linejoin="round" stroke-width="1.875" d="M6.422 68.896L13.851 48.584 21.254 68.896 2.795 56.616 24.804 56.616z" transform="translate(-487 -3066) translate(489 3067) translate(24.28 55.495)"/>
                    <path stroke="#D1A448" stroke-linecap="round" stroke-linejoin="round" stroke-width="1.875" d="M27.295 60.01c0-7.401-6.056-13.4-13.526-13.4S.243 52.608.243 60.01c0 7.4 6.056 13.4 13.526 13.4s13.526-6 13.526-13.4zM90.95 134.181c0 6.614 5.412 11.975 12.087 11.975 6.676 0 12.087-5.361 12.087-11.975 0-6.613-5.411-11.974-12.087-11.974-6.675 0-12.086 5.361-12.086 11.974z" transform="translate(-487 -3066) translate(489 3067) translate(24.28 55.495)"/>
                    <path stroke="#D1A448" stroke-linecap="round" stroke-linejoin="round" stroke-width="1.875" d="M95.691 143.053L103.12 122.74 110.523 143.053 92.064 130.773 114.073 130.773z" transform="translate(-487 -3066) translate(489 3067) translate(24.28 55.495)"/>
                    <path stroke="#D1A448" stroke-linecap="round" stroke-linejoin="round" stroke-width="1.875" d="M116.563 134.166c0-7.4-6.055-13.4-13.526-13.4-7.47 0-13.525 6-13.525 13.4 0 7.401 6.055 13.4 13.525 13.4 7.47 0 13.526-5.999 13.526-13.4zM24.061 134.181c0 6.614 5.411 11.975 12.087 11.975 6.675 0 12.087-5.361 12.087-11.975 0-6.613-5.412-11.974-12.087-11.974-6.676 0-12.087 5.361-12.087 11.974z" transform="translate(-487 -3066) translate(489 3067) translate(24.28 55.495)"/>
                    <path stroke="#D1A448" stroke-linecap="round" stroke-linejoin="round" stroke-width="1.875" d="M28.801 143.053L36.23 122.74 43.633 143.053 25.174 130.773 47.183 130.773z" transform="translate(-487 -3066) translate(489 3067) translate(24.28 55.495)"/>
                    <path stroke="#D1A448" stroke-linecap="round" stroke-linejoin="round" stroke-width="1.875" d="M49.674 134.166c0-7.4-6.056-13.4-13.526-13.4s-13.526 6-13.526 13.4c0 7.401 6.056 13.4 13.526 13.4s13.526-5.999 13.526-13.4zM57.169 13.568c0 6.614 5.411 11.976 12.087 11.976 6.675 0 12.086-5.362 12.086-11.976 0-6.613-5.411-11.974-12.086-11.974-6.676 0-12.087 5.361-12.087 11.974z" transform="translate(-487 -3066) translate(489 3067) translate(24.28 55.495)"/>
                    <path stroke="#D1A448" stroke-linecap="round" stroke-linejoin="round" stroke-width="1.875" d="M61.909 22.44L69.338 2.128 76.741 22.44 58.282 10.16 80.291 10.16z" transform="translate(-487 -3066) translate(489 3067) translate(24.28 55.495)"/>
                    <path stroke="#D1A448" stroke-linecap="round" stroke-linejoin="round" stroke-width="1.875" d="M82.781 13.553c0-7.4-6.056-13.4-13.526-13.4s-13.526 6-13.526 13.4c0 7.401 6.056 13.4 13.526 13.4s13.526-5.999 13.526-13.4z" transform="translate(-487 -3066) translate(489 3067) translate(24.28 55.495)"/>
                    <path fill="#FFF" d="M79.913 73.372c.098-.219.356-.318.578-.221.22.097.32.353.223.572-.098.219-.356.318-.577.221-.221-.097-.322-.353-.224-.572M106.206 114.657c-.284-.124-.413-.453-.287-.735s.458-.41.742-.285.413.454.287.736c-.125.281-.458.409-.742.284M51.92 82.004c.125-.282.457-.41.742-.285.284.125.413.454.287.736-.126.281-.458.41-.742.284-.285-.124-.414-.453-.288-.735M85.981 76.099c.168-.376.61-.546.99-.38.379.166.55.605.383.98-.168.377-.61.546-.99.38-.379-.166-.55-.604-.383-.98M86.089 108.155c.126-.282.458-.41.742-.285s.413.454.287.735c-.125.282-.458.41-.742.285s-.413-.454-.287-.735M64.248 68.06c.07-.157.254-.228.412-.158.158.069.23.252.16.408-.07.157-.255.228-.413.159-.158-.07-.23-.253-.16-.409M64.55 86.503c.099-.219.357-.318.578-.221.221.097.322.353.224.572-.098.219-.357.318-.577.221-.222-.097-.322-.353-.224-.572M61.461 75.752c-.284-.125-.413-.454-.287-.736s.458-.409.742-.285c.284.125.413.454.287.736-.125.281-.458.409-.742.285M75.217 80.295c.07-.157.254-.228.412-.159.158.07.23.253.16.409-.07.157-.255.228-.413.158-.158-.069-.23-.252-.16-.408M80.95 89.316c.07-.157.254-.228.412-.159.158.07.23.253.16.409-.07.157-.255.227-.413.158-.158-.069-.23-.252-.16-.408M58.414 96.388c.07-.156.254-.227.412-.158.158.07.23.252.16.409-.07.157-.254.227-.413.158-.157-.069-.229-.252-.16-.409M33.221 84.99c.232-.068.475.064.543.294.068.23-.065.47-.297.538-.232.067-.476-.065-.543-.295-.068-.23.065-.47.297-.538M51.315 104.223c-.087-.296.084-.606.383-.692.298-.087.61.083.698.379.087.295-.084.605-.382.691-.299.087-.612-.083-.699-.378M32.673 107.925c.398-.116.815.11.93.505.117.394-.111.807-.509.922-.398.115-.814-.111-.93-.505-.117-.394.111-.807.51-.922M33.607 68.815c.166-.048.34.046.388.21.049.165-.046.337-.212.384-.166.049-.34-.045-.388-.21-.048-.164.046-.336.212-.384M26.673 91.965c.232-.067.476.064.543.294.068.23-.065.471-.297.538-.232.067-.475-.065-.543-.294-.068-.23.065-.471.297-.538M25.876 79.013c-.087-.296.084-.606.382-.692.299-.086.61.083.698.379.087.295-.084.605-.382.691-.298.087-.611-.083-.698-.378M23.638 98.435c.07-.157.255-.227.413-.158.158.069.23.252.16.409-.07.156-.255.227-.413.158-.158-.07-.23-.252-.16-.409M90.587 36.394c.048-.235.28-.387.516-.34.237.048.39.277.343.511-.048.235-.279.387-.516.34-.237-.047-.39-.276-.343-.511M107.841 70.741c-.305-.061-.502-.355-.44-.657.06-.302.358-.497.663-.436.304.06.502.355.44.656-.061.302-.358.498-.663.437M100.772 45.774c.081-.403.477-.663.883-.582.407.081.67.473.588.876-.082.402-.478.663-.884.582-.406-.081-.67-.473-.587-.876M80.183 39.305c.034-.168.199-.277.368-.243.17.034.279.197.245.365-.034.168-.199.276-.368.242-.17-.034-.28-.197-.245-.364M91.08 52.73c.048-.235.279-.387.516-.34.237.048.39.277.343.512-.048.234-.279.386-.516.339-.237-.047-.39-.276-.343-.511M79.134 47.41c-.305-.06-.501-.355-.44-.657.061-.302.358-.497.663-.436.304.06.502.355.44.657-.061.302-.358.497-.663.436M78.288 121.234c.08.227-.041.473-.27.552-.228.079-.478-.041-.557-.267-.079-.227.042-.474.27-.553.229-.078.478.042.557.268M53.808 121.655c.293-.101.614.053.716.344.102.29-.054.608-.347.709-.294.101-.615-.053-.716-.344-.103-.29.053-.608.347-.71M66.152 125.97c.136.389-.071.813-.463.947-.391.135-.819-.07-.955-.459-.136-.387.072-.811.463-.945.392-.135.82.07.955.458M87.203 121.178c.057.162-.03.339-.193.395-.163.056-.341-.03-.398-.192-.057-.161.03-.338.193-.394.163-.056.341.03.398.191M70.932 115.101c.079.227-.042.473-.27.552-.229.079-.478-.041-.558-.267-.079-.227.042-.474.27-.553.229-.078.478.042.558.268M83.949 113.669c.294-.1.614.053.716.344.102.29-.053.609-.347.71-.294.1-.614-.053-.716-.344-.102-.291.053-.609.347-.71M65.606 36.796c.2.135.252.405.115.603-.135.198-.408.25-.608.114-.2-.135-.252-.404-.115-.603.136-.197.408-.248.608-.114M46.209 51.599c.175-.255.525-.32.782-.147.257.173.323.52.148.774-.174.255-.524.321-.782.147-.256-.173-.323-.52-.148-.774M58.716 47.77c.343.23.431.693.198 1.032-.233.34-.7.428-1.042.197-.343-.232-.432-.694-.199-1.033.234-.34.7-.428 1.043-.197M72.728 31.484c.143.096.18.289.083.43-.098.142-.292.178-.435.082-.143-.096-.18-.29-.083-.43.098-.142.292-.179.435-.082M56.009 36.22c.2.135.251.405.116.603-.137.198-.409.25-.609.114-.2-.135-.251-.404-.116-.602.137-.198.41-.25.609-.115M33.222 51.1c.175-.254.525-.32.782-.146.257.173.323.52.148.774-.175.255-.525.321-.782.147-.257-.173-.323-.52-.148-.774M118.37 85.576c.237.047.392.274.345.51-.047.235-.277.388-.514.341-.237-.046-.392-.273-.345-.509.046-.235.276-.388.514-.342M106.4 106.737c.06-.302.355-.499.66-.44.305.06.504.353.444.655-.06.303-.356.5-.66.44-.306-.06-.505-.353-.445-.655M116.383 98.349c.407.079.672.47.592.873-.08.403-.474.665-.88.586-.408-.08-.673-.47-.593-.873.08-.403.475-.666.881-.586M122.814 77.92c.169.033.28.196.246.363-.033.168-.197.278-.367.245-.17-.033-.28-.196-.247-.364.034-.168.198-.278.368-.244M109.316 88.781c.237.046.391.274.345.51-.047.235-.277.388-.514.341-.238-.046-.392-.274-.345-.51.046-.234.276-.387.514-.34M114.627 76.92c.06-.302.356-.5.66-.44.306.06.505.353.445.655-.06.302-.356.499-.661.44-.305-.06-.504-.353-.444-.655M97.149 108.702c.057.161-.03.338-.193.394-.163.056-.341-.03-.398-.191-.057-.162.03-.338.193-.394.163-.056.341.03.398.19M57.496 65.258c.056.161-.03.338-.193.394-.163.056-.341-.03-.398-.191-.057-.162.03-.338.193-.394.163-.056.341.03.398.191M76.38 59.912c.057.162-.029.338-.192.394-.163.057-.342-.029-.398-.191-.057-.161.03-.338.193-.394.163-.056.341.03.398.191M41.309 82.632c.056.16-.03.338-.193.394-.163.056-.341-.03-.398-.192-.057-.161.03-.337.193-.394.163-.056.341.03.398.192M98.3 86.307c.057.161-.03.338-.192.394-.163.056-.342-.03-.398-.191-.057-.162.03-.338.193-.394.163-.057.341.029.398.19M45.247 36.135c.057.161-.03.338-.193.394-.163.056-.341-.029-.398-.191-.056-.161.03-.338.193-.394.163-.056.341.03.398.191M109.849 53.246c.057.162-.03.338-.193.395-.163.056-.341-.03-.398-.192-.057-.161.03-.338.193-.394.163-.056.341.03.398.191M46.963 113.587c.057.162-.03.339-.193.395-.163.056-.34-.03-.397-.191-.057-.162.03-.339.192-.395.164-.056.342.03.398.191M35.835 99.555c.056.162-.03.338-.193.394-.163.056-.341-.03-.398-.191-.057-.162.03-.338.193-.394.163-.056.341.03.398.19" transform="translate(-487 -3066) translate(489 3067) translate(24.28 55.495)"/>
                </g>
            </g>
        </g>
    </g>
</svg>
