<svg xmlns="http://www.w3.org/2000/svg" xmlns:xlink="http://www.w3.org/1999/xlink" width="191" height="265" viewBox="0 0 191 265"><title>Семёрка Кубков</title>
    <defs>
        <path id="qh76slx8ba" d="M0 262.99L187.416 262.99 187.416 0.166 0 0.166z"/>
    </defs>
    <g fill="none" fill-rule="evenodd">
        <g>
            <g>
                <path fill="#152230" stroke="#FFF" stroke-linecap="round" stroke-linejoin="round" stroke-width="2.5" d="M177.795 261.162H9.621c-5.22 0-9.452-4.154-9.452-9.279V9.64C.169 4.514 4.401.36 9.621.36h168.174c5.22 0 9.452 4.154 9.452 9.279v242.244c0 5.125-4.232 9.28-9.452 9.28z" transform="translate(-783 -1515) translate(785 1516)"/>
                <path fill="#D1A448" fill-rule="nonzero" d="M52.201 249.611c.893 0 1.575-.197 2.046-.592.471-.396.707-.95.707-1.665v-.844c0-.953-.439-1.668-1.316-2.144l-1.9-1.056c-.66-.357-.99-.893-.99-1.607v-.926c0-.931.606-1.397 1.818-1.397.823 0 1.494.092 2.014.277v-.78c-.563-.162-1.253-.244-2.07-.244-.818 0-1.451.193-1.9.577-.45.384-.674.917-.674 1.6v.941c0 .986.454 1.727 1.364 2.225l1.9 1.04c.357.194.603.406.739.633.135.227.203.53.203.91v.795c0 1.007-.682 1.51-2.047 1.51-.757 0-1.456-.113-2.094-.34v.779c.573.205 1.307.308 2.2.308zm9.021-.08v-.732h-3.67v-4.352h3.199v-.73h-3.2v-4.272h3.671v-.73H56.74v10.815h4.482zm4.498 0l2.436-10.816h-.844c-1.267 5.716-1.992 9.034-2.176 9.954-.152-.736-.877-4.054-2.176-9.954h-.845l2.436 10.815h1.17zm8.38 0v-.732h-3.67v-4.352h3.199v-.73h-3.2v-4.272h3.67v-.73h-4.481v10.815H74.1zm2.663 0v-6.14l-.03-3.012-.002-.2v-.068c.4 1.04 1.634 4.18 3.702 9.42h1.072v-10.816h-.812v6.17l.033 3.281c-.13-.346-1.365-3.497-3.703-9.451h-1.056v10.815h.796zm12.683.162c.855 0 1.5-.23 1.933-.69.433-.46.65-1.059.65-1.795v-6.171c0-.736-.217-1.334-.65-1.795-.433-.46-1.078-.69-1.933-.69s-1.5.23-1.932.69c-.433.46-.65 1.059-.65 1.795v6.17c0 .737.217 1.335.65 1.795.433.46 1.077.69 1.932.69zm0-.731c-1.18 0-1.77-.585-1.77-1.754v-6.171c0-1.17.59-1.754 1.77-1.754 1.18 0 1.77.585 1.77 1.754v6.17c0 1.17-.59 1.755-1.77 1.755zm5.668.568v-4.92h3.378v-.731h-3.378v-4.434h3.524v-.73h-4.336v10.815h.812zm10.393 0l.99-5.716c.239-1.364.412-2.636.52-3.816.12 1.18.628 4.357 1.527 9.532h1.169l1.884-10.815h-.845c-.898 5.445-1.44 8.807-1.624 10.084l-.422-2.842-1.202-7.242h-.958l-1.201 7.226c-.163.953-.304 1.906-.423 2.858l-.422-2.842-1.202-7.242h-.844l1.884 10.815h1.169zm7.665 0l.73-3.167h3.086l.731 3.167h.845l-2.534-10.815h-1.17l-2.532 10.815h.844zm3.654-3.897h-2.76l1.38-5.993 1.38 5.993zm5.18 3.897v-10.085h2.144v-.73h-5.1v.73h2.144v10.085h.812zm8.006 0v-.73h-3.67v-4.353h3.2v-.73h-3.2v-4.272h3.67v-.73h-4.482v10.815h4.482zm2.68 0v-4.466h1.575c.173 0 .303-.005.39-.016l1.608 4.482h.893l-1.705-4.66c.93-.347 1.396-1.094 1.396-2.242v-1.477c0-.737-.216-1.327-.65-1.77-.432-.444-1.077-.666-1.932-.666h-2.387v10.815h.812zm1.575-5.229h-1.575v-4.856h1.575c1.18 0 1.77.569 1.77 1.706v1.477c0 1.115-.59 1.673-1.77 1.673z" transform="translate(-783 -1515) translate(785 1516)"/>
                <g stroke="#FFF" stroke-linecap="round" stroke-linejoin="round" stroke-width="1.875">
                    <path d="M92.083.487L158.54.487 158.54 219.548M10.436.487L66.955.487M148.471 232.276L128.959 232.276M.043 11.237L.043 232.276 28.115 232.276" transform="translate(-783 -1515) translate(785 1516) translate(14.19 14.289)"/>
                </g>
                <path fill="#D1A448" fill-rule="nonzero" d="M91.045 18.825l2.436-10.816h-.844c-1.267 5.716-1.992 9.035-2.176 9.955-.152-.736-.877-4.054-2.176-9.955h-.845l2.436 10.816h1.17zm4.71 0V8.009h-.812v10.816h.812zm3.248 0V8.009h-.812v10.816h.812z" transform="translate(-783 -1515) translate(785 1516)"/>
                <g transform="translate(-783 -1515) translate(785 1516) translate(0 .028)">
                    <path fill="#000" d="M172.89 240.5L175.513 244.958 178.135 249.417 172.89 249.417 167.645 249.417 170.268 244.958z"/>
                    <path stroke="#44E7D9" stroke-linecap="round" stroke-linejoin="round" stroke-width="1.875" d="M172.89 240.5L175.513 244.958 178.135 249.417 172.89 249.417 167.645 249.417 170.268 244.958z"/>
                    <path fill="#000" d="M14.019 19.886L11.396 15.428 8.774 10.969 14.019 10.969 19.263 10.969 16.641 15.428z"/>
                    <path stroke="#44E7D9" stroke-linecap="round" stroke-linejoin="round" stroke-width="1.875" d="M14.019 19.886L11.396 15.428 8.774 10.969 14.019 10.969 19.263 10.969 16.641 15.428z"/>
                    <path stroke="#D1A448" stroke-linecap="round" stroke-linejoin="round" stroke-width="1.875" d="M105.846 87.313c.704 11.813-3.944 20.723-11.496 20.99-7.464.263-12.388-8.704-11.778-20.838M91.967 107.948L92.012 114.599M96.589 107.918L96.634 114.569M94.432 115.222c-1.406.009-2.11-.124-2.675-.535 0 0-.699.695.009 1.38 0 0 .846.41 2.393.4M92.051 116.739l.04 5.797s.567.687 2.395.675c1.828-.012 2.246-.704 2.246-.704l-.04-5.799M93.121 108.449L93.165 114.937M93.177 116.731L93.217 122.805M94.81 108.714L94.85 114.65M94.867 117.134L94.885 119.757M94.889 120.448L94.905 122.794M96.216 108.705L96.251 113.812M96.273 117.125L96.309 122.509"/>
                    <path stroke="#D1A448" stroke-linecap="round" stroke-linejoin="round" stroke-width="1.875" d="M94.161 115.224c1.407-.01 2.109-.152 2.669-.57 0 0 .707.686.009 1.38 0 0-.84.42-2.388.43M105.776 87.383c.009 1.296-5.147 2.38-11.515 2.422-6.369.04-11.539-.976-11.548-2.272-.008-1.296 5.148-2.38 11.516-2.422 6.368-.041 11.538.976 11.547 2.272zM91.705 121.535c-1.506.145-4.744.535-6.545 1.342 0 0-2.176 1.272 2.631 2.162M96.913 121.426c1.507.143 4.744.53 6.546 1.335 0 0 2.176 1.27-2.631 2.165M88.658 125.068s5.63.792 11.682-.075"/>
                    <path stroke="#D1A448" stroke-linecap="round" stroke-linejoin="round" stroke-width="1.875" d="M84.666 123.231s-.92.489-.482 1.314c.438.826 3.906 1.77 8.376 1.74M96.081 126.266c4.471-.029 7.926-1.018 8.353-1.849.427-.83-.5-1.308-.5-1.308M92.993 126.283s1.629.047 2.74-.018M105.715 89.438c.009 1.296-5.147 2.38-11.515 2.422-6.369.041-11.538-.976-11.547-2.272M94.273 104.21s-.226-1.782.838-3.014c0 0 .82-1.096 2.181-1.54 0 0-.088 1.797-.733 2.636 0 0-.454.89-2.286 1.917z"/>
                    <path stroke="#D1A448" stroke-linecap="round" stroke-linejoin="round" stroke-width="1.875" d="M94.378 104.184s.202-1.784-.878-3.003c0 0-.835-1.084-2.202-1.512 0 0 .112 1.797.769 2.627 0 0 .466.885 2.311 1.888zM94.358 104.265s.692-1.66 2.235-2.223c0 0 1.262-.56 2.67-.294 0 0-.974 1.525-1.956 1.946 0 0-.84.557-2.949.571z"/>
                    <path stroke="#D1A448" stroke-linecap="round" stroke-linejoin="round" stroke-width="1.875" d="M94.357 104.265s-.715-1.652-2.265-2.194c0 0-1.27-.544-2.674-.259 0 0 .994 1.512 1.982 1.92 0 0 .847.547 2.957.533z"/>
                    <path stroke="#D1A448" stroke-linecap="round" stroke-linejoin="round" stroke-width="1.875" d="M94.37 104.165s-1.142-1.401-.892-2.998c0 0 .114-1.355 1.037-2.433 0 0 .884 1.577.78 2.624 0 0 .088.991-.925 2.807zM83.924 95.289s1.14 6.392 4.358 9.568M83.742 94.153s-.146-.828-.15-1.518M83.888 94.842L83.887 94.704"/>
                    <path stroke="#44E7D9" stroke-linecap="round" stroke-linejoin="round" stroke-width="1.875" d="M97.245 89.506s-1.47-.09-1.128-.59c.343-.5-.004-.498-.696-.494-.692.005-1.815.211-.949.405 0 0 .736.231.524.728M84.016 88.448s4.383-2.153 8.103-2.078M92.813 86.366L94.413 86.356M94.943 86.352s6.461-.053 9.57 1.875"/>
                    <path stroke="#44E7D9" stroke-linecap="round" stroke-linejoin="round" stroke-width="1.875" d="M90.817 89.536s.325-.638-.799-.431c-1.123.207-1.173-.84.385-.65 1.559.189 3.289.078 3.025-.518-.264-.597-1.903.012-1.82-.487.083-.499 1.468-.408 2.246-.413.78-.005 1.9-.51 3.028-.02 1.129.492-1.208.407-.426.9.782.493 2.333-.414 2.768-.118.434.297-.601.702-.772 1.002-.17.3.886.437.886.437"/>
                    <path stroke="#FFF" stroke-linecap="round" stroke-linejoin="round" stroke-width="1.875" d="M78.759 81.54c.039.112.17.216.17.216-.033.187-.209.454-.209.454-.012.113-.046.508-.046.508.027.12.013.603-.124.62-.137.018-.143-.126-.18-.22-.037-.093-.043-.198-.053-.242-.01-.044 0-.484-.028-.598-.028-.114-.01-.173.024-.277.033-.104.104-.243.104-.243.148-.278.228-.441.227-.53 0-.09.087-.25.092-.267.006-.017.092-.073.197-.258.105-.186.104-.211.199-.337.094-.126.277-.483.277-.483s.218-.389.44-.615c.137-.139.539-.788.539-.788"/>
                    <path stroke="#FFF" stroke-linecap="round" stroke-linejoin="round" stroke-width="1.875" d="M78.655 83.185s.077.119.1.187c.022.071.045.215.173.212.098-.003.14-.175.106-.394-.034-.218-.039-.214-.065-.228-.044-.022-.112-.048-.158-.029M78.972 82.958s.038-.211-.026-.419l-.002-.108s.1-.103.154-.366"/>
                    <path stroke="#FFF" stroke-linecap="round" stroke-linejoin="round" stroke-width="1.875" d="M79.262 80.509s-.012.203 0 .283c.014.08-.005.243-.08.432-.077.19-.04.394-.069.512-.028.12-.088.296.03.383"/>
                    <path stroke="#FFF" stroke-linecap="round" stroke-linejoin="round" stroke-width="1.875" d="M79.098 82.065c-.009.031.193.197.316.02.11-.16.246-.375.227-.632 0 0 .051-.26.098-.323 0 0 .06-.111.042-.142M80.397 80.09s-.078.34-.18.49c-.1.15-.136.276-.286.342M79.785 81.05s.118-.138.118-.332M79.813 81.027s.1-.071.137-.146M79.131 81.47s.07-.057.215-.056M79.172 81.305s.136-.03.26.021M79.202 81.237s.088-.037.178-.03M78.985 81.214l.18-.006"/>
                    <path stroke="#FFF" stroke-linecap="round" stroke-linejoin="round" stroke-width="1.875" d="M79.703 81.263s.222-.027.373.03c.15.055.18.026.18.026M79.474 82.037s-.03.198-.116.382c0 0 .021.332.006.434 0 0 .063.312.062.39-.002.08-.063.295-.204.194 0 0-.151-.347-.166-.445-.014-.098-.098-.491-.095-.551M78.86 82.953s.068.043.12.041M79.364 82.853s-.075-.05-.157-.038M79.347 82.446s-.08-.033-.129-.02M79.344 82.87s-.073-.009-.107-.02M79.574 81.809s.183-.053.289-.117"/>
                    <path stroke="#FFF" stroke-linecap="round" stroke-linejoin="round" stroke-width="1.875" d="M79.574 81.836s-.063.198-.039.301c.025.103.074.284.07.32-.004.035.051.166.098.304.047.138.08.202.174.134.096-.07.047-.444.033-.485 0 0 .019-.234 0-.33 0 0 .078-.17.123-.413 0 0 .088-.062.12-.151.032-.09.037-.043.1-.183 0 0 .173-.304.237-.509.063-.204.228-.566.26-.703.035-.136.044-.22.026-.251 0 0 .029-.19.043-.222.014-.03.38-.629.38-.629M80.798 79.736s-.195-.046-.315-.153M80.752 79.85s-.115-.013-.232-.076M79.897 80.606s-.027-.21-.218-.429M80.412 79.988s.018-.26-.265-.373M79.182 81.772s.182-.03.208-.002c.026.028.03.254-.08.328-.11.074-.202.036-.212-.066-.01-.101.042-.246.084-.26zM78.712 82.191s-.186-.009-.251-.041M78.666 82.24s-.074.007-.112-.015M78.657 82.705s-.097-.046-.23-.025M78.658 82.762s-.048-.026-.077-.022M78.94 82.431s-.064-.047-.168-.061M78.923 82.483s-.102-.004-.126-.05M79.917 82.415s-.141.02-.2-.004M79.91 82.382s-.06-.05-.121-.028M79.904 82.077s-.048-.027-.133-.026M79.327 82.397s-.103-.054-.172-.025M79.884 82.12s-.047 0-.092-.023M79.106 81.732s-.134.061-.184.016M111.48 79.801c-.04.112-.17.216-.17.216.032.186.208.454.208.454.013.113.046.508.046.508-.026.12-.012.603.125.62.137.018.142-.126.18-.22.036-.093.043-.198.053-.242.01-.044 0-.484.027-.598.028-.114.01-.173-.024-.277-.033-.104-.103-.243-.103-.243-.149-.278-.229-.441-.228-.531.001-.09-.086-.249-.092-.266-.005-.018-.092-.073-.197-.258-.105-.186-.104-.212-.199-.338-.094-.126-.276-.482-.276-.482s-.22-.389-.442-.616c-.136-.138-.537-.787-.537-.787"/>
                    <path stroke="#FFF" stroke-linecap="round" stroke-linejoin="round" stroke-width="1.875" d="M111.584 81.446s-.078.118-.1.186c-.023.072-.045.216-.173.213-.099-.003-.14-.175-.106-.394.034-.219.038-.215.064-.228.044-.022.113-.049.159-.03M111.266 81.219s-.038-.211.026-.419l.003-.108s-.1-.103-.155-.366"/>
                    <path stroke="#FFF" stroke-linecap="round" stroke-linejoin="round" stroke-width="1.875" d="M110.977 78.77s.011.203-.001.283c-.013.08.005.243.08.432.077.189.041.394.07.512.027.12.087.295-.03.383"/>
                    <path stroke="#FFF" stroke-linecap="round" stroke-linejoin="round" stroke-width="1.875" d="M111.14 80.325c.01.032-.193.197-.315.02-.11-.16-.247-.374-.228-.631 0 0-.051-.26-.098-.323 0 0-.06-.112-.042-.142M109.841 78.351s.079.34.18.49c.1.15.137.275.286.342M110.453 79.31s-.118-.138-.117-.331M110.425 79.288s-.1-.072-.137-.146M111.107 79.731s-.069-.058-.215-.056M111.066 79.566s-.135-.03-.26.021M111.036 79.498s-.088-.037-.178-.03M111.253 79.475l-.18-.006"/>
                    <path stroke="#FFF" stroke-linecap="round" stroke-linejoin="round" stroke-width="1.875" d="M110.536 79.524s-.222-.027-.373.029-.18.027-.18.027M110.765 80.298s.03.198.116.382c0 0-.022.332-.006.434 0 0-.064.311-.062.39.001.079.062.295.204.193 0 0 .15-.346.165-.444.015-.098.098-.491.096-.552M111.379 81.214s-.068.043-.12.041M110.875 81.114s.074-.051.156-.038M110.891 80.707s.08-.034.13-.02M110.895 81.13s.072-.008.107-.019M110.664 80.07s-.183-.053-.288-.117"/>
                    <path stroke="#FFF" stroke-linecap="round" stroke-linejoin="round" stroke-width="1.875" d="M110.664 80.097s.064.198.04.3c-.026.104-.075.285-.071.32.004.036-.05.167-.097.305-.047.137-.08.202-.175.133-.096-.068-.046-.443-.033-.484 0 0-.019-.234 0-.33 0 0-.078-.17-.123-.413 0 0-.087-.062-.12-.152-.032-.09-.037-.042-.1-.182 0 0-.173-.304-.236-.509-.063-.204-.228-.567-.262-.703-.033-.136-.043-.221-.024-.252 0 0-.03-.19-.044-.22-.014-.031-.38-.63-.38-.63M109.44 77.997s.196-.047.316-.153M109.486 78.11s.115-.012.232-.075M110.341 78.867s.028-.21.218-.429M109.827 78.249s-.019-.26.264-.373M111.057 80.033s-.183-.03-.209-.002c-.026.028-.03.254.08.328.111.074.202.036.212-.066.01-.101-.042-.246-.083-.26zM111.527 80.452s.185-.01.251-.041M111.573 80.501s.073.007.111-.016M111.581 80.966s.097-.046.231-.025M111.58 81.023s.048-.026.078-.022M111.298 80.692s.064-.047.169-.062M111.315 80.744s.102-.004.126-.05M110.321 80.676s.142.02.201-.004M110.329 80.642s.059-.048.12-.027M110.335 80.337s.048-.026.132-.025M110.911 80.658s.104-.054.173-.025M110.354 80.382s.048-.002.092-.024M111.132 79.993s.135.06.185.016"/>
                    <path fill="#000" d="M82.924 72.484s.628-2.097 2.512-7.153c1.885-5.056 3.141-8.88 6.03-10.606 2.89-1.727 6.031.987 7.413 3.823 1.382 2.836 4.02 7.646 5.026 9.496 1.004 1.85 3.015 4.317 3.769 5.427.753 1.11 3.266 3.576 3.266 3.576s-2.513.493-3.392 2.343c-.88 1.85-2.136 3.207-5.402 2.713 0 0-1.382-.246-2.136-.493-.754-.247-2.136-.493-3.77 1.603-1.394 1.791-5.417-.263-5.778-.616-.928-.906-3.201.25-4.523 0-1.329-.252-2.387-.74-3.015-1.974-.628-1.233-3.267-1.726-3.895-1.48 0 0 2.639-2.836 3.895-6.659"/>
                    <path stroke="#FFF" stroke-linecap="round" stroke-linejoin="round" stroke-width="1.875" d="M82.924 72.484s.628-2.097 2.512-7.153c1.885-5.056 3.141-8.88 6.03-10.606 2.89-1.727 6.031.987 7.413 3.823 1.382 2.836 4.02 7.646 5.026 9.496 1.004 1.85 3.015 4.317 3.769 5.427.753 1.11 3.266 3.576 3.266 3.576s-2.513.493-3.392 2.343c-.88 1.85-2.136 3.207-5.402 2.713 0 0-1.382-.246-2.136-.493-.754-.247-2.136-.493-3.77 1.603-1.394 1.791-5.417-.263-5.778-.616-.928-.906-3.201.25-4.523 0-1.329-.252-2.387-.74-3.015-1.974-.628-1.233-3.267-1.726-3.895-1.48 0 0 2.639-2.836 3.895-6.659zM82.987 75.505s1.256-1.85 1.256-2.466"/>
                    <path stroke="#FFF" stroke-linecap="round" stroke-linejoin="round" stroke-width="1.875" d="M85.75 78.219s.252-1.11.754-2.097c.503-.987 1.508-5.427 1.508-4.81s-.628 4.317-1.13 5.673M80.6 77.725s2.512.123 3.518 2.097M84.997 80.562s1.005.37 2.512 0c1.508-.37 2.89-.247 3.77.493.879.74 2.386.493 2.512.247M95.299 80.808s.753-.246 1.758-.986c1.006-.74 2.387-.617 3.141-.124.754.494 2.764.37 3.267.124M104.847 79.082s.88-.37 1.507-1.357c.628-.986 1.885-1.726 2.387-1.85M91.78 79.329s.629-5.55 1.383-6.66c.754-1.11-1.13 2.096.88 5.55M96.932 71.312s0 1.234.502 1.973M102.334 76.492s-1.256-3.083-1.256-4.687c0-1.603-.503-2.22-.503-3.822 0 0 .754 1.973.88 3.576.125 1.603 2.261 2.59 2.89 3.7M91.78 62.68s-.125 2.22-.501 3.082"/>
                    <path stroke="#D1A448" stroke-linecap="round" stroke-linejoin="round" stroke-width="1.875" d="M56.01 154.423c.704 11.813-3.944 20.723-11.496 20.99-7.464.263-12.388-8.704-11.778-20.839M42.131 175.058L42.176 181.709M46.754 175.028L46.798 181.679M44.596 182.332c-1.406.009-2.11-.124-2.676-.535 0 0-.698.695.01 1.38 0 0 .846.409 2.393.399M42.215 183.848l.04 5.798s.567.687 2.395.675c1.828-.012 2.246-.705 2.246-.705l-.04-5.798M43.285 175.558L43.329 182.046M43.34 183.841L43.382 189.915M44.974 175.824L45.014 181.759M45.031 184.244L45.049 186.867M45.053 187.557L45.069 189.904M46.38 175.814L46.415 180.922M46.437 184.235L46.473 189.619"/>
                    <path stroke="#D1A448" stroke-linecap="round" stroke-linejoin="round" stroke-width="1.875" d="M44.325 182.334c1.407-.01 2.109-.152 2.669-.57 0 0 .707.686.009 1.38 0 0-.84.42-2.388.43M55.94 154.492c.009 1.296-5.147 2.38-11.515 2.422-6.369.042-11.539-.976-11.548-2.272-.008-1.295 5.148-2.38 11.516-2.421 6.368-.042 11.538.975 11.547 2.271zM41.869 188.645c-1.506.145-4.744.535-6.545 1.341 0 0-2.176 1.272 2.631 2.163M47.077 188.535c1.507.144 4.744.53 6.546 1.335 0 0 2.176 1.27-2.631 2.165M38.822 192.178s5.63.792 11.682-.076"/>
                    <path stroke="#D1A448" stroke-linecap="round" stroke-linejoin="round" stroke-width="1.875" d="M34.83 190.34s-.92.49-.482 1.315c.438.826 3.906 1.77 8.376 1.74M46.245 193.376c4.471-.03 7.926-1.018 8.353-1.85.427-.83-.5-1.307-.5-1.307M43.157 193.392s1.629.048 2.74-.018M55.88 156.548c.008 1.296-5.148 2.38-11.516 2.422-6.369.041-11.538-.976-11.547-2.272M44.437 171.319s-.226-1.78.838-3.013c0 0 .82-1.096 2.181-1.54 0 0-.088 1.797-.733 2.636 0 0-.454.89-2.286 1.917z"/>
                    <path stroke="#D1A448" stroke-linecap="round" stroke-linejoin="round" stroke-width="1.875" d="M44.542 171.293s.202-1.783-.878-3.002c0 0-.835-1.085-2.202-1.512 0 0 .112 1.796.769 2.627 0 0 .466.884 2.311 1.887zM44.522 171.375s.692-1.661 2.235-2.223c0 0 1.262-.56 2.67-.294 0 0-.974 1.525-1.956 1.945 0 0-.84.558-2.949.572z"/>
                    <path stroke="#D1A448" stroke-linecap="round" stroke-linejoin="round" stroke-width="1.875" d="M44.52 171.375s-.714-1.652-2.264-2.194c0 0-1.27-.544-2.674-.259 0 0 .994 1.512 1.982 1.92 0 0 .847.546 2.957.533z"/>
                    <path stroke="#D1A448" stroke-linecap="round" stroke-linejoin="round" stroke-width="1.875" d="M44.534 171.275s-1.142-1.401-.892-2.998c0 0 .114-1.355 1.037-2.433 0 0 .883 1.577.78 2.623 0 0 .088.992-.925 2.808zM34.088 162.399s1.14 6.392 4.358 9.568M33.907 161.262s-.147-.827-.151-1.517M34.052 161.951L34.051 161.813"/>
                    <path stroke="#44E7D9" stroke-linecap="round" stroke-linejoin="round" stroke-width="1.875" d="M47.41 156.616s-1.472-.09-1.13-.59c.344-.5-.003-.498-.695-.494-.692.004-1.815.21-.949.404 0 0 .736.232.524.729M34.18 155.558s4.383-2.153 8.103-2.078M42.977 153.475L44.577 153.465M45.107 153.462s6.461-.054 9.57 1.875"/>
                    <path stroke="#44E7D9" stroke-linecap="round" stroke-linejoin="round" stroke-width="1.875" d="M40.98 156.646s.326-.638-.798-.431c-1.123.206-1.173-.84.385-.65 1.559.189 3.289.078 3.025-.518-.264-.597-1.903.012-1.82-.487.083-.499 1.468-.408 2.246-.413.78-.005 1.9-.51 3.028-.02 1.128.491-1.208.407-.426.9.782.493 2.334-.414 2.768-.118.434.296-.601.702-.772 1.002-.17.3.886.437.886.437"/>
                    <path stroke="#D1A448" stroke-linecap="round" stroke-linejoin="round" stroke-width="1.875" d="M88.892 167.944c.704 11.813-3.944 20.723-11.496 20.99-7.464.263-12.388-8.704-11.778-20.839M75.012 188.579L75.057 195.23M79.635 188.549L79.68 195.2M77.478 195.853c-1.406.009-2.11-.124-2.676-.535 0 0-.698.695.01 1.38 0 0 .846.41 2.393.4M75.098 197.37l.038 5.797s.568.687 2.396.675c1.828-.012 2.245-.705 2.245-.705l-.039-5.798M76.167 189.08L76.21 195.568M76.223 197.362L76.263 203.436M77.856 189.345L77.896 195.28M77.913 197.765L77.931 200.388M77.935 201.078L77.951 203.425M79.262 189.336L79.297 194.443M79.319 197.756L79.355 203.14"/>
                    <path stroke="#D1A448" stroke-linecap="round" stroke-linejoin="round" stroke-width="1.875" d="M77.207 195.855c1.406-.01 2.109-.152 2.668-.57 0 0 .708.686.01 1.38 0 0-.84.42-2.388.43M88.822 168.013c.008 1.297-5.147 2.381-11.516 2.422-6.368.042-11.538-.976-11.547-2.271-.008-1.296 5.147-2.38 11.516-2.422 6.369-.042 11.538.976 11.547 2.271zM74.75 202.166c-1.505.145-4.743.535-6.544 1.341 0 0-2.176 1.272 2.631 2.163M79.96 202.056c1.505.144 4.743.531 6.545 1.336 0 0 2.176 1.27-2.63 2.164M71.704 205.7s5.63.791 11.681-.077"/>
                    <path stroke="#D1A448" stroke-linecap="round" stroke-linejoin="round" stroke-width="1.875" d="M67.712 203.862s-.92.489-.482 1.314c.438.826 3.906 1.77 8.376 1.74M79.128 206.897c4.47-.029 7.925-1.018 8.352-1.849.427-.83-.5-1.308-.5-1.308M76.039 206.914s1.629.047 2.74-.018M88.761 170.069c.009 1.296-5.147 2.38-11.515 2.422-6.369.041-11.539-.976-11.547-2.272M77.32 184.84s-.227-1.78.837-3.013c0 0 .82-1.096 2.18-1.54 0 0-.087 1.797-.732 2.636 0 0-.454.89-2.286 1.917z"/>
                    <path stroke="#D1A448" stroke-linecap="round" stroke-linejoin="round" stroke-width="1.875" d="M77.424 184.814s.203-1.783-.879-3.002c0 0-.834-1.085-2.2-1.512 0 0 .111 1.797.768 2.627 0 0 .466.885 2.311 1.887zM77.404 184.896s.692-1.661 2.235-2.223c0 0 1.262-.56 2.67-.294 0 0-.974 1.525-1.956 1.946 0 0-.84.557-2.949.571z"/>
                    <path stroke="#D1A448" stroke-linecap="round" stroke-linejoin="round" stroke-width="1.875" d="M77.402 184.896s-.714-1.652-2.264-2.194c0 0-1.27-.544-2.674-.259 0 0 .994 1.512 1.982 1.92 0 0 .847.547 2.956.533z"/>
                    <path stroke="#D1A448" stroke-linecap="round" stroke-linejoin="round" stroke-width="1.875" d="M77.416 184.796s-1.142-1.401-.893-2.998c0 0 .115-1.355 1.038-2.433 0 0 .883 1.577.78 2.624 0 0 .088.991-.925 2.807zM66.97 175.92s1.14 6.392 4.358 9.568M66.789 174.783s-.147-.827-.151-1.517M66.934 175.473L66.933 175.334"/>
                    <path stroke="#44E7D9" stroke-linecap="round" stroke-linejoin="round" stroke-width="1.875" d="M80.291 170.137s-1.47-.09-1.129-.59c.343-.5-.003-.498-.695-.494-.692.004-1.815.21-.949.405 0 0 .736.231.525.728M67.062 169.079s4.383-2.153 8.103-2.078M75.859 166.997L77.458 166.986M77.988 166.983s6.462-.053 9.571 1.875"/>
                    <path stroke="#44E7D9" stroke-linecap="round" stroke-linejoin="round" stroke-width="1.875" d="M73.863 170.167s.325-.638-.799-.431c-1.123.206-1.174-.84.385-.65 1.559.189 3.289.078 3.025-.518-.264-.597-1.904.012-1.82-.487.083-.499 1.468-.408 2.246-.413.78-.005 1.9-.51 3.029-.02 1.128.491-1.209.407-.427.9.782.493 2.333-.414 2.768-.118.435.296-.601.702-.772 1.002-.171.3.886.437.886.437"/>
                    <path stroke="#D1A448" stroke-linecap="round" stroke-linejoin="round" stroke-width="1.875" d="M121.774 167.944c.704 11.813-3.944 20.723-11.496 20.99-7.464.263-12.388-8.704-11.778-20.839M107.895 188.579L107.939 195.23M112.517 188.549L112.562 195.2M110.36 195.853c-1.406.009-2.11-.124-2.676-.535 0 0-.698.695.01 1.38 0 0 .846.41 2.393.4M107.98 197.37l.039 5.797s.567.687 2.395.675c1.828-.012 2.245-.705 2.245-.705l-.04-5.798M109.049 189.08L109.093 195.568M109.104 197.362L109.146 203.436M110.738 189.345L110.778 195.28M110.795 197.765L110.812 200.388M110.817 201.078L110.833 203.425M112.144 189.336L112.179 194.443M112.201 197.756L112.237 203.14"/>
                    <path stroke="#D1A448" stroke-linecap="round" stroke-linejoin="round" stroke-width="1.875" d="M110.09 195.855c1.406-.01 2.108-.152 2.667-.57 0 0 .708.686.01 1.38 0 0-.841.42-2.388.43M121.704 168.013c.008 1.297-5.147 2.381-11.516 2.422-6.368.042-11.538-.976-11.547-2.271-.008-1.296 5.147-2.38 11.516-2.422 6.368-.042 11.538.976 11.547 2.271zM107.633 202.166c-1.506.145-4.744.535-6.545 1.341 0 0-2.176 1.272 2.631 2.163M112.841 202.056c1.506.144 4.744.531 6.546 1.336 0 0 2.176 1.27-2.631 2.164M104.586 205.7s5.63.791 11.682-.077"/>
                    <path stroke="#D1A448" stroke-linecap="round" stroke-linejoin="round" stroke-width="1.875" d="M100.594 203.862s-.92.489-.482 1.314c.438.826 3.906 1.77 8.376 1.74M112.01 206.897c4.47-.029 7.925-1.018 8.352-1.849.427-.83-.5-1.308-.5-1.308M108.92 206.914s1.63.047 2.74-.018M121.643 170.069c.009 1.296-5.147 2.38-11.515 2.422-6.369.041-11.538-.976-11.548-2.272M110.201 184.84s-.226-1.78.838-3.013c0 0 .82-1.096 2.18-1.54 0 0-.087 1.797-.732 2.636 0 0-.454.89-2.286 1.917z"/>
                    <path stroke="#D1A448" stroke-linecap="round" stroke-linejoin="round" stroke-width="1.875" d="M110.306 184.814s.203-1.783-.878-3.002c0 0-.835-1.085-2.202-1.512 0 0 .112 1.797.769 2.627 0 0 .466.885 2.31 1.887zM110.286 184.896s.692-1.661 2.235-2.223c0 0 1.262-.56 2.67-.294 0 0-.974 1.525-1.956 1.946 0 0-.84.557-2.949.571z"/>
                    <path stroke="#D1A448" stroke-linecap="round" stroke-linejoin="round" stroke-width="1.875" d="M110.284 184.896s-.714-1.652-2.264-2.194c0 0-1.27-.544-2.674-.259 0 0 .994 1.512 1.982 1.92 0 0 .847.547 2.956.533z"/>
                    <path stroke="#D1A448" stroke-linecap="round" stroke-linejoin="round" stroke-width="1.875" d="M110.298 184.796s-1.143-1.401-.893-2.998c0 0 .115-1.355 1.038-2.433 0 0 .883 1.577.78 2.624 0 0 .088.991-.925 2.807zM99.851 175.92s1.141 6.392 4.359 9.568M99.67 174.783s-.146-.827-.15-1.517M99.816 175.473L99.815 175.334"/>
                    <path stroke="#44E7D9" stroke-linecap="round" stroke-linejoin="round" stroke-width="1.875" d="M113.173 170.137s-1.471-.09-1.128-.59c.342-.5-.004-.498-.696-.494-.692.004-1.815.21-.949.405 0 0 .736.231.525.728M99.944 169.079s4.383-2.153 8.103-2.078M108.74 166.997L110.34 166.986M110.87 166.983s6.462-.053 9.571 1.875"/>
                    <path stroke="#44E7D9" stroke-linecap="round" stroke-linejoin="round" stroke-width="1.875" d="M106.745 170.167s.324-.638-.799-.431c-1.123.206-1.174-.84.385-.65 1.559.189 3.288.078 3.025-.518-.264-.597-1.903.012-1.82-.487.083-.499 1.468-.408 2.246-.413.779-.005 1.9-.51 3.028-.02 1.128.491-1.208.407-.426.9.782.493 2.333-.414 2.768-.118.434.296-.601.702-.772 1.002-.171.3.886.437.886.437"/>
                    <path stroke="#D1A448" stroke-linecap="round" stroke-linejoin="round" stroke-width="1.875" d="M146.307 72.142c.705 11.812-3.944 20.722-11.495 20.989-7.464.263-12.389-8.704-11.778-20.838M132.428 92.776L132.473 99.427M137.051 92.746L137.095 99.397M134.894 100.05c-1.407.01-2.11-.124-2.676-.534 0 0-.698.694.009 1.38 0 0 .847.408 2.394.398M132.513 101.567l.039 5.798s.567.686 2.395.674c1.828-.012 2.246-.704 2.246-.704l-.04-5.798M133.582 93.277L133.626 99.765M133.638 101.56L133.679 107.633M135.271 93.542L135.311 99.478M135.328 101.963L135.346 104.586M135.35 105.276L135.366 107.622M136.678 93.533L136.712 98.641M136.734 101.954L136.771 107.337"/>
                    <path stroke="#D1A448" stroke-linecap="round" stroke-linejoin="round" stroke-width="1.875" d="M134.623 100.052c1.406-.009 2.108-.152 2.668-.57 0 0 .708.686.01 1.381 0 0-.842.42-2.389.43M146.237 72.21c.009 1.297-5.146 2.381-11.515 2.423-6.369.041-11.538-.976-11.547-2.272-.009-1.296 5.147-2.38 11.515-2.422 6.369-.041 11.539.976 11.547 2.272zM132.166 106.364c-1.506.145-4.743.535-6.545 1.34 0 0-2.176 1.273 2.632 2.163M137.375 106.254c1.506.143 4.743.53 6.545 1.335 0 0 2.176 1.27-2.63 2.165M129.12 109.897s5.63.792 11.68-.076"/>
                    <path stroke="#D1A448" stroke-linecap="round" stroke-linejoin="round" stroke-width="1.875" d="M125.128 108.06s-.921.488-.483 1.314c.438.825 3.906 1.769 8.377 1.74M136.543 111.094c4.47-.029 7.925-1.017 8.352-1.849.427-.83-.5-1.308-.5-1.308M133.454 111.11s1.63.049 2.74-.017M146.176 74.266c.01 1.296-5.146 2.38-11.515 2.422-6.369.042-11.538-.976-11.547-2.272M134.735 89.037s-.227-1.78.837-3.013c0 0 .82-1.096 2.181-1.54 0 0-.087 1.797-.733 2.636 0 0-.454.89-2.285 1.917z"/>
                    <path stroke="#D1A448" stroke-linecap="round" stroke-linejoin="round" stroke-width="1.875" d="M134.84 89.012s.202-1.784-.88-3.002c0 0-.834-1.085-2.2-1.512 0 0 .112 1.796.768 2.626 0 0 .466.885 2.311 1.888zM134.82 89.093s.692-1.66 2.234-2.223c0 0 1.263-.56 2.67-.293 0 0-.974 1.525-1.955 1.945 0 0-.84.558-2.95.571z"/>
                    <path stroke="#D1A448" stroke-linecap="round" stroke-linejoin="round" stroke-width="1.875" d="M134.818 89.093s-.714-1.651-2.265-2.194c0 0-1.27-.544-2.674-.258 0 0 .995 1.512 1.982 1.92 0 0 .848.546 2.957.532z"/>
                    <path stroke="#D1A448" stroke-linecap="round" stroke-linejoin="round" stroke-width="1.875" d="M134.831 88.994s-1.142-1.402-.892-2.999c0 0 .115-1.355 1.037-2.433 0 0 .884 1.577.78 2.624 0 0 .089.991-.925 2.808zM124.385 80.117s1.14 6.393 4.358 9.569M124.204 78.98s-.146-.827-.15-1.517M124.349 79.67L124.348 79.532"/>
                    <path stroke="#44E7D9" stroke-linecap="round" stroke-linejoin="round" stroke-width="1.875" d="M137.707 74.335s-1.472-.09-1.129-.59c.343-.502-.004-.5-.695-.495-.692.005-1.816.211-.95.405 0 0 .737.232.525.728M124.477 73.276s4.383-2.153 8.104-2.078M133.274 71.194L134.874 71.184M135.404 71.18s6.461-.053 9.57 1.876"/>
                    <path stroke="#44E7D9" stroke-linecap="round" stroke-linejoin="round" stroke-width="1.875" d="M131.278 74.365s.325-.638-.798-.432c-1.124.207-1.174-.84.384-.65 1.56.19 3.289.078 3.025-.518-.263-.596-1.903.012-1.82-.486.083-.5 1.468-.409 2.247-.414.778-.005 1.9-.51 3.028-.02 1.128.492-1.209.407-.427.9.783.493 2.334-.414 2.768-.117.435.296-.601.701-.772 1.001-.17.3.887.438.887.438M104.864 141.924c-2.613 2.068-4.31 5.407-4.31 9.173 0 4.774 2.726 8.86 6.587 10.543"/>
                    <path stroke="#44E7D9" stroke-linecap="round" stroke-linejoin="round" stroke-width="1.875" d="M104.686 159.703s-1.456.525-2.729-.343c-.307-.21-.596-.405-.855-.578-.814-.545-1.333-.875-1.196-.75.18.163.412.538.716 1.06.302.521 1.5 1.115 2.374.719 0 0-.286-.096-.584-.49-.298-.393-.487-.77-1.126-.98-.638-.21-1.046-.088-1.425-.35M102.906 158.174s-1.55-.038-2.408-1.306c-.207-.306-.403-.592-.579-.847-.552-.8-.91-1.295-.83-1.13.106.217.181.65.268 1.245.086.594.976 1.578 1.937 1.527 0 0-.23-.193-.36-.667-.128-.473-.163-.892-.677-1.317-.515-.427-.94-.46-1.194-.842M101.485 155.565s-1.41-.638-1.686-2.135c-.067-.361-.131-.7-.19-1.002-.184-.95-.314-1.543-.307-1.361.01.241-.095.668-.256 1.247-.16.58.26 1.83 1.165 2.155 0 0-.134-.266-.062-.751.072-.486.21-.883-.092-1.474-.3-.592-.677-.788-.758-1.237M100.724 152.096s-1.228-.931-1.156-2.451c.018-.367.032-.711.044-1.019.037-.967.046-1.573.011-1.393-.045.237-.245.63-.534 1.159-.288.529-.164 1.84.643 2.356 0 0-.07-.289.112-.746.18-.457.405-.814.247-1.456-.158-.643-.481-.917-.456-1.372M100.749 148.66s-.903-1.238-.39-2.674c.125-.346.24-.672.34-.963.32-.916.505-1.494.42-1.331-.113.214-.42.533-.851.959-.432.425-.696 1.716-.075 2.438 0 0 .018-.296.325-.683.308-.387.627-.666.664-1.325.036-.66-.192-1.014-.036-1.443M102.08 145.474s-.787-1.313-.144-2.697c.155-.335.3-.649.427-.93.401-.883.639-1.443.539-1.289-.132.203-.467.495-.935.88-.469.386-.85 1.649-.297 2.423 0 0 .045-.294.386-.652.341-.358.685-.608.782-1.262.096-.654-.099-1.026.096-1.44M106.78 161.354s-1.297.837-2.737.277c-.348-.135-.675-.26-.968-.371-.919-.349-1.5-.554-1.338-.463.213.119.527.432.943.872.416.44 1.719.75 2.479.168 0 0-.3-.029-.683-.346-.381-.316-.653-.64-1.323-.702-.67-.062-1.04.149-1.47-.022M103.311 143.489s-.142-1.516 1.04-2.5c.286-.238.552-.462.79-.663.746-.632 1.203-1.04 1.046-.941-.207.129-.636.252-1.228.406-.59.153-1.483 1.135-1.319 2.067 0 0 .168-.247.632-.428.465-.182.884-.264 1.255-.815.371-.551.356-.97.712-1.262M104.107 144.22c-.25.385-.676.422-1.186.854-.51.43-.54.85-.665 1.324-.125.475-.353.67-.353.67.963.043 1.843-.95 1.923-1.546.08-.595.15-1.028.255-1.247.079-.165-.275.332-.82 1.139-.172.256-.365.544-.569.852-.448.676-1.094 1.009-1.603 1.172M107.278 142.016c-.392.246-.794.105-1.44.287-.648.181-.854.55-1.17.93-.316.38-.606.462-.606.462.856.435 2.078-.105 2.405-.613.327-.507.576-.872.764-1.027.142-.118-.391.188-1.23.697-.266.161-.564.344-.88.54-.696.43-1.425.466-1.956.405M103.66 146.923c-.25.384-.675.422-1.186.853-.51.43-.54.85-.665 1.324-.124.475-.352.67-.352.67.962.043 1.842-.95 1.922-1.546.08-.595.151-1.028.255-1.247.08-.165-.275.332-.82 1.139-.173.256-.365.544-.568.852-.449.676-1.095 1.01-1.604 1.172M103.07 149.666c-.189.417-.603.517-1.04 1.019-.44.502-.404.92-.455 1.408-.05.488-.246.714-.246.714.958-.1 1.676-1.212 1.663-1.813-.012-.6-.008-1.039.06-1.27.053-.175-.22.369-.634 1.246-.132.28-.278.593-.432.928-.34.734-.927 1.16-1.405 1.396M103.026 152.365c-.057.453-.423.668-.692 1.274-.27.605-.111.995-.014 1.476.098.481-.022.754-.022.754.886-.371 1.24-1.641 1.05-2.212-.191-.57-.319-.99-.322-1.231-.002-.183-.101.415-.235 1.374-.042.304-.089.646-.137 1.01-.104.8-.54 1.376-.926 1.74M103.829 154.633c.045.454-.265.741-.395 1.39-.13.648.11.996.312 1.445.201.448.144.74.144.74.784-.55.85-1.865.537-2.381-.311-.517-.528-.9-.584-1.135-.043-.178-.008.427.073 1.391.025.307.055.65.089 1.016.074.803-.225 1.457-.521 1.894M105.331 156.792c.138.436-.106.779-.1 1.44.007.66.314.953.603 1.353.29.4.294.696.294.696.654-.694.448-1.995.036-2.44-.412-.443-.704-.776-.807-.994-.078-.166.08.42.358 1.348.088.296.189.625.297.977.238.772.08 1.472-.12 1.959M115.384 142.337c2.613 2.068 4.31 5.407 4.31 9.173 0 4.774-2.726 8.86-6.587 10.544"/>
                    <path stroke="#44E7D9" stroke-linecap="round" stroke-linejoin="round" stroke-width="1.875" d="M115.562 160.117s1.456.525 2.729-.344c.307-.21.596-.405.855-.578.815-.545 1.333-.874 1.196-.75-.18.163-.412.538-.715 1.06-.303.521-1.5 1.115-2.375.72 0 0 .286-.097.584-.49.298-.394.487-.77 1.126-.98.638-.21 1.045-.089 1.425-.351M117.342 158.587s1.551-.038 2.409-1.306c.206-.305.402-.592.578-.847.552-.8.91-1.295.83-1.13-.106.218-.181.65-.268 1.245-.086.594-.976 1.579-1.937 1.527 0 0 .23-.192.36-.666.129-.474.163-.892.677-1.319.515-.426.94-.46 1.195-.841M118.763 155.978s1.41-.638 1.686-2.135c.067-.36.131-.7.19-1.002.184-.95.314-1.543.307-1.36-.01.24.095.667.256 1.246.16.58-.26 1.83-1.165 2.155 0 0 .135-.265.062-.75-.072-.486-.209-.884.092-1.475.3-.591.678-.788.758-1.237M119.525 152.51s1.227-.932 1.155-2.452c-.018-.367-.032-.71-.044-1.019-.037-.966-.046-1.573-.011-1.393.045.237.245.63.534 1.159.288.53.164 1.84-.643 2.357 0 0 .07-.29-.111-.746-.181-.458-.406-.815-.248-1.458.159-.642.481-.916.456-1.371M119.5 149.073s.903-1.238.388-2.674c-.123-.346-.239-.672-.34-.963-.318-.916-.504-1.494-.418-1.331.112.214.419.533.85.959.432.425.696 1.716.075 2.439 0 0-.018-.297-.325-.684-.308-.387-.627-.666-.664-1.326-.036-.66.193-1.013.036-1.442M118.169 145.887s.786-1.313.143-2.697c-.155-.334-.3-.648-.427-.93-.401-.883-.638-1.443-.539-1.289.132.204.466.495.935.88.469.387.85 1.648.297 2.423 0 0-.045-.294-.386-.652-.341-.358-.685-.608-.782-1.262-.096-.654.1-1.026-.096-1.44M113.469 161.767s1.295.837 2.736.277c.348-.135.675-.26.968-.371.919-.349 1.5-.553 1.338-.463-.213.119-.526.432-.942.872-.417.44-1.72.75-2.48.168 0 0 .3-.029.683-.345.381-.317.653-.641 1.323-.703.67-.062 1.04.149 1.47-.022M116.937 143.902s.142-1.516-1.04-2.5c-.286-.238-.552-.462-.79-.663-.746-.631-1.203-1.039-1.046-.941.208.129.636.253 1.228.406.59.153 1.484 1.135 1.319 2.067 0 0-.168-.246-.632-.428-.465-.181-.884-.264-1.255-.815-.37-.551-.356-.97-.712-1.263M116.141 144.634c.25.384.676.422 1.186.853.51.43.54.85.665 1.324.125.476.353.67.353.67-.963.043-1.843-.95-1.923-1.546-.08-.595-.15-1.028-.255-1.246-.079-.166.275.33.82 1.137.173.257.365.545.569.853.448.676 1.095 1.009 1.603 1.172M112.97 142.43c.392.245.794.104 1.44.286.648.182.854.55 1.17.93.316.38.606.462.606.462-.855.435-2.078-.105-2.405-.612-.327-.508-.576-.872-.764-1.028-.142-.118.391.188 1.23.697.266.161.564.344.88.54.696.43 1.425.466 1.957.405M116.588 147.336c.25.384.675.422 1.186.853.51.43.54.85.665 1.324.125.476.353.67.353.67-.963.043-1.843-.95-1.923-1.545-.08-.596-.151-1.03-.255-1.247-.079-.166.275.331.82 1.137.173.257.365.545.569.853.448.676 1.094 1.009 1.603 1.172M117.178 150.08c.189.416.603.516 1.041 1.018.438.502.403.92.454 1.408.05.488.246.714.246.714-.958-.1-1.675-1.212-1.663-1.812.012-.6.008-1.04-.06-1.27-.053-.176.22.368.634 1.246.132.279.278.592.432.927.34.735.927 1.16 1.405 1.396M117.223 152.778c.056.453.422.668.69 1.274.27.605.112.996.015 1.476-.098.482.022.754.022.754-.886-.372-1.24-1.641-1.05-2.211.191-.57.319-.991.322-1.232.002-.183.101.415.235 1.373.043.306.089.647.137 1.011.104.8.54 1.376.926 1.74M116.42 155.046c-.046.454.265.741.394 1.39.13.648-.11.996-.312 1.445-.201.449-.144.74-.144.74-.783-.55-.85-1.865-.537-2.381.311-.517.529-.9.585-1.135.042-.178.007.427-.073 1.391-.026.307-.056.65-.09 1.016-.074.803.225 1.457.521 1.894M114.917 157.205c-.138.436.107.78.1 1.44-.007.66-.314.953-.603 1.353-.29.4-.294.696-.294.696-.654-.695-.447-1.995-.036-2.439.412-.444.704-.776.807-.995.078-.166-.08.42-.358 1.348-.088.296-.188.626-.297.977-.238.773-.08 1.472.12 1.959"/>
                    <path fill="#000" d="M50.375 123.515H38.428l-1.727 30.989s8.796 2.585 15.287.02l-1.727-30.989"/>
                    <path stroke="#FFF" stroke-linecap="round" stroke-linejoin="round" stroke-width="1.875" d="M50.375 123.515H38.428l-1.727 30.989s8.796 2.585 15.287.02l-1.727-30.989"/>
                    <path fill="#000" d="M46.905 155.609v-4.47c0-1.475-1.115-2.682-2.478-2.682-1.363 0-2.478 1.207-2.478 2.682v4.47"/>
                    <path stroke="#FFF" stroke-linecap="round" stroke-linejoin="round" stroke-width="1.875" d="M46.905 155.609v-4.47c0-1.475-1.115-2.682-2.478-2.682-1.363 0-2.478 1.207-2.478 2.682v4.47"/>
                    <path fill="#000" d="M43.483 142.226v-1.86c0-.613-.464-1.116-1.031-1.116s-1.03.503-1.03 1.117v1.86h2.061z"/>
                    <path stroke="#FFF" stroke-linecap="round" stroke-linejoin="round" stroke-width="1.875" d="M43.483 142.226v-1.86c0-.613-.464-1.116-1.031-1.116s-1.03.503-1.03 1.117v1.86h2.061z"/>
                    <path fill="#000" d="M47.58 142.163v-1.86c0-.614-.464-1.116-1.031-1.116s-1.032.502-1.032 1.116v1.86h2.063z"/>
                    <path stroke="#FFF" stroke-linecap="round" stroke-linejoin="round" stroke-width="1.875" d="M47.58 142.163v-1.86c0-.614-.464-1.116-1.031-1.116s-1.032.502-1.032 1.116v1.86h2.063z"/>
                    <path fill="#000" d="M43.32 136.869v-1.86c0-.613-.465-1.116-1.032-1.116s-1.03.503-1.03 1.116v1.86h2.061z"/>
                    <path stroke="#FFF" stroke-linecap="round" stroke-linejoin="round" stroke-width="1.875" d="M43.32 136.869v-1.86c0-.613-.465-1.116-1.032-1.116s-1.03.503-1.03 1.116v1.86h2.061z"/>
                    <path fill="#000" d="M47.416 136.805v-1.86c0-.613-.464-1.115-1.031-1.115s-1.031.502-1.031 1.116v1.86h2.062z"/>
                    <path stroke="#FFF" stroke-linecap="round" stroke-linejoin="round" stroke-width="1.875" d="M47.416 136.805v-1.86c0-.613-.464-1.115-1.031-1.115s-1.031.502-1.031 1.116v1.86h2.062z"/>
                    <path fill="#000" d="M38.482 124.337L39.789 124.337"/>
                    <path stroke="#FFF" stroke-linecap="round" stroke-linejoin="round" stroke-width="1.875" d="M38.482 124.337L39.789 124.337"/>
                    <path fill="#000" d="M38.335 125.184L40.424 125.184"/>
                    <path stroke="#FFF" stroke-linecap="round" stroke-linejoin="round" stroke-width="1.875" d="M38.335 125.184L40.424 125.184"/>
                    <path fill="#000" d="M38.297 125.86L39.407 125.86"/>
                    <path stroke="#FFF" stroke-linecap="round" stroke-linejoin="round" stroke-width="1.875" d="M38.297 125.86L39.407 125.86"/>
                    <path fill="#000" d="M38.253 126.661L40.932 126.661"/>
                    <path stroke="#FFF" stroke-linecap="round" stroke-linejoin="round" stroke-width="1.875" d="M38.253 126.661L40.932 126.661"/>
                    <path fill="#000" d="M38.21 127.434L39.408 127.434"/>
                    <path stroke="#FFF" stroke-linecap="round" stroke-linejoin="round" stroke-width="1.875" d="M38.21 127.434L39.408 127.434"/>
                    <path fill="#000" d="M39.916 127.382L40.424 127.382"/>
                    <path stroke="#FFF" stroke-linecap="round" stroke-linejoin="round" stroke-width="1.875" d="M39.916 127.382L40.424 127.382"/>
                    <path fill="#000" d="M38.161 128.311L39.662 128.311"/>
                    <path stroke="#FFF" stroke-linecap="round" stroke-linejoin="round" stroke-width="1.875" d="M38.161 128.311L39.662 128.311"/>
                    <path fill="#000" d="M38.161 129.084L41.314 129.084"/>
                    <path stroke="#FFF" stroke-linecap="round" stroke-linejoin="round" stroke-width="1.875" d="M38.161 129.084L41.314 129.084"/>
                    <path fill="#000" d="M38.071 129.926L39.916 129.877"/>
                    <path stroke="#FFF" stroke-linecap="round" stroke-linejoin="round" stroke-width="1.875" d="M38.071 129.926L39.916 129.877"/>
                    <path fill="#000" d="M38.026 130.735L38.899 130.735"/>
                    <path stroke="#FFF" stroke-linecap="round" stroke-linejoin="round" stroke-width="1.875" d="M38.026 130.735L38.899 130.735"/>
                    <path fill="#000" d="M37.985 131.423L39.662 131.423"/>
                    <path stroke="#FFF" stroke-linecap="round" stroke-linejoin="round" stroke-width="1.875" d="M37.985 131.423L39.662 131.423"/>
                    <path fill="#000" d="M40.17 131.423L40.551 131.423"/>
                    <path stroke="#FFF" stroke-linecap="round" stroke-linejoin="round" stroke-width="1.875" d="M40.17 131.423L40.551 131.423"/>
                    <path fill="#000" d="M37.911 132.2L40.805 132.2"/>
                    <path stroke="#FFF" stroke-linecap="round" stroke-linejoin="round" stroke-width="1.875" d="M37.911 132.2L40.805 132.2"/>
                    <path fill="#000" d="M37.918 132.986L39.595 132.986"/>
                    <path stroke="#FFF" stroke-linecap="round" stroke-linejoin="round" stroke-width="1.875" d="M37.918 132.986L39.595 132.986"/>
                    <path fill="#000" d="M37.801 133.689L38.518 133.689"/>
                    <path stroke="#FFF" stroke-linecap="round" stroke-linejoin="round" stroke-width="1.875" d="M37.801 133.689L38.518 133.689"/>
                    <path fill="#000" d="M37.751 134.38L39.535 134.38"/>
                    <path stroke="#FFF" stroke-linecap="round" stroke-linejoin="round" stroke-width="1.875" d="M37.751 134.38L39.535 134.38"/>
                    <path fill="#000" d="M37.661 135.215L39.026 135.179"/>
                    <path stroke="#FFF" stroke-linecap="round" stroke-linejoin="round" stroke-width="1.875" d="M37.661 135.215L39.026 135.179"/>
                    <path fill="#000" d="M37.616 136.03L38.49 136.03"/>
                    <path stroke="#FFF" stroke-linecap="round" stroke-linejoin="round" stroke-width="1.875" d="M37.616 136.03L38.49 136.03"/>
                    <path fill="#000" d="M37.575 136.719L39.252 136.719"/>
                    <path stroke="#FFF" stroke-linecap="round" stroke-linejoin="round" stroke-width="1.875" d="M37.575 136.719L39.252 136.719"/>
                    <path fill="#000" d="M38.236 149.402L38.617 149.402"/>
                    <path stroke="#FFF" stroke-linecap="round" stroke-linejoin="round" stroke-width="1.875" d="M38.236 149.402L38.617 149.402"/>
                    <path fill="#000" d="M37.755 137.496L38.518 137.496"/>
                    <path stroke="#FFF" stroke-linecap="round" stroke-linejoin="round" stroke-width="1.875" d="M37.755 137.496L38.518 137.496"/>
                    <path fill="#000" d="M37.508 138.282L39.186 138.282"/>
                    <path stroke="#FFF" stroke-linecap="round" stroke-linejoin="round" stroke-width="1.875" d="M37.508 138.282L39.186 138.282"/>
                    <path fill="#000" d="M37.645 138.984L38.363 138.984"/>
                    <path stroke="#FFF" stroke-linecap="round" stroke-linejoin="round" stroke-width="1.875" d="M37.645 138.984L38.363 138.984"/>
                    <path fill="#000" d="M37.658 139.619L38.965 139.619"/>
                    <path stroke="#FFF" stroke-linecap="round" stroke-linejoin="round" stroke-width="1.875" d="M37.658 139.619L38.965 139.619"/>
                    <path fill="#000" d="M37.511 140.467L39.601 140.467"/>
                    <path stroke="#FFF" stroke-linecap="round" stroke-linejoin="round" stroke-width="1.875" d="M37.511 140.467L39.601 140.467"/>
                    <path fill="#000" d="M37.474 141.144L38.584 141.144"/>
                    <path stroke="#FFF" stroke-linecap="round" stroke-linejoin="round" stroke-width="1.875" d="M37.474 141.144L38.584 141.144"/>
                    <path fill="#000" d="M37.429 141.944L38.264 141.944"/>
                    <path stroke="#FFF" stroke-linecap="round" stroke-linejoin="round" stroke-width="1.875" d="M37.429 141.944L38.264 141.944"/>
                    <path fill="#000" d="M37.343 142.616L39.02 142.616"/>
                    <path stroke="#FFF" stroke-linecap="round" stroke-linejoin="round" stroke-width="1.875" d="M37.343 142.616L39.02 142.616"/>
                    <path fill="#000" d="M38.257 144.862L38.638 144.862"/>
                    <path stroke="#FFF" stroke-linecap="round" stroke-linejoin="round" stroke-width="1.875" d="M38.257 144.862L38.638 144.862"/>
                    <path fill="#000" d="M37.269 143.393L38.032 143.393"/>
                    <path stroke="#FFF" stroke-linecap="round" stroke-linejoin="round" stroke-width="1.875" d="M37.269 143.393L38.032 143.393"/>
                    <path fill="#000" d="M37.276 144.18L38.953 144.18"/>
                    <path stroke="#FFF" stroke-linecap="round" stroke-linejoin="round" stroke-width="1.875" d="M37.276 144.18L38.953 144.18"/>
                    <path fill="#000" d="M37.159 144.882L37.876 144.882"/>
                    <path stroke="#FFF" stroke-linecap="round" stroke-linejoin="round" stroke-width="1.875" d="M37.159 144.882L37.876 144.882"/>
                    <path fill="#000" d="M37.171 145.517L38.478 145.517"/>
                    <path stroke="#FFF" stroke-linecap="round" stroke-linejoin="round" stroke-width="1.875" d="M37.171 145.517L38.478 145.517"/>
                    <path fill="#000" d="M37.279 146.364L39.368 146.364"/>
                    <path stroke="#FFF" stroke-linecap="round" stroke-linejoin="round" stroke-width="1.875" d="M37.279 146.364L39.368 146.364"/>
                    <path fill="#000" d="M37.241 147.041L38.351 147.041"/>
                    <path stroke="#FFF" stroke-linecap="round" stroke-linejoin="round" stroke-width="1.875" d="M37.241 147.041L38.351 147.041"/>
                    <path fill="#000" d="M37.197 147.842L38.032 147.842"/>
                    <path stroke="#FFF" stroke-linecap="round" stroke-linejoin="round" stroke-width="1.875" d="M37.197 147.842L38.032 147.842"/>
                    <path fill="#000" d="M36.925 148.584L38.602 148.584"/>
                    <path stroke="#FFF" stroke-linecap="round" stroke-linejoin="round" stroke-width="1.875" d="M36.925 148.584L38.602 148.584"/>
                    <path fill="#000" d="M37.105 149.402L37.867 149.402"/>
                    <path stroke="#FFF" stroke-linecap="round" stroke-linejoin="round" stroke-width="1.875" d="M37.105 149.402L37.867 149.402"/>
                    <path fill="#000" d="M36.858 150.148L38.535 150.148"/>
                    <path stroke="#FFF" stroke-linecap="round" stroke-linejoin="round" stroke-width="1.875" d="M36.858 150.148L38.535 150.148"/>
                    <path fill="#000" d="M36.995 150.85L37.712 150.85"/>
                    <path stroke="#FFF" stroke-linecap="round" stroke-linejoin="round" stroke-width="1.875" d="M36.995 150.85L37.712 150.85"/>
                    <path fill="#000" d="M37.007 151.485L38.314 151.485"/>
                    <path stroke="#FFF" stroke-linecap="round" stroke-linejoin="round" stroke-width="1.875" d="M37.007 151.485L38.314 151.485"/>
                    <path fill="#000" d="M36.861 152.333L38.95 152.333"/>
                    <path stroke="#FFF" stroke-linecap="round" stroke-linejoin="round" stroke-width="1.875" d="M36.861 152.333L38.95 152.333"/>
                    <path fill="#000" d="M36.823 153.009L37.933 153.009"/>
                    <path stroke="#FFF" stroke-linecap="round" stroke-linejoin="round" stroke-width="1.875" d="M36.823 153.009L37.933 153.009"/>
                    <path fill="#000" d="M36.778 153.81L37.614 153.81"/>
                    <path stroke="#FFF" stroke-linecap="round" stroke-linejoin="round" stroke-width="1.875" d="M36.778 153.81L37.614 153.81"/>
                    <mask id="f2rfmath1b" fill="#fff">
                        <use xlink:href="#qh76slx8ba"/>
                    </mask>
                    <path fill="#000" d="M37.121 123.515L51.607 123.515 51.607 121.894 37.121 121.894z" mask="url(#f2rfmath1b)"/>
                    <path stroke="#FFF" stroke-linecap="round" stroke-linejoin="round" stroke-width="1.875" d="M37.121 123.515L51.607 123.515 51.607 121.894 37.121 121.894zM37.5 121.894L37.5 117.777 40.867 117.777 40.867 119.524 42.69 119.524 42.69 117.652" mask="url(#f2rfmath1b)"/>
                    <path stroke="#FFF" stroke-linecap="round" stroke-linejoin="round" stroke-width="1.875" d="M42.566 117.799L45.934 117.799 45.934 119.546 47.756 119.546 47.756 117.675M47.858 117.784L51.225 117.784 51.225 121.894" mask="url(#f2rfmath1b)"/>
                    <g mask="url(#f2rfmath1b)">
                        <g>
                            <path fill="#000" d="M0.3 0.414L1.967 0.414" transform="translate(37.162 118.395)"/>
                            <path stroke="#FFF" stroke-linecap="round" stroke-linejoin="round" stroke-width="1.875" d="M0.3 0.414L1.967 0.414" transform="translate(37.162 118.395)"/>
                        </g>
                    </g>
                    <g mask="url(#f2rfmath1b)">
                        <g>
                            <path fill="#000" d="M0.187 0.427L1.072 0.427" transform="translate(37.5 119.058)"/>
                            <path stroke="#FFF" stroke-linecap="round" stroke-linejoin="round" stroke-width="1.875" d="M0.187 0.427L1.072 0.427" transform="translate(37.5 119.058)"/>
                        </g>
                    </g>
                    <g mask="url(#f2rfmath1b)">
                        <g>
                            <path fill="#000" d="M0.27 0.427L1.156 0.427" transform="translate(37.162 119.058)"/>
                            <path stroke="#FFF" stroke-linecap="round" stroke-linejoin="round" stroke-width="1.875" d="M0.27 0.427L1.156 0.427" transform="translate(37.162 119.058)"/>
                        </g>
                    </g>
                    <g mask="url(#f2rfmath1b)">
                        <g>
                            <path fill="#000" d="M0.235 0.229L2.373 0.229" transform="translate(37.162 120.053)"/>
                            <path stroke="#FFF" stroke-linecap="round" stroke-linejoin="round" stroke-width="1.875" d="M0.235 0.229L2.373 0.229" transform="translate(37.162 120.053)"/>
                        </g>
                    </g>
                    <g mask="url(#f2rfmath1b)">
                        <g>
                            <path fill="#000" d="M0.117 0.341L1.072 0.341" transform="translate(37.5 120.717)"/>
                            <path stroke="#FFF" stroke-linecap="round" stroke-linejoin="round" stroke-width="1.875" d="M0.117 0.341L1.072 0.341" transform="translate(37.5 120.717)"/>
                        </g>
                    </g>
                    <g mask="url(#f2rfmath1b)">
                        <g>
                            <path fill="#000" d="M0.127 0.288L0.532 0.288" transform="translate(38.851 120.717)"/>
                            <path stroke="#FFF" stroke-linecap="round" stroke-linejoin="round" stroke-width="1.875" d="M0.127 0.288L0.532 0.288" transform="translate(38.851 120.717)"/>
                        </g>
                    </g>
                    <path stroke="#FFF" stroke-linecap="round" stroke-linejoin="round" stroke-width="1.875" d="M135.507 42.349v1.041s.081 1.201-1.142 1.04c-1.224-.159-3.263-.4-4.08 1.282-.815 1.682-.652 3.364 1.55 4.645 2.203 1.281 4.732.16 5.222-.08.489-.24 3.752-1.201 4.16.64.408 1.842-.652 2.563-1.468 2.483-.816-.08-3.753-1.041-4.568-1.201-.816-.16-2.937-1.041-5.956.88-3.017 1.922-1.305 7.608.898 8.408 2.202.801 3.997.721 5.547-1.04 1.55-1.762 3.345-1.442 3.671-1.122.326.32 1.305 1.842-.98 2.723-2.283.881-3.507.4-4.323 1.361-.815.961-.489 1.922-.163 2.403.327.48 1.795 1.441 1.958 2.242.163.8 0 1.762 0 1.762s.49-1.041.163-2.403c0 0-.326-.72-1.06-1.441-.734-.72-.408-1.682.408-1.922s3.507-.24 4.078-.48c.571-.24 2.04-1.282 2.203-3.043.163-1.762-1.305-3.204-2.692-3.604-1.387-.4-2.937.4-3.752 1.041 0 0-1.55 1.361-2.693 1.522-1.141.16-2.202-.641-2.202-2.082 0-1.442.245-2.243 1.305-2.803s3.508-.08 4.16.4c.653.48 3.508 1.282 4.65 1.041 1.142-.24 1.876-.48 2.937-1.922 1.06-1.441.57-4.644-.898-5.525 0 0-1.713-1.281-4.568-.88 0 0-1.55.48-2.284.72-.734.24-3.018.32-3.344-.72-.326-1.042.816-1.282 1.631-1.042.816.24 3.59-.08 3.671-2.803V42.27s.734-.48.571-1.522c-.163-1.04-.49-1.2-.571-1.44 0 0 0-.962-.897-1.522h-.163s-.816.32-1.06 1.601c0 0-.49.961-.572 1.602-.082.64.408 1.201.653 1.36z" mask="url(#f2rfmath1b)"/>
                    <path stroke="#FFF" stroke-linecap="round" stroke-linejoin="round" stroke-width="1.875" d="M136.69 37.825L136.69 36.864 136.935 36.063 136.526 36.624 136.119 36.063 136.363 36.864 136.347 37.859M133.632 44.348s-.612.812 0 2.27M133.185 44.37s-.61.813 0 2.27M136.567 40.467L136.567 38.786M130.449 45.484s.374.973 2.003 1.332M130.219 45.86s.374.974 2.003 1.332M130.616 49.443s1.06-.004 1.971-1.377M130.895 49.786s1.06-.005 1.97-1.377M133.953 50.967s.713-.77.3-2.357M134.399 50.997s.713-.768.3-2.356M137.275 50.237s.382-.935-.584-2.189M137.701 50.104s.382-.935-.584-2.188M140.256 49.982s.837-.513.734-2.001M140.683 50.11s.837-.513.734-2M141.31 51.48s.973.507 2.547-.25M141.323 51.92s.993.504 2.604-.257M140.304 53.292s-.313 1.07.763 2.511M139.866 53.385s-.306 1.091.78 2.569M137.359 52.916s-.949.559-1.111 2.284M136.97 52.698s-.958.577-1.136 2.335M132.22 51.922s-.378.99.6 2.363M131.78 51.998s-.374 1.01.612 2.416M127.829 55.026s.805.793 2.624.582M127.697 55.446s.826.798 2.684.595M128.085 59.077s1.051.319 2.453-.715M128.18 59.506s1.073.313 2.51-.731M133.287 61.928s.296-1.041-.795-2.388M133.722 61.822s.289-1.06-.814-2.442M137.152 59.395s-.102-1.035-1.578-1.8M137.508 59.134s-.088-1.03-1.553-1.77M139.502 59.577s.894.035 1.383-1.17M139.776 59.924s.905.026 1.414-1.196M139.434 61.27s.193.852 1.497.993M139.165 61.62s.205.86 1.53 1.016M137.137 62.341s-.465.634.356 1.353M136.7 62.433s-.461.645.364 1.384M133.459 64.6s.445.56 1.075-.105M133.49 65.038s.454.558 1.1-.108M135.454 43.439s.694.648 2.054.139M135.398 43.874s.71.65 2.1.142" mask="url(#f2rfmath1b)"/>
                    <path stroke="#D1A448" stroke-linecap="round" stroke-linejoin="round" stroke-width="1.875" d="M64.683 72.142c.704 11.812-3.944 20.722-11.496 20.989-7.463.263-12.388-8.704-11.778-20.838M50.804 92.776L50.849 99.427M55.426 92.746L55.471 99.397M53.27 100.05c-1.407.01-2.111-.124-2.677-.534 0 0-.698.694.01 1.38 0 0 .846.408 2.393.398M50.889 101.567l.039 5.798s.567.686 2.395.674c1.828-.012 2.245-.704 2.245-.704l-.04-5.798M51.958 93.277L52.002 99.765M52.013 101.56L52.055 107.633M53.647 93.542L53.687 99.478M53.704 101.963L53.721 104.586M53.726 105.276L53.742 107.622M55.053 93.533L55.088 98.641M55.11 101.954L55.146 107.337" mask="url(#f2rfmath1b)"/>
                    <path stroke="#D1A448" stroke-linecap="round" stroke-linejoin="round" stroke-width="1.875" d="M52.999 100.052c1.406-.009 2.108-.152 2.667-.57 0 0 .708.686.01 1.381 0 0-.841.42-2.388.43M64.613 72.21c.008 1.297-5.147 2.381-11.516 2.423-6.368.041-11.538-.976-11.546-2.272-.01-1.296 5.146-2.38 11.515-2.422 6.368-.041 11.538.976 11.547 2.272zM50.542 106.364c-1.506.145-4.744.535-6.545 1.34 0 0-2.176 1.273 2.631 2.163M55.75 106.254c1.506.143 4.744.53 6.546 1.335 0 0 2.176 1.27-2.63 2.165M47.495 109.897s5.63.792 11.682-.076" mask="url(#f2rfmath1b)"/>
                    <path stroke="#D1A448" stroke-linecap="round" stroke-linejoin="round" stroke-width="1.875" d="M43.503 108.06s-.92.488-.482 1.314c.438.825 3.906 1.769 8.376 1.74M54.918 111.094c4.471-.029 7.926-1.017 8.353-1.849.427-.83-.5-1.308-.5-1.308M51.83 111.11s1.629.049 2.74-.017M64.552 74.266c.009 1.296-5.147 2.38-11.515 2.422-6.369.042-11.538-.976-11.548-2.272M53.11 89.037s-.226-1.78.838-3.013c0 0 .82-1.096 2.181-1.54 0 0-.088 1.797-.733 2.636 0 0-.454.89-2.286 1.917z" mask="url(#f2rfmath1b)"/>
                    <path stroke="#D1A448" stroke-linecap="round" stroke-linejoin="round" stroke-width="1.875" d="M53.215 89.012s.203-1.784-.878-3.002c0 0-.835-1.085-2.201-1.512 0 0 .111 1.796.768 2.626 0 0 .466.885 2.311 1.888zM53.195 89.093s.692-1.66 2.235-2.223c0 0 1.262-.56 2.67-.293 0 0-.974 1.525-1.956 1.945 0 0-.84.558-2.949.571z" mask="url(#f2rfmath1b)"/>
                    <path stroke="#D1A448" stroke-linecap="round" stroke-linejoin="round" stroke-width="1.875" d="M53.194 89.093s-.715-1.651-2.265-2.194c0 0-1.27-.544-2.674-.258 0 0 .995 1.512 1.982 1.92 0 0 .847.546 2.957.532z" mask="url(#f2rfmath1b)"/>
                    <path stroke="#D1A448" stroke-linecap="round" stroke-linejoin="round" stroke-width="1.875" d="M53.207 88.994s-1.143-1.402-.893-2.999c0 0 .115-1.355 1.038-2.433 0 0 .883 1.577.78 2.624 0 0 .088.991-.925 2.808zM42.76 80.117s1.141 6.393 4.36 9.569M42.58 78.98s-.147-.827-.151-1.517M42.725 79.67L42.724 79.532" mask="url(#f2rfmath1b)"/>
                    <path stroke="#44E7D9" stroke-linecap="round" stroke-linejoin="round" stroke-width="1.875" d="M56.082 74.335s-1.471-.09-1.128-.59c.342-.502-.004-.5-.696-.495-.692.005-1.815.211-.949.405 0 0 .736.232.525.728M42.853 73.276s4.383-2.153 8.104-2.078M51.649 71.194L53.249 71.184M53.78 71.18s6.46-.053 9.57 1.876" mask="url(#f2rfmath1b)"/>
                    <path stroke="#44E7D9" stroke-linecap="round" stroke-linejoin="round" stroke-width="1.875" d="M49.654 74.365s.324-.638-.799-.432c-1.123.207-1.173-.84.385-.65 1.56.19 3.288.078 3.025-.518-.264-.596-1.903.012-1.82-.486.083-.5 1.468-.409 2.246-.414.779-.005 1.9-.51 3.028-.02 1.129.492-1.208.407-.426.9.782.493 2.333-.414 2.768-.117.434.296-.601.701-.772 1.001-.171.3.886.438.886.438" mask="url(#f2rfmath1b)"/>
                    <path stroke="#D1A448" stroke-linecap="round" stroke-linejoin="round" stroke-width="1.875" d="M44.978 54.527s.373 3.036.234 4.853c.045.168.007.875.562 1.861.633 1.126 1.31 2.96 1.666 3.209.355.248 2.714 2.635 4.187 3.092 0 0 .687.226 1.294.173M59.729 54.022s-.101 3.053.198 4.854c0 0 .12.72-.395 1.896-.514 1.176-.74 2.715-1.374 3.32-.636.605-2.472 2.826-3.9 3.39 0 0-.664.275-1.274.267" mask="url(#f2rfmath1b)"/>
                    <path stroke="#D1A448" stroke-linecap="round" stroke-linejoin="round" stroke-width="1.875" d="M58.892 57.082c-.844-.432-1.98-.312-1.98-.312-1.434.073-2.877 1.441-2.877 1.441s.543-.213 1.517.04c.974.253 2.424.082 3.094-.909 0 0 .198.032.281.144l-.396-.062" mask="url(#f2rfmath1b)"/>
                    <path stroke="#D1A448" stroke-linecap="round" stroke-linejoin="round" stroke-width="1.875" d="M54.496 57.224s1.443-1.368 2.63-1.181c0 0 1.007.059 1.85.49M53.673 55.508s1-1.054 2.458-1.192c1.458-.139 2.2-.089 3.132.662 0 0-.678-.655-1.442-.942 0 0-1.771-.552-3.842.843 0 0-.914.686-.306.629z" mask="url(#f2rfmath1b)"/>
                    <path stroke="#D1A448" stroke-linecap="round" stroke-linejoin="round" stroke-width="1.875" d="M55.354 57.268s.345.707 1.102.427c.756-.28.455-.925.455-.925M58.664 56.98s.342.02.49-.256c0 0-.412.168-1.122.09M52.107 59.775s-.1.69-.5 1.28c-.402.59.3 1.083 1.102 1.083M53.01 61.843s.1-.099.702.098c.601.197.401-.59.2-.787M51.706 62.138s-1.003 0-.802-.788M58.393 57.644l.273.2s-.217-.234-.422-.067M58.134 57.86l.286.244s-.275-.2-.434-.147M54.747 58.081s-.226.013-.207-.286M51.104 63.91s.502-.59.803-.788c.3-.197.602.296.802.296.2 0 .3-.197.602-.296.3-.098.602.394 1.003.788 0 0-1.304-.296-1.705-.197 0 0-.2-.099-1.505.197z" mask="url(#f2rfmath1b)"/>
                    <path stroke="#D1A448" stroke-linecap="round" stroke-linejoin="round" stroke-width="1.875" d="M50.102 63.91c.702.295 1.003 0 1.003 0s.3.886 1.203.984c.902.099 1.805-.196 2.006-.984 0 0 .601.197 1.002 0" mask="url(#f2rfmath1b)"/>
                    <path stroke="#D1A448" stroke-linecap="round" stroke-linejoin="round" stroke-width="1.875" d="M52.199 63.713s.109.394.51.394.452-.394.452-.394M49.7 50.128s.502-1.279 1.505-.886c1.003.394.501 1.674.501 1.674s-.3 1.477 1.404 1.181M52.509 49.242s-.201 3.052 2.607 3.052c2.807 0 1.805-2.461 1.103-2.461M54.614 49.34s-.3 1.97 1.204 1.38M49.5 48.357s1.003-2.265 3.71-2.265c2.708 0 2.808 1.28 2.808 2.265 0 .984.1 1.18 1.003.984M57.422 51.31s.301.393.903.098c0 0 .5-.492.1-.886M56.72 52.097s.401 1.575 2.206.985c0 0 .802-.296.502-1.378M58.625 53.377s.201 1.575 1.705.984c1.504-.59.702-2.067.702-2.067" mask="url(#f2rfmath1b)"/>
                    <path stroke="#D1A448" stroke-linecap="round" stroke-linejoin="round" stroke-width="1.875" d="M59.528 53.672s.401.492.702 0c.301-.492-.2-.787-.401-.984M56.119 46.683s2.005-.295 2.005 1.28.2 2.362 1.605 2.264c0 0 .702 0 .902-.788M56.018 45.403s2.808-.886 3.71.69c0 0 .301.59.201 1.476-.1.886.502 1.378 1.304 1.083" mask="url(#f2rfmath1b)"/>
                    <path stroke="#D1A448" stroke-linecap="round" stroke-linejoin="round" stroke-width="1.875" d="M60.23 47.372s1.905 0 2.106 1.477c.2 1.476-.903 1.772 0 3.15.902 1.378 3.008.197 1.604-1.181 0 0-1.002-.394-1.002.492M61.634 54.115s1.705-.296 1.404 1.083c0 0-.1.393-.601.689-.502.295-.1.984.601.886.702-.098 1.204 1.181.502 1.772-.702.59-2.006 1.87-.602 2.657 1.404.788 1.604-1.082.802-1.18M49.7 45.896s3.41-3.643 5.917 0M49.2 46.19s-2.107-1.673-4.213-.59c-2.105 1.083-2.306 1.674-2.206 3.446.1 1.772-1.002 2.362-1.604 1.772-.601-.591-.1-.985 0-.887M43.584 51.015s-.301.491-1.204.59c-.902.098-1.404 1.182-.501 2.362.902 1.182-.903.591-.802 1.575.1.985 1.203 1.182.4 1.772" mask="url(#f2rfmath1b)"/>
                    <path stroke="#D1A448" stroke-linecap="round" stroke-linejoin="round" stroke-width="1.875" d="M48.497 47.569s-1.203-1.181-1.805-.099c0 0-.2.493.1 1.084.301.59-.3.787-1.103.59-.802-.197-1.002.394-1.002.788M44.687 50.424s.3.59-.401.984M49.4 49.833s-1.605.296-.903 1.772c.702 1.477-.902 2.067-1.303 1.181M47.093 50.62s-1.403.198-1.002 1.477c.401 1.28.2 1.575-.702 1.97-.903.393-1.203 1.082-.702 1.77M45.188 51.802s-.301.788-1.303.985c-1.003.197-.602 1.377-.602 1.377M43.885 54.361s-.903 1.378.2 1.97M42.882 57.511s-1.705.296-1.705 1.674 1.204 1.181 1.103 1.87c-.1.69-.602.886-1.103.295M46.285 57.103c.843-.432 1.98-.311 1.98-.311 1.434.072 2.876 1.44 2.876 1.44s-.542-.213-1.517.04c-.974.253-2.424.083-3.093-.909 0 0-.198.031-.281.145l.395-.063" mask="url(#f2rfmath1b)"/>
                    <path stroke="#D1A448" stroke-linecap="round" stroke-linejoin="round" stroke-width="1.875" d="M50.68 57.245s-1.442-1.368-2.63-1.181c0 0-1.006.059-1.85.49M51.202 55.529s-1-1.054-2.458-1.193c-1.458-.138-2.199-.088-3.131.663 0 0 .678-.655 1.442-.942 0 0 1.771-.552 3.841.843 0 0 .914.686.306.629zM49.118 57.057s-.218.753-1.012.603c-.794-.15-.609-.836-.609-.836M46.513 57.002s-.343.02-.49-.256c0 0 .412.167 1.121.089M46.783 57.665l-.272.2s.217-.234.421-.067M47.042 57.881l-.286.244s.275-.2.435-.147M50.43 58.102s.225.013.207-.285M52.609 62.433s-.1.69.2.59M44.979 57.692s-1.689-.208-1.487 1.01c0 0 .15.51.756.794.607.286.255.803-.5 1.131-.758.328-.547.915-.3 1.226M60.713 62.2s1.695-.143 1.239-1.292c0 0-.255-.467-.909-.622-.654-.154-.42-.733.25-1.208.67-.476.338-1.007.032-1.26M60.669 55.306s-.301 1.97 1.203 1.379" mask="url(#f2rfmath1b)"/>
                    <path stroke="#FFF" stroke-linecap="round" stroke-linejoin="round" stroke-width="1.875" d="M76.692 143.358L74.247 143.358 72.413 145.308 76.845 150.41 75.08 145.308zM72.413 145.308L76.845 145.308" mask="url(#f2rfmath1b)"/>
                    <path stroke="#FFF" stroke-linecap="round" stroke-linejoin="round" stroke-width="1.875" d="M76.82 143.358L79.265 143.358 81.099 145.308 76.667 150.41 78.432 145.308zM81.099 145.308L76.667 145.308M73.829 143.802L74.66 143.802M73.315 144.333L74.1 144.333M72.873 144.863L74.474 144.863M72.96 145.786L73.745 145.786M73.328 146.306L74.287 146.306M73.766 146.85L74.287 146.85M74.25 147.319L75.035 147.319M74.623 147.869L75.22 147.869M75.061 148.362L75.406 148.362M75.488 148.768L75.779 148.768" mask="url(#f2rfmath1b)"/>
                    <path fill="#000" d="M69.99 156.58c0 3.69 3.048 6.682 6.806 6.682 3.76 0 6.808-2.991 6.808-6.682 0-3.69-3.048-6.682-6.808-6.682-3.758 0-6.806 2.992-6.806 6.682" mask="url(#f2rfmath1b)"/>
                    <path stroke="#D1A448" stroke-linecap="round" stroke-linejoin="round" stroke-width="1.875" d="M69.99 156.58c0 3.69 3.048 6.682 6.806 6.682 3.76 0 6.808-2.991 6.808-6.682 0-3.69-3.048-6.682-6.808-6.682-3.758 0-6.806 2.992-6.806 6.682z" mask="url(#f2rfmath1b)"/>
                    <path stroke="#D1A448" stroke-linecap="round" stroke-linejoin="round" stroke-width="1.875" d="M71.725 156.58c0 2.75 2.27 4.979 5.072 4.979 2.801 0 5.071-2.229 5.071-4.979s-2.27-4.979-5.071-4.979c-2.801 0-5.072 2.23-5.072 4.979zM72.892 151.978c-1.039.837-1.78 2.017-2.043 3.364" mask="url(#f2rfmath1b)"/>
                    <path stroke="#FFF" stroke-linecap="round" stroke-linejoin="round" stroke-width="1.875" d="M142.825 147.989s.022-.675 0-1.125c-.022-.45 0-1.012 0-1.012s.18-.093.406-.28c.226-.188 2.72-2.353 2.72-2.353l1.445-1.124s.204-.225.294-.338c.09-.112.542-.168.542-.131 0 .037-.407.225-.451.281 0 0 .474-.075.564-.13.09-.057 1.445-.414 2.596-.507 0 0 1.874-.225 2.213-.131.338.093 1.4.28 1.715.468 0 0 .588.263.79.394.204.131.61.374.655.487 0 0-.429-.262-.948-.225-.52.038-.632.281-.632.375 0 .094.135.412.429.675.294.262.497.58.497.73 0 0-.249-.28-.474-.28-.226 0-.588.056-1.107.318-.52.263-.813 1.125-.813 1.33 0 .207.046.488.204.77 0 0-.565-.863-1.558-.732-.994.131-1.061 1.312-1.039 1.425.023.112.113.506.068.656-.045.15-.023-.375-.27-.75-.25-.375-.633-.693-1.107-.73-.474-.038-.948.393-1.174.655-.226.263-.158.637-.18.75-.023.112-.114.225-.114.225s.09-.244-.022-.656c-.113-.412-.723-.731-1.31-.787-.587-.057-1.49.112-2.302.43-.813.32-1.039.657-1.039.657l-.61.712" mask="url(#f2rfmath1b)"/>
                    <path stroke="#FFF" stroke-linecap="round" stroke-linejoin="round" stroke-width="1.875" d="M142.994 147.642c.068-.262 0-.955 0-1.274 0-.319-.045-.45-.045-.45s4.019-3.28 4.65-3.786c0 0 .475-.188.926-.281 0 0 1.242-.412 2.371-.45 0 0 1.603-.187 2.19-.131.587.056 1.878.393 2.812 1.05M147.758 142.057L148.119 147.061" mask="url(#f2rfmath1b)"/>
                    <path stroke="#FFF" stroke-linecap="round" stroke-linejoin="round" stroke-width="1.875" d="M148.29 142.082c.552-.053 1.48-.118 2.11-.044 0 0 2.454.039 4.997 1.79M148.209 147.08L147.849 142.437M147.893 142.413s1.965 1.691 2.63 4.172" mask="url(#f2rfmath1b)"/>
                    <path stroke="#FFF" stroke-linecap="round" stroke-linejoin="round" stroke-width="1.875" d="M148.119 142.005s2.054-.267 3.296-.004c1.242.262 3.41.982 4.053 1.644M147.893 142.223s.768.621 1.265 1.259c.496.637 1.578 2.472 1.692 3.344M147.983 142.188s3.542 1 5.191 3.668" mask="url(#f2rfmath1b)"/>
                    <path stroke="#FFF" stroke-linecap="round" stroke-linejoin="round" stroke-width="1.875" d="M148.227 142.088s2.669.981 3.572 1.956c0 0 1.317 1.157 1.493 1.646" mask="url(#f2rfmath1b)"/>
                    <path stroke="#D1A448" stroke-linecap="round" stroke-linejoin="round" stroke-width="1.875" d="M154.656 154.423c.704 11.813-3.945 20.723-11.496 20.99-7.464.263-12.388-8.704-11.778-20.839M140.777 175.058L140.822 181.709M145.399 175.028L145.444 181.679M143.242 182.332c-1.406.009-2.11-.124-2.676-.535 0 0-.698.695.01 1.38 0 0 .846.409 2.393.399M140.861 183.848l.04 5.798s.567.687 2.395.675c1.828-.012 2.245-.705 2.245-.705l-.039-5.798M141.93 175.558L141.974 182.046M141.986 183.841L142.027 189.915M143.62 175.824L143.66 181.759M143.677 184.244L143.695 186.867M143.699 187.557L143.715 189.904M145.026 175.814L145.061 180.922M145.083 184.235L145.119 189.619" mask="url(#f2rfmath1b)"/>
                    <path stroke="#D1A448" stroke-linecap="round" stroke-linejoin="round" stroke-width="1.875" d="M142.971 182.334c1.406-.01 2.109-.152 2.668-.57 0 0 .708.686.01 1.38 0 0-.84.42-2.388.43M154.586 154.492c.008 1.296-5.147 2.38-11.516 2.422-6.368.042-11.538-.976-11.547-2.272-.009-1.295 5.147-2.38 11.515-2.421 6.37-.042 11.539.975 11.548 2.271zM140.515 188.645c-1.506.145-4.744.535-6.545 1.341 0 0-2.176 1.272 2.631 2.163M145.723 188.535c1.506.144 4.744.53 6.546 1.335 0 0 2.176 1.27-2.631 2.165M137.468 192.178s5.63.792 11.681-.076" mask="url(#f2rfmath1b)"/>
                    <path stroke="#D1A448" stroke-linecap="round" stroke-linejoin="round" stroke-width="1.875" d="M133.476 190.34s-.92.49-.483 1.315c.439.826 3.907 1.77 8.377 1.74M144.891 193.376c4.471-.03 7.926-1.018 8.353-1.85.427-.83-.5-1.307-.5-1.307M141.803 193.392s1.629.048 2.74-.018M154.525 156.548c.009 1.296-5.147 2.38-11.515 2.422-6.369.041-11.539-.976-11.547-2.272M143.083 171.319s-.226-1.78.838-3.013c0 0 .82-1.096 2.18-1.54 0 0-.087 1.797-.732 2.636 0 0-.454.89-2.286 1.917z" mask="url(#f2rfmath1b)"/>
                    <path stroke="#D1A448" stroke-linecap="round" stroke-linejoin="round" stroke-width="1.875" d="M143.188 171.293s.202-1.783-.879-3.002c0 0-.834-1.085-2.2-1.512 0 0 .111 1.796.768 2.627 0 0 .465.884 2.311 1.887zM143.168 171.375s.692-1.661 2.235-2.223c0 0 1.262-.56 2.67-.294 0 0-.974 1.525-1.956 1.945 0 0-.84.558-2.95.572z" mask="url(#f2rfmath1b)"/>
                    <path stroke="#D1A448" stroke-linecap="round" stroke-linejoin="round" stroke-width="1.875" d="M143.166 171.375s-.714-1.652-2.265-2.194c0 0-1.269-.544-2.673-.259 0 0 .994 1.512 1.982 1.92 0 0 .847.546 2.956.533z" mask="url(#f2rfmath1b)"/>
                    <path stroke="#D1A448" stroke-linecap="round" stroke-linejoin="round" stroke-width="1.875" d="M143.18 171.275s-1.142-1.401-.893-2.998c0 0 .115-1.355 1.038-2.433 0 0 .883 1.577.78 2.623 0 0 .088.992-.926 2.808zM132.734 162.399s1.14 6.392 4.358 9.568M132.552 161.262s-.146-.827-.15-1.517M132.698 161.951L132.697 161.813" mask="url(#f2rfmath1b)"/>
                    <path stroke="#44E7D9" stroke-linecap="round" stroke-linejoin="round" stroke-width="1.875" d="M146.055 156.616s-1.47-.09-1.129-.59c.343-.5-.003-.498-.695-.494-.692.004-1.815.21-.949.404 0 0 .736.232.524.729M132.826 155.558s4.383-2.153 8.103-2.078M141.623 153.475L143.223 153.465M143.752 153.462s6.462-.054 9.571 1.875" mask="url(#f2rfmath1b)"/>
                    <path stroke="#44E7D9" stroke-linecap="round" stroke-linejoin="round" stroke-width="1.875" d="M139.627 156.646s.325-.638-.799-.431c-1.123.206-1.174-.84.385-.65 1.559.189 3.289.078 3.025-.518-.264-.597-1.903.012-1.82-.487.083-.499 1.468-.408 2.246-.413.78-.005 1.9-.51 3.028-.02 1.128.491-1.208.407-.426.9.782.493 2.333-.414 2.768-.118.434.296-.601.702-.772 1.002-.171.3.886.437.886.437" mask="url(#f2rfmath1b)"/>
                    <path stroke="#FFF" stroke-linecap="round" stroke-linejoin="round" stroke-width="1.875" d="M143.024 147.925s-.023-.675 0-1.125c.022-.45 0-1.012 0-1.012s-.18-.094-.407-.28c-.225-.188-2.72-2.353-2.72-2.353l-1.445-1.125s-.203-.224-.293-.337c-.09-.113-.542-.169-.542-.131 0 .037.406.225.451.281 0 0-.474-.075-.564-.131-.09-.056-1.445-.413-2.596-.506 0 0-1.874-.225-2.213-.131-.338.093-1.4.28-1.716.468 0 0-.587.263-.79.394-.203.131-.61.374-.655.487 0 0 .43-.263.949-.225.519.038.632.281.632.375 0 .094-.136.412-.43.675-.293.262-.496.58-.496.73 0 0 .249-.28.474-.28.226 0 .587.056 1.106.318.52.263.813 1.125.813 1.33 0 .207-.045.488-.203.77 0 0 .564-.863 1.558-.732.993.131 1.06 1.312 1.038 1.425-.022.112-.112.506-.067.655.045.15.022-.374.27-.75.25-.374.633-.692 1.107-.73.474-.038.948.394 1.174.656.226.262.158.637.18.75.023.112.113.224.113.224s-.09-.243.023-.655c.113-.413.722-.731 1.31-.788.586-.056 1.49.113 2.302.431.813.32 1.038.656 1.038.656l.61.713" mask="url(#f2rfmath1b)"/>
                    <path stroke="#FFF" stroke-linecap="round" stroke-linejoin="round" stroke-width="1.875" d="M142.854 147.578c-.067-.262 0-.956 0-1.274 0-.319.046-.45.046-.45s-4.02-3.28-4.651-3.786c0 0-.474-.188-.926-.281 0 0-1.241-.412-2.37-.45 0 0-1.603-.188-2.19-.131-.587.056-1.878.393-2.813 1.049M138.091 141.993L137.73 146.997" mask="url(#f2rfmath1b)"/>
                    <path stroke="#FFF" stroke-linecap="round" stroke-linejoin="round" stroke-width="1.875" d="M137.56 142.018c-.553-.053-1.481-.118-2.11-.044 0 0-2.455.038-4.998 1.79M137.639 147.016L137.999 142.373M137.956 142.349s-1.966 1.691-2.631 4.172" mask="url(#f2rfmath1b)"/>
                    <path stroke="#FFF" stroke-linecap="round" stroke-linejoin="round" stroke-width="1.875" d="M137.73 141.94s-2.055-.266-3.296-.003c-1.242.262-3.41.982-4.053 1.643M137.956 142.159s-.768.621-1.265 1.258c-.497.638-1.579 2.473-1.692 3.345M137.865 142.124s-3.54 1-5.19 3.668" mask="url(#f2rfmath1b)"/>
                    <path stroke="#FFF" stroke-linecap="round" stroke-linejoin="round" stroke-width="1.875" d="M137.622 142.024s-2.669.98-3.572 1.956c0 0-1.317 1.156-1.494 1.646" mask="url(#f2rfmath1b)"/>
                </g>
            </g>
        </g>
    </g>
</svg>
