<svg xmlns="http://www.w3.org/2000/svg" width="191" height="267" viewBox="0 0 191 267"><title>Восьмёрка Жезлов</title>
    <g fill="none" fill-rule="evenodd">
        <g>
            <g>
                <path fill="#2a1612" stroke="#FFF" stroke-linecap="round" stroke-linejoin="round" stroke-width="2.5" d="M177.795 263.26H9.62c-5.22 0-9.452-4.194-9.452-9.366V9.407C.169 4.234 4.4.042 9.62.042h168.174c5.22 0 9.452 4.192 9.452 9.365v244.487c0 5.172-4.231 9.365-9.452 9.365z" transform="translate(-1074 -4616) translate(1076 4618)"/>
                <path fill="#44E7D9" fill-rule="nonzero" d="M61.753 251.625v-.731h-3.67v-4.352h3.2v-.731h-3.2v-4.271h3.67v-.73h-4.482v10.815h4.482zm2.68 0v-10.816h-.812v10.816h.812zm4.928.08c.85 0 1.632-.21 2.347-.633v-4.628h-.812v4.141c-.368.26-.937.39-1.705.39-1.115 0-1.673-.487-1.673-1.462v-6.495c0-1.029.644-1.543 1.933-1.543.67 0 1.326.103 1.965.308v-.795c-.607-.173-1.235-.26-1.884-.26-1.884 0-2.826.763-2.826 2.29v6.495c0 .77.23 1.327.69 1.673.46.347 1.115.52 1.965.52zm5.514-.08v-4.937h3.8v4.937h.828v-10.816h-.828v5.148h-3.8v-5.148h-.812v10.816h.812zm8.964 0V241.54h2.143v-.73h-5.099v.73h2.144v10.085h.812zm9.029.162c.855 0 1.5-.23 1.932-.69.433-.46.65-1.058.65-1.795v-6.17c0-.737-.217-1.335-.65-1.795-.433-.46-1.077-.69-1.932-.69s-1.5.23-1.933.69c-.433.46-.65 1.058-.65 1.794v6.171c0 .737.217 1.335.65 1.795.433.46 1.078.69 1.933.69zm0-.73c-1.18 0-1.77-.585-1.77-1.755v-6.17c0-1.17.59-1.754 1.77-1.754 1.18 0 1.77.584 1.77 1.753v6.171c0 1.17-.59 1.754-1.77 1.754zm5.667.568v-4.921h3.378v-.73h-3.378v-4.434h3.524v-.73h-4.336v10.815h.812zm8.965 0v-4.921h3.377v-.73H107.5v-4.434h3.524v-.73h-4.336v10.815h.812zm5.878 0v-10.816h-.812v10.816h.812zm3.248 0v-4.466h1.575c.174 0 .304-.006.39-.016l1.608 4.482h.893l-1.705-4.661c.931-.347 1.397-1.094 1.397-2.241v-1.478c0-.736-.217-1.326-.65-1.77-.433-.444-1.077-.666-1.933-.666h-2.387v10.816h.812zm1.575-5.23h-1.575v-4.855h1.575c1.18 0 1.77.568 1.77 1.705v1.478c0 1.115-.59 1.672-1.77 1.672zm9.403 5.23v-.731h-3.67v-4.352h3.2v-.731h-3.2v-4.271h3.67v-.73h-4.482v10.815h4.482z" transform="translate(-1074 -4616) translate(1076 4618)"/>
                <g>
                    <path stroke="#FFF" stroke-linecap="round" stroke-linejoin="round" stroke-width="1.875" d="M99.922 3.838L164.033 3.838 164.033 224.928M15.929 3.838L68.24 3.838M153.964 237.774L126.295 237.774M5.536 14.688L5.536 237.774 41.378 237.774" transform="translate(-1074 -4616) translate(1076 4618) translate(8.108 10.904)"/>
                    <path fill="#000" d="M5.263 0.025L7.885 4.525 10.508 9.025 5.263 9.025 0.018 9.025 2.641 4.525z" transform="translate(-1074 -4616) translate(1076 4618) translate(8.108 10.904)"/>
                    <path stroke="#D1A448" stroke-linecap="round" stroke-linejoin="round" stroke-width="1.875" d="M5.263 0.025L7.885 4.525 10.508 9.025 5.263 9.025 0.018 9.025 2.641 4.525z" transform="translate(-1074 -4616) translate(1076 4618) translate(8.108 10.904)"/>
                    <path fill="#000" d="M164.198 242.27L161.575 237.771 158.953 233.27 164.198 233.27 169.442 233.27 166.82 237.771z" transform="translate(-1074 -4616) translate(1076 4618) translate(8.108 10.904)"/>
                    <path stroke="#D1A448" stroke-linecap="round" stroke-linejoin="round" stroke-width="1.875" d="M164.198 242.27L161.575 237.771 158.953 233.27 164.198 233.27 169.442 233.27 166.82 237.771z" transform="translate(-1074 -4616) translate(1076 4618) translate(8.108 10.904)"/>
                </g>
                <path fill="#44E7D9" fill-rule="nonzero" d="M87.865 18.161l2.436-10.816h-.844c-1.267 5.717-1.992 9.035-2.176 9.955-.152-.736-.877-4.054-2.177-9.955h-.844l2.436 10.816h1.17zm4.71 0V7.345h-.812v10.816h.812zm3.247 0V7.345h-.812v10.816h.812zm3.248 0V7.345h-.812v10.816h.812z" transform="translate(-1074 -4616) translate(1076 4618)"/>
                <g stroke-linecap="round" stroke-linejoin="round" stroke-width="1.875">
                    <path stroke="#FFF" d="M120.325 72.889c-.465.848-2.293-.272-2.293-.272C62.871 43.76 18.038 16.614 18.038 16.614s-1.534-3.71 2.413-4.059" transform="translate(-1074 -4616) translate(1076 4618) translate(19.257 33.664)"/>
                    <path stroke="#FFF" d="M120.29 72.93c.559-.794-1.328-1.819-1.328-1.819-52.41-33.275-98.388-58.582-98.388-58.582s-4.122.444-2.583 3.96M102.795 64.56s-3.41-2.384-3.116-5.525M93.776 59.698s-5.529-4.502-6.162-8.06M88.48 56.82s-5.108-4.032-5.305-7.875M78.238 51.196s-3.862-3.494-3.447-7.297M74.792 49.287s-3.71-3.197-3.271-7.343M62.734 42.543s-4.591-4.01-3.889-8.129M54.864 38.088s-3.75-3.223-4.289-8.478M51.46 36.147s-3.31-3.61-3.063-7.802M44.339 32.062s-5.3-3.532-5.804-9.4M36.089 27.308s-2.886-1.851-5.286-9.047M38.808 28.863s-4.18-4.105-4.886-8.832M28.345 22.746s-4.114-2.023-4.957-8.702M113.247 108.561c-.465.848-2.292-.272-2.292-.272C55.793 79.432 10.96 52.286 10.96 52.286s-1.534-3.71 2.412-4.059" transform="translate(-1074 -4616) translate(1076 4618) translate(19.257 33.664)"/>
                    <path stroke="#FFF" d="M113.213 108.602c.558-.794-1.328-1.819-1.328-1.819-52.41-33.275-98.389-58.582-98.389-58.582s-4.121.444-2.583 3.96M95.718 100.233s-3.41-2.385-3.117-5.526M86.698 95.37s-5.529-4.501-6.162-8.06M81.403 92.492s-5.109-4.032-5.305-7.875M71.16 86.868s-3.862-3.494-3.446-7.297M67.715 84.959s-3.71-3.197-3.272-7.342M55.656 78.215s-4.591-4.01-3.888-8.129M47.787 73.76s-3.751-3.223-4.29-8.478M44.382 71.82s-3.309-3.612-3.062-7.803M37.261 67.734s-5.3-3.532-5.804-9.4M29.011 62.98s-2.885-1.85-5.285-9.047M31.73 64.535s-4.179-4.105-4.885-8.832M21.267 58.418s-4.113-2.023-4.956-8.702M125.828 141.412c-.465.848-2.292-.272-2.292-.272C68.374 112.282 23.54 85.137 23.54 85.137s-1.534-3.71 2.413-4.06" transform="translate(-1074 -4616) translate(1076 4618) translate(19.257 33.664)"/>
                    <path stroke="#FFF" d="M125.793 141.453c.559-.795-1.328-1.82-1.328-1.82-52.409-33.274-98.388-58.58-98.388-58.58s-4.122.442-2.583 3.959M108.298 133.083s-3.41-2.384-3.116-5.525M99.279 128.221s-5.529-4.502-6.162-8.06M93.984 125.342s-5.11-4.031-5.306-7.874M83.741 119.718s-3.862-3.493-3.446-7.296M80.295 117.81s-3.71-3.197-3.27-7.343M68.237 111.066s-4.591-4.011-3.889-8.129M60.367 106.61s-3.75-3.222-4.29-8.478M56.963 104.67s-3.31-3.611-3.063-7.802M49.842 100.585s-5.3-3.533-5.804-9.4M41.592 95.83s-2.885-1.85-5.286-9.046M44.31 97.385s-4.178-4.104-4.885-8.831M33.848 91.269s-4.114-2.023-4.957-8.703M102.855 144.09c-.465.848-2.292-.273-2.292-.273C45.4 114.96.568 87.814.568 87.814s-1.534-3.71 2.413-4.058" transform="translate(-1074 -4616) translate(1076 4618) translate(19.257 33.664)"/>
                    <path stroke="#FFF" d="M102.82 144.13c.559-.794-1.328-1.819-1.328-1.819-52.409-33.275-98.388-58.58-98.388-58.58s-4.122.442-2.583 3.959M85.325 135.76s-3.41-2.383-3.116-5.525M76.306 130.899s-5.529-4.502-6.162-8.06M71.01 128.02s-5.108-4.031-5.305-7.874M60.768 122.396s-3.862-3.493-3.446-7.296M57.322 120.487s-3.71-3.196-3.27-7.342M45.264 113.743s-4.591-4.01-3.889-8.128M37.394 109.288s-3.75-3.223-4.29-8.478M33.99 107.348s-3.31-3.611-3.063-7.802M26.869 103.262s-5.3-3.532-5.804-9.399M18.619 98.508s-2.885-1.85-5.286-9.046M21.338 100.063s-4.179-4.104-4.886-8.832M10.875 93.947s-4.114-2.023-4.957-8.703M141.05 106.122c-.464.848-2.291-.272-2.291-.272-55.162-28.858-99.995-56.003-99.995-56.003s-1.534-3.71 2.413-4.06" transform="translate(-1074 -4616) translate(1076 4618) translate(19.257 33.664)"/>
                    <path stroke="#FFF" d="M141.016 106.163c.559-.795-1.328-1.82-1.328-1.82C87.28 71.07 41.3 45.764 41.3 45.764s-4.122.442-2.584 3.959M123.521 97.793s-3.41-2.384-3.116-5.525M114.502 92.931s-5.53-4.502-6.163-8.06M109.206 90.053s-5.108-4.032-5.305-7.875M98.964 84.428s-3.862-3.493-3.447-7.296M95.518 82.52s-3.71-3.197-3.271-7.343M83.46 75.776s-4.591-4.011-3.889-8.129M75.59 71.32s-3.75-3.222-4.29-8.478M72.186 69.38s-3.31-3.611-3.063-7.802M65.065 65.295s-5.3-3.532-5.804-9.4M56.815 60.54s-2.885-1.85-5.286-9.046M59.534 62.096s-4.179-4.105-4.886-8.832M49.07 55.979s-4.113-2.023-4.956-8.703M123.82 176.076c-.464.848-2.291-.272-2.291-.272-55.161-28.858-99.995-56.003-99.995-56.003s-1.534-3.71 2.413-4.059" transform="translate(-1074 -4616) translate(1076 4618) translate(19.257 33.664)"/>
                    <path stroke="#FFF" d="M123.786 176.117c.559-.794-1.328-1.819-1.328-1.819-52.409-33.275-98.388-58.581-98.388-58.581s-4.121.443-2.583 3.96M106.291 167.747s-3.409-2.384-3.116-5.525M97.272 162.885s-5.529-4.502-6.162-8.06M91.977 160.007s-5.11-4.032-5.306-7.875M81.734 154.383s-3.862-3.494-3.446-7.297M78.288 152.474s-3.71-3.196-3.27-7.342M66.23 145.73s-4.591-4.01-3.889-8.129M58.36 141.275s-3.75-3.223-4.289-8.478M54.956 139.334s-3.31-3.61-3.063-7.802M47.835 135.249s-5.3-3.532-5.804-9.4M39.585 130.495s-2.885-1.85-5.286-9.047M42.304 132.05s-4.179-4.104-4.886-8.832M31.841 125.933s-4.113-2.022-4.956-8.702M147.47 67.965c-.465.848-2.292-.272-2.292-.272C90.016 38.835 45.183 11.69 45.183 11.69s-1.534-3.71 2.413-4.06" transform="translate(-1074 -4616) translate(1076 4618) translate(19.257 33.664)"/>
                    <path stroke="#FFF" d="M147.435 68.006c.558-.795-1.328-1.82-1.328-1.82-52.41-33.274-98.388-58.58-98.388-58.58s-4.122.442-2.584 3.96M129.94 59.636s-3.41-2.384-3.116-5.525M120.92 54.774s-5.528-4.502-6.162-8.06M115.625 51.896s-5.108-4.032-5.305-7.875M105.383 46.271s-3.863-3.493-3.447-7.296M101.937 44.363s-3.71-3.197-3.271-7.342M89.879 37.619s-4.591-4.01-3.889-8.129M82.01 33.164s-3.752-3.223-4.29-8.478M78.605 31.223s-3.31-3.611-3.063-7.802M71.484 27.138s-5.3-3.532-5.805-9.4M63.234 22.383s-2.886-1.85-5.286-9.046M65.953 23.939s-4.18-4.105-4.886-8.832M55.49 17.822s-4.114-2.023-4.957-8.702M109.97 190.468c-.465.849-2.292-.271-2.292-.271-55.162-28.858-99.995-56.004-99.995-56.004s-1.534-3.71 2.413-4.058" transform="translate(-1074 -4616) translate(1076 4618) translate(19.257 33.664)"/>
                    <path stroke="#FFF" d="M109.935 190.51c.558-.795-1.328-1.82-1.328-1.82-52.41-33.274-98.388-58.58-98.388-58.58s-4.122.442-2.584 3.959M92.44 182.14s-3.41-2.384-3.116-5.525M83.42 177.278s-5.528-4.502-6.162-8.06M78.125 174.4s-5.108-4.032-5.305-7.875M67.883 168.775s-3.863-3.493-3.447-7.296M64.437 166.867s-3.71-3.197-3.271-7.343M52.379 160.123s-4.591-4.011-3.889-8.13M44.51 155.667s-3.752-3.222-4.29-8.478M41.105 153.727s-3.31-3.611-3.063-7.802M33.984 149.641s-5.3-3.531-5.805-9.399M25.734 144.887s-2.886-1.85-5.286-9.046M28.453 146.443s-4.18-4.105-4.886-8.833M17.99 140.326s-4.114-2.023-4.957-8.703" transform="translate(-1074 -4616) translate(1076 4618) translate(19.257 33.664)"/>
                    <path stroke="#D1A448" d="M119.945 27.892s-5.664-.702-3.068-7.015c0 0 .472-.936 2.36-3.742 1.889-2.806 1.652-4.677 1.652-4.677s4.485 5.378 4.249 10.29c-.236 4.91-3.068 4.91-5.193 5.144z" transform="translate(-1074 -4616) translate(1076 4618) translate(19.257 33.664)"/>
                    <path stroke="#D1A448" d="M119.48 27.76s-2.838-.807-1.003-4.696c0 0 .317-.571 1.508-2.254 1.191-1.682 1.221-2.897 1.221-2.897s1.859 3.734 1.342 6.871c-.516 3.138-1.963 2.96-3.068 2.976z" transform="translate(-1074 -4616) translate(1076 4618) translate(19.257 33.664)"/>
                    <path stroke="#D1A448" d="M119.473 27.892s-7.317-.936-7.08-10.056c0 0 .472-4.443 3.776-8.184 0 0-.944 2.806-.944 4.443 0 0 2.36-3.508 3.54-7.25 1.18-3.74.236-6.547.236-6.547s8.497 6.781 8.97 17.07c-.023.043-.115 5.833-3.541 9.355 0 0-2.597 1.87-4.957 1.169zM29.534 171.827s5.664.702 3.068 7.015c0 0-.472.936-2.36 3.742-1.889 2.806-1.653 4.676-1.653 4.676s-4.484-5.378-4.248-10.288c.236-4.911 3.068-4.911 5.193-5.145z" transform="translate(-1074 -4616) translate(1076 4618) translate(19.257 33.664)"/>
                    <path stroke="#D1A448" d="M29.999 171.96s2.838.806 1.003 4.695c0 0-.317.57-1.508 2.253-1.191 1.682-1.221 2.898-1.221 2.898s-1.859-3.735-1.342-6.872c.516-3.137 1.964-2.959 3.068-2.975z" transform="translate(-1074 -4616) translate(1076 4618) translate(19.257 33.664)"/>
                    <path stroke="#D1A448" d="M30.006 171.827s7.316.936 7.08 10.055c0 0-.472 4.443-3.776 8.185 0 0 .944-2.807.944-4.443 0 0-2.36 3.507-3.54 7.249-1.18 3.742-.236 6.547-.236 6.547s-8.497-6.78-8.97-17.07c.023-.043.114-5.832 3.541-9.354 0 0 2.596-1.87 4.957-1.169z" transform="translate(-1074 -4616) translate(1076 4618) translate(19.257 33.664)"/>
                </g>
            </g>
        </g>
    </g>
</svg>
