<svg xmlns="http://www.w3.org/2000/svg" width="191" height="267" viewBox="0 0 191 267"><title>Королева Кубков</title>
    <g fill="none" fill-rule="evenodd">
        <g>
            <g>
                <g stroke-linecap="round" stroke-linejoin="round">
                    <path fill="#152230" stroke="#FFF" stroke-width="2.5" d="M177.795 263.217H9.621c-5.22 0-9.452-4.192-9.452-9.364V9.365C.169 4.193 4.401 0 9.621 0h168.174c5.22 0 9.452 4.193 9.452 9.365v244.488c0 5.172-4.232 9.364-9.452 9.364z" transform="translate(-188 -2241) translate(190 2243) translate(0 .167)"/>
                    <path stroke="#44E7D9" stroke-width="1.875" d="M96.834 59.902S86.548 59.68 83.25 68.54c-3.094 8.31 3.586 12.742 3.349 12.845" transform="translate(-188 -2241) translate(190 2243) translate(0 .167)"/>
                    <path stroke="#D1A448" stroke-width="1.875" d="M97.442 80.592c-.608-1.205-4.46-7.03-8.312-5.825-3.853 1.205-2.734 6.617-2.734 6.617s-5.788-5.483-9.837-4.207c-4.46 1.407-1.387 6.343-1.387 6.343-.166-.266-5.337-5.85-1.046-8.351 0 0 4.012-2.675 10.015 3.382" transform="translate(-188 -2241) translate(190 2243) translate(0 .167)"/>
                    <path stroke="#FBAE17" stroke-width="1.875" d="M86.503 81.264c-.66.019-3.563-9.885 3.438-9.31 6.092.502 7.704 8.638 7.704 8.638-4.866-12.856 0-20.49 0-20.49v-2.209s-4.258-3.013-3.65-4.82c.609-1.809 3.244-1.607 4.258 0" transform="translate(-188 -2241) translate(190 2243) translate(0 .167)"/>
                    <path stroke="#44E7D9" stroke-width="1.875" d="M76.56 59.3s-5.273 1.589-6.692 8.939" transform="translate(-188 -2241) translate(190 2243) translate(0 .167)"/>
                    <path stroke="#D1A448" stroke-width="1.875" d="M98.253 57.29s-3.446-2.41-2.23-3.414c1.216-1.004 2.23 1.004 2.23 1.004M110.004 81.342c.66.019 3.562-9.885-3.438-9.31-6.092.502-7.704 8.638-7.704 8.638 4.866-12.856 0-20.49 0-20.49v-2.208s4.257-3.014 3.65-4.822c-.61-1.807-3.245-1.606-4.259 0" transform="translate(-188 -2241) translate(190 2243) translate(0 .167)"/>
                    <path stroke="#D1A448" stroke-width="1.875" d="M98.253 57.369s3.447-2.41 2.23-3.415c-1.216-1.004-2.23 1.004-2.23 1.004" transform="translate(-188 -2241) translate(190 2243) translate(0 .167)"/>
                    <path stroke="#44E7D9" stroke-width="1.875" d="M120.098 84.052s11.557-6.227 6.488-19.887c-5.068-13.66-24.938-6.026-27.37-4.218 0 0 10.285-.222 13.584 8.637 3.093 8.31-3.587 12.743-3.35 12.845" transform="translate(-188 -2241) translate(190 2243) translate(0 .167)"/>
                    <path stroke="#D1A448" stroke-width="1.875" d="M111.908 78.596c6.003-6.058 10.015-3.383 10.015-3.383 4.291 2.5-.88 8.086-1.046 8.351 0 0 3.074-4.936-1.387-6.342-4.049-1.276-9.837 4.207-9.837 4.207s1.119-5.412-2.733-6.618c-3.853-1.205-7.097 4.62-7.705 5.826l-1.773-.045c-13.584-.602-23.113 5.022-23.113 5.022.608 2.41 2.027 2.21 2.027 2.21s5.326-5.154 20.478-5.022l2.381.044c14.755.135 20.883 4.822 20.883 4.822s1.014.401 1.623-2.01c0 0-9.53-5.624-23.114-5.021" transform="translate(-188 -2241) translate(190 2243) translate(0 .167)"/>
                    <path stroke="#44E7D9" stroke-width="1.875" d="M86.396 81.384s-10.85-15.456 10.438-21.683M109.767 81.672s10.85-15.456-10.438-21.683" transform="translate(-188 -2241) translate(190 2243) translate(0 .167)"/>
                    <path stroke="#D1A448" stroke-width="1.875" d="M97.645 59.902s.608.402 1.217 0" transform="translate(-188 -2241) translate(190 2243) translate(0 .167)"/>
                    <path stroke="#FFF" stroke-width="1.875" d="M77.776 78.985L77.573 80.793 78.992 82.199 79.195 80.191zM90.137 76.582L89.558 78.308 90.65 79.977 91.271 78.055zM118.208 78.918L118.411 80.725 116.992 82.132 116.789 80.123zM105.846 76.515L106.426 78.241 105.334 79.91 104.713 77.987z" transform="translate(-188 -2241) translate(190 2243) translate(0 .167)"/>
                    <path stroke="#D1A448" stroke-width="1.875" d="M74.563 86.133s1.185-.72 1.59-.92M74.563 86.133s1.185-.72 1.59-.92M74.817 86.571s.844-.512 1.133-.656M74.974 87.225s1.184-.72 1.59-.92M75.463 87.465s.844-.512 1.133-.656" transform="translate(-188 -2241) translate(190 2243) translate(0 .167)"/>
                    <path stroke="#44E7D9" stroke-width="1.875" d="M76.024 84.043s-11.557-6.227-6.488-19.886c5.068-13.66 24.938-6.026 27.37-4.219" transform="translate(-188 -2241) translate(190 2243) translate(0 .167)"/>
                </g>
                <path fill="#D1A448" fill-rule="nonzero" d="M55.327 253.288l-1.721-1.933c.67-.433 1.006-1.126 1.006-2.078v-6.171c0-.737-.216-1.335-.65-1.795-.432-.46-1.076-.69-1.932-.69-.855 0-1.5.23-1.932.69-.433.46-.65 1.058-.65 1.795v6.17c0 .737.217 1.335.65 1.795.433.46 1.077.69 1.932.69.27 0 .542-.027.812-.08l1.43 1.607h1.055zm-3.297-2.257c-1.18 0-1.77-.585-1.77-1.754v-6.171c0-1.17.59-1.754 1.77-1.754 1.18 0 1.77.584 1.77 1.754v6.17c0 1.17-.59 1.755-1.77 1.755zm7.357.73c.855 0 1.5-.23 1.932-.69.433-.46.65-1.058.65-1.794v-8.494h-.812v8.494c0 1.169-.59 1.754-1.77 1.754-1.18 0-1.77-.585-1.77-1.754v-8.494h-.812v8.494c0 .736.216 1.334.65 1.794.432.46 1.076.69 1.932.69zm9.419-.162v-.73h-3.67v-4.353h3.199v-.73h-3.2v-4.272h3.67v-.73h-4.481v10.815h4.482zm6.35 0v-.73h-3.67v-4.353h3.198v-.73h-3.199v-4.272h3.67v-.73h-4.482v10.815h4.482zm2.663 0v-6.139l-.031-3.13-.002-.15c.4 1.04 1.635 4.179 3.703 9.419h1.071v-10.816h-.812v6.171l.033 3.28c-.13-.346-1.364-3.496-3.703-9.45h-1.055v10.815h.796zm12.683.162c.855 0 1.499-.23 1.932-.69.433-.46.65-1.058.65-1.794v-6.171c0-.737-.217-1.335-.65-1.795-.433-.46-1.077-.69-1.932-.69-.856 0-1.5.23-1.933.69-.433.46-.65 1.058-.65 1.795v6.17c0 .737.217 1.335.65 1.795.433.46 1.077.69 1.933.69zm0-.73c-1.18 0-1.77-.585-1.77-1.754v-6.171c0-1.17.59-1.754 1.77-1.754 1.18 0 1.77.584 1.77 1.754v6.17c0 1.17-.59 1.755-1.77 1.755zm5.667.568v-4.92h3.378v-.731h-3.378v-4.434h3.524v-.73h-4.336v10.815h.812zm10.393 0l.991-5.716c.238-1.364.411-2.637.52-3.817.119 1.18.628 4.358 1.526 9.533h1.17l1.883-10.816h-.844c-.899 5.446-1.44 8.808-1.624 10.085l-.422-2.842-1.202-7.243h-.958l-1.202 7.227c-.162.953-.303 1.905-.422 2.858l-.422-2.842-1.202-7.243h-.845l1.884 10.816h1.17zm7.665 0l.731-3.167h3.086l.73 3.167h.845l-2.533-10.816h-1.17l-2.533 10.816h.844zm3.654-3.898h-2.76l1.38-5.992 1.38 5.992zm5.18 3.898v-10.085h2.144v-.73h-5.099v.73h2.144V251.6h.812zm8.007 0v-.73h-3.67v-4.353h3.199v-.73h-3.2v-4.272h3.67v-.73h-4.481v10.815h4.482zm2.68 0v-4.466h1.574c.174 0 .304-.005.39-.016l1.608 4.482h.893l-1.705-4.66c.931-.347 1.397-1.094 1.397-2.242v-1.478c0-.736-.217-1.326-.65-1.77-.433-.444-1.077-.666-1.933-.666h-2.387V251.6h.812zm1.574-5.23h-1.575v-4.855h1.575c1.18 0 1.77.569 1.77 1.705v1.478c0 1.115-.59 1.673-1.77 1.673z" transform="translate(-188 -2241) translate(190 2243)"/>
                <g>
                    <path stroke="#FFF" stroke-linecap="round" stroke-linejoin="round" stroke-width="1.875" d="M16.179 3.838L164.283 3.838 164.283 224.928M154.214 237.774L137.743 237.774M5.786 14.688L5.786 237.774 32.507 237.774" transform="translate(-188 -2241) translate(190 2243) translate(8.446 10.878)"/>
                    <path fill="#000" d="M164.444 231.681L167.067 236.181 169.689 240.682 164.444 240.682 159.2 240.682 161.822 236.181z" transform="translate(-188 -2241) translate(190 2243) translate(8.446 10.878)"/>
                    <path stroke="#44E7D9" stroke-linecap="round" stroke-linejoin="round" stroke-width="1.875" d="M164.444 231.681L167.067 236.181 169.689 240.682 164.444 240.682 159.2 240.682 161.822 236.181z" transform="translate(-188 -2241) translate(190 2243) translate(8.446 10.878)"/>
                    <path fill="#000" d="M5.573 9.025L2.95 4.525 0.328 0.025 5.573 0.025 10.817 0.025 8.195 4.525z" transform="translate(-188 -2241) translate(190 2243) translate(8.446 10.878)"/>
                    <path stroke="#44E7D9" stroke-linecap="round" stroke-linejoin="round" stroke-width="1.875" d="M5.573 9.025L2.95 4.525 0.328 0.025 5.573 0.025 10.817 0.025 8.195 4.525z" transform="translate(-188 -2241) translate(190 2243) translate(8.446 10.878)"/>
                    <path stroke="#D1A448" stroke-linecap="round" stroke-linejoin="round" stroke-width="1.875" d="M109.398 94.519c1.198 20.285-6.71 35.585-19.56 36.043-12.698.452-21.077-14.947-20.038-35.783M85.783 129.953L85.86 141.374M93.649 129.901L93.725 141.322M89.978 142.443c-2.393.016-3.59-.213-4.552-.918 0 0-1.189 1.193.015 2.37 0 0 1.441.702 4.073.685M85.928 145.048l.066 9.956s.966 1.179 4.076 1.158c3.11-.02 3.82-1.21 3.82-1.21l-.067-9.956M87.747 130.812L87.821 141.953M87.842 145.035L87.912 155.465M90.621 131.268L90.689 141.461M90.718 145.727L90.748 150.231M90.756 151.417L90.783 155.446M93.014 131.252L93.072 140.022M93.111 145.712L93.172 154.957" transform="translate(-188 -2241) translate(190 2243) translate(8.446 10.878)"/>
                    <path stroke="#D1A448" stroke-linecap="round" stroke-linejoin="round" stroke-width="1.875" d="M89.518 142.446c2.392-.015 3.587-.26 4.54-.978 0 0 1.204 1.178.015 2.37 0 0-1.43.721-4.063.739M109.279 94.638c.015 2.226-8.757 4.088-19.593 4.159-10.835.07-19.631-1.676-19.646-3.901-.015-2.226 8.756-4.088 19.592-4.159 10.836-.07 19.632 1.676 19.647 3.901zM85.338 153.285c-2.563.248-8.07.918-11.136 2.303 0 0-3.703 2.184 4.477 3.713M94.2 153.096c2.562.246 8.07.911 11.137 2.293 0 0 3.703 2.18-4.477 3.717M80.154 159.351s9.579 1.36 19.875-.13" transform="translate(-188 -2241) translate(190 2243) translate(8.446 10.878)"/>
                    <path stroke="#D1A448" stroke-linecap="round" stroke-linejoin="round" stroke-width="1.875" d="M73.362 156.196s-1.566.84-.82 2.257c.745 1.418 6.645 3.038 14.252 2.988M92.785 161.408c7.606-.05 13.484-1.748 14.21-3.175.727-1.427-.85-2.245-.85-2.245M87.53 161.437s2.771.081 4.662-.031M109.175 98.167c.016 2.226-8.756 4.088-19.592 4.16-10.835.07-19.632-1.676-19.647-3.902M89.708 123.532s-.385-3.058 1.425-5.174c0 0 1.396-1.882 3.71-2.646 0 0-.148 3.087-1.247 4.528 0 0-.771 1.528-3.888 3.292z" transform="translate(-188 -2241) translate(190 2243) translate(8.446 10.878)"/>
                    <path stroke="#D1A448" stroke-linecap="round" stroke-linejoin="round" stroke-width="1.875" d="M89.886 123.488s.345-3.062-1.494-5.155c0 0-1.42-1.863-3.746-2.597 0 0 .19 3.085 1.308 4.511 0 0 .792 1.519 3.932 3.241zM89.852 123.628s1.177-2.852 3.803-3.818c0 0 2.147-.962 4.543-.504 0 0-1.658 2.619-3.327 3.341 0 0-1.43.958-5.019.981z" transform="translate(-188 -2241) translate(190 2243) translate(8.446 10.878)"/>
                    <path stroke="#D1A448" stroke-linecap="round" stroke-linejoin="round" stroke-width="1.875" d="M89.85 123.628s-1.216-2.837-3.854-3.767c0 0-2.16-.935-4.55-.445 0 0 1.693 2.597 3.373 3.297 0 0 1.442.939 5.03.915z" transform="translate(-188 -2241) translate(190 2243) translate(8.446 10.878)"/>
                    <path stroke="#D1A448" stroke-linecap="round" stroke-linejoin="round" stroke-width="1.875" d="M89.872 123.457s-1.943-2.406-1.518-5.149c0 0 .195-2.327 1.765-4.177 0 0 1.503 2.708 1.328 4.505 0 0 .15 1.703-1.575 4.82zM72.099 108.215s1.94 10.976 7.415 16.43M71.79 106.263s-.248-1.42-.256-2.606M72.038 107.447L72.036 107.21" transform="translate(-188 -2241) translate(190 2243) translate(8.446 10.878)"/>
                    <path stroke="#44E7D9" stroke-linecap="round" stroke-linejoin="round" stroke-width="1.875" d="M94.765 98.285s-2.504-.155-1.92-1.014c.582-.86-.006-.856-1.184-.848-1.178.008-3.09.362-1.615.695 0 0 1.252.398.892 1.25M72.256 96.467s7.456-3.697 13.787-3.567M87.223 92.892L89.945 92.874M90.847 92.868s10.994-.091 16.283 3.22" transform="translate(-188 -2241) translate(190 2243) translate(8.446 10.878)"/>
                    <path stroke="#44E7D9" stroke-linecap="round" stroke-linejoin="round" stroke-width="1.875" d="M83.827 98.336s.553-1.095-1.359-.74c-1.911.354-1.997-1.442.655-1.117 2.652.325 5.595.135 5.146-.89-.448-1.023-3.238.021-3.096-.835.141-.857 2.498-.7 3.823-.71 1.324-.008 3.232-.876 5.152-.033 1.919.843-2.057.698-.726 1.545 1.33.847 3.97-.711 4.709-.202.74.508-1.022 1.204-1.314 1.72-.29.515 1.508.75 1.508.75M53.352 176.498L85.275 176.498M62.843 182.188L128.415 182.188M55.365 185.535L101.093 185.535M104.544 185.535L130.141 185.535M107.42 176.833L114.035 176.833M43.286 191.225L87.576 191.225M92.753 191.225L128.702 191.225 143.37 191.225M59.248 197.585L124.101 197.585M45.914 202.695L60.581 202.695M69.458 202.94L72.621 202.94M76.648 202.94L131.866 202.94M95.917 199.928L122.088 199.928M76.648 209.634L54.829 209.634 39.404 209.634M68.019 187.878L77.798 187.878M99.08 210.304L101.956 210.304M139.383 207.047L82.439 207.047M120.401 210.394L105.446 210.394M124.101 194.907L71.758 194.907M97.067 179.511L46.45 179.511M126.114 196.916L129.565 196.916M131.291 182.188L145.383 182.188M51.626 185.535L25.168 185.535M50.189 194.907L40.123 194.907M43.861 178.841L23.154 178.841M152.573 173.151L128.702 173.151 51.626 173.151 20.566 173.151" transform="translate(-188 -2241) translate(190 2243) translate(8.446 10.878)"/>
                    <path fill="#FFF" d="M43.328 90.692c.19-.063.398.04.461.229.064.19-.04.394-.231.457-.192.063-.398-.04-.462-.23-.063-.189.04-.394.232-.456M56.37 102.163c.345-.114.717.071.83.412.115.342-.072.71-.416.824-.344.113-.717-.072-.83-.413-.115-.342.071-.71.416-.823M41.665 113.248c.191-.063.398.04.461.23.064.189-.04.393-.231.456-.192.063-.398-.04-.462-.23-.063-.189.04-.393.232-.456M51.244 74.968c.345-.113.716.072.83.413.115.341-.072.71-.416.823-.344.113-.717-.071-.83-.413-.115-.341.071-.71.416-.823M62.893 126.91c.128.154.106.382-.05.509-.155.127-.385.105-.513-.049-.129-.154-.106-.382.049-.509s.385-.105.514.049M65.683 111.667c.373-.305.925-.253 1.233.117.308.37.255.917-.118 1.222-.373.306-.925.253-1.234-.117-.308-.37-.254-.917.119-1.222M51.412 122.442c.373-.305.925-.252 1.233.118.308.37.255.917-.118 1.222-.373.305-.925.253-1.234-.117-.308-.37-.254-.917.119-1.223M72.358 145.203c.373-.305.925-.253 1.233.117.308.37.255.917-.118 1.222-.374.305-.926.253-1.234-.117-.308-.37-.254-.917.119-1.222M36.752 61.739c.128.154.106.382-.05.509-.155.127-.385.105-.514-.049-.128-.154-.106-.382.05-.509.155-.127.386-.105.514.049M57.624 53.41c.18.215.149.534-.069.712-.218.178-.54.147-.72-.069-.179-.216-.148-.534.07-.713.218-.177.54-.147.72.07M71.299 82.645c.373-.306.925-.253 1.233.117.308.37.255.917-.118 1.222-.374.305-.926.253-1.234-.117-.308-.37-.255-.918.119-1.222M41.32 41.175c.344-.113.716.072.83.413.114.341-.072.71-.417.823-.344.113-.716-.071-.83-.413-.115-.341.071-.71.416-.823M40.337 80.85c-.114-.342.072-.71.416-.824.345-.113.717.072.832.413.114.342-.073.71-.417.823-.345.114-.717-.07-.831-.412M58.711 138.303c.129.154.107.382-.049.509-.155.127-.386.105-.514-.049s-.106-.382.05-.51c.155-.126.385-.104.513.05M55.597 43.618c.18.216.149.535-.069.713-.218.178-.54.147-.72-.069-.179-.215-.148-.535.07-.712.218-.179.54-.148.72.068M54.663 146.22c.373-.306.925-.253 1.233.117.308.37.255.917-.118 1.222-.373.305-.926.253-1.234-.117-.308-.37-.255-.917.119-1.222M135.46 98.53c-.191.063-.398-.04-.461-.23-.064-.19.04-.394.231-.457.192-.063.398.04.462.23.063.19-.04.394-.232.457M122.418 87.059c-.345.113-.717-.072-.831-.413-.115-.342.072-.71.416-.823.345-.113.717.071.831.412.115.342-.071.71-.416.824M137.123 75.974c-.191.062-.398-.04-.462-.23s.04-.394.232-.457c.191-.063.398.04.462.23.063.19-.04.394-.232.457M118.76 124.295c-.344.113-.716-.072-.83-.413-.115-.341.071-.71.416-.823.345-.114.717.071.83.413.115.341-.071.71-.416.823M125.692 52.94c-.128-.155-.106-.383.05-.51.155-.127.385-.105.514.05.128.153.106.381-.05.509-.155.126-.386.105-.514-.05M123.916 72.869c-.373.305-.926.252-1.234-.118-.308-.37-.255-.917.118-1.222.374-.305.926-.253 1.234.117.308.37.255.917-.118 1.223M135.484 63.432c-.373.305-.926.252-1.233-.117-.308-.37-.255-.918.118-1.223.373-.305.925-.253 1.234.118.307.37.254.917-.119 1.222M116.565 40.671c-.373.306-.925.253-1.233-.117-.308-.37-.255-.917.118-1.222.373-.305.925-.253 1.234.117.308.37.255.918-.119 1.222M137.982 129.156c-.129-.154-.106-.382.049-.509s.386-.105.514.049c.129.154.106.382-.05.509-.155.127-.385.105-.513-.049M102.92 138.49c-.18-.216-.148-.535.07-.713.217-.178.54-.147.719.068.18.217.149.536-.069.714-.218.177-.54.147-.72-.069M125.395 106.912c-.373.305-.926.252-1.234-.118-.308-.37-.255-.917.118-1.222.374-.305.926-.253 1.234.118.308.37.255.917-.118 1.222M126.32 159.092c-.345.113-.717-.072-.83-.413-.115-.342.071-.71.416-.823.344-.114.717.071.83.412.115.342-.071.71-.416.824M137.437 112.388c.115.342-.072.71-.416.824-.345.113-.717-.072-.831-.413-.115-.342.072-.71.416-.823.345-.114.717.07.831.412M115.009 98.447c-.129-.154-.106-.382.049-.509s.386-.105.514.049c.129.154.106.382-.05.509-.155.127-.385.105-.513-.049M123.19 145.604c-.18-.216-.148-.536.07-.713.217-.178.54-.148.72.068.179.216.148.535-.07.713-.218.178-.54.147-.72-.068M112.053 22.05c-.097-.175-.032-.395.145-.49.177-.096.399-.032.496.143.097.175.032.395-.145.491-.177.096-.4.032-.496-.143M84.074 167.57c-.097-.175-.032-.395.145-.491.177-.096.398-.032.495.143.097.176.032.396-.145.492-.177.096-.398.031-.495-.144M83.722 22.935c-.175-.316-.058-.711.26-.884.32-.173.718-.057.893.259.174.315.057.71-.261.883-.319.173-.718.057-.892-.258M90.709 77.994c.13-.152.36-.172.514-.043.154.129.174.357.043.51-.13.153-.36.172-.514.043-.154-.129-.174-.357-.043-.51M113.168 151.797c-.37-.309-.416-.857-.104-1.223.312-.366.864-.413 1.235-.104.37.31.416.857.104 1.224-.312.366-.865.413-1.235.103M105.693 85.068c-.37-.31-.416-.857-.104-1.223.312-.367.865-.413 1.235-.104.37.31.417.857.104 1.223-.312.367-.864.413-1.235.104M60.563 163.737c-.37-.31-.417-.857-.105-1.224.312-.366.865-.413 1.235-.103.37.309.417.857.105 1.223-.312.367-.865.413-1.235.104M84.482 33.65c.13-.154.36-.173.514-.044.154.13.174.357.044.51-.13.153-.36.172-.515.043-.154-.129-.173-.357-.043-.51M103.55 29.525c.182-.214.505-.24.72-.06.216.18.244.5.062.714-.183.214-.505.24-.72.06-.217-.18-.244-.5-.062-.714M129.967 135.242c-.37-.31-.417-.858-.105-1.224s.865-.413 1.235-.103c.37.309.417.857.104 1.223-.312.366-.865.413-1.234.104M64.595 30.206c-.175-.315-.058-.711.26-.884.32-.172.719-.057.893.259.174.315.057.71-.261.883-.319.173-.718.057-.892-.258M99.86 40.532c-.319.173-.718.056-.893-.259-.174-.315-.057-.711.262-.884.318-.173.718-.057.892.259.174.316.057.71-.261.884M122.834 33.531c.13-.153.36-.172.515-.043.154.129.173.357.043.51-.13.152-.36.171-.514.043-.154-.129-.174-.357-.044-.51M70.88 37.942c.182-.214.505-.24.72-.06.216.18.244.5.061.713-.182.214-.504.241-.72.06-.216-.18-.243-.499-.061-.713M105.827 169.363c-.37-.31-.417-.857-.105-1.224.312-.366.865-.413 1.235-.103.37.309.417.857.105 1.223-.312.367-.865.413-1.235.104" transform="translate(-188 -2241) translate(190 2243) translate(8.446 10.878)"/>
                </g>
            </g>
        </g>
    </g>
</svg>
