<?xml version="1.0" encoding="UTF-8"?>
<svg xmlns="http://www.w3.org/2000/svg" viewBox="0 0 200 200">
  <defs>
    <filter id="glow">
      <feGaussianBlur stdDeviation="0.6" result="coloredBlur"/>
      <feMerge>
        <feMergeNode in="coloredBlur"/>
        <feMergeNode in="SourceGraphic"/>
      </feMerge>
    </filter>
  </defs>
  <g transform="translate(10,10) scale(7.5)">
    <path d="M7,2 C4.239,2 2,4.239 2,7 L4,7 C4,5.343 5.343,4 7,4 C8.657,4 10,5.343 10,7 L12,7 C12,4.239 9.761,2 7,2" id="Horn" fill="#E8C862"></path>
    <path d="M17,2 C14.239,2 12,4.239 12,7 L14,7 C14,5.343 15.343,4 17,4 C18.657,4 20,5.343 20,7 L22,7 C22,4.239 19.761,2 17,2" id="Horn" fill="#E8C862"></path>
    <polygon id="Head" fill="#E8C862" points="13 22 11 22 10 9 14 9"></polygon>
  </g>
</svg>
