<?xml version="1.0" encoding="UTF-8"?>
<svg xmlns="http://www.w3.org/2000/svg" viewBox="0 0 200 200">
  <defs>
    <filter id="glow">
      <feGaussianBlur stdDeviation="0.6" result="coloredBlur"/>
      <feMerge>
        <feMergeNode in="coloredBlur"/>
        <feMergeNode in="SourceGraphic"/>
      </feMerge>
    </filter>
  </defs>
  <g transform="translate(10,10) scale(7.5)">
    <polygon id="Scale" fill="#E8C862" points="2 22 22 22 22 20 2 20"></polygon>
    <path d="M17.2736,16 C18.9426,14.537 19.9996,12.395 19.9996,10 C19.9996,5.582 16.4186,2 11.9996,2 C7.5816,2 3.9996,5.582 3.9996,10 C3.9996,12.395 5.0576,14.537 6.7266,16 L1.9996,16 L1.9996,18 L9.9996,18 L9.9996,17.738 L9.9996,16 L9.9996,15.65 C7.6736,14.824 5.9996,12.606 5.9996,10 C5.9996,6.692 8.6916,4 11.9996,4 C15.3086,4 17.9996,6.692 17.9996,10 C17.9996,12.606 16.3266,14.824 13.9996,15.65 L13.9996,16 L13.9996,17.738 L13.9996,18 L21.9996,18 L21.9996,16 L17.2736,16 Z" id="Top" fill="#E8C862"></path>
  </g>
</svg>
