<svg xmlns="http://www.w3.org/2000/svg" viewBox="0 0 1000 1000" preserveAspectRatio="xMidYMid slice">
  <defs>
    <radialGradient id="bgBase" cx="50%" cy="40%" r="60%">
      <stop offset="0%" stop-color="#0e0928"/>
      <stop offset="50%" stop-color="#060718"/>
      <stop offset="100%" stop-color="#020408"/>
    </radialGradient>
    <radialGradient id="zNeb1" cx="35%" cy="28%" r="46%">
      <stop offset="0%" stop-color="#2a1275" stop-opacity="0.65"/>
      <stop offset="100%" stop-color="#2a1275" stop-opacity="0"/>
    </radialGradient>
    <radialGradient id="zNeb2" cx="70%" cy="70%" r="40%">
      <stop offset="0%" stop-color="#083a50" stop-opacity="0.55"/>
      <stop offset="100%" stop-color="#083a50" stop-opacity="0"/>
    </radialGradient>
    <radialGradient id="zNebCtr" cx="50%" cy="50%" r="22%">
      <stop offset="0%" stop-color="#CDA94B" stop-opacity="0.18"/>
      <stop offset="100%" stop-color="#CDA94B" stop-opacity="0"/>
    </radialGradient>
  </defs>
  <rect width="1000" height="1000" fill="url(#bgBase)"/>
  <rect width="1000" height="1000" fill="url(#zNeb1)"/>
  <rect width="1000" height="1000" fill="url(#zNeb2)"/>
  <rect width="1000" height="1000" fill="url(#zNebCtr)"/>
  <circle cx="456.7" cy="255.9" r="1.7" fill="white" opacity="0.32"/>
  <circle cx="513.9" cy="360.8" r="1.89" fill="white" opacity="0.56"/>
  <circle cx="370.2" cy="469.1" r="1.3" fill="white" opacity="0.93"/>
  <circle cx="541.8" cy="386.9" r="0.95" fill="white" opacity="0.44"/>
  <circle cx="719.1" cy="916" r="1.77" fill="white" opacity="0.83"/>
  <circle cx="404.6" cy="635.9" r="1.05" fill="white" opacity="0.57"/>
  <circle cx="103.3" cy="852.2" r="1.05" fill="white" opacity="0.73"/>
  <circle cx="322.6" cy="577.6" r="1.34" fill="white" opacity="0.84"/>
  <circle cx="182.3" cy="557.2" r="0.48" fill="white" opacity="0.87"/>
  <circle cx="739.4" cy="426.8" r="0.54" fill="white" opacity="0.76"/>
  <circle cx="398.7" cy="653.9" r="1.21" fill="white" opacity="0.78"/>
  <circle cx="460.8" cy="545" r="0.34" fill="white" opacity="0.69"/>
  <circle cx="893.6" cy="884.3" r="1.44" fill="white" opacity="0.68"/>
  <circle cx="382.5" cy="557" r="0.84" fill="white" opacity="0.98"/>
  <circle cx="971.9" cy="439.4" r="0.8" fill="white" opacity="0.28"/>
  <circle cx="802.8" cy="492.2" r="0.44" fill="white" opacity="0.39"/>
  <circle cx="363.2" cy="411.3" r="0.8" fill="white" opacity="0.44"/>
  <circle cx="974.2" cy="870.1" r="0.84" fill="white" opacity="0.77"/>
  <circle cx="510.7" cy="821.7" r="0.42" fill="white" opacity="0.38"/>
  <circle cx="712.4" cy="379.2" r="1.88" fill="white" opacity="0.43"/>
  <circle cx="236.9" cy="835.3" r="0.73" fill="white" opacity="0.47"/>
  <circle cx="867.1" cy="861.8" r="1.08" fill="white" opacity="0.87"/>
  <circle cx="328.9" cy="665.4" r="1.06" fill="white" opacity="0.72"/>
  <circle cx="719" cy="409.2" r="0.43" fill="white" opacity="0.8"/>
  <circle cx="238.2" cy="739.1" r="1.45" fill="white" opacity="0.65"/>
  <circle cx="436.3" cy="88" r="1.44" fill="white" opacity="0.71"/>
  <circle cx="976.7" cy="73.6" r="0.75" fill="white" opacity="0.76"/>
  <circle cx="295.6" cy="464.4" r="1.31" fill="white" opacity="0.34"/>
  <circle cx="645.3" cy="975.1" r="1.13" fill="white" opacity="0.82"/>
  <circle cx="296" cy="355.6" r="1.63" fill="white" opacity="0.78"/>
  <circle cx="85.3" cy="606.4" r="1.31" fill="white" opacity="0.89"/>
  <circle cx="101.6" cy="749.3" r="1.79" fill="white" opacity="0.44"/>
  <circle cx="369" cy="586.9" r="1.41" fill="white" opacity="0.97"/>
  <circle cx="537.9" cy="829.4" r="0.73" fill="white" opacity="0.31"/>
  <circle cx="378.4" cy="196.3" r="1.78" fill="white" opacity="0.9"/>
  <circle cx="58.4" cy="552.9" r="1.19" fill="white" opacity="0.66"/>
  <circle cx="856.1" cy="229.7" r="1.03" fill="white" opacity="0.82"/>
  <circle cx="131.6" cy="666.9" r="0.32" fill="white" opacity="0.4"/>
  <circle cx="86.9" cy="2.8" r="0.76" fill="white" opacity="0.83"/>
  <circle cx="60.2" cy="42.2" r="1.34" fill="white" opacity="0.88"/>
  <circle cx="56.3" cy="994.2" r="0.55" fill="white" opacity="0.29"/>
  <circle cx="199" cy="708.9" r="1.11" fill="white" opacity="0.91"/>
  <circle cx="792.3" cy="343.4" r="0.45" fill="white" opacity="0.73"/>
  <circle cx="848.8" cy="590.3" r="1.1" fill="white" opacity="0.94"/>
  <circle cx="769.9" cy="219.1" r="1.59" fill="white" opacity="0.31"/>
  <circle cx="24.9" cy="783.7" r="0.38" fill="white" opacity="0.29"/>
  <circle cx="514.1" cy="593.7" r="0.89" fill="white" opacity="0.45"/>
  <circle cx="673.3" cy="541" r="1.89" fill="white" opacity="0.5"/>
  <circle cx="119.3" cy="889.2" r="1.69" fill="white" opacity="0.79"/>
  <circle cx="911.4" cy="755.6" r="0.58" fill="white" opacity="0.47"/>
  <circle cx="240.4" cy="967.2" r="0.9" fill="white" opacity="0.93"/>
  <circle cx="862.1" cy="584.6" r="0.78" fill="white" opacity="0.67"/>
  <circle cx="662.3" cy="547.2" r="0.97" fill="white" opacity="0.5"/>
  <circle cx="672.5" cy="235.3" r="1.79" fill="white" opacity="0.33"/>
  <circle cx="307.4" cy="173.5" r="1.57" fill="white" opacity="0.95"/>
  <circle cx="762.8" cy="336.2" r="0.72" fill="white" opacity="0.46"/>
  <circle cx="305.3" cy="854.8" r="0.49" fill="white" opacity="0.73"/>
  <circle cx="622.1" cy="542.4" r="0.38" fill="white" opacity="0.81"/>
  <circle cx="87.6" cy="63.8" r="0.5" fill="white" opacity="0.43"/>
  <circle cx="873.2" cy="65.8" r="0.98" fill="white" opacity="0.87"/>
  <circle cx="500.6" cy="368.8" r="0.49" fill="white" opacity="0.48"/>
  <circle cx="820.6" cy="994.2" r="1.07" fill="white" opacity="0.94"/>
  <circle cx="766.3" cy="810.3" r="0.66" fill="white" opacity="0.37"/>
  <circle cx="986.7" cy="770.7" r="0.88" fill="white" opacity="0.87"/>
  <circle cx="862.3" cy="935" r="1.66" fill="white" opacity="0.73"/>
  <circle cx="892.8" cy="733.2" r="1.21" fill="white" opacity="0.5"/>
  <circle cx="571.3" cy="512.7" r="1.76" fill="white" opacity="0.95"/>
  <circle cx="129.4" cy="295.2" r="1.12" fill="white" opacity="0.69"/>
  <circle cx="390.9" cy="959.4" r="1.57" fill="white" opacity="0.96"/>
  <circle cx="7.6" cy="191" r="1.61" fill="white" opacity="0.95"/>
  <circle cx="841.2" cy="169.5" r="1.72" fill="white" opacity="0.9"/>
  <circle cx="769.2" cy="404.6" r="0.96" fill="white" opacity="0.51"/>
  <circle cx="899.8" cy="101.8" r="1.32" fill="white" opacity="0.74"/>
  <circle cx="592.9" cy="611.4" r="0.82" fill="white" opacity="0.83"/>
  <circle cx="929.2" cy="968.5" r="1.68" fill="white" opacity="0.96"/>
  <circle cx="793.2" cy="425.6" r="0.52" fill="white" opacity="0.57"/>
  <circle cx="804.6" cy="274.9" r="1.56" fill="white" opacity="0.5"/>
  <circle cx="777.6" cy="244.2" r="1.51" fill="white" opacity="0.88"/>
  <circle cx="867.5" cy="778.3" r="1.01" fill="white" opacity="0.66"/>
  <circle cx="222" cy="623.5" r="1.27" fill="white" opacity="0.69"/>
  <circle cx="704.4" cy="983.1" r="1.9" fill="white" opacity="0.74"/>
  <circle cx="801.9" cy="719.3" r="1.09" fill="white" opacity="0.74"/>
  <circle cx="822.2" cy="402.2" r="1.8" fill="white" opacity="0.31"/>
  <circle cx="848.7" cy="615.1" r="1.18" fill="white" opacity="0.75"/>
  <circle cx="6.7" cy="263.2" r="1.67" fill="white" opacity="0.83"/>
  <circle cx="600" cy="22.6" r="0.89" fill="white" opacity="0.42"/>
  <circle cx="361.6" cy="955.5" r="1.15" fill="white" opacity="0.45"/>
  <circle cx="194.9" cy="51.6" r="1.69" fill="white" opacity="0.69"/>
  <circle cx="356.2" cy="579.7" r="0.83" fill="white" opacity="0.97"/>
  <circle cx="624" cy="632.9" r="1.1" fill="white" opacity="0.45"/>
  <circle cx="395" cy="416.6" r="1.48" fill="white" opacity="0.55"/>
  <circle cx="35.9" cy="872.4" r="0.34" fill="white" opacity="0.41"/>
  <circle cx="187.5" cy="784.8" r="0.54" fill="white" opacity="0.45"/>
  <circle cx="858.9" cy="800.6" r="1.13" fill="white" opacity="0.47"/>
  <circle cx="689.5" cy="679.7" r="0.56" fill="white" opacity="0.83"/>
  <circle cx="15.4" cy="864.9" r="0.74" fill="white" opacity="0.47"/>
  <circle cx="149.6" cy="799.1" r="1.7" fill="white" opacity="0.35"/>
  <circle cx="206.5" cy="612.6" r="1.79" fill="white" opacity="0.45"/>
  <circle cx="399.4" cy="618.3" r="1.1" fill="white" opacity="0.35"/>
  <circle cx="81.9" cy="266" r="1.8" fill="white" opacity="0.94"/>
  <circle cx="919.9" cy="672.6" r="1.68" fill="white" opacity="0.94"/>
  <circle cx="900.5" cy="288.8" r="0.98" fill="white" opacity="0.39"/>
  <circle cx="224.2" cy="17.7" r="1.74" fill="white" opacity="0.52"/>
  <circle cx="291" cy="794.2" r="0.69" fill="white" opacity="0.5"/>
  <circle cx="818.3" cy="147.5" r="0.55" fill="white" opacity="0.76"/>
  <circle cx="329.9" cy="295.2" r="1.11" fill="white" opacity="0.51"/>
  <circle cx="716.4" cy="454.9" r="0.57" fill="white" opacity="0.44"/>
  <circle cx="965" cy="100.3" r="1.28" fill="white" opacity="0.89"/>
  <circle cx="710.7" cy="802.9" r="1.36" fill="white" opacity="0.76"/>
  <circle cx="928" cy="488.3" r="1.71" fill="white" opacity="0.71"/>
  <circle cx="967" cy="517.2" r="0.55" fill="white" opacity="0.8"/>
  <circle cx="168.8" cy="925.5" r="0.97" fill="white" opacity="0.32"/>
  <circle cx="870.1" cy="40.6" r="1.75" fill="white" opacity="0.48"/>
  <circle cx="63.3" cy="169.6" r="1.84" fill="white" opacity="0.82"/>
  <circle cx="320.8" cy="655.2" r="1.17" fill="white" opacity="0.45"/>
  <circle cx="848.1" cy="874.9" r="1.34" fill="white" opacity="0.8"/>
  <circle cx="273.4" cy="38.3" r="0.92" fill="white" opacity="0.36"/>
  <circle cx="206.8" cy="334.2" r="1.4" fill="white" opacity="0.49"/>
  <circle cx="123.7" cy="643.6" r="1.85" fill="white" opacity="0.46"/>
  <circle cx="702" cy="81.4" r="0.34" fill="white" opacity="0.97"/>
  <circle cx="54" cy="618.2" r="1.88" fill="white" opacity="0.87"/>
  <circle cx="467.2" cy="613.9" r="1.66" fill="white" opacity="0.41"/>
  <circle cx="260" cy="312" r="1.22" fill="white" opacity="0.29"/>
  <circle cx="670" cy="554.6" r="0.85" fill="white" opacity="0.35"/>
  <circle cx="473.4" cy="923.7" r="1.58" fill="white" opacity="0.5"/>
  <circle cx="707.5" cy="980.1" r="1.8" fill="white" opacity="0.44"/>
  <circle cx="724.3" cy="238.7" r="0.63" fill="white" opacity="0.85"/>
  <circle cx="912.1" cy="295.2" r="1" fill="white" opacity="0.81"/>
  <circle cx="140" cy="161.5" r="1.5" fill="white" opacity="0.44"/>
  <circle cx="750.4" cy="217.3" r="1.89" fill="white" opacity="0.5"/>
  <circle cx="541.7" cy="72.7" r="1.02" fill="white" opacity="0.72"/>
  <circle cx="371.1" cy="502.1" r="0.66" fill="white" opacity="0.89"/>
  <circle cx="971.2" cy="2.8" r="1.17" fill="white" opacity="0.55"/>
  <circle cx="170.8" cy="90.3" r="0.32" fill="white" opacity="0.93"/>
  <circle cx="475.8" cy="350.7" r="0.95" fill="white" opacity="0.79"/>
  <circle cx="668.8" cy="472.8" r="1" fill="white" opacity="0.56"/>
  <circle cx="614.7" cy="413" r="1.59" fill="white" opacity="0.57"/>
  <circle cx="172.2" cy="511.7" r="1.53" fill="white" opacity="0.44"/>
  <circle cx="92.8" cy="979.6" r="1.74" fill="white" opacity="0.9"/>
  <circle cx="179.9" cy="785.9" r="0.96" fill="white" opacity="0.38"/>
  <circle cx="595.9" cy="121.8" r="0.71" fill="white" opacity="0.59"/>
  <circle cx="583.3" cy="885.3" r="0.63" fill="white" opacity="0.32"/>
  <circle cx="924.1" cy="432.3" r="0.99" fill="white" opacity="0.57"/>
  <circle cx="107.2" cy="174.2" r="1.04" fill="white" opacity="0.36"/>
  <circle cx="779.2" cy="886.5" r="1.02" fill="white" opacity="0.89"/>
  <circle cx="566.4" cy="792.7" r="0.67" fill="white" opacity="0.45"/>
  <circle cx="776.2" cy="638.1" r="1.59" fill="white" opacity="0.45"/>
  <circle cx="920.3" cy="382.6" r="0.76" fill="white" opacity="0.41"/>
  <circle cx="280.8" cy="186.7" r="1.8" fill="white" opacity="0.92"/>
  <circle cx="375.3" cy="750.5" r="1.53" fill="white" opacity="0.97"/>
  <circle cx="556.5" cy="871.8" r="1.45" fill="white" opacity="0.9"/>
  <circle cx="315.8" cy="830.3" r="0.9" fill="white" opacity="0.4"/>
  <circle cx="176.5" cy="931.7" r="1.06" fill="white" opacity="0.34"/>
  <circle cx="316.9" cy="585.6" r="0.79" fill="white" opacity="0.67"/>
  <circle cx="230.5" cy="873.6" r="1.37" fill="white" opacity="0.29"/>
  <circle cx="332.7" cy="539.2" r="0.65" fill="white" opacity="0.62"/>
  <circle cx="623.3" cy="184.1" r="0.71" fill="white" opacity="0.7"/>
  <circle cx="521.9" cy="895.6" r="0.76" fill="white" opacity="0.64"/>
  <circle cx="83.8" cy="22.5" r="0.83" fill="white" opacity="0.44"/>
  <circle cx="140.2" cy="364.1" r="1.52" fill="white" opacity="0.88"/>
  <circle cx="650.7" cy="979.3" r="0.73" fill="white" opacity="0.44"/>
  <circle cx="351.6" cy="703.9" r="1.49" fill="white" opacity="0.3"/>
  <circle cx="675.2" cy="582.2" r="0.5" fill="white" opacity="0.72"/>
  <circle cx="999.9" cy="258.2" r="0.92" fill="white" opacity="0.63"/>
  <circle cx="964.8" cy="426.4" r="1.52" fill="white" opacity="0.39"/>
  <circle cx="55.6" cy="768.1" r="1.46" fill="white" opacity="0.84"/>
  <circle cx="405.1" cy="190.5" r="1.48" fill="white" opacity="0.97"/>
  <circle cx="919.3" cy="32.5" r="1.47" fill="white" opacity="0.5"/>
  <circle cx="781.2" cy="875.1" r="1.63" fill="white" opacity="0.95"/>
  <circle cx="557.5" cy="88.8" r="1.25" fill="white" opacity="0.47"/>
  <circle cx="915" cy="19.4" r="1.16" fill="white" opacity="0.41"/>
  <circle cx="130.6" cy="367.7" r="0.85" fill="white" opacity="0.3"/>
  <circle cx="464.3" cy="229.6" r="0.98" fill="white" opacity="0.6"/>
  <circle cx="873.2" cy="787.8" r="0.89" fill="white" opacity="0.47"/>
  <circle cx="798.8" cy="149.2" r="1.52" fill="white" opacity="0.62"/>
  <circle cx="24.6" cy="112.7" r="0.45" fill="white" opacity="0.85"/>
  <circle cx="592.5" cy="596" r="1.34" fill="white" opacity="0.66"/>
  <circle cx="329" cy="59.9" r="1.79" fill="white" opacity="0.77"/>
  <circle cx="755.3" cy="656.3" r="0.54" fill="white" opacity="0.85"/>
  <circle cx="204.2" cy="45.9" r="0.86" fill="white" opacity="0.32"/>
  <circle cx="45.5" cy="484.4" r="1.34" fill="white" opacity="0.85"/>
  <circle cx="935" cy="587.3" r="1.07" fill="white" opacity="0.91"/>
  <circle cx="897.5" cy="343.8" r="0.83" fill="white" opacity="0.95"/>
  <circle cx="805.4" cy="284" r="1.9" fill="white" opacity="0.37"/>
  <circle cx="963.7" cy="408" r="1.18" fill="white" opacity="0.55"/>
  <circle cx="449.5" cy="213.6" r="0.88" fill="white" opacity="0.68"/>
  <circle cx="778" cy="425.2" r="0.56" fill="white" opacity="0.32"/>
  <circle cx="933.2" cy="249.4" r="1.38" fill="white" opacity="0.83"/>
  <circle cx="973.5" cy="623.1" r="0.9" fill="white" opacity="0.81"/>
  <circle cx="855.6" cy="172.8" r="1.04" fill="white" opacity="0.78"/>
  <circle cx="766.3" cy="696.1" r="1.83" fill="white" opacity="0.6"/>
  <circle cx="330.2" cy="574.7" r="1.09" fill="white" opacity="0.32"/>
  <circle cx="220.4" cy="618.9" r="1.55" fill="white" opacity="0.44"/>
  <circle cx="457.3" cy="706.4" r="1.53" fill="white" opacity="0.31"/>
  <circle cx="260.6" cy="56.6" r="1.8" fill="white" opacity="0.35"/>
  <circle cx="927.4" cy="62.1" r="0.75" fill="white" opacity="0.3"/>
  <circle cx="672.7" cy="670.6" r="0.55" fill="white" opacity="0.62"/>
  <circle cx="209.2" cy="674" r="0.71" fill="white" opacity="0.54"/>
  <circle cx="77.2" cy="832.1" r="0.52" fill="white" opacity="0.89"/>
  <circle cx="785.5" cy="96.8" r="1.6" fill="white" opacity="0.44"/>
  <circle cx="359.2" cy="361.7" r="0.53" fill="white" opacity="0.47"/>
  <circle cx="350.5" cy="949.3" r="1.37" fill="white" opacity="0.35"/>
  <circle cx="587" cy="947.1" r="1.19" fill="white" opacity="0.7"/>
  <circle cx="885.3" cy="482.2" r="0.75" fill="white" opacity="0.79"/>
  <circle cx="810.3" cy="619" r="0.31" fill="white" opacity="0.85"/>
  <circle cx="108.9" cy="365.5" r="0.4" fill="white" opacity="0.88"/>
  <circle cx="540.7" cy="656.8" r="0.53" fill="white" opacity="0.53"/>
  <circle cx="772.7" cy="526.1" r="1" fill="white" opacity="0.38"/>
  <circle cx="970" cy="41.6" r="1.09" fill="white" opacity="0.75"/>
  <circle cx="547.7" cy="865.8" r="1.03" fill="white" opacity="0.37"/>
  <circle cx="105.2" cy="897.5" r="0.51" fill="white" opacity="0.96"/>
  <circle cx="639.2" cy="900.8" r="1.78" fill="white" opacity="0.68"/>
  <circle cx="784.5" cy="104.3" r="1.64" fill="white" opacity="0.43"/>
  <circle cx="543.7" cy="710.6" r="1.83" fill="white" opacity="0.66"/>
  <circle cx="436.4" cy="53.4" r="0.81" fill="white" opacity="0.86"/>
  <circle cx="247.3" cy="467.8" r="0.86" fill="white" opacity="0.94"/>
  <circle cx="572.3" cy="393.8" r="1.63" fill="white" opacity="0.31"/>
  <circle cx="428.8" cy="869.8" r="1.1" fill="white" opacity="0.29"/>
  <circle cx="643.1" cy="589.3" r="1.1" fill="white" opacity="0.59"/>
  <circle cx="277.3" cy="327.1" r="0.65" fill="white" opacity="0.79"/>
</svg>