<svg xmlns="http://www.w3.org/2000/svg" viewBox="0 0 500 500">
  <g transform="translate(285.56 51.03) scale(1.1667)">
    <path d="M 12 19 C 6 19 5 5 10 5 M 12 19 C 18 19 19 5 14 5" stroke="#E8C862" stroke-width="2.2" fill="none" stroke-linecap="round" stroke-linejoin="round" vector-effect="non-scaling-stroke" opacity="1"/>
  </g>
  <g transform="translate(371.41 100.59) scale(1.1667)">
    <path d="M 8 17 a 4 4 0 1 0 8 0 a 4 4 0 1 0 -8 0 M 5 8 Q 8 4 12 8 Q 16 4 19 8" stroke="#E8C862" stroke-width="2.2" fill="none" stroke-linecap="round" stroke-linejoin="round" vector-effect="non-scaling-stroke" opacity="1"/>
  </g>
  <g transform="translate(420.97 186.44) scale(1.1667)">
    <path d="M 7 5 L 7 19 M 13 5 L 13 19 M 5 5 L 15 5 M 5 19 L 15 19" stroke="#E8C862" stroke-width="2.2" fill="none" stroke-linecap="round" stroke-linejoin="round" vector-effect="non-scaling-stroke" opacity="1"/>
  </g>
  <g transform="translate(420.97 285.56) scale(1.1667)">
    <path d="M 5 8 a 2 2 0 1 0 4 0 a 2 2 0 1 0 -4 0 M 9 8 Q 17 8 16 14 M 13 16 a 2 2 0 1 0 4 0 a 2 2 0 1 0 -4 0 M 13 16 Q 5 16 6 10" stroke="#E8C862" stroke-width="2.2" fill="none" stroke-linecap="round" stroke-linejoin="round" vector-effect="non-scaling-stroke" opacity="1"/>
  </g>
  <g transform="translate(371.41 371.41) scale(1.1667)">
    <path d="M 6 9 a 3 3 0 1 0 6 0 a 3 3 0 1 0 -6 0 M 11 11 Q 16 13 17 18 Q 17 21 14 20" stroke="#E8C862" stroke-width="2.2" fill="none" stroke-linecap="round" stroke-linejoin="round" vector-effect="non-scaling-stroke" opacity="1"/>
  </g>
  <g transform="translate(285.56 420.97) scale(1.1667)">
    <path d="M 4 18 L 4 7 L 8 18 L 8 7 L 12 18 L 12 7 L 16 18 Q 19 18 19 14 Q 19 11 16 13 Q 17 17 19 18" stroke="#E8C862" stroke-width="2.2" fill="none" stroke-linecap="round" stroke-linejoin="round" vector-effect="non-scaling-stroke" opacity="1"/>
  </g>
  <g transform="translate(186.44 420.97) scale(1.1667)">
    <path d="M 5 11 Q 12 5 19 11 M 4 17 L 20 17 M 9 17 Q 12 13 15 17" stroke="#E8C862" stroke-width="2.2" fill="none" stroke-linecap="round" stroke-linejoin="round" vector-effect="non-scaling-stroke" opacity="1"/>
  </g>
  <g transform="translate(100.59 371.41) scale(1.1667)">
    <path d="M 4 18 L 4 7 L 8 18 L 8 7 L 12 18 L 12 7 L 16 18 L 20 14 M 18 14 L 20 14 L 20 16" stroke="#E8C862" stroke-width="2.2" fill="none" stroke-linecap="round" stroke-linejoin="round" vector-effect="non-scaling-stroke" opacity="1"/>
  </g>
  <g transform="translate(51.03 285.56) scale(1.1667)">
    <path d="M 5 19 L 19 5 M 13 5 L 19 5 L 19 11 M 9 11 L 13 15" stroke="#E8C862" stroke-width="2.2" fill="none" stroke-linecap="round" stroke-linejoin="round" vector-effect="non-scaling-stroke" opacity="1"/>
  </g>
  <g transform="translate(51.03 186.44) scale(1.1667)">
    <path d="M 4 7 L 9 19 L 14 7 Q 17 7 17 12 Q 17 17 13 17 Q 11 17 12 14" stroke="#E8C862" stroke-width="2.2" fill="none" stroke-linecap="round" stroke-linejoin="round" vector-effect="non-scaling-stroke" opacity="1"/>
  </g>
  <g transform="translate(100.59 100.59) scale(1.1667)">
    <path d="M 3 10 Q 6 7 9 10 Q 12 13 15 10 Q 18 7 21 10 M 3 15 Q 6 12 9 15 Q 12 18 15 15 Q 18 12 21 15" stroke="#E8C862" stroke-width="2.2" fill="none" stroke-linecap="round" stroke-linejoin="round" vector-effect="non-scaling-stroke" opacity="1"/>
  </g>
  <g transform="translate(186.44 51.03) scale(1.1667)">
    <path d="M 5 5 Q 9 12 5 19 M 19 5 Q 15 12 19 19 M 5 12 L 19 12" stroke="#E8C862" stroke-width="2.2" fill="none" stroke-linecap="round" stroke-linejoin="round" vector-effect="non-scaling-stroke" opacity="1"/>
  </g>
</svg>